<svg xmlns="http://www.w3.org/2000/svg" xmlns:xlink="http://www.w3.org/1999/xlink" width="70" height="70" viewBox="0 0 70 70">
  <defs>
    <clipPath id="clip-path">
      <rect id="Rectangle_378030" data-name="Rectangle 378030" width="44.473" height="44.717" fill="#fff"/>
    </clipPath>
  </defs>
  <g id="Group_1071458" data-name="Group 1071458" transform="translate(-269 -958)">
    <circle id="Ellipse_5614" data-name="Ellipse 5614" cx="35" cy="35" r="35" transform="translate(269 958)" fill="#03386e"/>
    <g id="Group_1072843" data-name="Group 1072843" transform="translate(281.763 970.641)">
      <g id="Group_1072842" data-name="Group 1072842" clip-path="url(#clip-path)">
        <path id="Path_716215" data-name="Path 716215" d="M22.549,28.325H35.5c1.031,0,1.208-.177,1.208-1.2q0-9.977-.012-19.953a2.883,2.883,0,0,0-.288-1.2c-.846-1.762-1.744-3.5-2.6-5.257A1.131,1.131,0,0,0,32.651,0Q22.563.024,12.474,0a1.181,1.181,0,0,0-1.21.76C10.524,2.3,9.787,3.842,8.973,5.342A5.085,5.085,0,0,0,8.386,7.9C8.409,14.3,8.4,20.7,8.4,27.105c0,1.039.176,1.219,1.2,1.219q6.477,0,12.955,0M9.946,26.8V7.5h8.883v.835c0,2.333,0,4.666,0,7,0,1.018.534,1.4,1.356.83a3.7,3.7,0,0,1,4.708-.025c.866.6,1.383.221,1.385-.846q.007-3.5,0-7V7.524h8.9V26.8Zm24.8-20.828H27.627c-1.47,0-1.481,0-1.857-1.425-.26-.987-.485-1.984-.742-3.042,2.453,0,4.782-.006,7.11.013a.686.686,0,0,1,.512.29c.7,1.334,1.358,2.684,2.1,4.164M20.09,1.5c-.349,1.429-.655,2.776-1.028,4.1-.048.17-.438.344-.671.347-2.083.027-4.166.016-6.249.016H10.363c.745-1.491,1.42-2.862,2.123-4.219a.621.621,0,0,1,.473-.238c2.329-.015,4.659-.01,7.131-.01m.285,13.034V7.5h4.371v7.038a2.934,2.934,0,0,0-4.371,0m.18-8.592c.347-1.417.662-2.758,1.017-4.087a.644.644,0,0,1,.46-.339,4.687,4.687,0,0,1,1.109,0,.5.5,0,0,1,.368.26c.361,1.37.7,2.746,1.05,4.169Z" transform="translate(6.511 0)" fill="#fff"/>
        <path id="Path_716216" data-name="Path 716216" d="M32.814,205.055a14.926,14.926,0,0,0-2.291-1.077q-5.5-1.549-11.032-2.955a4.4,4.4,0,0,0-1.891.044c-1.377.279-2.734.656-4.179,1.013,0-.356,0-.625,0-.895-.008-.92-.2-1.113-1.149-1.114q-2.421,0-4.841,0c-1.359,0-1.406.045-1.5,1.49-.7,0-1.417-.027-2.129.006-1.2.056-2.39.151-3.585.23-.07,1.2-.185,2.4-.2,3.6-.032,2.308-.011,4.618-.009,6.926,0,.978.189,1.163,1.175,1.165,1.561,0,3.122,0,4.738,0,.018.251.038.462.047.675a.737.737,0,0,0,.78.808q2.942.019,5.884,0a.731.731,0,0,0,.786-.8c.009-.271,0-.543,0-.83.106,0,.192-.027.238,0a7.143,7.143,0,0,0,4.35.9c3.45-.043,6.9,0,10.352-.03a3.322,3.322,0,0,0,1.553-.374c4.329-2.461,8.634-4.965,12.95-7.449a2.925,2.925,0,0,0,1.609-2.734,2.808,2.808,0,0,0-1.6-2.577,2.987,2.987,0,0,0-3.042.157q-3.279,1.9-6.566,3.789c-.149.086-.3.169-.448.254l0-.223m-10.451,7.681c-1.837,0-3.677-.065-5.51.022-1.273.06-2.192-.676-3.229-1.157-.128-.06-.193-.374-.195-.57-.013-2.284,0-4.567-.02-6.851,0-.448.174-.6.567-.693,1.346-.322,2.68-.7,4.033-.992a3.1,3.1,0,0,1,1.38.063c3.587.94,7.164,1.919,10.748,2.869,1.3.344,1.832.969,1.6,1.969-.219.936-1.061,1.246-2.372.894-2.7-.725-5.4-1.433-8.1-2.165-.524-.142-.974-.128-1.133.461s.213.845.739.985c2.842.758,5.674,1.558,8.524,2.286a2.965,2.965,0,0,0,3.857-2.711,1.035,1.035,0,0,1,.478-.641c2.242-1.318,4.5-2.612,6.755-3.906a1.546,1.546,0,0,1,2.278.386,1.529,1.529,0,0,1-.785,2.165q-6.3,3.647-12.622,7.271a2.568,2.568,0,0,1-1.189.3c-1.936.03-3.872.014-5.808.014m-10.466.69H7.521V201.6H11.9ZM1.552,203.112H5.93v8.843H1.552Z" transform="translate(0 -170.258)" fill="#fff"/>
      </g>
    </g>
  </g>
</svg>
