<svg xmlns="http://www.w3.org/2000/svg" xmlns:xlink="http://www.w3.org/1999/xlink" width="125" height="125" viewBox="0 0 125 125">
  <defs>
    <clipPath id="clip-path">
      <rect id="Rectangle_378079" data-name="Rectangle 378079" width="85.868" height="85.744" fill="#fff"/>
    </clipPath>
  </defs>
  <g id="Group_1072855" data-name="Group 1072855" transform="translate(-1089 -2146)">
    <circle id="Ellipse_4840" data-name="Ellipse 4840" cx="62.5" cy="62.5" r="62.5" transform="translate(1089 2146)" fill="#0c5e46"/>
    <g id="Group_1072863" data-name="Group 1072863" transform="translate(1107.585 2166.608)">
      <g id="Group_1072862" data-name="Group 1072862" clip-path="url(#clip-path)">
        <path id="Path_716281" data-name="Path 716281" d="M26.387,85.745c-2.985-.842-5.316-2.461-6.436-5.536H11.265V63.647h2.675c0-3.287-.031-6.445.01-9.6a4.11,4.11,0,0,1,4.306-4.238c1.327-.026,2.655,0,4.217,0-.336-.441-.522-.726-.748-.974a29.634,29.634,0,0,1-6.7-11.925,1.5,1.5,0,0,0-1.04-.882,4.3,4.3,0,0,1-3.457-1.976c-2.732-4.1-5.563-8.134-8.172-12.309a13.611,13.611,0,0,1-.4-14.675A13.155,13.155,0,0,1,14.412.07,13.3,13.3,0,0,1,24.438,4.885c.272.31.539.626.812.935.027.031.083.037.135.059,11.708-7.839,23.42-7.855,35.26.049A14.208,14.208,0,0,1,66.657,1.14,13.3,13.3,0,0,1,80.576,3.051C84.7,6.3,86.291,10.706,85.731,15.9a13.774,13.774,0,0,1-2.368,6.256Q79.44,28,75.555,33.875A4.322,4.322,0,0,1,71.9,36.006a1.2,1.2,0,0,0-.9.564c-1,2.5-1.939,5.031-2.953,7.7,1.68,0,3.489-.045,5.295.008,5.4.159,9.3,2.686,11.467,7.628a12.53,12.53,0,0,1,.985,4.675c.112,5.941.062,11.886.04,17.83a5.516,5.516,0,0,1-5.825,5.8c-1.887.018-3.775,0-5.7,0a8.86,8.86,0,0,1-6.447,5.525H65.1a8.818,8.818,0,0,1-6.436-5.486H35.639c-1.686,3.306-2.68,4.144-6.488,5.486ZM80.1,49.8a9.493,9.493,0,0,0-6.616-2.742c-3.5-.04-7-.019-10.5-.012-4.725.009-7.55,2.834-7.555,7.564q-.01,10.7,0,21.409c0,.446.038.891.059,1.336h2.641c.475-5.72,4.707-8.086,8.056-8.194,4.586-.147,7.7,2.769,8.724,8.269,1.859,0,3.742.059,5.619-.02a2.522,2.522,0,0,0,2.481-2.36c.082-3.76.029-7.523.029-11.431H58.182c0-2.945,0-5.744,0-8.543,0-3.83,1.428-5.276,5.213-5.276H80.1M19.409,77.389c.5-5.9,4.879-8.175,8.181-8.232,4.543-.078,7.657,2.88,8.58,8.214H52.557V66.5H14.026V77.389Zm5.82-63.437a30.4,30.4,0,0,0-1.184-4.491A11,11,0,0,0,8.758,4.11a11.334,11.334,0,0,0-4.11,16.081C7.219,24.224,9.929,28.17,12.6,32.141c.95,1.414,1.752,1.4,2.714-.033,2.613-3.9,5.2-7.811,7.806-11.714a13.571,13.571,0,0,0,2.113-6.441m57.839.034A11.04,11.04,0,0,0,72.244,2.83a10.524,10.524,0,0,0-9.869,5.708,10.947,10.947,0,0,0,.437,11.784c2.524,3.954,5.178,7.826,7.79,11.724,1.015,1.514,1.8,1.527,2.792.04q3.919-5.846,7.806-11.714a11.169,11.169,0,0,0,1.869-6.387M49.6,54.285c2.76-.452,2.808-.5,3.352-2.73.033-.133.088-.26.13-.391a9.536,9.536,0,0,1,9.574-6.854,2.508,2.508,0,0,0,2.7-1.552c.795-1.752,1.623-3.488,2.447-5.226a4.834,4.834,0,0,0-.678-5.8,2.729,2.729,0,0,0-2.442-1.3c-1.833.116-3.679.03-5.519.03H54.15c-.239,2.793-.4,5.4-.7,8a47.127,47.127,0,0,1-3.105,12.661,21.65,21.65,0,0,0-.748,3.166m11.364,6.476H83.07c-.1-2.81.411-5.587-1-8.185-6.532,0-13.015,0-19.5,0a1.4,1.4,0,0,0-1.6,1.492c-.027,2.2-.008,4.4-.008,6.691M35.583,16.685c-.331,3.643-.66,7.26-.993,10.93H51.38c-.345-3.708-.681-7.321-1.017-10.93ZM51.394,30.574H34.7c.112,1.849.217,3.577.3,4.969a24.787,24.787,0,0,1,4.981,1.4c1.659.87,1.689,2.781,1.645,4.519H50.35l1.044-10.892M27.715,38.857c-2.318-.243-2.7.1-2.706,2.3,0,2.254-.014,4.508,0,6.761.012,1.439.452,1.874,1.911,1.88,3.358.015,6.717-.009,10.076.011,1.275.007,1.846-.575,1.832-1.844-.025-2.3,0-4.6-.007-6.9,0-2.131-.529-2.55-2.813-2.111v5.214h-8.3Zm.083,19.15H19.405V52.63c-2.392-.122-2.691.164-2.693,2.434,0,2.208-.011,4.416,0,6.624.01,1.478.429,1.923,1.86,1.931q5.038.026,10.076,0c1.436-.007,1.863-.453,1.873-1.919.016-2.254.007-4.508,0-6.761,0-2.175-.44-2.544-2.731-2.22Zm16.557.1H36.01V52.679c-2.32-.239-2.7.1-2.705,2.3,0,2.254-.014,4.508,0,6.761.012,1.439.451,1.872,1.912,1.878,3.359.014,6.717-.009,10.076.011,1.276.007,1.844-.578,1.831-1.846-.025-2.3,0-4.6-.007-6.9,0-2.13-.533-2.552-2.765-2.117ZM22.234,45.022c0-1.152.048-1.915-.008-2.671-.364-4.99,1.522-6.718,6.315-6.386,1.175.082,2.361.012,3.679.012L31.9,30.46c-3.96,0-7.769-.005-11.577.012a.972.972,0,0,0-.717.277c-1.185,1.814-2.911,3.346-1.77,6.011a32.867,32.867,0,0,0,4.4,8.262m13.81-31.248H49.628c-.828-3.224-1.707-6.314-3.664-8.948-2-2.689-3.951-2.67-5.978,0A6.568,6.568,0,0,0,39.1,6.212c-1.015,2.443-1.984,4.905-3.051,7.562M33.288,77.434a5.52,5.52,0,1,0-5.5,5.536,5.541,5.541,0,0,0,5.5-5.536m33.228-5.5A5.519,5.519,0,1,0,72,77.484a5.539,5.539,0,0,0-5.486-5.552M27.566,16.678c-.7,4.244-3.745,7.257-5.812,10.912H31.791c.335-3.691.662-7.282.991-10.912ZM64.24,27.642c-2.115-3.713-5.141-6.732-5.847-10.92H53.178c.333,3.682.659,7.284.988,10.92ZM33.189,13.8,37.08,3.52A25.6,25.6,0,0,0,26.865,8.427l1.1,5.375Zm24.9.021c.121-.887.23-1.654.329-2.423.137-1.065.708-2.38.285-3.133-.52-.923-1.874-1.377-2.87-2.032a2.9,2.9,0,0,0-.476-.275c-2.175-.891-4.352-1.776-6.859-2.8.973,2.138,1.814,3.761,2.456,5.46s1.079,3.462,1.607,5.2ZM41.6,49.906H47.9l1.789-5.555H41.6ZM52.58,56.485a6.486,6.486,0,0,1-1.164.353c-1.262.118-1.651.759-1.55,2.01.124,1.539.03,3.1.03,4.71H52.58Zm-19.4-17.658H30.627v2.628h2.555ZM22.3,55.26h2.616V52.669H22.3Zm19.238-2.573H38.91v2.555h2.629Z" transform="translate(0 0)" fill="#fff"/>
        <path id="Path_716282" data-name="Path 716282" d="M37.025,28.506a8.295,8.295,0,1,1-8.173-8.345,8.3,8.3,0,0,1,8.173,8.345m-8.277-5.571a5.519,5.519,0,1,0,5.5,5.536,5.54,5.54,0,0,0-5.5-5.536" transform="translate(-14.788 -14.588)" fill="#fff"/>
        <path id="Path_716283" data-name="Path 716283" d="M238.881,20.164a8.293,8.293,0,1,1-8.34,8.178,8.3,8.3,0,0,1,8.34-8.178m5.474,8.351a5.52,5.52,0,1,0-5.579,5.46,5.54,5.54,0,0,0,5.579-5.46" transform="translate(-166.823 -14.591)" fill="#fff"/>
      </g>
    </g>
  </g>
</svg>
