<svg xmlns="http://www.w3.org/2000/svg" width="116.999" height="115" viewBox="0 0 116.999 115">
  <g id="Group_1073032" data-name="Group 1073032" transform="translate(-322 -15910)">
    <g id="Group_1072945" data-name="Group 1072945" transform="translate(-103.438 8411.529)">
      <g id="Group_1015374" data-name="Group 1015374" transform="translate(425.927 7498.205)">
        <g id="Group_1015448" data-name="Group 1015448" transform="translate(0 0)">
          <g id="Group_1014855" data-name="Group 1014855" transform="translate(0 0)">
            <path id="Union_12" data-name="Union 12" d="M58.5,0C90.809,0,117,25.744,117,57.5S90.809,115,58.5,115,0,89.256,0,57.5,26.192,0,58.5,0Z" transform="translate(-0.49 0.265)" fill="#eba325"/>
            <path id="Path_608395" data-name="Path 608395" d="M49,0C76.062,0,98,22.162,98,49.5S76.062,99,49,99,0,76.838,0,49.5,21.938,0,49,0Z" transform="translate(9.51 7.265)" fill="#fef5e5"/>
          </g>
        </g>
      </g>
    </g>
    <g id="presupuesto_1_" data-name="presupuesto (1)" transform="translate(347.451 15934)">
      <path id="Path_716431" data-name="Path 716431" d="M144.795,19.2V58.094c0,.078,0,.155-.005.233a5.021,5.021,0,0,1-5.016,4.787H111.544a5.021,5.021,0,0,1-5.021-5.02V13.065a5.014,5.014,0,0,1,5.021-5.021h22.423a5,5,0,0,1,2.181.5c1.357.653,1.739,1.478,4.176,3.971,2.8,3.045,3.474,3.357,4.046,4.676A4.966,4.966,0,0,1,144.795,19.2Z" transform="translate(-92.332 -7.009)" fill="#ffc477"/>
      <path id="Path_716432" data-name="Path 716432" d="M171.074,19.2V58.093c0,.078,0,.155-.005.233a5.037,5.037,0,0,1-1.134.128H141.706a5.021,5.021,0,0,1-5.021-5.02V8.405c0-.079,0-.157.005-.234a5.044,5.044,0,0,1,1.134-.128h22.423a5.029,5.029,0,0,1,3.669,1.595l2.688,2.876,3.078,3.22a5.053,5.053,0,0,1,1.393,3.468Z" transform="translate(-118.612 -7.008)" fill="#ffdaaa"/>
      <path id="Path_716433" data-name="Path 716433" d="M283.045,181.992v28.231a7.1,7.1,0,0,1-7.1,7.1H257.51a7.1,7.1,0,0,1-7.1-7.1V181.992a7.093,7.093,0,0,1,7.1-7.1h18.439A7.1,7.1,0,0,1,283.045,181.992Z" transform="translate(-217.701 -152.382)" fill="#4cba68"/>
      <path id="Path_716434" data-name="Path 716434" d="M302.9,181.992v28.231a7.058,7.058,0,0,1-1.374,4.2,7.066,7.066,0,0,1-2.788.57H280.3a7.1,7.1,0,0,1-7.1-7.1V179.662a7.059,7.059,0,0,1,1.374-4.2,7.067,7.067,0,0,1,2.788-.569h18.44A7.1,7.1,0,0,1,302.9,181.992Z" transform="translate(-237.559 -152.382)" fill="#7ccc92"/>
      <path id="Path_716435" data-name="Path 716435" d="M361.477,367.03v3.316a1.061,1.061,0,0,1-1.06,1.061H357.1a1.061,1.061,0,0,1-1.061-1.061V367.03a1.061,1.061,0,0,1,1.061-1.061h3.317A1.061,1.061,0,0,1,361.477,367.03Z" transform="translate(-309.729 -318.86)" fill="#2c733f"/>
      <path id="Path_716436" data-name="Path 716436" d="M311.175,209.366v3.553a2.288,2.288,0,0,1-2.288,2.288h-18.3a2.289,2.289,0,0,1-2.288-2.288v-3.553a2.289,2.289,0,0,1,2.288-2.288h18.3A2.288,2.288,0,0,1,311.175,209.366Z" transform="translate(-250.708 -180.422)" fill="#1e81ce"/>
      <path id="Path_716437" data-name="Path 716437" d="M337.454,209.366v3.553a2.288,2.288,0,0,1-2.288,2.288h-14.42a2.289,2.289,0,0,1-2.288-2.288v-3.553a2.289,2.289,0,0,1,2.288-2.288h14.42A2.288,2.288,0,0,1,337.454,209.366Z" transform="translate(-276.986 -180.422)" fill="#3d9ae2"/>
      <g id="Group_1072978" data-name="Group 1072978" transform="translate(37.59 38.438)">
        <path id="Path_716438" data-name="Path 716438" d="M293.736,367.03v3.316a1.061,1.061,0,0,1-1.061,1.061h-3.317a1.062,1.062,0,0,1-1.061-1.061V367.03a1.062,1.062,0,0,1,1.061-1.061h3.317A1.061,1.061,0,0,1,293.736,367.03Z" transform="translate(-288.297 -357.298)" fill="#2c733f"/>
        <path id="Path_716439" data-name="Path 716439" d="M361.477,299.669v3.316a1.061,1.061,0,0,1-1.06,1.061H357.1a1.061,1.061,0,0,1-1.061-1.061v-3.316a1.061,1.061,0,0,1,1.061-1.061h3.317A1.061,1.061,0,0,1,361.477,299.669Z" transform="translate(-347.319 -298.608)" fill="#2c733f"/>
      </g>
      <path id="Path_716440" data-name="Path 716440" d="M430.034,299.669v3.316a1.061,1.061,0,0,1-1.061,1.061h-3.316a1.061,1.061,0,0,1-1.061-1.061v-3.316a1.061,1.061,0,0,1,1.061-1.061h3.316A1.061,1.061,0,0,1,430.034,299.669Z" transform="translate(-369.461 -260.17)" fill="#ee8700"/>
      <g id="Group_1072979" data-name="Group 1072979" transform="translate(37.59 38.438)">
        <path id="Path_716441" data-name="Path 716441" d="M293.736,299.669v3.316a1.061,1.061,0,0,1-1.061,1.061h-3.317a1.062,1.062,0,0,1-1.061-1.061v-3.316a1.062,1.062,0,0,1,1.061-1.061h3.317A1.061,1.061,0,0,1,293.736,299.669Z" transform="translate(-288.297 -298.608)" fill="#2c733f"/>
        <path id="Path_716442" data-name="Path 716442" d="M361.477,431.091v3.317a1.061,1.061,0,0,1-1.06,1.061H357.1a1.061,1.061,0,0,1-1.061-1.061v-3.317a1.061,1.061,0,0,1,1.061-1.06h3.317A1.061,1.061,0,0,1,361.477,431.091Z" transform="translate(-347.319 -413.114)" fill="#2c733f"/>
        <path id="Path_716443" data-name="Path 716443" d="M293.736,431.091v3.317a1.061,1.061,0,0,1-1.061,1.061h-3.317a1.062,1.062,0,0,1-1.061-1.061v-3.317a1.062,1.062,0,0,1,1.061-1.06h3.317A1.061,1.061,0,0,1,293.736,431.091Z" transform="translate(-288.297 -413.114)" fill="#2c733f"/>
      </g>
      <path id="Path_716444" data-name="Path 716444" d="M430.034,367.544v10.3a1.81,1.81,0,0,1-1.809,1.811h-1.82a1.81,1.81,0,0,1-1.809-1.811v-10.3a1.577,1.577,0,0,1,1.576-1.576h2.285A1.576,1.576,0,0,1,430.034,367.544Z" transform="translate(-369.461 -318.859)" fill="#ee8700"/>
      <g id="Group_1072980" data-name="Group 1072980" transform="translate(37.59 38.438)">
        <path id="Path_716445" data-name="Path 716445" d="M361.477,367.03v.986a1.061,1.061,0,0,1-1.06,1.061H357.1a1.061,1.061,0,0,1-1.061-1.061v-.986a1.061,1.061,0,0,1,1.061-1.061h3.317A1.061,1.061,0,0,1,361.477,367.03Z" transform="translate(-347.319 -357.298)" fill="#317f46"/>
        <path id="Path_716446" data-name="Path 716446" d="M293.736,367.03v.986a1.061,1.061,0,0,1-1.061,1.061h-3.317a1.062,1.062,0,0,1-1.061-1.061v-.986a1.062,1.062,0,0,1,1.061-1.061h3.317A1.061,1.061,0,0,1,293.736,367.03Z" transform="translate(-288.297 -357.298)" fill="#317f46"/>
        <path id="Path_716447" data-name="Path 716447" d="M361.477,299.669v.986a1.061,1.061,0,0,1-1.06,1.061H357.1a1.061,1.061,0,0,1-1.061-1.061v-.986a1.061,1.061,0,0,1,1.061-1.061h3.317A1.061,1.061,0,0,1,361.477,299.669Z" transform="translate(-347.319 -298.608)" fill="#317f46"/>
      </g>
      <path id="Path_716448" data-name="Path 716448" d="M430.034,299.669v.986a1.061,1.061,0,0,1-1.061,1.061h-3.316a1.061,1.061,0,0,1-1.061-1.061v-.986a1.061,1.061,0,0,1,1.061-1.061h3.316A1.061,1.061,0,0,1,430.034,299.669Z" transform="translate(-369.461 -260.17)" fill="#ff9811"/>
      <g id="Group_1072981" data-name="Group 1072981" transform="translate(37.59 38.438)">
        <path id="Path_716449" data-name="Path 716449" d="M293.736,299.669v.986a1.061,1.061,0,0,1-1.061,1.061h-3.317a1.062,1.062,0,0,1-1.061-1.061v-.986a1.062,1.062,0,0,1,1.061-1.061h3.317A1.061,1.061,0,0,1,293.736,299.669Z" transform="translate(-288.297 -298.608)" fill="#317f46"/>
        <path id="Path_716450" data-name="Path 716450" d="M361.477,431.091v.987a1.061,1.061,0,0,1-1.06,1.061H357.1a1.061,1.061,0,0,1-1.061-1.061v-.987a1.061,1.061,0,0,1,1.061-1.06h3.317A1.061,1.061,0,0,1,361.477,431.091Z" transform="translate(-347.319 -413.114)" fill="#317f46"/>
        <path id="Path_716451" data-name="Path 716451" d="M293.736,431.091v.987a1.061,1.061,0,0,1-1.061,1.061h-3.317a1.062,1.062,0,0,1-1.061-1.061v-.987a1.062,1.062,0,0,1,1.061-1.06h3.317A1.061,1.061,0,0,1,293.736,431.091Z" transform="translate(-288.297 -413.114)" fill="#317f46"/>
      </g>
      <path id="Path_716452" data-name="Path 716452" d="M430.034,367.544v7.968a1.81,1.81,0,0,1-1.809,1.811h-1.82a1.81,1.81,0,0,1-1.809-1.811v-7.968a1.577,1.577,0,0,1,1.576-1.576h2.285A1.576,1.576,0,0,1,430.034,367.544Z" transform="translate(-369.461 -318.859)" fill="#ff9811"/>
      <path id="Path_716453" data-name="Path 716453" d="M344.884,20.57h-6.292a1.93,1.93,0,0,1-1.93-1.93V11.924a5.015,5.015,0,0,1,1.488,1.094l2.689,2.876,3.077,3.22A4.972,4.972,0,0,1,344.884,20.57Z" transform="translate(-292.846 -10.389)" fill="#ffb655"/>
      <path id="Path_716454" data-name="Path 716454" d="M89.438,464.11a2.466,2.466,0,0,1-2.459,2.459H71.915a2.459,2.459,0,0,1,0-4.918H86.979A2.466,2.466,0,0,1,89.438,464.11Z" transform="translate(-60.037 -402.225)" fill="#aa6100"/>
      <path id="Path_716455" data-name="Path 716455" d="M89.438,425.9a2.466,2.466,0,0,1-2.459,2.459H71.915a2.459,2.459,0,0,1,0-4.918H86.979A2.466,2.466,0,0,1,89.438,425.9Z" transform="translate(-60.037 -368.938)" fill="#cc7400"/>
      <path id="Path_716456" data-name="Path 716456" d="M89.438,387.7a2.466,2.466,0,0,1-2.459,2.459H71.915a2.459,2.459,0,0,1,0-4.918H86.979A2.466,2.466,0,0,1,89.438,387.7Z" transform="translate(-60.037 -335.652)" fill="#ee8700"/>
      <path id="Path_716457" data-name="Path 716457" d="M89.438,349.5a2.466,2.466,0,0,1-2.459,2.459H71.915a2.466,2.466,0,0,1-2.459-2.459,2.466,2.466,0,0,1,2.459-2.459H86.979A2.466,2.466,0,0,1,89.438,349.5Z" transform="translate(-60.037 -302.364)" fill="#ff9811"/>
      <path id="Path_716458" data-name="Path 716458" d="M86.979,313.752H71.915a2.466,2.466,0,0,1-2.459-2.459h0a2.466,2.466,0,0,1,2.459-2.459H86.979a2.466,2.466,0,0,1,2.459,2.459h0A2.466,2.466,0,0,1,86.979,313.752Z" transform="translate(-60.037 -269.079)" fill="#ffa733"/>
      <path id="Path_716459" data-name="Path 716459" d="M27.785,385.288a8,8,0,0,0-8.338-7.662H16.311A8.011,8.011,0,0,0,17,393.634h2.45v0c.224.009.449.011.677,0a8.138,8.138,0,0,0,1.488-.2,8.012,8.012,0,0,0,6.175-7.51v-.009C27.794,385.7,27.794,385.5,27.785,385.288Z" transform="translate(-7.034 -329.01)" fill="#cc7400"/>
      <path id="Path_716460" data-name="Path 716460" d="M73.909,387.336v.009a8.012,8.012,0,0,1-6.175,7.51,8.015,8.015,0,0,1-6.167-7.457c0-.018,0-.035,0-.053v-.009a8.014,8.014,0,0,1,6.173-8.081,8.013,8.013,0,0,1,6.169,7.458C73.917,386.923,73.917,387.13,73.909,387.336Z" transform="translate(-53.157 -330.435)" fill="#ee8700"/>
      <path id="Path_716461" data-name="Path 716461" d="M58.248,21.543H53.5V12.194A6.072,6.072,0,0,0,51.819,8.01L48.749,4.8C46.144,2.113,45.815,1.355,44.264.6A6.071,6.071,0,0,0,41.635,0H19.212a6.064,6.064,0,0,0-6.057,6.057V38.719H11.878A3.492,3.492,0,0,0,9.4,44.672a3.482,3.482,0,0,0-1.015,2.459,3.585,3.585,0,0,0,.069.691A8.808,8.808,0,0,0,9.711,65.386l17.231-.006a3.492,3.492,0,0,0,2.48-5.953,3.476,3.476,0,0,0,1.009-2.286h1.311v.7a8.075,8.075,0,0,0,8.067,8.067H58.248a8.075,8.075,0,0,0,8.067-8.067V29.61A8.075,8.075,0,0,0,58.248,21.543ZM44.851,3.661c4.066,4.3,4.983,5.267,5.155,5.45,0,0,0,0,0,0h0l.005.006h0a.022.022,0,0,0,.008.008l0,.005s0,0,0,0,0,0,0,0,0,0,.005.005H44.851V3.661ZM11.878,40.79H26.942a1.424,1.424,0,1,1,0,2.847H11.878a1.424,1.424,0,1,1,0-2.847Zm0,4.918H26.942a1.424,1.424,0,1,1,0,2.847H16.537a8.433,8.433,0,0,0-1.311-.474,8.728,8.728,0,0,0-2.071-.3c-.2-.005-.406,0-.61.005H10.614a1.4,1.4,0,0,1-.159-.651A1.426,1.426,0,0,1,11.878,45.708Zm16.488,6.342a1.425,1.425,0,0,1-1.424,1.424H21.148a8.709,8.709,0,0,0-1.757-2.847h7.552A1.426,1.426,0,0,1,28.366,52.049ZM6.841,50.191A8.934,8.934,0,0,0,5.21,52.282H4A6.838,6.838,0,0,1,6.841,50.191ZM2.9,54.223H4.411a8.938,8.938,0,0,0-.282,1.552H2.535A6.8,6.8,0,0,1,2.9,54.223Zm.167,5.131a6.792,6.792,0,0,1-.487-1.638H4.165a7.813,7.813,0,0,0,.37,1.638ZM4.361,61.3c.635,0,1,0,1.091,0a8.743,8.743,0,0,0,1.393,1.685A6.84,6.84,0,0,1,4.361,61.3Zm8.834,2.15a6.868,6.868,0,1,1,4.351-11.921A6.862,6.862,0,0,1,13.2,63.446Zm13.747-.137H18.586a8.869,8.869,0,0,0,2.225-2.847h6.132a1.424,1.424,0,1,1,0,2.847Zm1.412-6.168a1.424,1.424,0,0,1-1.412,1.25H21.525a8.9,8.9,0,0,0,.126-2.847h5.292A1.425,1.425,0,0,1,28.354,57.141Zm3.388-2.071H29.873a3.435,3.435,0,0,0-.452-.562,3.486,3.486,0,0,0,0-4.918,3.487,3.487,0,0,0,0-4.918,3.5,3.5,0,0,0-2.48-5.953H15.226V6.057a3.991,3.991,0,0,1,3.986-3.986H42.78v8.111a1.035,1.035,0,0,0,1.035,1.035H51.3c.216.839.083.562.123,10.326H39.809a8.075,8.075,0,0,0-8.067,8.067V55.07Zm32.631,2.771a6.132,6.132,0,0,1-6.125,6.125H39.809a6.133,6.133,0,0,1-6.125-6.125V29.61a6.133,6.133,0,0,1,6.125-6.125h18.44a6.132,6.132,0,0,1,6.125,6.125V57.841Z"/>
      <path id="Path_716462" data-name="Path 716462" d="M287.537,207.667h-3.521a1.321,1.321,0,0,1-1.317-1.318V202.8a1.321,1.321,0,0,1,1.317-1.318h18.3a1.319,1.319,0,0,1,1.318,1.318v3.553a1.319,1.319,0,0,1-1.318,1.318h-10.6a.971.971,0,1,0,0,1.941h10.6a3.262,3.262,0,0,0,3.259-3.259V202.8a3.262,3.262,0,0,0-3.259-3.259h-18.3a3.259,3.259,0,0,0-3.259,3.259v3.553a3.259,3.259,0,0,0,3.259,3.259h3.521a.971.971,0,0,0,0-1.941Z" transform="translate(-244.138 -173.852)"/>
      <path id="Path_716463" data-name="Path 716463" d="M282.789,365.808h3.317a2.034,2.034,0,0,0,2.032-2.032v-3.316a2.034,2.034,0,0,0-2.032-2.032h-3.317a2.034,2.034,0,0,0-2.032,2.032v3.316A2.034,2.034,0,0,0,282.789,365.808Zm-.091-5.348a.091.091,0,0,1,.091-.091h3.317a.091.091,0,0,1,.091.091v3.316a.091.091,0,0,1-.091.091h-3.317a.091.091,0,0,1-.091-.091Z" transform="translate(-244.138 -312.29)"/>
      <path id="Path_716464" data-name="Path 716464" d="M422.4,291.068h-3.316a2.034,2.034,0,0,0-2.032,2.032v3.316a2.034,2.034,0,0,0,2.032,2.032H422.4a2.034,2.034,0,0,0,2.032-2.032V293.1A2.034,2.034,0,0,0,422.4,291.068Zm.091,5.348a.09.09,0,0,1-.091.091h-3.316a.091.091,0,0,1-.091-.091c.04-3.281-.084-3.406.091-3.406H422.4a.09.09,0,0,1,.091.091Z" transform="translate(-362.892 -253.6)"/>
      <path id="Path_716465" data-name="Path 716465" d="M282.789,298.447h3.317a2.034,2.034,0,0,0,2.032-2.032V293.1a2.034,2.034,0,0,0-2.032-2.032h-3.317a2.034,2.034,0,0,0-2.032,2.032v3.316A2.034,2.034,0,0,0,282.789,298.447ZM282.7,293.1a.091.091,0,0,1,.091-.091h3.317a.091.091,0,0,1,.091.091v3.316a.091.091,0,0,1-.091.091h-3.317a.091.091,0,0,1-.091-.091Z" transform="translate(-244.138 -253.6)"/>
      <path id="Path_716466" data-name="Path 716466" d="M287.6,423.176a2.031,2.031,0,0,0-1.521-.685h-3.317a2.026,2.026,0,0,0-1.519.685,2.776,2.776,0,0,0-.512,2.071v2.592a2.034,2.034,0,0,0,2.032,2.032h3.317a2.034,2.034,0,0,0,2.032-2.032v-2.592A2.8,2.8,0,0,0,287.6,423.176Zm-1.521,4.754c-3.277-.04-3.408.084-3.408-.091,0-3.511-.039-3.406.091-3.406h3.317c.159,0,.061.221.091.814A13.8,13.8,0,0,1,286.082,427.929Z" transform="translate(-244.115 -368.106)"/>
      <path id="Path_716467" data-name="Path 716467" d="M421.887,358.428H419.6a2.55,2.55,0,0,0-2.547,2.547v10.3a2.784,2.784,0,0,0,2.78,2.781h1.82a2.783,2.783,0,0,0,2.78-2.781v-10.3A2.549,2.549,0,0,0,421.887,358.428Zm.606,12.845a.84.84,0,0,1-.839.84h-1.82a.84.84,0,0,1-.839-.84v-10.3a.606.606,0,0,1,.606-.606h2.285a.606.606,0,0,1,.606.606v10.3Z" transform="translate(-362.891 -312.289)"/>
      <path id="Path_716468" data-name="Path 716468" d="M166.818,173.948h0c-1.183-.435-2.038-.749-2.038-1.845,0-1,.664-1.506,1.972-1.506,1.389,0,1.763.612,2.253.612a.932.932,0,0,0,.827-.956c0-.809-1.319-1.21-2.5-1.315v-.729a.92.92,0,0,0-1.839,0v.845A3.008,3.008,0,0,0,163,172.2c0,2.259,1.663,2.884,3,3.386,1.309.492,2.342.88,2.342,2.374,0,1.234-.685,1.86-2.037,1.86-1.978,0-2-1.336-2.751-1.336a.97.97,0,0,0-.844.956c0,.765,1.139,1.77,2.788,2.031v.7a.92.92,0,0,0,1.839,0v-.723a3.323,3.323,0,0,0,2.788-3.589C170.122,175.162,168.29,174.489,166.818,173.948Z" transform="translate(-141.284 -145.754)"/>
      <path id="Path_716469" data-name="Path 716469" d="M353.826,422.491h-3.317a2.031,2.031,0,0,0-1.521.685,2.787,2.787,0,0,0-.511,2.071v2.592a2.034,2.034,0,0,0,2.032,2.032h3.317a2.033,2.033,0,0,0,2.03-2.032v-3.317a2.034,2.034,0,0,0-2.03-2.03Zm0,5.438c-3.277-.04-3.408.084-3.408-.091v-3.317a.091.091,0,0,1,.091-.089h3.317a.09.09,0,0,1,.089.089C353.877,427.806,354,427.929,353.826,427.929Z" transform="translate(-303.138 -368.106)"/>
      <path id="Path_716470" data-name="Path 716470" d="M353.848,291.068h-3.317A2.034,2.034,0,0,0,348.5,293.1v3.316a2.034,2.034,0,0,0,2.032,2.032h3.317a2,2,0,0,0,.739-.14,2.034,2.034,0,0,0,1.292-1.892V293.1A2.034,2.034,0,0,0,353.848,291.068Zm.089,5.348a.09.09,0,0,1-.089.091h-3.317a.091.091,0,0,1-.091-.091V293.1c0-.175.12-.052,3.408-.091a.09.09,0,0,1,.089.091v3.316Z" transform="translate(-303.16 -253.6)"/>
      <path id="Path_716471" data-name="Path 716471" d="M354.587,358.568a2,2,0,0,0-.739-.14h-3.317a2.034,2.034,0,0,0-2.032,2.032v3.316a2.034,2.034,0,0,0,2.032,2.032h3.317a2.033,2.033,0,0,0,2.03-2.032V360.46A2.034,2.034,0,0,0,354.587,358.568Zm-.65,5.208a.09.09,0,0,1-.089.091h-3.317a.091.091,0,0,1-.091-.091V360.46a.091.091,0,0,1,.091-.091h3.317a.09.09,0,0,1,.089.091Z" transform="translate(-303.16 -312.289)"/>
      <path id="Path_716472" data-name="Path 716472" d="M321.018,104.983h2.438a.971.971,0,0,0,0-1.941h-2.438a.971.971,0,1,0,0,1.941Z" transform="translate(-278.37 -89.778)"/>
      <path id="Path_716473" data-name="Path 716473" d="M157.141,104.983h17.213a.971.971,0,0,0,0-1.941H157.141a.971.971,0,1,0,0,1.941Z" transform="translate(-135.589 -89.778)"/>
      <path id="Path_716474" data-name="Path 716474" d="M160.226,142.413a.971.971,0,1,0,0-1.941h-3.085a.971.971,0,1,0,0,1.941Z" transform="translate(-135.589 -122.39)"/>
      <path id="Path_716475" data-name="Path 716475" d="M228.806,141.443a.971.971,0,0,0-.971-.971H211.27a.971.971,0,1,0,0,1.941h16.566A.971.971,0,0,0,228.806,141.443Z" transform="translate(-182.75 -122.39)"/>
      <path id="Path_716476" data-name="Path 716476" d="M79.477,401.665c0-.244.09-.314.174-.361a1.668,1.668,0,0,1,1.407.1,1.11,1.11,0,0,0,.525.16c.957,0,1.715-1.779-.572-2.172v-.061a.984.984,0,1,0-1.967,0v.187a2.207,2.207,0,0,0-1.5,2.21c0,1.655,1.2,2.107,2.081,2.437.838.315,1.127.452,1.127,1.022,0,.356-.1.686-.792.686-1.015,0-.893-.8-1.652-.8a1.014,1.014,0,0,0-.938,1.005c0,.672.7,1.311,1.674,1.569v.074a.984.984,0,0,0,1.967,0v-.1a2.432,2.432,0,0,0,1.674-2.491C82.685,402.175,79.477,402.618,79.477,401.665Z" transform="translate(-66.931 -347.065)"/>
    </g>
  </g>
</svg>
