<svg xmlns="http://www.w3.org/2000/svg" width="116.999" height="115" viewBox="0 0 116.999 115">
  <g id="Group_1073034" data-name="Group 1073034" transform="translate(-1162 -15910)">
    <g id="Group_1072946" data-name="Group 1072946" transform="translate(736.562 8411.529)">
      <g id="Group_1015374" data-name="Group 1015374" transform="translate(425.927 7498.205)">
        <g id="Group_1015448" data-name="Group 1015448" transform="translate(0 0)">
          <g id="Group_1014855" data-name="Group 1014855" transform="translate(0 0)">
            <path id="Union_12" data-name="Union 12" d="M58.5,0C90.809,0,117,25.744,117,57.5S90.809,115,58.5,115,0,89.256,0,57.5,26.192,0,58.5,0Z" transform="translate(-0.49 0.265)" fill="#eba325"/>
            <path id="Path_608395" data-name="Path 608395" d="M49,0C76.062,0,98,22.162,98,49.5S76.062,99,49,99,0,76.838,0,49.5,21.938,0,49,0Z" transform="translate(9.51 7.265)" fill="#fef5e5"/>
          </g>
        </g>
      </g>
    </g>
    <g id="costo-operacional" transform="translate(1166.692 15931.5)">
      <g id="Group_1072994" data-name="Group 1072994" transform="translate(22.237 1.416)">
        <g id="Group_1072983" data-name="Group 1072983" transform="translate(36.397 50.147)">
          <path id="Path_716488" data-name="Path 716488" d="M294.329,368.412V378.7h-4.084l6.588,8.651,6.588-8.651h-4.08V368.412Z" transform="translate(-290.245 -368.412)" fill="#ff5ba8" fill-rule="evenodd"/>
        </g>
        <g id="Group_1072984" data-name="Group 1072984" transform="translate(36.397 50.147)">
          <path id="Path_716489" data-name="Path 716489" d="M294.329,368.412V378.7h-4.084l6.588,8.651V368.412Z" transform="translate(-290.245 -368.412)" fill="#ed4593" fill-rule="evenodd"/>
        </g>
        <g id="Group_1072985" data-name="Group 1072985" transform="translate(13.719 50.147)">
          <path id="Path_716490" data-name="Path 716490" d="M130.928,368.412V378.7h-4.08l6.584,8.651,6.588-8.651h-4.08V368.412Z" transform="translate(-126.848 -368.412)" fill="#ff5ba8" fill-rule="evenodd"/>
        </g>
        <g id="Group_1072986" data-name="Group 1072986" transform="translate(13.719 50.147)">
          <path id="Path_716491" data-name="Path 716491" d="M130.928,368.412V378.7h-4.08l6.584,8.651V368.412Z" transform="translate(-126.848 -368.412)" fill="#ed4593" fill-rule="evenodd"/>
        </g>
        <g id="Group_1072987" data-name="Group 1072987" transform="translate(0 12.234)">
          <path id="Path_716492" data-name="Path 716492" d="M36.294,95.245A8.294,8.294,0,1,1,28,103.539a8.292,8.292,0,0,1,8.294-8.294Z" transform="translate(-28 -95.245)" fill="#fdd835" fill-rule="evenodd"/>
        </g>
        <g id="Group_1072988" data-name="Group 1072988" transform="translate(23.35)">
          <path id="Path_716493" data-name="Path 716493" d="M204.536,7.1a8.294,8.294,0,1,1-8.294,8.294A8.292,8.292,0,0,1,204.536,7.1Z" transform="translate(-196.242 -7.1)" fill="#fdd835" fill-rule="evenodd"/>
        </g>
        <g id="Group_1072989" data-name="Group 1072989" transform="translate(46.701 12.234)">
          <path id="Path_716494" data-name="Path 716494" d="M372.778,95.245a8.294,8.294,0,1,1-8.294,8.294A8.292,8.292,0,0,1,372.778,95.245Z" transform="translate(-364.484 -95.245)" fill="#fdd835" fill-rule="evenodd"/>
        </g>
        <g id="Group_1072990" data-name="Group 1072990" transform="translate(14.897 23.556)">
          <path id="Path_716495" data-name="Path 716495" d="M155.965,181.463a12.873,12.873,0,0,1,1.934.8l4.027-2.542,4,4-2.542,4.027a12.94,12.94,0,0,1,.8,1.934l4.643,1.049V196.4l-4.643,1.049a13.262,13.262,0,0,1-.8,1.934l2.542,4.027-4,4-4.027-2.542a13.273,13.273,0,0,1-1.934.8l-1.049,4.643h-5.665l-1.049-4.643a12.929,12.929,0,0,1-1.934-.8l-4.027,2.542-4-4,2.542-4.027a12.871,12.871,0,0,1-.8-1.934l-4.643-1.049v-5.665l4.643-1.049a12.55,12.55,0,0,1,.8-1.934l-2.542-4.027,4-4,4.027,2.542a12.553,12.553,0,0,1,1.934-.8l1.049-4.643h5.665Z" transform="translate(-135.335 -176.82)" fill="#3399fd" fill-rule="evenodd"/>
        </g>
        <g id="Group_1072991" data-name="Group 1072991" transform="translate(14.897 23.556)">
          <path id="Path_716496" data-name="Path 716496" d="M155.494,207.758l-.578,2.561h-5.665l-1.049-4.643a12.935,12.935,0,0,1-1.934-.8l-4.027,2.542-4-4,2.542-4.027a12.87,12.87,0,0,1-.8-1.934l-4.643-1.049v-5.665l4.643-1.049a12.548,12.548,0,0,1,.8-1.934l-2.542-4.027,4-4,4.027,2.542a12.555,12.555,0,0,1,1.934-.8l1.049-4.643h5.665l.578,2.561a14.563,14.563,0,0,0,0,28.377Z" transform="translate(-135.335 -176.821)" fill="#1f88f0" fill-rule="evenodd"/>
        </g>
        <g id="Group_1072992" data-name="Group 1072992" transform="translate(23.324 31.982)">
          <path id="Path_716497" data-name="Path 716497" d="M204.371,254.177a8.32,8.32,0,1,0-8.32-8.321A8.333,8.333,0,0,0,204.371,254.177Z" transform="translate(-196.051 -237.536)" fill="#deddff" fill-rule="evenodd"/>
        </g>
        <g id="Group_1072993" data-name="Group 1072993" transform="translate(23.324 31.982)">
          <path id="Path_716498" data-name="Path 716498" d="M204.371,237.536a8.081,8.081,0,0,1,1.014.065,8.32,8.32,0,0,0,0,16.516,8.086,8.086,0,0,1-1.014.061,8.32,8.32,0,0,1,0-16.641Z" transform="translate(-196.051 -237.536)" fill="#d0d0f7" fill-rule="evenodd"/>
        </g>
      </g>
      <path id="Path_716499" data-name="Path 716499" d="M72.688,61.269a1.067,1.067,0,0,1-.107,1.12L66.021,71a1.066,1.066,0,0,1-1.7,0l-6.559-8.613a1.067,1.067,0,0,1,.849-1.713h3V58.614a1.067,1.067,0,0,1,2.134,0v3.128a1.067,1.067,0,0,1-1.067,1.067H60.767l4.406,5.786,4.406-5.786h-1.91A1.067,1.067,0,0,1,66.6,61.742V56.371a1.067,1.067,0,0,1,2.134,0v4.3h3a1.066,1.066,0,0,1,.956.593Zm-23.539-.593h-3V58.614a1.067,1.067,0,0,0-2.134,0v3.128a1.067,1.067,0,0,0,1.067,1.067H47L42.59,68.594l-4.4-5.785H40.1a1.067,1.067,0,0,0,1.067-1.067V56.371a1.067,1.067,0,0,0-2.134,0v4.3h-3a1.067,1.067,0,0,0-.849,1.713L41.741,71a1.067,1.067,0,0,0,.849.421h0A1.067,1.067,0,0,0,43.438,71L50,62.388a1.067,1.067,0,0,0-.849-1.713Zm4.732-44.4a1.067,1.067,0,0,1-1.067-1.067v-.518H51.256a1.067,1.067,0,1,1,0-2.134h1.558V10.833a3.077,3.077,0,0,1-2.663-2.907,3.078,3.078,0,0,1,2.663-2.907V4.442a1.067,1.067,0,0,1,2.134,0V4.96h1.6a1.067,1.067,0,0,1,0,2.133h-1.6V8.816a3.077,3.077,0,0,1,2.663,2.907,3.077,3.077,0,0,1-2.663,2.908v.576a1.067,1.067,0,0,1-1.067,1.067Zm1.067-3.866a.826.826,0,0,0,.529-.684.843.843,0,0,0-.529-.685ZM52.814,7.241a.843.843,0,0,0-.529.684.843.843,0,0,0,.529.685ZM31.7,19.277V21A3.077,3.077,0,0,1,34.362,23.9,3.077,3.077,0,0,1,31.7,26.811v.576a1.067,1.067,0,0,1-2.134,0v-.518H28.007a1.067,1.067,0,0,1,0-2.134h1.558V23.013a3.075,3.075,0,0,1-2.663-2.9A3.078,3.078,0,0,1,29.566,17.2v-.577a1.067,1.067,0,0,1,2.134,0v.518h1.6a1.067,1.067,0,1,1,0,2.133H31.7Zm-2.133.149a.7.7,0,0,0,0,1.364ZM31.7,23.219v1.37a.843.843,0,0,0,.529-.685A.826.826,0,0,0,31.7,23.219ZM86.454,22A9.337,9.337,0,0,1,78.2,31.266V41.7a1.067,1.067,0,0,1-1.067,1.067h-5.5v1.751a1.067,1.067,0,0,1-.831,1.04l-4.046.917q-.178.478-.392.944l2.214,3.508a1.067,1.067,0,0,1-.148,1.324l-3.987,3.987a1.067,1.067,0,0,1-1.324.148L59.605,54.17q-.469.216-.949.394l-.913,4.046a1.067,1.067,0,0,1-1.041.832h-5.64a1.067,1.067,0,0,1-1.041-.832l-.913-4.046q-.481-.178-.95-.394l-3.507,2.213a1.067,1.067,0,0,1-1.324-.148l-3.987-3.987a1.066,1.066,0,0,1-.148-1.324l2.213-3.507q-.212-.462-.393-.949l-4.044-.913a1.067,1.067,0,0,1-.832-1.041V42.764H30.633A1.067,1.067,0,0,1,29.566,41.7V31.266a9.325,9.325,0,1,1,2.133,0v9.364H36.14V38.879a1.067,1.067,0,0,1,.831-1.04l4.045-.917q.18-.485.392-.948l-2.214-3.508a1.067,1.067,0,0,1,.148-1.324l3.987-3.983a1.067,1.067,0,0,1,1.323-.147l3.507,2.213q.468-.216.95-.394l.913-4.046a1.067,1.067,0,0,1,1.041-.832h1.751V19.086a9.323,9.323,0,1,1,2.134,0v4.867H56.7a1.067,1.067,0,0,1,1.041.832l.913,4.047q.479.178.949.394l3.507-2.214a1.067,1.067,0,0,1,1.324.148l3.987,3.987a1.067,1.067,0,0,1,.148,1.324l-2.215,3.506q.214.468.393.946l4.046.917a1.067,1.067,0,0,1,.831,1.04v1.751h4.437V31.267A9.324,9.324,0,1,1,86.454,22Zm-32.573-4.99A7.191,7.191,0,1,0,46.69,9.824,7.2,7.2,0,0,0,53.881,17.015ZM30.633,29.2A7.191,7.191,0,1,0,23.442,22,7.2,7.2,0,0,0,30.633,29.2Zm38.86,10.536-3.792-.86a1.067,1.067,0,0,1-.779-.712,12.185,12.185,0,0,0-.734-1.77,1.067,1.067,0,0,1,.049-1.054l2.075-3.285L63.53,29.27l-3.289,2.076a1.066,1.066,0,0,1-1.058.046,11.4,11.4,0,0,0-1.76-.73,1.067,1.067,0,0,1-.717-.782l-.856-3.794H51.916l-.856,3.794a1.067,1.067,0,0,1-.719.782,11.1,11.1,0,0,0-1.756.728,1.067,1.067,0,0,1-1.061-.045L44.235,29.27l-2.781,2.778,2.075,3.289a1.066,1.066,0,0,1,.046,1.058,11.781,11.781,0,0,0-.731,1.765,1.067,1.067,0,0,1-.779.712l-3.792.86v3.931l3.791.856a1.066,1.066,0,0,1,.781.714,11.488,11.488,0,0,0,.73,1.761,1.067,1.067,0,0,1-.045,1.06l-2.076,3.289,2.782,2.782,3.289-2.076A1.067,1.067,0,0,1,48.585,52a11.106,11.106,0,0,0,1.756.728,1.067,1.067,0,0,1,.719.782l.856,3.794H55.85l.856-3.794a1.067,1.067,0,0,1,.717-.782,11.4,11.4,0,0,0,1.76-.73,1.068,1.068,0,0,1,1.058.046l3.289,2.076,2.782-2.782-2.076-3.289A1.067,1.067,0,0,1,64.189,47a11.935,11.935,0,0,0,.733-1.763,1.067,1.067,0,0,1,.779-.712l3.792-.86V39.732ZM84.32,22A7.191,7.191,0,1,0,77.129,29.2,7.2,7.2,0,0,0,84.32,22ZM78.2,19.277V21A3.077,3.077,0,0,1,80.859,23.9,3.077,3.077,0,0,1,78.2,26.811v.576a1.067,1.067,0,0,1-2.134,0v-.518H74.5a1.067,1.067,0,0,1,0-2.134h1.558V23.013a3.075,3.075,0,0,1-2.663-2.9A3.078,3.078,0,0,1,76.063,17.2v-.577a1.067,1.067,0,0,1,2.134,0v.518h1.6a1.067,1.067,0,1,1,0,2.133H78.2Zm-2.133.149a.7.7,0,0,0,0,1.364ZM78.2,23.219v1.37a.843.843,0,0,0,.529-.685A.826.826,0,0,0,78.2,23.219ZM63.765,41.7a9.882,9.882,0,1,1-9.884-9.884A9.9,9.9,0,0,1,63.765,41.7Zm-2.134,0a7.749,7.749,0,1,0-7.751,7.751A7.759,7.759,0,0,0,61.632,41.7Zm-3.769-3.977a1.067,1.067,0,0,0-1.509,0L49.9,44.166a1.067,1.067,0,1,0,1.508,1.509l6.45-6.446A1.067,1.067,0,0,0,57.862,37.721ZM51.98,39.8a1.857,1.857,0,0,0-1.305-3.169h-.006a1.846,1.846,0,0,0-1.314.545A1.856,1.856,0,0,0,51.98,39.8Zm5.116,3.26a1.856,1.856,0,1,0,1.308.54,1.837,1.837,0,0,0-1.308-.54Z"/>
    </g>
  </g>
</svg>
