<svg xmlns="http://www.w3.org/2000/svg" width="85" height="85" viewBox="0 0 85 85">
  <g id="Group_1073033" data-name="Group 1073033" transform="translate(-285 -16536)">
    <circle id="Ellipse_5728" data-name="Ellipse 5728" cx="42.5" cy="42.5" r="42.5" transform="translate(285 16536)" fill="#0c5e46"/>
    <g id="precio-alto_1_" data-name="precio-alto (1)" transform="translate(449.764 16616.982) rotate(180)">
      <path id="Path_716500" data-name="Path 716500" d="M164.577,264a12.577,12.577,0,1,0,12.577,12.577A12.577,12.577,0,0,0,164.577,264Zm0,23.219a10.642,10.642,0,1,1,10.642-10.642A10.642,10.642,0,0,1,164.577,287.219Z" transform="translate(-42.195 -225.041)" fill="#fff"/>
      <path id="Path_716501" data-name="Path 716501" d="M109.8,32.186a.967.967,0,0,0,.967.967h5.8a.967.967,0,0,0,.967-.967V19.61h4.837a.967.967,0,0,0,.719-1.615L114.394,8.32a.967.967,0,0,0-1.438,0l-8.707,9.675a.967.967,0,0,0,.719,1.615H109.8ZM107.14,17.675l6.535-7.261,6.535,7.261h-3.632a.967.967,0,0,0-.967.967V31.219h-3.87V18.642a.967.967,0,0,0-.967-.967Z" fill="#fff"/>
      <path id="Path_716502" data-name="Path 716502" d="M154.58,113.993l-8.707-9.675a.967.967,0,0,0-1.439,0l-8.707,9.675a.967.967,0,0,0,.72,1.614h4.837v4.6a16.483,16.483,0,1,0,7.74,5.135v-9.731h4.837a.967.967,0,0,0,.72-1.614Zm-3.622,21.931a14.512,14.512,0,1,1-14.512-14.512A14.512,14.512,0,0,1,150.958,135.924Zm-2.9-22.251a.967.967,0,0,0-.967.967V123.4a16.49,16.49,0,0,0-3.87-2.459v-6.3a.967.967,0,0,0-.967-.967h-3.633l6.535-7.261,6.535,7.261Z" transform="translate(-14.065 -84.388)" fill="#fff"/>
      <path id="Path_716503" data-name="Path 716503" d="M231.74,321.191a3.391,3.391,0,0,1-2.9,3.351v.035a.967.967,0,0,1-1.935,0h-1.935a.967.967,0,0,1,0-1.935h3.386a1.451,1.451,0,0,0,0-2.9h-.967A3.386,3.386,0,0,1,226.9,313v-.035a.967.967,0,0,1,1.935,0h1.935a.967.967,0,0,1,0,1.935h-3.386a1.451,1.451,0,1,0,0,2.9h.967A3.39,3.39,0,0,1,231.74,321.191Z" transform="translate(-105.488 -267.237)" fill="#fff"/>
    </g>
  </g>
</svg>
