<svg xmlns="http://www.w3.org/2000/svg" width="85" height="85" viewBox="0 0 85 85">
  <g id="Group_1073035" data-name="Group 1073035" transform="translate(-285 -9015)">
    <g id="Group_1073034" data-name="Group 1073034">
      <circle id="Ellipse_5729" data-name="Ellipse 5729" cx="42.5" cy="42.5" r="42.5" transform="translate(285 9015)" fill="#0c5e46"/>
      <g id="objetivo_1_" data-name="objetivo (1)" transform="translate(300 9030)">
        <path id="Path_716504" data-name="Path 716504" d="M46.74,8.024A27.2,27.2,0,0,0,27.382.005C12.666-.3-.3,12.667.005,27.382-.3,42.1,12.667,55.063,27.382,54.759c14.716.3,27.681-12.662,27.377-27.377A27.2,27.2,0,0,0,46.74,8.024ZM28.786,51.91V47.767a1.4,1.4,0,0,0-2.808,0V51.91A24.6,24.6,0,0,1,2.854,28.786H7.037a1.4,1.4,0,0,0,0-2.808H2.854A24.6,24.6,0,0,1,25.978,2.854V7a1.4,1.4,0,0,0,2.808,0V2.854A24.6,24.6,0,0,1,51.91,25.978H47.727a1.4,1.4,0,0,0,0,2.808H51.91A24.6,24.6,0,0,1,28.786,51.91Z" transform="translate(0 0)" fill="#fff"/>
        <path id="Path_716505" data-name="Path 716505" d="M110.151,119.54a6.088,6.088,0,0,0,.951-3.272,6.157,6.157,0,0,0-8.014-5.85,7.881,7.881,0,0,0-15.1,0,6.136,6.136,0,0,0-7.033,9.17,9.182,9.182,0,0,0-3.771,7.406v1.743a1.4,1.4,0,1,0,2.808,0v-1.743a6.462,6.462,0,0,1,3.045-5.422,6.116,6.116,0,0,0,2.126.757,11.509,11.509,0,0,0-1.2,5.126v4.68a2.916,2.916,0,0,0,2.914,2.91H90a1.4,1.4,0,0,0,0-2.808H86.889a.1.1,0,0,1-.107-.1v-4.68a8.827,8.827,0,0,1,4.975-7.9,7.946,7.946,0,0,0,7.568,0,8.827,8.827,0,0,1,4.975,7.9v4.68a.1.1,0,0,1-.106.1h-3.212a1.4,1.4,0,1,0,0,2.808h3.212a2.915,2.915,0,0,0,2.914-2.91v-4.68a11.509,11.509,0,0,0-1.2-5.126,6.117,6.117,0,0,0,2.174-.785,6.088,6.088,0,0,1,3,5.235v1.85a1.4,1.4,0,0,0,2.808,0v-1.85A8.892,8.892,0,0,0,110.151,119.54Zm-22.923-.129a3.328,3.328,0,1,1,.463-6.088,7.813,7.813,0,0,0,1.746,4.3A11.509,11.509,0,0,0,87.229,119.412Zm8.312-1.7a5.05,5.05,0,1,1,5.069-5.05A5.066,5.066,0,0,1,95.541,117.714Zm9.41,1.884a3.33,3.33,0,0,1-1.1-.185,11.516,11.516,0,0,0-2.21-1.787,7.812,7.812,0,0,0,1.746-4.3,3.333,3.333,0,1,1,1.561,6.273Z" transform="translate(-68.159 -92.543)" fill="#fff"/>
        <circle id="Ellipse_5737" data-name="Ellipse 5737" cx="1.521" cy="1.521" r="1.521" transform="translate(25.861 39.517)" fill="#fff"/>
      </g>
    </g>
  </g>
</svg>
