<svg xmlns="http://www.w3.org/2000/svg" xmlns:xlink="http://www.w3.org/1999/xlink" width="1029.999" height="536.399" viewBox="0 0 1029.999 536.399">
  <defs>
    <linearGradient id="linear-gradient" x1="0.5" x2="0.5" y2="1" gradientUnits="objectBoundingBox">
      <stop offset="0" stop-color="#e1efe3"/>
      <stop offset="1" stop-color="#fff"/>
    </linearGradient>
    <clipPath id="clip-path">
      <rect id="Rectangle_377756" data-name="Rectangle 377756" width="982.252" height="476.79" fill="none"/>
    </clipPath>
    <linearGradient id="linear-gradient-2" x1="0.5" x2="0.5" y2="1" gradientUnits="objectBoundingBox">
      <stop offset="0" stop-color="#fef5e5"/>
      <stop offset="0.137" stop-color="#fffefc"/>
      <stop offset="0.479" stop-color="#fff"/>
      <stop offset="0.773" stop-color="#fffefd"/>
      <stop offset="1" stop-color="#fef7ea"/>
    </linearGradient>
  </defs>
  <g id="Group_1072919" data-name="Group 1072919" transform="translate(-285 -10240.001)">
    <path id="Path_716385" data-name="Path 716385" d="M0,0H1030V536.4H0Z" transform="translate(1314.999 10776.4) rotate(180)" fill="url(#linear-gradient)"/>
    <g id="Group_1072440" data-name="Group 1072440" transform="translate(308.874 10275.962)">
      <path id="Path_609717" data-name="Path 609717" d="M11.434,0,0,11.434l2.9,2.9L11.434,5.8l8.537,8.536,2.9-2.9Z" transform="translate(0 -5)" fill="#18b8c4"/>
      <path id="Path_609718" data-name="Path 609718" d="M7.981,24.319l4.487-4.487,4.487,4.487,2.9-2.9-7.384-7.385L5.085,21.422Z" transform="translate(-1.035 -7.857)" fill="#18b8c4"/>
      <path id="Path_609719" data-name="Path 609719" d="M1210.7,566.312l10.678,10.681L1210.7,587.672l3.624,3.625,14.305-14.3-14.3-14.3Z" transform="translate(-246.378 -114.507)" fill="#18b8c4"/>
      <path id="Path_609720" data-name="Path 609720" d="M1199.5,572.672l5.613,5.614L1199.5,583.9l3.624,3.624,9.239-9.237-9.239-9.237Z" transform="translate(-244.099 -115.802)" fill="#18b8c4"/>
      <path id="Path_609721" data-name="Path 609721" d="M1173.393,368.83l-5.114.359,1.059,15.066-15.065,1.063.36,5.113,20.179-1.421Z" transform="translate(-234.895 -75.057)" fill="#ad1c1c"/>
      <path id="Path_609722" data-name="Path 609722" d="M1157.35,366.648l.557,7.919-7.918.558.36,5.112,13.032-.916-.919-13.032Z" transform="translate(-234.023 -74.54)" fill="#ad1c1c"/>
      <g id="Group_1072439" data-name="Group 1072439" transform="translate(0 0)">
        <g id="Group_1072438" data-name="Group 1072438" clip-path="url(#clip-path)">
          <path id="Path_609723" data-name="Path 609723" d="M150.692,460.832c-3.947.329-7.9.612-11.84,1-4.464.437-8.94.69-13.416.793a83.955,83.955,0,0,1-8.645.266c-.061-.268-.18-.478-.491-.512a36.616,36.616,0,0,1-11.246-3.184c-2.754-1.257-5.595-2.412-7.818-4.592a2.02,2.02,0,0,0,1.321-2.2c-.041-2.529-.013-5.059-.013-7.589,0-3.114,0-3.145,3.065-3.205,1.063-.021,1.729-.432,1.789-1.478a1.483,1.483,0,0,0-1.587-1.572c-3.146-.075-6.275-.347-9.409-.576a1.457,1.457,0,0,0-1.629,1.344,1.375,1.375,0,0,0,1.235,1.663,9.863,9.863,0,0,0,2.144.219c1.007-.041,1.336.327,1.323,1.342-.047,3.613-.008,7.227,0,10.842a20.47,20.47,0,0,1-3.817-3.026c-1.426-1.227-2.507-2.823-4.123-3.846l-1.434-1.8-.325-.354.012.014-.319-.321.007.012c-.566-1.461-1.965-2.384-2.5-3.864,1.02.1,2.037.241,3.06.3.977.061,1.763-.314,1.895-1.369.122-.976-.413-1.524-1.407-1.642-1.971-.234-3.927-.795-5.928-.228a15.054,15.054,0,0,0-.75-1.673,50.109,50.109,0,0,1-3.369-6.7q6.786.51,13.573,1.016c2.264.164,4.53.388,6.8.425,7.129.118,14.257.585,21.388.305,10.26-.4,20.526-.777,30.732-2.024,3.58-.437,7.164-.849,10.741-1.312,1.218-.157,1.832-.041,1.818,1.521-.081,9.718-.062,19.438-.014,29.156.006,1.206-.337,1.577-1.539,1.664a8.871,8.871,0,0,0-3.185.48,48.375,48.375,0,0,0-6.1.7m-27.3-22.294a20.282,20.282,0,0,0-2.319.018,1.747,1.747,0,0,0-1.781,1.914c.025,4.181.019,8.362,0,12.543a1.524,1.524,0,0,0,1.542,1.748c.961.021,1.454-.73,1.524-1.642s.017-1.857.031-2.786c.022-1.474.455-1.744,1.775-1.05a4.043,4.043,0,0,1,2.292,3.593,1.468,1.468,0,0,0,1.586,1.546,1.521,1.521,0,0,0,1.46-1.695,5.543,5.543,0,0,0-1.128-3.626c-.808-.952-.653-1.56.037-2.488,2.234-3,1.1-6.808-2.257-7.955a8.641,8.641,0,0,0-2.764-.12m-7.813,9.868h-.006c0-1.547.059-3.1-.013-4.641a5.059,5.059,0,0,0-4.781-4.965,4.906,4.906,0,0,0-5.171,4.3c-.489,3.329-.127,6.69-.182,10.036a1.907,1.907,0,0,0,.2.74,1.43,1.43,0,0,0,1.705,1,1.365,1.365,0,0,0,1.136-1.451,20.516,20.516,0,0,0-.012-2.628c-.188-1.518.412-1.952,1.889-1.862,2.4.147,2.118-.213,2.141,2.2.006.515,0,1.031,0,1.548.007,1.078.056,2.2,1.5,2.223,1.425.019,1.577-1.062,1.582-2.163.006-1.444,0-2.888,0-4.333m22.32-1.757c0,1.705,0,3.411,0,5.116a1.393,1.393,0,0,0,1.174,1.576,1.428,1.428,0,0,0,1.722-1.188,5.813,5.813,0,0,0,.167-1.525c.016-2.583.007-5.167.007-7.751,0-2.791,0-2.819,2.834-3.156,1.131-.135,1.981-.552,1.827-1.793-.159-1.282-1.2-1.384-2.252-1.269q-3.99.438-7.979.91a5.938,5.938,0,0,0-1.5.353,1.329,1.329,0,0,0-.865,1.489,1.3,1.3,0,0,0,1.337,1.25,17.225,17.225,0,0,0,2.167-.057c1.138-.152,1.426.342,1.376,1.395-.072,1.547-.018,3.1-.014,4.65" transform="translate(-15.563 -86.947)" fill="#eba325"/>
          <path id="Path_609724" data-name="Path 609724" d="M72.827,428.891a50.065,50.065,0,0,0,3.369,6.7,14.907,14.907,0,0,1,.75,1.673c-1.884,1.166-2.946,2.805-2.5,5.053a5.1,5.1,0,0,0,4.346,4.271,5.92,5.92,0,0,1,1.048.268,1.939,1.939,0,0,1,1.324,2.335c-.235,1.149-1.184,1.117-2.1.99-.969-.133-1.932-.313-2.9-.392A1.5,1.5,0,0,0,74.426,451a1.257,1.257,0,0,0,.854,1.621,12.024,12.024,0,0,0,5.622.52c2.981-.685,3.982-3.048,2.984-6.628,1.616,1.024,2.7,2.62,4.123,3.847a20.455,20.455,0,0,0,3.816,3.025,2.029,2.029,0,0,0,1.762,1.207c2.223,2.18,5.063,3.335,7.818,4.592a36.61,36.61,0,0,0,11.246,3.184c.31.034.429.244.491.512q-11.591.184-23.166-.45c-5.913-.314-11.8-.829-17.7-1.3a10.7,10.7,0,0,0-2.9-.3,48.437,48.437,0,0,0-6.122-.656,9.55,9.55,0,0,0-3.344-.537c-1.053-.1-1.367-.431-1.352-1.494.06-4.5.025-8.992.025-13.487,0-5.322.037-10.645-.027-15.967-.015-1.234.3-1.61,1.551-1.435,4.236.59,8.484,1.091,12.728,1.626" transform="translate(-11.914 -86.94)" fill="#ecae41"/>
          <path id="Path_609725" data-name="Path 609725" d="M70.436,477.763q.019,18.762.053,37.525c0,.861-.241,1.228-1.14,1.166-1.589-.11-3.61.625-4.657-.282-1-.865-.31-2.918-.311-4.443q-.017-17.289.036-34.578a58.24,58.24,0,0,0,6.02.613" transform="translate(-13.054 -97.1)" fill="#4d658e"/>
          <path id="Path_609726" data-name="Path 609726" d="M175.754,477.15q.025,17.6.036,35.2c0,1.319.587,3.011-.292,3.859-.805.778-2.467.213-3.748.224-2.3.019-2.053.269-2.052-2.075q.008-18.3.035-36.594a57.782,57.782,0,0,0,6.02-.612" transform="translate(-34.532 -97.1)" fill="#4d658e"/>
          <path id="Path_609727" data-name="Path 609727" d="M175.746,475.4a57.782,57.782,0,0,1-6.02.612q-.036-3.388-.072-6.776a48.106,48.106,0,0,1,6.1-.7q0,3.432,0,6.867" transform="translate(-34.525 -95.346)" fill="#03386e"/>
          <path id="Path_609728" data-name="Path 609728" d="M70.5,476.022a58.24,58.24,0,0,1-6.02-.613q-.014-3.4-.03-6.805a48.143,48.143,0,0,1,6.123.656q-.036,3.381-.072,6.762" transform="translate(-13.115 -95.36)" fill="#03386e"/>
          <path id="Path_609729" data-name="Path 609729" d="M134.332,441.407a8.665,8.665,0,0,1,2.764.119c3.361,1.147,4.491,4.952,2.257,7.955-.69.927-.845,1.536-.037,2.487a5.548,5.548,0,0,1,1.128,3.627,1.521,1.521,0,0,1-1.46,1.694,1.468,1.468,0,0,1-1.586-1.546,4.04,4.04,0,0,0-2.293-3.592c-1.319-.695-1.752-.424-1.775,1.05-.014.929.039,1.861-.031,2.785s-.563,1.663-1.524,1.642a1.523,1.523,0,0,1-1.541-1.748c.016-4.181.022-8.362,0-12.542a1.748,1.748,0,0,1,1.78-1.915,20.3,20.3,0,0,1,2.32-.017m-.974,5.09c.125.828-.6,2.159,1.288,2.035,1.817-.119,2.718-.739,2.738-2.22.018-1.346-.608-1.753-2.225-1.9-1.694-.158-2.112.574-1.8,2.089" transform="translate(-26.502 -89.816)" fill="url(#linear-gradient-2)"/>
          <path id="Path_609730" data-name="Path 609730" d="M122.957,451.353c0,1.445,0,2.889,0,4.333,0,1.1-.157,2.182-1.582,2.163-1.449-.019-1.5-1.145-1.5-2.222,0-.516,0-1.032,0-1.548-.024-2.412.259-2.051-2.142-2.2-1.478-.09-2.076.344-1.888,1.862a20.653,20.653,0,0,1,.012,2.628,1.366,1.366,0,0,1-1.137,1.452,1.43,1.43,0,0,1-1.705-1,1.907,1.907,0,0,1-.2-.74c.054-3.346-.307-6.707.182-10.036a4.907,4.907,0,0,1,5.171-4.305,5.061,5.061,0,0,1,4.781,4.965c.072,1.544.013,3.094.013,4.642Zm-5.2-2.532c2.107.006,2.107.006,2.109-1.39,0-1.655-.679-2.56-1.955-2.593s-1.972,1-2.08,2.685,1.042,1.233,1.926,1.3" transform="translate(-22.94 -89.894)" fill="url(#linear-gradient-2)"/>
          <path id="Path_609731" data-name="Path 609731" d="M87.923,449.018c1,3.579,0,5.943-2.984,6.628a12.024,12.024,0,0,1-5.622-.52,1.257,1.257,0,0,1-.854-1.622,1.5,1.5,0,0,1,1.732-1.208c.972.08,1.936.26,2.9.393.919.127,1.869.159,2.1-.991a1.938,1.938,0,0,0-1.324-2.335,5.914,5.914,0,0,0-1.048-.268,5.1,5.1,0,0,1-4.347-4.27c-.447-2.248.616-3.888,2.5-5.054,2-.566,3.958-.006,5.929.229.993.118,1.528.667,1.406,1.642-.131,1.055-.917,1.429-1.895,1.369-1.022-.064-2.04-.2-3.059-.3a1.159,1.159,0,0,0-1.74.668,1.84,1.84,0,0,0,.887,2.362,8.248,8.248,0,0,0,3.352.834l-.006-.013.319.322-.012-.014.325.353,1.434,1.8" transform="translate(-15.95 -89.444)" fill="url(#linear-gradient-2)"/>
          <path id="Path_609732" data-name="Path 609732" d="M100.886,457.34a2.03,2.03,0,0,1-1.762-1.207c-.006-3.614-.045-7.228,0-10.841.013-1.015-.316-1.383-1.322-1.343a9.821,9.821,0,0,1-2.145-.218,1.375,1.375,0,0,1-1.235-1.663,1.457,1.457,0,0,1,1.629-1.344c3.134.229,6.263.5,9.409.576a1.483,1.483,0,0,1,1.587,1.572c-.06,1.045-.726,1.457-1.789,1.478-3.066.06-3.065.091-3.065,3.205,0,2.53-.028,5.06.013,7.589a2.02,2.02,0,0,1-1.321,2.2" transform="translate(-19.212 -89.686)" fill="url(#linear-gradient-2)"/>
          <path id="Path_609733" data-name="Path 609733" d="M152.343,449.042c0-1.55-.056-3.1.017-4.65.049-1.053-.237-1.547-1.376-1.395a17.223,17.223,0,0,1-2.167.057,1.3,1.3,0,0,1-1.338-1.25,1.328,1.328,0,0,1,.866-1.489,5.937,5.937,0,0,1,1.5-.353q3.987-.477,7.979-.91c1.047-.115,2.092-.014,2.252,1.269.154,1.241-.7,1.658-1.827,1.793-2.837.337-2.834.365-2.834,3.156,0,2.584.008,5.168-.007,7.751a5.813,5.813,0,0,1-.167,1.525,1.428,1.428,0,0,1-1.722,1.188,1.394,1.394,0,0,1-1.175-1.576c.006-1.705,0-3.411,0-5.116" transform="translate(-30.008 -89.34)" fill="url(#linear-gradient-2)"/>
          <path id="Path_609734" data-name="Path 609734" d="M86.656,447.342a8.246,8.246,0,0,1-3.352-.833,1.839,1.839,0,0,1-.887-2.362,1.157,1.157,0,0,1,1.739-.668c.537,1.479,1.935,2.4,2.5,3.863" transform="translate(-16.743 -90.213)" fill="#d5b21e"/>
          <path id="Path_609735" data-name="Path 609735" d="M88.087,448.678l-.319-.322.319.322" transform="translate(-17.861 -91.241)" fill="#d5b21e"/>
          <path id="Path_609736" data-name="Path 609736" d="M88.479,449.1l-.327-.353.327.353" transform="translate(-17.939 -91.319)" fill="#d5b21e"/>
          <path id="Path_609737" data-name="Path 609737" d="M134.133,447.272c-.311-1.515.107-2.247,1.8-2.089,1.617.151,2.243.558,2.225,1.9-.02,1.481-.921,2.1-2.738,2.22-1.884.123-1.163-1.207-1.288-2.035" transform="translate(-27.277 -90.59)" fill="#eba325"/>
          <path id="Path_609738" data-name="Path 609738" d="M118.549,449.613c-.884-.065-2.035.4-1.926-1.3s.807-2.716,2.08-2.684,1.959.937,1.955,2.593c0,1.395,0,1.395-2.109,1.39" transform="translate(-23.731 -90.686)" fill="#eba325"/>
          <path id="Path_609739" data-name="Path 609739" d="M555.687,368.395c-.8,4.333-2.613,8.324-4.317,12.329a78.2,78.2,0,0,1-8.645,15.253,64.777,64.777,0,0,1-10.871,11.72,7.308,7.308,0,0,0-.782.9c-.418.292-.852.565-1.253.88a81.387,81.387,0,0,1-21.52,12.086L492.715,406.1l-.409-.645c.657,0,1.015-.49,1.418-.893q8.014-8.011,16.022-16.027c.4-.4.91-.741.917-1.4l.636.4a13.527,13.527,0,0,0,19.112-19.141,1.41,1.41,0,0,0-.021-.29c3.7-4.153,7.793-7.912,11.7-11.855.217-.219.619-.256.934-.378l12.66,12.534" transform="translate(-100.184 -72.418)" fill="#cce9fa"/>
          <path id="Path_609740" data-name="Path 609740" d="M506.692,383.768c-.006.663-.516,1-.916,1.4q-8.007,8.018-16.023,16.027c-.4.4-.76.889-1.418.893-.462-.421-.941-.825-1.384-1.266Q479.869,393.8,472.8,386.76a81.014,81.014,0,0,1,12.139-21.629c.335-.424.926-.765.641-1.47a2.06,2.06,0,0,0,1.509-1.046,55.136,55.136,0,0,1,7.884-7.665,69.324,69.324,0,0,1,14.715-9.509c5.19-2.543,10.48-4.95,16.221-6.087,1.268,1.238,2.529,2.481,3.8,3.71,3.042,2.931,5.842,6.108,9.063,8.856l.284.581c-.316.122-.718.159-.935.378-3.909,3.943-8,7.7-11.7,11.854-.5-.38-1-.758-1.5-1.141a13.549,13.549,0,0,0-20.707,5.265c-2.351,5.447-1.229,10.417,2.475,14.91" transform="translate(-96.214 -69.059)" fill="#e0eff9"/>
          <path id="Path_609741" data-name="Path 609741" d="M511.117,435.041a81.4,81.4,0,0,0,21.52-12.086c.4-.315.835-.588,1.253-.88,1.5,10.48-1.631,19.643-7.992,27.858a49.927,49.927,0,0,1-12.191,11.126c-3.364,2.212-5.9,1.094-6.222-2.871-.4-4.876-.617-9.767-.9-14.652a13.842,13.842,0,0,0-.422-3.419l4.955-5.075" transform="translate(-103.004 -85.892)" fill="#fe1a3e"/>
          <path id="Path_609742" data-name="Path 609742" d="M478.637,369.846c.284.706-.307,1.047-.641,1.47a80.989,80.989,0,0,0-12.139,21.629l-4.933,4.7c-6.148-.389-12.3-.794-18.446-1.157-3.162-.186-4.792-2.806-3.117-5.395,7.143-11.037,16.535-18.956,29.956-21.08,3.087-.489,6.212-.151,9.32-.167" transform="translate(-89.274 -75.244)" fill="#fe5c5c"/>
          <path id="Path_609743" data-name="Path 609743" d="M465.039,403.572l4.933-4.7q7.075,7.035,14.155,14.065c.443.44.922.844,1.383,1.266l.409.644c-4.342,3.864-8.484,7.932-12.484,12.147a1.68,1.68,0,0,1-.283.006c-3.448-3.7-7.048-7.24-10.7-10.73-.79-.824-1.6-1.634-2.368-2.477a3.409,3.409,0,0,1,.044-5.179c1.615-1.7,3.274-3.363,4.913-5.042" transform="translate(-93.389 -81.171)" fill="#03386e"/>
          <path id="Path_609744" data-name="Path 609744" d="M477.146,431.077c4-4.216,8.142-8.284,12.484-12.147q7.792,7.735,15.583,15.471-2.478,2.538-4.954,5.075c-1.547,1.526-3.085,3.063-4.644,4.577-1.982,1.922-3.7,1.926-5.658.038-.78-.752-1.552-1.511-2.328-2.267-.387-.423-.762-.859-1.164-1.268q-4.655-4.744-9.317-9.48" transform="translate(-97.099 -85.252)" fill="#011135"/>
          <path id="Path_609745" data-name="Path 609745" d="M471.655,434.18q4.659,4.74,9.317,9.48c.4.409.777.845,1.164,1.268-5.308,5.466-11.948,8.475-19.193,10.313a47.735,47.735,0,0,1-9.865,1.523,3.721,3.721,0,0,1-2.914-.776c.491-1.511,1.853-2.292,2.876-3.333,6.082-6.185,12.216-12.319,18.332-18.47a1.6,1.6,0,0,0,.283-.006" transform="translate(-91.608 -88.356)" fill="#fcbf02"/>
          <path id="Path_609746" data-name="Path 609746" d="M471.074,431.445c-6.116,6.151-12.249,12.285-18.332,18.47-1.023,1.04-2.385,1.822-2.875,3.333-1.38-1.23-1.209-2.781-1.09-4.429a49.364,49.364,0,0,1,5.874-20.354,46.418,46.418,0,0,1,5.721-7.751c3.654,3.49,7.255,7.035,10.7,10.73" transform="translate(-91.31 -85.616)" fill="#fef161"/>
          <path id="Path_609747" data-name="Path 609747" d="M555.912,351.52l-.284-.581a2.751,2.751,0,0,0,1.207-.936q6.462-6.462,12.91-12.938a10.727,10.727,0,0,0,2.3-2.535,2.032,2.032,0,0,1,1.029,2.01,67.274,67.274,0,0,1-1.079,13.379,101.277,101.277,0,0,1-3.056,13.4,5.113,5.113,0,0,1-.366.737l-12.66-12.534" transform="translate(-113.07 -68.077)" fill="#fe1b3f"/>
          <path id="Path_609748" data-name="Path 609748" d="M568.757,334.288a10.76,10.76,0,0,1-2.3,2.535q-6.432,6.491-12.91,12.938a2.749,2.749,0,0,1-1.207.936c-3.22-2.747-6.022-5.924-9.063-8.855-1.275-1.229-2.537-2.473-3.8-3.71,1.932-1.07,4.108-1.349,6.2-1.857a108.816,108.816,0,0,1,20.094-2.909c1.1-.057,2.2-.072,2.986.923" transform="translate(-109.783 -67.835)" fill="#fe5c5c"/>
          <path id="Path_609749" data-name="Path 609749" d="M535.263,371.583a13.527,13.527,0,0,1-19.112,19.141c.964-2.023,3.077-3.063,4.218-4.934.389.235.791.451,1.165.707a6.834,6.834,0,0,0,8.449-.469c2.813-2.468,2.982-6.165.454-9.936,1.542-1.574,2.87-3.378,4.826-4.51" transform="translate(-105.037 -75.617)" fill="#021337"/>
          <path id="Path_609750" data-name="Path 609750" d="M519.26,384.7c-1.141,1.871-3.254,2.911-4.218,4.934l-.636-.4c-3.7-4.492-4.827-9.462-2.475-14.91a13.547,13.547,0,0,1,20.707-5.265c.5.382,1,.761,1.5,1.141a1.377,1.377,0,0,1,.021.291c-1.956,1.132-3.284,2.936-4.826,4.51-.11-.021-.219-.042-.327-.065a6.645,6.645,0,0,0-9.3-.141c-2.762,2.525-2.934,6.466-.417,9.562,0,.115-.013.228-.026.342" transform="translate(-103.927 -74.527)" fill="#03386e"/>
          <path id="Path_609751" data-name="Path 609751" d="M521.447,386.926c.013-.114.021-.227.026-.342a2.273,2.273,0,0,0,.772-.327c2.984-3.029,6.146-5.882,8.942-9.094.108.023.217.045.327.065,2.528,3.771,2.359,7.468-.454,9.936a6.836,6.836,0,0,1-8.449.469c-.374-.257-.776-.472-1.165-.707" transform="translate(-106.115 -76.753)" fill="#1cabb3"/>
          <path id="Path_609752" data-name="Path 609752" d="M530.74,376.66c-2.8,3.212-5.959,6.065-8.942,9.094a2.274,2.274,0,0,1-.772.327c-2.515-3.1-2.344-7.037.417-9.562a6.645,6.645,0,0,1,9.3.141" transform="translate(-105.667 -76.25)" fill="#07c9a9"/>
          <path id="Path_609753" data-name="Path 609753" d="M816.059,290.038a13.061,13.061,0,0,1-5.307-6.006,17.356,17.356,0,0,1,.021-5.7c1.175-2.669,2.789-4.933,5.609-6.088a3.676,3.676,0,0,1,1.528-.45,8.152,8.152,0,0,1,4.593,0,9.264,9.264,0,0,1,6.5,5.267c.212.425.426.849.639,1.274a17.313,17.313,0,0,1,.021,5.694,13.046,13.046,0,0,1-5.306,6.007,13.222,13.222,0,0,1-8.295,0m7.732-8.79a3.587,3.587,0,1,0-3.619,3.556,3.593,3.593,0,0,0,3.619-3.556" transform="translate(-164.942 -55.243)" fill="#fedf7e"/>
          <path id="Path_609754" data-name="Path 609754" d="M829.043,370.658c1.246,0,2.493-.035,3.737.012a4.778,4.778,0,0,1,4.687,4.816c.009,1.1-.4,1.384-1.427,1.368-3.195-.049-6.391-.018-9.587-.018-8.992,0-17.983-.026-26.975.027-1.329.008-1.828-.33-1.739-1.716a4.776,4.776,0,0,1,4.683-4.478c1.244-.046,2.492-.01,3.738-.012h22.883" transform="translate(-162.338 -75.426)" fill="#efdf9a"/>
          <path id="Path_609755" data-name="Path 609755" d="M831.2,365.256H808.314a19.513,19.513,0,0,1,1.294-4.265c2.327.014,4.662-.094,6.977.072,2.734.2,5.251-2.659,4.524-5.853-.849-3.729-2.321-7.292-2.986-11.072l5.888-.038c.958-.029,1.32.624,1.54,1.391q2.832,9.881,5.646,19.764" transform="translate(-164.492 -70.024)" fill="#fecf64"/>
          <path id="Path_609756" data-name="Path 609756" d="M825.85,337.387l-5.888.038-2.593-.029q-.01-13.142-.02-26.284h8.495l.007,26.274" transform="translate(-166.33 -63.311)" fill="#cc894c"/>
          <path id="Path_609757" data-name="Path 609757" d="M782.921,320.887a1.343,1.343,0,0,1,1.373,1.3c.632,4.885-2.829,10.764-7.595,12.838-5.373,2.338-11.452,1.076-14.875-3.089.648,0,1.3.041,1.94-.014a12.273,12.273,0,0,0,7.231-2.8c.617-.534,1.475-1.18-.23-1.468a1.474,1.474,0,0,1,.414-2.875,8.086,8.086,0,0,1,1.13.01c1.9.374,2.8-.546,3.057-2.315.069-.476.109-.957.163-1.435l3.929-.152,3.462.007" transform="translate(-155.031 -65.299)" fill="#fecf64"/>
          <path id="Path_609758" data-name="Path 609758" d="M880.89,320.883c.753.1,1.271.34,1.362,1.274a13.187,13.187,0,0,1-7.563,12.859,12.94,12.94,0,0,1-14.633-2.683,2.531,2.531,0,0,1-.258-.4c.758,0,1.517.045,2.271-.011a11.521,11.521,0,0,0,7.254-3.18c.413-.39.889-.937-.2-1.015a1.375,1.375,0,0,1-1.423-1.6c.073-1.014.785-1.364,1.826-1.375,3.2-.03,3.195-.069,4.057-3.124.058-.207.142-.407.214-.61l3.646-.132Z" transform="translate(-174.969 -65.3)" fill="#fecf64"/>
          <path id="Path_609759" data-name="Path 609759" d="M880.347,314.233l-3.447,0q-3.983-10.1-7.966-20.194l-.464.061-7.952,20.128-3.389-.037q5.153-12.993,10.307-25.985l2.533-.006q5.189,13.016,10.379,26.03" transform="translate(-174.426 -58.649)" fill="#cc894c"/>
          <path id="Path_609760" data-name="Path 609760" d="M782.363,314.238l-3.462-.007-7.972-20.191-.456.055-7.963,20.136h-3.427L769.46,288.2l2.531,0,10.372,26.029" transform="translate(-154.473 -58.65)" fill="#cc894c"/>
          <path id="Path_609761" data-name="Path 609761" d="M803.947,280.09a17.377,17.377,0,0,0-.021,5.7L777,285.8a4.707,4.707,0,0,0-.018-5.709h26.969" transform="translate(-158.115 -56.998)" fill="#cc894c"/>
          <path id="Path_609762" data-name="Path 609762" d="M834.543,285.787a17.339,17.339,0,0,0-.022-5.695l26.968,0a4.708,4.708,0,0,0-.017,5.71l-26.93-.014" transform="translate(-169.825 -56.998)" fill="#cc894c"/>
          <path id="Path_609763" data-name="Path 609763" d="M856.766,320.834l3.389.037,12.737.137c-.072.2-.156.4-.214.609-.863,3.055-.862,3.094-4.057,3.125-1.041.01-1.754.361-1.826,1.375a1.375,1.375,0,0,0,1.423,1.6c1.088.077.613.624.2,1.015a11.517,11.517,0,0,1-7.254,3.18c-.753.056-1.513.01-2.271.011-2.756-2.7-3.666-6.068-3.531-9.8.031-.868.659-1.157,1.4-1.279" transform="translate(-174.064 -65.29)" fill="#fedf7e"/>
          <path id="Path_609764" data-name="Path 609764" d="M758.737,320.879h3.428l12.461.153c-.053.478-.093.959-.163,1.434-.26,1.77-1.156,2.69-3.057,2.316a7.961,7.961,0,0,0-1.129-.01,1.31,1.31,0,0,0-1.416,1.264,1.3,1.3,0,0,0,1,1.61c1.7.288.847.934.23,1.468a12.27,12.27,0,0,1-7.231,2.8c-.642.055-1.293.012-1.939.014-2.839-2.724-3.681-6.156-3.522-9.942.036-.855.691-.982,1.337-1.11" transform="translate(-154.127 -65.299)" fill="#fedf7e"/>
          <path id="Path_609765" data-name="Path 609765" d="M815.86,344.112l2.593.029c.665,3.78,2.137,7.343,2.986,11.072.727,3.194-1.79,6.049-4.523,5.853-2.315-.166-4.651-.059-6.977-.072,1.466-5.207,2.918-10.417,4.413-15.616a1.633,1.633,0,0,1,1.509-1.265" transform="translate(-164.822 -70.027)" fill="#fedf7e"/>
          <path id="Path_609766" data-name="Path 609766" d="M820.2,261.534c-2.578-1.171-3.533-3.015-2.83-5.7a23.79,23.79,0,0,1,3.145-7.046c.7-1.064,1.378-1.067,2.073,0a23.242,23.242,0,0,1,3.4,8.146c.358,1.79-.977,3.65-3.086,4.6l-2.7,0" transform="translate(-166.29 -50.465)" fill="#fedf7e"/>
          <path id="Path_609767" data-name="Path 609767" d="M819.423,264.995l2.7,0c1.119.592,2.319.191,3.478.266a2.457,2.457,0,1,1,.118,4.907c-.883.091-1.831-.331-2.647.313a8.15,8.15,0,0,0-4.592,0c-.7-.624-1.547-.264-2.323-.307-1.714-.1-2.839-1.027-2.84-2.456s1.127-2.378,2.793-2.458c1.1-.053,2.249.3,3.314-.264" transform="translate(-165.51 -53.926)" fill="#feefae"/>
          <path id="Path_609768" data-name="Path 609768" d="M825.026,309.855h-8.5c-2.049-.024-3.142-.832-3.2-2.366-.054-1.552,1.107-2.469,3.23-2.549h8.423c1.409-.075,2.593.289,3.109,1.755a2.381,2.381,0,0,1-.786,2.621,2.9,2.9,0,0,1-2.284.538" transform="translate(-165.513 -62.054)" fill="#fedf7e"/>
          <path id="Path_609769" data-name="Path 609769" d="M825.813,302.875H817.39q.034-4.047.066-8.092a13.234,13.234,0,0,0,8.295,0q.031,4.045.062,8.092" transform="translate(-166.339 -59.988)" fill="#cc894c"/>
          <path id="Path_609770" data-name="Path 609770" d="M775.373,279.895a4.706,4.706,0,0,1,.018,5.709,2.4,2.4,0,0,0-1.363.757l-2.531,0c-2.516-2-3.053-3.952-1.62-5.89,1.168-1.58,2.824-1.753,5.5-.573" transform="translate(-156.511 -56.802)" fill="#fedf7e"/>
          <path id="Path_609771" data-name="Path 609771" d="M868.115,285.6a4.707,4.707,0,0,1,.017-5.709c2.668-1.18,4.331-1.006,5.5.572,1.433,1.941.9,3.891-1.619,5.89l-2.533,0a2.409,2.409,0,0,0-1.361-.757" transform="translate(-176.467 -56.803)" fill="#fedf7e"/>
          <path id="Path_609772" data-name="Path 609772" d="M825.348,282.772a3.587,3.587,0,1,1-7.169-.23,3.588,3.588,0,1,1,7.169.23" transform="translate(-166.499 -56.767)" fill="#768d94"/>
          <path id="Path_609773" data-name="Path 609773" d="M1037.336,468.951q-.036,22.728-.072,45.456c-.006,3.48,0,3.493-3.588,3.48-5.712-.021-4.918.526-4.921-4.845q-.026-51.65-.006-103.3c0-3.073,1.493-4.882,4.048-4.965,2.675-.087,4.326,1.7,4.47,4.84.013.284.046.566.07.849q0,9.795,0,19.588v19.376q0,7,.007,14Z" transform="translate(-209.344 -82.371)" fill="#fea91c"/>
          <path id="Path_609774" data-name="Path 609774" d="M1107.472,411.91l14.539,0q-.022,9.78-.041,19.56l.052.124c-4.2-.017-8.392.01-12.586-.075-1.261-.025-1.744.273-1.724,1.638.075,5.334.067,10.671,0,16.006-.015,1.294.366,1.721,1.682,1.694,4.194-.084,8.391-.049,12.588-.061l-.016.176c.01,2.4.051,4.805.024,7.207-.042,3.663-2.454,7.251-6.87,6.74a66.829,66.829,0,0,0-7.413-.072h-.2c.03-3.973-.026-7.949.133-11.916.07-1.749-.548-2.112-2.166-2.094-5.746.063-11.494-.022-17.242-.05q.02-9.626.041-19.251l-.037.037q8.749-.035,17.5-.075c.875,0,1.9.293,1.878-1.245-.083-6.115-.1-12.229-.147-18.344" transform="translate(-221.457 -83.824)" fill="#f0f1f1"/>
          <path id="Path_609775" data-name="Path 609775" d="M1063.566,411.919l19.722.01q-.034,9.823-.067,19.646l.037-.037h-19.685l.036.037q-.021-9.829-.042-19.658" transform="translate(-216.436 -83.826)" fill="#f0f1f1"/>
          <path id="Path_609776" data-name="Path 609776" d="M1058.676,411.919q.021,9.829.042,19.658l-19.182-.07q0-9.795,0-19.588h19.138" transform="translate(-211.546 -83.825)" fill="#595a5c"/>
          <path id="Path_609777" data-name="Path 609777" d="M1088.243,431.574q.033-9.823.067-19.646l19.163-.018c.044,6.115.064,12.229.147,18.343.021,1.538-1,1.241-1.879,1.246q-8.749.048-17.5.075" transform="translate(-221.458 -83.824)" fill="#595a5c"/>
          <path id="Path_609778" data-name="Path 609778" d="M1112.626,474.782a66.839,66.839,0,0,1,7.413.073c4.417.51,6.828-3.077,6.87-6.74.028-2.4-.014-4.805-.024-7.208l5.16-.192c0,4.6.02,9.207,0,13.81a5.49,5.49,0,0,1-5.846,5.832c-4.6.018-9.206,0-13.809,0,.6-1.836.1-3.717.234-5.572" transform="translate(-226.372 -93.756)" fill="#e1e2e3"/>
          <path id="Path_609779" data-name="Path 609779" d="M1083.3,483.914l-19.764.014a25.841,25.841,0,0,0,.006-5.542.731.731,0,0,0,.225.045l19.368-.01.173-.042q0,2.768-.008,5.536" transform="translate(-216.431 -97.35)" fill="#e1e2e3"/>
          <path id="Path_609780" data-name="Path 609780" d="M1058.662,478.387a25.889,25.889,0,0,1-.006,5.542l-19.119,0q0-2.76.006-5.519l19.119-.026" transform="translate(-211.546 -97.352)" fill="#434244"/>
          <path id="Path_609781" data-name="Path 609781" d="M1088.354,483.913q0-2.768.008-5.536l19.175,0h.2c-.136,1.854.367,3.736-.234,5.572l-19.146-.034" transform="translate(-221.48 -97.349)" fill="#434244"/>
          <path id="Path_609782" data-name="Path 609782" d="M1135.748,455.781l-5.16.193.016-.176q.018-9.6.037-19.2l-.053-.125,5.137.126q.012,9.593.023,19.184" transform="translate(-230.075 -88.822)" fill="#434244"/>
          <path id="Path_609783" data-name="Path 609783" d="M1135.724,431.6l-5.137-.125q.02-9.78.041-19.56c3.742,1.234,5.115,3.1,5.113,6.949q0,6.367-.017,12.735" transform="translate(-230.075 -83.825)" fill="#e1e2e3"/>
          <path id="Path_609784" data-name="Path 609784" d="M1039.537,436.511l19.181.07-.036-.036q.017,9.627.033,19.256l-19.18.086q0-9.688,0-19.376" transform="translate(-211.546 -88.83)" fill="#f0f1f1"/>
          <path id="Path_609785" data-name="Path 609785" d="M1039.536,460.806l19.179-.086-.034-.041q.1,7.075.206,14.149a.731.731,0,0,1-.225-.045l-19.118.026q0-7-.007-14" transform="translate(-211.546 -93.748)" fill="#595a5c"/>
          <path id="Path_609786" data-name="Path 609786" d="M1063.607,455.81q-.017-9.629-.034-19.256l19.687,0q-.021,9.626-.041,19.251l.041-.034h-19.687Z" transform="translate(-216.437 -88.838)" fill="#595a5c"/>
          <path id="Path_609787" data-name="Path 609787" d="M1127,436.608q-.018,9.6-.037,19.2c-4.2.012-8.393-.023-12.587.061-1.317.027-1.7-.4-1.682-1.694.061-5.335.069-10.672,0-16.006-.019-1.365.463-1.664,1.724-1.638,4.2.084,8.391.058,12.587.075" transform="translate(-226.432 -88.834)" fill="#595a5c"/>
          <path id="Path_609788" data-name="Path 609788" d="M1107.495,474.774l-19.175,0-.173.042q.057-7.071.113-14.14l-.04.034c5.748.029,11.5.114,17.242.05,1.618-.018,2.236.346,2.166,2.094-.159,3.967-.1,7.943-.133,11.916" transform="translate(-221.438 -93.748)" fill="#595a5c"/>
          <path id="Path_609789" data-name="Path 609789" d="M1083.259,460.679q-.056,7.071-.113,14.14l-19.368.009q-.1-7.074-.206-14.148h19.687" transform="translate(-216.437 -93.748)" fill="#f0f1f1"/>
          <path id="Path_609790" data-name="Path 609790" d="M18.829,497.83s133-.48,225.732-89.3S444.669,228.6,566.685,201.754s218,8.643,356.29,132.033" transform="translate(-3.832 -39.341)" fill="none" stroke="#ad1c1c" stroke-linecap="round" stroke-miterlimit="10" stroke-width="5"/>
          <path id="Path_609791" data-name="Path 609791" d="M949,467.03H14.354V22.333" transform="translate(-2.921 -4.545)" fill="none" stroke="#18b8c4" stroke-linecap="round" stroke-width="5"/>
          <line id="Line_887" data-name="Line 887" y1="3.186" transform="translate(273.77 454.751)" fill="none" stroke="#18b8c4" stroke-linecap="round" stroke-width="5"/>
          <line id="Line_888" data-name="Line 888" y1="419.619" transform="translate(273.77 28.725)" fill="none" stroke="#18b8c4" stroke-linecap="round" stroke-width="5" stroke-dasharray="8.043 8.043"/>
          <line id="Line_889" data-name="Line 889" y1="3.186" transform="translate(273.77 22.336)" fill="none" stroke="#18b8c4" stroke-linecap="round" stroke-width="5"/>
          <line id="Line_890" data-name="Line 890" y1="3.186" transform="translate(523.107 454.751)" fill="none" stroke="#18b8c4" stroke-linecap="round" stroke-width="5"/>
          <line id="Line_891" data-name="Line 891" y1="419.619" transform="translate(523.107 28.725)" fill="none" stroke="#18b8c4" stroke-linecap="round" stroke-width="5" stroke-dasharray="8.043 8.043"/>
          <line id="Line_892" data-name="Line 892" y1="3.186" transform="translate(523.107 22.336)" fill="none" stroke="#18b8c4" stroke-linecap="round" stroke-width="5"/>
          <line id="Line_893" data-name="Line 893" y1="3.186" transform="translate(763.356 454.751)" fill="none" stroke="#18b8c4" stroke-linecap="round" stroke-width="5"/>
          <line id="Line_894" data-name="Line 894" y1="419.619" transform="translate(763.356 28.725)" fill="none" stroke="#18b8c4" stroke-linecap="round" stroke-width="5" stroke-dasharray="8.043 8.043"/>
          <line id="Line_895" data-name="Line 895" y1="3.186" transform="translate(763.356 22.336)" fill="none" stroke="#18b8c4" stroke-linecap="round" stroke-width="5"/>
        </g>
      </g>
    </g>
    <path id="Path_716386" data-name="Path 716386" d="M104.349,13.52,106.9,4.2h3.445L106.036,17h-3.375L98.39,4.2h3.419Zm14.862-1.951h-4.852v3.059h5.73V17h-8.815V4.2h8.833V6.585h-5.748v2.7h4.852ZM132.034,17h-3.067l-4.535-7.963V17h-3.085V4.2h3.085l4.526,7.963V4.2h3.076ZM143.776,6.585h-3.841V17h-3.085V6.585H133.08V4.2h10.7Zm7.515,8.024h-4.228L146.325,17h-3.3l4.693-12.8h2.9L155.352,17h-3.313ZM147.8,12.228h2.751l-1.38-4.438ZM162.884,13.6a1.268,1.268,0,0,0-.479-1.055,5.954,5.954,0,0,0-1.683-.782,16.147,16.147,0,0,1-1.969-.782q-2.487-1.222-2.487-3.357a3.011,3.011,0,0,1,.62-1.876,4.008,4.008,0,0,1,1.753-1.266,6.823,6.823,0,0,1,2.549-.453,5.969,5.969,0,0,1,2.474.492,3.917,3.917,0,0,1,1.7,1.4A3.661,3.661,0,0,1,165.969,8h-3.076a1.547,1.547,0,0,0-.479-1.213,1.867,1.867,0,0,0-1.3-.431,2.106,2.106,0,0,0-1.305.365,1.074,1.074,0,0,0,.048,1.819,6.65,6.65,0,0,0,1.854.826,11.36,11.36,0,0,1,2.18.918,3.663,3.663,0,0,1,2.074,3.3,3.125,3.125,0,0,1-1.266,2.637,5.629,5.629,0,0,1-3.472.958,6.888,6.888,0,0,1-2.817-.558,4.247,4.247,0,0,1-1.9-1.529,3.985,3.985,0,0,1-.637-2.237h3.094a1.963,1.963,0,0,0,.532,1.516,2.513,2.513,0,0,0,1.727.488,1.985,1.985,0,0,0,1.208-.33A1.088,1.088,0,0,0,162.884,13.6Z" transform="translate(295 10636.242) rotate(-90)" fill="#12263f"/>
    <path id="Path_716391" data-name="Path 716391" d="M37.127,6.585H33.287V17H30.2V6.585H26.431V4.2h10.7ZM41.715,17H38.639V4.2h3.076ZM51.8,11.568H46.945v3.059h5.73V17H43.86V4.2h8.833V6.585H46.945v2.7H51.8ZM57.984,4.2l2.856,8.9,2.848-8.9h4.061V17H64.655V14.012l.3-6.117L61.86,17H59.821l-3.1-9.114.3,6.126V17H53.932V4.2Zm14.81,8.455V17H69.708V4.2h5.106a5.948,5.948,0,0,1,2.6.541,4.074,4.074,0,0,1,1.749,1.538,4.2,4.2,0,0,1,.62,2.263,3.7,3.7,0,0,1-1.34,2.993,5.561,5.561,0,0,1-3.678,1.121Zm0-2.382h2.021a1.906,1.906,0,0,0,1.367-.448,1.665,1.665,0,0,0,.47-1.266,2.059,2.059,0,0,0-.483-1.433,1.712,1.712,0,0,0-1.318-.545H72.793Zm19.468.589a7.546,7.546,0,0,1-.694,3.313A5.132,5.132,0,0,1,89.594,16.4a5.494,5.494,0,0,1-2.914.778,5.572,5.572,0,0,1-2.9-.751,5.123,5.123,0,0,1-1.973-2.149,7.329,7.329,0,0,1-.743-3.208v-.721a7.58,7.58,0,0,1,.69-3.318A5.119,5.119,0,0,1,83.731,4.81,5.854,5.854,0,0,1,89.563,4.8,5.211,5.211,0,0,1,91.545,7a7.362,7.362,0,0,1,.716,3.274Zm-3.138-.536a5.381,5.381,0,0,0-.637-2.9,2.044,2.044,0,0,0-1.824-.989q-2.32,0-2.452,3.48l-.009.94a5.535,5.535,0,0,0,.624,2.892,2.041,2.041,0,0,0,1.854,1.011,2.016,2.016,0,0,0,1.8-.993,5.383,5.383,0,0,0,.642-2.856Z" transform="translate(1153 10744.115)" fill="#12263f"/>
    <path id="Path_716387" data-name="Path 716387" d="M71.227,17H68.151V4.2h3.076Zm12.832,0H80.992L76.457,9.037V17H73.372V4.2h3.085l4.526,7.963V4.2h3.076ZM95.8,6.585H91.96V17H88.875V6.585H85.1V4.2H95.8Zm6.056,5.889h-1.67V17H97.1V4.2h5.036a5.621,5.621,0,0,1,3.56,1.01,3.421,3.421,0,0,1,1.283,2.853,4.155,4.155,0,0,1-.541,2.213,3.837,3.837,0,0,1-1.692,1.422l2.672,5.167V17h-3.3Zm-1.67-2.373h1.951a1.751,1.751,0,0,0,1.323-.463,1.788,1.788,0,0,0,.444-1.291,1.809,1.809,0,0,0-.448-1.3,1.735,1.735,0,0,0-1.318-.471h-1.951Zm19.494.765a7.546,7.546,0,0,1-.694,3.313,5.132,5.132,0,0,1-1.973,2.219,5.494,5.494,0,0,1-2.914.778,5.572,5.572,0,0,1-2.9-.751,5.123,5.123,0,0,1-1.973-2.149,7.329,7.329,0,0,1-.743-3.208v-.721a7.58,7.58,0,0,1,.69-3.318,5.119,5.119,0,0,1,1.978-2.219,5.854,5.854,0,0,1,5.832-.009A5.211,5.211,0,0,1,118.965,7a7.362,7.362,0,0,1,.716,3.274Zm-3.138-.536a5.381,5.381,0,0,0-.637-2.9,2.044,2.044,0,0,0-1.824-.989q-2.32,0-2.452,3.48l-.009.94a5.535,5.535,0,0,0,.624,2.892,2.041,2.041,0,0,0,1.854,1.011,2.016,2.016,0,0,0,1.8-.993,5.383,5.383,0,0,0,.642-2.856ZM121.272,17V4.2h4.122a6.064,6.064,0,0,1,3.05.769,5.406,5.406,0,0,1,2.114,2.171,6.554,6.554,0,0,1,.769,3.142v.589a6.592,6.592,0,0,1-.743,3.151,5.429,5.429,0,0,1-2.092,2.18,5.93,5.93,0,0,1-3.01.8Zm3.085-10.415v8.042h1.072a2.4,2.4,0,0,0,2.039-.945,4.63,4.63,0,0,0,.712-2.808V10.32a4.592,4.592,0,0,0-.712-2.795,2.442,2.442,0,0,0-2.074-.94ZM142.946,4.2v8.376a4.814,4.814,0,0,1-.606,2.465,3.929,3.929,0,0,1-1.74,1.586,6.131,6.131,0,0,1-2.681.545,5.3,5.3,0,0,1-3.683-1.213,4.326,4.326,0,0,1-1.371-3.322V4.2h3.1v8.5q.053,2.1,1.951,2.1a1.889,1.889,0,0,0,1.45-.527,2.465,2.465,0,0,0,.492-1.714V4.2Zm12.278,8.464a4.673,4.673,0,0,1-.721,2.36,4.35,4.35,0,0,1-1.85,1.586,6.3,6.3,0,0,1-2.72.563,5.025,5.025,0,0,1-3.973-1.644,6.786,6.786,0,0,1-1.45-4.641v-.633a7.746,7.746,0,0,1,.655-3.292,4.961,4.961,0,0,1,1.885-2.18,5.26,5.26,0,0,1,2.848-.769,5.516,5.516,0,0,1,3.744,1.226,4.844,4.844,0,0,1,1.608,3.379h-3.076a2.292,2.292,0,0,0-.589-1.679,2.422,2.422,0,0,0-1.687-.51,1.843,1.843,0,0,0-1.687.861,5.536,5.536,0,0,0-.562,2.751v.905a6.126,6.126,0,0,0,.514,2.927,1.882,1.882,0,0,0,1.771.879,2.369,2.369,0,0,0,1.626-.5,2.126,2.126,0,0,0,.6-1.591Zm11.813,0a4.673,4.673,0,0,1-.721,2.36,4.35,4.35,0,0,1-1.85,1.586,6.3,6.3,0,0,1-2.72.563,5.025,5.025,0,0,1-3.973-1.644,6.786,6.786,0,0,1-1.45-4.641v-.633a7.746,7.746,0,0,1,.655-3.292,4.961,4.961,0,0,1,1.885-2.18,5.26,5.26,0,0,1,2.848-.769,5.516,5.516,0,0,1,3.744,1.226,4.844,4.844,0,0,1,1.608,3.379h-3.076a2.292,2.292,0,0,0-.589-1.679,2.422,2.422,0,0,0-1.687-.51,1.843,1.843,0,0,0-1.687.861,5.536,5.536,0,0,0-.562,2.751v.905a6.126,6.126,0,0,0,.514,2.927,1.882,1.882,0,0,0,1.771.879,2.369,2.369,0,0,0,1.626-.5,2.126,2.126,0,0,0,.6-1.591ZM171.783,17h-3.076V4.2h3.076Zm12.981-6.135a7.546,7.546,0,0,1-.694,3.313A5.132,5.132,0,0,1,182.1,16.4a5.494,5.494,0,0,1-2.914.778,5.572,5.572,0,0,1-2.9-.751,5.123,5.123,0,0,1-1.973-2.149,7.329,7.329,0,0,1-.743-3.208v-.721a7.58,7.58,0,0,1,.69-3.318,5.119,5.119,0,0,1,1.978-2.219,5.854,5.854,0,0,1,5.832-.009A5.211,5.211,0,0,1,184.048,7a7.362,7.362,0,0,1,.716,3.274Zm-3.138-.536a5.381,5.381,0,0,0-.637-2.9,2.044,2.044,0,0,0-1.824-.989q-2.32,0-2.452,3.48l-.009.94a5.535,5.535,0,0,0,.624,2.892,2.041,2.041,0,0,0,1.854,1.011,2.016,2.016,0,0,0,1.8-.993,5.383,5.383,0,0,0,.642-2.856Zm-2.1-9.554h3.129l-2.443,2.76-2.417,0ZM197.042,17h-3.067L189.44,9.037V17h-3.085V4.2h3.085l4.526,7.963V4.2h3.076Z" transform="translate(315 10316.333)" fill="#12263f"/>
    <path id="Path_716388" data-name="Path 716388" d="M84.789,12.667a4.673,4.673,0,0,1-.721,2.36,4.35,4.35,0,0,1-1.85,1.586,6.3,6.3,0,0,1-2.72.563,5.025,5.025,0,0,1-3.973-1.644,6.786,6.786,0,0,1-1.45-4.641v-.633a7.746,7.746,0,0,1,.655-3.292,4.961,4.961,0,0,1,1.885-2.18,5.26,5.26,0,0,1,2.848-.769,5.516,5.516,0,0,1,3.744,1.226,4.844,4.844,0,0,1,1.608,3.379H81.739a2.292,2.292,0,0,0-.589-1.679,2.422,2.422,0,0,0-1.687-.51,1.843,1.843,0,0,0-1.687.861,5.536,5.536,0,0,0-.562,2.751v.905a6.126,6.126,0,0,0,.514,2.927,1.882,1.882,0,0,0,1.771.879,2.369,2.369,0,0,0,1.626-.5,2.126,2.126,0,0,0,.6-1.591ZM91,12.474h-1.67V17H86.248V4.2h5.036a5.621,5.621,0,0,1,3.56,1.01,3.421,3.421,0,0,1,1.283,2.853,4.155,4.155,0,0,1-.541,2.213A3.837,3.837,0,0,1,93.894,11.7l2.672,5.167V17h-3.3ZM89.333,10.1h1.951a1.751,1.751,0,0,0,1.323-.463,1.788,1.788,0,0,0,.444-1.291,1.809,1.809,0,0,0-.448-1.3,1.735,1.735,0,0,0-1.318-.471H89.333Zm16.594,1.468h-4.852v3.059h5.73V17H97.99V4.2h8.833V6.585h-5.748v2.7h4.852Zm12.489,1.1a4.673,4.673,0,0,1-.721,2.36,4.35,4.35,0,0,1-1.85,1.586,6.3,6.3,0,0,1-2.72.563,5.025,5.025,0,0,1-3.973-1.644,6.786,6.786,0,0,1-1.45-4.641v-.633a7.746,7.746,0,0,1,.655-3.292,4.961,4.961,0,0,1,1.885-2.18,5.26,5.26,0,0,1,2.848-.769,5.516,5.516,0,0,1,3.744,1.226,4.844,4.844,0,0,1,1.608,3.379h-3.076a2.292,2.292,0,0,0-.589-1.679,2.422,2.422,0,0,0-1.687-.51A1.843,1.843,0,0,0,111.4,7.3a5.536,5.536,0,0,0-.562,2.751v.905a6.126,6.126,0,0,0,.514,2.927,1.882,1.882,0,0,0,1.771.879,2.369,2.369,0,0,0,1.626-.5,2.126,2.126,0,0,0,.6-1.591ZM123.162,17h-3.076V4.2h3.076Zm6.2-12.8,2.856,8.9,2.848-8.9h4.061V17h-3.094V14.012l.3-6.117L133.234,17h-2.039l-3.1-9.114.3,6.126V17h-3.085V4.2ZM144.37,17h-3.076V4.2h3.076Zm10.081-5.432H149.6v3.059h5.73V17h-8.815V4.2h8.833V6.585H149.6v2.7h4.852ZM167.274,17h-3.067l-4.535-7.963V17h-3.085V4.2h3.085l4.526,7.963V4.2h3.076ZM179.016,6.585h-3.841V17H172.09V6.585H168.32V4.2h10.7Zm11.892,4.28a7.546,7.546,0,0,1-.694,3.313A5.132,5.132,0,0,1,188.24,16.4a5.494,5.494,0,0,1-2.914.778,5.572,5.572,0,0,1-2.9-.751,5.123,5.123,0,0,1-1.973-2.149,7.329,7.329,0,0,1-.743-3.208v-.721a7.58,7.58,0,0,1,.69-3.318,5.119,5.119,0,0,1,1.978-2.219,5.854,5.854,0,0,1,5.832-.009A5.211,5.211,0,0,1,190.191,7a7.362,7.362,0,0,1,.716,3.274Zm-3.138-.536a5.381,5.381,0,0,0-.637-2.9,2.044,2.044,0,0,0-1.824-.989q-2.32,0-2.452,3.48l-.009.94a5.535,5.535,0,0,0,.624,2.892,2.041,2.041,0,0,0,1.854,1.011,2.016,2.016,0,0,0,1.8-.993,5.383,5.383,0,0,0,.642-2.856Z" transform="translate(580 10316.333)" fill="#12263f"/>
    <path id="Path_716389" data-name="Path 716389" d="M76.726,4.2l2.856,8.9L82.43,4.2H86.49V17H83.4V14.012l.3-6.117L80.6,17H78.563l-3.1-9.114.3,6.126V17H72.674V4.2ZM95.877,14.609H91.649L90.911,17h-3.3L92.309,4.2h2.9L99.938,17H96.624Zm-3.489-2.382h2.751l-1.38-4.438ZM100.869,17V4.2h4.122a6.064,6.064,0,0,1,3.05.769,5.406,5.406,0,0,1,2.114,2.171,6.554,6.554,0,0,1,.769,3.142v.589a6.592,6.592,0,0,1-.743,3.151,5.429,5.429,0,0,1-2.092,2.18,5.93,5.93,0,0,1-3.01.8Zm3.085-10.415v8.042h1.072a2.4,2.4,0,0,0,2.039-.945,4.63,4.63,0,0,0,.712-2.808V10.32a4.592,4.592,0,0,0-.712-2.795,2.442,2.442,0,0,0-2.074-.94ZM122.543,4.2v8.376a4.814,4.814,0,0,1-.606,2.465,3.929,3.929,0,0,1-1.74,1.586,6.131,6.131,0,0,1-2.681.545,5.3,5.3,0,0,1-3.683-1.213,4.326,4.326,0,0,1-1.371-3.322V4.2h3.1v8.5q.053,2.1,1.951,2.1a1.889,1.889,0,0,0,1.45-.527,2.465,2.465,0,0,0,.492-1.714V4.2Zm6.68,8.271h-1.67V17h-3.085V4.2H129.5a5.621,5.621,0,0,1,3.56,1.01,3.421,3.421,0,0,1,1.283,2.853,4.155,4.155,0,0,1-.541,2.213,3.837,3.837,0,0,1-1.692,1.422l2.672,5.167V17h-3.3Zm-1.67-2.373H129.5a1.751,1.751,0,0,0,1.323-.463,1.788,1.788,0,0,0,.444-1.291,1.809,1.809,0,0,0-.448-1.3,1.735,1.735,0,0,0-1.318-.471h-1.951Zm16.594,1.468h-4.852v3.059h5.73V17H136.21V4.2h8.833V6.585h-5.748v2.7h4.852Zm5.6,3.059h6.117V17H145.9V15.374L152,6.585H145.86V4.2h9.94V5.785Z" transform="translate(840 10316.333)" fill="#12263f"/>
    <path id="Path_716390" data-name="Path 716390" d="M60.63,17V4.2h4.122a6.064,6.064,0,0,1,3.05.769,5.406,5.406,0,0,1,2.114,2.171,6.554,6.554,0,0,1,.769,3.142v.589a6.592,6.592,0,0,1-.743,3.151,5.429,5.429,0,0,1-2.092,2.18,5.93,5.93,0,0,1-3.01.8ZM63.715,6.585v8.042h1.072a2.4,2.4,0,0,0,2.039-.945,4.63,4.63,0,0,0,.712-2.808V10.32a4.592,4.592,0,0,0-.712-2.795,2.442,2.442,0,0,0-2.074-.94ZM80.2,11.568H75.352v3.059h5.73V17H72.267V4.2H81.1V6.585H75.352v2.7H80.2Zm12.489,1.1a4.673,4.673,0,0,1-.721,2.36,4.35,4.35,0,0,1-1.85,1.586,6.3,6.3,0,0,1-2.72.563,5.025,5.025,0,0,1-3.973-1.644,6.786,6.786,0,0,1-1.45-4.641v-.633a7.746,7.746,0,0,1,.655-3.292,4.961,4.961,0,0,1,1.885-2.18,5.26,5.26,0,0,1,2.848-.769,5.516,5.516,0,0,1,3.744,1.226,4.844,4.844,0,0,1,1.608,3.379H89.643a2.292,2.292,0,0,0-.589-1.679,2.422,2.422,0,0,0-1.687-.51,1.843,1.843,0,0,0-1.687.861,5.536,5.536,0,0,0-.562,2.751v.905a6.126,6.126,0,0,0,.514,2.927,1.882,1.882,0,0,0,1.771.879,2.369,2.369,0,0,0,1.626-.5,2.126,2.126,0,0,0,.6-1.591Zm4.544,1.96h5.37V17H94.152V4.2h3.085ZM107.195,17h-3.076V4.2h3.076Zm7.11-3.48L116.854,4.2H120.3L115.993,17h-3.375L108.346,4.2h3.419Zm14.862-1.951h-4.852v3.059h5.73V17h-8.815V4.2h8.833V6.585h-5.748v2.7h4.852Z" transform="translate(1105 10316.333)" fill="#12263f"/>
  </g>
</svg>
