<svg xmlns="http://www.w3.org/2000/svg" xmlns:xlink="http://www.w3.org/1999/xlink" width="400" height="351.269" viewBox="0 0 400 351.269">
  <defs>
    <linearGradient id="linear-gradient" x1="0.5" x2="0.5" y2="1" gradientUnits="objectBoundingBox">
      <stop offset="0" stop-color="#e1efe3"/>
      <stop offset="1" stop-color="#fff"/>
    </linearGradient>
    <clipPath id="clip-path">
      <rect id="Rectangle_377756" data-name="Rectangle 377756" width="323.497" height="157.027" fill="none"/>
    </clipPath>
    <linearGradient id="linear-gradient-2" x1="0.5" x2="0.5" y2="1" gradientUnits="objectBoundingBox">
      <stop offset="0" stop-color="#fef5e5"/>
      <stop offset="0.137" stop-color="#fffefc"/>
      <stop offset="0.479" stop-color="#fff"/>
      <stop offset="0.773" stop-color="#fffefd"/>
      <stop offset="1" stop-color="#fef7ea"/>
    </linearGradient>
  </defs>
  <g id="Group_1073025" data-name="Group 1073025" transform="translate(8842 909)">
    <path id="Path_716605" data-name="Path 716605" d="M0,0H400V351.269H0Z" transform="translate(-8442 -557.731) rotate(180)" fill="url(#linear-gradient)"/>
    <path id="Path_609717" data-name="Path 609717" d="M7.433,0,0,7.432,1.883,9.315l5.55-5.548,5.549,5.548,1.883-1.883Z" transform="translate(-8773.531 -774.045)" fill="#18b8c4"/>
    <path id="Path_609718" data-name="Path 609718" d="M6.968,20.72,9.884,17.8,12.8,20.72l1.883-1.883-4.8-4.8-4.8,4.8Z" transform="translate(-8775.984 -780.815)" fill="#18b8c4"/>
    <path id="Path_609719" data-name="Path 609719" d="M1210.7,563.821l3.338,3.339L1210.7,570.5l1.133,1.133,4.472-4.471-4.471-4.471Z" transform="translate(-9662.481 -1178.458)" fill="#18b8c4"/>
    <path id="Path_609720" data-name="Path 609720" d="M1199.5,570.181l1.755,1.755-1.755,1.755,1.133,1.133,2.888-2.887-2.888-2.887Z" transform="translate(-9654.069 -1183.235)" fill="#18b8c4"/>
    <path id="Path_609721" data-name="Path 609721" d="M1160.25,368.83l-1.6.112.331,4.709-4.709.332.113,1.6,6.308-.444Z" transform="translate(-9620.103 -1032.864)" fill="#ad1c1c"/>
    <path id="Path_609722" data-name="Path 609722" d="M1152.289,366.4l.174,2.475-2.475.175.112,1.6,4.074-.286-.287-4.074Z" transform="translate(-9616.884 -1030.955)" fill="#ad1c1c"/>
    <g id="Group_1072439" data-name="Group 1072439" transform="translate(-8769.673 -763.854)">
      <g id="Group_1072438" data-name="Group 1072438" clip-path="url(#clip-path)">
        <path id="Path_609723" data-name="Path 609723" d="M100.918,438.314c-1.3.108-2.6.2-3.9.329-1.47.144-2.944.227-4.419.261a27.645,27.645,0,0,1-2.847.088c-.02-.088-.059-.157-.162-.169a12.059,12.059,0,0,1-3.7-1.048,8.54,8.54,0,0,1-2.575-1.512.665.665,0,0,0,.435-.724c-.013-.833,0-1.666,0-2.5,0-1.026,0-1.036,1.009-1.056.35-.007.57-.142.589-.487a.488.488,0,0,0-.523-.518c-1.036-.025-2.067-.114-3.1-.19a.48.48,0,0,0-.536.443.453.453,0,0,0,.407.548,3.246,3.246,0,0,0,.706.072c.332-.013.44.108.436.442-.015,1.19,0,2.38,0,3.571a6.74,6.74,0,0,1-1.257-1,12.56,12.56,0,0,0-1.358-1.267l-.472-.592-.107-.116,0,0-.105-.106,0,0c-.187-.481-.647-.785-.824-1.273.336.034.671.079,1.008.1s.581-.1.624-.451c.04-.321-.136-.5-.463-.541a4.868,4.868,0,0,0-1.952-.075,4.955,4.955,0,0,0-.247-.551,16.5,16.5,0,0,1-1.11-2.208q2.235.168,4.47.335c.746.054,1.492.128,2.239.14,2.348.039,4.7.193,7.044.1,3.379-.133,6.76-.256,10.121-.667,1.179-.144,2.359-.28,3.537-.432.4-.052.6-.013.6.5-.027,3.2-.02,6.4,0,9.6,0,.4-.111.519-.507.548a2.923,2.923,0,0,0-1.049.158,15.922,15.922,0,0,0-2.008.232m-8.991-7.342a6.688,6.688,0,0,0-.764.006.576.576,0,0,0-.587.63c.008,1.377.006,2.754,0,4.131a.5.5,0,0,0,.508.576c.316.007.479-.241.5-.541s.006-.611.01-.918c.007-.485.15-.574.584-.346a1.332,1.332,0,0,1,.755,1.183.483.483,0,0,0,.522.509.5.5,0,0,0,.481-.558,1.826,1.826,0,0,0-.371-1.194c-.266-.313-.215-.514.012-.819a1.638,1.638,0,0,0-.743-2.62,2.845,2.845,0,0,0-.91-.04m-2.573,3.25h0c0-.509.019-1.02,0-1.529a1.666,1.666,0,0,0-1.574-1.635,1.616,1.616,0,0,0-1.7,1.418,25.447,25.447,0,0,0-.06,3.305.628.628,0,0,0,.066.244.471.471,0,0,0,.562.328.45.45,0,0,0,.374-.478,6.758,6.758,0,0,0,0-.866c-.062-.5.136-.643.622-.613.79.049.7-.07.705.724,0,.17,0,.34,0,.51,0,.355.018.726.5.732s.519-.35.521-.712c0-.476,0-.951,0-1.427m7.351-.579c0,.562,0,1.123,0,1.685a.459.459,0,0,0,.387.519.47.47,0,0,0,.567-.391,1.914,1.914,0,0,0,.055-.5c.005-.851,0-1.7,0-2.553,0-.919,0-.928.933-1.039.372-.044.652-.182.6-.591s-.4-.456-.742-.418q-1.314.144-2.628.3a1.953,1.953,0,0,0-.494.116.438.438,0,0,0-.285.49.427.427,0,0,0,.44.412,5.677,5.677,0,0,0,.714-.019c.375-.05.47.112.453.459-.024.509-.006,1.021,0,1.531" transform="translate(-56.414 -315.178)" fill="#eba325"/>
        <path id="Path_609724" data-name="Path 609724" d="M63.25,427.773a16.49,16.49,0,0,0,1.11,2.208,4.91,4.91,0,0,1,.247.551,1.516,1.516,0,0,0-.823,1.664,1.68,1.68,0,0,0,1.431,1.407,1.956,1.956,0,0,1,.345.088.639.639,0,0,1,.436.769c-.077.378-.39.368-.693.326-.319-.044-.636-.1-.956-.129a.5.5,0,0,0-.571.4.414.414,0,0,0,.281.534,3.96,3.96,0,0,0,1.852.171c.982-.226,1.312-1,.983-2.183a12.583,12.583,0,0,1,1.358,1.267,6.74,6.74,0,0,0,1.257,1,.668.668,0,0,0,.58.4,8.539,8.539,0,0,0,2.575,1.512,12.058,12.058,0,0,0,3.7,1.049c.1.011.141.08.162.169q-3.818.061-7.63-.148c-1.947-.1-3.888-.273-5.831-.427a3.524,3.524,0,0,0-.957-.1,15.958,15.958,0,0,0-2.016-.216,3.145,3.145,0,0,0-1.1-.177c-.347-.033-.45-.142-.445-.492.02-1.481.008-2.961.008-4.442,0-1.753.012-3.506-.009-5.258,0-.406.1-.53.511-.472,1.4.194,2.794.359,4.192.536" transform="translate(-43.189 -315.154)" fill="#ecae41"/>
        <path id="Path_609725" data-name="Path 609725" d="M66.22,477.352q.006,6.179.017,12.358c0,.284-.079.4-.375.384-.523-.036-1.189.206-1.534-.093-.329-.285-.1-.961-.1-1.463q-.005-5.694.012-11.388a19.19,19.19,0,0,0,1.983.2" transform="translate(-47.322 -351.984)" fill="#4d658e"/>
        <path id="Path_609726" data-name="Path 609726" d="M171.687,477.15q.008,5.8.012,11.592c0,.434.193.992-.1,1.271-.265.256-.812.07-1.234.074-.758.006-.676.089-.676-.683q0-6.026.012-12.052a19.031,19.031,0,0,0,1.983-.2" transform="translate(-125.177 -351.984)" fill="#4d658e"/>
        <path id="Path_609727" data-name="Path 609727" d="M171.66,470.79a19.024,19.024,0,0,1-1.983.2q-.012-1.116-.024-2.232a15.839,15.839,0,0,1,2.008-.232q0,1.13,0,2.262" transform="translate(-125.15 -345.623)" fill="#03386e"/>
        <path id="Path_609728" data-name="Path 609728" d="M66.439,471.044a19.148,19.148,0,0,1-1.983-.2q0-1.121-.01-2.241a15.851,15.851,0,0,1,2.016.216q-.012,1.114-.024,2.227" transform="translate(-47.54 -345.676)" fill="#03386e"/>
        <path id="Path_609729" data-name="Path 609729" d="M131.582,441.371a2.854,2.854,0,0,1,.91.039,1.638,1.638,0,0,1,.743,2.62c-.227.305-.278.506-.012.819a1.827,1.827,0,0,1,.371,1.195.5.5,0,0,1-.481.558.483.483,0,0,1-.522-.509,1.331,1.331,0,0,0-.755-1.183c-.434-.229-.577-.14-.584.346,0,.306.013.613-.01.917s-.185.548-.5.541a.5.5,0,0,1-.508-.576c.005-1.377.007-2.754,0-4.131a.576.576,0,0,1,.586-.631,6.679,6.679,0,0,1,.764-.006m-.321,1.676c.041.273-.2.711.424.67.6-.039.9-.243.9-.731.006-.443-.2-.577-.733-.627-.558-.052-.7.189-.593.688" transform="translate(-96.069 -325.577)" fill="url(#linear-gradient-2)"/>
        <path id="Path_609730" data-name="Path 609730" d="M116.1,444.906c0,.476,0,.951,0,1.427,0,.363-.052.719-.521.712s-.493-.377-.5-.732c0-.17,0-.34,0-.51-.008-.794.085-.675-.705-.724-.487-.03-.684.113-.622.613a6.8,6.8,0,0,1,0,.865.45.45,0,0,1-.374.478.471.471,0,0,1-.562-.328.628.628,0,0,1-.066-.244,25.493,25.493,0,0,1,.06-3.305,1.616,1.616,0,0,1,1.7-1.418,1.667,1.667,0,0,1,1.574,1.635c.024.509,0,1.019,0,1.529Zm-1.712-.834c.694,0,.694,0,.695-.458,0-.545-.224-.843-.644-.854s-.65.331-.685.884.343.406.634.427" transform="translate(-83.157 -325.863)" fill="url(#linear-gradient-2)"/>
        <path id="Path_609731" data-name="Path 609731" d="M81.523,442.652c.329,1.179,0,1.957-.983,2.183a3.96,3.96,0,0,1-1.852-.171.414.414,0,0,1-.281-.534.5.5,0,0,1,.571-.4c.32.026.637.086.956.129.3.042.615.052.693-.326a.638.638,0,0,0-.436-.769,1.949,1.949,0,0,0-.345-.088,1.68,1.68,0,0,1-1.432-1.406,1.517,1.517,0,0,1,.823-1.664,4.869,4.869,0,0,1,1.953.075c.327.039.5.22.463.541-.043.347-.3.471-.624.451s-.672-.066-1.007-.1a.382.382,0,0,0-.573.22.606.606,0,0,0,.292.778,2.715,2.715,0,0,0,1.1.275l0,0,.105.106,0,0,.107.116.472.592" transform="translate(-57.82 -324.229)" fill="url(#linear-gradient-2)"/>
        <path id="Path_609732" data-name="Path 609732" d="M96.541,446.193a.669.669,0,0,1-.58-.4c0-1.19-.015-2.381,0-3.57,0-.334-.1-.455-.435-.442a3.235,3.235,0,0,1-.706-.072.453.453,0,0,1-.407-.548.48.48,0,0,1,.536-.443c1.032.075,2.063.165,3.1.19a.488.488,0,0,1,.523.518c-.02.344-.239.48-.589.487-1.01.02-1.009.03-1.009,1.056,0,.833-.009,1.667,0,2.5a.665.665,0,0,1-.435.724" transform="translate(-69.642 -325.109)" fill="url(#linear-gradient-2)"/>
        <path id="Path_609733" data-name="Path 609733" d="M149.068,442.318c0-.51-.018-1.022.005-1.531.016-.347-.078-.509-.453-.459a5.673,5.673,0,0,1-.714.019.428.428,0,0,1-.441-.412.438.438,0,0,1,.285-.49,1.956,1.956,0,0,1,.494-.116q1.313-.157,2.628-.3c.345-.038.689,0,.742.418s-.229.546-.6.591c-.934.111-.933.12-.933,1.039,0,.851,0,1.7,0,2.553a1.914,1.914,0,0,1-.055.5.47.47,0,0,1-.567.391.459.459,0,0,1-.387-.519c0-.562,0-1.123,0-1.685" transform="translate(-108.778 -323.853)" fill="url(#linear-gradient-2)"/>
        <path id="Path_609734" data-name="Path 609734" d="M83.717,444.637a2.717,2.717,0,0,1-1.1-.274.606.606,0,0,1-.292-.778.381.381,0,0,1,.573-.22c.177.487.637.791.824,1.272" transform="translate(-60.692 -327.02)" fill="#d5b21e"/>
        <path id="Path_609735" data-name="Path 609735" d="M87.873,448.462l-.1-.106.1.106" transform="translate(-64.745 -330.743)" fill="#d5b21e"/>
        <path id="Path_609736" data-name="Path 609736" d="M88.26,448.86l-.108-.116.108.116" transform="translate(-65.028 -331.029)" fill="#d5b21e"/>
        <path id="Path_609737" data-name="Path 609737" d="M134.069,445.857c-.1-.5.035-.74.593-.688.533.05.739.184.733.627-.007.488-.3.692-.9.731-.62.041-.383-.4-.424-.67" transform="translate(-98.877 -328.386)" fill="#eba325"/>
        <path id="Path_609738" data-name="Path 609738" d="M117.253,446.942c-.291-.021-.67.131-.634-.428s.266-.895.685-.884.645.309.644.854c0,.459,0,.459-.695.458" transform="translate(-86.025 -328.732)" fill="#eba325"/>
        <path id="Path_609739" data-name="Path 609739" d="M513.18,359.989a19.5,19.5,0,0,1-1.422,4.06,25.756,25.756,0,0,1-2.847,5.023,21.332,21.332,0,0,1-3.58,3.86,2.4,2.4,0,0,0-.258.3c-.138.1-.281.186-.413.29a26.8,26.8,0,0,1-7.087,3.98l-5.132-5.1-.135-.212c.216,0,.334-.161.467-.294q2.639-2.638,5.277-5.278c.132-.132.3-.244.3-.462l.209.131a4.455,4.455,0,0,0,6.294-6.3.459.459,0,0,0-.007-.1c1.217-1.368,2.567-2.606,3.854-3.9.072-.072.2-.084.308-.124l4.17,4.128" transform="translate(-363.164 -262.511)" fill="#cce9fa"/>
        <path id="Path_609740" data-name="Path 609740" d="M483.959,353.981c0,.218-.17.33-.3.462q-2.637,2.641-5.277,5.278c-.133.133-.25.293-.467.294-.152-.138-.31-.272-.456-.417q-2.333-2.314-4.662-4.632a26.681,26.681,0,0,1,4-7.123c.11-.14.305-.252.211-.484a.678.678,0,0,0,.5-.344,18.161,18.161,0,0,1,2.6-2.524,22.83,22.83,0,0,1,4.846-3.132,21.911,21.911,0,0,1,5.342-2c.418.408.833.817,1.253,1.222,1,.965,1.924,2.012,2.985,2.917l.094.192c-.1.04-.236.052-.308.124-1.287,1.3-2.636,2.537-3.854,3.9-.164-.125-.329-.25-.492-.376a4.494,4.494,0,0,0-6,6.644" transform="translate(-348.772 -250.334)" fill="#e0eff9"/>
        <path id="Path_609741" data-name="Path 609741" d="M507.794,426.345a26.81,26.81,0,0,0,7.087-3.98c.132-.1.275-.194.413-.29a11.774,11.774,0,0,1-2.632,9.175,16.443,16.443,0,0,1-4.015,3.664c-1.108.728-1.942.36-2.049-.946-.131-1.606-.2-3.217-.3-4.826a4.554,4.554,0,0,0-.139-1.126l1.632-1.672" transform="translate(-373.385 -311.356)" fill="#fe1a3e"/>
        <path id="Path_609742" data-name="Path 609742" d="M451.848,369.779c.094.232-.1.345-.211.484a26.67,26.67,0,0,0-4,7.123l-1.625,1.548c-2.025-.128-4.049-.262-6.075-.381-1.041-.061-1.578-.924-1.026-1.777,2.353-3.635,5.446-6.243,9.866-6.943a20.177,20.177,0,0,1,3.069-.055" transform="translate(-323.614 -272.755)" fill="#fe5c5c"/>
        <path id="Path_609743" data-name="Path 609743" d="M460.93,400.42l1.625-1.548q2.33,2.317,4.662,4.632c.146.145.3.278.456.417l.135.212c-1.43,1.273-2.794,2.612-4.111,4a.559.559,0,0,1-.093,0c-1.136-1.217-2.321-2.385-3.525-3.534-.26-.271-.526-.538-.78-.816a1.123,1.123,0,0,1,.014-1.706c.532-.561,1.078-1.108,1.618-1.66" transform="translate(-338.53 -294.24)" fill="#03386e"/>
        <path id="Path_609744" data-name="Path 609744" d="M477.146,422.93c1.317-1.388,2.681-2.728,4.111-4l5.132,5.1-1.632,1.671c-.509.5-1.016,1.009-1.53,1.507a1.158,1.158,0,0,1-1.864.013c-.257-.248-.511-.5-.767-.747-.128-.139-.251-.283-.383-.418q-1.533-1.563-3.069-3.122" transform="translate(-351.981 -309.036)" fill="#011135"/>
        <path id="Path_609745" data-name="Path 609745" d="M457.242,434.18q1.535,1.561,3.069,3.122c.132.135.256.278.383.418a12.926,12.926,0,0,1-6.321,3.4,15.723,15.723,0,0,1-3.249.5,1.225,1.225,0,0,1-.96-.255c.162-.5.61-.755.947-1.1,2-2.037,4.023-4.057,6.038-6.083a.522.522,0,0,0,.093,0" transform="translate(-332.077 -320.285)" fill="#fcbf02"/>
        <path id="Path_609746" data-name="Path 609746" d="M456.068,424.249c-2.014,2.026-4.034,4.046-6.038,6.083-.337.343-.785.6-.947,1.1a1.564,1.564,0,0,1-.359-1.458,16.257,16.257,0,0,1,1.935-6.7,15.284,15.284,0,0,1,1.884-2.553c1.2,1.15,2.389,2.317,3.525,3.534" transform="translate(-330.996 -310.353)" fill="#fef161"/>
        <path id="Path_609747" data-name="Path 609747" d="M555.722,340.126l-.094-.191a.906.906,0,0,0,.4-.308q2.128-2.128,4.252-4.261a3.531,3.531,0,0,0,.757-.835.669.669,0,0,1,.339.662,22.166,22.166,0,0,1-.356,4.406,33.367,33.367,0,0,1-1.006,4.412,1.689,1.689,0,0,1-.12.243l-4.17-4.128" transform="translate(-409.875 -246.776)" fill="#fe1b3f"/>
        <path id="Path_609748" data-name="Path 609748" d="M549.117,333.654a3.544,3.544,0,0,1-.757.835q-2.118,2.138-4.252,4.261a.9.9,0,0,1-.4.308c-1.061-.9-1.983-1.951-2.985-2.916-.42-.4-.836-.815-1.253-1.222a7.908,7.908,0,0,1,2.043-.612,35.837,35.837,0,0,1,6.618-.958,1.044,1.044,0,0,1,.983.3" transform="translate(-397.958 -245.9)" fill="#fe5c5c"/>
        <path id="Path_609749" data-name="Path 609749" d="M522.445,371.583a4.455,4.455,0,0,1-6.294,6.3c.317-.666,1.013-1.009,1.389-1.625.128.077.26.148.384.233a2.251,2.251,0,0,0,2.782-.155c.927-.813.982-2.03.149-3.272a7.945,7.945,0,0,1,1.589-1.485" transform="translate(-380.754 -274.109)" fill="#021337"/>
        <path id="Path_609750" data-name="Path 609750" d="M513.518,372.311c-.376.616-1.072.959-1.389,1.625l-.21-.131a4.494,4.494,0,0,1,6-6.644l.492.376a.455.455,0,0,1,.007.1,7.944,7.944,0,0,0-1.589,1.485l-.108-.022a2.188,2.188,0,0,0-3.062-.046,2.224,2.224,0,0,0-.137,3.149c0,.038,0,.075-.009.113" transform="translate(-376.732 -270.158)" fill="#03386e"/>
        <path id="Path_609751" data-name="Path 609751" d="M521.447,380.378c0-.038.007-.075.009-.113a.747.747,0,0,0,.254-.108c.983-1,2.024-1.937,2.945-3l.108.022c.833,1.242.777,2.459-.15,3.272a2.251,2.251,0,0,1-2.782.154c-.123-.084-.255-.155-.384-.233" transform="translate(-384.661 -278.225)" fill="#1cabb3"/>
        <path id="Path_609752" data-name="Path 609752" d="M523.034,375.34c-.921,1.058-1.962,2-2.945,3a.749.749,0,0,1-.254.108,2.225,2.225,0,0,1,.137-3.149,2.188,2.188,0,0,1,3.062.046" transform="translate(-383.04 -276.402)" fill="#07c9a9"/>
        <path id="Path_609753" data-name="Path 609753" d="M812.348,277.583a4.3,4.3,0,0,1-1.748-1.978,5.714,5.714,0,0,1,.007-1.876,3.5,3.5,0,0,1,1.847-2.005,1.211,1.211,0,0,1,.5-.148,2.685,2.685,0,0,1,1.513,0,3.051,3.051,0,0,1,2.14,1.735l.21.419a5.7,5.7,0,0,1,.007,1.875,4.3,4.3,0,0,1-1.747,1.978,4.355,4.355,0,0,1-2.732,0m2.546-2.895a1.182,1.182,0,1,0-1.192,1.171,1.183,1.183,0,0,0,1.192-1.171" transform="translate(-597.908 -200.255)" fill="#fedf7e"/>
        <path id="Path_609754" data-name="Path 609754" d="M808.042,370.65c.41,0,.821-.012,1.231,0a1.574,1.574,0,0,1,1.543,1.586c0,.361-.131.456-.47.45-1.052-.016-2.1-.006-3.158-.006-2.961,0-5.923-.008-8.884.009-.437,0-.6-.109-.573-.565a1.573,1.573,0,0,1,1.542-1.475c.41-.015.821,0,1.231,0h7.536" transform="translate(-588.468 -273.418)" fill="#efdf9a"/>
        <path id="Path_609755" data-name="Path 609755" d="M815.85,351.067h-7.536a6.427,6.427,0,0,1,.426-1.4c.766,0,1.535-.031,2.3.024a1.543,1.543,0,0,0,1.49-1.928c-.28-1.228-.764-2.4-.983-3.647l1.939-.013c.316-.009.435.206.507.458q.933,3.254,1.86,6.509" transform="translate(-596.276 -253.835)" fill="#fecf64"/>
        <path id="Path_609756" data-name="Path 609756" d="M820.148,319.766l-1.939.013-.854-.009q0-4.328-.007-8.656h2.8q0,4.327,0,8.653" transform="translate(-602.941 -229.501)" fill="#cc894c"/>
        <path id="Path_609757" data-name="Path 609757" d="M768.773,320.882a.442.442,0,0,1,.452.427,4.394,4.394,0,0,1-2.5,4.228,4.162,4.162,0,0,1-4.9-1.017c.213,0,.428.013.639,0a4.042,4.042,0,0,0,2.381-.923c.2-.176.486-.389-.076-.483a.486.486,0,0,1,.136-.947,2.667,2.667,0,0,1,.372,0c.626.123.921-.18,1.007-.763.023-.157.036-.315.054-.473l1.294-.05,1.14,0" transform="translate(-561.982 -236.706)" fill="#fecf64"/>
        <path id="Path_609758" data-name="Path 609758" d="M866.744,320.883c.248.034.419.112.449.419a4.343,4.343,0,0,1-2.491,4.235,4.261,4.261,0,0,1-4.819-.884.839.839,0,0,1-.085-.133c.25,0,.5.015.748,0a3.794,3.794,0,0,0,2.389-1.047c.136-.129.293-.309-.066-.334a.453.453,0,0,1-.469-.526c.024-.334.259-.449.6-.453,1.052-.01,1.052-.023,1.336-1.029.019-.068.047-.134.071-.2l1.2-.044Z" transform="translate(-634.255 -236.709)" fill="#fecf64"/>
        <path id="Path_609759" data-name="Path 609759" d="M864.775,296.776H863.64l-2.623-6.651-.153.02-2.619,6.629-1.116-.012,3.394-8.558.834,0,3.418,8.573" transform="translate(-632.285 -212.601)" fill="#cc894c"/>
        <path id="Path_609760" data-name="Path 609760" d="M766.75,296.779l-1.14,0-2.626-6.65-.15.018-2.623,6.632h-1.129L762.5,288.2h.834l3.416,8.572" transform="translate(-559.96 -212.603)" fill="#cc894c"/>
        <path id="Path_609761" data-name="Path 609761" d="M785.86,280.09a5.723,5.723,0,0,0-.007,1.876l-8.869,0a1.55,1.55,0,0,0-.006-1.88h8.882" transform="translate(-573.16 -206.617)" fill="#cc894c"/>
        <path id="Path_609762" data-name="Path 609762" d="M834.529,281.966a5.708,5.708,0,0,0-.007-1.876H843.4a1.551,1.551,0,0,0-.006,1.881l-8.869,0" transform="translate(-615.609 -206.617)" fill="#cc894c"/>
        <path id="Path_609763" data-name="Path 609763" d="M855.816,320.834l1.116.012,4.195.045c-.024.067-.051.133-.071.2-.284,1.006-.284,1.019-1.336,1.029-.343,0-.578.119-.6.453a.453.453,0,0,0,.469.526c.358.025.2.206.065.334a3.793,3.793,0,0,1-2.389,1.047c-.248.018-.5,0-.748,0a4.072,4.072,0,0,1-1.163-3.229c.01-.286.217-.381.463-.421" transform="translate(-630.973 -236.673)" fill="#fedf7e"/>
        <path id="Path_609764" data-name="Path 609764" d="M757.827,320.879h1.129l4.1.05c-.018.157-.031.316-.054.472-.085.583-.381.886-1.007.763a2.622,2.622,0,0,0-.372,0,.431.431,0,0,0-.466.416.427.427,0,0,0,.33.53c.561.095.279.308.076.483a4.041,4.041,0,0,1-2.382.923c-.211.018-.426,0-.639,0a4.037,4.037,0,0,1-1.16-3.274c.012-.282.227-.323.44-.366" transform="translate(-558.704 -236.706)" fill="#fedf7e"/>
        <path id="Path_609765" data-name="Path 609765" d="M811.888,344.112l.854.009c.219,1.245.7,2.418.983,3.646a1.543,1.543,0,0,1-1.49,1.928c-.763-.055-1.532-.019-2.3-.024.483-1.715.961-3.431,1.453-5.143a.538.538,0,0,1,.5-.417" transform="translate(-597.474 -253.844)" fill="#fedf7e"/>
        <path id="Path_609766" data-name="Path 609766" d="M818.155,252.449a1.454,1.454,0,0,1-.932-1.878,7.836,7.836,0,0,1,1.036-2.32c.23-.35.454-.351.683,0a7.656,7.656,0,0,1,1.119,2.683,1.485,1.485,0,0,1-1.016,1.515h-.889" transform="translate(-602.794 -182.935)" fill="#fedf7e"/>
        <path id="Path_609767" data-name="Path 609767" d="M815.327,264.993h.889c.369.195.764.063,1.145.088a.809.809,0,1,1,.039,1.616c-.291.03-.6-.109-.872.1a2.684,2.684,0,0,0-1.512,0c-.231-.205-.51-.087-.765-.1-.564-.032-.935-.338-.935-.809s.371-.783.92-.81a2.382,2.382,0,0,0,1.091-.087" transform="translate(-599.966 -195.48)" fill="#feefae"/>
        <path id="Path_609768" data-name="Path 609768" d="M817.184,306.553h-2.8c-.675-.008-1.035-.274-1.052-.779s.365-.813,1.064-.839h2.774a.9.9,0,0,1,1.024.578.784.784,0,0,1-.259.863.954.954,0,0,1-.752.177" transform="translate(-599.979 -224.942)" fill="#fedf7e"/>
        <path id="Path_609769" data-name="Path 609769" d="M820.164,297.448H817.39q.011-1.333.022-2.665a4.359,4.359,0,0,0,2.732,0l.021,2.665" transform="translate(-602.972 -217.455)" fill="#cc894c"/>
        <path id="Path_609770" data-name="Path 609770" d="M771.163,279.38a1.55,1.55,0,0,1,.006,1.88.791.791,0,0,0-.449.25h-.834c-.829-.659-1.005-1.3-.534-1.94.385-.52.93-.577,1.81-.189" transform="translate(-567.346 -205.906)" fill="#fedf7e"/>
        <path id="Path_609771" data-name="Path 609771" d="M867.474,281.261a1.55,1.55,0,0,1,.006-1.88c.879-.388,1.426-.331,1.81.188.472.639.3,1.281-.533,1.94l-.834,0a.793.793,0,0,0-.448-.249" transform="translate(-639.685 -205.907)" fill="#fedf7e"/>
        <path id="Path_609772" data-name="Path 609772" d="M820.54,280.211a1.182,1.182,0,1,1-2.361-.076,1.182,1.182,0,1,1,2.361.076" transform="translate(-603.553 -205.778)" fill="#768d94"/>
        <path id="Path_609773" data-name="Path 609773" d="M1031.557,425.909q-.012,7.485-.023,14.971c0,1.146,0,1.15-1.182,1.146-1.881-.007-1.62.173-1.621-1.6q-.008-17.01,0-34.021c0-1.012.492-1.608,1.333-1.635.881-.029,1.425.56,1.472,1.594,0,.093.015.186.023.28q0,3.226,0,6.451v6.382q0,2.306,0,4.612Z" transform="translate(-758.864 -298.592)" fill="#fea91c"/>
        <path id="Path_609774" data-name="Path 609774" d="M1094.573,411.91h4.788q-.007,3.221-.014,6.442l.017.041c-1.382-.005-2.764,0-4.145-.025-.415-.008-.574.09-.568.54.025,1.757.022,3.514,0,5.271,0,.426.12.567.554.558,1.381-.028,2.764-.016,4.146-.02l-.005.058c0,.791.017,1.583.008,2.373a2.056,2.056,0,0,1-2.262,2.22,22.008,22.008,0,0,0-2.442-.024h-.065c.01-1.308-.009-2.618.044-3.925.023-.576-.18-.7-.714-.69-1.892.021-3.785-.007-5.678-.017l.013-6.34-.012.012q2.882-.011,5.763-.025c.288,0,.626.1.619-.41-.027-2.014-.034-4.028-.048-6.042" transform="translate(-802.771 -303.857)" fill="#f0f1f1"/>
        <path id="Path_609775" data-name="Path 609775" d="M1063.566,411.919l6.5,0q-.011,3.235-.022,6.47l.012-.012h-6.483l.012.012q-.007-3.237-.014-6.474" transform="translate(-784.571 -303.864)" fill="#f0f1f1"/>
        <path id="Path_609776" data-name="Path 609776" d="M1045.84,411.918q.007,3.237.014,6.474l-6.318-.023q0-3.226,0-6.451h6.3" transform="translate(-766.844 -303.863)" fill="#595a5c"/>
        <path id="Path_609777" data-name="Path 609777" d="M1088.243,418.386q.011-3.235.022-6.47l6.311-.006c.014,2.014.021,4.028.048,6.041.007.507-.331.409-.619.41q-2.882.016-5.763.025" transform="translate(-802.774 -303.857)" fill="#595a5c"/>
        <path id="Path_609778" data-name="Path 609778" d="M1112.469,465.349a22.006,22.006,0,0,1,2.442.024,2.056,2.056,0,0,0,2.263-2.22c.009-.791,0-1.583-.008-2.374l1.7-.063c0,1.516.007,3.032,0,4.548a1.808,1.808,0,0,1-1.925,1.921c-1.516.006-3.032,0-4.548,0a7.329,7.329,0,0,0,.077-1.835" transform="translate(-820.588 -339.861)" fill="#e1e2e3"/>
        <path id="Path_609779" data-name="Path 609779" d="M1070.049,480.2l-6.509,0a8.511,8.511,0,0,0,0-1.825.242.242,0,0,0,.074.015l6.379,0,.057-.014q0,.912,0,1.823" transform="translate(-784.551 -352.889)" fill="#e1e2e3"/>
        <path id="Path_609780" data-name="Path 609780" d="M1045.836,478.387a8.51,8.51,0,0,1,0,1.825h-6.3q0-.909,0-1.818l6.3-.008" transform="translate(-766.845 -352.896)" fill="#434244"/>
        <path id="Path_609781" data-name="Path 609781" d="M1088.354,480.2q0-.912,0-1.823h6.38a7.373,7.373,0,0,1-.077,1.835l-6.306-.011" transform="translate(-802.856 -352.887)" fill="#434244"/>
        <path id="Path_609782" data-name="Path 609782" d="M1132.287,442.831l-1.7.064.005-.058q.006-3.162.012-6.324l-.018-.041,1.692.041q0,3.159.008,6.318" transform="translate(-834.01 -321.976)" fill="#434244"/>
        <path id="Path_609783" data-name="Path 609783" d="M1132.279,418.4l-1.692-.041q.007-3.221.014-6.442a2.071,2.071,0,0,1,1.684,2.289q0,2.1-.005,4.194" transform="translate(-834.01 -303.861)" fill="#e1e2e3"/>
        <path id="Path_609784" data-name="Path 609784" d="M1039.536,436.511l6.317.023-.012-.012q.005,3.171.011,6.342l-6.317.028q0-3.191,0-6.382" transform="translate(-766.844 -322.005)" fill="#f0f1f1"/>
        <path id="Path_609785" data-name="Path 609785" d="M1039.536,460.721l6.316-.028-.011-.013q.034,2.33.068,4.66a.241.241,0,0,1-.074-.015l-6.3.008q0-2.306,0-4.612" transform="translate(-766.844 -339.833)" fill="#595a5c"/>
        <path id="Path_609786" data-name="Path 609786" d="M1063.584,442.894q-.005-3.171-.011-6.342h6.484q-.007,3.17-.013,6.34l.013-.011h-6.484Z" transform="translate(-784.576 -322.035)" fill="#595a5c"/>
        <path id="Path_609787" data-name="Path 609787" d="M1117.4,436.557l-.012,6.324c-1.382,0-2.764-.008-4.146.02-.434.009-.559-.132-.554-.558.02-1.757.023-3.515,0-5.271-.006-.45.152-.548.568-.54,1.382.028,2.764.019,4.146.025" transform="translate(-820.806 -322.021)" fill="#595a5c"/>
        <path id="Path_609788" data-name="Path 609788" d="M1094.519,465.321H1088.2l-.057.014q.019-2.329.037-4.657l-.013.011c1.893.009,3.786.038,5.678.017.533-.006.736.114.713.69-.052,1.307-.034,2.616-.044,3.925" transform="translate(-802.703 -339.833)" fill="#595a5c"/>
        <path id="Path_609789" data-name="Path 609789" d="M1070.056,460.679q-.018,2.329-.037,4.657l-6.379,0q-.034-2.33-.068-4.66h6.484" transform="translate(-784.575 -339.833)" fill="#f0f1f1"/>
        <path id="Path_609790" data-name="Path 609790" d="M18.829,293.61s43.8-.158,74.343-29.411,65.9-59.258,106.089-68.1,71.8,2.846,117.341,43.484" transform="translate(-13.89 -142.611)" fill="none" stroke="#ad1c1c" stroke-linecap="round" stroke-miterlimit="10" stroke-width="5"/>
        <path id="Path_609791" data-name="Path 609791" d="M322.173,168.79H14.354V22.333" transform="translate(-10.589 -16.474)" fill="none" stroke="#18b8c4" stroke-linecap="round" stroke-width="5"/>
        <line id="Line_887" data-name="Line 887" y1="1.049" transform="translate(90.164 149.769)" fill="none" stroke="#18b8c4" stroke-linecap="round" stroke-width="5"/>
        <line id="Line_888" data-name="Line 888" y1="138.198" transform="translate(90.164 9.46)" fill="none" stroke="#18b8c4" stroke-linecap="round" stroke-width="3" stroke-dasharray="8.043 8.043"/>
        <line id="Line_889" data-name="Line 889" y1="1.049" transform="translate(90.164 7.356)" fill="none" stroke="#18b8c4" stroke-linecap="round" stroke-width="5"/>
        <line id="Line_890" data-name="Line 890" y1="1.049" transform="translate(172.281 149.769)" fill="none" stroke="#18b8c4" stroke-linecap="round" stroke-width="5"/>
        <line id="Line_891" data-name="Line 891" y1="138.198" transform="translate(172.281 9.46)" fill="none" stroke="#18b8c4" stroke-linecap="round" stroke-width="3" stroke-dasharray="8.043 8.043"/>
        <line id="Line_892" data-name="Line 892" y1="1.049" transform="translate(172.281 7.356)" fill="none" stroke="#18b8c4" stroke-linecap="round" stroke-width="5"/>
        <line id="Line_893" data-name="Line 893" y1="1.049" transform="translate(251.405 149.769)" fill="none" stroke="#18b8c4" stroke-linecap="round" stroke-width="5"/>
        <line id="Line_894" data-name="Line 894" y1="138.198" transform="translate(251.405 9.46)" fill="none" stroke="#18b8c4" stroke-linecap="round" stroke-width="3" stroke-dasharray="8.043 8.043"/>
        <line id="Line_895" data-name="Line 895" y1="1.049" transform="translate(251.405 7.356)" fill="none" stroke="#18b8c4" stroke-linecap="round" stroke-width="5"/>
      </g>
    </g>
    <path id="Path_716606" data-name="Path 716606" d="M9.977,11.906l2.266-8.281H15.3L11.477,15h-3L4.68,3.625H7.719Zm13.211-1.734H18.875v2.719h5.094V15H16.133V3.625h7.852V5.742H18.875v2.4h4.313ZM34.586,15H31.859L27.828,7.922V15H25.086V3.625h2.742L31.852,10.7V3.625h2.734ZM45.023,5.742H41.609V15H38.867V5.742H35.516V3.625h9.508Zm6.68,7.133H47.945L47.289,15h-2.93L48.531,3.625h2.578L55.313,15H52.367Zm-3.1-2.117h2.445L49.82,6.813Zm13.406,1.219a1.127,1.127,0,0,0-.426-.937,5.292,5.292,0,0,0-1.5-.7,14.353,14.353,0,0,1-1.75-.7,3.314,3.314,0,0,1-2.211-2.984A2.676,2.676,0,0,1,56.676,5a3.562,3.562,0,0,1,1.559-1.125,6.065,6.065,0,0,1,2.266-.4,5.305,5.305,0,0,1,2.2.438,3.482,3.482,0,0,1,1.512,1.246A3.254,3.254,0,0,1,64.75,7H62.016a1.375,1.375,0,0,0-.426-1.078,1.66,1.66,0,0,0-1.152-.383,1.872,1.872,0,0,0-1.16.324A.955.955,0,0,0,59.32,7.48a5.911,5.911,0,0,0,1.648.734,10.1,10.1,0,0,1,1.938.816,3.256,3.256,0,0,1,1.844,2.93A2.778,2.778,0,0,1,63.625,14.3a5,5,0,0,1-3.086.852,6.122,6.122,0,0,1-2.5-.5A3.775,3.775,0,0,1,56.348,13.3a3.542,3.542,0,0,1-.566-1.988h2.75A1.744,1.744,0,0,0,59,12.66a2.234,2.234,0,0,0,1.535.434,1.765,1.765,0,0,0,1.074-.293A.967.967,0,0,0,62.008,11.977Z" transform="translate(-8842 -705.949)" fill="#12263f"/>
    <path id="Path_716607" data-name="Path 716607" d="M48.838,5.742H45.423V15H42.681V5.742H39.33V3.625h9.508ZM52.916,15H50.181V3.625h2.734Zm8.961-4.828H57.564v2.719h5.094V15H54.822V3.625h7.852V5.742H57.564v2.4h4.313Zm5.5-6.547,2.539,7.914,2.531-7.914h3.609V15h-2.75V12.344l.266-5.437L70.822,15H69.009L66.252,6.9l.266,5.445V15H63.775V3.625Zm13.164,7.516V15H77.8V3.625h4.539a5.287,5.287,0,0,1,2.309.48A3.621,3.621,0,0,1,86.2,5.473a3.734,3.734,0,0,1,.551,2.012,3.291,3.291,0,0,1-1.191,2.66,4.943,4.943,0,0,1-3.27,1Zm0-2.117h1.8a1.7,1.7,0,0,0,1.215-.4A1.48,1.48,0,0,0,83.97,7.5a1.83,1.83,0,0,0-.43-1.273,1.522,1.522,0,0,0-1.172-.484H80.541Zm17.3.523a6.708,6.708,0,0,1-.617,2.945,4.561,4.561,0,0,1-1.754,1.973,4.884,4.884,0,0,1-2.59.691,4.953,4.953,0,0,1-2.578-.668,4.554,4.554,0,0,1-1.754-1.91,6.515,6.515,0,0,1-.66-2.852V9.086a6.738,6.738,0,0,1,.613-2.949,4.55,4.55,0,0,1,1.758-1.973,5.2,5.2,0,0,1,5.184-.008,4.632,4.632,0,0,1,1.762,1.957,6.544,6.544,0,0,1,.637,2.91ZM95.056,9.07A4.783,4.783,0,0,0,94.49,6.5a1.817,1.817,0,0,0-1.621-.879q-2.062,0-2.18,3.094l-.008.836a4.92,4.92,0,0,0,.555,2.57,1.814,1.814,0,0,0,1.648.9,1.792,1.792,0,0,0,1.6-.883,4.785,4.785,0,0,0,.57-2.539Z" transform="translate(-8673.977 -592.271)" fill="#12263f"/>
    <path id="Path_716608" data-name="Path 716608" d="M14.867,15H12.132V3.625h2.734Zm11.406,0H23.546L19.515,7.922V15H16.773V3.625h2.742L23.538,10.7V3.625h2.734ZM36.71,5.742H33.3V15H30.554V5.742H27.2V3.625H36.71Zm5.383,5.234H40.609V15H37.867V3.625h4.477a5,5,0,0,1,3.164.9,3.041,3.041,0,0,1,1.141,2.536,3.693,3.693,0,0,1-.48,1.967,3.41,3.41,0,0,1-1.5,1.264l2.375,4.593V15H44.1ZM40.609,8.867h1.734a1.557,1.557,0,0,0,1.176-.411,1.59,1.59,0,0,0,.395-1.147,1.608,1.608,0,0,0-.4-1.155,1.542,1.542,0,0,0-1.172-.419H40.609Zm17.328.68a6.708,6.708,0,0,1-.617,2.945,4.561,4.561,0,0,1-1.754,1.973,4.884,4.884,0,0,1-2.59.691,4.953,4.953,0,0,1-2.578-.668,4.554,4.554,0,0,1-1.754-1.91,6.515,6.515,0,0,1-.66-2.852V9.086A6.737,6.737,0,0,1,48.6,6.137a4.55,4.55,0,0,1,1.758-1.973,5.2,5.2,0,0,1,5.184-.008A4.632,4.632,0,0,1,57.3,6.113a6.544,6.544,0,0,1,.637,2.91ZM55.148,9.07A4.783,4.783,0,0,0,54.581,6.5a1.817,1.817,0,0,0-1.621-.879q-2.062,0-2.18,3.094l-.008.836a4.92,4.92,0,0,0,.555,2.57,1.814,1.814,0,0,0,1.648.9,1.792,1.792,0,0,0,1.6-.883,4.785,4.785,0,0,0,.57-2.539Zm4.2,5.93V3.625h3.664a5.39,5.39,0,0,1,2.711.684A4.805,4.805,0,0,1,67.6,6.238a5.826,5.826,0,0,1,.684,2.793v.523a5.86,5.86,0,0,1-.66,2.8,4.826,4.826,0,0,1-1.859,1.938A5.271,5.271,0,0,1,63.093,15Zm2.742-9.258v7.148h.953a2.133,2.133,0,0,0,1.813-.84,4.116,4.116,0,0,0,.633-2.5V9.063a4.082,4.082,0,0,0-.633-2.484,2.17,2.17,0,0,0-1.844-.836ZM78.617,3.625V11.07a4.279,4.279,0,0,1-.539,2.191,3.492,3.492,0,0,1-1.547,1.41,5.449,5.449,0,0,1-2.383.484,4.708,4.708,0,0,1-3.273-1.078,3.845,3.845,0,0,1-1.219-2.953v-7.5h2.758V11.18q.047,1.867,1.734,1.867a1.679,1.679,0,0,0,1.289-.469,2.191,2.191,0,0,0,.438-1.523V3.625Zm10.914,7.523a4.154,4.154,0,0,1-.641,2.1,3.866,3.866,0,0,1-1.645,1.41,5.6,5.6,0,0,1-2.418.5A4.467,4.467,0,0,1,81.3,13.7,6.032,6.032,0,0,1,80.007,9.57V9.008a6.885,6.885,0,0,1,.582-2.926,4.41,4.41,0,0,1,1.676-1.937A4.676,4.676,0,0,1,84.8,3.461a4.9,4.9,0,0,1,3.328,1.09,4.306,4.306,0,0,1,1.43,3H86.82A2.037,2.037,0,0,0,86.3,6.063a2.153,2.153,0,0,0-1.5-.453,1.638,1.638,0,0,0-1.5.766,4.921,4.921,0,0,0-.5,2.445v.8a5.445,5.445,0,0,0,.457,2.6,1.672,1.672,0,0,0,1.574.781,2.106,2.106,0,0,0,1.445-.445,1.89,1.89,0,0,0,.531-1.414Zm10.5,0a4.154,4.154,0,0,1-.641,2.1,3.866,3.866,0,0,1-1.645,1.41,5.6,5.6,0,0,1-2.418.5A4.467,4.467,0,0,1,91.8,13.7,6.032,6.032,0,0,1,90.507,9.57V9.008a6.885,6.885,0,0,1,.582-2.926,4.41,4.41,0,0,1,1.676-1.937A4.676,4.676,0,0,1,95.3,3.461a4.9,4.9,0,0,1,3.328,1.09,4.306,4.306,0,0,1,1.43,3H97.32A2.037,2.037,0,0,0,96.8,6.063a2.153,2.153,0,0,0-1.5-.453,1.638,1.638,0,0,0-1.5.766,4.921,4.921,0,0,0-.5,2.445v.8a5.445,5.445,0,0,0,.457,2.6,1.672,1.672,0,0,0,1.574.781,2.106,2.106,0,0,0,1.445-.445,1.89,1.89,0,0,0,.531-1.414ZM104.249,15h-2.734V3.625h2.734Zm11.539-5.453a6.708,6.708,0,0,1-.617,2.945,4.561,4.561,0,0,1-1.754,1.973,4.884,4.884,0,0,1-2.59.691,4.953,4.953,0,0,1-2.578-.668,4.554,4.554,0,0,1-1.754-1.91,6.515,6.515,0,0,1-.66-2.852V9.086a6.738,6.738,0,0,1,.613-2.949,4.55,4.55,0,0,1,1.758-1.973,5.2,5.2,0,0,1,5.184-.008,4.632,4.632,0,0,1,1.762,1.957,6.544,6.544,0,0,1,.637,2.91ZM113,9.07a4.783,4.783,0,0,0-.566-2.574,1.817,1.817,0,0,0-1.621-.879q-2.062,0-2.18,3.094l-.008.836a4.92,4.92,0,0,0,.555,2.57,1.814,1.814,0,0,0,1.648.9,1.792,1.792,0,0,0,1.6-.883A4.785,4.785,0,0,0,113,9.594ZM111.132.578h2.781l-2.172,2.453-2.148,0ZM126.7,15h-2.727l-4.031-7.078V15H117.2V3.625h2.742l4.023,7.078V3.625H126.7Z" transform="translate(-8798.363 -874.839)" fill="#12263f"/>
    <path id="Path_716609" data-name="Path 716609" d="M10.421,11.148a4.154,4.154,0,0,1-.641,2.1,3.866,3.866,0,0,1-1.645,1.41,5.6,5.6,0,0,1-2.418.5A4.467,4.467,0,0,1,2.187,13.7,6.032,6.032,0,0,1,.9,9.57V9.008A6.885,6.885,0,0,1,1.48,6.082,4.41,4.41,0,0,1,3.156,4.145a4.676,4.676,0,0,1,2.531-.684,4.9,4.9,0,0,1,3.328,1.09,4.306,4.306,0,0,1,1.43,3H7.71a2.037,2.037,0,0,0-.523-1.492,2.153,2.153,0,0,0-1.5-.453,1.638,1.638,0,0,0-1.5.766,4.921,4.921,0,0,0-.5,2.445v.8a5.445,5.445,0,0,0,.457,2.6,1.672,1.672,0,0,0,1.574.781,2.106,2.106,0,0,0,1.445-.445,1.89,1.89,0,0,0,.531-1.414Zm5.523-.172H14.46V15H11.718V3.625h4.477a5,5,0,0,1,3.164.9A3.041,3.041,0,0,1,20.5,7.059a3.693,3.693,0,0,1-.48,1.967,3.41,3.41,0,0,1-1.5,1.264l2.375,4.593V15H17.952ZM14.46,8.867h1.734a1.557,1.557,0,0,0,1.176-.411,1.59,1.59,0,0,0,.395-1.147,1.608,1.608,0,0,0-.4-1.155,1.542,1.542,0,0,0-1.172-.419H14.46Zm14.75,1.3H24.9v2.719h5.094V15H22.156V3.625h7.852V5.742H24.9v2.4H29.21Zm11.1.977a4.154,4.154,0,0,1-.641,2.1,3.866,3.866,0,0,1-1.645,1.41,5.6,5.6,0,0,1-2.418.5A4.467,4.467,0,0,1,32.077,13.7,6.032,6.032,0,0,1,30.788,9.57V9.008a6.885,6.885,0,0,1,.582-2.926,4.41,4.41,0,0,1,1.676-1.937,4.676,4.676,0,0,1,2.531-.684,4.9,4.9,0,0,1,3.328,1.09,4.306,4.306,0,0,1,1.43,3H37.6a2.037,2.037,0,0,0-.523-1.492,2.153,2.153,0,0,0-1.5-.453,1.638,1.638,0,0,0-1.5.766,4.921,4.921,0,0,0-.5,2.445v.8a5.445,5.445,0,0,0,.457,2.6,1.672,1.672,0,0,0,1.574.781,2.106,2.106,0,0,0,1.445-.445,1.89,1.89,0,0,0,.531-1.414ZM44.531,15H41.8V3.625h2.734ZM50.038,3.625l2.539,7.914,2.531-7.914h3.609V15h-2.75V12.344l.266-5.437L53.484,15H51.671L48.913,6.9l.266,5.445V15H46.437V3.625ZM63.382,15H60.648V3.625h2.734Zm8.961-4.828H68.031v2.719h5.094V15H65.288V3.625H73.14V5.742H68.031v2.4h4.313ZM83.742,15H81.015L76.984,7.922V15H74.242V3.625h2.742L81.007,10.7V3.625h2.734ZM94.179,5.742H90.765V15H88.023V5.742H84.671V3.625h9.508Zm10.57,3.8a6.708,6.708,0,0,1-.617,2.945,4.561,4.561,0,0,1-1.754,1.973,4.884,4.884,0,0,1-2.59.691,4.953,4.953,0,0,1-2.578-.668,4.554,4.554,0,0,1-1.754-1.91,6.515,6.515,0,0,1-.66-2.852V9.086a6.738,6.738,0,0,1,.613-2.949,4.55,4.55,0,0,1,1.758-1.973,5.2,5.2,0,0,1,5.184-.008,4.632,4.632,0,0,1,1.762,1.957,6.544,6.544,0,0,1,.637,2.91ZM101.96,9.07a4.783,4.783,0,0,0-.566-2.574,1.817,1.817,0,0,0-1.621-.879q-2.062,0-2.18,3.094l-.008.836a4.92,4.92,0,0,0,.555,2.57,1.814,1.814,0,0,0,1.648.9,1.792,1.792,0,0,0,1.6-.883,4.785,4.785,0,0,0,.57-2.539Z" transform="translate(-8687.7 -829.839)" fill="#12263f"/>
    <path id="Path_716610" data-name="Path 716610" d="M12.322,3.625l2.539,7.914,2.531-7.914H21V15h-2.75V12.344l.266-5.437L15.767,15H13.955L11.2,6.9l.266,5.445V15H8.721V3.625Zm17.023,9.25H25.588L24.931,15H22L26.174,3.625h2.578L32.955,15H30.01Zm-3.1-2.117h2.445L27.463,6.813ZM33.783,15V3.625h3.664a5.39,5.39,0,0,1,2.711.684,4.805,4.805,0,0,1,1.879,1.93,5.826,5.826,0,0,1,.684,2.793v.523a5.86,5.86,0,0,1-.66,2.8A4.826,4.826,0,0,1,40.2,14.293,5.271,5.271,0,0,1,37.525,15Zm2.742-9.258v7.148h.953a2.133,2.133,0,0,0,1.813-.84,4.116,4.116,0,0,0,.633-2.5V9.063a4.082,4.082,0,0,0-.633-2.484,2.17,2.17,0,0,0-1.844-.836ZM53.049,3.625V11.07a4.279,4.279,0,0,1-.539,2.191,3.492,3.492,0,0,1-1.547,1.41,5.449,5.449,0,0,1-2.383.484,4.708,4.708,0,0,1-3.273-1.078,3.845,3.845,0,0,1-1.219-2.953v-7.5h2.758V11.18q.047,1.867,1.734,1.867a1.679,1.679,0,0,0,1.289-.469,2.191,2.191,0,0,0,.438-1.523V3.625Zm5.938,7.352H57.5V15H54.76V3.625h4.477a5,5,0,0,1,3.164.9,3.041,3.041,0,0,1,1.141,2.536,3.693,3.693,0,0,1-.48,1.967,3.41,3.41,0,0,1-1.5,1.264l2.375,4.593V15H60.994ZM57.5,8.867h1.734a1.557,1.557,0,0,0,1.176-.411,1.59,1.59,0,0,0,.395-1.147,1.608,1.608,0,0,0-.4-1.155,1.542,1.542,0,0,0-1.172-.419H57.5Zm14.75,1.3H67.939v2.719h5.094V15H65.2V3.625h7.852V5.742H67.939v2.4h4.313Zm4.977,2.719h5.438V15H73.806V13.555l5.422-7.812H73.775V3.625h8.836V5.031Z" transform="translate(-8600.707 -881.674)" fill="#12263f"/>
    <path id="Path_716611" data-name="Path 716611" d="M7.328,15V3.625h3.664a5.39,5.39,0,0,1,2.711.684,4.805,4.805,0,0,1,1.879,1.93,5.826,5.826,0,0,1,.684,2.793v.523a5.86,5.86,0,0,1-.66,2.8,4.826,4.826,0,0,1-1.859,1.938A5.271,5.271,0,0,1,11.07,15ZM10.07,5.742v7.148h.953a2.133,2.133,0,0,0,1.813-.84,4.116,4.116,0,0,0,.633-2.5V9.063a4.082,4.082,0,0,0-.633-2.484,2.17,2.17,0,0,0-1.844-.836Zm14.656,4.43H20.414v2.719h5.094V15H17.672V3.625h7.852V5.742H20.414v2.4h4.313Zm11.1.977a4.154,4.154,0,0,1-.641,2.1,3.866,3.866,0,0,1-1.645,1.41,5.6,5.6,0,0,1-2.418.5A4.467,4.467,0,0,1,27.594,13.7,6.032,6.032,0,0,1,26.3,9.57V9.008a6.885,6.885,0,0,1,.582-2.926,4.41,4.41,0,0,1,1.676-1.937,4.676,4.676,0,0,1,2.531-.684,4.9,4.9,0,0,1,3.328,1.09,4.306,4.306,0,0,1,1.43,3H33.117a2.037,2.037,0,0,0-.523-1.492,2.153,2.153,0,0,0-1.5-.453,1.638,1.638,0,0,0-1.5.766,4.921,4.921,0,0,0-.5,2.445v.8a5.445,5.445,0,0,0,.457,2.6,1.672,1.672,0,0,0,1.574.781,2.106,2.106,0,0,0,1.445-.445,1.89,1.89,0,0,0,.531-1.414Zm4.039,1.742h4.773V15H37.125V3.625h2.742ZM48.719,15H45.985V3.625h2.734Zm6.32-3.094L57.3,3.625h3.063L56.539,15h-3l-3.8-11.375h3.039ZM68.25,10.172H63.938v2.719h5.094V15H61.2V3.625h7.852V5.742H63.938v2.4H68.25Z" transform="translate(-8517.758 -829.839)" fill="#12263f"/>
    <path id="Path_716324" data-name="Path 716324" d="M-9527.338-578.365V-686.114" transform="translate(804 -155)" fill="none" stroke="#03386e" stroke-width="2" stroke-dasharray="2"/>
    <path id="Path_716327" data-name="Path 716327" d="M-9527.338-578.365V-686.114" transform="translate(972.085 -155)" fill="none" stroke="#03386e" stroke-width="2" stroke-dasharray="2"/>
    <path id="Path_716329" data-name="Path 716329" d="M-9527.338-602.831v-83.283" transform="translate(891.031 -108.584)" fill="none" stroke="#03386e" stroke-width="2" stroke-dasharray="2"/>
    <path id="Path_716331" data-name="Path 716331" d="M-9527.338-602.831v-83.283" transform="translate(1050.031 -108.584)" fill="none" stroke="#03386e" stroke-width="2" stroke-dasharray="2"/>
    <path id="Path_716325" data-name="Path 716325" d="M5.694,0,0,5.693,1.443,7.136,5.694,2.886,9.945,7.136l1.443-1.443Z" transform="translate(-8729.031 -845.682)" fill="#03386e"/>
    <path id="Path_716326" data-name="Path 716326" d="M5.694,0,0,5.693,1.443,7.136,5.694,2.886,9.945,7.136l1.443-1.443Z" transform="translate(-8560.945 -845.682)" fill="#03386e"/>
    <path id="Path_716328" data-name="Path 716328" d="M5.694,0,0,5.693,1.442,7.136,5.694,2.886,9.945,7.136l1.443-1.443Z" transform="translate(-8642 -799.265)" fill="#03386e"/>
    <path id="Path_716330" data-name="Path 716330" d="M5.694,0,0,5.693,1.442,7.136,5.694,2.886,9.945,7.136l1.443-1.443Z" transform="translate(-8483 -799.265)" fill="#03386e"/>
    <g id="Group_1072919" data-name="Group 1072919" transform="translate(804 -155)">
      <g id="Ellipse_5725" data-name="Ellipse 5725" transform="translate(-9533 -578)" fill="none" stroke="#03386e" stroke-width="1">
        <circle cx="6" cy="6" r="6" stroke="none"/>
        <circle cx="6" cy="6" r="5.5" fill="none"/>
      </g>
      <circle id="Ellipse_5726" data-name="Ellipse 5726" cx="2" cy="2" r="2" transform="translate(-9529 -574)" fill="#03386e"/>
    </g>
    <g id="Group_1072920" data-name="Group 1072920" transform="translate(971 -155)">
      <g id="Ellipse_5725-2" data-name="Ellipse 5725" transform="translate(-9533 -578)" fill="none" stroke="#03386e" stroke-width="1">
        <circle cx="6" cy="6" r="6" stroke="none"/>
        <circle cx="6" cy="6" r="5.5" fill="none"/>
      </g>
      <circle id="Ellipse_5726-2" data-name="Ellipse 5726" cx="2" cy="2" r="2" transform="translate(-9529 -574)" fill="#03386e"/>
    </g>
    <g id="Group_1072921" data-name="Group 1072921" transform="translate(891 -134)">
      <g id="Ellipse_5725-3" data-name="Ellipse 5725" transform="translate(-9533 -578)" fill="none" stroke="#03386e" stroke-width="1">
        <circle cx="6" cy="6" r="6" stroke="none"/>
        <circle cx="6" cy="6" r="5.5" fill="none"/>
      </g>
      <circle id="Ellipse_5726-3" data-name="Ellipse 5726" cx="2" cy="2" r="2" transform="translate(-9529 -574)" fill="#03386e"/>
    </g>
    <g id="Group_1072922" data-name="Group 1072922" transform="translate(1050 -134)">
      <g id="Ellipse_5725-4" data-name="Ellipse 5725" transform="translate(-9533 -578)" fill="none" stroke="#03386e" stroke-width="1">
        <circle cx="6" cy="6" r="6" stroke="none"/>
        <circle cx="6" cy="6" r="5.5" fill="none"/>
      </g>
      <circle id="Ellipse_5726-4" data-name="Ellipse 5726" cx="2" cy="2" r="2" transform="translate(-9529 -574)" fill="#03386e"/>
    </g>
  </g>
</svg>
