<svg xmlns="http://www.w3.org/2000/svg" xmlns:xlink="http://www.w3.org/1999/xlink" width="125" height="125" viewBox="0 0 125 125">
  <defs>
    <clipPath id="clip-path">
      <rect id="Rectangle_377765" data-name="Rectangle 377765" width="78.044" height="78.052" fill="none"/>
    </clipPath>
  </defs>
  <g id="Group_1072922" data-name="Group 1072922" transform="translate(-1090 -11414)">
    <g id="Group_1072051" data-name="Group 1072051" transform="translate(704 9268)">
      <path id="Path_608385" data-name="Path 608385" d="M62.5,0A62.5,62.5,0,1,1,0,62.5,62.5,62.5,0,0,1,62.5,0Z" transform="translate(386 2146)" fill="#fff"/>
    </g>
    <g id="Group_1072457" data-name="Group 1072457" transform="translate(1117.216 11436.975)">
      <g id="Group_1072456" data-name="Group 1072456" clip-path="url(#clip-path)">
        <path id="Path_609883" data-name="Path 609883" d="M0,38.91Q0,22.091,0,5.271C0,1.8,1.772.018,5.228.018Q24.911.015,44.593,0a3.182,3.182,0,0,1,2.469,1.015q6.772,6.841,13.613,13.615a2.8,2.8,0,0,1,.9,2.145q-.026,28.155-.019,56.309c0,3.132-1.873,4.964-5.021,4.965q-25.777.007-51.553,0C1.86,78.046,0,76.176,0,73.037Q0,55.974,0,38.91M3.044,38.9q0,16.94,0,33.881C3.047,74.6,3.454,75,5.279,75q25.531,0,51.062,0c1.736,0,2.18-.442,2.181-2.149q0-27.056.021-54.111c0-.852-.217-1.088-1.07-1.072-2.883.053-5.768.036-8.652.016a4.579,4.579,0,0,1-4.926-4.935c-.01-2.8-.065-5.608.029-8.408.037-1.11-.3-1.311-1.338-1.308-12.349.038-24.7.024-37.047.025-2.18,0-2.493.307-2.494,2.449q0,16.7,0,33.393M46.982,5.483c0,2.617,0,5.087,0,7.557a1.384,1.384,0,0,0,1.376,1.553c2.568.063,5.137.022,7.747.022L46.982,5.483" transform="translate(0 0.001)" fill="#010000"/>
        <path id="Path_609884" data-name="Path 609884" d="M268.853,56.263a1.692,1.692,0,0,1-1.562-1.943c.015-5.524-.015-11.049.019-16.573a3.525,3.525,0,0,1,3.825-3.774c1.747-.01,3.493-.013,5.24,0a3.53,3.53,0,0,1,3.727,3.744c.026,2.762.007,5.524.007,8.286q0,18.035.012,36.07a6,6,0,0,1-.555,2.575c-1.427,3.127-2.816,6.272-4.218,9.41-.321.719-.645,1.4-1.618,1.4s-1.317-.624-1.645-1.362q-2.191-4.934-4.413-9.855a4.14,4.14,0,0,1-.379-1.759c.009-4.834.022-9.667-.007-14.5a1.8,1.8,0,0,1,1.571-2.082c1.177.226,1.532.988,1.524,2.119-.031,4.183,0,8.367-.026,12.551,0,.7.1,1.015.911.981,1.622-.07,3.249-.051,4.873-.007.689.019.9-.2.895-.889q-.028-17.852,0-35.7c0-.673-.181-.935-.892-.913-1.5.048-3.009.078-4.507-.008-.985-.056-1.319.182-1.291,1.237.078,3,.011,6.011.036,9.016a1.7,1.7,0,0,1-1.524,1.977m4.79-15.24c.85,0,1.7.009,2.549-.005.268,0,.571.1.786-.18a9.424,9.424,0,0,0-.13-3.679.97.97,0,0,0-.782-.243c-1.578,0-3.156.009-4.734,0-.641-.005-.937.253-1,.921-.295,3.19-.308,3.189,2.825,3.189h.485m.058,49.145c.779-1.728,1.461-3.27,2.17-4.8.283-.611.079-.761-.53-.744-1.091.031-2.185.04-3.275,0-.794-.031-.754.27-.484.846.7,1.495,1.36,3.009,2.119,4.7" transform="translate(-202.076 -25.679)" fill="#050607"/>
        <path id="Path_609885" data-name="Path 609885" d="M273.712,87.438a1.7,1.7,0,0,0,1.524-1.977c-.025-3.005.042-6.013-.036-9.016-.027-1.055.307-1.294,1.292-1.237,1.5.086,3.005.056,4.507.008.711-.023.893.24.892.913q-.023,17.852,0,35.7c0,.692-.206.908-.895.889-1.623-.044-3.251-.063-4.873.007-.811.035-.915-.284-.911-.981.028-4.184,0-8.367.027-12.551.008-1.131-.347-1.893-1.524-2.119q0-1.466,0-2.932c.824-.232,1.5-.642,1.487-1.605a1.551,1.551,0,0,0-1.492-1.572q0-1.765,0-3.529" transform="translate(-206.935 -56.853)" fill="#70d5fb"/>
        <path id="Path_609886" data-name="Path 609886" d="M268.981,139.829a1.552,1.552,0,0,1,1.493,1.572c.009.963-.664,1.373-1.488,1.605-.825-.234-1.539-.6-1.535-1.6s.648-1.413,1.53-1.578" transform="translate(-202.201 -105.715)" fill="#050607"/>
        <path id="Path_609887" data-name="Path 609887" d="M12.477,48.316q0-16.7,0-33.393c0-2.142.313-2.448,2.494-2.449,12.349,0,24.7.013,37.047-.025,1.04,0,1.375.2,1.338,1.308-.094,2.8-.039,5.605-.029,8.408A4.579,4.579,0,0,0,58.253,27.1c2.884.021,5.769.038,8.652-.016.852-.016,1.071.22,1.07,1.072q-.038,27.056-.021,54.112c0,1.706-.445,2.148-2.181,2.148q-25.53.005-51.062,0c-1.824,0-2.232-.4-2.233-2.221q-.005-16.94,0-33.881M34.184,15.527q-7.009,0-14.019,0c-1.725,0-2.192.452-2.195,2.127q-.008,5.181,0,10.362c0,1.679.471,2.136,2.186,2.137q13.958,0,27.916,0c1.737,0,2.187-.431,2.191-2.128q.014-5.181,0-10.362c0-1.707-.447-2.134-2.183-2.136q-6.948-.005-13.9,0M52.472,63.669c-2.639,0-5.279-.006-7.918,0-1.705.005-2.177.472-2.179,2.157q-.009,6.7,0,13.4c0,1.664.49,2.13,2.207,2.131q7.857,0,15.714,0c1.725,0,2.167-.435,2.169-2.155q.011-6.7,0-13.4c0-1.715-.434-2.128-2.2-2.133-2.6-.008-5.2,0-7.8,0M27.98,59.414c2.68,0,5.36.007,8.04,0,1.506-.006,2.009-.479,2.013-1.932q.018-6.944,0-13.889c0-1.324-.515-1.856-1.838-1.861q-8.162-.027-16.324,0c-1.4,0-1.9.528-1.9,1.93q-.015,6.884,0,13.767c0,1.462.515,1.978,1.97,1.984,2.68.012,5.36,0,8.04,0m12.3-24.992q-9.925,0-19.849,0a7.278,7.278,0,0,0-1.213.055,1.39,1.39,0,0,0-1.233,1.435,1.412,1.412,0,0,0,1.167,1.5,5.079,5.079,0,0,0,1.211.06q19.849,0,39.7,0a4.948,4.948,0,0,0,1.212-.054,1.414,1.414,0,0,0,1.17-1.5,1.39,1.39,0,0,0-1.222-1.444,6.666,6.666,0,0,0-1.213-.055q-9.864,0-19.728,0M52.408,44.783c2.679,0,5.357.006,8.036,0,1.33,0,2.033-.567,2.005-1.568-.026-.949-.7-1.483-1.972-1.486q-8.036-.015-16.072,0c-1.309,0-2.051.6-2.021,1.57.029.936.738,1.48,1.987,1.484,2.679.009,5.357,0,8.036,0M52.343,52.1c2.679,0,5.357,0,8.036,0,1.366,0,2.056-.515,2.069-1.5s-.679-1.549-2.027-1.551q-7.975-.013-15.95,0c-1.334,0-2.073.551-2.089,1.507s.73,1.546,2.047,1.549c2.638.007,5.276,0,7.914,0m.13,4.255c-2.679,0-5.357-.008-8.036,0-1.323.005-2.061.574-2.054,1.539s.742,1.516,2.078,1.517q7.975.007,15.95,0c1.346,0,2.045-.542,2.037-1.537s-.7-1.513-2.062-1.518c-2.638-.01-5.276,0-7.914,0M27.964,66.73c2.679,0,5.358.006,8.036,0,1.35,0,2.037-.54,2.026-1.545-.011-.969-.664-1.506-1.942-1.509q-8.1-.017-16.194,0c-1.235,0-1.93.6-1.917,1.544s.71,1.5,1.954,1.508c2.679.011,5.357,0,8.036,0m.042,4.255c-2.679,0-5.358-.01-8.036,0-1.317.007-2.038.6-1.995,1.588.041.948.722,1.464,1.995,1.466q8.036.01,16.072,0c1.3,0,1.944-.493,1.981-1.465.038-1.022-.633-1.582-1.981-1.589-2.679-.014-5.358,0-8.036,0m3.37,10.376c1.62,0,3.24.017,4.859-.006,1.165-.016,1.792-.577,1.79-1.527s-.633-1.512-1.8-1.52q-4.8-.033-9.6,0c-1.11.007-1.83.651-1.826,1.526s.731,1.506,1.834,1.521c1.579.021,3.158.005,4.738.005M21,79.877a1.4,1.4,0,0,0-1.385-1.533,1.387,1.387,0,0,0-1.618,1.394,1.424,1.424,0,0,0,1.313,1.594A1.516,1.516,0,0,0,21,79.877" transform="translate(-9.433 -9.412)" fill="#fafafa"/>
        <path id="Path_609888" data-name="Path 609888" d="M192.573,22.479l9.125,9.132c-2.61,0-5.179.041-7.747-.022a1.384,1.384,0,0,1-1.376-1.553c-.005-2.47,0-4.941,0-7.557" transform="translate(-145.59 -16.995)" fill="#f5f5f5"/>
        <path id="Path_609889" data-name="Path 609889" d="M282.7,50.158h-.486c-3.134,0-3.12,0-2.826-3.188.062-.668.358-.926,1-.921,1.578.012,3.156,0,4.734,0a.971.971,0,0,1,.782.243,9.429,9.429,0,0,1,.13,3.679c-.215.276-.518.175-.786.18-.849.014-1.7.005-2.549.005" transform="translate(-211.132 -34.814)" fill="#f65a5a"/>
        <path id="Path_609890" data-name="Path 609890" d="M286.471,247.141c-.759-1.692-1.418-3.206-2.119-4.7-.27-.576-.31-.877.484-.846,1.09.042,2.184.033,3.275,0,.609-.017.814.133.53.744-.709,1.53-1.391,3.072-2.17,4.8" transform="translate(-214.846 -182.651)" fill="#f5f5f5"/>
        <path id="Path_609891" data-name="Path 609891" d="M51.2,25.065q6.949,0,13.9,0c1.735,0,2.178.429,2.182,2.136q.013,5.181,0,10.362c0,1.7-.455,2.128-2.191,2.128q-13.958,0-27.916,0c-1.715,0-2.184-.458-2.186-2.137q-.007-5.181,0-10.362c0-1.675.469-2.125,2.195-2.127q7.009,0,14.019,0m0,3.026c-4.021,0-8.042.029-12.062-.022-.935-.012-1.173.284-1.148,1.179.061,2.151.046,4.305.006,6.457-.014.743.223.977.972.975q12.184-.034,24.369,0c.789,0,.94-.277.926-.991-.042-2.152-.06-4.306.006-6.457.027-.893-.189-1.18-1.128-1.167-3.98.054-7.96.023-11.94.023" transform="translate(-26.446 -18.949)" fill="#010000"/>
        <path id="Path_609892" data-name="Path 609892" d="M145.108,222.389c2.6,0,5.2-.006,7.8,0,1.763.005,2.194.419,2.2,2.133q.013,6.7,0,13.4c0,1.72-.445,2.154-2.17,2.155q-7.857.006-15.714,0c-1.718,0-2.2-.466-2.207-2.131q-.009-6.7,0-13.4c0-1.685.474-2.152,2.179-2.157,2.639-.008,5.279,0,7.918,0m.069,3.062c-2.072,0-4.143.025-6.214-.014-.676-.013-.9.17-.893.873q.053,4.874,0,9.748c-.008.723.159.983.938.976q6.092-.059,12.185,0c.7.006.883-.212.876-.892q-.048-4.874,0-9.748c.009-.723-.138-.985-.924-.96-1.988.062-3.98.02-5.97.02" transform="translate(-102.069 -168.132)" fill="#050607"/>
        <path id="Path_609893" data-name="Path 609893" d="M44.982,150.114c-2.68,0-5.36.009-8.04,0-1.455-.007-1.968-.522-1.97-1.984q-.012-6.883,0-13.767c0-1.4.5-1.926,1.9-1.93q8.162-.024,16.324,0c1.324,0,1.834.536,1.838,1.861q.02,6.944,0,13.889c0,1.453-.507,1.926-2.013,1.932-2.68.01-5.36,0-8.04,0m.1-14.63c-2.03,0-4.06.024-6.089-.013-.685-.012-1.006.085-.994.9.05,3.247.044,6.5,0,9.743-.01.771.25.952.978.947q6.028-.046,12.057,0c.708.005,1-.138.988-.931q-.067-4.871,0-9.743c.012-.8-.271-.934-.977-.919-1.988.042-3.978.015-5.967.015" transform="translate(-26.435 -100.111)" fill="#050607"/>
        <path id="Path_609894" data-name="Path 609894" d="M57.345,102.517q9.864,0,19.728,0a6.667,6.667,0,0,1,1.213.055,1.39,1.39,0,0,1,1.222,1.444,1.415,1.415,0,0,1-1.17,1.5,4.972,4.972,0,0,1-1.212.054q-19.849,0-39.7,0a5.079,5.079,0,0,1-1.211-.06,1.411,1.411,0,0,1-1.167-1.5,1.39,1.39,0,0,1,1.233-1.435,7.306,7.306,0,0,1,1.213-.055q9.925,0,19.849,0" transform="translate(-26.498 -77.506)" fill="#050607"/>
        <path id="Path_609895" data-name="Path 609895" d="M145.09,135.491c-2.679,0-5.357.006-8.036,0-1.249,0-1.958-.548-1.987-1.484-.03-.969.712-1.568,2.021-1.57q8.036-.013,16.072,0c1.27,0,1.946.537,1.972,1.486.027,1-.676,1.564-2.005,1.568-2.679.009-5.357,0-8.036,0" transform="translate(-102.114 -100.119)" fill="#050607"/>
        <path id="Path_609896" data-name="Path 609896" d="M145.017,165.478c-2.638,0-5.276.005-7.914,0-1.317,0-2.063-.579-2.047-1.549s.755-1.505,2.089-1.507q7.975-.01,15.95,0c1.347,0,2.04.553,2.027,1.551s-.7,1.5-2.068,1.5c-2.679.006-5.357,0-8.036,0" transform="translate(-102.107 -122.791)" fill="#050607"/>
        <path id="Path_609897" data-name="Path 609897" d="M145.153,192.4c2.638,0,5.276-.007,7.914,0,1.36.005,2.055.532,2.062,1.518s-.691,1.536-2.038,1.537q-7.975.008-15.95,0c-1.337,0-2.071-.548-2.079-1.517s.731-1.534,2.054-1.539c2.679-.01,5.357,0,8.036,0" transform="translate(-102.112 -145.461)" fill="#050607"/>
        <path id="Path_609898" data-name="Path 609898" d="M45,225.446c-2.679,0-5.358.007-8.036,0-1.244,0-1.941-.559-1.954-1.508s.682-1.541,1.917-1.544q8.1-.018,16.194,0c1.278,0,1.931.54,1.941,1.509.011,1.005-.676,1.541-2.026,1.545-2.679.008-5.357,0-8.036,0" transform="translate(-26.466 -168.128)" fill="#050607"/>
        <path id="Path_609899" data-name="Path 609899" d="M45.038,252.372c2.679,0,5.358-.01,8.036,0,1.348.007,2.018.566,1.981,1.588-.036.972-.677,1.464-1.98,1.466q-8.036.01-16.072,0c-1.273,0-1.953-.518-1.995-1.466-.043-.987.678-1.581,1.995-1.588,2.679-.013,5.357,0,8.036,0" transform="translate(-26.465 -190.799)" fill="#050607"/>
        <path id="Path_609900" data-name="Path 609900" d="M69.578,285.405c-1.579,0-3.159.015-4.737-.005-1.1-.014-1.83-.642-1.834-1.521s.716-1.518,1.826-1.526q4.8-.032,9.6,0c1.165.008,1.8.583,1.8,1.52s-.625,1.511-1.79,1.527c-1.619.023-3.239.006-4.859.006" transform="translate(-47.634 -213.456)" fill="#050607"/>
        <path id="Path_609901" data-name="Path 609901" d="M38.072,284.058a1.516,1.516,0,0,1-1.689,1.456,1.424,1.424,0,0,1-1.313-1.594,1.387,1.387,0,0,1,1.618-1.394,1.4,1.4,0,0,1,1.385,1.533" transform="translate(-26.509 -213.593)" fill="#050607"/>
        <path id="Path_609902" data-name="Path 609902" d="M60.51,37.4c3.98,0,7.961.031,11.94-.023.94-.013,1.156.275,1.128,1.168-.066,2.151-.048,4.305-.006,6.457.014.713-.137.993-.926.991q-12.184-.041-24.369,0c-.748,0-.986-.232-.972-.975.04-2.152.055-4.306-.006-6.457-.025-.895.212-1.19,1.148-1.179,4.02.051,8.041.022,12.062.022" transform="translate(-35.759 -28.257)" fill="#f65a5a"/>
        <path id="Path_609903" data-name="Path 609903" d="M154.67,234.879c1.99,0,3.982.041,5.97-.02.786-.025.932.237.924.96q-.057,4.874,0,9.748c.007.68-.175.9-.876.892q-6.092-.047-12.185,0c-.779.007-.945-.253-.938-.976q.052-4.874,0-9.748c-.008-.7.218-.886.893-.873,2.071.04,4.143.014,6.214.014" transform="translate(-111.562 -177.559)" fill="#70d5fb"/>
        <path id="Path_609904" data-name="Path 609904" d="M54.5,144.94c1.989,0,3.979.027,5.967-.015.706-.015.989.122.977.919q-.073,4.87,0,9.743c.011.793-.28.936-.988.931q-6.028-.042-12.057,0c-.727.006-.987-.176-.978-.947.041-3.247.046-6.5,0-9.743-.012-.818.309-.915.994-.9,2.029.037,4.059.013,6.089.013" transform="translate(-35.85 -109.568)" fill="#70d5fb"/>
      </g>
    </g>
  </g>
</svg>
