<svg id="Group_1072463" data-name="Group 1072463" xmlns="http://www.w3.org/2000/svg" xmlns:xlink="http://www.w3.org/1999/xlink" width="190" height="152.604" viewBox="0 0 190 152.604">
  <defs>
    <clipPath id="clip-path">
      <rect id="Rectangle_377768" data-name="Rectangle 377768" width="190" height="152.605" fill="none"/>
    </clipPath>
  </defs>
  <g id="Group_1072462" data-name="Group 1072462" clip-path="url(#clip-path)">
    <path id="Path_609967" data-name="Path 609967" d="M292.9,130.384c0,17.665-.052,35.329.065,52.993.015,2.2-.811,2.7-3.352,2.661-8.6-.12-17.2-.092-25.806-.013-2.128.019-2.881-.406-2.877-2.283q.106-52.267.034-104.535A3.163,3.163,0,0,1,262.2,76.4q6.686-5.322,13.216-10.772a2.218,2.218,0,0,1,3.2-.178c4.189,2.825,8.417,5.614,12.74,8.3,1.521.945,1.556,2.084,1.554,3.4q-.027,26.618-.012,53.235" transform="translate(-105.972 -33.434)" fill="#178788"/>
    <path id="Path_609968" data-name="Path 609968" d="M207.515,162.3c0,14.274-.069,28.549.07,42.822.023,2.308-.878,2.795-3.5,2.757-8.5-.124-17-.11-25.5,0-2.258.029-2.793-.546-2.789-2.323q.1-41.854.018-83.709a3.682,3.682,0,0,1,1.554-3.2q6.492-5.137,12.792-10.434a2.191,2.191,0,0,1,3.157-.213c4.2,2.816,8.416,5.61,12.732,8.3,1.426.888,1.48,1.943,1.479,3.179q-.028,21.411-.012,42.822" transform="translate(-71.396 -55.382)" fill="#ffc000"/>
    <path id="Path_609969" data-name="Path 609969" d="M122.369,194.889c0,10.8-.089,21.606.074,32.406.034,2.217-.791,2.645-3.3,2.608-8.595-.125-17.2-.1-25.791-.009-2.1.023-2.637-.481-2.631-2.165q.1-31.681.026-63.363a3.163,3.163,0,0,1,1.277-2.792q6.581-5.23,12.99-10.6a2.138,2.138,0,0,1,3.121-.148c4.18,2.827,8.443,5.576,12.748,8.276A2.959,2.959,0,0,1,122.4,162c-.044,10.964-.026,21.927-.026,32.891" transform="translate(-36.843 -77.441)" fill="#e23a22"/>
    <path id="Path_609970" data-name="Path 609970" d="M183.557,9.107c-1.29.994-2.138,1.617-2.944,2.274q-21.936,17.874-43.866,35.755c-3.307,2.694-4.2,2.689-7.5.015-2.384-1.933-4.854-3.8-7.1-5.837-1.372-1.241-2.175-1.248-3.652-.025-9.644,7.99-19.4,15.891-29.115,23.821-3.437,2.8-4.322,2.806-7.761.01-2.31-1.878-4.737-3.675-6.879-5.674-1.524-1.421-2.391-1.2-3.913.048Q47.634,78.565,24.3,97.522C19,101.855,19,101.866,13.65,97.5,9.732,94.31,5.842,91.094,1.9,87.92c-1.63-1.312-2.851-2.78-.9-4.361,1.889-1.527,3.758-.7,5.389.653,3.541,2.929,7.221,5.752,10.642,8.771,1.542,1.361,2.371,1.258,3.908-.006Q44.764,73.4,68.717,53.936c3.693-3.014,4.484-3.024,8.149-.03,2.306,1.884,4.711,3.7,6.886,5.674,1.33,1.209,2.124,1.119,3.479,0,9.732-8.029,19.543-15.994,29.335-23.975,3.3-2.687,4.194-2.683,7.521.016,2.524,2.047,5.062,4.084,7.539,6.169a1.707,1.707,0,0,0,2.632.066Q156.236,23.835,178.28,5.868c.116-.094.118-.282.289-.732-4.707,0-9.3,0-13.889,0-1.088,0-2.177.005-3.263-.037-1.888-.074-2.92-.889-2.941-2.447S159.481.186,161.324.1c2.465-.118,4.942-.082,7.414-.086,5.54-.009,11.08-.022,16.62.005,3.664.018,4.613.775,4.625,3.688.026,6.214-.008,12.428.017,18.641.008,1.795-.513,3.39-3.055,3.446-2.707.06-3.383-1.582-3.386-3.47-.006-4.238,0-8.476,0-13.215" transform="translate(0 0)" fill="#15584c"/>
    <path id="Path_609971" data-name="Path 609971" d="M5.85,208.73c4.338,3.588,8.771,7.1,12.968,10.8,1.738,1.53,2.718,1.6,4.516.021,4.225-3.712,8.726-7.214,13.112-10.8,1.036.523.577,1.234.578,1.793.03,15.715-.02,31.431.081,47.146.012,1.917-.629,2.409-2.935,2.381-8.89-.108-17.783-.081-26.674-.013-1.8.014-2.332-.378-2.326-1.888.068-16.359.043-32.718.043-49.077l.637-.363" transform="translate(-2.1 -107.605)" fill="#9a1912"/>
  </g>
</svg>
