<svg xmlns="http://www.w3.org/2000/svg" xmlns:xlink="http://www.w3.org/1999/xlink" width="142" height="142" viewBox="0 0 142 142">
  <defs>
    <clipPath id="clip-path">
      <rect id="Rectangle_377882" data-name="Rectangle 377882" width="103.267" height="103.354" fill="none"/>
    </clipPath>
  </defs>
  <g id="Group_1072077" data-name="Group 1072077" transform="translate(-269.001 -958)">
    <circle id="Ellipse_5614" data-name="Ellipse 5614" cx="71" cy="71" r="71" transform="translate(269.001 958.001)" fill="#fff"/>
    <g id="Group_1072656" data-name="Group 1072656" transform="translate(291.001 967.864)">
      <g id="Group_1072655" data-name="Group 1072655" clip-path="url(#clip-path)">
        <path id="Path_610522" data-name="Path 610522" d="M64.7,57.22c-.579-1.559.18-2.026,1.6-2.018,2.347.014,4.694-.036,7.041,0,1.583.021,2.348-.684,2.278-2.273a2.239,2.239,0,0,1,0-.343c.337-2.942-.052-5.374-2.989-7.169-2.241-1.37-3.5-3.876-4.444-6.371a1.384,1.384,0,0,0-1.433-1.088,6.738,6.738,0,0,1-6.277-4.738,6.575,6.575,0,0,1,2.352-7.5,2.071,2.071,0,0,0,.754-1.914c.046-3.306-.268-6.635.71-9.881a22.7,22.7,0,0,1,2.217-4.982C67.3,7.619,68.01,6.379,69.726,7.8c.833,1.031.6,1.836-.172,2.921-2.549,3.606-2.633,7.8-2.535,12.02.062,2.687.013,2.695,2.64,2.2,8.438-1.584,16.641-3.645,23.118-9.9,1.949-1.882,2.782-1.541,4.162.915,1.093,1.945,2.208,3.878,3.327,5.808.167.289.351.632.747.637s.387-.339.4-.617a17.706,17.706,0,0,0-3.974-13.1C92.2,2.427,79.982,2.271,74.592,5.84c-1.088.72-1.86.825-2.681-.209-1.192-1.425-.347-2.116.9-2.84,8.153-4.712,24.448-4.375,30.229,8.225a3.108,3.108,0,0,0,1.313,1.283,11.845,11.845,0,0,1,5.661,10.367c.035,7.445.01,14.89.01,22.509a5.261,5.261,0,0,1,4.744.6c.5.365.853-.056,1.241-.246a4.8,4.8,0,0,1,7.026,2.628c2.239,5.367,4.441,10.751,6.565,16.164a1.61,1.61,0,0,0,1.858,1.2c1.946-.063,3.9-.039,5.844-.014a5.119,5.119,0,0,1,5.216,3.868,4.991,4.991,0,0,1-2.551,5.8,1.8,1.8,0,0,0-1.049,1.556c-.321,3.243-.826,6.468-1.1,9.714-.123,1.439-.711,1.807-1.985,1.489-1.179-.06-1.829-.3-1.529-1.847.552-2.855.737-5.778,1.163-8.659.191-1.293-.179-1.64-1.5-1.634q-18.807.077-37.615-.005c-1.444-.007-1.583.538-1.432,1.7.817,6.289,1.591,12.584,2.4,18.875.3,2.314,1.579,3.517,3.867,3.523q14,.036,28,0a3.551,3.551,0,0,0,3.858-3.341,10.532,10.532,0,0,0,.173-1.879c-.025-1.372.585-1.937,1.94-1.681,1.5.051,1.923.78,1.508,2.2-.253.869-.248,1.811-.446,2.7a6.613,6.613,0,0,1-6.579,5.429c-9.63.048-19.261.014-28.891.019a8.328,8.328,0,0,1-4.718-1.8,10.388,10.388,0,0,1-2.248-5.794c-.715-6.412-1.583-12.807-2.337-19.215-.092-.779-.554-1.034-1.088-1.372a5.058,5.058,0,0,1-2.486-5.838,5.144,5.144,0,0,1,5.252-3.82c2-.022,4.005,0,6.008-.01.542,0,1.118.153,1.4-.614.956-2.562,1.97-5.1,2.962-7.651,1.155-2.1,1.847-4.388,2.8-6.57.23-.526.219-.81-.453-.937a11.6,11.6,0,0,1-7.78-5.4c-.244-.377-.371-.6-.892-.215-4.04,2.95-4.551,4-4.347,8.967.057,1.41.681,2.112,2.1,2.107a47.976,47.976,0,0,0,4.8-.039c1.473-.154,1.934.39,1.763,1.74.063,1.142-.1,2.059-1.622,1.749-.767-.156-.923.481-1.183.981a19.432,19.432,0,0,1-3.065,4.117c-.895.977-1.615,1.028-2.419-.007-1.018-1.169-.778-2.073.449-2.972a3.5,3.5,0,0,0,1.423-2.1,5.249,5.249,0,0,1-5.19-3.033c-.952-1.981-.225-4.174-.606-6.323a18.08,18.08,0,0,1-10.1.025c-.332,2.235.352,4.416-.643,6.41-1.046,2.1-2.9,2.9-5.3,2.962a12.05,12.05,0,0,0,9.46,5.98c1.436.14,1.666.7,1.6,1.838C84.5,68.1,83.7,68.4,82.3,68.194c-5.215-.756-9.365-3.226-12.014-7.794-.856-1.477-1.769-2.07-3.314-1.751-1.277.264-2.034-.126-2.272-1.429m33.28-27.85c-.273-1.559.538-3.567-.417-5.4-.846-1.62-1.864-3.15-2.718-4.767-.464-.879-.824-.835-1.506-.226A32.624,32.624,0,0,1,80.15,26.032c-.587.164-1.113.288-1.161,1.168a2.285,2.285,0,0,1-1.948,2.121,2.359,2.359,0,0,1-2.675-1.1c-.359-.58-.734-.573-1.276-.488-2.62.41-2.622.4-2.621,3.022,0,.8-.013,1.606.007,2.408a13.756,13.756,0,0,0,26.8,4.034c.837-2.45.707-4.964.709-7.829m17.19,39.569q-10.568,0-21.136,0a9.065,9.065,0,0,0-1.372.035,1.7,1.7,0,0,0-.056,3.379,8.159,8.159,0,0,0,1.372.042q21.222,0,42.444,0a10.123,10.123,0,0,0,1.2-.024,1.7,1.7,0,0,0,.056-3.4,10.017,10.017,0,0,0-1.373-.031q-10.568,0-21.136,0m-9.18-3.435c1.059.226,1.652-.261,2.094-1.462,1.6-4.345,3.329-8.643,5.041-12.946.431-1.084.541-2.106-.695-2.6s-1.7.443-2.1,1.415q-2.794,6.92-5.625,13.825c-.729,1.777-.754,1.767,1.281,1.771m18.256,0c2.177.015,2.153.024,1.407-1.789q-2.809-6.822-5.57-13.663c-.409-1.017-.827-2.074-2.16-1.545-1.242.492-1.1,1.533-.669,2.61,1.711,4.3,3.426,8.606,5.05,12.943.4,1.074.87,1.706,1.942,1.444M106.567,34.278c-1.316.758-2.322,1.608-3.657,1.829-.876.145-2.06,0-2.148,1.418-.064,1.018-.985,1.855-.648,2.956a8.468,8.468,0,0,0,5.337,5.628c.647.251,1.121.148,1.12-.709-.007-3.634,0-7.268,0-11.122m8.625,21-3.954,10.156h7.9l-3.941-10.156M101.434,29.259c0,.854.051,1.713-.013,2.562-.082,1.1.395,1.081,1.206.751a3.308,3.308,0,0,0,2.207-2.969,3.253,3.253,0,0,0-1.669-3.146,2.107,2.107,0,0,0-1.425-.4c-.617.169-.245.864-.291,1.322-.062.62-.015,1.251-.015,1.878m-34.4-.2a13.635,13.635,0,0,1-1.54.3c-1.576.106-2.177.833-1.836,2.369a3.378,3.378,0,0,0,2.379,2.645c.693.227,1.047.192,1.013-.694-.057-1.47-.015-2.943-.015-4.62m39.452-4.7c.233-3.525-.2-5.222-1.554-6.3-.092,6.19-.321,5.321,1.554,6.3" transform="translate(-39.444 0)" fill="#030302"/>
        <path id="Path_610523" data-name="Path 610523" d="M92.668,165.635c-.992,2.549-2.006,5.089-2.962,7.651-.286.767-.863.611-1.4.614-2,.012-4-.013-6.007.01a5.144,5.144,0,0,0-5.253,3.82,5.059,5.059,0,0,0,2.486,5.838c.534.338,1,.593,1.089,1.372.754,6.408,1.622,12.8,2.337,19.215a10.391,10.391,0,0,0,2.249,5.794l-23.929,0c-.01-3.611-.028-7.221-.024-10.832a4.128,4.128,0,0,0-.676-2.6c-3.26-4.492-3.614-9.117-.614-13.909.974-1.556-.9-1.6-1.416-2.353-.591-.864-1.031-.147-1.393.373A14.3,14.3,0,0,0,54.6,190.886a5.316,5.316,0,0,1-.183,2.342c-1.57,5.018-3.11,10.044-4.691,15.058-.26.823-.261,1.421.71,1.663l-3.877.027c1.568-.419.747-1.561.59-2.335-1.068-5.256-2.175-10.506-3.388-15.73a2.153,2.153,0,0,1,.72-2.5,3.653,3.653,0,0,0,1.349-3.22c-.364-2.376.789-3.881,2.453-5.235a13.911,13.911,0,0,0,1.225-1.2,5.3,5.3,0,0,0,1.373-5.819c-.149-.42-.444-.829-.265-1.308.766-2.054.262-4.2.476-6.3.956-.131,1.762-.85,2.788-.712.237,1.3.995,1.693,2.272,1.429,1.545-.319,2.457.274,3.313,1.751,2.649,4.568,6.8,7.039,12.014,7.794,1.4.2,2.195-.089,1.982-1.681,3.307.156,6.144-1.192,8.905-2.782.8,1.035,1.524.984,2.419.007a19.423,19.423,0,0,0,3.066-4.117c.259-.5.416-1.137,1.183-.981,1.523.31,1.685-.607,1.621-1.749l2.012.348" transform="translate(-28.622 -108.397)" fill="#7db256"/>
        <path id="Path_610524" data-name="Path 610524" d="M22.472,127.028c-.215,2.095.29,4.243-.476,6.3-.179.479.116.888.265,1.309a5.3,5.3,0,0,1-1.373,5.819,14.05,14.05,0,0,1-1.225,1.2c-1.664,1.354-2.817,2.859-2.453,5.235a3.653,3.653,0,0,1-1.349,3.22,2.153,2.153,0,0,0-.72,2.5c1.213,5.224,2.319,10.474,3.387,15.731.157.774.979,1.915-.59,2.334-.824-.21-1.62.761-2.455.059-.509-2.444-1.054-4.882-1.508-7.337-.173-.934-.493-1.359-1.537-1.311-1.989.091-3.987.07-5.979.007-.95-.03-1.292.239-1.267,1.233.061,2.447.011,4.9.006,7.346-3.416.161-3.416.161-3.416-3.232q0-7.815-.008-15.63c0-.5.2-1.076-.2-1.485C-.1,148.628.03,146.495.056,144.368c.026-2.061-.165-4.139.041-6.18.45-4.459-.168-8.9-.059-13.347.11-4.52.021-9.045.025-13.568,0-3.892,2.013-5.9,5.917-5.908q5.324-.011,10.649,0c3.766.012,5.781,2.055,5.795,5.862q.029,7.9.047,15.8m-12.09-6.954v-6.86c0-4.639,0-4.619-4.749-4.418-1.4.059-2.126.667-2.126,2.088q0,9.69,0,19.379c0,.647.049,1.043.927.974a36.775,36.775,0,0,1,4.626-.053c1.051.051,1.374-.267,1.351-1.336-.069-3.257-.025-6.516-.025-9.775M3.507,141.458c0,1.658-.013,3.315,0,4.973a1.735,1.735,0,0,0,1.912,1.923c2.172.021,4.344.027,6.516,0a1.734,1.734,0,0,0,1.879-1.955q.011-4.887,0-9.774a1.787,1.787,0,0,0-2-2.014c-2.058-.005-4.116.011-6.173-.007-1.52-.013-2.171.749-2.145,2.228.027,1.543.006,3.087.009,4.63m12.039-20.6c0,3.434-.012,6.868.011,10.3,0,.583-.3,1.39.518,1.638a2.372,2.372,0,0,0,2.285-.355,2.406,2.406,0,0,0,.624-2.056q-.009-9.53-.006-19.059a4.325,4.325,0,0,0-.077-1.192c-.4-1.361-1.516-1.377-2.64-1.313-1.2.067-.682,1.017-.69,1.563-.051,3.49-.026,6.982-.026,10.474M8.971,158.677H10.68c2.137,0,2.139,0,1.758-2.072-.113-.615-.225-1.23-.358-1.841-.643-2.954-.646-2.953-3.738-2.953-3.113,0-3.113,0-3.113,3.064,0,3.8,0,3.8,3.741,3.8m8.452-19.864c.8-.718,1.968-1.23,1.606-2.516-.136-.482-.72-.088-1.043.009-1.529.459-.319,1.668-.563,2.507" transform="translate(0 -69.095)" fill="#030302"/>
        <path id="Path_610525" data-name="Path 610525" d="M201.314,237.414c-1.355-.257-1.965.309-1.94,1.681a10.461,10.461,0,0,1-.173,1.878,3.551,3.551,0,0,1-3.857,3.341q-14,.034-28,0c-2.288-.006-3.57-1.209-3.867-3.523-.807-6.29-1.581-12.585-2.4-18.874-.151-1.163-.012-1.709,1.432-1.7q18.807.093,37.615,0c1.324-.005,1.694.341,1.5,1.635-.426,2.881-.611,5.8-1.163,8.659-.3,1.55.351,1.787,1.53,1.847q-.342,2.527-.684,5.054M165.87,226.974c0,.857.05,1.718-.011,2.57-.1,1.414.934,1.055,1.619.993s1.878.657,1.842-.942c-.033-1.485-.092-2.978.02-4.454.1-1.261-.416-1.44-1.549-1.5-1.571-.089-2.189.4-1.933,1.967a8.689,8.689,0,0,1,.012,1.369m10.323.123c0-.8-.045-1.6.01-2.4.1-1.425-.954-1.03-1.63-.979s-1.87-.629-1.83.953a36.323,36.323,0,0,1-.02,4.112c-.121,1.381.251,1.856,1.736,1.846,1.443-.009,1.962-.406,1.748-1.821a11.784,11.784,0,0,1-.015-1.712m3.437.027a19.761,19.761,0,0,1-.014,2.227c-.182,1.591.942,1.181,1.776,1.216.911.038,1.851.214,1.71-1.295a23.918,23.918,0,0,1,0-4.109c.1-1.232-.358-1.48-1.527-1.525-1.523-.059-2.228.331-1.955,1.946a9.383,9.383,0,0,1,.013,1.541m10.324.036c0-.8-.05-1.6.011-2.4.117-1.538-1.014-1.043-1.742-1.052s-1.812-.455-1.731,1.072c.085,1.6.045,3.2.008,4.8-.017.726.22.964.97,1.011,2.487.154,2.485.191,2.485-2.231q0-.6,0-1.2m6.88-.072c0-.8-.043-1.6.009-2.4.095-1.432-.968-1.013-1.64-.97-.689.043-1.867-.617-1.821.963a34.554,34.554,0,0,1-.019,4.111c-.126,1.4.277,1.839,1.746,1.837s1.947-.43,1.739-1.83a11.875,11.875,0,0,1-.015-1.712M169.314,237.4c0-.743.026-1.487-.01-2.228-.022-.457.215-1-.6-1.178-2.156-.472-2.837.022-2.837,2.216a25.028,25.028,0,0,1-.022,2.911c-.166,1.406.293,1.826,1.748,1.829,1.472,0,1.935-.449,1.731-1.838a11.986,11.986,0,0,1-.014-1.712m6.88,0c0-.743.026-1.487-.01-2.228-.022-.457.215-1-.6-1.178-2.156-.472-2.837.022-2.837,2.216a25.028,25.028,0,0,1-.022,2.911c-.166,1.406.293,1.826,1.748,1.829,1.472,0,1.935-.449,1.732-1.838a11.935,11.935,0,0,1-.014-1.712m3.436.044a19.767,19.767,0,0,1-.014,2.227c-.182,1.591.942,1.181,1.776,1.216.911.038,1.851.214,1.71-1.295a23.887,23.887,0,0,1,0-4.11c.1-1.232-.358-1.48-1.527-1.525-1.523-.059-2.228.331-1.955,1.947a9.379,9.379,0,0,1,.013,1.54m10.324.158c0-.857-.05-1.718.011-2.57.1-1.414-.934-1.055-1.619-.993s-1.877-.657-1.842.941c.033,1.485.092,2.978-.02,4.455-.1,1.261.416,1.44,1.549,1.5,1.571.088,2.189-.4,1.933-1.967a8.734,8.734,0,0,1-.012-1.37m6.881-.143a18.982,18.982,0,0,1,.015-2.227c.189-1.591-.93-1.2-1.769-1.222-.9-.028-1.862-.238-1.717,1.287a23.853,23.853,0,0,1,0,4.11c-.1,1.222.338,1.494,1.52,1.533,1.508.049,2.243-.309,1.963-1.939a9.235,9.235,0,0,1-.014-1.541" transform="translate(-105.608 -144.419)" fill="#d55146"/>
        <path id="Path_610526" data-name="Path 610526" d="M84.961,12.281c.822,1.034,1.594.929,2.681.209,5.389-3.568,17.6-3.413,22.851,2.848a17.7,17.7,0,0,1,3.974,13.1c-.018.278,0,.622-.4.617s-.58-.348-.747-.637c-1.119-1.93-2.234-3.862-3.327-5.807-1.38-2.456-2.212-2.8-4.162-.915-6.477,6.254-14.681,8.315-23.118,9.9-2.628.494-2.578.486-2.64-2.2-.1-4.217-.013-8.414,2.535-12.02.767-1.085,1.006-1.891.172-2.921a5.734,5.734,0,0,1,2.186-2.167" transform="translate(-52.494 -6.651)" fill="#79422a"/>
        <path id="Path_610527" data-name="Path 610527" d="M61.747,237.717c-.971-.242-.97-.84-.71-1.663,1.581-5.014,3.121-10.041,4.691-15.059a5.317,5.317,0,0,0,.183-2.342A14.3,14.3,0,0,1,68.459,208.4c.362-.52.8-1.237,1.393-.373.514.751,2.39.8,1.416,2.353-3,4.792-2.646,9.418.614,13.909a4.127,4.127,0,0,1,.676,2.6c0,3.61.015,7.221.024,10.831-3.508.249-3.508.249-3.508-3.135,0-2.344-.015-4.688.008-7.031a2.406,2.406,0,0,0-1.061-2.351c-1.1,3.613-2.17,7.165-3.26,10.71-.7,2.263-.708,2.259-3.014,1.806" transform="translate(-39.932 -136.164)" fill="#030302"/>
        <path id="Path_610528" data-name="Path 610528" d="M15.087,278.756c.005-2.449.055-4.9-.006-7.346-.025-.994.317-1.263,1.267-1.233,1.991.063,3.989.084,5.978-.008,1.045-.048,1.364.377,1.537,1.311.454,2.454,1,4.892,1.508,7.337l-10.285-.062" transform="translate(-9.89 -177.178)" fill="#7db256"/>
        <path id="Path_610529" data-name="Path 610529" d="M117.644,64.68c0,2.864.128,5.379-.709,7.829a13.756,13.756,0,0,1-26.8-4.033c-.019-.8-.006-1.6-.007-2.408,0-2.621,0-2.612,2.621-3.022.542-.085.917-.092,1.276.488a2.359,2.359,0,0,0,2.675,1.1A2.286,2.286,0,0,0,98.65,62.51c.048-.88.573-1,1.161-1.168A32.624,32.624,0,0,0,113,54.289c.682-.609,1.042-.654,1.505.225.854,1.617,1.872,3.147,2.718,4.767.956,1.832.145,3.84.418,5.4m-17.014,5.179c-2.082,0-2.242.243-1.508,2.012A5.288,5.288,0,0,0,104.369,75a5.167,5.167,0,0,0,4.545-4.052c.069-.348.358-.761-.146-1.049a4.1,4.1,0,0,0-3.44.83c-.771,1.031-2.189,1.229-2.7.177a1.729,1.729,0,0,0-2-1.045m10.964-10.31a2.571,2.571,0,1,0,2.6,2.45,2.6,2.6,0,0,0-2.6-2.45" transform="translate(-59.105 -35.31)" fill="#fbc6a1"/>
        <path id="Path_610530" data-name="Path 610530" d="M118.116,157.662c-2.761,1.591-5.6,2.938-8.9,2.782.07-1.137-.16-1.7-1.6-1.838a12.052,12.052,0,0,1-9.46-5.98c2.4-.065,4.252-.866,5.3-2.962.995-1.994.31-4.175.642-6.41a18.084,18.084,0,0,0,10.1-.025c.381,2.149-.346,4.342.606,6.323a5.249,5.249,0,0,0,5.19,3.033,3.5,3.5,0,0,1-1.423,2.1c-1.227.9-1.468,1.8-.449,2.972" transform="translate(-64.372 -93.932)" fill="#fbc6a1"/>
        <path id="Path_610531" data-name="Path 610531" d="M174.214,200.281q10.568,0,21.136,0a10.017,10.017,0,0,1,1.373.031,1.7,1.7,0,0,1-.056,3.4,10.125,10.125,0,0,1-1.2.025q-21.222,0-42.444,0a8.159,8.159,0,0,1-1.372-.042,1.7,1.7,0,0,1,.056-3.38,9.11,9.11,0,0,1,1.372-.035q10.568,0,21.136,0" transform="translate(-98.486 -131.342)" fill="#d55146"/>
        <path id="Path_610532" data-name="Path 610532" d="M190.045,157.643c-2.035,0-2.01.006-1.281-1.771q2.834-6.9,5.625-13.825c.392-.972.871-1.908,2.1-1.415s1.126,1.519.695,2.6c-1.711,4.3-3.442,8.6-5.041,12.946-.442,1.2-1.034,1.688-2.094,1.461" transform="translate(-123.498 -92.14)" fill="#79422a"/>
        <path id="Path_610533" data-name="Path 610533" d="M232.481,157.657c-1.072.262-1.54-.37-1.942-1.444-1.624-4.337-3.339-8.64-5.05-12.943-.428-1.077-.573-2.117.669-2.61,1.333-.528,1.751.528,2.16,1.545q2.754,6.843,5.57,13.663c.747,1.813.77,1.8-1.407,1.789" transform="translate(-147.676 -92.154)" fill="#79422a"/>
        <path id="Path_610534" data-name="Path 610534" d="M182.583,99.592c0,3.854,0,7.488,0,11.122,0,.857-.472.961-1.12.709a8.467,8.467,0,0,1-5.337-5.627c-.337-1.1.584-1.938.648-2.957.089-1.416,1.273-1.273,2.148-1.418,1.335-.221,2.34-1.071,3.657-1.829" transform="translate(-115.459 -65.314)" fill="#79422a"/>
        <path id="Path_610535" data-name="Path 610535" d="M180,78.858c0-.627-.046-1.258.015-1.878.045-.459-.327-1.154.29-1.322a2.106,2.106,0,0,1,1.425.4A3.252,3.252,0,0,1,183.4,79.2a3.308,3.308,0,0,1-2.207,2.969c-.811.33-1.288.352-1.206-.751.064-.85.013-1.708.013-2.562" transform="translate(-118.01 -49.599)" fill="#fbc6a1"/>
        <path id="Path_610536" data-name="Path 610536" d="M73.559,84.439c0,1.677-.042,3.15.015,4.62.034.886-.32.92-1.013.694a3.379,3.379,0,0,1-2.379-2.645c-.341-1.537.261-2.263,1.836-2.369a13.636,13.636,0,0,0,1.54-.3" transform="translate(-45.966 -55.376)" fill="#fbc6a1"/>
        <path id="Path_610537" data-name="Path 610537" d="M191.716,58.784c-1.875-.982-1.646-.114-1.554-6.3,1.357,1.081,1.787,2.778,1.554,6.3" transform="translate(-124.671 -34.418)" fill="#79422a"/>
        <path id="Path_610538" data-name="Path 610538" d="M17.054,126.5c0,3.258-.044,6.518.025,9.775.023,1.07-.3,1.387-1.351,1.336a36.774,36.774,0,0,0-4.626.053c-.878.068-.928-.328-.927-.974q.011-9.69,0-19.379c0-1.421.725-2.029,2.126-2.088,4.749-.2,4.748-.221,4.748,4.418v6.86" transform="translate(-6.674 -75.522)" fill="#d55146"/>
        <path id="Path_610539" data-name="Path 610539" d="M10.169,197.176c0-1.543.019-3.087-.007-4.63-.026-1.479.625-2.241,2.145-2.228,2.058.018,4.115,0,6.173.007a1.787,1.787,0,0,1,2,2.014q.009,4.887,0,9.774a1.734,1.734,0,0,1-1.879,1.955c-2.172.03-4.344.024-6.516,0a1.735,1.735,0,0,1-1.912-1.923c-.017-1.657,0-3.315-.006-4.972" transform="translate(-6.664 -124.813)" fill="#fbc6a1"/>
        <path id="Path_610540" data-name="Path 610540" d="M45.016,127.407c0-3.491-.025-6.983.026-10.474.008-.545-.51-1.5.69-1.563,1.123-.063,2.241-.047,2.64,1.313a4.326,4.326,0,0,1,.077,1.192q.006,9.53.007,19.059a2.407,2.407,0,0,1-.624,2.056,2.372,2.372,0,0,1-2.285.355c-.815-.247-.515-1.054-.518-1.638-.023-3.434-.011-6.868-.011-10.3" transform="translate(-29.47 -75.649)" fill="#d55146"/>
        <path id="Path_610541" data-name="Path 610541" d="M18.935,247.185c-3.741,0-3.741,0-3.741-3.8,0-3.064,0-3.064,3.113-3.064,3.092,0,3.094,0,3.738,2.954.133.611.246,1.226.359,1.841.38,2.072.379,2.072-1.758,2.072h-1.71" transform="translate(-9.964 -157.603)" fill="#fbc6a1"/>
        <path id="Path_610542" data-name="Path 610542" d="M50.192,197.317c.244-.838-.965-2.048.563-2.507.323-.1.907-.491,1.043-.009.362,1.286-.8,1.8-1.606,2.516" transform="translate(-32.769 -127.599)" fill="#fbc6a1"/>
        <path id="Path_610543" data-name="Path 610543" d="M174.954,233.476a8.609,8.609,0,0,0-.012-1.37c-.256-1.569.362-2.056,1.933-1.967,1.133.064,1.645.243,1.549,1.5-.112,1.477-.053,2.97-.02,4.455.035,1.6-1.158.879-1.842.941s-1.721.421-1.619-.993c.061-.853.011-1.713.011-2.57" transform="translate(-114.692 -150.921)" fill="#030302"/>
        <path id="Path_610544" data-name="Path 610544" d="M198.425,233.579a11.63,11.63,0,0,0,.014,1.712c.213,1.415-.306,1.812-1.748,1.821-1.485.01-1.858-.465-1.736-1.846a36.33,36.33,0,0,0,.02-4.112c-.041-1.582,1.143-.9,1.83-.954s1.73-.445,1.63.979c-.056.8-.01,1.6-.01,2.4" transform="translate(-127.839 -150.901)" fill="#030302"/>
        <path id="Path_610545" data-name="Path 610545" d="M214.926,233.634a9.385,9.385,0,0,0-.013-1.541c-.273-1.615.432-2,1.955-1.947,1.17.045,1.625.294,1.527,1.525a23.884,23.884,0,0,0,0,4.109c.142,1.509-.8,1.333-1.71,1.3-.833-.035-1.958.375-1.776-1.216a19.6,19.6,0,0,0,.014-2.227" transform="translate(-140.904 -150.929)" fill="#030302"/>
        <path id="Path_610546" data-name="Path 610546" d="M238.451,233.687q0,.6,0,1.2c0,2.422,0,2.385-2.485,2.231-.751-.046-.987-.285-.97-1.011.038-1.6.078-3.2-.008-4.8-.082-1.527.991-1.081,1.731-1.072s1.859-.486,1.742,1.052c-.061.8-.011,1.6-.01,2.4" transform="translate(-154.105 -150.946)" fill="#030302"/>
        <path id="Path_610547" data-name="Path 610547" d="M258.392,233.573a11.88,11.88,0,0,0,.014,1.712c.208,1.4-.28,1.828-1.739,1.83s-1.872-.441-1.746-1.837a34.629,34.629,0,0,0,.019-4.111c-.046-1.58,1.131-.92,1.821-.963.672-.043,1.735-.462,1.64.97-.053.8-.01,1.6-.009,2.4" transform="translate(-167.166 -150.904)" fill="#030302"/>
        <path id="Path_610548" data-name="Path 610548" d="M178.424,263.341a11.986,11.986,0,0,0,.014,1.712c.2,1.388-.26,1.842-1.731,1.838-1.456,0-1.915-.423-1.749-1.829a24.877,24.877,0,0,0,.022-2.911c0-2.194.681-2.687,2.837-2.216.813.178.576.721.6,1.178.036.741.01,1.485.01,2.228" transform="translate(-114.718 -170.361)" fill="#030302"/>
        <path id="Path_610549" data-name="Path 610549" d="M198.413,263.341a11.983,11.983,0,0,0,.014,1.712c.2,1.388-.26,1.842-1.731,1.838-1.456,0-1.915-.423-1.749-1.829a24.874,24.874,0,0,0,.022-2.911c0-2.194.681-2.687,2.837-2.216.813.178.576.721.6,1.178.036.741.01,1.485.01,2.228" transform="translate(-127.827 -170.361)" fill="#030302"/>
        <path id="Path_610550" data-name="Path 610550" d="M214.926,263.617a9.385,9.385,0,0,0-.013-1.541c-.273-1.615.432-2,1.955-1.947,1.17.045,1.625.294,1.527,1.525a23.884,23.884,0,0,0,0,4.109c.142,1.509-.8,1.333-1.71,1.3-.833-.035-1.958.375-1.776-1.216a19.6,19.6,0,0,0,.014-2.227" transform="translate(-140.904 -170.592)" fill="#030302"/>
        <path id="Path_610551" data-name="Path 610551" d="M238.422,263.733a8.569,8.569,0,0,0,.011,1.37c.256,1.569-.362,2.056-1.933,1.967-1.133-.064-1.645-.243-1.55-1.5.112-1.477.053-2.97.021-4.454-.035-1.6,1.158-.88,1.842-.942s1.721-.421,1.619.993c-.061.853-.011,1.713-.01,2.57" transform="translate(-154.077 -170.551)" fill="#030302"/>
        <path id="Path_610552" data-name="Path 610552" d="M258.4,263.693a9.235,9.235,0,0,0,.013,1.541c.281,1.631-.455,1.988-1.963,1.94-1.182-.038-1.616-.31-1.52-1.533a23.885,23.885,0,0,0,0-4.11c-.145-1.524.821-1.314,1.717-1.287.838.026,1.958-.369,1.769,1.222a18.976,18.976,0,0,0-.015,2.227" transform="translate(-167.179 -170.655)" fill="#030302"/>
        <path id="Path_610553" data-name="Path 610553" d="M117.012,100.207a1.729,1.729,0,0,1,2,1.045c.511,1.053,1.93.854,2.7-.177a4.1,4.1,0,0,1,3.44-.83c.5.288.215.7.146,1.048a5.167,5.167,0,0,1-4.545,4.052,5.287,5.287,0,0,1-5.247-3.127c-.734-1.769-.575-2.011,1.508-2.012" transform="translate(-75.487 -65.658)" fill="#030302"/>
        <path id="Path_610554" data-name="Path 610554" d="M147.669,70.424a2.571,2.571,0,1,1-2.535,2.518,2.6,2.6,0,0,1,2.535-2.518" transform="translate(-95.18 -46.184)" fill="#030302"/>
      </g>
    </g>
  </g>
</svg>
