<svg xmlns="http://www.w3.org/2000/svg" xmlns:xlink="http://www.w3.org/1999/xlink" width="120" height="120" viewBox="0 0 120 120">
  <defs>
    <linearGradient id="linear-gradient" x1="0.5" x2="0.5" y2="1" gradientUnits="objectBoundingBox">
      <stop offset="0" stop-color="#fef5e5"/>
      <stop offset="0.137" stop-color="#fffefc"/>
      <stop offset="0.479" stop-color="#fff"/>
      <stop offset="0.773" stop-color="#fffefd"/>
      <stop offset="1" stop-color="#fef7ea"/>
    </linearGradient>
    <clipPath id="clip-path">
      <rect id="Rectangle_377883" data-name="Rectangle 377883" width="68" height="67.999" fill="url(#linear-gradient)"/>
    </clipPath>
  </defs>
  <g id="Group_1072916" data-name="Group 1072916" transform="translate(-180 -25310)">
    <g id="Group_1072070" data-name="Group 1072070" transform="translate(-89 24352)">
      <path id="Path_608972" data-name="Path 608972" d="M60,0A60,60,0,1,1,0,60,60,60,0,0,1,60,0Z" transform="translate(269 958)" fill="#0c5e46"/>
    </g>
    <g id="Group_1072658" data-name="Group 1072658" transform="translate(205 25336)">
      <g id="Group_1072657" data-name="Group 1072657" clip-path="url(#clip-path)">
        <path id="Path_610555" data-name="Path 610555" d="M46.773,29.832c-1.5-4.34-4.489-6.479-8.9-6.863V20.879A11.245,11.245,0,0,1,48.709,28.79c.2.679.514.839,1.188.846A20.746,20.746,0,0,1,70.106,45.473c.147.572.255,1.153.381,1.729,3.823-.871,6.137-3.829,6.916-8.795H79.46A11.258,11.258,0,0,1,71.53,49.258c-.608.18-.843.423-.827,1.094a19.532,19.532,0,0,1-2.239,9.5c-.243.473-.279.79.144,1.181.517.478.956,1.041,1.531,1.681l1.853-2.267,1.694,1.881-2.131,1.725c1.995,1.96,3.811,3.735,5.616,5.522,1.635,1.619,3.277,3.232,4.881,4.882a5.6,5.6,0,0,1,1.486,6.133,5.467,5.467,0,0,1-4.8,3.793,5.783,5.783,0,0,1-4.957-1.918Q69.1,77.76,64.4,73.072a10.408,10.408,0,0,1-.781-1.05l-1.88,2.315-1.783-1.755,2.19-1.78-2.209-2.067c-6.286,3.213-12.76,3.54-19.189.374-6.392-3.148-10.083-8.446-11.431-15.394-3.671.632-6.313,3.982-6.9,8.823H20.193a26.266,26.266,0,0,1,.669-3.562,11.034,11.034,0,0,1,7.37-7.339,1.037,1.037,0,0,0,.869-1.172,20.742,20.742,0,0,1,15.709-20.2c.606-.161,1.226-.27,1.963-.43M49.916,64.69A14.251,14.251,0,1,0,35.65,50.454,14.3,14.3,0,0,0,49.916,64.69M65.243,70.77c.242.253.455.486.679.709,3.275,3.27,6.534,6.556,9.838,9.8a3.445,3.445,0,0,0,3.933.588A3.544,3.544,0,0,0,80.471,76c-3.177-3.218-6.388-6.4-9.588-9.6-.218-.218-.454-.417-.668-.613L65.243,70.77M31.6,53.163a18.5,18.5,0,0,0,36.814-3.215l-1.988.356A16.647,16.647,0,0,1,51.7,66.794a16,16,0,0,1-10.271-2.283,16.542,16.542,0,0,1-7.814-11.7l-2.005.354M49.741,33.877c9.035.72,14.464,5.432,16.523,14.183l1.955-.378c-1.168-9.435-10.117-16.368-18.8-15.76l.318,1.955M31.389,50.932l1.953-.355c.722-9.02,5.435-14.448,14.168-16.5l-.325-1.9c-8.6.738-16.449,9.405-15.795,18.757M63.506,69.044l4.856-4.836-1.447-1.671.343.473-4.9,4.852-.278-.334,1.422,1.517" transform="translate(-15.902 -16.439)" fill="url(#linear-gradient)"/>
        <path id="Path_610556" data-name="Path 610556" d="M19.741,9.868A9.87,9.87,0,1,1,9.9,0a9.893,9.893,0,0,1,9.845,9.868M15.649,14.82a7.515,7.515,0,0,0-.618-10.61A7.642,7.642,0,0,0,3.978,4.99c-2.477,2.97-2.308,7.878.136,9.789l2.427-4.252c-1.488-2.052-1.428-4.352.307-6.009a4.227,4.227,0,0,1,5.691-.237,6.208,6.208,0,0,1,1.629,2.737,3.8,3.8,0,0,1-.938,3.493l2.419,4.308m-5.8,2.733c.5-.047.959-.06,1.411-.137,1.928-.33,2.313-.977,1.75-2.9a3.139,3.139,0,0,0-3.2-2.406,3.257,3.257,0,0,0-3.145,2.515c-.458,1.717-.065,2.4,1.644,2.758a14.733,14.733,0,0,0,1.542.169M9.822,9.815a2.155,2.155,0,0,0,2.251-2.066,2.2,2.2,0,0,0-4.407-.1A2.166,2.166,0,0,0,9.822,9.815" transform="translate(-0.001 0)" fill="url(#linear-gradient)"/>
        <path id="Path_610557" data-name="Path 610557" d="M246.846,9.821A9.87,9.87,0,1,1,236.951,0a9.892,9.892,0,0,1,9.894,9.821m-13.251.732c-1.41-2.909-1.211-4.943.807-6.414a4.439,4.439,0,0,1,5.565.347c1.753,1.636,1.825,3.742.372,6.051l2.4,4.274c1.91-1.771,2.5-5.288,1.222-8.082a7.68,7.68,0,0,0-14.506,1.6c-.487,2.272.279,5.488,1.78,6.437l2.362-4.216m3.458,7.009c.445-.067,1.1-.188,1.766-.262,1.175-.13,1.57-.736,1.466-1.92a3.41,3.41,0,0,0-2.8-3.247A3.215,3.215,0,0,0,233.81,14.6c-.519,1.872-.146,2.482,1.753,2.819.416.074.843.086,1.49.148M237,5.511a2.228,2.228,0,0,0-2.222,2.117,2.2,2.2,0,0,0,4.406.039A2.231,2.231,0,0,0,237,5.511" transform="translate(-178.849 0)" fill="url(#linear-gradient)"/>
        <path id="Path_610558" data-name="Path 610558" d="M9.822,227.112A9.87,9.87,0,1,1,0,237a9.89,9.89,0,0,1,9.822-9.891m-3.3,10.5a4.325,4.325,0,0,1,.276-5.932,4.212,4.212,0,0,1,5.6-.4,6.239,6.239,0,0,1,1.735,2.674,3.985,3.985,0,0,1-.891,3.682l2.383,4.273c2.66-2.268,2.591-7.384-.309-10.314a7.677,7.677,0,0,0-11.3.442c-2.868,3.31-1.929,8.455.1,9.854l2.4-4.28m3.341,7.044c.514-.05,1.047-.066,1.567-.159,1.659-.3,2.042-.872,1.692-2.53a3.287,3.287,0,0,0-2.532-2.7,3.245,3.245,0,0,0-3.427,1.372c-1.382,2.021-.649,3.676,1.736,3.917l.965.1m.04-7.677A2.186,2.186,0,0,0,9.89,232.6a2.187,2.187,0,1,0,.011,4.373" transform="translate(0 -178.853)" fill="url(#linear-gradient)"/>
        <path id="Path_610559" data-name="Path 610559" d="M103.349,117.482h6.519v5.371h2.178V108.727h6.638v14.129h2.2v-9.75H127.4v11.928H103.349Zm11,5.381H116.4V110.936h-2.046Zm10.8-7.587H123.1v7.588h2.06Zm-17.514,4.437h-2.016v3.162h2.016Z" transform="translate(-81.389 -85.624)" fill="url(#linear-gradient)"/>
      </g>
    </g>
  </g>
</svg>
