<svg xmlns="http://www.w3.org/2000/svg" xmlns:xlink="http://www.w3.org/1999/xlink" width="142" height="142" viewBox="0 0 142 142">
  <defs>
    <clipPath id="clip-path">
      <rect id="Rectangle_377888" data-name="Rectangle 377888" width="93.878" height="93.866" fill="none"/>
    </clipPath>
  </defs>
  <g id="Group_1072674" data-name="Group 1072674" transform="translate(-269.001 -958.001)">
    <circle id="Ellipse_5614" data-name="Ellipse 5614" cx="71" cy="71" r="71" transform="translate(269.001 958.001)" fill="#fff"/>
    <g id="Group_1072677" data-name="Group 1072677" transform="translate(291.001 980.601)">
      <g id="Group_1072676" data-name="Group 1072676" clip-path="url(#clip-path)">
        <path id="Path_610565" data-name="Path 610565" d="M130.622,146.152c0,6.148,0,12.156,0,18.164,0,2.119-.252,2.364-2.354,2.366-2.785,0-5.571-.02-8.356.009-1.352.014-1.974-.605-1.973-1.941q.008-13.781.009-27.562c0-1.484.521-2.008,2.071-1.941,1.18.051,1.566-.06,1.212-1.454-2.369-9.326,1.059-17.726,9.27-22.929a1.414,1.414,0,0,0,.775-1.4c-.041-1.416-.032-2.834-.007-4.251.028-1.648.475-2.11,2.085-2.124q3.445-.032,6.89,0c1.521.017,2,.523,2.026,2.023.019.924-.247,2.009.148,2.728s1.611.338,2.442.559a6.168,6.168,0,0,1,1.266.341c3.736,1.935,7.768,1.455,11.738,1.477,1.124.006,2.248.009,3.372,0,1.046-.008,1.758.473,1.729,1.533-.027.978-.733,1.418-1.707,1.415-2.183-.006-4.367,0-6.879,0a22.536,22.536,0,0,1,3.912,4.829,20.035,20.035,0,0,1,.42,19.974c-.4.782-.481,1.258.254,1.83a21.428,21.428,0,0,1,1.795,1.721c.819.808,1.493,1.7,2.967,1.264.789-.232,1.653.374,2.317,1.024,3.317,3.245,6.67,6.453,9.976,9.709,1.582,1.558,1.579,3.243.057,4.885q-1.643,1.773-3.359,3.478a3.19,3.19,0,0,1-4.9.019c-3.272-3.151-6.511-6.336-9.782-9.488a3.254,3.254,0,0,1-1.2-3.378.72.72,0,0,0-.2-.789c-1.086-1.054-2.177-2.1-3.242-3.177-.374-.377-.676-.214-1.013.007A5.96,5.96,0,0,1,150.9,146c-2.349.647-2.613,2.25-2.534,4.41.169,4.636.056,9.283.05,13.926,0,1.908-.433,2.345-2.295,2.349q-4.1.009-8.21,0c-1.853,0-2.2-.347-2.205-2.247-.011-5.033-.024-10.067.015-15.1.007-.906-.175-1.372-1.15-1.635a37.175,37.175,0,0,1-3.947-1.547m-7.2-17.782a17.366,17.366,0,1,0,17.373-17.4,17.486,17.486,0,0,0-17.373,17.4m-2.548,22.5c0,3.91.024,7.82-.019,11.73-.009.856.145,1.217,1.105,1.163a46.651,46.651,0,0,1,4.69,0c.867.038,1.04-.283,1.037-1.084-.031-5.963-.017-11.926-.015-17.889a1.406,1.406,0,0,0-.365-1.208,20.689,20.689,0,0,1-4.082-4.951c-.5-.836-1.337-.478-1.987-.407-.7.077-.344.8-.347,1.213-.029,3.812-.017,7.625-.017,11.437m24.591,5.253c0-2.247-.028-4.495.014-6.741.016-.851-.073-1.218-1.115-1.006a14.359,14.359,0,0,1-4.8.344c-.753-.1-.92.218-.917.884.015,4.4.025,8.794-.008,13.19-.006.819.336.972,1.05.953,1.562-.04,3.13-.073,4.688.011.968.052,1.127-.34,1.107-1.186-.051-2.148-.017-4.3-.017-6.448m18.174-10.409a6.312,6.312,0,0,0-.575.464c-.988,1.014-1.939,2.065-2.959,3.044-.613.588-.2.9.193,1.283,3.087,2.986,6.182,5.963,9.243,8.975.538.529.887.59,1.409.01.88-.979,1.786-1.942,2.75-2.838.612-.569.413-.9-.086-1.383-3.1-2.974-6.175-5.971-9.261-8.958-.205-.2-.439-.368-.713-.6M136.81,106.019a11.3,11.3,0,0,0-1.315.011c-.436.051-1.13-.295-1.231.39a5.671,5.671,0,0,0,.089,2.44c.106.341.861-.107,1.323-.182.91-.15,1.812-.386,2.727-.455,1.027-.078.908-.741.936-1.432.035-.856-.523-.775-1.066-.772-.488,0-.976,0-1.463,0m23.142,38.907a7.041,7.041,0,0,0-.494-.6c-.753-.755-1.531-1.486-2.274-2.251-.48-.494-.842-.651-1.406-.026-.519.577-.478.921.064,1.406.83.743,1.6,1.551,2.414,2.316.227.214.458.593.844.247a2.244,2.244,0,0,0,.852-1.088" transform="translate(-83.331 -72.827)" fill="#060505"/>
        <path id="Path_610566" data-name="Path 610566" d="M.008,20.674a20.654,20.654,0,1,1,20.7,20.646A20.678,20.678,0,0,1,.008,20.674m19.168-7.209c0-3.575,0-5.968,0-8.361,0-2.246-.075-2.3-2.293-1.765a17.734,17.734,0,0,0-13.233,22.2C6.375,35.481,17.755,41.048,27.187,37.1c.9-.379,1.093-.645.549-1.521-1.439-2.317-2.633-4.8-4.2-7.023-3.454-4.921-5.594-10.125-4.366-15.088m10.982,5.711v.016c2.346,0,4.692-.026,7.037.014.838.014,1.062-.227.975-1.092-.729-7.262-7.776-14.3-14.958-14.959-.874-.08-1.113.118-1.109.96q.036,7.038,0,14.076c0,.781.269,1.009,1.022,1,2.345-.037,4.691-.013,7.037-.013m.632,2.955v-.022H24.353c-.572,0-1.187-.063-.655.835q3.386,5.717,6.741,11.453c.335.574.6.605,1.112.187a17.882,17.882,0,0,0,6.607-11.337c.167-1.009-.234-1.146-1.077-1.13-2.1.039-4.194.013-6.29.013" transform="translate(-0.006 -0.007)" fill="#060505"/>
        <path id="Path_610567" data-name="Path 610567" d="M57.772,189.039q0-10.04,0-20.08c0-2.013.253-2.261,2.3-2.266,2.785-.007,5.57-.014,8.354,0,1.654.01,2,.354,2,1.969q.009,20.447,0,40.894c0,1.636-.432,2.063-2.079,2.07q-4.25.017-8.5,0c-1.649-.007-2.079-.43-2.081-2.069q-.012-10.26,0-20.52m9.716.157V172.19c0-2.56,0-2.593-2.631-2.546-1.348.024-3.14-.606-3.915.278-.664.757-.226,2.506-.227,3.816-.008,11.142.013,22.283-.031,33.424,0,1.163.186,1.68,1.481,1.548a20.7,20.7,0,0,1,3.807,0c1.183.1,1.565-.209,1.549-1.479-.075-6.01-.034-12.021-.034-18.031" transform="translate(-40.82 -117.776)" fill="#060505"/>
        <path id="Path_610568" data-name="Path 610568" d="M0,213.834Q0,205.915,0,198c0-1.858.372-2.229,2.212-2.232,2.835-.005,5.67.034,8.5-.016,1.375-.024,1.946.546,1.944,1.912q-.027,16.277,0,32.554c0,1.349-.521,1.979-1.9,1.963-2.932-.034-5.865,0-8.8-.016-1.525-.009-1.956-.463-1.959-2.05q-.015-8.138,0-16.277m2.951.038c0,4.684.019,9.369-.017,14.053-.007.891.134,1.326,1.173,1.261,1.507-.095,3.025-.06,4.536-.009.744.025,1.007-.167,1.006-.964q-.037-14.273.006-28.546c0-.812-.319-.98-1.036-.961-1.463.04-2.931.077-4.39-.011-1.01-.06-1.317.221-1.3,1.269.06,4.635.026,9.271.026,13.907" transform="translate(0 -138.311)" fill="#060505"/>
        <path id="Path_610569" data-name="Path 610569" d="M228.971,106.483q6.512,0,13.024.005a7.235,7.235,0,0,1,1.45.126,1.257,1.257,0,0,1,1.031,1.395,1.222,1.222,0,0,1-.993,1.277,7.357,7.357,0,0,1-1.447.136q-13.171.011-26.342,0c-.341,0-.684.006-1.023-.022a1.415,1.415,0,0,1-1.464-1.5,1.373,1.373,0,0,1,1.425-1.384c.973-.045,1.95-.036,2.925-.037q5.707-.005,11.415,0" transform="translate(-150.646 -75.238)" fill="#060505"/>
        <path id="Path_610570" data-name="Path 610570" d="M174.346,5.5c0,1.218-.021,2.437.006,3.654S173.832,11,172.622,11c-2.534.011-5.067.007-7.6,0a1.491,1.491,0,0,1-1.659-1.624q-.048-3.873,0-7.747A1.485,1.485,0,0,1,165.012,0c2.534,0,5.068-.007,7.6,0,1.205,0,1.76.639,1.738,1.84-.023,1.218,0,2.436-.005,3.655m-5.491-2.562c-2.578,0-2.578,0-2.578,2.434,0,2.7,0,2.7,2.641,2.7,2.491,0,2.491,0,2.491-2.54,0-2.592,0-2.592-2.554-2.592" transform="translate(-115.41 0)" fill="#060505"/>
        <path id="Path_610571" data-name="Path 610571" d="M168.8,62.7c-1.218,0-2.437-.035-3.653.01a1.506,1.506,0,0,1-1.789-1.62c-.045-2.581-.038-5.163-.006-7.745a1.46,1.46,0,0,1,1.662-1.6c2.533.016,5.066.009,7.6,0,1.23,0,1.744.617,1.732,1.821-.025,2.435-.017,4.871,0,7.307.007,1.286-.612,1.86-1.888,1.827-1.217-.031-2.435-.007-3.653-.007m2.6-5.385c0-2.624,0-2.624-2.692-2.624h-.146c-2.3,0-2.3,0-2.3,2.307,0,2.765,0,2.765,2.707,2.765,2.426,0,2.426,0,2.426-2.448" transform="translate(-115.402 -36.566)" fill="#060505"/>
        <path id="Path_610572" data-name="Path 610572" d="M228.86,6.08c-4.49,0-8.979-.015-13.469.011-1.071.006-2.124-.138-2.144-1.394-.022-1.312,1.031-1.565,2.173-1.563q13.469.019,26.938,0c.993,0,1.9.142,2.136,1.3.2,1-.513,1.627-1.871,1.632-4.587.016-9.174.006-13.762.006" transform="translate(-150.675 -2.214)" fill="#060505"/>
        <path id="Path_610573" data-name="Path 610573" d="M228.843,54.9c4.539,0,9.078.011,13.617-.008,1.085,0,2.062.191,2.039,1.492s-1.021,1.461-2.092,1.46q-13.544-.016-27.088,0c-1.115,0-2.07-.289-2.053-1.515.017-1.242,1.013-1.453,2.107-1.446,4.49.029,8.98.012,13.471.012" transform="translate(-150.688 -38.779)" fill="#060505"/>
        <path id="Path_610574" data-name="Path 610574" d="M221.736,27.052c-2.248,0-4.5-.023-6.743.01-1.078.016-1.757-.488-1.737-1.51.019-.937.7-1.442,1.692-1.441q6.817.008,13.634,0c1.054,0,1.762.5,1.729,1.541s-.779,1.436-1.831,1.414c-2.247-.046-4.5-.014-6.743-.014" transform="translate(-150.681 -17.036)" fill="#060505"/>
        <path id="Path_610575" data-name="Path 610575" d="M221.66,78.776c-2.094,0-4.188-.032-6.281.013-1.106.024-2.073-.244-2.105-1.456s.888-1.521,2.019-1.511q6.5.057,13,0c1.123-.009,2.044.259,2.022,1.5s-.985,1.484-2.083,1.465c-2.19-.039-4.382-.011-6.573-.011" transform="translate(-150.694 -53.573)" fill="#060505"/>
        <path id="Path_610576" data-name="Path 610576" d="M136.635,147.382A17.366,17.366,0,1,1,154,164.844a17.386,17.386,0,0,1-17.366-17.461m17.382,15.165a15.191,15.191,0,1,0-15.226-15.231,15.145,15.145,0,0,0,15.226,15.231" transform="translate(-96.543 -91.839)" fill="#f5f5f5"/>
        <path id="Path_610577" data-name="Path 610577" d="M127.782,235.181c0-3.812-.012-7.625.017-11.437,0-.416-.352-1.136.347-1.212.65-.072,1.483-.43,1.987.407a20.7,20.7,0,0,0,4.082,4.951,1.406,1.406,0,0,1,.365,1.208c0,5.963-.016,11.926.015,17.889,0,.8-.169,1.122-1.037,1.084a46.644,46.644,0,0,0-4.69,0c-.96.055-1.114-.307-1.105-1.163.043-3.91.019-7.82.019-11.73" transform="translate(-90.238 -157.139)" fill="#fadb73"/>
        <path id="Path_610578" data-name="Path 610578" d="M195.316,265.077c0,2.15-.034,4.3.017,6.448.02.846-.139,1.238-1.107,1.187-1.559-.083-3.126-.05-4.688-.011-.714.018-1.056-.134-1.05-.953.033-4.4.023-8.793.008-13.19,0-.666.164-.986.917-.884a14.375,14.375,0,0,0,4.8-.344c1.042-.212,1.131.154,1.115,1.005-.042,2.246-.014,4.494-.014,6.741" transform="translate(-133.181 -181.781)" fill="#fb606b"/>
        <path id="Path_610579" data-name="Path 610579" d="M264.434,248.4c.275.228.508.4.713.6,3.087,2.986,6.163,5.984,9.261,8.958.5.479.7.814.086,1.383-.964.9-1.87,1.858-2.75,2.838-.522.581-.871.52-1.409-.009-3.06-3.012-6.156-5.989-9.242-8.975-.4-.384-.806-.695-.193-1.283,1.02-.979,1.971-2.03,2.959-3.044a6.31,6.31,0,0,1,.575-.464" transform="translate(-184.124 -175.513)" fill="#fadb73"/>
        <path id="Path_610580" data-name="Path 610580" d="M175.911,113.045c.488,0,.975,0,1.463,0,.543,0,1.1-.083,1.067.772-.028.691.091,1.353-.936,1.431-.915.07-1.817.306-2.727.455-.462.076-1.217.523-1.323.182a5.676,5.676,0,0,1-.09-2.44c.1-.685.8-.338,1.231-.389a11.294,11.294,0,0,1,1.315-.011" transform="translate(-122.433 -79.853)" fill="#fb606b"/>
        <path id="Path_610581" data-name="Path 610581" d="M250.192,237.794a2.244,2.244,0,0,1-.852,1.088c-.386.347-.617-.032-.844-.247-.811-.765-1.584-1.573-2.414-2.316-.542-.485-.583-.829-.064-1.405.563-.626.925-.469,1.406.026.743.765,1.521,1.5,2.274,2.251a7.052,7.052,0,0,1,.494.6" transform="translate(-173.572 -165.695)" fill="#807380"/>
        <path id="Path_610582" data-name="Path 610582" d="M26.323,20.805c-1.227,4.962.913,10.167,4.366,15.088,1.562,2.226,2.756,4.706,4.2,7.023.544.875.354,1.142-.549,1.521C24.9,48.389,13.522,42.822,10.8,32.88a17.734,17.734,0,0,1,13.233-22.2c2.218-.537,2.292-.482,2.293,1.765,0,2.393,0,4.785,0,8.361" transform="translate(-7.153 -7.348)" fill="#85c5fc"/>
        <path id="Path_610583" data-name="Path 610583" d="M83.353,26.713c-2.346,0-4.692-.023-7.037.013-.753.012-1.027-.217-1.022-1q.044-7.038,0-14.076c0-.843.235-1.04,1.109-.96,7.182.656,14.229,7.7,14.958,14.959.087.865-.137,1.106-.975,1.092-2.345-.04-4.692-.014-7.037-.014v-.016" transform="translate(-53.201 -7.544)" fill="#fadb73"/>
        <path id="Path_610584" data-name="Path 610584" d="M87.348,75.345c2.1,0,4.194.026,6.29-.013.843-.016,1.244.121,1.077,1.13A17.882,17.882,0,0,1,88.109,87.8c-.516.418-.777.387-1.112-.187q-3.348-5.739-6.741-11.453c-.532-.9.082-.835.655-.835h6.437v.022" transform="translate(-56.563 -53.221)" fill="#fb606b"/>
        <path id="Path_610585" data-name="Path 610585" d="M74.239,195.852c0,6.01-.042,12.022.034,18.031.016,1.27-.366,1.579-1.549,1.479a20.7,20.7,0,0,0-3.807,0c-1.3.132-1.486-.386-1.482-1.548.044-11.141.023-22.283.031-33.424,0-1.31-.437-3.059.227-3.816.775-.883,2.567-.253,3.915-.278,2.63-.047,2.631-.014,2.631,2.546v17.006" transform="translate(-47.571 -124.432)" fill="#85c5fc"/>
        <path id="Path_610586" data-name="Path 610586" d="M10,220.953c0-4.635.034-9.272-.026-13.907-.013-1.048.293-1.329,1.3-1.269,1.459.087,2.927.05,4.39.011.718-.019,1.039.149,1.036.961q-.04,14.273-.006,28.546c0,.8-.261.989-1.006.964-1.511-.051-3.029-.086-4.536.009-1.039.065-1.18-.371-1.173-1.261.036-4.684.017-9.369.017-14.053" transform="translate(-7.046 -145.392)" fill="#85c5fc"/>
        <path id="Path_610587" data-name="Path 610587" d="M175.932,10.015c2.554,0,2.554,0,2.554,2.592,0,2.54,0,2.54-2.491,2.54-2.641,0-2.641,0-2.641-2.7,0-2.434,0-2.434,2.578-2.434" transform="translate(-122.488 -7.076)" fill="#85c5fc"/>
        <path id="Path_610588" data-name="Path 610588" d="M178.484,64.4c0,2.448,0,2.448-2.426,2.448-2.707,0-2.707,0-2.707-2.765,0-2.307,0-2.307,2.3-2.307h.146c2.692,0,2.692,0,2.692,2.623" transform="translate(-122.486 -43.649)" fill="#fadb73"/>
        <path id="Path_610589" data-name="Path 610589" d="M159.209,167.813a15.191,15.191,0,1,1,15.219-15.1,15.137,15.137,0,0,1-15.219,15.1m-.291-27.391a10.684,10.684,0,0,0-3.1.42,12.293,12.293,0,0,0-7.583,17.268c.17.321.216.84.689.844.41,0,.427-.479.589-.757A10.653,10.653,0,0,1,153.7,154c.78-.415.744-.709.263-1.4a5.679,5.679,0,0,1-1.044-4.3,6.3,6.3,0,0,1,11.393-2.889,6.069,6.069,0,0,1,.072,7.249c-.547.828-.207,1.017.417,1.374a11.024,11.024,0,0,1,4,3.995c.192.321.255.867.686.854.508-.015.575-.609.75-.978a12.248,12.248,0,0,0-11.319-17.488m.313,24.44a11.738,11.738,0,0,0,6.921-2.084,1.465,1.465,0,0,0,.687-2.053,8.2,8.2,0,0,0-7.866-5.247,8.113,8.113,0,0,0-7.454,5.4,1.3,1.3,0,0,0,.613,1.806,11.87,11.87,0,0,0,7.1,2.177m.04-19.077a3.41,3.41,0,0,0-3.458,3.234,3.517,3.517,0,0,0,3.389,3.493,3.41,3.41,0,0,0,3.338-3.353,3.3,3.3,0,0,0-3.269-3.374" transform="translate(-101.735 -97.105)" fill="#060505"/>
        <path id="Path_610590" data-name="Path 610590" d="M165.99,147.612A12.248,12.248,0,0,1,177.31,165.1c-.175.369-.242.963-.75.978-.432.013-.494-.533-.686-.854a11.024,11.024,0,0,0-4-3.995c-.624-.357-.964-.546-.417-1.374a6.069,6.069,0,0,0-.072-7.249,6.3,6.3,0,0,0-11.393,2.889,5.68,5.68,0,0,0,1.044,4.3c.481.687.517.981-.263,1.4a10.652,10.652,0,0,0-4.19,4.2c-.161.277-.179.761-.588.757-.473,0-.52-.523-.689-.844a12.293,12.293,0,0,1,7.584-17.268,10.679,10.679,0,0,1,3.1-.42" transform="translate(-108.806 -104.295)" fill="#807380"/>
        <path id="Path_610591" data-name="Path 610591" d="M177.03,208.321a11.868,11.868,0,0,1-7.1-2.177,1.3,1.3,0,0,1-.613-1.806,8.112,8.112,0,0,1,7.454-5.4,8.2,8.2,0,0,1,7.866,5.247,1.464,1.464,0,0,1-.687,2.053,11.732,11.732,0,0,1-6.921,2.084" transform="translate(-119.533 -140.563)" fill="#85c5fc"/>
        <path id="Path_610592" data-name="Path 610592" d="M187.754,165.9a3.3,3.3,0,0,1,3.269,3.374,3.41,3.41,0,0,1-3.338,3.353,3.517,3.517,0,0,1-3.389-3.493,3.41,3.41,0,0,1,3.458-3.234" transform="translate(-130.217 -117.224)" fill="#f5f5f5"/>
      </g>
    </g>
  </g>
</svg>
