<svg xmlns="http://www.w3.org/2000/svg" xmlns:xlink="http://www.w3.org/1999/xlink" width="142" height="142" viewBox="0 0 142 142">
  <defs>
    <clipPath id="clip-path">
      <rect id="Rectangle_377889" data-name="Rectangle 377889" width="100.354" height="100.399" fill="none"/>
    </clipPath>
  </defs>
  <g id="Group_1072675" data-name="Group 1072675" transform="translate(-269.001 -958.001)">
    <circle id="Ellipse_5614" data-name="Ellipse 5614" cx="71" cy="71" r="71" transform="translate(269.001 958.001)" fill="#fff"/>
    <g id="Group_1072679" data-name="Group 1072679" transform="translate(289.824 978.801)">
      <g id="Group_1072678" data-name="Group 1072678" clip-path="url(#clip-path)">
        <path id="Path_610593" data-name="Path 610593" d="M60.129,161.738l-4.983.055c.119-1.278-.279-1.732-1.732-1.725-13.988.075-27.977.035-41.966.065-1.053,0-1.548-.092-1.546-1.385q.069-31.266.006-62.531c0-1.137.359-1.355,1.407-1.352q19.478.05,38.956-.014c1.343-.006,1.535.445,1.5,1.609-.081,2.617-.04,5.238-.02,7.857.014,1.753.531,2.26,2.31,2.273,2.564.019,5.132.09,7.689-.029,1.384-.065,1.744.306,1.738,1.714-.06,13.376,0,26.751-.08,40.127-.008,1.453.446,1.852,1.725,1.733q0,1.647,0,3.294a14.456,14.456,0,0,0-7.22,3.48c-1.181,1.139-1.193,1.96.024,3.076.688.631,1.459,1.173,2.192,1.756m-43.5-49.5c0-2.135-.116-4.035.037-5.912.122-1.489-.661-1.447-1.684-1.415-.946.03-1.781-.2-1.741,1.361.117,4.624.042,9.253.042,13.88,0,2.927.237,3.171,3.095,3.171H50.155c2.9,0,5.8.009,8.7-.01.412,0,1.1.236,1.178-.281a6.409,6.409,0,0,0-.049-2.8c-.175-.565-1.108-.239-1.693-.24q-19.9-.024-39.8-.012l-1.171,0a.6.6,0,0,1-.7-.509c-.532-1.932.265-3.366,1.883-4.465a5.114,5.114,0,0,1,6.509.154,18.875,18.875,0,0,0,2.07,1.072,1.973,1.973,0,0,0,2.965-.8c1.348-2.111,2.8-4.153,4.139-6.271.611-.969.966-1.152,1.653-.042,1.317,2.129,2.745,4.19,4.152,6.263,1.075,1.584,1.97,1.665,3.36.308,1.435-1.4,2.868-2.808,4.248-4.263.6-.63,1-.653,1.6-.008,1.217,1.3,2.583,2.47,3.743,3.818.894,1.039,1.433.6,2.056-.18.518-.647,1.7-1.037.437-2.177-1.9-1.717-3.667-3.582-5.458-5.415-1.073-1.1-2.063-1.135-3.142-.013-1.275,1.325-2.654,2.553-3.88,3.921-.834.929-1.246.665-1.818-.23q-2.2-3.448-4.522-6.818c-1-1.45-2.176-1.443-3.189-.01-.9,1.273-1.729,2.595-2.6,3.884-1,1.469-1.734,3.668-3.1,4.183-1.4.528-3.148-1.211-4.724-1.992a2.672,2.672,0,0,0-2.686-.006c-1.154.633-2.351,1.188-3.692,1.857m21.595,37.842a10.034,10.034,0,1,0-9.884-10.27,10.049,10.049,0,0,0,9.884,10.27m-5.048,6.693c6.29,0,12.581-.058,18.869.042,1.5.024,1.4-.712,1.392-1.7-.012-.962.159-1.733-1.371-1.724q-18.7.108-37.4,0c-1.5-.008-1.4.71-1.392,1.7.013.962-.161,1.75,1.372,1.725,6.177-.1,12.356-.042,18.534-.042M20.935,126.663c-2.166,0-4.338.1-6.5-.034-1.437-.087-1.221.791-1.139,1.575.075.717-.608,1.853,1.045,1.827,4.331-.067,8.664-.046,12.995-.011,1.677.014.848-1.2.962-1.893.118-.714.286-1.554-1.037-1.491-2.106.1-4.22.027-6.33.027m-1.071,23.416c1.887,0,3.78-.087,5.661.028,1.428.087,1.181-.822,1.115-1.595-.063-.729.572-1.841-1.071-1.805-3.717.083-7.44.088-11.157-.006-1.424-.035-1.18.825-1.113,1.6.063.728-.574,1.887,1.071,1.8,1.827-.1,3.663-.022,5.5-.022M54.4,126.663c-1.665,0-3.332.057-4.993-.016-1.533-.068-.959,1.034-.978,1.71-.02.7-.488,1.714,1.017,1.676,3.216-.08,6.436-.019,9.655-.032.348,0,.758.153.986-.35a1.987,1.987,0,0,0-1.859-2.987H54.4m-35.226,6.69c-1.554,0-3.116.1-4.659-.03-1.308-.111-1.356.6-1.227,1.491.111.766-.616,1.966,1.138,1.912,3.16-.1,6.326-.083,9.487,0,1.65.041.979-1.1,1.05-1.82.076-.777.31-1.7-1.131-1.577-1.542.13-3.1.029-4.658.029m-.051,10.036c1.61,0,3.222-.066,4.827.019,1.516.08,1.012-.995,1.005-1.685s.534-1.734-.991-1.7q-4.825.1-9.654,0c-1.515-.035-1.012,1-1.006,1.688s-.534,1.773.992,1.7c1.6-.079,3.217-.018,4.826-.017m35.86,6.69c1.331,0,2.67-.089,3.991.024,1.426.122,1.181-.818,1.113-1.589-.064-.727.576-1.861-1.067-1.8-2.6.091-5.216.1-7.817-.006-1.424-.058-1.18.824-1.112,1.6.064.726-.576,1.912,1.067,1.8,1.269-.088,2.55-.018,3.825-.017m.984-16.726a19.973,19.973,0,0,1-2.657-.022c-1.379-.186-1.66.414-1.6,1.654.054,1.074-.037,1.893,1.514,1.752a36.541,36.541,0,0,1,5.481-.01c1.221.074,1.406-.385,1.445-1.491.051-1.444-.264-2.155-1.86-1.9a15.165,15.165,0,0,1-2.325.02m.081,10.036a17.057,17.057,0,0,1,2.656.024c1.7.271,1.33-.86,1.423-1.818.114-1.187-.181-1.679-1.5-1.584a41.68,41.68,0,0,1-5.482,0c-1.22-.074-1.407.384-1.446,1.491-.05,1.442.262,2.15,1.861,1.906a16.643,16.643,0,0,1,2.49-.022M16.564,99.864c.456-1.416-.265-1.652-1.585-1.681-1.336-.029-1.785.266-1.757,1.695.027,1.326.273,1.816,1.706,1.747,1.256-.06,2.087-.16,1.636-1.761m4.952,1.673c1.27.26,1.938,0,1.846-1.532-.071-1.184-.04-1.947-1.619-1.825-1.178.09-1.973.043-1.816,1.623.112,1.125-.076,2.207,1.589,1.735m6.69,0c1.27.26,1.937,0,1.846-1.532-.071-1.184-.04-1.947-1.619-1.825-1.179.09-1.974.043-1.816,1.623.112,1.125-.075,2.207,1.589,1.735" transform="translate(-6.588 -63.104)" fill="#59c5d3"/>
        <path id="Path_610594" data-name="Path 610594" d="M58.545,130.148c-1.278.119-1.733-.28-1.724-1.733.076-13.375.021-26.751.08-40.127.006-1.408-.354-1.779-1.738-1.714-2.558.12-5.126.048-7.689.029-1.779-.013-2.3-.519-2.31-2.272-.021-2.619-.061-5.241.02-7.857.036-1.164-.156-1.615-1.5-1.609q-19.478.089-38.956.014c-1.048,0-1.41.215-1.408,1.352q.054,31.266-.006,62.531c0,1.294.494,1.388,1.546,1.385,13.988-.029,27.977.01,41.966-.064,1.453-.008,1.851.447,1.732,1.724.146,1.29-.273,1.717-1.71,1.71-14.706-.071-29.412-.043-44.118-.045-2.323,0-2.728-.4-2.728-2.688q0-36.6,0-73.2c0-2.322.4-2.717,2.691-2.724l19.047-.054,8.372.006H45.848q5.923.025,11.846.051c2.058.012,2.5.474,2.525,2.572q.03,3,.062,6,0,12.44,0,24.88,0,12.544,0,25.089c-.02,1.64-.139,3.286-.029,4.917.091,1.347-.2,2.073-1.7,1.82M56.853,80.935c0-4.041-.077-7.542.037-11.037.047-1.427-.384-1.712-1.748-1.708-15.106.052-30.213.033-45.319.033-1.784,0-3.568-.008-5.351.007-.367,0-.969-.175-1.035.262a7.105,7.105,0,0,0,0,2.655c.185.763,1.046.376,1.588.377q20.4.034,40.8,0a3.735,3.735,0,0,1,2.948,1.212c2.542,2.648,5.147,5.236,8.08,8.2M54.11,83.249l-5.593-5.524c0,1.588.021,3.185-.011,4.781-.012.6.227.761.785.752,1.591-.025,3.183-.009,4.819-.009" transform="translate(0 -43.119)" fill="#010101"/>
        <path id="Path_610595" data-name="Path 610595" d="M61.494,18.456c-1.287.144-1.908-.257-1.7-1.713a28.8,28.8,0,0,0,.037-3.338A6.621,6.621,0,0,1,66.5,6.723c1.123-.014,1.681-.137,1.93-1.464C69.052,1.937,71.718.01,75.344.007Q92.727-.008,110.11,0c4.792,0,9.583-.008,14.374,0,3.947.009,6.368,1.913,7.164,5.8.175.854.51.88,1.179.9,4.814.154,7.278,2.735,7.279,7.6q.005,22.481,0,44.961c0,5-2.618,7.635-7.587,7.639-6.741,0-13.483.016-20.224-.014-1.107-.005-1.662,0-1.047,1.4a64.579,64.579,0,0,1,2.673,7.166,1.84,1.84,0,0,0,2.235,1.516c2.3-.1,2.239-.027,2.239,2.279,0,.972-.391,1.056-1.172,1.05-4.624-.032-9.248-.025-13.872-.031A11.734,11.734,0,0,0,103.3,78.6c-.241-1.413.321-1.8,1.7-1.7,1.9.13,3.808.032,5.928.032-1.155-3.034-2.3-5.74-3.2-8.525a1.811,1.811,0,0,0-2.24-1.507c-.686.068-1.778.366-2.022-.191a5.115,5.115,0,0,1-.1-2.766c.13-.751.934-.364,1.417-.365q13.95-.036,27.9,0a3.815,3.815,0,0,0,3.591-1.653c.606-.95.38-2.042.507-3.079.19-1.543-.229-2.035-1.912-2.018-9.967.1-19.936,0-29.9.1-1.464.013-1.825-.461-1.717-1.717-.122-1.28.277-1.742,1.731-1.729,8.359.075,16.719.007,25.079-.013,1.781.018,3.567-.029,5.342.079,1.132.069,1.377-.347,1.369-1.407-.042-6.349-.015-12.7-.014-19.049q0-9.608-.005-19.216c0-2.232-1.181-3.607-3.137-3.818-1.292-.14-1.925.04-1.912,1.695.09,12.253.016,24.508.092,36.761.009,1.45-.449,1.861-1.734,1.738-1.283.11-1.718-.309-1.71-1.749.075-13.7.048-27.41.042-41.115,0-2.708-1.21-4.019-3.77-4.022q-24.651-.023-49.3-.009c-2.511,0-3.778,1.3-3.792,3.831-.018,3.175-.1,6.355.038,9.524.061,1.417-.382,1.9-1.7,1.749-1.3.134-1.847-.293-1.717-1.743.163-1.822-.014-3.672.061-5.5.041-.989-.328-1.2-1.242-1.183-2.368.039-3.74,1.314-3.791,3.686a17.666,17.666,0,0,0,.024,3c.22,1.453-.416,1.871-1.706,1.75" transform="translate(-39.755 0)" fill="#010101"/>
        <path id="Path_610596" data-name="Path 610596" d="M153.8,264.8c-.733-.582-1.5-1.125-2.192-1.756-1.218-1.116-1.2-1.937-.024-3.076a14.454,14.454,0,0,1,7.22-3.479c10.03,0,20.06.01,30.091-.037.569,0,1.679.7,1.691-.789.011-1.279-.147-2.45-1.739-2.5-2.339-.072-4.681-.022-7.022-.023a19.429,19.429,0,0,0-2.672.022c-1.562.218-2.15-.241-2.014-1.922.09-1.105.238-1.513,1.454-1.478,3.285.094,6.575.018,9.864.036,3.386.019,5.432,1.985,5.429,5.378,0,1.145.366,1.333,1.4,1.335,3.14.007,5.32,2.111,5.319,4.99a5.006,5.006,0,0,1-5.32,5.011q-17.472.028-34.943.01A15.227,15.227,0,0,1,153.8,264.8m1.3-3.293a8.708,8.708,0,0,0,5.056,1.65c9.741.027,19.481-.02,29.222.044,1.55.01,1.161-.914,1.192-1.729.032-.882.211-1.678-1.255-1.668-9.684.066-19.37.019-29.055.039a8.738,8.738,0,0,0-5.16,1.664m38.837.116c.081.633-.405,1.714,1.167,1.571,1.19-.107,2.141-.417,2.108-1.755-.031-1.235-.953-1.517-2.069-1.629-1.522-.152-1.193.841-1.205,1.812" transform="translate(-100.259 -166.169)" fill="#010101"/>
        <path id="Path_610597" data-name="Path 610597" d="M183.3,164.926c-.108,1.256.253,1.731,1.717,1.718,9.967-.091,19.936,0,29.9-.1,1.684-.016,2.1.475,1.912,2.019-.128,1.037.1,2.129-.507,3.079a3.815,3.815,0,0,1-3.591,1.654q-13.949-.043-27.9,0c-.484,0-1.287-.386-1.417.365a5.115,5.115,0,0,0,.1,2.766c.244.557,1.336.259,2.022.191a1.811,1.811,0,0,1,2.241,1.508c.9,2.784,2.041,5.491,3.2,8.525-2.121,0-4.032.1-5.928-.033-1.381-.095-1.943.288-1.7,1.7a11.733,11.733,0,0,1,.054,1.666l-3.326.025q0-12.544,0-25.089l3.222,0" transform="translate(-119.806 -109.726)" fill="#dfdfdd"/>
        <path id="Path_610598" data-name="Path 610598" d="M64.951,38.37c1.29.12,1.926-.3,1.706-1.75a17.666,17.666,0,0,1-.024-3c.051-2.372,1.423-3.647,3.791-3.686.914-.015,1.283.194,1.242,1.183-.075,1.833.1,3.683-.061,5.5-.13,1.45.418,1.877,1.717,1.743v3.248l-8.372-.006V38.37" transform="translate(-43.212 -19.914)" fill="#348ed8"/>
        <path id="Path_610599" data-name="Path 610599" d="M23.248,128.9c1.34-.669,2.537-1.224,3.692-1.857a2.672,2.672,0,0,1,2.686.005c1.576.782,3.323,2.52,4.725,1.992,1.365-.515,2.1-2.714,3.1-4.183.876-1.29,1.705-2.612,2.6-3.884,1.013-1.433,2.192-1.44,3.189.01q2.316,3.372,4.522,6.818c.572.895.985,1.159,1.818.23,1.226-1.367,2.606-2.6,3.88-3.921,1.079-1.122,2.07-1.085,3.142.013,1.791,1.834,3.558,3.7,5.458,5.416,1.261,1.14.08,1.53-.437,2.177-.624.781-1.163,1.218-2.057.18-1.16-1.348-2.526-2.516-3.744-3.818-.6-.645-1.007-.622-1.6.008-1.38,1.455-2.812,2.862-4.248,4.263-1.391,1.358-2.285,1.277-3.36-.308-1.407-2.072-2.835-4.134-4.152-6.263-.687-1.111-1.041-.927-1.652.042-1.335,2.118-2.791,4.16-4.139,6.271a1.972,1.972,0,0,1-2.965.8,18.961,18.961,0,0,1-2.07-1.072,5.113,5.113,0,0,0-6.509-.154c-1.618,1.1-2.415,2.533-1.883,4.465a.6.6,0,0,0,.7.508c.39,0,.781,0,1.171,0q19.9,0,39.8.012c.585,0,1.518-.325,1.693.24a6.416,6.416,0,0,1,.049,2.8c-.081.516-.766.278-1.178.281-2.9.019-5.8.01-8.7.01H23c-2.858,0-3.095-.244-3.1-3.171,0-4.627.076-9.256-.042-13.88-.04-1.557.795-1.331,1.741-1.361,1.024-.032,1.807-.074,1.685,1.415-.154,1.877-.037,3.777-.037,5.912" transform="translate(-13.212 -79.766)" fill="#010101"/>
        <path id="Path_610600" data-name="Path 610600" d="M74.856,219.964a10.035,10.035,0,1,1,10.178-9.8,10.065,10.065,0,0,1-10.178,9.8m6.838-10.014c-.013-.669.089-1.537-.458-1.867-.527-.319-1.041.435-1.538.745-.991.617-1.95,1.287-2.924,1.93-.784.518-1.535,1.192-2.575.6-1.022-.586-.86-1.587-.865-2.522-.007-1.336-.066-2.676.017-4.007.078-1.263-.285-1.439-1.378-.871a6.7,6.7,0,1,0,9.722,6m-5.014-3.172c1.027-.715,2.362-.954,2.421-1.975.034-.591-1.526-1.485-2.081-1.117-.882.584-.234,1.844-.339,3.092" transform="translate(-43.226 -132.992)" fill="#010101"/>
        <path id="Path_610601" data-name="Path 610601" d="M39.847,273.12c-6.179,0-12.358-.06-18.535.042-1.533.025-1.359-.763-1.371-1.725-.013-.993-.108-1.712,1.392-1.7q18.7.107,37.4,0c1.53-.009,1.359.761,1.371,1.724.013.993.11,1.729-1.392,1.7-6.288-.1-12.579-.042-18.869-.042" transform="translate(-13.263 -179.455)" fill="#010101"/>
        <path id="Path_610602" data-name="Path 610602" d="M27.534,189.821c2.111,0,4.225.074,6.33-.027,1.323-.063,1.156.777,1.037,1.491-.115.69.715,1.907-.962,1.893-4.332-.035-8.665-.056-13,.011-1.652.026-.97-1.111-1.045-1.827-.082-.784-.3-1.662,1.139-1.575,2.158.131,4.33.034,6.5.034" transform="translate(-13.187 -126.262)" fill="#010101"/>
        <path id="Path_610603" data-name="Path 610603" d="M26.475,253.148c-1.832,0-3.668-.074-5.5.022-1.645.086-1.008-1.072-1.071-1.8-.067-.772-.311-1.634,1.113-1.6,3.717.093,7.44.088,11.157.006,1.643-.036,1.008,1.076,1.071,1.8.066.773.314,1.682-1.115,1.595-1.881-.115-3.773-.028-5.661-.028" transform="translate(-13.199 -166.173)" fill="#010101"/>
        <path id="Path_610604" data-name="Path 610604" d="M130.809,189.863h3.829a1.987,1.987,0,0,1,1.859,2.987c-.228.5-.638.349-.986.351-3.218.013-6.438-.048-9.654.032-1.506.037-1.038-.979-1.018-1.677.019-.676-.555-1.778.978-1.71,1.661.073,3.329.017,4.993.016" transform="translate(-82.995 -126.303)" fill="#010101"/>
        <path id="Path_610605" data-name="Path 610605" d="M25.8,209.805c1.554,0,3.116.1,4.659-.029,1.441-.122,1.207.8,1.131,1.577-.07.718.6,1.861-1.049,1.82-3.161-.078-6.327-.092-9.488,0-1.753.054-1.027-1.146-1.137-1.912-.129-.892-.082-1.6,1.226-1.492,1.543.131,3.1.031,4.659.031" transform="translate(-13.209 -139.556)" fill="#010101"/>
        <path id="Path_610606" data-name="Path 610606" d="M25.72,233.177c-1.609,0-3.221-.061-4.827.018-1.525.075-.984-1.016-.991-1.7s-.51-1.723,1.005-1.688q4.825.113,9.654,0c1.524-.033.984,1.019.991,1.7s.511,1.765-1.005,1.684c-1.6-.085-3.217-.019-4.827-.019" transform="translate(-13.183 -152.892)" fill="#010101"/>
        <path id="Path_610607" data-name="Path 610607" d="M134.736,253.147c-1.276,0-2.556-.071-3.825.018-1.644.114-1-1.072-1.067-1.8-.068-.772-.312-1.654,1.112-1.6,2.6.106,5.214.1,7.818.006,1.643-.057,1,1.078,1.067,1.8.068.772.314,1.712-1.113,1.59-1.321-.113-2.66-.024-3.991-.024" transform="translate(-86.339 -166.172)" fill="#010101"/>
        <path id="Path_610608" data-name="Path 610608" d="M139.068,209.75a15.116,15.116,0,0,0,2.324-.02c1.6-.251,1.912.46,1.861,1.9-.039,1.106-.224,1.565-1.446,1.491a36.486,36.486,0,0,0-5.481.01c-1.551.141-1.46-.679-1.514-1.752-.063-1.24.219-1.841,1.6-1.654a19.973,19.973,0,0,0,2.657.022" transform="translate(-89.686 -139.501)" fill="#010101"/>
        <path id="Path_610609" data-name="Path 610609" d="M139.127,233.136a16.6,16.6,0,0,0-2.49.022c-1.6.245-1.911-.463-1.861-1.905.039-1.107.226-1.565,1.446-1.491a41.672,41.672,0,0,0,5.482,0c1.321-.095,1.617.4,1.5,1.584-.093.959.278,2.09-1.423,1.818a17.052,17.052,0,0,0-2.656-.024" transform="translate(-89.664 -152.851)" fill="#010101"/>
        <path id="Path_610610" data-name="Path 610610" d="M23.159,106.487c.451,1.6-.381,1.7-1.636,1.761-1.433.069-1.68-.421-1.706-1.747-.028-1.428.421-1.723,1.757-1.694,1.32.028,2.041.264,1.585,1.681" transform="translate(-13.183 -69.727)" fill="#010101"/>
        <path id="Path_610611" data-name="Path 610611" d="M41.4,108.131c-1.664.472-1.477-.609-1.589-1.735-.157-1.579.638-1.532,1.817-1.623,1.578-.121,1.548.642,1.619,1.825.092,1.529-.576,1.792-1.846,1.532" transform="translate(-26.474 -69.698)" fill="#010101"/>
        <path id="Path_610612" data-name="Path 610612" d="M61.39,108.131c-1.665.472-1.478-.609-1.589-1.735-.157-1.579.637-1.532,1.816-1.623,1.578-.121,1.548.642,1.619,1.825.091,1.529-.576,1.792-1.846,1.532" transform="translate(-39.772 -69.698)" fill="#010101"/>
        <path id="Path_610613" data-name="Path 610613" d="M89.964,28.34V25.092c1.32.146,1.763-.332,1.7-1.749-.137-3.17-.056-6.349-.038-9.524.015-2.533,1.281-3.83,3.792-3.831q24.652-.012,49.3.01c2.56,0,3.769,1.314,3.77,4.022.006,13.705.033,27.41-.042,41.115-.008,1.44.428,1.859,1.71,1.749q0,1.609,0,3.218c-8.36.02-16.72.088-25.079.013-1.455-.013-1.853.449-1.731,1.729l-3.222,0q0-12.44,0-24.88l3.257,3.051c-1.232.819-1.22,1.535-.069,2.55,1.752,1.546,3.288,3.333,5.008,4.919.979.9.728,1.355-.274,1.928a19.748,19.748,0,0,1-4.112,1.8c-1.827.553-.39,1.709-.385,2.58s.444.954,1.305.73a18.4,18.4,0,1,0-16.5-31.984c-1.065.878-1.263,1.523-.2,2.426a14.053,14.053,0,0,0-2.469,3.38H89.964M141.749,21.7h1.162c2.411,0,2.557-.2,2.26-2.613-.072-.586-.276-.744-.814-.738-1.716.019-3.432.023-5.148,0-.59-.008-.7.251-.762.789-.268,2.463-.2,2.564,2.305,2.564h1M98.285,20.035c-.78,0-1.563.049-2.338-.011-1.426-.11-.966.951-.925,1.583.042.655-.653,1.817.915,1.764a31.99,31.99,0,0,1,4.006.017c1.353.124,1.783-.248,1.778-1.686-.005-1.418-.4-1.892-1.767-1.683a11.177,11.177,0,0,1-1.668.014m43.439,33.442c.83,0,1.663-.043,2.49.009,1.425.091.936-.979.9-1.6-.039-.648.669-1.809-.9-1.768-1.6.043-3.21,0-4.816.013-.421,0-.823-.1-.956.585-.423,2.165-.007,2.757,2.118,2.757h1.162m.86-28.434c-.873.3-2.63-.9-2.516,1.6.067,1.47.407,1.963,1.842,1.762a19.188,19.188,0,0,1,2.319-.023c.315-.005.821.11.857-.273a7.609,7.609,0,0,0-.039-2.793c-.177-.6-1.091-.181-1.668-.269a6.092,6.092,0,0,0-.8-.005m.068,18.4c-2.664,0-2.906.273-2.529,2.663.074.468.2.69.69.685,1.216-.014,2.432,0,3.648-.006.273,0,.63,0,.647-.336a7.911,7.911,0,0,0-.04-2.632c-.231-.751-1.151-.248-1.754-.366a3.521,3.521,0,0,0-.662-.007m-45.9-30.056c-1.344-.32-1.918.1-1.8,1.573.084,1.073-.029,1.921,1.526,1.756,1.1-.116,2.066.1,1.876-1.573-.125-1.1.14-2.263-1.6-1.756m6.482,3.247c1.344.321,1.918-.1,1.8-1.573-.084-1.073.029-1.921-1.526-1.756-1.1.116-2.066-.1-1.876,1.573.125,1.1-.14,2.263,1.6,1.755m8.416-1.544c.356-1.392-.171-1.864-1.593-1.781-1.11.065-1.871.035-1.739,1.548.1,1.141-.033,2.018,1.6,1.861,1.148-.11,2.224.062,1.733-1.628" transform="translate(-59.853 -6.642)" fill="#59c5d3"/>
        <path id="Path_610614" data-name="Path 610614" d="M136.984,51.617a14.06,14.06,0,0,1,2.469-3.38c.8.955,1.436.965,2.5.093a14.947,14.947,0,0,1,17.6-.932c.874.584,1.153.988.242,1.839-1.871,1.749-3.6,3.654-5.476,5.394-.862.8-.584,1.306.15,1.812.671.464,1.05,1.916,2.3.547,1.762-1.933,3.7-3.706,5.519-5.587.623-.643.973-.611,1.516.115,3.416,4.568,3.421,12.339.027,16.988-.624.855-1.01.7-1.629.06-1.668-1.719-3.45-3.333-5.047-5.114-.892-1-1.582-1.209-2.484-.158l-3.257-3.051q-.031-3-.061-6c-.021-2.1-.468-2.56-2.525-2.572q-5.923-.033-11.846-.051" transform="translate(-91.136 -29.919)" fill="#ef5143"/>
        <path id="Path_610615" data-name="Path 610615" d="M63.43,87.653c-2.933-2.967-5.539-5.554-8.08-8.2A3.735,3.735,0,0,0,52.4,78.239q-20.4.05-40.8,0c-.542,0-1.4.387-1.587-.377a7.105,7.105,0,0,1,0-2.655c.066-.437.668-.259,1.035-.262,1.784-.015,3.568-.007,5.351-.007,15.107,0,30.213.019,45.32-.033,1.364-.005,1.794.28,1.747,1.708-.115,3.495-.037,7-.037,11.037" transform="translate(-6.577 -49.836)" fill="#59c5d3"/>
        <path id="Path_610616" data-name="Path 610616" d="M150.531,108.919c-1.636,0-3.227-.016-4.819.009-.559.009-.8-.153-.785-.752.032-1.6.011-3.192.011-4.781l5.593,5.524" transform="translate(-96.42 -68.789)" fill="#dfdfdd"/>
        <path id="Path_610617" data-name="Path 610617" d="M269.82,73.355V70.137c1.285.124,1.743-.288,1.734-1.738-.076-12.253,0-24.508-.092-36.76-.012-1.655.621-1.834,1.912-1.695,1.956.211,3.132,1.586,3.137,3.819q.021,9.608.005,19.216c0,6.35-.028,12.7.014,19.049.007,1.06-.237,1.476-1.369,1.407-1.776-.108-3.561-.061-5.342-.079" transform="translate(-179.512 -19.897)" fill="#348ed8"/>
        <path id="Path_610618" data-name="Path 610618" d="M163.839,281.472a8.738,8.738,0,0,1,5.16-1.664c9.685-.02,19.37.026,29.055-.04,1.466-.01,1.288.787,1.255,1.668-.03.815.359,1.74-1.192,1.729-9.74-.064-19.481-.016-29.222-.044a8.7,8.7,0,0,1-5.056-1.65" transform="translate(-109.003 -186.13)" fill="#ef5143"/>
        <path id="Path_610619" data-name="Path 610619" d="M279.832,281.573c.012-.971-.317-1.965,1.205-1.812,1.117.112,2.038.393,2.069,1.629.034,1.338-.918,1.648-2.108,1.755-1.572.143-1.086-.938-1.167-1.571" transform="translate(-186.158 -186.115)" fill="#ef5143"/>
        <path id="Path_610620" data-name="Path 610620" d="M88.359,217.4a6.694,6.694,0,1,1-9.72-6c1.093-.568,1.457-.392,1.378.871-.083,1.331-.024,2.671-.017,4.007.005.935-.158,1.935.865,2.522,1.04.6,1.792-.078,2.575-.6.975-.644,1.933-1.313,2.924-1.93.5-.31,1.011-1.064,1.538-.745.546.33.445,1.2.456,1.868" transform="translate(-49.891 -140.445)" fill="#ef5143"/>
        <path id="Path_610621" data-name="Path 610621" d="M99.693,214.143c.106-1.248-.543-2.508.339-3.092.555-.368,2.116.526,2.081,1.117-.059,1.021-1.394,1.26-2.421,1.975" transform="translate(-66.239 -140.355)" fill="#ef5143"/>
        <path id="Path_610622" data-name="Path 610622" d="M158.172,56.7c.9-1.051,1.592-.837,2.484.158,1.6,1.781,3.379,3.395,5.047,5.114.619.638,1.005.795,1.629-.06,3.395-4.649,3.389-12.42-.027-16.988-.543-.726-.894-.758-1.516-.115-1.821,1.881-3.757,3.655-5.52,5.587-1.248,1.369-1.627-.084-2.3-.547-.734-.507-1.012-1.013-.15-1.812,1.879-1.74,3.605-3.645,5.476-5.394.91-.851.632-1.255-.242-1.839a14.946,14.946,0,0,0-17.6.932c-1.068.872-1.7.862-2.5-.093-1.068-.9-.87-1.548.2-2.426A18.449,18.449,0,0,1,163.8,37.39,18.41,18.41,0,0,1,159.645,71.2c-.862.224-1.3.155-1.305-.73s-1.443-2.027.385-2.58a19.749,19.749,0,0,0,4.112-1.8c1-.573,1.254-1.025.274-1.928-1.72-1.586-3.256-3.373-5.008-4.919-1.151-1.015-1.163-1.731.069-2.55" transform="translate(-94.635 -23.322)" fill="#010101"/>
        <path id="Path_610623" data-name="Path 610623" d="M237.913,38.322h-1c-2.5,0-2.573-.1-2.305-2.564.059-.537.172-.8.762-.788,1.716.025,3.432.02,5.148,0,.538-.006.741.152.814.738.3,2.412.151,2.613-2.26,2.613h-1.162" transform="translate(-156.017 -23.265)" fill="#010101"/>
        <path id="Path_610624" data-name="Path 610624" d="M108.1,39.892a11.132,11.132,0,0,0,1.668-.014c1.366-.21,1.762.264,1.767,1.683.005,1.438-.424,1.81-1.777,1.686a31.99,31.99,0,0,0-4.006-.017c-1.568.054-.873-1.109-.915-1.764-.04-.632-.5-1.694.926-1.583.775.06,1.558.011,2.338.01" transform="translate(-69.673 -26.499)" fill="#010101"/>
        <path id="Path_610625" data-name="Path 610625" d="M237.8,133.261h-1.162c-2.125,0-2.542-.592-2.119-2.758.134-.683.535-.583.956-.585,1.605-.008,3.211.03,4.816-.013,1.568-.042.86,1.119.9,1.767.037.618.526,1.688-.9,1.6-.827-.053-1.66-.01-2.49-.009" transform="translate(-155.924 -86.426)" fill="#010101"/>
        <path id="Path_610626" data-name="Path 610626" d="M242.167,54.87a6.091,6.091,0,0,1,.8.005c.577.089,1.491-.328,1.668.269a7.609,7.609,0,0,1,.039,2.793c-.036.384-.543.268-.857.273a19.187,19.187,0,0,0-2.319.023c-1.435.2-1.775-.292-1.842-1.762-.114-2.508,1.643-1.3,2.516-1.6" transform="translate(-159.437 -36.469)" fill="#010101"/>
        <path id="Path_610627" data-name="Path 610627" d="M242.075,109.846a3.521,3.521,0,0,1,.662.007c.6.118,1.523-.386,1.754.366a7.9,7.9,0,0,1,.04,2.632c-.017.34-.375.336-.647.336-1.216,0-2.432-.008-3.648.006-.49.006-.616-.216-.69-.684-.377-2.389-.135-2.663,2.529-2.663" transform="translate(-159.277 -73.047)" fill="#010101"/>
        <path id="Path_610628" data-name="Path 610628" d="M106.635,19.9c1.738-.508,1.473.656,1.6,1.755.19,1.672-.781,1.457-1.876,1.573-1.555.165-1.442-.683-1.526-1.756-.114-1.47.46-1.893,1.8-1.573" transform="translate(-69.735 -13.159)" fill="#010101"/>
        <path id="Path_610629" data-name="Path 610629" d="M126.392,23.188c-1.738.508-1.473-.656-1.6-1.755-.19-1.672.781-1.457,1.876-1.573,1.555-.165,1.442.683,1.526,1.756.114,1.47-.46,1.893-1.8,1.573" transform="translate(-83.009 -13.198)" fill="#010101"/>
        <path id="Path_610630" data-name="Path 610630" d="M148.108,21.676c.491,1.69-.585,1.518-1.733,1.628-1.632.157-1.5-.72-1.6-1.861-.131-1.513.63-1.484,1.739-1.548,1.422-.083,1.949.389,1.593,1.781" transform="translate(-96.31 -13.23)" fill="#010101"/>
      </g>
    </g>
  </g>
</svg>
