<svg xmlns="http://www.w3.org/2000/svg" xmlns:xlink="http://www.w3.org/1999/xlink" width="295" height="213" viewBox="0 0 295 213">
  <defs>
    <clipPath id="clip-path">
      <rect id="Rectangle_377717" data-name="Rectangle 377717" width="295" height="213" transform="translate(180 5201)" fill="#fff" stroke="#707070" stroke-width="1"/>
    </clipPath>
    <clipPath id="clip-path-2">
      <rect id="Rectangle_377716" data-name="Rectangle 377716" width="207.668" height="207.761" fill="none"/>
    </clipPath>
    <clipPath id="clip-path-3">
      <rect id="Rectangle_377700" data-name="Rectangle 377700" width="6.301" height="76.567" fill="none"/>
    </clipPath>
    <clipPath id="clip-path-4">
      <rect id="Rectangle_377701" data-name="Rectangle 377701" width="20.102" height="37.249" fill="none"/>
    </clipPath>
    <clipPath id="clip-path-5">
      <rect id="Rectangle_377702" data-name="Rectangle 377702" width="37.124" height="20.274" fill="none"/>
    </clipPath>
    <clipPath id="clip-path-6">
      <rect id="Rectangle_377704" data-name="Rectangle 377704" width="6.272" height="63.295" fill="none"/>
    </clipPath>
    <clipPath id="clip-path-7">
      <rect id="Rectangle_377706" data-name="Rectangle 377706" width="6.279" height="53.25" fill="none"/>
    </clipPath>
    <clipPath id="clip-path-8">
      <rect id="Rectangle_377707" data-name="Rectangle 377707" width="19.262" height="19.056" fill="none"/>
    </clipPath>
    <clipPath id="clip-path-9">
      <rect id="Rectangle_377709" data-name="Rectangle 377709" width="6.271" height="16.284" fill="none"/>
    </clipPath>
    <clipPath id="clip-path-10">
      <rect id="Rectangle_377711" data-name="Rectangle 377711" width="6.343" height="16.314" fill="none"/>
    </clipPath>
    <clipPath id="clip-path-11">
      <rect id="Rectangle_377712" data-name="Rectangle 377712" width="7.002" height="6.307" fill="none"/>
    </clipPath>
    <clipPath id="clip-path-12">
      <rect id="Rectangle_377713" data-name="Rectangle 377713" width="6.319" height="7.008" fill="none"/>
    </clipPath>
    <clipPath id="clip-path-13">
      <rect id="Rectangle_377714" data-name="Rectangle 377714" width="6.997" height="6.309" fill="none"/>
    </clipPath>
    <clipPath id="clip-path-14">
      <rect id="Rectangle_377715" data-name="Rectangle 377715" width="7.924" height="6.457" fill="none"/>
    </clipPath>
  </defs>
  <g id="Mask_Group_154282" data-name="Mask Group 154282" transform="translate(-180 -5201)" clip-path="url(#clip-path)">
    <g id="Group_1072324" data-name="Group 1072324" transform="translate(223.243 5204.239)">
      <g id="Group_1072323" data-name="Group 1072323" clip-path="url(#clip-path-2)">
        <path id="Path_609474" data-name="Path 609474" d="M63.635,200.944c0-2.366-.017-4.254,0-6.143.029-2.6,1.393-3.883,3.969-3.9,2.679-.013,5.362-.094,8.036.024,1.713.076,2.585-.435,3.082-2.192,1.024-3.625,2.325-7.171,3.666-11.213H78.514q-31.477,0-62.955,0C5.122,177.517.007,172.369,0,161.866Q0,113.813.005,65.76c0-10.308,5.147-15.491,15.363-15.507,7.014-.011,14.029,0,21.47,0,0-6.872,0-13.526,0-20.179,0-6.232.38-6.61,6.631-6.611,3.014,0,6.029.049,9.041-.012,3.09-.062,4.478,1.38,4.456,4.463-.052,7.343-.017,14.686-.017,22.177h3.068a18.079,18.079,0,0,0,.248-2.168q.024-20.929.013-41.858c0-5.486.573-6.039,6.193-6.043C69.487.018,72.5,0,75.515.026c3.905.039,4.866,1.006,4.872,5.011q.027,20.594.007,41.188v3.822h3.327c0-8.992.033-17.9-.009-26.8-.049-10.387-.578-9.864,9.783-9.847,11.084.019,10.382-.776,10.346,10.288-.029,8.7-.006,17.39-.006,26.324h40.738c-5.544-7.249-8.3-15.2-6.9-24.243A29.341,29.341,0,0,1,151.2,4.8a29.991,29.991,0,0,1,36.3,2.849,29.638,29.638,0,0,1,10.015,20.508c.577,8.11-2.079,15.283-7.447,22.094,1.734,0,2.809-.023,3.883,0,8.044.2,13.6,5.726,13.672,13.822.092,10.045.025,20.092.026,30.138q0,33.988,0,67.977c-.005,10.056-5.226,15.317-15.214,15.324q-31.477.023-62.955,0h-4.162c1.411,4.353,2.663,8.438,4.123,12.447.186.511,1.448.85,2.229.883,2.562.11,5.133.011,7.7.052,3.556.055,4.574,1.063,4.65,4.562.036,1.665.007,3.331.007,5.476h3.688q13.73,0,27.459.005c1,0,2.234-.275,2.952.2,1.083.712,2.559,2.024,2.492,2.983-.084,1.191-1.373,2.609-2.519,3.311-.908.557-2.387.217-3.612.218q-70.656.008-141.311,0c-.67,0-1.34-.011-2.01,0-2.43.04-4.345-.784-4.254-3.518.084-2.532,1.969-3.211,4.236-3.207q14.232.027,28.464.006h4.033m137.291-50.394V95.8c0-10.379.018-20.758-.01-31.136-.011-3.9-1.531-6.976-4.64-7.159-5.695-.336-11.737-.823-17.1.672-8.073,2.251-15.664,2.894-23.491-.255a12.505,12.505,0,0,0-4.5-.915c-14.843-.066-29.685-.043-44.528-.033-.857,0-1.714.1-2.6.159V83.584h3.108c0-6.364.042-12.589-.017-18.813-.029-3.072,1.329-4.535,4.43-4.486,3.793.06,7.589.044,11.383,0,2.9-.03,4.332,1.31,4.322,4.247q-.037,10.881,0,21.762c.005,2.971-1.538,4.171-4.4,4.17q-52.564-.028-105.127,0c-2.884,0-4.364-1.26-4.355-4.214q.032-10.88,0-21.762c-.009-2.959,1.482-4.237,4.364-4.2,3.682.044,7.366-.022,11.048.018s4.674,1.059,4.7,4.845c.036,5.8.017,11.606.04,17.409a3.91,3.91,0,0,0,.26.958H36.57V56.97c-7.184,0-14.1,0-21.014,0-6.666.005-8.831,2.16-8.832,8.81q-.006,40.677,0,81.355v3.412Zm-.177,7.108H6.822c-.04.877-.088,1.534-.1,2.191-.123,9.445,1.355,10.956,10.7,10.956,57.132,0,114.266-.133,171.4.108,11.975.051,12.716-3.537,11.925-13.256M73.459,7.006h-6.3V83.572h6.3Zm75.285,37.275c5.065-5.131,9.762-9.867,14.42-14.642a2.846,2.846,0,0,0,.875-1.7c.06-6.849.039-13.7.039-20.907-8.672,1.61-14.616,6.076-17.955,13.577-3.56,8-2.681,15.776,2.622,23.672M190.59,33.528c-5.565,0-10.6.336-15.568-.1-4.568-.4-7.756,1.128-10.686,4.511-3.309,3.822-7.094,7.23-10.871,11.018,7.918,5.277,15.791,6.124,23.882,2.393,7.343-3.387,11.684-9.286,13.243-17.823M122.534,190.8c-1.386-4.218-2.587-8.139-4.02-11.974a2.914,2.914,0,0,0-2.275-1.248c-8.246-.09-16.495-.079-24.742-.018-.774.006-2.051.359-2.235.864-1.466,4.014-2.724,8.105-4.112,12.376ZM96.885,20.293H90.614v63.3h6.272Zm-53.1,63.29h6.279V30.333H43.784ZM170.9,26.673h19.261c.046-9.215-10.943-20.027-19.261-18.985ZM70.5,200.737h66.859c-.12-1.152-.216-2.078-.307-2.962H70.5ZM26.654,67.266H20.383V83.55h6.271Zm93.764-.076h-6.344V83.5h6.344ZM57.165,57.114V83.806l2.951-.324V57.114Zm23.425.042V83.768l2.983-.26V57.156Z" transform="translate(0 0)"/>
        <path id="Path_609475" data-name="Path 609475" d="M204.243,178.655H10.039v-3.412q0-40.678,0-81.356c0-6.649,2.166-8.8,8.832-8.81,6.916-.006,13.831,0,21.015,0v26.548H37.12a3.88,3.88,0,0,1-.26-.958c-.023-5.8,0-11.606-.041-17.409-.023-3.785-1.013-4.8-4.7-4.845s-7.365.026-11.048-.018c-2.883-.035-4.373,1.242-4.364,4.2q.032,10.88,0,21.762c-.009,2.954,1.471,4.215,4.355,4.214q52.564-.025,105.127,0c2.864,0,4.408-1.2,4.4-4.169q-.02-10.881,0-21.762c.01-2.938-1.42-4.277-4.322-4.247-3.794.039-7.59.054-11.383-.005-3.1-.048-4.46,1.414-4.431,4.486.059,6.224.018,12.45.018,18.814h-3.108V85.241c.888-.056,1.746-.158,2.6-.159,14.843-.009,29.685-.033,44.528.033a12.5,12.5,0,0,1,4.5.915c7.827,3.149,15.418,2.506,23.491.254,5.362-1.5,11.4-1.008,17.1-.672,3.109.183,4.629,3.256,4.639,7.159.029,10.379.011,20.757.011,31.136v54.746M71.168,160.742c-10.534-4.374-20.9-8.709-31.3-12.969a7.8,7.8,0,0,1-4.486-4c-2.174-4.385-7.04-6.09-11.687-4.614a10.017,10.017,0,0,0,1.728,19.476c4.588.579,7.9-1.627,10.48-5.306,10.7,4.472,21.3,8.83,31.815,13.377a8.865,8.865,0,0,1,3.649,3.349c2.212,3.524,5.2,5.517,9.355,5.372s6.994-2.4,8.939-6.05a12.544,12.544,0,0,1,3.186-4.022c8.3-6.386,16.71-12.641,25.1-18.922,2.462-1.843,4.967-3.629,7.378-5.389,6.572,5.882,10.115,5.751,17.744-.439,10.358,6.043,20.788,12.034,31.094,18.231a13.674,13.674,0,0,1,4.4,4.57,10.23,10.23,0,0,0,11.687,4.922,9.935,9.935,0,0,0,7.269-10.343,10.042,10.042,0,0,0-8.711-9.2c-4.3-.551-7.5,1.471-10.16,4.8-11.3-6.6-22.458-13.079-33.55-19.674-.917-.545-1.456-1.83-2.011-2.857-1.9-3.513-4.74-5.619-8.773-5.765-3.873-.14-7.366,1.338-8.829,4.88-1.45,3.512-4.172,5.342-6.876,7.4q-6.914,5.269-13.892,10.455c-5.245,3.918-10.507,7.814-15.7,11.67-6.984-6.09-12.067-5.782-17.85,1.044M172.509,91.751c-4.57,0-9.146-.136-13.707.077a7.489,7.489,0,0,0-4.441,1.661c-4.172,3.854-8.084,7.987-12.124,11.986-1.633,1.617-2.381,3.451-.642,5.26,1.886,1.963,3.793,1.15,5.5-.575,3.213-3.248,6.341-6.6,9.76-9.616a8.31,8.31,0,0,1,4.886-1.983c8.244-.2,16.494-.1,24.743-.086,2.422.005,4.345-.77,4.274-3.5-.065-2.525-1.932-3.242-4.2-3.231-4.681.023-9.363.007-14.045,0M38.518,121.891c-5.786,0-11.571.017-17.357-.009-2.4-.011-4.376.684-4.335,3.42s2.081,3.321,4.446,3.316q17.19-.034,34.379,0c2.352,0,4.444-.528,4.5-3.262.061-2.961-2.131-3.495-4.61-3.479-5.674.037-11.349.011-17.023.013m110.636,46.883c-3.667,0-7.334.013-11,0-2.281-.011-4.08.771-4.129,3.288s1.673,3.428,3.983,3.428q11,.005,22,0c2.316,0,4.026-.951,3.964-3.449-.062-2.514-1.874-3.281-4.151-3.267-3.556.02-7.111.005-10.667.005m6.69-10.03c-1.662,0-3.484-.425-4.939.123-1.379.52-3.056,1.891-3.376,3.19-.483,1.963,1.154,3.268,3.2,3.335,3.32.107,6.649.111,9.968-.005,2.05-.072,3.669-1.412,3.167-3.364-.333-1.3-2.029-2.606-3.415-3.163-1.335-.537-3.055-.116-4.606-.115m-86.9-36.854c-3.956-.029-6.063,1.693-5.145,4.243,1.24,3.448,4.37,2.711,6.778,2.24a4.7,4.7,0,0,0,2.837-3.54c-.011-2.67-2.357-3.054-4.47-2.943" transform="translate(-3.316 -28.105)" fill="#c6c3fc"/>
        <path id="Path_609476" data-name="Path 609476" d="M204.065,235.44c.79,9.719.05,13.307-11.926,13.256-57.132-.242-114.264-.108-171.4-.108-9.347,0-10.825-1.511-10.7-10.956.008-.657.057-1.314.1-2.191Zm-174.177,9.8c3.332,0,6.7.3,9.975-.146a5.029,5.029,0,0,0,3.439-3.092c.486-2.164-1.253-3.417-3.463-3.434-6.441-.049-12.882-.037-19.324-.011-2.194.009-3.719,1.054-3.7,3.359s1.561,3.3,3.748,3.323c3.11.029,6.22.007,9.329,0m21.868.407c1.4-.492,3.113-.658,4.113-1.587.712-.662,1.035-3.053.548-3.445a10.515,10.515,0,0,0-4.777-2c-2.383-.38-4.659.329-4.671,3.267s2.206,3.468,4.787,3.769" transform="translate(-3.315 -77.782)" fill="#c75434"/>
        <g id="Group_1072289" data-name="Group 1072289" transform="translate(67.158 7.006)" style="isolation: isolate">
          <g id="Group_1072288" data-name="Group 1072288">
            <g id="Group_1072287" data-name="Group 1072287" clip-path="url(#clip-path-3)">
              <rect id="Rectangle_377699" data-name="Rectangle 377699" width="6.301" height="76.567" fill="#e1bf67"/>
            </g>
          </g>
        </g>
        <g id="Group_1072292" data-name="Group 1072292" transform="translate(143.979 7.032)" style="isolation: isolate">
          <g id="Group_1072291" data-name="Group 1072291">
            <g id="Group_1072290" data-name="Group 1072290" clip-path="url(#clip-path-4)">
              <path id="Path_609477" data-name="Path 609477" d="M219.777,47.751c-5.3-7.9-6.183-15.673-2.622-23.672,3.339-7.5,9.283-11.967,17.956-13.577,0,7.209.021,14.058-.039,20.907a2.855,2.855,0,0,1-.875,1.7c-4.658,4.774-9.355,9.511-14.42,14.642" transform="translate(-215.013 -10.501)" fill="#e1bf67"/>
            </g>
          </g>
        </g>
        <g id="Group_1072295" data-name="Group 1072295" transform="translate(153.466 33.368)" style="isolation: isolate">
          <g id="Group_1072294" data-name="Group 1072294">
            <g id="Group_1072293" data-name="Group 1072293" clip-path="url(#clip-path-5)">
              <path id="Path_609478" data-name="Path 609478" d="M266.3,49.992c-1.559,8.536-5.9,14.436-13.243,17.822-8.09,3.732-15.963,2.885-23.882-2.393,3.777-3.787,7.562-7.2,10.871-11.017,2.929-3.384,6.118-4.91,10.686-4.511,4.968.434,10,.1,15.568.1" transform="translate(-229.18 -49.831)" fill="#99cfe6"/>
            </g>
          </g>
        </g>
        <path id="Path_609479" data-name="Path 609479" d="M164.543,278.384H127.158c1.388-4.272,2.646-8.362,4.112-12.376.185-.506,1.462-.858,2.236-.864,8.247-.061,16.5-.072,24.742.018a2.913,2.913,0,0,1,2.275,1.248c1.434,3.834,2.635,7.755,4.02,11.974" transform="translate(-42.009 -87.58)" fill="#8383dd"/>
        <g id="Group_1072298" data-name="Group 1072298" transform="translate(90.614 20.293)" style="isolation: isolate">
          <g id="Group_1072297" data-name="Group 1072297">
            <g id="Group_1072296" data-name="Group 1072296" clip-path="url(#clip-path-6)">
              <rect id="Rectangle_377703" data-name="Rectangle 377703" width="6.272" height="63.295" fill="#99cfe6"/>
            </g>
          </g>
        </g>
        <g id="Group_1072301" data-name="Group 1072301" transform="translate(43.785 30.334)" style="isolation: isolate">
          <g id="Group_1072300" data-name="Group 1072300">
            <g id="Group_1072299" data-name="Group 1072299" clip-path="url(#clip-path-7)">
              <rect id="Rectangle_377705" data-name="Rectangle 377705" width="6.279" height="53.25" transform="translate(0)" fill="#2f3d6a"/>
            </g>
          </g>
        </g>
        <g id="Group_1072304" data-name="Group 1072304" transform="translate(170.901 7.618)" style="isolation: isolate">
          <g id="Group_1072303" data-name="Group 1072303">
            <g id="Group_1072302" data-name="Group 1072302" clip-path="url(#clip-path-8)">
              <path id="Path_609480" data-name="Path 609480" d="M255.217,30.433V11.447c8.318-1.041,19.307,9.77,19.261,18.986Z" transform="translate(-255.217 -11.377)" fill="#475e4b"/>
            </g>
          </g>
        </g>
        <path id="Path_609481" data-name="Path 609481" d="M105.283,298.311v-2.962h66.551c.092.885.188,1.81.307,2.962Z" transform="translate(-34.782 -97.574)" fill="#c6c3fc"/>
        <g id="Group_1072307" data-name="Group 1072307" transform="translate(20.384 67.266)" style="isolation: isolate">
          <g id="Group_1072306" data-name="Group 1072306">
            <g id="Group_1072305" data-name="Group 1072305" clip-path="url(#clip-path-9)">
              <rect id="Rectangle_377708" data-name="Rectangle 377708" width="6.271" height="16.284" fill="#475e4b"/>
            </g>
          </g>
        </g>
        <g id="Group_1072310" data-name="Group 1072310" transform="translate(114.075 67.189)" style="isolation: isolate">
          <g id="Group_1072309" data-name="Group 1072309">
            <g id="Group_1072308" data-name="Group 1072308" clip-path="url(#clip-path-10)">
              <rect id="Rectangle_377710" data-name="Rectangle 377710" width="6.344" height="16.314" transform="translate(-0.001 0)" fill="#272e41"/>
            </g>
          </g>
        </g>
        <path id="Path_609482" data-name="Path 609482" d="M85.369,85.292h2.95V111.66l-2.95.324Z" transform="translate(-28.203 -28.178)" fill="#fff"/>
        <path id="Path_609483" data-name="Path 609483" d="M120.35,85.355h2.983v26.351l-2.983.26Z" transform="translate(-39.76 -28.199)" fill="#fff"/>
        <path id="Path_609484" data-name="Path 609484" d="M74.464,180.58c5.784-6.826,10.867-7.134,17.85-1.044,5.189-3.856,10.45-7.752,15.695-11.67q6.965-5.2,13.893-10.454c2.7-2.06,5.425-3.891,6.876-7.4,1.463-3.543,4.956-5.021,8.828-4.881,4.033.147,6.872,2.252,8.773,5.765.556,1.027,1.095,2.312,2.012,2.857,11.091,6.6,22.252,13.075,33.549,19.674,2.662-3.329,5.865-5.352,10.161-4.8a10.041,10.041,0,0,1,8.71,9.2,9.935,9.935,0,0,1-7.269,10.342,10.23,10.23,0,0,1-11.687-4.922,13.677,13.677,0,0,0-4.4-4.571c-10.306-6.2-20.737-12.188-31.095-18.231-7.628,6.19-11.171,6.321-17.743.439-2.412,1.759-4.916,3.545-7.378,5.389-8.386,6.28-16.791,12.536-25.1,18.922a12.543,12.543,0,0,0-3.186,4.022c-1.945,3.645-4.768,5.9-8.938,6.05s-7.144-1.848-9.355-5.372a8.863,8.863,0,0,0-3.649-3.349C60.5,182,49.9,177.643,39.2,173.171c-2.581,3.68-5.892,5.885-10.48,5.307A10.017,10.017,0,0,1,26.994,159c4.647-1.477,9.512.228,11.687,4.614a7.794,7.794,0,0,0,4.486,4c10.4,4.261,20.763,8.6,31.3,12.969m66.566-24.694-.03-1.442c-1.211-.87-2.332-2.262-3.653-2.488a2.687,2.687,0,0,0-3.264,3.166c.236,1.245,1.894,3.017,3.008,3.088,1.258.081,2.622-1.479,3.939-2.324m-110.2,8.839-1.452.026c-.874,1.209-2.269,2.327-2.5,3.649a2.684,2.684,0,0,0,3.158,3.279c1.25-.235,3.027-1.885,3.105-3,.088-1.258-1.468-2.63-2.31-3.952m163.773,14.618-.024-1.442c-1.207-.875-2.322-2.272-3.642-2.5a2.688,2.688,0,0,0-3.278,3.153c.231,1.246,1.882,3.025,3,3.1,1.258.086,2.628-1.468,3.949-2.309m-106.286,5.8c-2.13-1.473-3.277-2.846-4.605-3.05-2.022-.312-3.373,1.143-3.317,3.248s1.47,3.5,3.472,3.1c1.312-.264,2.388-1.7,4.45-3.3" transform="translate(-6.613 -47.943)"/>
        <path id="Path_609485" data-name="Path 609485" d="M236.923,95.026c4.681,0,9.363.017,14.045-.006,2.272-.011,4.139.707,4.2,3.231.07,2.727-1.852,3.5-4.274,3.5-8.249-.017-16.5-.114-24.743.086a8.317,8.317,0,0,0-4.886,1.983c-3.418,3.019-6.548,6.368-9.76,9.617-1.706,1.725-3.613,2.539-5.5.575-1.738-1.809-.991-3.643.642-5.26,4.039-4,7.953-8.132,12.124-11.986a7.492,7.492,0,0,1,4.441-1.661c4.56-.213,9.136-.076,13.707-.076" transform="translate(-67.73 -31.379)"/>
        <path id="Path_609486" data-name="Path 609486" d="M41.866,140.05c5.674,0,11.349.025,17.023-.012,2.479-.016,4.671.518,4.611,3.478-.056,2.735-2.148,3.268-4.5,3.262q-17.189-.037-34.379,0c-2.366,0-4.405-.576-4.446-3.316s1.94-3.43,4.335-3.419c5.785.026,11.571.009,17.356.008" transform="translate(-6.665 -46.264)"/>
        <path id="Path_609487" data-name="Path 609487" d="M210.324,210.067c3.556,0,7.111.015,10.667-.005,2.277-.013,4.089.753,4.151,3.268.062,2.5-1.648,3.447-3.964,3.449q-11,.008-22,0c-2.31,0-4.031-.924-3.983-3.428s1.848-3.3,4.128-3.288c3.667.017,7.334,0,11,0" transform="translate(-64.486 -69.398)"/>
        <path id="Path_609488" data-name="Path 609488" d="M223.634,195.013c1.551,0,3.271-.422,4.606.116,1.386.558,3.082,1.867,3.416,3.163.5,1.953-1.117,3.292-3.167,3.364-3.319.117-6.648.113-9.967.005-2.048-.066-3.685-1.371-3.2-3.334.32-1.3,2-2.671,3.376-3.191,1.455-.548,3.276-.123,4.939-.123" transform="translate(-71.107 -64.374)"/>
        <path id="Path_609489" data-name="Path 609489" d="M95.368,140.049c2.113-.111,4.458.273,4.47,2.943A4.7,4.7,0,0,1,97,146.531c-2.408.471-5.538,1.208-6.778-2.24-.917-2.55,1.189-4.272,5.145-4.243" transform="translate(-29.737 -46.262)"/>
        <path id="Path_609490" data-name="Path 609490" d="M33.232,246.777c-3.11,0-6.22.025-9.329,0-2.188-.021-3.733-1.018-3.748-3.323s1.51-3.349,3.7-3.358c6.442-.027,12.883-.038,19.324.011,2.209.017,3.949,1.269,3.463,3.433a5.031,5.031,0,0,1-3.439,3.092c-3.272.445-6.644.146-9.975.149" transform="translate(-6.659 -79.311)"/>
        <path id="Path_609491" data-name="Path 609491" d="M69.979,247.171c-2.581-.3-4.8-.838-4.787-3.769s2.287-3.647,4.671-3.267a10.515,10.515,0,0,1,4.777,2c.487.391.165,2.782-.548,3.445-1,.929-2.708,1.095-4.113,1.587" transform="translate(-21.537 -79.303)"/>
        <g id="Group_1072313" data-name="Group 1072313" transform="translate(127.415 103.964)" style="isolation: isolate">
          <g id="Group_1072312" data-name="Group 1072312">
            <g id="Group_1072311" data-name="Group 1072311" clip-path="url(#clip-path-11)">
              <path id="Path_609492" data-name="Path 609492" d="M197.278,159.235c-1.318.846-2.682,2.406-3.939,2.325-1.114-.072-2.772-1.843-3.008-3.088A2.687,2.687,0,0,1,193.6,155.3c1.321.226,2.442,1.618,3.653,2.488l.03,1.442" transform="translate(-190.276 -155.256)" fill="#e1bf67"/>
            </g>
          </g>
        </g>
        <g id="Group_1072316" data-name="Group 1072316" transform="translate(20.216 116.782)" style="isolation: isolate">
          <g id="Group_1072315" data-name="Group 1072315">
            <g id="Group_1072314" data-name="Group 1072314" clip-path="url(#clip-path-12)">
              <path id="Path_609493" data-name="Path 609493" d="M34.194,174.4c.842,1.323,2.4,2.695,2.31,3.952-.078,1.116-1.856,2.766-3.105,3a2.684,2.684,0,0,1-3.158-3.279c.232-1.322,1.627-2.44,2.5-3.649l1.452-.026" transform="translate(-30.189 -174.398)" fill="#475e4b"/>
            </g>
          </g>
        </g>
        <g id="Group_1072319" data-name="Group 1072319" transform="translate(180.996 127.403)" style="isolation: isolate">
          <g id="Group_1072318" data-name="Group 1072318">
            <g id="Group_1072317" data-name="Group 1072317" clip-path="url(#clip-path-13)">
              <path id="Path_609494" data-name="Path 609494" d="M277.29,194.257c-1.321.84-2.692,2.395-3.949,2.308-1.114-.076-2.764-1.855-3-3.1a2.688,2.688,0,0,1,3.279-3.153c1.32.231,2.435,1.629,3.642,2.5q.012.721.024,1.442" transform="translate(-270.293 -190.259)" fill="#99cfe6"/>
            </g>
          </g>
        </g>
        <g id="Group_1072322" data-name="Group 1072322" transform="translate(73.783 134.11)" style="isolation: isolate">
          <g id="Group_1072321" data-name="Group 1072321">
            <g id="Group_1072320" data-name="Group 1072320" clip-path="url(#clip-path-14)">
              <path id="Path_609495" data-name="Path 609495" d="M118.11,203.367c-2.062,1.592-3.139,3.031-4.45,3.3-2,.4-3.416-1-3.472-3.1s1.3-3.56,3.317-3.248c1.328.2,2.475,1.577,4.605,3.05" transform="translate(-110.185 -200.275)" fill="#2f3d6a"/>
            </g>
          </g>
        </g>
      </g>
    </g>
  </g>
</svg>
