<svg xmlns="http://www.w3.org/2000/svg" xmlns:xlink="http://www.w3.org/1999/xlink" width="335.505" height="227.111" viewBox="0 0 335.505 227.111">
  <defs>
    <clipPath id="clip-path">
      <rect id="Rectangle_353553" data-name="Rectangle 353553" width="192.915" height="192.906" fill="none"/>
    </clipPath>
  </defs>
  <g id="Group_1072924" data-name="Group 1072924" transform="translate(-637.279 -6728.355)">
    <g id="Group_1017009" data-name="Group 1017009" transform="translate(637.279 6728.355)">
      <g id="Image_Place_Holder" data-name="Image Place Holder" transform="translate(0 0)">
        <rect id="Image_Place_Holder-2" data-name="Image Place Holder" width="335.505" height="227.111" rx="10" fill="#8eb095"/>
      </g>
      <g id="Group_1072657" data-name="Group 1072657" transform="translate(66.263 17.103)">
        <g id="Group_1003521" data-name="Group 1003521" transform="translate(0 0)" clip-path="url(#clip-path)">
          <path id="Path_715650" data-name="Path 715650" d="M130.728,136.909H99.576v1.151c0,7.685.009,15.369-.014,23.054,0,.78.138,1.148,1.013,1.38A15.467,15.467,0,1,1,81.1,179.176c-.926-7.928,3.628-14.548,11.353-16.751.279-.079.558-.156.859-.24V136.962H62.251V116.942c-1.473.739-2.785,1.4-4.1,2.058-4.979,2.491-9.952,4.995-14.946,7.456-.652.321-.8.611-.588,1.321,3.7,12.265-4.737,25.425-17.4,27.469a21.694,21.694,0,1,1-6.925-42.833c8.389-1.26,15.378,1.483,20.709,8.17.454.57.773.764,1.5.4q10.378-5.2,20.8-10.292a1.436,1.436,0,0,0,.932-1.546q-.033-12.645.01-25.291a1.547,1.547,0,0,0-1.059-1.64q-15.48-7.7-30.92-15.473c-.781-.392-1.621-1.13-2.346-1.036-.692.09-1.256,1.073-1.9,1.638-4.5,3.962-9.7,5.208-15.37,3.374C5.022,68.9,1.684,64.754.363,59.031a15.37,15.37,0,0,1,11.33-18.094A15.438,15.438,0,0,1,30.346,51.423a13.314,13.314,0,0,1,.373,7.56,1.077,1.077,0,0,0,.694,1.488Q45.29,67.356,59.137,74.3c.978.489,1.938,1.016,3.028,1.589V56.019H93.29V43.233a21.861,21.861,0,0,1-18.5-23.273,21.738,21.738,0,0,1,43.388.955c.513,9.646-6.124,20.154-18.549,22.3V55.937h31.04V75.947c.853-.427,1.557-.778,2.26-1.132,9.488-4.768,18.966-9.556,28.479-14.272.9-.444.957-.863.773-1.7-1.712-7.831,3.691-16.274,11.457-17.919a15.485,15.485,0,0,1,14.081,3.414c5.371,4.668,6.594,12.993,3.237,19.293-4.2,7.884-17.011,11.609-25.062,2.652-.235-.261-.481-.512-.707-.752-7.346,3.693-14.623,7.368-21.916,11.011q-5.865,2.93-11.78,5.756a1.234,1.234,0,0,0-.795,1.334c.019,8.333.036,16.666-.014,25a2.13,2.13,0,0,0,1.4,2.28c6.441,3.112,12.838,6.316,19.247,9.494.635.315,1.254.663,1.957,1.035.194-.225.391-.425.556-.649a21.616,21.616,0,0,1,30.969-3.864,21.318,21.318,0,0,1,8.1,17.169,21.737,21.737,0,0,1-43.309,2.329,19.609,19.609,0,0,1,.6-8.169c.4-1.4.372-1.374-.949-2.032q-8.911-4.435-17.812-8.894c-.193-.1-.392-.182-.714-.329Zm-62.235-6.274h55.922V62.285H68.493Zm27.6-93.374c7.963.544,15.471-6.07,15.917-14.307A15.565,15.565,0,0,0,97.127,6.211c-10.153-.535-15.81,7.9-16.225,14.478A15.477,15.477,0,0,0,96.094,37.261M170.641,149.3c7.961.517,15.6-6.1,16.067-13.979.594-10.015-6.443-16.29-14.06-17.018a15.54,15.54,0,1,0-2.008,31m-149.409-.018a15.525,15.525,0,0,0,1.847-30.986c-10.213-.973-16.225,7.238-16.875,14.175a15.515,15.515,0,0,0,15.029,16.811M6.186,55.966a9.39,9.39,0,0,0,9.393,9.365,9.188,9.188,0,0,0,9.282-9.024,9.507,9.507,0,0,0-9.24-9.692c-5.18-.1-9.764,4.8-9.436,9.35m161.876-.008c-.336,4.472,4.117,9.484,9.385,9.4a9.3,9.3,0,0,0,9.29-9.039,9.341,9.341,0,1,0-18.676-.357M96.383,186.729a9.308,9.308,0,0,0,9.409-9.017A9.55,9.55,0,0,0,96.68,168c-5.813-.169-9.44,5.222-9.6,8.936-.234,5.467,4.755,10.023,9.3,9.791" transform="translate(0 0)" fill="#161615"/>
          <path id="Path_715651" data-name="Path 715651" d="M206.011,187.338h55.922v68.351H206.011Zm49.722,31.123H237.072v6.165H224.61V230.9H212.242v18.569h43.491Zm0-12.451H212.236v6.1h43.494Zm-31.045-6.363h31.008v-6.107H224.685Zm-6.337-6.082H212.24v6.106h6.108Z" transform="translate(-137.518 -125.053)" fill="#fff"/>
          <path id="Path_715652" data-name="Path 715652" d="M258.371,49.212c-.317,0-.637-.011-.952-.032a16.193,16.193,0,0,1-11.494-5.163,15.553,15.553,0,0,1-4.161-11.937c.392-6.216,5.557-14.97,15.81-14.97.309,0,.626.008.94.025A16.106,16.106,0,0,1,269.758,22.4a16.456,16.456,0,0,1,4.111,12,15.98,15.98,0,0,1-15.5,14.81m-.717-24.86a8.77,8.77,0,0,0-6.123,14.972,8.663,8.663,0,0,0,6.068,2.683h.053a8.829,8.829,0,1,0,.08-17.655Z" transform="translate(-161.36 -11.421)" fill="#6debff"/>
          <path id="Path_715653" data-name="Path 715653" d="M256.572,16.607q.45,0,.913.024a15.551,15.551,0,0,1-.115,31.081c-.306,0-.611-.01-.918-.031A15.477,15.477,0,0,1,241.26,31.11c.4-6.376,5.733-14.5,15.312-14.5m.079,24.9a9.327,9.327,0,1,0,.085-18.652h-.084a9.328,9.328,0,0,0-.058,18.653h.056m-.079-25.895h0A15.621,15.621,0,0,0,244.737,20.8a17.4,17.4,0,0,0-4.473,10.251,16.041,16.041,0,0,0,4.295,12.309,16.725,16.725,0,0,0,11.857,5.322c.316.021.637.032.954.032a15.856,15.856,0,0,0,10.878-4.472,16.076,16.076,0,0,0,5.116-10.81,16.955,16.955,0,0,0-4.237-12.362,16.6,16.6,0,0,0-11.59-5.431c-.323-.017-.647-.026-.965-.026m.079,24.9H256.6a8.161,8.161,0,0,1-5.714-2.533,8.271,8.271,0,0,1,5.766-14.124h.074a8.33,8.33,0,1,1-.076,16.658" transform="translate(-160.357 -10.42)" fill="#040405"/>
          <path id="Path_715654" data-name="Path 715654" d="M482.891,386.181c-.3,0-.608-.01-.909-.03a15.7,15.7,0,0,1-11.418-5.307,15.986,15.986,0,0,1-4.049-11.988c.62-7.163,6.4-14.777,15.878-14.777.551,0,1.115.028,1.676.081,7.684.734,15.136,7,14.51,17.543a15.092,15.092,0,0,1-5.061,10.187,16,16,0,0,1-10.627,4.29m-.414-24.822a8.844,8.844,0,0,0-8.77,8.679,8.979,8.979,0,0,0,2.582,6.345A8.694,8.694,0,0,0,482.526,379a8.822,8.822,0,1,0-.035-17.644l-.014-.5Z" transform="translate(-311.373 -236.358)" fill="#6debff"/>
          <path id="Path_715655" data-name="Path 715655" d="M481.391,353.576q.8,0,1.629.078c7.617.728,14.654,7,14.059,17.018-.45,7.587-7.554,14.008-15.19,14.008q-.437,0-.877-.028a15.542,15.542,0,0,1,.379-31.075m.133,24.923h0a9.321,9.321,0,1,0-.035-18.641h-.014a9.321,9.321,0,0,0,.049,18.641m-.132-25.921h0a16.053,16.053,0,0,0-11.5,4.77,17.243,17.243,0,0,0-4.875,10.462,16.488,16.488,0,0,0,4.174,12.364,16.216,16.216,0,0,0,11.779,5.473c.3.019.614.029.921.029a16.506,16.506,0,0,0,10.964-4.421,15.589,15.589,0,0,0,5.222-10.525,16.97,16.97,0,0,0-4.207-12.72,16.578,16.578,0,0,0-10.753-5.349c-.577-.055-1.157-.083-1.723-.083m.132,25.921v-1a8.2,8.2,0,0,1-5.882-2.471,8.484,8.484,0,0,1-2.438-5.994,8.339,8.339,0,1,1,8.321,8.465Z" transform="translate(-310.372 -235.356)" fill="#040405"/>
          <path id="Path_715656" data-name="Path 715656" d="M33.424,386.146c-.3,0-.6-.01-.9-.03a15.69,15.69,0,0,1-11.413-5.266,15.908,15.908,0,0,1-4.079-12.089c.669-7.129,6.411-14.706,15.735-14.706.552,0,1.119.028,1.685.081a16.034,16.034,0,0,1-1.028,32.01m-.487-24.805a8.77,8.77,0,0,0-8.7,8.559,9.087,9.087,0,0,0,2.654,6.492,8.677,8.677,0,0,0,6.175,2.593,8.822,8.822,0,1,0-.024-17.644Z" transform="translate(-11.325 -236.342)" fill="#6debff"/>
          <path id="Path_715657" data-name="Path 715657" d="M31.766,353.552q.8,0,1.637.079a15.535,15.535,0,0,1-.981,31.015q-.436,0-.866-.029a15.516,15.516,0,0,1-15.029-16.811c.615-6.557,6.022-14.253,15.239-14.254m.306,24.931a9.321,9.321,0,1,0-.027-18.642h-.109a9.3,9.3,0,0,0-9.2,9.056,9.46,9.46,0,0,0,9.327,9.586h.009m-.305-25.929h0a15.528,15.528,0,0,0-11.571,4.982,17.567,17.567,0,0,0-4.66,10.176,16.408,16.408,0,0,0,4.205,12.47,16.211,16.211,0,0,0,11.779,5.432c.3.02.6.03.9.03A16.5,16.5,0,0,0,43.105,381.5a16.159,16.159,0,0,0,5.515-11.3,16.987,16.987,0,0,0-3.707-11.511A16.523,16.523,0,0,0,33.5,352.638c-.581-.055-1.163-.083-1.731-.083m.305,25.929,0-1a8.187,8.187,0,0,1-5.827-2.446,8.592,8.592,0,0,1-2.508-6.139,8.264,8.264,0,0,1,8.2-8.062h.1a8.324,8.324,0,1,1,.039,16.647Z" transform="translate(-10.324 -235.34)" fill="#040405"/>
          <path id="Path_715658" data-name="Path 715658" d="M18.573,149.555c-.329-4.55,4.255-9.448,9.436-9.35a9.507,9.507,0,0,1,9.24,9.692,9.188,9.188,0,0,1-9.282,9.024,9.39,9.39,0,0,1-9.393-9.365" transform="translate(-12.387 -93.59)" fill="#06d1d1"/>
          <path id="Path_715659" data-name="Path 715659" d="M505.457,149.594a9.341,9.341,0,1,1,18.676.357,9.3,9.3,0,0,1-9.29,9.04c-5.269.088-9.722-4.924-9.385-9.4" transform="translate(-337.395 -93.637)" fill="#03a4a4"/>
          <path id="Path_715660" data-name="Path 715660" d="M271.206,524.029c-4.547.232-9.536-4.324-9.3-9.791.159-3.715,3.786-9.105,9.6-8.936a9.55,9.55,0,0,1,9.111,9.71,9.308,9.308,0,0,1-9.409,9.017" transform="translate(-174.823 -337.301)" fill="#abffff"/>
          <path id="Path_715661" data-name="Path 715661" d="M268.244,280.949v31H224.753V293.383h12.368v-6.27h12.462v-6.165Zm-6.258,6.2h-6.1v18.586h6.1ZM243.449,305.7h6.1V293.375h-6.1Zm-6.319-6.062h-6.137v6.068h6.137Z" transform="translate(-150.029 -187.541)" fill="#161615"/>
          <rect id="Rectangle_353547" data-name="Rectangle 353547" width="43.494" height="6.104" transform="translate(74.718 80.957)" fill="#161615"/>
          <rect id="Rectangle_353548" data-name="Rectangle 353548" width="31.008" height="6.107" transform="translate(87.167 68.487)" fill="#161615"/>
          <rect id="Rectangle_353549" data-name="Rectangle 353549" width="6.108" height="6.106" transform="translate(74.722 68.512)" fill="#161615"/>
          <path id="Path_715662" data-name="Path 715662" d="M280.691,46.741a9.372,9.372,0,0,1-9.565,9.3,9.327,9.327,0,0,1,.142-18.652,9.352,9.352,0,0,1,9.424,9.348m-6.215-.006a3.029,3.029,0,0,0-3.049-3.182,3.154,3.154,0,1,0-.052,6.307,3.011,3.011,0,0,0,3.1-3.125" transform="translate(-174.889 -24.961)" fill="#161615"/>
          <path id="Path_715663" data-name="Path 715663" d="M496.081,393.116a9.321,9.321,0,1,1,9.353-9.231,9.378,9.378,0,0,1-9.353,9.231m3.142-9.334a3.019,3.019,0,0,0-3.083-3.164,3.152,3.152,0,1,0-.019,6.3,3,3,0,0,0,3.1-3.14" transform="translate(-324.928 -249.973)" fill="#161615"/>
          <path id="Path_715664" data-name="Path 715664" d="M56.009,383.786a9.359,9.359,0,0,1-9.352,9.327,9.46,9.46,0,0,1-9.327-9.586,9.342,9.342,0,0,1,18.679.259m-6.219.013a3.023,3.023,0,0,0-3.072-3.177,3.149,3.149,0,1,0-.055,6.3,3.009,3.009,0,0,0,3.126-3.121" transform="translate(-24.919 -249.97)" fill="#161615"/>
          <rect id="Rectangle_353550" data-name="Rectangle 353550" width="7.1" height="19.583" rx="1.5" transform="translate(105.356 99.113)" fill="#eba325"/>
          <path id="Path_715665" data-name="Path 715665" d="M322.487,316.191h-6.1V297.605h6.1Zm0-19.583h-6.1a1,1,0,0,0-1,1v18.586a1,1,0,0,0,1,1h6.1a1,1,0,0,0,1-1V297.605a1,1,0,0,0-1-1" transform="translate(-210.53 -197.994)" fill="#040405"/>
          <rect id="Rectangle_353551" data-name="Rectangle 353551" width="7.1" height="13.324" rx="1.5" transform="translate(92.921 105.335)" fill="#fef5e5"/>
          <path id="Path_715666" data-name="Path 715666" d="M285.086,328.646h-6.1V316.319h6.1Zm0-13.324h-6.1a1,1,0,0,0-1,1v12.326a1,1,0,0,0,1,1h6.1a1,1,0,0,0,1-1V316.319a1,1,0,0,0-1-1" transform="translate(-185.563 -210.486)" fill="#040405"/>
          <rect id="Rectangle_353552" data-name="Rectangle 353552" width="7.135" height="7.065" rx="1.5" transform="translate(80.465 111.599)" fill="#eba325"/>
          <path id="Path_715667" data-name="Path 715667" d="M247.656,341.229h-6.137v-6.068h6.137Zm0-7.065h-6.137a1,1,0,0,0-1,1v6.068a1,1,0,0,0,1,1h6.137a1,1,0,0,0,1-1v-6.068a1,1,0,0,0-1-1" transform="translate(-160.555 -223.064)" fill="#040405"/>
          <path id="Path_715668" data-name="Path 715668" d="M282.821,61.725a3.592,3.592,0,0,1-3.641-3.575,3.575,3.575,0,0,1,3.7-3.729,3.653,3.653,0,0,1-.03,7.3h-.029" transform="translate(-186.36 -36.328)" fill="#6debff"/>
          <path id="Path_715669" data-name="Path 715669" d="M281.878,53.918h.019a3.155,3.155,0,0,1-.052,6.307h-.025a3.154,3.154,0,1,1,.059-6.307m0-1h0a4.074,4.074,0,0,0-4.2,4.233,4.087,4.087,0,0,0,4.14,4.069h.032a3.984,3.984,0,0,0,4.091-4.126,4.043,4.043,0,0,0-4.042-4.176Z" transform="translate(-185.359 -35.326)" fill="#040405"/>
          <path id="Path_715670" data-name="Path 715670" d="M507.547,398.753a3.65,3.65,0,1,1,.039-7.3,3.651,3.651,0,0,1-.013,7.3Z" transform="translate(-336.377 -261.305)" fill="#6debff"/>
          <path id="Path_715671" data-name="Path 715671" d="M506.608,390.948a3.153,3.153,0,0,1-.042,6.3h-.022a3.152,3.152,0,1,1,.042-6.3h.022m0-1h-.029a4.149,4.149,0,1,0-.035,8.3h.029a4.15,4.15,0,0,0,.035-8.3" transform="translate(-335.375 -260.303)" fill="#040405"/>
          <path id="Path_715672" data-name="Path 715672" d="M58.1,398.769a3.559,3.559,0,0,1-3.63-3.626,3.567,3.567,0,0,1,3.69-3.669,3.648,3.648,0,0,1-.053,7.3Z" transform="translate(-36.359 -261.319)" fill="#6debff"/>
          <path id="Path_715673" data-name="Path 715673" d="M57.166,390.97a3.15,3.15,0,0,1-.062,6.3H57.1a3.149,3.149,0,1,1,.061-6.3h.008m0-1h0v1l0-1a4.051,4.051,0,0,0-4.194,4.168,4.057,4.057,0,0,0,4.129,4.125,4.147,4.147,0,0,0,.068-8.293" transform="translate(-35.358 -260.318)" fill="#040405"/>
        </g>
      </g>
    </g>
  </g>
</svg>
