<svg xmlns="http://www.w3.org/2000/svg" xmlns:xlink="http://www.w3.org/1999/xlink" width="325.44" height="227.111" viewBox="0 0 325.44 227.111">
  <defs>
    <clipPath id="clip-path">
      <rect id="Rectangle_377931" data-name="Rectangle 377931" width="176.14" height="161.343" fill="none"/>
    </clipPath>
  </defs>
  <g id="Group_1072925" data-name="Group 1072925" transform="translate(-989.561 -6728.355)">
    <g id="Group_1017010" data-name="Group 1017010" transform="translate(989.561 6728.355)">
      <g id="Image_Place_Holder" data-name="Image Place Holder" transform="translate(0 0)">
        <rect id="Image_Place_Holder-2" data-name="Image Place Holder" width="325.44" height="227.111" rx="10" fill="#8eb095"/>
      </g>
    </g>
    <g id="Group_1072660" data-name="Group 1072660" transform="translate(1072.598 6760.118)">
      <rect id="Rectangle_377930" data-name="Rectangle 377930" width="173.669" height="129.14" transform="translate(1.109 2.057)" fill="#fef5e5"/>
      <path id="Path_715750" data-name="Path 715750" d="M.5.925.867,20.56l53.067.4,14.014,9.178,106.39-1.213-.171-28Z" transform="translate(0.61 1.134)" fill="#6debff"/>
      <g id="Group_1072659" data-name="Group 1072659" transform="translate(0 0)">
        <g id="Group_1072658" data-name="Group 1072658" clip-path="url(#clip-path)">
          <path id="Path_715751" data-name="Path 715751" d="M40.933,49.753l8.225.167s.681,17.645,16.267,17.645c0,0,15.256,2.56,20.987-17.645l33.828-.22v3.656l-15.77.7-1.193,9.053,10.54,10.015L109.955,78.7,97.3,74.884,92.963,79.23l4.215,14.085-8.2,3.3L82.362,83.665l-7.521,4.2-3.407,14.3h-7.31l-.7-15.766L54.84,83.218,45.386,94.283l-7.635-2.754,5.479-14.94-3.387-2.964L25.951,79.731,23.64,72.392l10.618-9.73-4.647-5.9L16.544,54.787l.218-6.537Z" transform="translate(20.292 59.18)" fill="#afafaf"/>
          <path id="Path_715752" data-name="Path 715752" d="M174.693,132.307H134.108a1.448,1.448,0,0,1,0-2.9h39.138V2.9H2.892V129.41H42.01a1.448,1.448,0,0,1,0,2.9H1.447A1.449,1.449,0,0,1,0,130.859V1.449A1.449,1.449,0,0,1,1.447,0H174.693a1.447,1.447,0,0,1,1.445,1.449v129.41a1.447,1.447,0,0,1-1.445,1.447" transform="translate(0 0)"/>
          <path id="Path_715753" data-name="Path 715753" d="M172.686,20.355H68.53a1.437,1.437,0,0,1-.786-.234L55.124,11.99H2.11a1.448,1.448,0,0,1,0-2.9H55.549a1.442,1.442,0,0,1,.784.234l12.622,8.131H172.686a1.448,1.448,0,0,1,0,2.9" transform="translate(0.813 11.153)"/>
          <path id="Path_715754" data-name="Path 715754" d="M70.346,9.7H64.6a1.448,1.448,0,0,1,0-2.9h5.744a1.448,1.448,0,0,1,0,2.9" transform="translate(77.46 8.35)"/>
          <path id="Path_715755" data-name="Path 715755" d="M74.644,9.7h-5.72a1.448,1.448,0,1,1,0-2.9h5.72a1.448,1.448,0,0,1,0,2.9" transform="translate(82.76 8.35)"/>
          <path id="Path_715756" data-name="Path 715756" d="M78.951,9.7H73.235a1.448,1.448,0,1,1,0-2.9h5.715a1.448,1.448,0,0,1,0,2.9" transform="translate(88.047 8.35)"/>
          <path id="Path_715757" data-name="Path 715757" d="M72.113,102.163H64.8a1.446,1.446,0,0,1-1.429-1.233L61.4,87.866a37.774,37.774,0,0,1-5.918-1.579L47.256,96.619a1.456,1.456,0,0,1-1.857.352l-6.348-3.658a1.449,1.449,0,0,1-.623-1.783l4.838-12.3a39.762,39.762,0,0,1-4.335-4.346l-12.3,4.847a1.441,1.441,0,0,1-1.786-.626l-3.658-6.348a1.449,1.449,0,0,1,.356-1.855l10.324-8.209a38.909,38.909,0,0,1-1.576-5.931L17.222,54.787a1.449,1.449,0,0,1-1.231-1.432V49.7a1.447,1.447,0,1,1,2.894,0v2.411l12.874,1.948a1.445,1.445,0,0,1,1.213,1.213,36.269,36.269,0,0,0,1.964,7.392,1.452,1.452,0,0,1-.452,1.648L24.318,72.392,26.73,76.58l12.112-4.771a1.436,1.436,0,0,1,1.652.432,36.476,36.476,0,0,0,5.41,5.415,1.446,1.446,0,0,1,.439,1.659L41.578,91.429l4.188,2.411,8.1-10.175a1.448,1.448,0,0,1,1.652-.448,35.21,35.21,0,0,0,7.372,1.964A1.448,1.448,0,0,1,64.1,86.4l1.946,12.869h4.818L72.812,86.4a1.446,1.446,0,0,1,1.211-1.216,35.3,35.3,0,0,0,7.363-1.964,1.466,1.466,0,0,1,1.654.448l8.1,10.175,4.184-2.411L90.564,79.314A1.445,1.445,0,0,1,91,77.656a36.612,36.612,0,0,0,5.413-5.417,1.439,1.439,0,0,1,1.654-.43l12.112,4.771,2.407-4.188-10.189-8.1a1.442,1.442,0,0,1-.445-1.663,33.831,33.831,0,0,0,1.979-7.352,1.446,1.446,0,0,1,1.211-1.216l12.876-1.948V49.7a1.447,1.447,0,1,1,2.894,0v3.658a1.449,1.449,0,0,1-1.229,1.432l-13.067,1.975a36.571,36.571,0,0,1-1.592,5.918L115.365,70.9a1.449,1.449,0,0,1,.356,1.855l-3.654,6.348a1.443,1.443,0,0,1-1.786.626l-12.3-4.847a39.993,39.993,0,0,1-4.339,4.346l4.836,12.3a1.444,1.444,0,0,1-.623,1.783L91.51,96.971a1.45,1.45,0,0,1-1.855-.352L81.428,86.288a38.024,38.024,0,0,1-5.911,1.579L73.542,100.93a1.446,1.446,0,0,1-1.429,1.233m-3.66-32.289A20.2,20.2,0,0,1,48.28,49.7a1.448,1.448,0,0,1,2.9,0,17.277,17.277,0,1,0,34.553,0,1.448,1.448,0,0,1,2.9,0A20.2,20.2,0,0,1,68.452,69.874" transform="translate(19.613 59.18)"/>
          <path id="Path_715758" data-name="Path 715758" d="M144.089,51.147H10.308a1.448,1.448,0,0,1,0-2.9H144.089a1.448,1.448,0,0,1,0,2.9" transform="translate(10.868 59.18)"/>
          <path id="Path_715759" data-name="Path 715759" d="M90.656,23.593H19.906a1.448,1.448,0,0,1,0-2.9h70.75a1.448,1.448,0,0,1,0,2.9" transform="translate(22.64 25.384)"/>
          <path id="Path_715760" data-name="Path 715760" d="M67.123,23.593h-11.5a1.448,1.448,0,0,1,0-2.9h11.5a1.448,1.448,0,0,1,0,2.9" transform="translate(66.442 25.384)"/>
          <path id="Path_715761" data-name="Path 715761" d="M75.654,28.7H19.906a1.448,1.448,0,0,1,0-2.9H75.654a1.448,1.448,0,0,1,0,2.9" transform="translate(22.64 31.647)"/>
          <path id="Path_715762" data-name="Path 715762" d="M67.123,28.7h-11.5a1.448,1.448,0,0,1,0-2.9h11.5a1.448,1.448,0,0,1,0,2.9" transform="translate(66.442 31.647)"/>
          <path id="Path_715763" data-name="Path 715763" d="M56.235,28.7H48.208a1.448,1.448,0,1,1,0-2.9h8.027a1.448,1.448,0,0,1,0,2.9" transform="translate(57.351 31.647)"/>
          <path id="Path_715764" data-name="Path 715764" d="M91.491,33.331H35.75a1.448,1.448,0,0,1,0-2.9H91.491a1.448,1.448,0,0,1,0,2.9" transform="translate(42.073 37.328)"/>
          <path id="Path_715765" data-name="Path 715765" d="M31.411,33.331h-11.5a1.448,1.448,0,0,1,0-2.9h11.5a1.448,1.448,0,0,1,0,2.9" transform="translate(22.64 37.328)"/>
          <path id="Path_715766" data-name="Path 715766" d="M36.9,33.331H28.889a1.448,1.448,0,0,1,0-2.9H36.9a1.448,1.448,0,0,1,0,2.9" transform="translate(33.658 37.328)"/>
          <path id="Path_715767" data-name="Path 715767" d="M99.215,38.358H29.453a1.448,1.448,0,0,1,0-2.9H99.215a1.448,1.448,0,0,1,0,2.9" transform="translate(34.35 43.494)"/>
          <path id="Path_715768" data-name="Path 715768" d="M31.411,38.358h-11.5a1.448,1.448,0,0,1,0-2.9h11.5a1.448,1.448,0,0,1,0,2.9" transform="translate(22.64 43.494)"/>
          <path id="Path_715769" data-name="Path 715769" d="M75.642,43.28H19.916a1.447,1.447,0,1,1,0-2.894H75.642a1.447,1.447,0,1,1,0,2.894" transform="translate(22.653 49.535)"/>
          <path id="Path_715770" data-name="Path 715770" d="M67.123,43.28h-11.5a1.447,1.447,0,0,1,0-2.894h11.5a1.447,1.447,0,0,1,0,2.894" transform="translate(66.442 49.535)"/>
          <path id="Path_715771" data-name="Path 715771" d="M56.235,43.28H48.208a1.447,1.447,0,1,1,0-2.894h8.027a1.447,1.447,0,1,1,0,2.894" transform="translate(57.351 49.535)"/>
        </g>
      </g>
    </g>
  </g>
</svg>
