<svg xmlns="http://www.w3.org/2000/svg" xmlns:xlink="http://www.w3.org/1999/xlink" width="116" height="116" viewBox="0 0 116 116">
  <defs>
    <clipPath id="clip-path">
      <rect id="Rectangle_378024" data-name="Rectangle 378024" width="67.61" height="83.938" fill="none"/>
    </clipPath>
  </defs>
  <g id="Group_1072927" data-name="Group 1072927" transform="translate(-741 -7305.301)">
    <circle id="Ellipse_1142" data-name="Ellipse 1142" cx="58" cy="58" r="58" transform="translate(741 7305.301)" fill="#0c5e46"/>
    <g id="Group_1072926" data-name="Group 1072926">
      <circle id="Ellipse_5689" data-name="Ellipse 5689" cx="55" cy="55" r="55" transform="translate(744 7308)" fill="#e1fbff"/>
      <g id="Group_1072830" data-name="Group 1072830" transform="translate(765 7320.932)">
        <g id="Group_1072829" data-name="Group 1072829" clip-path="url(#clip-path)">
          <path id="Path_716100" data-name="Path 716100" d="M2.061,74.65A3.088,3.088,0,0,1,.677,73.308a4.288,4.288,0,0,1-.666-2.381Q.028,40.977,0,11.028A4.457,4.457,0,0,1,3.174,6.652a4.673,4.673,0,0,1,1.39-.16q9.63,0,19.261,0a.618.618,0,0,0,.392-.051c-.52-.686-1.038-1.361-1.506-2.072a3.539,3.539,0,0,1-.621-1.6,2.9,2.9,0,0,1,2.417-2.7c1.559-.115,3.119-.038,4.679-.053,1.41-.014,2.821-.041,4.229.014a4.28,4.28,0,0,1,1.979.257,2.681,2.681,0,0,1,1.587,2.456,3.812,3.812,0,0,1-.975,2.31c-.258.379-.529.749-.806,1.114a.268.268,0,0,0-.057.24c.028.135.135.08.211.084.125.007.252,0,.377,0q9.423,0,18.846,0a4.492,4.492,0,0,1,4.369,2.9,4.091,4.091,0,0,1,.284,1.473q.014,29.024,0,58.049a1.187,1.187,0,0,0,.443.887c.984.98,1.985,1.942,2.968,2.923.738.736,1.433,1.517,2.194,2.228a17.156,17.156,0,0,1,1.876,1.906,3.754,3.754,0,0,1,.832,1.866,4.889,4.889,0,0,1-.218,2.559,4.21,4.21,0,0,1-2.142,2.259,4.857,4.857,0,0,1-3.007.288,2.907,2.907,0,0,1-1.3-.626,10.641,10.641,0,0,1-1.269-1.112c-.755-.817-1.564-1.584-2.353-2.369q-1.452-1.443-2.908-2.881-.625-.62-1.243-1.246a.8.8,0,0,0-.63-.251c-.5.016-1.007.014-1.51.014l-46.188,0a4.934,4.934,0,0,1-1.979-.279,3.51,3.51,0,0,1-.648-.381c-.016-.037-.027-.081-.085-.053M27.326,46.485l-.114-.008c-.5-.009-1.006-.01-1.509-.028a1.3,1.3,0,0,1-1.211-1.229,1.372,1.372,0,0,1,1.328-1.337c1.082-.017,2.164,0,3.247,0a.542.542,0,0,1,.187.009,1.159,1.159,0,0,0,1.172-.256q.568-.419,1.149-.822a11.035,11.035,0,0,1,2.063-1.079,16.3,16.3,0,0,1,2.434-.815,12.953,12.953,0,0,1,2.206-.408,13.249,13.249,0,0,1,2.291-.073c.54.058,1.076.155,1.617.191a9.873,9.873,0,0,1,2.155.452,15.238,15.238,0,0,1,2.97,1.195A17.749,17.749,0,0,1,50.621,44.6c.35.31.678.644,1.062,1.01v-.258q0-15.48.01-30.96c0-.318-.108-.355-.379-.354q-4.4.013-8.8.005c-.566,0-1.133,0-1.7,0-.081,0-.183-.057-.238.1a2.857,2.857,0,0,1-1.363,1.436,1.174,1.174,0,0,1-.824.218c-.072-.015-.142-.026-.145.082l-1.207,0q-7.855.006-15.71.015A2.887,2.887,0,0,1,18.685,14.3a.425.425,0,0,0-.431-.259q-5.193.01-10.385,0c-.286,0-.356.084-.356.363q.011,6.458,0,12.916Q7.507,47.413,7.489,67.5c0,.33.142.325.38.325q9.988,0,19.977,0a5.219,5.219,0,0,0,1.172-.036c-.123-.134-.226-.256-.339-.368a16.011,16.011,0,0,1-2.137-2.65A18.232,18.232,0,0,1,24.518,60.2a15.255,15.255,0,0,1-.458-3.158,14.423,14.423,0,0,1,.047-2.057,12.288,12.288,0,0,1,.5-2.939,15.057,15.057,0,0,1,2.722-5.334c.072-.087.141-.157-.006-.231M2.655,40.951h0c0,10.007.012,20.015-.018,30.022a1.705,1.705,0,0,0,1.75,1.762q14.368-.007,28.735-.006,8.326,0,16.652-.01c.105,0,.247.063.309-.052s-.082-.192-.139-.283a1.432,1.432,0,0,1-.071-1.485.368.368,0,0,0-.051-.5c-.289-.28-.568-.571-.849-.859-.113-.115-.2-.125-.354-.022-.388.261-.794.5-1.2.727a16.794,16.794,0,0,1-5.037,1.734,17.915,17.915,0,0,1-2.764.133,11.335,11.335,0,0,1-1.3-.054,4.147,4.147,0,0,1-.745-.046c-.686-.17-1.375-.308-2.055-.521-.558-.174-1.114-.355-1.665-.553a4.235,4.235,0,0,0-1.486-.4q-12.877.025-25.754.012a1.6,1.6,0,0,1-1.748-1.741q0-27.756,0-55.512c0-.2.008-.4,0-.6a.891.891,0,0,1,.07-.321,1.543,1.543,0,0,1,1.7-1.024q5.438,0,10.875.009c.088,0,.176,0,.264-.008.112-.007.157-.057.112-.172a7.069,7.069,0,0,1-.351-1.618c-.045-.32-.2-.437-.553-.436-3.588.017-7.175.011-10.762.011-.655,0-1.309-.01-1.963.006a1.567,1.567,0,0,0-1.587,1.6q-.007.434-.008.868,0,14.671,0,29.342M56.594,66.615v-.96q0-14.633,0-29.266,0-12.443,0-24.886a3.556,3.556,0,0,0-.128-1.186,1.626,1.626,0,0,0-1.728-1.174c-4.217-.017-8.433-.009-12.65-.011-.05,0-.1,0-.151,0-.158-.011-.222.051-.223.218a5.932,5.932,0,0,1-.307,1.525c-.123.456-.128.463.335.463l10.12.007c.29,0,.58-.009.868,0a1.522,1.522,0,0,1,1.619,1.606c.017.377.023.755.023,1.133q0,17.446-.012,34.893a2.5,2.5,0,0,0,.244,1.2,10.891,10.891,0,0,1,.646,1.788,17.684,17.684,0,0,1,.392,2.083,14.52,14.52,0,0,1,.275,2.724c0,.606-.246,1.186-.284,1.782A12.335,12.335,0,0,1,54.767,62a13.312,13.312,0,0,1-1.476,2.863.326.326,0,0,0,.059.49,4.693,4.693,0,0,1,.632.646.472.472,0,0,0,.709.155,1.148,1.148,0,0,1,1.2.037,4.27,4.27,0,0,0,.705.419M29.625,13.363V13.35h1.321l6.644.012c.549,0,.8-.247.807-.8a1,1,0,0,1,.017-.3c.3-.891.377-1.836.645-2.735.094-.314-.016-.411-.348-.409-1.951.012-3.9.006-5.852,0a3.338,3.338,0,0,1-.674-.063,1.312,1.312,0,0,1-.856-1.937q1.45-2.043,2.912-4.077c.234-.328.192-.422-.216-.473a1.508,1.508,0,0,0-.189,0q-4.342,0-8.683.008c-.113,0-.269-.073-.338.071s.042.237.115.338c.6.839,1.214,1.667,1.79,2.521a9.276,9.276,0,0,1,1.246,1.92,1.284,1.284,0,0,1-.944,1.638,4.048,4.048,0,0,1-.787.063c-1.787,0-3.574,0-5.361,0-.784,0-.792.011-.628.8.207.994.432,1.984.647,2.976a.5.5,0,0,0,.431.417,3.857,3.857,0,0,0,.6.042q3.851,0,7.7,0m-2.952,42.9a13.266,13.266,0,0,0,26.532.031,12.614,12.614,0,0,0-4.013-9.539,13.3,13.3,0,0,0-22.52,9.508M65.041,79.691a1.735,1.735,0,0,0-.67-1.541c-.826-.844-1.673-1.668-2.509-2.5-1.168-1.164-2.337-2.326-3.5-3.5-.211-.213-.355-.235-.574-.008-.59.61-1.208,1.194-1.8,1.8-.144.148-.439.246-.415.428.021.158.282.28.429.427q2.744,2.749,5.486,5.5a6.219,6.219,0,0,0,.726.642,1.71,1.71,0,0,0,2.825-1.247m-11.29-7.274c.085-.071.186-.143.272-.229.472-.469.947-.935,1.406-1.416.239-.251.7-.445.663-.76-.036-.28-.44-.509-.668-.771-.11-.127-.176-.11-.3-.011a18.518,18.518,0,0,0-1.96,1.914c-.388.412-.357.446.1.885a1.408,1.408,0,0,0,.489.389m-1.324-4.28a.7.7,0,0,0-.073-.11q-.378-.364-.759-.723a.157.157,0,0,0-.229-.005c-.459.316-.48.484-.094.875.114.116.221.239.341.348.082.075.137.283.277.167a2.069,2.069,0,0,0,.537-.552" transform="translate(0 0)"/>
          <path id="Path_716101" data-name="Path 716101" d="M6.82,247.013c.057-.028.069.015.085.053l-.085-.053" transform="translate(-4.759 -172.363)" fill="#eef3f6"/>
          <path id="Path_716102" data-name="Path 716102" d="M55.686,48.222A1.172,1.172,0,0,0,56.51,48a2.858,2.858,0,0,0,1.364-1.436c.055-.154.157-.1.238-.1.566-.007,1.132,0,1.7,0q4.4,0,8.8-.005c.271,0,.38.037.379.354q-.016,15.479-.01,30.96v.258c-.384-.366-.713-.7-1.062-1.01A17.751,17.751,0,0,0,64.607,74.7a15.228,15.228,0,0,0-2.97-1.195,9.881,9.881,0,0,0-2.155-.452c-.541-.036-1.078-.133-1.617-.191a13.252,13.252,0,0,0-2.291.073,12.944,12.944,0,0,0-2.206.408,16.285,16.285,0,0,0-2.434.815,11.016,11.016,0,0,0-2.063,1.079q-.58.4-1.149.822a1.16,1.16,0,0,1-1.172.256.544.544,0,0,0-.188-.009c-1.082,0-2.165-.015-3.246,0a1.373,1.373,0,0,0-1.328,1.337A1.3,1.3,0,0,0,43,78.871c.5.018,1.006.019,1.509.028a.077.077,0,0,0,.114.008c.147.073.078.144.006.231A15.057,15.057,0,0,0,41.9,84.471a12.288,12.288,0,0,0-.5,2.939,14.423,14.423,0,0,0-.046,2.057,15.235,15.235,0,0,0,.458,3.158A18.242,18.242,0,0,0,43.836,97.2a16.026,16.026,0,0,0,2.137,2.65c.113.112.216.234.339.368a5.219,5.219,0,0,1-1.172.036q-9.988-.006-19.977,0c-.238,0-.38.005-.38-.325q.024-20.091.026-40.182,0-6.458,0-12.916c0-.279.069-.364.356-.363q5.192.013,10.385,0a.426.426,0,0,1,.431.259,2.887,2.887,0,0,0,2.646,1.594Q46.48,48.3,54.334,48.3l1.207,0c.112.086.138.02.145-.082m-1.188,24H63.12a.989.989,0,0,0,.288-.041,2.618,2.618,0,0,0,2.086-2.735c.024-4.782.017-9.564.014-14.346a14.787,14.787,0,0,0-.07-2.023,2.559,2.559,0,0,0-1.7-2,5.946,5.946,0,0,0-1.671-.128c-6.1,0-12.206,0-18.309-.015a2.591,2.591,0,0,0-2.586,2.583q.024,8,0,16.007A2.643,2.643,0,0,0,41.605,71a2.332,2.332,0,0,0,2.04,1.185c3.234-.028,6.467-.016,10.853.038M38.225,54.111a1.3,1.3,0,0,0-2-.892,6.523,6.523,0,0,0-.855.847c-1,1.078-2.188,1.973-3.15,3.091-.159.186-.234.079-.356-.02-.621-.5-1.118-1.14-1.76-1.624a1.238,1.238,0,0,0-1.513-.035,1.13,1.13,0,0,0-.356,1.607,3.39,3.39,0,0,0,.609.716c.721.7,1.464,1.375,2.159,2.1a1.4,1.4,0,0,0,2.113.076c.238-.216.459-.449.686-.677,1.319-1.329,2.642-2.654,3.953-3.99a1.434,1.434,0,0,0,.471-1.2M29.4,78.725a1.24,1.24,0,0,0-1.159.664,1.113,1.113,0,0,0,.154,1.4,4.8,4.8,0,0,0,.329.363c.768.759,1.553,1.5,2.3,2.278a1.376,1.376,0,0,0,2.1,0c1.631-1.615,3.249-3.242,4.837-4.9a1.482,1.482,0,0,0,.017-1.619,1.309,1.309,0,0,0-1.952-.042c-1.215,1.24-2.454,2.456-3.673,3.693-.194.2-.326.213-.518.016-.474-.486-.961-.96-1.443-1.438a1.288,1.288,0,0,0-.991-.42M29.4,67.014a1.211,1.211,0,0,0-1.184.679,1.015,1.015,0,0,0,.115,1.268,3.706,3.706,0,0,0,.314.375c.787.777,1.566,1.565,2.374,2.32.83.776,1.322.758,2.162-.01.037-.034.073-.069.108-.1q2.265-2.29,4.529-4.581a1.248,1.248,0,0,0,.367-.67,1.222,1.222,0,0,0-.575-1.4,1.107,1.107,0,0,0-1.426.117c-.435.379-.826.8-1.232,1.21-.9.909-1.787,1.832-2.723,2.706-.2.183-.252.043-.343-.043-.483-.46-.946-.94-1.44-1.387a1.266,1.266,0,0,0-1.047-.482m2.853,28.709a1.681,1.681,0,0,0,.828-.561c1.563-1.58,3.161-3.126,4.7-4.736a1.326,1.326,0,0,0,.383-1.4,1.233,1.233,0,0,0-1.9-.6c-1.317,1.336-2.674,2.634-4,3.959-.181.181-.266.167-.434,0a14.187,14.187,0,0,0-1.6-1.526,1.335,1.335,0,0,0-1.058-.4,1.253,1.253,0,0,0-.776,2.1,14.359,14.359,0,0,0,1.28,1.314c.455.421.906.845,1.338,1.292a1.6,1.6,0,0,0,1.242.569" transform="translate(-17.294 -32.421)" fill="#eef3f6"/>
          <path id="Path_716103" data-name="Path 716103" d="M8.734,62.009q0-14.671,0-29.342,0-.434.008-.868a1.567,1.567,0,0,1,1.587-1.6c.654-.016,1.309-.006,1.964-.006,3.587,0,7.175.006,10.762-.011.354,0,.508.115.553.436a7.072,7.072,0,0,0,.351,1.618c.045.115,0,.165-.112.172-.088.005-.176.008-.264.008q-5.438-.006-10.875-.009a1.543,1.543,0,0,0-1.7,1.024.9.9,0,0,0-.07.321c0,.2,0,.4,0,.6q0,27.757,0,55.512a1.6,1.6,0,0,0,1.748,1.741q12.877,0,25.754-.012a4.237,4.237,0,0,1,1.486.4c.55.2,1.107.379,1.665.553.68.213,1.37.35,2.055.521a4.146,4.146,0,0,0,.745.046,11.328,11.328,0,0,0,1.3.054,17.955,17.955,0,0,0,2.765-.133A16.789,16.789,0,0,0,53.491,91.3c.407-.231.814-.466,1.2-.727.152-.1.242-.093.354.022.282.288.56.579.849.859a.368.368,0,0,1,.051.5,1.432,1.432,0,0,0,.071,1.485c.056.091.2.159.138.283s-.2.052-.309.052q-8.326.008-16.652.01-14.368,0-28.735.006a1.7,1.7,0,0,1-1.75-1.762c.03-10.007.018-20.015.018-30.022Z" transform="translate(-6.079 -21.058)" fill="#b3d1d6"/>
          <path id="Path_716104" data-name="Path 716104" d="M152.042,87.7a4.271,4.271,0,0,1-.705-.419,1.148,1.148,0,0,0-1.2-.037.472.472,0,0,1-.709-.155,4.71,4.71,0,0,0-.632-.646.326.326,0,0,1-.06-.49,13.3,13.3,0,0,0,1.476-2.863,12.325,12.325,0,0,0,.864-3.446c.038-.6.281-1.176.284-1.782a14.521,14.521,0,0,0-.275-2.724,17.769,17.769,0,0,0-.392-2.083,10.919,10.919,0,0,0-.646-1.788,2.5,2.5,0,0,1-.244-1.2q.006-17.446.012-34.893c0-.377-.006-.755-.023-1.133a1.522,1.522,0,0,0-1.619-1.606c-.289-.011-.579,0-.868,0l-10.12-.007c-.463,0-.458-.007-.335-.463a5.93,5.93,0,0,0,.307-1.525c0-.167.065-.229.223-.217.05,0,.1,0,.151,0,4.217,0,8.434-.006,12.65.011a1.626,1.626,0,0,1,1.728,1.174,3.565,3.565,0,0,1,.128,1.186q0,12.443,0,24.886,0,14.633,0,29.266v.96" transform="translate(-95.448 -21.086)" fill="#b3d1d6"/>
          <path id="Path_716105" data-name="Path 716105" d="M76.18,19.266q-3.851,0-7.7,0a3.86,3.86,0,0,1-.6-.041.5.5,0,0,1-.431-.417c-.216-.992-.44-1.982-.647-2.976-.164-.785-.155-.794.628-.8,1.787-.005,3.574,0,5.361,0a4.075,4.075,0,0,0,.787-.063,1.284,1.284,0,0,0,.944-1.638,9.257,9.257,0,0,0-1.245-1.92c-.577-.854-1.192-1.682-1.79-2.521-.073-.1-.177-.209-.115-.339s.225-.071.338-.071q4.341-.009,8.683-.008a1.457,1.457,0,0,1,.189,0c.408.051.451.145.216.473-.971,1.359-1.946,2.715-2.912,4.077a1.312,1.312,0,0,0,.855,1.937,3.317,3.317,0,0,0,.675.063c1.95.006,3.9.013,5.851,0,.331,0,.441.1.348.409-.268.9-.343,1.843-.645,2.735a1,1,0,0,0-.017.3c-.009.554-.258.8-.806.8L77.5,19.252H76.18v.013" transform="translate(-46.556 -5.903)" fill="#da8b35"/>
          <path id="Path_716106" data-name="Path 716106" d="M88.257,155.692a13.3,13.3,0,0,1,22.52-9.508,12.615,12.615,0,0,1,4.013,9.539,13.266,13.266,0,0,1-26.533-.032m1.168.091a12.137,12.137,0,0,0,12.051,11.979,11.587,11.587,0,0,0,8.467-3.441,11.748,11.748,0,0,0,3.555-10.1,12.086,12.086,0,0,0-24.073,1.565" transform="translate(-61.585 -99.425)" fill="#62b3f3"/>
          <path id="Path_716107" data-name="Path 716107" d="M193.373,245.908a1.71,1.71,0,0,1-2.825,1.247,6.248,6.248,0,0,1-.726-.642q-2.747-2.746-5.486-5.5c-.147-.147-.408-.269-.429-.427-.024-.183.271-.281.415-.428.593-.607,1.211-1.191,1.8-1.8.219-.226.363-.2.574.009,1.159,1.172,2.329,2.335,3.5,3.5.836.834,1.684,1.657,2.509,2.5a1.734,1.734,0,0,1,.67,1.541" transform="translate(-128.332 -166.217)" fill="#b3d1d6"/>
          <path id="Path_716108" data-name="Path 716108" d="M175.9,232.1a1.408,1.408,0,0,1-.489-.389c-.455-.44-.486-.473-.1-.885a18.6,18.6,0,0,1,1.96-1.913c.124-.1.19-.116.3.011.228.263.632.491.668.772.041.315-.423.509-.663.759-.459.481-.934.947-1.406,1.416-.087.086-.187.158-.272.229" transform="translate(-122.146 -159.684)" fill="#62b3f3"/>
          <path id="Path_716109" data-name="Path 716109" d="M170.2,223.44a2.068,2.068,0,0,1-.537.552c-.14.116-.2-.092-.277-.167-.12-.109-.226-.232-.341-.348-.386-.391-.365-.558.094-.875a.157.157,0,0,1,.229.005q.381.359.759.723a.7.7,0,0,1,.073.11" transform="translate(-117.774 -155.302)" fill="#b3d1d6"/>
          <path id="Path_716110" data-name="Path 716110" d="M126.714,52.267c-.007.1-.033.168-.145.081,0-.108.073-.1.145-.081" transform="translate(-88.322 -36.466)" fill="#b3d1d6"/>
          <path id="Path_716111" data-name="Path 716111" d="M90.165,153.813a.078.078,0,0,1-.114-.008l.114.008" transform="translate(-62.839 -107.327)" fill="#b3d1d6"/>
          <path id="Path_716112" data-name="Path 716112" d="M92.346,82.538c-4.386-.054-7.619-.066-10.853-.038a2.334,2.334,0,0,1-2.04-1.184,2.652,2.652,0,0,1-.432-1.481q.024-8,0-16.007a2.591,2.591,0,0,1,2.586-2.583c6.1.017,12.206.011,18.309.015a5.945,5.945,0,0,1,1.671.128,2.56,2.56,0,0,1,1.7,2,14.833,14.833,0,0,1,.07,2.023c0,4.782.011,9.564-.014,14.346a2.618,2.618,0,0,1-2.086,2.735,1,1,0,0,1-.289.041H92.346m-1.12-2.625c3.058,0,6.115,0,9.173.006.292,0,.392-.075.383-.378-.021-.767-.008-1.535-.008-2.3q0-6.512,0-13.025c0-.3-.1-.393-.391-.391q-2.019.016-4.039,0c-.263,0-.33.087-.335.352-.018,1.053.013,2.1-.039,3.159a1.786,1.786,0,0,1-2.843,1.295c-.494-.388-.979-.79-1.457-1.2-.37-.316-.5-.33-.871-.026-.487.4-.944.838-1.462,1.191a1.644,1.644,0,0,1-2.218,0,2.171,2.171,0,0,1-.816-1.836c-.023-.842-.012-1.686,0-2.529,0-.3-.117-.407-.4-.406-1.271.006-2.542.017-3.813,0-.342,0-.418.11-.417.433.011,2.945.017,5.89,0,8.834-.012,2.123.062,4.247-.035,6.37-.01.224.014.464.411.461,3.057-.021,6.115-.012,9.173-.011M93.39,65.492c0-.506-.006-.947,0-1.387,0-.186-.052-.282-.252-.282q-1.944.006-3.887,0c-.191,0-.268.078-.262.273.011.327,0,.655.006.981,0,.1-.058.24.07.3s.206-.05.29-.121c.229-.2.448-.406.689-.588a1.823,1.823,0,0,1,2.294-.008c.339.253.667.521,1.05.822" transform="translate(-55.142 -42.738)"/>
          <path id="Path_716113" data-name="Path 716113" d="M45.741,69.211a1.434,1.434,0,0,1-.471,1.2c-1.311,1.336-2.634,2.662-3.953,3.99-.226.228-.448.462-.686.677A1.4,1.4,0,0,1,38.519,75c-.7-.723-1.438-1.4-2.159-2.1a3.392,3.392,0,0,1-.609-.716,1.13,1.13,0,0,1,.356-1.607,1.239,1.239,0,0,1,1.513.035c.642.484,1.139,1.12,1.76,1.624.121.1.2.2.356.02.962-1.119,2.146-2.013,3.15-3.092a6.523,6.523,0,0,1,.856-.846,1.3,1.3,0,0,1,2,.892" transform="translate(-24.81 -47.521)"/>
          <path id="Path_716114" data-name="Path 716114" d="M36.947,147.993a1.288,1.288,0,0,1,.992.421c.482.478.968.952,1.443,1.438.192.2.324.181.518-.016,1.218-1.237,2.458-2.453,3.673-3.693a1.309,1.309,0,0,1,1.952.042,1.482,1.482,0,0,1-.017,1.619c-1.588,1.658-3.206,3.285-4.837,4.9a1.376,1.376,0,0,1-2.1,0c-.75-.776-1.535-1.518-2.3-2.278a4.737,4.737,0,0,1-.329-.363,1.113,1.113,0,0,1-.154-1.4,1.24,1.24,0,0,1,1.159-.665" transform="translate(-24.846 -101.69)"/>
          <path id="Path_716115" data-name="Path 716115" d="M36.932,109.1a1.266,1.266,0,0,1,1.047.482c.494.447.957.927,1.44,1.387.09.086.147.225.343.043.936-.874,1.822-1.8,2.723-2.706.405-.409.8-.832,1.232-1.21a1.106,1.106,0,0,1,1.425-.117,1.222,1.222,0,0,1,.575,1.4,1.25,1.25,0,0,1-.367.67q-2.261,2.294-4.529,4.581c-.035.036-.071.071-.108.105-.841.769-1.332.786-2.162.01-.808-.755-1.586-1.543-2.374-2.32a3.63,3.63,0,0,1-.314-.375,1.015,1.015,0,0,1-.115-1.268,1.212,1.212,0,0,1,1.185-.679" transform="translate(-24.825 -74.51)"/>
          <path id="Path_716116" data-name="Path 716116" d="M39.782,192.006a1.6,1.6,0,0,1-1.242-.569c-.432-.448-.883-.872-1.338-1.292a14.361,14.361,0,0,1-1.28-1.314,1.253,1.253,0,0,1,.776-2.1,1.335,1.335,0,0,1,1.058.4,14.188,14.188,0,0,1,1.6,1.526c.168.171.252.185.434,0,1.328-1.326,2.685-2.623,4-3.959a1.233,1.233,0,0,1,1.9.6,1.326,1.326,0,0,1-.383,1.4c-1.535,1.609-3.133,3.155-4.7,4.736a1.681,1.681,0,0,1-.828.561" transform="translate(-24.821 -128.705)"/>
          <path id="Path_716117" data-name="Path 716117" d="M92.13,158.544A12.086,12.086,0,0,1,116.2,156.98a11.748,11.748,0,0,1-3.555,10.1,11.586,11.586,0,0,1-8.467,3.441A12.136,12.136,0,0,1,92.13,158.544m2.677.114a9.374,9.374,0,0,0,9.818,9.237,9.4,9.4,0,0,0,9.033-9.818,8.985,8.985,0,0,0-2.7-6.25,9.472,9.472,0,0,0-16.147,6.831" transform="translate(-64.29 -102.188)"/>
          <path id="Path_716118" data-name="Path 716118" d="M97.279,85.864c-3.058,0-6.115-.009-9.173.012-.4,0-.421-.238-.411-.461.1-2.123.023-4.247.035-6.37.017-2.944.011-5.889,0-8.834,0-.324.075-.438.416-.433,1.271.017,2.542.006,3.813,0,.283,0,.4.11.4.406-.014.843-.024,1.686,0,2.529a2.171,2.171,0,0,0,.817,1.836,1.643,1.643,0,0,0,2.218,0c.518-.352.975-.792,1.462-1.191.371-.3.5-.289.871.026.478.408.962.809,1.457,1.2a1.786,1.786,0,0,0,2.843-1.295c.052-1.055.021-2.106.039-3.159,0-.265.071-.354.334-.352q2.02.011,4.039,0c.291,0,.391.088.391.391q-.01,6.512,0,13.024c0,.768-.014,1.536.008,2.3.008.3-.092.379-.383.378-3.058-.009-6.115-.006-9.173-.006m-4.415-.923v-.007c.78,0,1.56.02,2.34,0a1.656,1.656,0,0,0,1.811-1.539,9.346,9.346,0,0,0,0-2.82,1.858,1.858,0,0,0-1.372-1.45,8.15,8.15,0,0,0-1.422-.063c-1.366.04-2.736-.095-4.1.071a1.739,1.739,0,0,0-1.425,1.53c-.025.8,0,1.61-.022,2.415a1.827,1.827,0,0,0,1.887,1.87c.767-.01,1.535,0,2.3,0" transform="translate(-61.194 -48.689)" fill="#da8b35"/>
          <path id="Path_716119" data-name="Path 716119" d="M116.4,71.446c-.383-.3-.711-.568-1.05-.822a1.823,1.823,0,0,0-2.294.008c-.24.182-.459.392-.689.588-.084.071-.163.185-.29.121s-.066-.2-.07-.3c-.008-.327,0-.655-.006-.981-.006-.195.071-.273.262-.273q1.944,0,3.887,0c.2,0,.256.1.252.282-.008.44,0,.881,0,1.387" transform="translate(-78.152 -48.691)" fill="#da8b35"/>
          <path id="Path_716120" data-name="Path 716120" d="M100.981,164.8a9.472,9.472,0,0,1,16.147-6.831,8.985,8.985,0,0,1,2.7,6.25,9.4,9.4,0,0,1-9.033,9.818,9.374,9.374,0,0,1-9.818-9.237" transform="translate(-70.464 -108.33)" fill="#eef3f6"/>
          <path id="Path_716121" data-name="Path 716121" d="M95.126,106.346c-.767,0-1.535-.008-2.3,0a1.827,1.827,0,0,1-1.887-1.87c.025-.8,0-1.61.022-2.415a1.739,1.739,0,0,1,1.424-1.53c1.364-.165,2.734-.03,4.1-.071a8.151,8.151,0,0,1,1.422.063,1.858,1.858,0,0,1,1.372,1.45,9.354,9.354,0,0,1,0,2.82,1.657,1.657,0,0,1-1.811,1.539c-.779.025-1.56,0-2.34,0Zm.036-3.276v.024c-.427,0-.855.018-1.281-.006-.29-.017-.358.1-.368.365-.011.3.146.332.374.331.855,0,1.71-.01,2.565.009.27.006.278-.126.269-.321s.055-.417-.276-.406c-.427.015-.855,0-1.282,0" transform="translate(-63.456 -70.095)"/>
          <path id="Path_716122" data-name="Path 716122" d="M101.113,109.113c.428,0,.855.011,1.282,0,.331-.011.267.211.276.406s0,.327-.269.321c-.855-.019-1.71-.011-2.565-.009-.227,0-.384-.035-.374-.331.01-.266.078-.382.368-.365.426.024.854.006,1.281.006v-.024" transform="translate(-69.407 -76.138)" fill="#da8b35"/>
        </g>
      </g>
    </g>
  </g>
</svg>
