<svg xmlns="http://www.w3.org/2000/svg" xmlns:xlink="http://www.w3.org/1999/xlink" width="116" height="116" viewBox="0 0 116 116">
  <defs>
    <clipPath id="clip-path">
      <rect id="Rectangle_378025" data-name="Rectangle 378025" width="78.657" height="78.448" fill="none"/>
    </clipPath>
  </defs>
  <g id="Group_1072929" data-name="Group 1072929" transform="translate(-741 -7635.301)">
    <circle id="Ellipse_5672" data-name="Ellipse 5672" cx="58" cy="58" r="58" transform="translate(741 7635.301)" fill="#0c5e46"/>
    <circle id="Ellipse_5691" data-name="Ellipse 5691" cx="55" cy="55" r="55" transform="translate(744 7638.301)" fill="#e1fbff"/>
    <g id="Group_1072832" data-name="Group 1072832" transform="translate(763 7657.535)">
      <g id="Group_1072831" data-name="Group 1072831" clip-path="url(#clip-path)">
        <path id="Path_716123" data-name="Path 716123" d="M61.409,151.914c.188.585.37,1.173.565,1.755a4.3,4.3,0,0,1,.279,1.184c-.687.5-.861.858-.626,1.565.379,1.139.716,2.292,1.082,3.435a9.334,9.334,0,0,1,.536,2.862c0,.52.022,1.047.06,1.568.079,1.076.174,2.15.207,3.228a1.7,1.7,0,0,0,.092.539c.455,1.2.744,2.452,1.166,3.663.151.435.245.891.364,1.338l-15.384.006q-4.83,0-9.659,0a1.926,1.926,0,0,0-.552.075,1.906,1.906,0,0,0-.922-1.255c-.627-.439-1.254-.879-1.85-1.359a5.709,5.709,0,0,1-1.815-2.987c-.4-1.336-.816-2.668-1.235-4-.523-1.664-1.026-3.334-1.544-5-.338-1.088-.69-2.173-1.03-3.261a2.043,2.043,0,0,1,.769-2.206c.426-.32.889-.2,1.344-.252a1.807,1.807,0,0,1,1.718,1.375c.268.925.525,1.854.818,2.771.209.656.439,1.305.626,1.968.126.446.261.891.423,1.324A1.589,1.589,0,0,1,36.7,162a2.551,2.551,0,0,0-.244.488,1.1,1.1,0,0,0,0,1.139,1.077,1.077,0,0,0,1.863.074,10.654,10.654,0,0,0,1.1-2.035.855.855,0,0,0,.031-.611c-.179-.6-.376-1.2-.541-1.807-.169-.623-.355-1.246-.558-1.852-.188-.559-.352-1.131-.545-1.69-.3-.874-.514-1.779-.824-2.649s-.553-1.79-.848-2.679c-.234-.7-.447-1.422-.645-2.141-.24-.869-.539-1.721-.811-2.581q-.3-.948-.6-1.9c-.347-1.117-.69-2.234-1.041-3.35a5.523,5.523,0,0,1-.214-.561,28.487,28.487,0,0,0-.8-2.782,6.769,6.769,0,0,1-.419-2.188,1.552,1.552,0,0,1,.713-1.319,1.992,1.992,0,0,1,3.105,1.108c.29.966.6,1.925.9,2.889q.67,2.167,1.333,4.336.606,1.968,1.213,3.935c.241.783.474,1.568.72,2.349.286.907.616,1.8.867,2.717.263.961.569,1.909.884,2.853a1.119,1.119,0,0,0,1.694.61,1.09,1.09,0,0,0,.431-1.317c-.308-1.028-.633-2.05-.954-3.074-.435-1.391-.845-2.79-1.319-4.17-.211-.612-.364-1.249-.563-1.869a2,2,0,0,1,1.331-2.443A2.1,2.1,0,0,1,44.33,142.6a7.583,7.583,0,0,1,.322,1.009c.43,1.443.91,2.87,1.328,4.318.253.877.541,1.751.838,2.617a11.864,11.864,0,0,0,.58,1.676,1.075,1.075,0,0,0,1.21.494,1.131,1.131,0,0,0,.8-1.326c-.308-1.052-.6-2.107-.92-3.156-.33-1.1-.72-2.179-1.006-3.293a1.851,1.851,0,0,1,.377-1.683,1.883,1.883,0,0,1,2.1-.621,1.962,1.962,0,0,1,1.375,1.419c.135.4.245.806.367,1.209.308,1.024.61,2.049.927,3.07.188.6.393,1.2.606,1.8a.924.924,0,0,0,.7.706,1.27,1.27,0,0,0,1.308-.472.762.762,0,0,0,.175-.658c-.31-1.045-.649-2.082-.959-3.127a2.294,2.294,0,0,1,0-1.461,1.783,1.783,0,0,1,1.915-1.3,2,2,0,0,1,1.8,1.358q.381,1.325.8,2.639c.263.815.507,1.635.758,2.453a3.326,3.326,0,0,0,.448,1.172c.392.5.672.635,1.226.471" transform="translate(-22.33 -95.745)" fill="#ffdccd"/>
        <path id="Path_716124" data-name="Path 716124" d="M39.079,119.44c-.554.164-.834.028-1.226-.47A3.328,3.328,0,0,1,37.4,117.8c-.251-.818-.5-1.638-.758-2.453q-.423-1.312-.8-2.639a2,2,0,0,0-1.8-1.358,1.783,1.783,0,0,0-1.915,1.3,2.294,2.294,0,0,0,0,1.461c.311,1.045.65,2.082.959,3.127a.762.762,0,0,1-.175.658,1.271,1.271,0,0,1-1.309.471.923.923,0,0,1-.7-.706c-.213-.6-.418-1.194-.606-1.8-.318-1.021-.619-2.046-.927-3.07-.122-.4-.232-.811-.367-1.209a1.961,1.961,0,0,0-1.375-1.418,1.883,1.883,0,0,0-2.1.621,1.851,1.851,0,0,0-.377,1.683c.285,1.114.676,2.194,1.006,3.293.315,1.049.612,2.1.92,3.156a1.131,1.131,0,0,1-.8,1.326,1.075,1.075,0,0,1-1.21-.494,11.9,11.9,0,0,1-.58-1.676c-.3-.866-.585-1.74-.838-2.618-.418-1.448-.9-2.875-1.328-4.317A7.612,7.612,0,0,0,22,110.127a2.1,2.1,0,0,0-2.378-1.114,2,2,0,0,0-1.331,2.443c.2.62.352,1.257.563,1.869.475,1.38.884,2.778,1.32,4.17.32,1.024.646,2.046.953,3.074a1.089,1.089,0,0,1-.431,1.317,1.119,1.119,0,0,1-1.695-.61c-.315-.943-.62-1.891-.884-2.852-.251-.916-.581-1.811-.867-2.718-.247-.781-.479-1.566-.72-2.349q-.605-1.968-1.213-3.936-.667-2.168-1.333-4.336c-.3-.964-.61-1.923-.9-2.889a1.992,1.992,0,0,0-3.1-1.108,1.553,1.553,0,0,0-.713,1.319,6.768,6.768,0,0,0,.419,2.188,28.43,28.43,0,0,1,.8,2.782,5.527,5.527,0,0,0,.215.561c.35,1.116.694,2.234,1.041,3.35q.3.95.6,1.9c.272.86.571,1.712.811,2.581.2.719.412,1.437.645,2.141.3.889.534,1.8.848,2.679s.522,1.776.824,2.649c.193.559.357,1.131.544,1.69.2.605.39,1.229.558,1.851.164.607.362,1.2.541,1.807a.857.857,0,0,1-.031.611,10.657,10.657,0,0,1-1.1,2.035,1.077,1.077,0,0,1-1.862-.075,1.1,1.1,0,0,1,0-1.139,2.556,2.556,0,0,1,.244-.487,1.589,1.589,0,0,0,.146-1.752c-.162-.434-.3-.879-.423-1.324-.187-.663-.417-1.313-.626-1.968-.293-.917-.549-1.846-.818-2.771a1.807,1.807,0,0,0-1.718-1.375c-.455.051-.917-.069-1.344.252a2.043,2.043,0,0,0-.769,2.206c.339,1.088.691,2.172,1.03,3.261.518,1.665,1.021,3.335,1.544,5,.419,1.331.837,2.662,1.235,4a5.709,5.709,0,0,0,1.815,2.987c.6.479,1.223.92,1.85,1.358a1.907,1.907,0,0,1,.922,1.255,1.609,1.609,0,0,1-.885.965.823.823,0,0,1-.811-.064,15.323,15.323,0,0,1-3.738-3.065,7.382,7.382,0,0,1-1.082-2.068c-.469-1.279-.773-2.608-1.217-3.894-.335-.971-.609-1.962-.919-2.941-.32-1.01-.614-2.028-.933-3.037-.354-1.121-.747-2.232-1.028-3.374a3.76,3.76,0,0,1,.219-2.653,4.267,4.267,0,0,1,1.494-1.785,4.153,4.153,0,0,1,2.5-.733c.14.007.282-.006.421.01.232.026.263-.077.2-.267-.618-1.769-1.146-3.565-1.666-5.365-.184-.638-.418-1.262-.613-1.9a.327.327,0,0,0-.373-.268c-1.51,0-3.022.033-4.53-.028a4.2,4.2,0,0,1-3.794-2.272,3.873,3.873,0,0,1-.443-1.852c0-4.719-.022-9.438.008-14.158a3.956,3.956,0,0,1,2.5-3.554,4.454,4.454,0,0,1,1.825-.327c4.508-.02,9.017-.012,13.525-.009a4.382,4.382,0,0,1,2.494.72,4.18,4.18,0,0,1,1.475,1.853,7.01,7.01,0,0,1,.365,3c.017,4.133.007,8.267.007,12.4a1.84,1.84,0,0,1-.069.72c-.133.324.032.478.3.627a4.3,4.3,0,0,1,1.439,1.469c.152.231.212.246.424.048a3.714,3.714,0,0,1,2.51-1.026,4.122,4.122,0,0,1,2.907.927,4.613,4.613,0,0,1,1.223,1.6,4.605,4.605,0,0,1,1.216-.879,4.3,4.3,0,0,1,5.275,1.469,4.207,4.207,0,0,1,.669,1.342c.12.693.414,1.327.542,2.017a13.053,13.053,0,0,0,.445,1.365c.228.739.478,1.47.715,2.205s.051,1.146-.724,1.568M7.457,105.092a1.791,1.791,0,0,1-.536-1.448c.019-3.065.011-6.13.013-9.194a4.976,4.976,0,0,1,.023-.561.881.881,0,0,1,.748-.81c.3-.008.6-.066.9-.07.725-.009,1.453-.036,2.175.009a3.65,3.65,0,0,1,1.42.21A3.382,3.382,0,0,1,14.35,96.6a2.544,2.544,0,0,1-.52,1.584c-.084.1-.072.173.038.258A4.1,4.1,0,0,1,14.99,99.9c.047.3.178.573.2.878a6.755,6.755,0,0,0,.334,1.719c.3.9.572,1.817.855,2.726.252.811.511,1.621.751,2.435.054.183.11.215.245.084a4.077,4.077,0,0,1,2.069-1.026c.372-.078.452-.264.451-.623q-.019-6.533-.006-13.066a10.14,10.14,0,0,0-.064-1.357c-.066-.49-.732-1.28-1.331-1.26a3.458,3.458,0,0,1-.721-.067c-4.577,0-9.154.012-13.73,0a1.784,1.784,0,0,0-1.778,1.8c-.022,3.98-.01,7.96-.009,11.939,0,.6.006,1.194.01,1.79a1.767,1.767,0,0,0,1.772,1.973c.8.021,1.611.006,2.416,0,.537,0,1.074-.009,1.611,0,.241,0,.294-.082.17-.288a1.845,1.845,0,0,1-.154-.449c-.2-.675-.414-1.345-.624-2.017m1.824-8.64a7.653,7.653,0,0,1-.006.807c-.03.279.083.356.331.311a15.014,15.014,0,0,1,1.537-.072,1.057,1.057,0,0,0,.882-1.47,1.118,1.118,0,0,0-1.017-.7c-.5,0-1.007.008-1.51-.007-.2-.006-.227.082-.221.248.011.292,0,.586,0,.878" transform="translate(0 -63.271)"/>
        <path id="Path_716125" data-name="Path 716125" d="M11.864,3.835l.564.114.034,0,.032-.01L14.174,3.9a1.08,1.08,0,0,0,.754-.019.049.049,0,0,1,.063,0c.1.848.421,1.128,1.277,1.128,2.471,0,4.942-.025,7.412.011a1.843,1.843,0,0,1,1.967,1.939c-.039,1.873-.012,3.747-.012,5.62,0,2.74,0,5.48,0,8.22a1.752,1.752,0,0,1-.654,1.411,2,2,0,0,1-1.4.342q-6.745.015-13.489.008a3.908,3.908,0,0,1-.489-.037A1.736,1.736,0,0,1,8,20.7c0-4.6-.019-9.2.009-13.8a1.738,1.738,0,0,1,1.48-1.821,7.6,7.6,0,0,1,1.249-.06,1,1,0,0,0,1.051-.994.4.4,0,0,1,.073-.188m9.982,14.924a3.5,3.5,0,0,0-.448-1.566c-.607-1.65-1.256-3.284-1.885-4.926-.467-1.22-.927-2.443-1.389-3.665a1.376,1.376,0,0,0-2.6.128q-.455,1.213-.916,2.423-1.411,3.713-2.826,7.426a.519.519,0,0,0-.06.267,1.4,1.4,0,0,0,1.033,1.068,1.207,1.207,0,0,0,1.229-.749,9.241,9.241,0,0,0,.456-1.24.547.547,0,0,1,.62-.471c1.229.008,2.458.009,3.686,0,.26,0,.355.1.444.332a8.733,8.733,0,0,0,.6,1.529,1.115,1.115,0,0,0,1.246.556,1.028,1.028,0,0,0,.808-1.107" transform="translate(-5.748 -2.757)" fill="#df73a5"/>
        <path id="Path_716126" data-name="Path 716126" d="M166.39,92.021l2.161,0a2.75,2.75,0,0,0,.891.007,1.256,1.256,0,0,0,.666,1.043,1.111,1.111,0,0,0,.7.142c2.248,0,4.5.005,6.745,0a1.615,1.615,0,0,1,1.773,1.629c0,.269.024.538.024.807,0,1.955,0,3.91-.012,5.865-.015,2.564.042,5.127-.026,7.691V109.2a1.41,1.41,0,0,1-.775,1.308,2.215,2.215,0,0,1-1.189.219l-11.032,0c-.972,0-1.944.012-2.916-.008a1.561,1.561,0,0,1-1.523-1.489c-.014-.245-.031-.491-.031-.737q0-5.849,0-11.7c0-.679-.041-1.358.021-2.036a1.581,1.581,0,0,1,1.689-1.534c.5,0,1.007,0,1.511,0a1.25,1.25,0,0,0,1.322-1.193m-.346,9.89h.008q0,2.09,0,4.18a6.054,6.054,0,0,0,.019.947,1.234,1.234,0,0,0,1.175,1.018c.936,0,1.875-.039,2.809,0a4.017,4.017,0,0,0,1.985-.474,5.643,5.643,0,0,0,3.056-4.734,9.075,9.075,0,0,0,0-1.554,6.153,6.153,0,0,0-1.255-3.573,4.235,4.235,0,0,0-2.821-1.735,25,25,0,0,0-3.781-.084,1.105,1.105,0,0,0-1.072.584,1.681,1.681,0,0,0-.124.788q0,2.318,0,4.636" transform="translate(-116.338 -66.151)" fill="#8fd7f8"/>
        <path id="Path_716127" data-name="Path 716127" d="M153.73,11.093c0-2.482-.011-4.964.005-7.446a3.479,3.479,0,0,1,1.324-2.584A3.968,3.968,0,0,1,157.79.039c4.578-.011,9.156-.021,13.734,0a4.126,4.126,0,0,1,3.765,1.974,4.3,4.3,0,0,1,.544,2.309c.012,4.5.006,8.992.014,13.488a4.07,4.07,0,0,1-1.818,3.646,4.405,4.405,0,0,1-2.516.681c-4.473,0-8.945-.008-13.418.008a4.613,4.613,0,0,1-2.853-.859,4.121,4.121,0,0,1-1.234-1.617,3.2,3.2,0,0,1-.28-1.373q.008-3.6,0-7.2m2.279.485c.037,1.964-.059,4.435.045,6.9a1.634,1.634,0,0,0,1.122,1.287c.4.031.794.046,1.192.046q6.48.006,12.96,0c.3,0,.608-.022.911-.05a1.431,1.431,0,0,0,1.234-1.316c.011-.281.029-.561.029-.842q0-5.111-.005-10.221c0-1.147-.008-2.294-.009-3.441a1.61,1.61,0,0,0-1.738-1.654c-4.648-.035-9.3-.025-13.944-.007a1.723,1.723,0,0,0-1.679,1.048,2.786,2.786,0,0,0-.114,1.135c-.009,2.2,0,4.4,0,7.109" transform="translate(-110.509 -0.019)"/>
        <path id="Path_716128" data-name="Path 716128" d="M173.441,106.3c.068-2.563.011-5.127.026-7.691.012-1.955.011-3.91.012-5.866,0-.269-.024-.538-.024-.807a1.615,1.615,0,0,0-1.773-1.629c-2.248.007-4.5,0-6.745,0a1.108,1.108,0,0,1-.7-.142,1.255,1.255,0,0,1-.666-1.043,1.439,1.439,0,0,1,1.335-1.147c2.318.032,4.638-.032,6.955.028a4.017,4.017,0,0,1,3.8,3,5.228,5.228,0,0,1,.124,1.348c.012,4.461.007,8.922.018,13.384a4.1,4.1,0,0,1-3.973,4.386c-4.537.143-9.075.04-13.613.06a4.586,4.586,0,0,1-3-.944,3.651,3.651,0,0,1-1.528-2.882q-.045-7.218,0-14.437a3.727,3.727,0,0,1,1.754-3.189,3.909,3.909,0,0,1,2.485-.738,8.467,8.467,0,0,1,1.636.064,1.265,1.265,0,0,1,.96,1.059,1.25,1.25,0,0,1-1.322,1.193c-.5.008-1.007,0-1.511,0A1.581,1.581,0,0,0,156,91.844c-.062.678-.02,1.358-.021,2.036q-.008,5.849,0,11.7c0,.245.017.491.031.737a1.561,1.561,0,0,0,1.523,1.489c.972.021,1.944.008,2.916.008l11.032,0a2.216,2.216,0,0,0,1.19-.219,1.411,1.411,0,0,0,.774-1.308l.025.006Z" transform="translate(-110.467 -63.244)"/>
        <path id="Path_716129" data-name="Path 716129" d="M6.122,1.078a.4.4,0,0,0-.073.188A1,1,0,0,1,5,2.26a7.6,7.6,0,0,0-1.249.06,1.738,1.738,0,0,0-1.48,1.821c-.028,4.6-.013,9.2-.009,13.8a1.735,1.735,0,0,0,1.6,1.826,3.917,3.917,0,0,0,.489.037q6.745,0,13.489-.008a2,2,0,0,0,1.4-.342,1.753,1.753,0,0,0,.654-1.411c-.009-2.74,0-5.48,0-8.22,0-1.873-.026-3.747.012-5.62A1.842,1.842,0,0,0,17.937,2.27c-2.47-.036-4.941-.011-7.412-.011-.856,0-1.173-.28-1.277-1.128.064-.94.608-1.1,1.246-1.107,2.494-.024,4.988-.037,7.481,0a4.046,4.046,0,0,1,3.089,1.259,4.171,4.171,0,0,1,1.143,2.854c.019,4.636.058,9.274-.014,13.909a4,4,0,0,1-3.437,4.021,5.641,5.641,0,0,1-1.085.051c-4.437,0-8.875-.02-13.312.013a4.269,4.269,0,0,1-3.081-1.157A3.819,3.819,0,0,1,.023,18.1C.01,13.379,0,8.661.023,3.942A3.739,3.739,0,0,1,1.538.906,4.622,4.622,0,0,1,5.226.093a.856.856,0,0,1,.742.655.618.618,0,0,0,.154.33" transform="translate(-0.006 0)"/>
        <path id="Path_716130" data-name="Path 716130" d="M143.04,228.441c-.12-.446-.213-.9-.365-1.338-.421-1.211-.71-2.463-1.166-3.663a1.689,1.689,0,0,1-.092-.539c-.034-1.079-.128-2.153-.207-3.228-.038-.521-.06-1.048-.06-1.568a9.333,9.333,0,0,0-.536-2.862c-.366-1.143-.7-2.3-1.083-3.435-.235-.707-.062-1.066.626-1.565a7.646,7.646,0,0,1,.771.014c.324.036.783.7.852,1.036.119.577.331,1.135.5,1.7a34.669,34.669,0,0,1,1.073,3.772,19.447,19.447,0,0,1,.182,3.094,14,14,0,0,0,.349,3.5c.443,1.593.961,3.165,1.465,4.74a1.02,1.02,0,0,1-.253,1.044,1.042,1.042,0,0,1-1.081.4,1.2,1.2,0,0,1-.854-.907c-.015-.076-.03-.164-.123-.2" transform="translate(-100.234 -151.135)"/>
        <path id="Path_716131" data-name="Path 716131" d="M93.769,19.9c-1.37,0-2.74,0-4.11,0a1.159,1.159,0,0,1-1.16-1.173,1.026,1.026,0,0,1,.94-1.063,7.824,7.824,0,0,1,1.121-.055q3.513,0,7.026,0a2.862,2.862,0,0,1,.662.064,1.132,1.132,0,0,1,.837,1.221A1.108,1.108,0,0,1,97.949,19.9h-4.18" transform="translate(-63.619 -12.656)"/>
        <path id="Path_716132" data-name="Path 716132" d="M247.323,105.84c1.416.022,2.832-.044,4.248.033a1.05,1.05,0,0,1,1,.828,1.09,1.09,0,0,1-.7,1.286,2.06,2.06,0,0,1-.717.146c-2.634,0-5.267,0-7.9-.013a1.278,1.278,0,0,1-1.3-1.225,1.145,1.145,0,0,1,.952-1.012c1.25-.1,2.5-.025,3.754-.045.222,0,.445,0,.667,0" transform="translate(-173.927 -76.079)"/>
        <path id="Path_716133" data-name="Path 716133" d="M247.236,19.907c-1.368,0-2.737,0-4.105,0a1.249,1.249,0,0,1-1.147-1.019,1.191,1.191,0,0,1,1.027-1.228,7.512,7.512,0,0,1,.875-.048q3.579-.005,7.158,0a4.154,4.154,0,0,1,.521.043,1.08,1.08,0,0,1,1.029,1.2,1.056,1.056,0,0,1-1.147,1.045c-1.4.035-2.807.01-4.21.01Z" transform="translate(-173.953 -12.657)"/>
        <path id="Path_716134" data-name="Path 716134" d="M93.742,105.836c1.439.031,2.879-.033,4.318.034a.906.906,0,0,1,.954.731,1.057,1.057,0,0,1-.527,1.32,1.681,1.681,0,0,1-.834.214c-2.6,0-5.2-.006-7.8.005a1.343,1.343,0,0,1-1.391-1.246,1.086,1.086,0,0,1,.96-1.014c1.438-.092,2.878-.01,4.317-.046" transform="translate(-63.593 -76.082)"/>
        <path id="Path_716135" data-name="Path 716135" d="M245.765,35.286c.83,0,1.661,0,2.491,0a1.406,1.406,0,0,1,.817.22,1.1,1.1,0,0,1,.394,1.222.974.974,0,0,1-.752.744,2.649,2.649,0,0,1-.82.12c-1.567,0-3.134.007-4.7,0a1.349,1.349,0,0,1-1.24-1.081A1.2,1.2,0,0,1,243.2,35.3c.854-.015,1.708,0,2.562,0Z" transform="translate(-173.934 -25.365)"/>
        <path id="Path_716136" data-name="Path 716136" d="M92.165,35.3c.82,0,1.639,0,2.459,0a1.351,1.351,0,0,1,1.1.416,1.117,1.117,0,0,1-.6,1.814,1.883,1.883,0,0,1-.588.073q-2.423-.008-4.846-.007a1.313,1.313,0,0,1-1.218-1.037A1.181,1.181,0,0,1,89.6,35.31c.855,0,1.709,0,2.564,0v0" transform="translate(-63.596 -25.378)"/>
        <path id="Path_716137" data-name="Path 716137" d="M245.844,125.584c-.947-.035-1.872.042-2.795-.042a1.158,1.158,0,0,1-1.1-1.021,1.194,1.194,0,0,1,1.038-1.19c.2-.015.394-.043.593-.043,1.439,0,2.879,0,4.318,0a2.4,2.4,0,0,1,.951.168,1.07,1.07,0,0,1,.626,1.266,1.017,1.017,0,0,1-.885.811c-.921.108-1.847.007-2.748.05" transform="translate(-173.928 -88.627)"/>
        <path id="Path_716138" data-name="Path 716138" d="M92.27,123.287q1.139,0,2.279,0a1.754,1.754,0,0,1,.925.239c.5.305.553.677.439,1.325a.962.962,0,0,1-.984.678c-1.53.077-3.06.044-4.59.036a3.866,3.866,0,0,1-.892-.022,1.237,1.237,0,0,1-.983-1.087,1.215,1.215,0,0,1,.942-1.1,3.808,3.808,0,0,1,.759-.067c.7.007,1.4,0,2.1,0Z" transform="translate(-63.593 -88.624)"/>
        <path id="Path_716139" data-name="Path 716139" d="M245.655,143.2c-.878,0-1.757-.01-2.635,0a1.194,1.194,0,0,1-1.094-.8.9.9,0,0,1,.291-1.064,1.235,1.235,0,0,1,.88-.412c1.721.009,3.442-.01,5.163.006a1.13,1.13,0,0,1,1.122.832,1.216,1.216,0,0,1-.469,1.261.855.855,0,0,1-.553.178c-.9-.008-1.8,0-2.705,0" transform="translate(-173.857 -101.307)"/>
        <path id="Path_716140" data-name="Path 716140" d="M245.655,53.021q1.28,0,2.561,0a1.635,1.635,0,0,1,.7.143,1.092,1.092,0,0,1-.277,2.029,4.057,4.057,0,0,1-.787.082c-1.555-.01-3.11-.008-4.665-.008a1.292,1.292,0,0,1-.9-.364,1.046,1.046,0,0,1,.273-1.753,1.066,1.066,0,0,1,.529-.131c.853.01,1.707,0,2.561,0" transform="translate(-173.911 -38.113)"/>
        <path id="Path_716141" data-name="Path 716141" d="M92.219,143.186c-.854,0-1.707,0-2.56,0a1.124,1.124,0,1,1-.081-2.247c1.332-.033,2.665-.026,4-.031.432,0,.865,0,1.3.018a1.232,1.232,0,0,1,1.062.735c.108.658.094.984-.518,1.39a.909.909,0,0,1-.531.138c-.889,0-1.777,0-2.666,0" transform="translate(-63.616 -101.293)"/>
        <path id="Path_716142" data-name="Path 716142" d="M92.145,55.264c-.83,0-1.661,0-2.491,0a1.178,1.178,0,0,1-1.013-1.8,1.023,1.023,0,0,1,.958-.435c1.719-.018,3.439-.022,5.158,0a1.222,1.222,0,0,1,.867.261,1.179,1.179,0,0,1,.281,1.233.972.972,0,0,1-.753.664,2.459,2.459,0,0,1-.655.082c-.784-.009-1.567,0-2.351,0v-.006" transform="translate(-63.589 -38.113)"/>
        <path id="Path_716143" data-name="Path 716143" d="M30.725,4.011a1.079,1.079,0,0,1-.754.019l.754-.019" transform="translate(-21.545 -2.883)" fill="#ffdccd"/>
        <path id="Path_716144" data-name="Path 716144" d="M23.827,4.166l-.032.011-.034,0c.019-.03.04-.036.066-.009" transform="translate(-17.081 -2.983)" fill="#ffdccd"/>
        <path id="Path_716145" data-name="Path 716145" d="M8.024,111.812c0-.6-.01-1.194-.01-1.79,0-3.98-.013-7.96.009-11.939a1.785,1.785,0,0,1,1.778-1.8c4.577.015,9.154.006,13.73,0a3.474,3.474,0,0,0,.721.067,12.364,12.364,0,0,1-.15,2.019,18.491,18.491,0,0,1-.653,2.926,17.727,17.727,0,0,1-2.132,4.126.867.867,0,0,1-.569.418,4.111,4.111,0,0,0-1.122-1.46c-.11-.085-.122-.154-.038-.258a2.544,2.544,0,0,0,.52-1.584,3.381,3.381,0,0,0-2.15-3.367,3.648,3.648,0,0,0-1.42-.211c-.723-.045-1.45-.019-2.175-.009-.3,0-.6.062-.9.07a.882.882,0,0,0-.748.81,4.968,4.968,0,0,0-.023.561c0,3.065.006,6.13-.013,9.194a1.791,1.791,0,0,0,.536,1.448c-.238.067-.426.275-.643.325-.708.162-1.43.266-2.149.376a20.218,20.218,0,0,1-2.4.08" transform="translate(-5.758 -69.211)" fill="#ffdccd"/>
        <path id="Path_716146" data-name="Path 716146" d="M53.322,106.017a.866.866,0,0,0,.569-.418,17.716,17.716,0,0,0,2.132-4.126,18.485,18.485,0,0,0,.653-2.926,12.334,12.334,0,0,0,.15-2.019c.6-.02,1.265.771,1.331,1.26a10.093,10.093,0,0,1,.063,1.357q0,6.533.006,13.066c0,.359-.079.545-.451.623a4.077,4.077,0,0,0-2.068,1.026c-.135.131-.191.1-.245-.084-.241-.815-.5-1.624-.751-2.435-.283-.909-.552-1.824-.855-2.726a6.755,6.755,0,0,1-.334-1.719c-.021-.305-.151-.581-.2-.878" transform="translate(-38.331 -69.391)" fill="#b2e49e"/>
        <path id="Path_716147" data-name="Path 716147" d="M8.051,149.539a20.219,20.219,0,0,0,2.4-.08c.719-.11,1.441-.215,2.149-.376.217-.049.405-.258.643-.325.209.672.423,1.342.623,2.017a1.85,1.85,0,0,0,.154.448c.124.205.072.29-.169.288-.537,0-1.074,0-1.611,0-.805,0-1.611.016-2.416-.005a1.767,1.767,0,0,1-1.772-1.972" transform="translate(-5.785 -106.938)" fill="#b2e49e"/>
        <path id="Path_716148" data-name="Path 716148" d="M32.986,115.144c0-.293.008-.586,0-.878-.006-.166.017-.254.221-.248.5.015,1.007,0,1.511.007a1.117,1.117,0,0,1,1.017.7,1.057,1.057,0,0,1-.882,1.47,15,15,0,0,0-1.537.072c-.249.046-.361-.031-.331-.311a7.58,7.58,0,0,0,.005-.807" transform="translate(-23.706 -81.963)" fill="#ffdccd"/>
        <path id="Path_716149" data-name="Path 716149" d="M31.375,28.741a1.028,1.028,0,0,1-.808,1.107,1.116,1.116,0,0,1-1.246-.557,8.766,8.766,0,0,1-.6-1.529c-.09-.231-.184-.335-.444-.332-1.229.013-2.457.012-3.686,0a.546.546,0,0,0-.62.47,9.2,9.2,0,0,1-.456,1.24,1.207,1.207,0,0,1-1.229.749,1.4,1.4,0,0,1-1.033-1.068.522.522,0,0,1,.06-.267q1.416-3.712,2.826-7.426.46-1.211.916-2.423a1.376,1.376,0,0,1,2.6-.128c.461,1.222.921,2.445,1.388,3.665.628,1.642,1.278,3.276,1.885,4.926a3.5,3.5,0,0,1,.448,1.566m-4.97-3.6v.011h.946c.41,0,.412-.011.249-.374a30.287,30.287,0,0,1-1.075-2.843c-.02-.06.024-.158-.074-.171s-.124.086-.153.16q-.579,1.48-1.157,2.96c-.07.178-.022.261.177.259.362-.005.724,0,1.086,0" transform="translate(-15.277 -12.739)"/>
        <path id="Path_716150" data-name="Path 716150" d="M176.808,111.757q0-2.318,0-4.636a1.685,1.685,0,0,1,.124-.788,1.106,1.106,0,0,1,1.072-.584,25.042,25.042,0,0,1,3.781.084,4.234,4.234,0,0,1,2.821,1.735,6.151,6.151,0,0,1,1.255,3.573,9.045,9.045,0,0,1,0,1.554,5.644,5.644,0,0,1-3.056,4.734,4.017,4.017,0,0,1-1.985.474c-.935-.04-1.873,0-2.81,0a1.235,1.235,0,0,1-1.175-1.018,6.118,6.118,0,0,1-.019-.947q0-2.09,0-4.18Zm2.3.052h.014c0,1.171.006,2.342-.005,3.513,0,.22.058.281.276.271.479-.021.96-.022,1.44-.015a2.279,2.279,0,0,0,2.206-1.337,5.253,5.253,0,0,0,0-4.92,2.111,2.111,0,0,0-1.624-1.208,19,19,0,0,0-1.988-.068c-.256-.011-.334.048-.329.32.018,1.147.008,2.3.008,3.443" transform="translate(-127.101 -75.997)"/>
        <path id="Path_716151" data-name="Path 716151" d="M224,153.127l.025,0-.025-.006v.008" transform="translate(-161.028 -110.072)" fill="#df73a5"/>
        <path id="Path_716152" data-name="Path 716152" d="M161.833,17.318c0-2.706,0-4.908,0-7.109a2.786,2.786,0,0,1,.114-1.135,1.723,1.723,0,0,1,1.679-1.048c4.648-.019,9.3-.028,13.944.007a1.61,1.61,0,0,1,1.738,1.654c0,1.147.008,2.295.009,3.442q0,5.111.005,10.221c0,.281-.019.561-.03.842a1.431,1.431,0,0,1-1.234,1.316c-.3.029-.607.05-.911.05q-6.48,0-12.96,0c-.4,0-.8-.015-1.192-.046a1.634,1.634,0,0,1-1.122-1.287c-.1-2.469-.008-4.94-.045-6.9m9.7-6.55a5.2,5.2,0,0,0-.806.006,6.447,6.447,0,0,0-2.873,1.188,5.92,5.92,0,0,0-2.221,6.487,6.014,6.014,0,0,0,5.107,4.405,5.158,5.158,0,0,0,3.367-.6,3.573,3.573,0,0,0,1.58-1.45,1.112,1.112,0,0,0-.682-1.486,1.182,1.182,0,0,0-1.265.349,2.821,2.821,0,0,1-.979.718,3.511,3.511,0,0,1-2.445.055,3.77,3.77,0,0,1-2.326-5.1,3.833,3.833,0,0,1,4.947-2.063c.371.146.688.394,1.074.508a1.111,1.111,0,0,0,1.347-.7,1.152,1.152,0,0,0-.563-1.4,5.747,5.747,0,0,0-3.261-.924" transform="translate(-116.333 -5.759)" fill="#b2e49e"/>
        <path id="Path_716153" data-name="Path 716153" d="M36.276,35.464c-.362,0-.724,0-1.086,0-.2,0-.247-.08-.177-.259q.58-1.479,1.157-2.96c.029-.074.046-.174.153-.16s.054.111.074.171A30.288,30.288,0,0,0,37.471,35.1c.163.364.161.374-.249.374h-.946v-.011" transform="translate(-25.148 -23.065)" fill="#df73a5"/>
        <path id="Path_716154" data-name="Path 716154" d="M184.969,117.759c0-1.148.01-2.3-.008-3.443,0-.272.074-.331.329-.32a18.994,18.994,0,0,1,1.988.068,2.111,2.111,0,0,1,1.624,1.208,5.253,5.253,0,0,1,0,4.92,2.279,2.279,0,0,1-2.206,1.337c-.48-.008-.961-.006-1.44.015-.218.009-.278-.051-.276-.271.011-1.171.005-2.342.005-3.513Z" transform="translate(-132.963 -81.947)" fill="#8fd7f8"/>
        <path id="Path_716155" data-name="Path 716155" d="M180.617,17.785a5.747,5.747,0,0,1,3.261.924,1.152,1.152,0,0,1,.563,1.4,1.111,1.111,0,0,1-1.347.7c-.386-.114-.7-.363-1.074-.508a3.833,3.833,0,0,0-4.947,2.063,3.77,3.77,0,0,0,2.326,5.1,3.511,3.511,0,0,0,2.445-.055,2.821,2.821,0,0,0,.979-.718,1.182,1.182,0,0,1,1.265-.349,1.112,1.112,0,0,1,.682,1.486,3.573,3.573,0,0,1-1.58,1.45,5.158,5.158,0,0,1-3.367.6,6.014,6.014,0,0,1-5.106-4.405,5.92,5.92,0,0,1,2.222-6.487,6.446,6.446,0,0,1,2.873-1.188,5.2,5.2,0,0,1,.806-.006" transform="translate(-125.413 -12.775)"/>
      </g>
    </g>
  </g>
</svg>
