<svg xmlns="http://www.w3.org/2000/svg" xmlns:xlink="http://www.w3.org/1999/xlink" width="116" height="116" viewBox="0 0 116 116">
  <defs>
    <clipPath id="clip-path">
      <rect id="Rectangle_378026" data-name="Rectangle 378026" width="76.82" height="85.801" fill="none"/>
    </clipPath>
  </defs>
  <g id="Group_1072931" data-name="Group 1072931" transform="translate(-741 -7952.301)">
    <circle id="Ellipse_5676" data-name="Ellipse 5676" cx="58" cy="58" r="58" transform="translate(741 7952.301)" fill="#0c5e46"/>
    <circle id="Ellipse_5693" data-name="Ellipse 5693" cx="55" cy="55" r="55" transform="translate(744 7955)" fill="#e1fbff"/>
    <g id="Group_1072834" data-name="Group 1072834" transform="translate(759 7965)">
      <g id="Group_1072833" data-name="Group 1072833" clip-path="url(#clip-path)">
        <path id="Path_716156" data-name="Path 716156" d="M11.95,68.268a1.29,1.29,0,0,1-1.326,1.256c-3.036-.02-6.072,0-9.108-.026-.652,0-.99-.51-1.251-1.035A2.843,2.843,0,0,1,0,67.145c.021-4.933.013-9.866.013-14.8,0-2.768,0-5.535,0-8.3a2.163,2.163,0,0,1,1.54-2.193c.284-.093.249-.213.189-.412a14.922,14.922,0,0,1-.569-2.861c-.064-.638-.2-1.271-.224-1.91-.038-.945-.046-1.894,0-2.838a22.174,22.174,0,0,1,.7-4.5,25.518,25.518,0,0,1,1.292-3.846,21.511,21.511,0,0,1,1.8-3.451,26.858,26.858,0,0,1,2.309-3.121c.448-.491.851-1.03,1.341-1.483a29.238,29.238,0,0,1,4.588-3.535,25.14,25.14,0,0,1,5.877-2.622,14.971,14.971,0,0,1,2.09-.513c.23-.035.548-.077.393-.5-.061-.167.071-.379.07-.586-.009-2,.026-4-.022-6-.016-.657.045-1.3.082-1.949A2,2,0,0,1,23.054.079,5.033,5.033,0,0,1,24.032,0Q38.543,0,53.053.008A3.331,3.331,0,0,1,55.147.46.931.931,0,0,1,55.388.7a.208.208,0,0,0,.227.255l0,.033.033,0c-.036.062-.042.119.027.164a1.093,1.093,0,0,1,.3.879c.079,3.771.038,7.543.03,11.315a9.807,9.807,0,0,0,.012,1.188,1.5,1.5,0,0,1-1.273,1.488c-.634-.084-1.266-.627-1.258-1.106.066-3.738.01-7.476.03-11.214,0-.2.014-.411,0-.615-.039-.6-.076-.625-.7-.626h-.153l-27.983,0c-.767,0-.767,0-.767.75q0,13.357,0,26.715c0,.538.009,1.077-.022,1.614-.019.327.059.451.413.447,1.73-.015,3.459,0,5.189-.006a3.447,3.447,0,0,1,.755.077A2.051,2.051,0,0,1,32,34.236q0,1.326,0,2.652c0,.256,0,.512,0,.769,0,.058-.024.138.059.159.045.011.122.009.143-.019.236-.315.593-.508.833-.811.683-.858,1.566-1.515,2.3-2.325.569-.628,1.258-1.158,1.816-1.8a2.614,2.614,0,0,1,2.109-.871q6.938-.012,13.876,0c.321,0,.4-.081.4-.4-.014-3.472-.01-6.944-.012-10.417a1.743,1.743,0,0,0,0-.23,1.326,1.326,0,0,1,1.225-1.59,1.359,1.359,0,0,1,1.267,1.448q.01,3.9.01,7.8c0,1.242.019,2.486-.017,3.727a2.088,2.088,0,0,1-2.1,2.118c-.78-.03-1.563,0-2.344-.012-.256-.006-.345.071-.325.325A16.511,16.511,0,0,1,51,38.324a25.189,25.189,0,0,1-.637,3.425,16.33,16.33,0,0,1-1.13,3.192c-.191.365-.207.83-.615,1.071a7.149,7.149,0,0,1-1.183,2.445c-.206.391-.521.71-.724,1.108a.438.438,0,0,0,.106.6c.7.682,1.386,1.377,2.076,2.067l4.013,4.013c.293.293.6.572.872.882a.282.282,0,0,0,.413.07,2.662,2.662,0,0,1,1.1-.27c.236-.027.492.23.752.268a2.632,2.632,0,0,1,1.408.843c.783.738,1.539,1.5,2.286,2.279.823.853,1.713,1.64,2.537,2.488,1.063,1.094,2.169,2.145,3.214,3.256.364.387.511.881.009,1.762-.964.526-1.28.431-2.085-.362-.32-.314-.64-.627-.957-.945q-1.368-1.375-2.734-2.753c-.125-.125-.226-.264-.433-.056q-2.3,2.314-4.629,4.6c-.156.154-.163.265,0,.409.132.121.248.259.375.385Q56.493,70.553,57.952,72q3.512,3.5,7.021,6.993c1.233,1.229,2.461,2.464,3.7,3.688a1.509,1.509,0,0,0,2.347.153q1.424-1.373,2.8-2.8a1.477,1.477,0,0,0-.046-2.236q-2.8-2.8-5.605-5.587c-.546-.542-.894-1.026-.411-1.883a.3.3,0,0,0,.011-.113c.148-.092.295-.185.445-.274a1.2,1.2,0,0,1,1.337.171c1.889,1.8,3.713,3.657,5.57,5.486A5.2,5.2,0,0,1,76.8,78.635a3.9,3.9,0,0,1-.334,1.8,4.08,4.08,0,0,1-1,1.445,37.158,37.158,0,0,1-3.054,2.971,3.768,3.768,0,0,1-4.573.331A6.6,6.6,0,0,1,66.7,84.24Q63.883,81.4,61.05,78.582q-5.085-5.073-10.173-10.143c-.686-.684-1.36-1.382-2.058-2.055a2.523,2.523,0,0,1-.865-2.546c.265-.89-.177-1.3-.7-1.76-.712-.624-1.343-1.328-2.021-1.986-1.422-1.382-2.811-2.8-4.208-4.207a.407.407,0,0,0-.637-.06,16.853,16.853,0,0,1-2.168,1.324,28.1,28.1,0,0,1-2.536,1.269c-.248.091-.538.064-.74.191a5.743,5.743,0,0,1-.815.377,16.864,16.864,0,0,1-2.744.753C30.7,59.908,30,60,29.3,60.131a10.109,10.109,0,0,1-1.321.107c-.609.031-1.217.023-1.826.04-.7.019-1.409.012-2.114,0a7.389,7.389,0,0,1-.83-.077c-.278-.036-.367.05-.365.35.014,2.332.022,4.664,0,7a1.792,1.792,0,0,1-1.163,1.887,6.031,6.031,0,0,1-1.243.1H20.42l-1.06.009h-.019c-.88-.009-1.761-.034-2.641-.023-.934.011-1.237-.545-1.4-1.232a1.371,1.371,0,0,1,1.413-1.235c1.05-.013,2.1,0,3.152,0,.515,0,.515,0,.515-.512q0-7,0-13.993,0-1.883,0-3.767a.8.8,0,0,0-.226-.623q-1.78-1.751-3.539-3.524a.87.87,0,0,0-.677-.273c-2.588.009-5.177,0-7.765,0-1.755,0-3.511.012-5.266,0-.29,0-.389.081-.353.365a7.6,7.6,0,0,1,.077.944q.005,10.495-.008,20.989c0,.334.1.389.408.392,2.558.025,5.117-.084,7.674.067a1.142,1.142,0,0,1,1.248,1.147m4.4-26.458h0a2.186,2.186,0,0,1,1.672.749c.264.291.552.565.832.844,1.065,1.062,2.146,2.108,3.21,3.17a1.9,1.9,0,0,1,.7,1.1c.038.339.072.681.076,1.022.011,1.025.006,2.05.006,3.075,0,.168-.028.338.22.367.587.069,1.172.2,1.759.216a21.777,21.777,0,0,0,3.545-.118,18.168,18.168,0,0,0,3.966-1.006,16.943,16.943,0,0,0,4.128-2.283A17.265,17.265,0,0,0,40.4,44.777a16.527,16.527,0,0,0,1.512-2.772,12.191,12.191,0,0,0,.754-2.245,10.549,10.549,0,0,0,.429-2.393c-.014-.84.212-1.682.184-2.537-.009-.284-.081-.4-.394-.391-1.037.021-2.076.029-3.113,0a1.353,1.353,0,0,0-1.125.425c-.224.237-.46.466-.691.7q-2.228,2.244-4.468,4.475a2.289,2.289,0,0,1-2.85.72,2.112,2.112,0,0,1-1.1-1.64c0-1.448-.009-2.9.006-4.343,0-.275-.074-.333-.338-.331-1.973.012-3.946.007-5.919.006a2.091,2.091,0,0,1-1.9-1.892c0-1.37.012-2.74.012-4.11,0-3.075-.009-6.15,0-9.225,0-.3-.05-.411-.383-.306a16.531,16.531,0,0,0-3.7,1.639,16.937,16.937,0,0,0-3.991,3.258,17.447,17.447,0,0,0-2.915,4.484,16.069,16.069,0,0,0-1.238,3.989,8.351,8.351,0,0,0-.22,1.34,22.479,22.479,0,0,0,.21,4.6,18.36,18.36,0,0,0,.988,3.375.314.314,0,0,0,.364.231q2.921-.012,5.842-.015m9.514,16.006a21.491,21.491,0,0,0,3.789-.295,21.965,21.965,0,0,0,4.42-1.129A21.742,21.742,0,0,0,40.2,52.941,23.383,23.383,0,0,0,45.079,47.6,22.425,22.425,0,0,0,47.2,43.512a18.564,18.564,0,0,0,1.01-3.4,10.45,10.45,0,0,0,.395-3.136.435.435,0,0,1,.013-.113,14.967,14.967,0,0,0,.082-2.142c0-.18-.065-.281-.272-.279-.807.008-1.615.006-2.422,0-.18,0-.256.071-.25.25.019.689-.038,1.376-.057,2.062a16.624,16.624,0,0,1-.863,4.483,18.416,18.416,0,0,1-2.074,4.418,20.125,20.125,0,0,1-5.629,5.825,19.654,19.654,0,0,1-3.448,1.874,24.033,24.033,0,0,1-4.532,1.321c-.493.1-.99.01-1.48.11a9.067,9.067,0,0,1-2.483.082c-.709-.052-1.414-.139-2.126-.126-.122,0-.226,0-.224.177.011.807.013,1.614.018,2.421,0,.2.093.32.3.323a24.624,24.624,0,0,0,2.708.15M5.933,41.825c.4,0,.794,0,1.191,0,.245,0,.369-.041.3-.347A21.738,21.738,0,0,1,6.678,38.5a18.806,18.806,0,0,1-.281-2.3c.028-.867-.014-1.733.051-2.6a15.782,15.782,0,0,0,.235-1.6,10.846,10.846,0,0,1,.463-2.131,8.878,8.878,0,0,1,.8-2.22,24.266,24.266,0,0,1,1.512-2.807,19.56,19.56,0,0,1,5.795-5.9,17.675,17.675,0,0,1,5.8-2.61c.285-.066.347-.189.346-.437,0-.794-.01-1.589.006-2.383.005-.257-.1-.327-.317-.269a26.393,26.393,0,0,0-3.369,1.05,24.5,24.5,0,0,0-3.457,1.736,22.722,22.722,0,0,0-6.321,5.747,23.392,23.392,0,0,0-3,5.376,18.093,18.093,0,0,0-.8,2.568A15.081,15.081,0,0,0,3.632,32.4c-.028.508-.229,1-.225,1.5a24.207,24.207,0,0,0,.185,4.041c.2,1.138.391,2.275.645,3.4.081.357.238.524.62.493.357-.028.717-.006,1.075-.006M51.98,58.862c-.063-.075-.145-.188-.241-.285q-3.239-3.248-6.478-6.5c-.224-.226-.371-.175-.566.016a23.631,23.631,0,0,1-1.821,1.8c-.181.142-.09.258.031.376.437.428.876.855,1.309,1.288q2.644,2.638,5.279,5.285c.243.245.376.222.61-.012a16.545,16.545,0,0,1,1.762-1.744.2.2,0,0,0,.114-.224m-1.53,5.392c-.041.263.13.416.282.568.594.6,1.2,1.18,1.79,1.784.187.192.288.109.432-.035q2.282-2.281,4.575-4.551c.186-.184.169-.291,0-.458-.545-.532-1.076-1.078-1.618-1.613a2.043,2.043,0,0,0-.61-.457.355.355,0,0,0-.452.1q-2.068,2.06-4.154,4.1a.643.643,0,0,0-.242.565" transform="translate(0 0)"/>
        <path id="Path_716157" data-name="Path 716157" d="M108.529,24.9a1.326,1.326,0,0,0-1.225,1.59,1.693,1.693,0,0,1,0,.23c0,3.472,0,6.945.012,10.417,0,.319-.078.4-.4.4q-6.938-.017-13.876,0a2.613,2.613,0,0,0-2.109.871c-.559.642-1.247,1.172-1.817,1.8-.735.81-1.618,1.467-2.3,2.325-.24.3-.6.5-.833.811-.021.028-.1.03-.143.019-.083-.021-.058-.1-.059-.159,0-.256,0-.512,0-.769q0-1.326,0-2.652A2.051,2.051,0,0,0,84.037,37.6a3.447,3.447,0,0,0-.755-.077c-1.73,0-3.46-.009-5.189.006-.354,0-.432-.12-.413-.447.031-.536.022-1.076.022-1.614q0-13.357,0-26.715c0-.75,0-.75.767-.75l27.983,0h.154c.624,0,.66.03.7.626.013.2,0,.41,0,.615-.02,3.738.036,7.476-.03,11.214-.009.48.624,1.022,1.258,1.106q0,1.668,0,3.337M96.161,26.035c0-1.652.005-3.3,0-4.956a1.789,1.789,0,0,0-.544-1.413,1.937,1.937,0,0,0-1.368-.431c-1.954.012-3.908-.078-5.861.063a1.147,1.147,0,0,0-1.155,1.12c-.031.764.468,1.214,1.289,1.327.345.047.342.177.342.423,0,3.01-.012,6.019.008,9.028,0,.414-.179.485-.509.491a1.191,1.191,0,0,0-1.112,1.291,1.351,1.351,0,0,0,1.188,1.158c2.483.009,4.967,0,7.45,0a4.7,4.7,0,0,0,.8-.032,1.237,1.237,0,0,0,1.083-1.234,1.214,1.214,0,0,0-.933-1.181c-.233-.055-.526-.035-.683-.173-.177-.156.016-.442.013-.676-.017-1.6-.009-3.2-.009-4.8M92.517,10.843c-.576,0-1.155.034-1.728-.007a1.79,1.79,0,0,0-1.936,1.954c.02,1.139,0,2.28.006,3.419a1.771,1.771,0,0,0,1.827,1.876c1.242-.017,2.484.005,3.727-.007a1.682,1.682,0,0,0,1.748-1.77q.009-1.883,0-3.765a1.638,1.638,0,0,0-1.681-1.7c-.653-.008-1.306,0-1.959,0" transform="translate(-53.784 -5.541)" fill="#2dd1e2"/>
        <path id="Path_716158" data-name="Path 716158" d="M17.677,168.122a1.142,1.142,0,0,0-1.249-1.148c-2.557-.15-5.116-.042-7.673-.066-.31,0-.408-.058-.408-.392q.018-10.495.008-20.989a7.6,7.6,0,0,0-.077-.944c-.036-.285.063-.367.353-.365,1.755.01,3.511,0,5.266,0,2.588,0,5.176.007,7.765,0a.87.87,0,0,1,.677.273q1.76,1.771,3.539,3.524a.8.8,0,0,1,.226.624q0,1.883,0,3.767,0,7,0,13.993c0,.516,0,.514-.515.512-1.051,0-2.1-.012-3.152,0a1.371,1.371,0,0,0-1.413,1.235l-3.353-.02m-.581-5.678v0c1.358,0,2.716.009,4.074,0A1.262,1.262,0,0,0,22.5,161.37a1.219,1.219,0,0,0-1.33-1.4c-2.639-.011-5.277-.005-7.916,0a2.127,2.127,0,0,0-.307.02c-.556.081-1.163.65-1.12,1.116a1.314,1.314,0,0,0,1.312,1.336c1.319.017,2.639,0,3.958,0m.112-5.691c1.395,0,2.79,0,4.186,0a.989.989,0,0,0,.847-.423A1.194,1.194,0,0,0,22.371,155a1.322,1.322,0,0,0-1.259-.7c-2.624-.006-5.248,0-7.872-.006a1.379,1.379,0,0,0-.751.223,1.324,1.324,0,0,0-.593,1.269,1.246,1.246,0,0,0,1.241.972h4.07m-1.8-8.091v.012c-.806,0-1.612.006-2.419,0a1.288,1.288,0,0,0-1.1,1.372,1.486,1.486,0,0,0,1.426,1.173c1.331,0,2.662,0,3.993,0a2.6,2.6,0,0,0,.671-.075,1.329,1.329,0,0,0,.988-1.471,1.245,1.245,0,0,0-1.253-1.008c-.768-.009-1.536,0-2.3,0" transform="translate(-5.727 -99.854)" fill="#fee175"/>
        <path id="Path_716159" data-name="Path 716159" d="M190.541,213.377a.3.3,0,0,1-.011.113c-.483.858-.135,1.342.411,1.883q2.808,2.788,5.605,5.587a1.476,1.476,0,0,1,.046,2.235q-1.368,1.428-2.8,2.8a1.509,1.509,0,0,1-2.347-.153c-1.238-1.225-2.465-2.459-3.7-3.688q-3.509-3.5-7.021-6.993-1.456-1.449-2.917-2.893c-.127-.126-.243-.264-.375-.385-.158-.145-.151-.255,0-.41q2.323-2.294,4.629-4.6c.208-.209.309-.07.434.055q1.369,1.375,2.734,2.753c.316.317.637.63.956.945.806.793,1.121.888,2.085.361.448.426.906.842,1.343,1.28a3.515,3.515,0,0,1,.918,1.114" transform="translate(-122.779 -143.162)" fill="#2dd1e2"/>
        <path id="Path_716160" data-name="Path 716160" d="M199.762,55.594q-3.325,0-6.65,0a1.815,1.815,0,0,1-1.77-1.789,9.116,9.116,0,0,0-.058-1.714,3.881,3.881,0,0,1,.052-.671c0-4.83.018-9.66,0-14.49a1.856,1.856,0,0,1,1.943-1.946c1.947.02,3.895.005,5.842.005,1.384,0,2.767.011,4.151,0a2.028,2.028,0,0,1,1.62.667c.6.657,1.261,1.26,1.863,1.921.3.333.659.629.985.947a2.229,2.229,0,0,1,.667,1.637q.022,6.649,0,13.3a1.887,1.887,0,0,1-1.153,1.984,2.328,2.328,0,0,1-.841.157h-6.649m6.193-8.925c0-2.023-.005-4.047.006-6.07a.783.783,0,0,0-.238-.6c-.749-.749-1.485-1.509-2.241-2.252a.956.956,0,0,0-.762-.3q-4.034.012-8.067.01c-.786,0-.789-.009-.8.778-.038,4.851.055,9.7-.057,14.555-.007.307.1.349.367.348q5.725-.011,11.449,0c.3,0,.346-.094.345-.364-.011-2.036-.006-4.072-.006-6.109" transform="translate(-132.438 -24.222)"/>
        <path id="Path_716161" data-name="Path 716161" d="M175.929,127.517c0-2.043.01-3.965-.006-5.886a1.774,1.774,0,0,1,1.425-1.543c.744-.042,1.485-.029,2.227-.031,3.036-.009,6.073.009,9.109-.015a1.966,1.966,0,0,1,2.058,1.167,2.133,2.133,0,0,1,.1.806c.012,1.4.013,2.793.014,4.189,0,2.178,0,4.356.006,6.534a2.183,2.183,0,0,1-.648,1.722,2.242,2.242,0,0,1-1.668.448c-2.767.023-5.535.017-8.3.014-.961,0-1.921.033-2.881-.055a1.88,1.88,0,0,1-1.482-1.6c.1-1.956,0-3.912.046-5.747m7.412-4.954v0H179c-.548,0-.552,0-.552.537q0,4.478,0,8.955c0,.208-.005.349.3.348q4.592-.023,9.184-.011c.305,0,.4-.111.388-.409-.021-.627-.011-1.255-.011-1.883q0-3.556,0-7.11c0-.274-.015-.445-.387-.439-1.524.025-3.049.01-4.573.01" transform="translate(-121.781 -83.116)"/>
        <path id="Path_716162" data-name="Path 716162" d="M88,212.533c0-1.152.018-2.3-.01-3.457a2.408,2.408,0,0,1,.138-1.07,1.821,1.821,0,0,1,.714-.734,2.476,2.476,0,0,1,1.173-.313c2.381,0,4.763-.022,7.144.008a1.851,1.851,0,0,1,1.965,1.936c0,2.432,0,4.865.007,7.3a1.816,1.816,0,0,1-1.823,1.82q-3.86.037-7.72,0a1.987,1.987,0,0,1-1.6-1.874c.024-1.2.01-2.406.01-3.609m8.6-.047c0-.909-.011-1.819.007-2.727.006-.277-.081-.336-.344-.334-1.742.014-3.483.021-5.225,0-.372,0-.433.12-.43.462.014,1.754.015,3.509-.018,5.262-.006.347.1.4.391.4,1.767-.005,3.534-.007,5.3.009.289,0,.326-.1.323-.351-.014-.909-.006-1.818-.005-2.727" transform="translate(-60.921 -143.293)"/>
        <path id="Path_716163" data-name="Path 716163" d="M18.544,9c1.037,0,2.075-.006,3.112,0A1.889,1.889,0,0,1,23.6,10.893c.13,1.531.06,3.068.064,4.6a9.475,9.475,0,0,1-.136,1.776,1.808,1.808,0,0,1-1.848,1.548c-2.061.049-4.123.03-6.185.013a1.923,1.923,0,0,1-1.727-1.786c-.008-1.9,0-3.791-.015-5.686A3.031,3.031,0,0,1,13.9,10.1,1.771,1.771,0,0,1,15.432,9c1.038,0,2.075,0,3.112,0m.1,2.537v0c-.679,0-1.358.012-2.036-.006-.249-.007-.328.054-.326.312q.015,2.074-.006,4.149c0,.3.095.388.377.351a4.165,4.165,0,0,1,.537-.01,28.7,28.7,0,0,1,3.56.045c.252.031.337-.1.336-.339-.007-1.408-.011-2.817,0-4.226,0-.225-.076-.284-.287-.281-.717.01-1.434,0-2.151,0" transform="translate(-9.519 -6.229)"/>
        <path id="Path_716164" data-name="Path 716164" d="M180.289,2.516a.208.208,0,0,1-.227-.255c.165.006.209.119.227.255" transform="translate(-124.674 -1.566)" fill="#d7ebfe"/>
        <path id="Path_716165" data-name="Path 716165" d="M180.894,3.379c-.069-.045-.063-.1-.028-.164.083.042.131.09.028.164" transform="translate(-125.214 -2.226)" fill="#d7ebfe"/>
        <path id="Path_716166" data-name="Path 716166" d="M62.835,226.084h.019c.028.03.024.076-.01.076s-.037-.046-.009-.076" transform="translate(-43.494 -156.541)" fill="#fee175"/>
        <path id="Path_716167" data-name="Path 716167" d="M66.348,226.054h.014c0,.022,0,.044.005.066-.061-.006-.027-.04-.019-.066" transform="translate(-45.928 -156.52)" fill="#fee175"/>
        <path id="Path_716168" data-name="Path 716168" d="M36.459,84.3q-2.921.007-5.842.016a.314.314,0,0,1-.364-.231,18.363,18.363,0,0,1-.988-3.376,22.478,22.478,0,0,1-.21-4.6,8.351,8.351,0,0,1,.22-1.34,16.069,16.069,0,0,1,1.238-3.989A17.445,17.445,0,0,1,33.429,66.3a16.931,16.931,0,0,1,3.991-3.258,16.545,16.545,0,0,1,3.7-1.639c.333-.1.383.006.383.306,0,3.075,0,6.15,0,9.225,0,1.37-.01,2.74-.012,4.11a2.091,2.091,0,0,0,1.9,1.892c1.973,0,3.946.006,5.919-.006.264,0,.341.056.338.331-.015,1.448-.008,2.9-.006,4.343a2.112,2.112,0,0,0,1.1,1.64,2.289,2.289,0,0,0,2.85-.72q2.241-2.23,4.468-4.475c.231-.233.467-.462.691-.7a1.353,1.353,0,0,1,1.125-.425c1.037.031,2.075.023,3.113,0,.313-.006.385.107.394.391.028.855-.2,1.7-.184,2.537a10.547,10.547,0,0,1-.429,2.393,12.191,12.191,0,0,1-.754,2.245,16.529,16.529,0,0,1-1.512,2.772,17.27,17.27,0,0,1-3.939,4.167,16.944,16.944,0,0,1-4.128,2.283,18.185,18.185,0,0,1-3.966,1.006,21.812,21.812,0,0,1-3.545.118c-.587-.011-1.172-.147-1.759-.216-.248-.029-.22-.2-.22-.367,0-1.025,0-2.05-.006-3.075a10.244,10.244,0,0,0-.076-1.022,1.9,1.9,0,0,0-.7-1.1c-1.064-1.063-2.145-2.109-3.21-3.171-.28-.279-.568-.553-.832-.844a2.187,2.187,0,0,0-1.671-.749" transform="translate(-20.108 -42.489)" fill="#d7ebfe"/>
        <path id="Path_716169" data-name="Path 716169" d="M77.286,135.351a24.614,24.614,0,0,1-2.708-.15c-.2,0-.295-.127-.3-.323-.006-.807-.007-1.614-.018-2.421,0-.177.1-.174.224-.177.712-.013,1.417.074,2.126.126a9.068,9.068,0,0,0,2.483-.083c.49-.1.986-.006,1.48-.11a24.056,24.056,0,0,0,4.532-1.321,19.638,19.638,0,0,0,3.448-1.874,20.121,20.121,0,0,0,5.629-5.825,18.389,18.389,0,0,0,2.074-4.418,16.621,16.621,0,0,0,.863-4.482c.019-.687.076-1.373.057-2.062,0-.179.07-.251.251-.25.807,0,1.614.006,2.422,0,.207,0,.274.1.272.279a14.964,14.964,0,0,1-.082,2.142.452.452,0,0,0-.013.114,10.437,10.437,0,0,1-.395,3.136,18.566,18.566,0,0,1-1.01,3.4,22.411,22.411,0,0,1-2.124,4.091,23.377,23.377,0,0,1-4.878,5.338,21.737,21.737,0,0,1-6.127,3.452,21.963,21.963,0,0,1-4.419,1.129,21.5,21.5,0,0,1-3.79.295" transform="translate(-51.42 -77.534)" fill="#00f1a5"/>
        <path id="Path_716170" data-name="Path 716170" d="M13.6,71.578c-.359,0-.719-.022-1.075.006-.382.03-.54-.137-.62-.493-.254-1.128-.448-2.265-.645-3.4a24.174,24.174,0,0,1-.185-4.041c0-.5.2-.989.226-1.5a15.086,15.086,0,0,1,.505-2.681,18.105,18.105,0,0,1,.8-2.568,23.38,23.38,0,0,1,3-5.376,22.712,22.712,0,0,1,6.321-5.747,24.488,24.488,0,0,1,3.457-1.736,26.393,26.393,0,0,1,3.369-1.05c.22-.058.322.012.317.269-.016.794-.01,1.588-.006,2.383,0,.248-.06.371-.346.437a17.682,17.682,0,0,0-5.8,2.61,19.56,19.56,0,0,0-5.795,5.9A24.266,24.266,0,0,0,15.609,57.4a8.882,8.882,0,0,0-.8,2.22,10.869,10.869,0,0,0-.464,2.131,15.78,15.78,0,0,1-.235,1.6c-.066.869-.023,1.735-.051,2.6a18.806,18.806,0,0,0,.281,2.3,21.694,21.694,0,0,0,.743,2.983c.072.306-.052.35-.3.347-.4,0-.794,0-1.191,0" transform="translate(-7.665 -29.754)" fill="#00f1a5"/>
        <path id="Path_716171" data-name="Path 716171" d="M148.261,175.758a.2.2,0,0,1-.114.224,16.575,16.575,0,0,0-1.762,1.744c-.233.234-.367.258-.61.012q-2.628-2.654-5.279-5.285c-.433-.432-.872-.859-1.309-1.288-.121-.118-.212-.234-.031-.376a23.636,23.636,0,0,0,1.821-1.8c.2-.19.342-.242.566-.016q3.231,3.257,6.478,6.5c.1.1.178.209.241.285" transform="translate(-96.28 -116.895)" fill="#2dd1e2"/>
        <path id="Path_716172" data-name="Path 716172" d="M164,198.073a.643.643,0,0,1,.242-.565q2.081-2.046,4.154-4.1a.355.355,0,0,1,.452-.1,2.043,2.043,0,0,1,.61.457c.542.535,1.074,1.081,1.618,1.613.171.167.187.274,0,.458q-2.3,2.265-4.575,4.551c-.144.144-.245.227-.432.035-.587-.6-1.2-1.187-1.79-1.784-.151-.152-.322-.3-.282-.568" transform="translate(-113.55 -133.819)" fill="#d7ebfe"/>
        <path id="Path_716173" data-name="Path 716173" d="M117.66,51.279c0,1.6-.008,3.2.009,4.8,0,.234-.19.52-.013.676.157.138.451.119.683.173a1.214,1.214,0,0,1,.933,1.181,1.238,1.238,0,0,1-1.083,1.234,4.694,4.694,0,0,1-.8.031c-2.483,0-4.967.012-7.45,0a1.35,1.35,0,0,1-1.188-1.158,1.19,1.19,0,0,1,1.112-1.29c.33-.006.512-.078.509-.491-.019-3.009-.011-6.018-.008-9.028,0-.246,0-.377-.342-.424-.821-.112-1.32-.562-1.289-1.326a1.147,1.147,0,0,1,1.155-1.12c1.954-.141,3.908-.051,5.861-.063a1.935,1.935,0,0,1,1.368.431,1.79,1.79,0,0,1,.544,1.413c.009,1.652,0,3.3,0,4.956m-4.831.655h-.01q0,1.172,0,2.344c0,.782,0,1.563.006,2.344,0,.107-.053.243.17.237.5-.015,1,.019,1.5.011.651-.01.65-.019.649-.7,0-2.946-.01-5.892,0-8.838,0-.281-.061-.379-.36-.361-.536.031-1.076.03-1.613.012-.266-.009-.346.058-.343.336.015,1.537.007,3.074.007,4.611" transform="translate(-75.282 -30.785)"/>
        <path id="Path_716174" data-name="Path 716174" d="M117.673,17.208c.653,0,1.306-.007,1.959,0a1.638,1.638,0,0,1,1.682,1.7q.011,1.883,0,3.765a1.682,1.682,0,0,1-1.748,1.771c-1.242.012-2.484-.01-3.727.007a1.771,1.771,0,0,1-1.827-1.875c-.007-1.14.014-2.28-.006-3.42a1.79,1.79,0,0,1,1.936-1.954c.573.042,1.152.007,1.728.008m-1.127,2.539c-.059-.006-.067.027-.056.074q0,.934-.01,1.869c0,.1-.024.211.113.248l-.011.013.013-.009,2.137-.014,0,0a15.324,15.324,0,0,0,.04-2.126c0-.036-.066-.072-.1-.109v0l-2.128.054" transform="translate(-78.94 -11.905)"/>
        <path id="Path_716175" data-name="Path 716175" d="M25.093,197.9c-1.319,0-2.639.013-3.958,0a1.313,1.313,0,0,1-1.312-1.336c-.044-.466.564-1.035,1.12-1.116a2.175,2.175,0,0,1,.307-.02c2.639,0,5.277-.007,7.916,0a1.219,1.219,0,0,1,1.331,1.4,1.263,1.263,0,0,1-1.33,1.073c-1.358.013-2.716,0-4.074,0v0" transform="translate(-13.724 -135.312)"/>
        <path id="Path_716176" data-name="Path 716176" d="M25.314,179.432h-4.07A1.247,1.247,0,0,1,20,178.461a1.324,1.324,0,0,1,.593-1.27,1.38,1.38,0,0,1,.751-.223c2.624.005,5.248,0,7.872.006a1.322,1.322,0,0,1,1.258.7,1.194,1.194,0,0,1-.13,1.335.99.99,0,0,1-.848.423c-1.395-.009-2.79,0-4.186,0" transform="translate(-13.834 -122.533)"/>
        <path id="Path_716177" data-name="Path 716177" d="M23.534,158.669c.768,0,1.536-.006,2.3,0a1.245,1.245,0,0,1,1.253,1.008,1.329,1.329,0,0,1-.988,1.471,2.6,2.6,0,0,1-.671.075c-1.331,0-2.662,0-3.993,0a1.486,1.486,0,0,1-1.426-1.173,1.288,1.288,0,0,1,1.1-1.372c.806.007,1.612,0,2.419,0v-.012" transform="translate(-13.85 -109.861)"/>
        <path id="Path_716178" data-name="Path 716178" d="M211.643,52.217c0,2.036-.005,4.072.006,6.108,0,.27-.041.365-.345.364q-5.724-.019-11.449,0c-.268,0-.374-.041-.367-.348.111-4.851.019-9.7.057-14.555.006-.786.01-.778.8-.778q4.034,0,8.067-.01a.954.954,0,0,1,.762.3c.755.742,1.492,1.5,2.241,2.252a.783.783,0,0,1,.238.6c-.011,2.023-.006,4.047-.006,6.07M205.5,56.141v-.006c.858,0,1.716,0,2.574,0a3.194,3.194,0,0,0,.686-.066,1.186,1.186,0,0,0,.718-1.827,1.574,1.574,0,0,0-1.437-.61c-1.678-.009-3.355-.008-5.033,0a3.47,3.47,0,0,0-.533.055,1.215,1.215,0,0,0-1.048,1.425,1.275,1.275,0,0,0,1.307,1.04c.922-.007,1.844,0,2.766,0m-.054-4.074h0c.972,0,1.944,0,2.916,0a1.385,1.385,0,0,0,1.359-1.135,1.332,1.332,0,0,0-1.023-1.288,3.957,3.957,0,0,0-.9-.1c-1.637-.012-3.274-.01-4.911-.016a1.659,1.659,0,0,0-.925.3,1.257,1.257,0,0,0-.536,1.329,1.325,1.325,0,0,0,1.184.909c.946.009,1.893,0,2.839,0M204.158,48v0c.589,0,1.179.012,1.767,0a1.215,1.215,0,0,0,1.186-1.577,1.605,1.605,0,0,0-1.464-.957c-.884-.005-1.768.016-2.651-.01a1.673,1.673,0,0,0-1.118.4,1.24,1.24,0,0,0-.448,1.262,1.324,1.324,0,0,0,1.153.9c.522-.042,1.05-.009,1.575-.009" transform="translate(-138.126 -29.77)" fill="#d7ebfe"/>
        <path id="Path_716179" data-name="Path 716179" d="M189.105,128.218c1.524,0,3.049.014,4.573-.01.372-.006.388.165.387.439q-.007,3.555,0,7.11c0,.628-.01,1.256.011,1.883.01.3-.082.41-.388.409q-4.592-.007-9.184.011c-.3,0-.3-.14-.3-.348q0-4.478,0-8.955c0-.536,0-.537.551-.537h4.344Z" transform="translate(-127.544 -88.771)" fill="#00f1a5"/>
        <path id="Path_716180" data-name="Path 716180" d="M102.455,218.054c0,.909-.008,1.819.006,2.727,0,.249-.034.354-.323.351-1.767-.016-3.534-.014-5.3-.009-.293,0-.4-.057-.391-.4.034-1.754.033-3.508.018-5.262,0-.342.058-.465.43-.462,1.742.018,3.483.011,5.225,0,.263,0,.349.058.344.334-.018.909-.007,1.818-.007,2.727" transform="translate(-66.779 -148.861)" fill="#fee175"/>
        <path id="Path_716181" data-name="Path 716181" d="M24.329,17.243c.717,0,1.434.006,2.151,0,.212,0,.289.056.287.281-.008,1.408,0,2.817,0,4.226,0,.242-.084.371-.336.339a28.7,28.7,0,0,0-3.56-.045,4.166,4.166,0,0,0-.537.01c-.282.037-.38-.056-.377-.351q.024-2.074.006-4.149c0-.258.077-.319.326-.312.678.018,1.357.006,2.036.006Z" transform="translate(-15.206 -11.936)" fill="#fee175"/>
        <path id="Path_716182" data-name="Path 716182" d="M122.037,57.586c0-1.537.008-3.074-.007-4.611,0-.277.078-.345.343-.336.537.018,1.077.019,1.613-.012.3-.018.361.08.36.361-.007,2.946,0,5.892,0,8.838,0,.677,0,.686-.649.7-.5.008-1-.026-1.5-.011-.223.006-.169-.13-.17-.237-.005-.781-.005-1.563-.006-2.344s0-1.563,0-2.344Z" transform="translate(-84.491 -36.438)" fill="#f7f6f7"/>
        <path id="Path_716183" data-name="Path 716183" d="M124.293,27.553l-2.137.013v0c-.137-.037-.114-.148-.113-.248q0-.934.01-1.869l.056-.074,2.128-.054v0c.035.036.1.073.1.109a15.42,15.42,0,0,1-.04,2.126l0,0" transform="translate(-84.501 -17.53)" fill="#f7f6f7"/>
        <path id="Path_716184" data-name="Path 716184" d="M122.389,32.616v0l-.013.009Z" transform="translate(-84.734 -22.583)" fill="#2dd1e2"/>
        <path id="Path_716185" data-name="Path 716185" d="M122.123,25.492l-.056.074c-.01-.047,0-.08.056-.074" transform="translate(-84.517 -17.65)" fill="#d7ebfe"/>
        <path id="Path_716186" data-name="Path 716186" d="M129.178,25.321v0" transform="translate(-89.443 -17.53)" fill="#2dd1e2"/>
        <path id="Path_716187" data-name="Path 716187" d="M129.365,32.585l0,0,0,0" transform="translate(-89.572 -22.562)" fill="#2dd1e2"/>
        <path id="Path_716188" data-name="Path 716188" d="M209.807,80.061c-.922,0-1.844-.005-2.766,0a1.274,1.274,0,0,1-1.307-1.039,1.215,1.215,0,0,1,1.048-1.425,3.461,3.461,0,0,1,.533-.055c1.678,0,3.355,0,5.033,0a1.574,1.574,0,0,1,1.437.611,1.186,1.186,0,0,1-.718,1.827,3.213,3.213,0,0,1-.686.066c-.858.007-1.716,0-2.574,0Z" transform="translate(-142.434 -53.69)"/>
        <path id="Path_716189" data-name="Path 716189" d="M209.724,66.778c-.946,0-1.893.006-2.839,0a1.324,1.324,0,0,1-1.184-.909,1.257,1.257,0,0,1,.536-1.329,1.66,1.66,0,0,1,.925-.3c1.637.006,3.274,0,4.911.016a3.941,3.941,0,0,1,.9.1A1.332,1.332,0,0,1,214,65.643a1.386,1.386,0,0,1-1.359,1.136c-.972,0-1.944,0-2.916,0Z" transform="translate(-142.404 -44.48)"/>
        <path id="Path_716190" data-name="Path 716190" d="M208.429,53.517c-.525,0-1.053-.033-1.575.009a1.324,1.324,0,0,1-1.153-.9,1.24,1.24,0,0,1,.448-1.262,1.673,1.673,0,0,1,1.118-.4c.883.026,1.767,0,2.651.01a1.605,1.605,0,0,1,1.464.957,1.215,1.215,0,0,1-1.185,1.577c-.589.015-1.178,0-1.767,0v0" transform="translate(-142.398 -35.289)"/>
      </g>
    </g>
  </g>
</svg>
