<svg xmlns="http://www.w3.org/2000/svg" xmlns:xlink="http://www.w3.org/1999/xlink" width="70" height="70" viewBox="0 0 70 70">
  <defs>
    <clipPath id="clip-path">
      <rect id="Rectangle_378028" data-name="Rectangle 378028" width="50.769" height="32.144" fill="#f6f6f6"/>
    </clipPath>
  </defs>
  <g id="Group_1071456" data-name="Group 1071456" transform="translate(-269 -958)">
    <path id="Path_609168" data-name="Path 609168" d="M35,0A35,35,0,1,1,0,35,35,35,0,0,1,35,0Z" transform="translate(269 958)" fill="#03386e"/>
    <g id="Group_1072839" data-name="Group 1072839" transform="translate(279.33 977.161)">
      <g id="Group_1072838" data-name="Group 1072838" clip-path="url(#clip-path)">
        <path id="Path_716197" data-name="Path 716197" d="M25.493,0Q35.633,0,45.774,0C49,0,50.757,1.755,50.758,4.955c0,8.118-.008,16.235.011,24.353a2.546,2.546,0,0,1-1.179,2.538,2.253,2.253,0,0,1-2.749-.419c-2.65-2.365-5.71-2.883-9.213-2.821-10.835.19-21.676.009-32.514.106A4.79,4.79,0,0,1,0,23.61C.125,17.368.037,11.122.04,4.878.042,1.815,1.83.007,4.881,0Q15.187-.007,25.493,0M48.552,29.9V28.708q0-11.849,0-23.7c0-2.013-.78-2.788-2.81-2.789q-20.342,0-40.684,0c-2.034,0-2.809.77-2.81,2.783q0,9.259,0,18.518c0,2.247.7,2.934,2.976,2.934,12.275,0,24.55-.014,36.825.033a5.288,5.288,0,0,1,2.428.749c1.336.75,2.577,1.669,4.077,2.662" transform="translate(0 0)" fill="#f6f6f6"/>
        <path id="Path_716198" data-name="Path 716198" d="M74.185,35.744c-2.055,0-4.109-.01-6.164.005-.769.006-1.457-.141-1.491-1.146-.036-1.08.669-1.28,1.49-1.279,4.109.006,22.4.006,26.506,0,.82,0,1.526.2,1.491,1.278-.033,1.007-.721,1.153-1.49,1.148-2.055-.015-18.288-.005-20.342-.005" transform="translate(-51.866 -25.98)" fill="#f6f6f6"/>
        <path id="Path_716199" data-name="Path 716199" d="M74.192,63.024c-2.091,0-4.183-.008-6.274,0-.8,0-1.412-.26-1.39-1.255.021-.931.633-1.166,1.373-1.166,4.183,0,22.542,0,26.725,0,.795,0,1.419.269,1.39,1.267-.026.923-.623,1.159-1.374,1.154-2.091-.012-18.359,0-20.451,0" transform="translate(-51.866 -47.249)" fill="#f6f6f6"/>
        <path id="Path_716200" data-name="Path 716200" d="M74.182,90.288c-2.055,0-4.109-.01-6.164.005-.771.006-1.456-.147-1.485-1.152-.032-1.082.676-1.275,1.5-1.273,4.109.006,22.4.006,26.5,0,.822,0,1.524.2,1.485,1.284-.036,1.007-.728,1.148-1.495,1.142-2.055-.015-18.286-.005-20.341-.005" transform="translate(-51.868 -68.502)" fill="#f6f6f6"/>
        <path id="Path_716201" data-name="Path 716201" d="M35.612,29.069v2.284h-4.6v-4.6h3.015c.015.024.039.043.04.064.06.848.164.753-.7.758-.425,0-.849.008-1.274,0-.224-.006-.311.075-.309.3q.014,1.18,0,2.361c0,.232.094.307.313.3q1.2-.009,2.4,0c.221,0,.32-.076.308-.307-.013-.274.017-.551-.007-.824-.031-.354.123-.443.439-.376a3.554,3.554,0,0,0,.38.035" transform="translate(-24.178 -20.854)" fill="#f6f6f6"/>
        <path id="Path_716202" data-name="Path 716202" d="M41.932,20.73l-4.14,4.226c-.342-.362-.657-.682-.951-1.019a.285.285,0,0,1,.006-.277c.138-.154.308-.378.47-.382s.331.224.522.37l3.588-3.5.5.579" transform="translate(-28.695 -15.71)" fill="#f6f6f6"/>
        <path id="Path_716203" data-name="Path 716203" d="M35.612,56.555v2.284h-4.6v-4.6h3.015c.015.024.039.043.04.064.06.848.164.753-.7.758-.425,0-.849.008-1.274,0-.224-.006-.311.075-.309.3q.014,1.18,0,2.361c0,.232.094.307.313.3q1.2-.009,2.4,0c.221,0,.32-.076.308-.307-.013-.274.017-.551-.007-.824-.031-.354.123-.443.439-.376a3.555,3.555,0,0,0,.38.035" transform="translate(-24.178 -42.283)" fill="#f6f6f6"/>
        <path id="Path_716204" data-name="Path 716204" d="M35.612,84.04v2.284h-4.6v-4.6h3.015c.015.024.039.043.04.064.06.848.164.753-.7.758-.425,0-.849.008-1.274,0-.224-.006-.311.075-.309.3q.014,1.18,0,2.361c0,.232.094.307.313.3q1.2-.009,2.4,0c.221,0,.32-.076.308-.307-.013-.274.017-.551-.007-.824-.031-.354.123-.443.439-.376a3.555,3.555,0,0,0,.38.035" transform="translate(-24.178 -63.71)" fill="#f6f6f6"/>
      </g>
    </g>
  </g>
</svg>
