<svg xmlns="http://www.w3.org/2000/svg" xmlns:xlink="http://www.w3.org/1999/xlink" width="70" height="70" viewBox="0 0 70 70">
  <defs>
    <clipPath id="clip-path">
      <rect id="Rectangle_378029" data-name="Rectangle 378029" width="47.499" height="47.435" fill="#fff"/>
    </clipPath>
  </defs>
  <g id="Group_1071457" data-name="Group 1071457" transform="translate(-269 -958)">
    <circle id="Ellipse_5614" data-name="Ellipse 5614" cx="35" cy="35" r="35" transform="translate(269 958)" fill="#0c5e46"/>
    <g id="Group_1072841" data-name="Group 1072841" transform="translate(280 968)">
      <g id="Group_1072840" data-name="Group 1072840" clip-path="url(#clip-path)">
        <path id="Path_716205" data-name="Path 716205" d="M7.477,42.238a12.746,12.746,0,0,1-.184-6.108c.443-2.121,2.28-3.263,4.563-3.112a4.288,4.288,0,0,1,3.693,3.691,16.321,16.321,0,0,1-.41,5.49A5.478,5.478,0,0,1,17.8,46.88c1.189-.08,2.335-.155,3.481-.236.516-.036.986.032,1,.675.016.6-.428.693-.914.717a43.849,43.849,0,0,0-10.124,1.576,20.414,20.414,0,0,0-7.538,3.612,8.308,8.308,0,0,0-1.275,1.332A4.183,4.183,0,0,0,2.482,60a10.57,10.57,0,0,0,3.3,2.667,2.515,2.515,0,0,0,1.334-2.546,34.672,34.672,0,0,1-.023-3.775,4.242,4.242,0,1,1,8.481.04c.01,1.556-.009,3.111.013,4.667a1.015,1.015,0,0,0,.257.7,5.372,5.372,0,0,1,1.944,4.075,2.811,2.811,0,0,0,.059.326,49.5,49.5,0,0,0,11.789,0A5.464,5.464,0,0,1,32.3,61.3a12.724,12.724,0,0,1-.278-5.91,4.113,4.113,0,0,1,4.4-3.359,4.179,4.179,0,0,1,3.919,4c.028,1.472-.083,2.948-.157,4.421a3.118,3.118,0,0,1-.231.753l1.7,1.471a10.157,10.157,0,0,0,3.4-2.764A4.024,4.024,0,0,0,45.01,54.6a13.472,13.472,0,0,0-3.266-2.718,27.18,27.18,0,0,0-10.191-3.294c-1.439-.2-2.889-.32-4.334-.467-.483-.049-.846-.273-.8-.775.049-.526.438-.723.965-.662.729.084,1.46.147,2.182.217.734-3.045.734-3.045,2.714-4.729a12.433,12.433,0,0,1-.266-5.843,4.132,4.132,0,0,1,5.2-3.221.786.786,0,0,0,.934-.266,2.644,2.644,0,0,1,2.989-.682,2.582,2.582,0,0,1,1.877,2.493c.041,2.74.028,5.481-.006,8.221a2.07,2.07,0,0,1-.391,1.241c-.527.615-.283,1.185-.082,1.774a.659.659,0,0,0,.4.313,3.4,3.4,0,0,1,2.708,3.642c0,.3.016.594,0,.889a5.6,5.6,0,0,0,.958,3.791,4.9,4.9,0,0,1-.539,6.28,44.694,44.694,0,0,1-3.729,3.4,1.307,1.307,0,0,0,1.124,1.279,3.074,3.074,0,0,1,2.179,2.885c.051.463-.073.867-.6.946-.541.082-.713-.29-.809-.749-.316-1.515-.828-1.922-2.382-1.923-1.7,0-3.408-.008-5.111,0a1.763,1.763,0,0,0-1.92,1.655c-.084,1.619-.022,3.246-.022,4.946.29.014.551.038.812.038q3.519,0,7.038,0c1.093,0,1.256-.095,1.623-1.105.162-.447.488-.625.847-.453a1.016,1.016,0,0,1,.487.763,2.335,2.335,0,0,1-2.319,2.159c-3.012.03-6.025.02-9.037,0a1.827,1.827,0,0,1-.878-.313c-1.468-.907-2.922-1.836-4.379-2.761-1.727-1.1-1.9-2.293-.575-3.788h-9.4l-.174.116a1.617,1.617,0,0,1,.51.276,2.024,2.024,0,0,1-.5,3.13c-1.649,1.084-3.322,2.131-5,3.171a1.534,1.534,0,0,1-.769.175q-4.334.018-8.667,0a2.443,2.443,0,0,1-2.6-2.594c-.011-1.161-.016-2.321,0-3.482A3.277,3.277,0,0,1,4.4,65.321c.5-.13.5-.13.707-1.162a40.121,40.121,0,0,1-3.579-3.174c-2.029-2.267-2-4.915-.168-7.354a2.488,2.488,0,0,0,.424-1.26c.064-.884.015-1.777.02-2.665a3.409,3.409,0,0,1,2.625-3.49c.193-.058.464-.227.5-.387a5.354,5.354,0,0,1,2.545-3.591m1,17.731c0,.741-.013,1.482,0,2.222.016.713.034,1.429.108,2.137.065.62.4.87,1.089.887a7.447,7.447,0,0,1,2.646.459c.611.254.916.18,1.207-.291a3.9,3.9,0,0,0,.553-1.187,8.525,8.525,0,0,0,.117-1.691c.012-2,.027-4,0-6a2.8,2.8,0,0,0-2.9-3.044c-1.721.009-2.81,1.2-2.821,3.1-.007,1.136,0,2.272,0,3.408m4.18,13.307c0-1.728.06-3.354-.022-4.973a1.764,1.764,0,0,0-1.916-1.66q-2.778-.018-5.556,0a1.813,1.813,0,0,0-1.923,1.821c-.059,1.232-.033,2.468-.017,3.7a1.011,1.011,0,0,0,1.061,1.1c2.762.027,5.525.011,8.373.011M38.972,57.834l.047,0a18.274,18.274,0,0,0-.155-2.208,2.61,2.61,0,0,0-2.7-2.163A2.564,2.564,0,0,0,33.4,55.614a19.329,19.329,0,0,0-.027,4.2A2.682,2.682,0,0,0,36.341,62.1a2.821,2.821,0,0,0,2.628-2.715c.026-.517,0-1.037,0-1.555m2.161-8.009c0-1.2.059-2.4-.017-3.6a3.238,3.238,0,0,0-1.622-2.593.925.925,0,0,0-.815.005,4.357,4.357,0,0,1-5.121-.012.833.833,0,0,0-.7-.066,3.5,3.5,0,0,0-1.692,3.482c1.677.366,3.375.659,5.026,1.119s3.254,1.088,4.94,1.663M16.366,47.081a4,4,0,0,0-1.559-3.4.743.743,0,0,0-1.035-.007,4.123,4.123,0,0,1-4.6.2c-.946-.516-1.125-.557-1.82.259a3.4,3.4,0,0,0-.919,1.637c-.135,1.349-.043,2.72-.043,4.143a36.493,36.493,0,0,1,9.972-2.832m24.739,18.1a3.691,3.691,0,0,0-1.462-2.425.78.78,0,0,0-1.09-.023,3.922,3.922,0,0,1-4.637.125,1.113,1.113,0,0,0-1.681.229,4.338,4.338,0,0,0-.747,1c-.631,1.2-.358,2.507-.382,3.777a.335.335,0,0,0,.138.24c.668.431,1.344.851,2.066,1.3a2.381,2.381,0,0,0,.048-.358c-.176-2.154,1.3-4,4.032-3.879,1.2.055,2.412.009,3.714.009M8.49,39.309c0,.439-.029.809.005,1.174a2.894,2.894,0,0,0,2.749,2.605,2.813,2.813,0,0,0,2.846-2.3,24.732,24.732,0,0,0,.151-2.705c-1.55.317-2.987.607-4.421.906-.429.09-.854.2-1.331.321M33.216,39.3a14.114,14.114,0,0,0,.142,1.519,2.866,2.866,0,0,0,2.734,2.271,2.8,2.8,0,0,0,2.789-2.279,18.926,18.926,0,0,0,.024-2.712l-5.689,1.2m8.27,4.132a4.011,4.011,0,0,0,.153-.727c.009-2.638.02-5.277,0-7.914a1.46,1.46,0,0,0-2.623-.818c2.11,2.592,1.311,5.432,1.059,8.3l1.414,1.156M33.32,37.838l5.54-1.169a2.839,2.839,0,0,0-3.112-2.3,2.96,2.96,0,0,0-2.427,3.468M14.073,36.673a2.845,2.845,0,0,0-3.162-2.3,2.9,2.9,0,0,0-2.342,3.447l5.5-1.151M14.2,69.352c.657-.41,1.323-.809,1.966-1.241a.6.6,0,0,0,.188-.438A18.086,18.086,0,0,0,16.3,65.31a8.616,8.616,0,0,0-.517-1.6l-.191.05a4.479,4.479,0,0,1-1.583,3.151.55.55,0,0,0-.161.427c.093.647.223,1.288.354,2.01m19.038,3.255.2-.1c-.1-.516-.027-1.256-.341-1.507a22.511,22.511,0,0,0-3.164-2,.922.922,0,0,0-.843.237.827.827,0,0,0,.157.8c1.307.891,2.654,1.721,3.99,2.57m-19.068-.061a.808.808,0,0,0,.2-.062c1.226-.772,2.467-1.522,3.659-2.343a.988.988,0,0,0,.314-.886c-.186-.464-.616-.464-1.043-.185-.761.5-1.538.968-2.309,1.449-1.055.659-1.055.658-.821,2.026M3.308,51.721c.463-.3.867-.531,1.237-.81a.8.8,0,0,0,.328-.5c.033-.907.015-1.816.015-2.73-1.719.184-1.846,1.608-1.58,4.042m39.258-4.032c0,.932-.007,1.858.009,2.784a.51.51,0,0,0,.2.349c.435.3.887.584,1.356.886.311-2.391.115-3.866-1.566-4.019M7.063,63.732l-.156-.072-.645,1.485H7.306l-.243-1.413" transform="translate(0 -27.231)" fill="#fff"/>
        <path id="Path_716206" data-name="Path 716206" d="M116.314,5.793A5.123,5.123,0,0,1,119.1.561a4.948,4.948,0,0,1,5.949,1.067,4.948,4.948,0,0,1,.551,6.14,3.558,3.558,0,0,0-.7,2.37c.039,1.086-.43,1.352-1.361.78a3.442,3.442,0,0,0-2.884-.762c-.063.564-.086,1.174-.205,1.764a4.976,4.976,0,0,1-4.8,3.954,3.376,3.376,0,0,0-1.919.6,4.572,4.572,0,0,1-.771.432.667.667,0,0,1-.981-.625,1.464,1.464,0,0,1-.006-.3,3.446,3.446,0,0,0-.694-2.45,4.62,4.62,0,0,1-.157-5.106,4.789,4.789,0,0,1,4.325-2.629c.266-.007.531,0,.868,0m-2.728,9.035a5.24,5.24,0,0,1,1.569-.359,3.608,3.608,0,0,0,3.906-2.765c.217-1,.326-2.048-.846-2.718-.445-.254-.725-.788-1.1-1.171a1.729,1.729,0,0,0-.674-.5,3.668,3.668,0,0,0-3.774,5.839,13.614,13.614,0,0,1,.923,1.678m9.971-5.821a2,2,0,0,1,.679-1.718,3.219,3.219,0,0,0,.681-2.975,3.645,3.645,0,0,0-3.682-2.9,3.6,3.6,0,0,0-3.507,3.441A3.5,3.5,0,0,0,120.591,8.6c.953.2,1.932.269,2.966.406" transform="translate(-94.066 0.001)" fill="#fff"/>
        <path id="Path_716207" data-name="Path 716207" d="M150.361,167.8a3.989,3.989,0,0,1-.946,2.548,2.077,2.077,0,0,0-.512,1.622,4.474,4.474,0,0,1,0,.74c-.063.752-.5,1-1.163.668-.175-.089-.341-.2-.509-.3a3.821,3.821,0,0,0-2.043-.644,5.05,5.05,0,1,1,5.177-4.634m-2.882,3.5c.059-.8.075-.788.746-1.675a3.5,3.5,0,0,0,.528-3.482,3.6,3.6,0,0,0-4.194-2.317,3.65,3.65,0,0,0,.471,7.2c.8.056,1.6.179,2.448.276" transform="translate(-119.479 -138.272)" fill="#fff"/>
        <path id="Path_716208" data-name="Path 716208" d="M155.895,70.215c-.255.152-.56.473-.753.415a1.016,1.016,0,0,1-.609-.693c-.023-.17.411-.562.642-.564.251,0,.5.334.756.522l-.036.319" transform="translate(-131.633 -59.094)" fill="#fff"/>
        <path id="Path_716209" data-name="Path 716209" d="M127.8,69.95c-.422.326-.687.683-.888.65-.274-.045-.5-.388-.744-.6.233-.231.436-.588.708-.65.2-.045.485.3.925.6" transform="translate(-107.469 -59.067)" fill="#fff"/>
        <path id="Path_716210" data-name="Path 716210" d="M141.681,70.116c-.262.175-.531.5-.782.482-.232-.012-.444-.384-.665-.6.227-.234.424-.594.692-.659.2-.048.487.293.736.46l.02.314" transform="translate(-119.453 -59.063)" fill="#fff"/>
        <path id="Path_716211" data-name="Path 716211" d="M174.662,23.758c.349.516,1.23.914.527,1.606-.68.669-1.032-.242-1.538-.538-.539.2-.947,1.306-1.671.475-.578-.664.271-1.052.6-1.523-.267-.535-1.273-.929-.5-1.647.677-.632,1.035.275,1.533.559.532-.212.9-1.278,1.625-.495.614.667-.209,1.06-.569,1.563" transform="translate(-146.329 -18.665)" fill="#fff"/>
        <path id="Path_716212" data-name="Path 716212" d="M183.308,193.03c.262-.177.537-.509.781-.488s.634.44.6.626a1.012,1.012,0,0,1-.657.656c-.19.045-.473-.307-.715-.481q-.006-.156-.013-.313" transform="translate(-156.145 -164.011)" fill="#fff"/>
        <path id="Path_716213" data-name="Path 716213" d="M156.759,193.721c-.161-.275-.464-.562-.441-.82.022-.236.4-.439.616-.657.225.242.582.46.631.734.037.208-.316.487-.5.734l-.31.009" transform="translate(-133.154 -163.757)" fill="#fff"/>
        <path id="Path_716214" data-name="Path 716214" d="M171.744,193.408c-.285.153-.586.446-.849.415a.859.859,0,0,1-.54-.668c.017-.231.4-.616.615-.607.271.011.529.348.793.544l-.019.316" transform="translate(-145.112 -164.016)" fill="#fff"/>
      </g>
    </g>
  </g>
</svg>
