<svg xmlns="http://www.w3.org/2000/svg" xmlns:xlink="http://www.w3.org/1999/xlink" width="190" height="151" viewBox="0 0 190 151">
  <defs>
    <clipPath id="clip-path">
      <rect id="Rectangle_378032" data-name="Rectangle 378032" width="190" height="151" transform="translate(285 3363)" fill="#fff" stroke="#707070" stroke-width="1"/>
    </clipPath>
    <clipPath id="clip-path-2">
      <rect id="Rectangle_378033" data-name="Rectangle 378033" width="134.6" height="134.576" fill="none"/>
    </clipPath>
  </defs>
  <g id="Mask_Group_1072640" data-name="Mask Group 1072640" transform="translate(-285 -3363)" clip-path="url(#clip-path)">
    <circle id="Ellipse_5724" data-name="Ellipse 5724" cx="82.5" cy="82.5" r="82.5" transform="translate(301 3374)" fill="#6debff"/>
    <g id="Group_1072845" data-name="Group 1072845" transform="translate(315.8 3374.312)">
      <g id="Group_1072844" data-name="Group 1072844" clip-path="url(#clip-path-2)">
        <path id="Path_716231" data-name="Path 716231" d="M132.836,128.1a1.942,1.942,0,0,1,1.723,2.229c0,9.67.074,19.341-.044,29.01-.051,4.178-3.457,6.992-8.1,7.011-9.108.038-18.217.036-27.326.04q-45.3.023-90.6.037C2.858,166.425,0,163.551,0,157.9q0-8.093,0-16.187c0-8.473,4.43-13.561,12.774-14.867a77.556,77.556,0,0,0,10.7-2.455c-1.768-.549-3.542-1.083-5.3-1.652-5.88-1.9-8.86-6.881-7.866-13.015.6-3.717,2.027-7.276,2.157-11.077.129-3.778.283-7.531,1.865-11.071a21.785,21.785,0,0,1,21.89-13.148c10.393,1,18.412,8.585,19.69,18.421.691,5.318,1.319,10.611,2.369,15.9,1.388,6.987-.995,12.4-8.85,14.449-1.542.4-3.075.841-4.809,1.316,6.4,2.07,13.29,1.494,19.3,5.272,0-3.377-.005-6.621,0-9.866.014-7.148,3.895-12.18,10.794-14.1,4.757-1.327,9.53-2.62,13.963-4.883.342-.175.909-.052.853-.671-.167-1.841.6-3.778-1.382-5.333a14.367,14.367,0,0,1-4.85-8.36,2.328,2.328,0,0,0-1.269-1.933,3.59,3.59,0,0,1-2-3.245c-.054-5.321-.441-10.667.149-15.958A11.419,11.419,0,0,1,91.658,55.05c4.832-.119,9.669-.066,14.5-.014a6.134,6.134,0,0,1,6.155,4.432A1.9,1.9,0,0,0,113.884,61a5.856,5.856,0,0,1,4.573,5.833c.162,4.689.082,9.389.026,14.082-.016,1.27-.348,2.681-1.539,3.277-1.39.695-1.705,1.836-2.021,3.1a14.583,14.583,0,0,1-5.024,8.028c-1.332,1.072-.754,2.385-1,3.616-.356,1.761.9,1.859,2.008,2.449,4.481,2.388,9.471,3.225,14.191,4.872a13.838,13.838,0,0,1,9.474,14.248c-.073,1.193-.478,2.019-1.738,2.234-1.772-.005-2.163-1.067-2.189-2.622-.077-4.691-2.009-8.287-6.566-9.984-2.544-.947-5.231-1.5-7.816-2.349-.912-.3-1.283,0-1.908.617-2.575,2.541-5.008,5.218-8.067,7.278a4.415,4.415,0,0,0-1.963,4.559c.915,4.226,1.952,8.426,2.841,12.658.27,1.285.844,1.671,2.129,1.655,5.813-.075,11.628-.056,17.442-.064,3.839-.006,3.88,0,3.91-3.78.012-1.559.413-2.617,2.19-2.613M99.588,71.888a22.737,22.737,0,0,1-7.239-.97c-1.746-.588-2.406-.222-2.4,1.715.006,3.345-1.506,5.037-4.737,5.558-.7.112-1.305.177-1.143,1.052.135.73-.547,1.782.7,2.117,1.724.464,2.133,1.751,2.329,3.321A11.906,11.906,0,0,0,96.669,95c6.652,1.929,13.78-3.057,14.77-10.386.2-1.494.579-2.744,2.215-3.163,1.395-.357.65-1.475.794-2.258.12-.652-.224-.91-.93-1.052-3.842-.769-4.717-1.815-4.952-5.949-.081-1.421-.607-1.906-1.985-1.457a29.536,29.536,0,0,1-6.992,1.158m-65.975,49.4a42.476,42.476,0,0,0,15.266-2.166c4.681-1.488,6.453-4.472,5.539-9.28-.859-4.518-2.319-8.937-2.241-13.608A16.583,16.583,0,0,0,46.185,82.9c-4.866-4.2-10.476-5.64-16.757-3.592A15.817,15.817,0,0,0,17.31,91.623c-1.418,6.076-1.524,12.4-2.849,18.557-1,4.634.627,7.166,4,8.443a40.5,40.5,0,0,0,15.153,2.669M35.687,162.5v-.251c9.11,0,18.219-.025,27.329.027,1.345.008,1.795-.329,1.78-1.739-.074-6.868,0-13.737-.052-20.6a9.3,9.3,0,0,0-7.61-8.8c-4.194-.726-8.391-1.449-12.552-2.336a2.162,2.162,0,0,0-2.464.876,9.922,9.922,0,0,1-15.533-.213,1.989,1.989,0,0,0-2.316-.748q-5.737,1.2-11.494,2.3c-6,1.149-8.829,4.476-8.848,10.535q-.027,8.095,0,16.189C3.939,161.268,5.2,162.5,8.78,162.5q13.453.011,26.907,0m64.156-23.835v-.023c-9.734,0-19.467.018-29.2-.021-1.25-.005-1.783.143-1.756,1.661.115,6.651.106,13.306.015,19.957-.022,1.621.37,2.091,2.048,2.084,18.346-.075,36.693-.058,55.04-.073,3.507,0,4.606-1.106,4.619-4.683.02-5.6-.075-11.207.051-16.807.041-1.825-.57-2.148-2.246-2.134-9.523.08-19.046.039-28.57.039m-20.56-4.141c3.286,0,6.575-.073,9.858.033,1.44.046,1.911-.539,2.179-1.842q1.244-6.036,2.706-12.025a4.447,4.447,0,0,0-.4-2.979c-.881-2.117-3.03-2.792-4.489-4.239-2.036-2.02-3.554-5.378-6.293-5.679-2.681-.3-5.612,1.326-8.378,2.269a8.869,8.869,0,0,0-6.289,6.969c-.993,5.464-.255,11.016-.425,16.527-.034,1.088.78.959,1.465.96q5.035.011,10.068,0m19.384-75.42v.01c-2.517,0-5.04-.1-7.551.025a7.413,7.413,0,0,0-6.973,6.4c-.249,2.565-.095,5.17-.11,7.757,0,.5.024,1.026.758.944.532-.059.947-.294.991-.881.042-.557.008-1.119.041-1.677.2-3.5,3.17-5.882,6.516-4.9a24.064,24.064,0,0,0,13.79-.031,5.091,5.091,0,0,1,6.494,4.723c.054.626.011,1.259.061,1.886.048.593.488.807,1.013.854.77.069.7-.517.7-.987.011-2.1.016-4.2-.006-6.294a2.09,2.09,0,0,0-2.091-2.2c-2.336-.109-3.41-1.388-3.72-3.487-.248-1.677-1.246-2.176-2.78-2.154-2.377.035-4.755.009-7.133.009m.526,75.361c.979,0,1.96-.04,2.936.011,1.019.053,1.32-.2,1.044-1.309-.942-3.781-1.8-7.583-2.6-11.4-.18-.857-.464-1.159-1.337-1.157-.845,0-1.19.234-1.37,1.115-.6,2.93-1.369,5.825-1.977,8.753-.825,3.974-.786,3.982,3.306,3.982M93.682,98.43c-.669,2.688-.08,4.553,2.3,6.121,3.442,2.264,3.247,2.331,6.728-.093a4.53,4.53,0,0,0,2.237-4.706c-.1-.836-.174-1.356-1.194-1.054a17.018,17.018,0,0,1-10.073-.268M34.544,125.2c-1.464,0-2.927-.013-4.391.01-.375.006-.874-.244-1.092.284-.181.44.115.788.336,1.144,2.159,3.48,7.987,3.454,10.1-.042.562-.931.665-1.508-.769-1.417-1.388.088-2.787.019-4.181.021m58.795-13.374c.788-.663,1.534-1.269,2.253-1.9.357-.316.167-.657-.124-.873-1.786-1.327-3.537-2.713-5.409-3.908a1.815,1.815,0,0,0-2.244.664c-.517.667.456,1.008.824,1.405,1.182,1.276,2.443,2.48,3.681,3.7.288.285.6.542,1.02.913m9.06-2.149c1.523.246,1.79,2.791,3.64,1.245,1.756-1.468,3.309-3.178,4.976-4.8-1.348-1.331-2.512-1.338-3.81-.223-1.377,1.183-2.85,2.253-4.806,3.783m-3.48,7.123c1.7.025,2.833-.806,2.939-2.053.043-.512-1.976-2.516-2.52-2.5-.458.012-2.909,2.266-2.754,2.6.48,1.048.826,2.343,2.336,1.951" transform="translate(0 -31.848)" fill="#0e0c0b"/>
        <path id="Path_716232" data-name="Path 716232" d="M78.4,40.59q0-1.982,0-3.964A3.171,3.171,0,0,1,80.86,33.2a3.76,3.76,0,0,0,2.833-3.932c.031-7.077.054-14.154-.008-21.231C83.66,5.331,81.99,3.946,78.942,3.93,73.127,3.9,67.312,3.912,61.5,3.911q-15.449,0-30.9,0c-3.983,0-5.122,1.051-5.276,4.986-.055,1.4-.629,2.39-2.017,2.431-1.463.044-1.97-1.083-2.086-2.4a7.972,7.972,0,0,1,8.1-8.914q25.118-.032,50.235,0c4.8,0,8.044,3.213,8.062,7.975.027,7.147-.01,14.294.015,21.441a7.343,7.343,0,0,1-3.944,6.886,1.976,1.976,0,0,0-1.211,2.12c.088,1.466.011,2.942.025,4.413a3.319,3.319,0,0,1-2.07,3.518c-1.511.62-2.557-.137-3.534-1.105-2.189-2.169-4.4-4.319-6.519-6.555a3.847,3.847,0,0,0-3.1-1.309c-12.4.055-24.8.036-37.2.031-5.514,0-8.784-3.191-8.849-8.656-.037-3.083.007-6.166-.013-9.249-.01-1.563.419-2.964,2.208-2.883,1.677.076,1.929,1.473,1.9,2.948-.053,3.152-.028,6.306-.011,9.459.016,2.86,1.357,4.217,4.205,4.219,12.751.008,25.5.032,38.254-.035a5.834,5.834,0,0,1,4.8,2.021c1.7,1.927,3.547,3.731,5.33,5.589l.493-.248" transform="translate(-12.271 0)" fill="#0e0c0b"/>
        <path id="Path_716233" data-name="Path 716233" d="M276.354,200.651c-1.777,0-2.178,1.054-2.191,2.613-.029,3.779-.07,3.775-3.909,3.78-5.814.008-11.629-.011-17.442.064-1.285.016-1.859-.369-2.129-1.655-.889-4.231-1.927-8.431-2.841-12.658a4.414,4.414,0,0,1,1.963-4.559c3.058-2.06,5.492-4.737,8.067-7.278.625-.616,1-.915,1.908-.617,2.585.847,5.272,1.4,7.816,2.35,4.557,1.7,6.488,5.293,6.566,9.984.026,1.555.416,2.616,2.188,2.622a23.589,23.589,0,0,0,.005,5.354" transform="translate(-143.517 -104.402)" fill="#2c5e82"/>
        <path id="Path_716234" data-name="Path 716234" d="M41.076,263.9q-13.454,0-26.907,0c-3.579,0-4.841-1.232-4.852-4.761q-.027-8.095,0-16.189c.019-6.06,2.846-9.386,8.848-10.535q5.756-1.1,11.493-2.3a1.99,1.99,0,0,1,2.317.748,9.922,9.922,0,0,0,15.533.213,2.162,2.162,0,0,1,2.463-.876c4.161.887,8.358,1.611,12.552,2.336a9.3,9.3,0,0,1,7.61,8.8c.049,6.868-.022,13.737.052,20.6.015,1.41-.435,1.747-1.779,1.739-9.11-.053-18.219-.027-27.329-.027v.251" transform="translate(-5.389 -133.243)" fill="#d86972"/>
        <path id="Path_716235" data-name="Path 716235" d="M194.694,253.841c9.523,0,19.047.042,28.57-.039,1.675-.014,2.287.309,2.246,2.134-.126,5.6-.032,11.2-.051,16.807-.013,3.576-1.112,4.68-4.619,4.683-18.346.015-36.693,0-55.039.073-1.679.007-2.07-.462-2.048-2.083.091-6.652.1-13.307-.015-19.958-.026-1.518.507-1.666,1.756-1.661,9.733.039,19.467.021,29.2.021Z" transform="translate(-94.85 -147.022)" fill="#d6a88e"/>
        <path id="Path_716236" data-name="Path 716236" d="M53.125,154.8a40.5,40.5,0,0,1-15.154-2.669c-3.372-1.277-5-3.809-4-8.443,1.324-6.16,1.43-12.48,2.849-18.557a15.816,15.816,0,0,1,12.118-12.312c.183,1.5,1.487,2.15,2.406,3.033,2.755,2.647,4.816,5.774,5.258,9.524.738,6.264,1.658,12.479,2.759,18.692.816,4.6-.944,8.376-5.755,10.1-.209.075-.324.412-.483.627" transform="translate(-19.511 -65.354)" fill="#2c5e82"/>
        <path id="Path_716237" data-name="Path 716237" d="M74.133,153.529c.159-.215.274-.552.483-.627,4.811-1.728,6.571-5.5,5.755-10.1-1.1-6.213-2.021-12.428-2.759-18.692-.442-3.75-2.5-6.877-5.258-9.524-.919-.883-2.223-1.537-2.406-3.033,6.281-2.048,11.891-.606,16.757,3.591A16.586,16.586,0,0,1,92.7,128.474c-.078,4.671,1.382,9.09,2.241,13.608.915,4.808-.857,7.793-5.539,9.28a42.469,42.469,0,0,1-15.266,2.167" transform="translate(-40.52 -64.085)" fill="#254d6b"/>
        <path id="Path_716238" data-name="Path 716238" d="M172.424,207.2q-5.034,0-10.068,0c-.684,0-1.5.127-1.465-.96.17-5.511-.568-11.063.425-16.527a8.869,8.869,0,0,1,6.289-6.969c2.766-.943,5.7-2.564,8.378-2.269,2.739.3,4.257,3.659,6.293,5.679,1.458,1.447,3.607,2.122,4.489,4.239a4.446,4.446,0,0,1,.4,2.978q-1.455,5.988-2.706,12.025c-.268,1.3-.739,1.889-2.179,1.842-3.283-.106-6.572-.033-9.858-.034" transform="translate(-93.141 -104.526)" fill="#2c5e82"/>
        <path id="Path_716239" data-name="Path 716239" d="M212.328,116.593a11.906,11.906,0,0,1-9.577-10.316c-.2-1.57-.6-2.856-2.329-3.321-1.244-.335-.562-1.387-.7-2.117-.162-.875.446-.939,1.143-1.052,3.231-.52,4.744-2.213,4.737-5.558,0-1.937.656-2.3,2.4-1.715a22.737,22.737,0,0,0,7.24.97c.024,3.688-.1,7.383.11,11.06.244,4.372-.413,8.435-3.03,12.048" transform="translate(-115.659 -53.444)" fill="#f6f5f5"/>
        <path id="Path_716240" data-name="Path 716240" d="M229.775,116.464c2.617-3.613,3.274-7.676,3.03-12.048-.206-3.677-.085-7.373-.11-11.06a29.536,29.536,0,0,0,6.992-1.158c1.379-.448,1.9.037,1.985,1.457.235,4.135,1.109,5.18,4.952,5.949.706.141,1.05.4.93,1.052-.144.783.6,1.9-.794,2.258-1.637.419-2.014,1.669-2.215,3.163-.99,7.329-8.117,12.315-14.769,10.386" transform="translate(-133.106 -53.315)" fill="#d6a88e"/>
        <path id="Path_716241" data-name="Path 716241" d="M214.33,64.752c2.377,0,4.756.026,7.133-.009,1.534-.023,2.532.476,2.78,2.154.31,2.1,1.384,3.377,3.72,3.487a2.09,2.09,0,0,1,2.09,2.2c.022,2.1.017,4.2.006,6.294,0,.469.071,1.056-.7.987-.524-.047-.965-.261-1.013-.854-.05-.626-.007-1.26-.061-1.886a5.091,5.091,0,0,0-6.494-4.723,24.067,24.067,0,0,1-13.79.031c-3.346-.984-6.313,1.4-6.516,4.9-.032.558,0,1.12-.04,1.677-.045.587-.459.822-.991.882-.734.081-.761-.443-.758-.944.015-2.587-.14-5.192.11-7.757a7.413,7.413,0,0,1,6.972-6.4c2.511-.127,5.033-.024,7.55-.024v-.01" transform="translate(-115.663 -37.493)" fill="#d6a88e"/>
        <path id="Path_716242" data-name="Path 716242" d="M230.641,224.85c-4.093,0-4.131-.008-3.306-3.982.608-2.929,1.38-5.823,1.977-8.753.18-.881.525-1.114,1.369-1.115.873,0,1.157.3,1.337,1.157.8,3.813,1.661,7.616,2.6,11.4.276,1.106-.026,1.362-1.045,1.308-.976-.051-1.957-.011-2.935-.011" transform="translate(-131.447 -122.229)" fill="#d86972"/>
        <path id="Path_716243" data-name="Path 716243" d="M222.321,158.262a17.018,17.018,0,0,0,10.073.268c1.021-.3,1.092.218,1.194,1.054a4.53,4.53,0,0,1-2.236,4.707c-3.48,2.423-3.286,2.356-6.728.092-2.383-1.568-2.972-3.433-2.3-6.121" transform="translate(-128.639 -91.679)" fill="#d6a88e"/>
        <path id="Path_716244" data-name="Path 716244" d="M74.484,221.819c1.394,0,2.793.068,4.181-.02,1.433-.091,1.33.486.768,1.417-2.109,3.5-7.937,3.522-10.1.042-.221-.356-.517-.7-.336-1.144.218-.528.716-.279,1.091-.285,1.463-.023,2.927-.009,4.391-.011" transform="translate(-39.939 -128.472)" fill="#d6a88e"/>
        <path id="Path_716245" data-name="Path 716245" d="M214.05,180.622c-.416-.37-.732-.627-1.02-.913-1.238-1.225-2.5-2.428-3.681-3.7-.367-.4-1.34-.738-.823-1.405a1.814,1.814,0,0,1,2.244-.664c1.872,1.2,3.623,2.581,5.41,3.908.29.216.48.557.124.873-.719.636-1.465,1.242-2.253,1.9" transform="translate(-120.711 -100.649)" fill="#254d6b"/>
        <path id="Path_716246" data-name="Path 716246" d="M243.4,178.661c1.956-1.53,3.43-2.6,4.806-3.783,1.3-1.115,2.462-1.107,3.81.223-1.667,1.627-3.22,3.337-4.976,4.8-1.849,1.547-2.117-1-3.64-1.245" transform="translate(-140.997 -100.837)" fill="#254d6b"/>
        <path id="Path_716247" data-name="Path 716247" d="M231.9,195.642c-1.51.391-1.855-.9-2.336-1.951-.154-.337,2.3-2.592,2.754-2.6.545-.014,2.564,1.99,2.52,2.5-.106,1.247-1.242,2.078-2.939,2.053" transform="translate(-132.979 -110.694)" fill="#d86972"/>
      </g>
    </g>
  </g>
</svg>
