<svg xmlns="http://www.w3.org/2000/svg" xmlns:xlink="http://www.w3.org/1999/xlink" width="146" height="146" viewBox="0 0 146 146">
  <defs>
    <clipPath id="clip-path">
      <rect id="Rectangle_378045" data-name="Rectangle 378045" width="82.533" height="94.125" fill="#0c5e46"/>
    </clipPath>
  </defs>
  <g id="Group_1072933" data-name="Group 1072933" transform="translate(-517 -11479.621)">
    <g id="Group_1071465" data-name="Group 1071465" transform="translate(248 10521.621)">
      <path id="Path_608971" data-name="Path 608971" d="M73,0A73,73,0,1,1,0,73,73,73,0,0,1,73,0Z" transform="translate(269 958)" fill="#dbe5f3"/>
    </g>
    <g id="Group_1072850" data-name="Group 1072850" transform="translate(548.733 11505.977)">
      <g id="Group_1072849" data-name="Group 1072849" clip-path="url(#clip-path)">
        <path id="Path_716256" data-name="Path 716256" d="M41.212,200.175c-3.916,3.231-8.41,4.247-13.339,4.162-7.4-.128-14.808-.032-22.212-.034C1.8,204.3,0,202.534,0,198.727Q0,182.861,0,167c0-3.731,1.808-5.544,5.529-5.544q8.885,0,17.77.018a2.127,2.127,0,0,1,.4.1v3.056H17.865q-6.108,0-12.217,0c-1.995,0-2.462.448-2.464,2.382q-.01,15.866,0,31.732c0,1.879.477,2.371,2.313,2.373,8.145.009,16.29.026,24.434-.009a14.551,14.551,0,0,0,8.564-2.875,2.477,2.477,0,0,0,1.209-2.363c-.106-1.887-.03-3.785-.03-5.766h3.18c0,1.935-.091,3.924.048,5.9a3.212,3.212,0,0,0,1.022,2.074,13.614,13.614,0,0,0,8.648,3.032c8.144.037,16.289.018,24.434.01,1.852,0,2.337-.49,2.339-2.349q.01-15.866,0-31.732c0-1.945-.47-2.4-2.441-2.406q-8.171-.01-16.343,0H58.792V161.54c.455-.03.91-.086,1.366-.086q8.568-.009,17.136,0c3.3.006,5.229,1.916,5.232,5.2q.014,16.263,0,32.525c0,3.181-1.956,5.113-5.16,5.117q-12.455.018-24.91,0c-3.9-.007-6.875-1.108-11.242-4.123" transform="translate(0 -110.216)" fill="#0c5e46"/>
        <path id="Path_716257" data-name="Path 716257" d="M78.706,70.529c-2.96,0-5.919-.02-8.878.009-1.341.013-2.078-.491-2.132-1.918a15.55,15.55,0,0,0-5.218-10.989,23.327,23.327,0,0,1-7.453-18.317A23.819,23.819,0,0,1,75.543,16.824c12.907-1.52,24,6.184,26.618,18.937,1.693,8.256-.689,15.61-6.71,21.574-3.256,3.225-5.372,6.858-5.529,11.513-.043,1.269-.844,1.695-2.021,1.688-3.065-.017-6.13-.006-9.2-.006M86.65,67.3a1.947,1.947,0,0,0,.205-.46c.671-4.945,3.331-8.7,6.737-12.219,5.5-5.684,7.15-12.567,4.94-20.182a20.38,20.38,0,0,0-24.022-14.2c-7.889,1.774-13.259,6.692-15.466,14.506-2.26,8-.132,15.011,5.866,20.791a19.336,19.336,0,0,1,5.533,9.422c.188.758.29,1.538.439,2.342Z" transform="translate(-37.556 -11.355)" fill="#0c5e46"/>
        <path id="Path_716258" data-name="Path 716258" d="M112.964,206.453c1.955,0,3.911.017,5.866-.006,1.39-.016,1.975.637,2.028,2.02.14,3.642-1.071,6.567-4.436,8.249a7.533,7.533,0,0,1-8.469-.908c-2.6-2.012-3.239-4.833-2.949-7.934.1-1.087.909-1.437,1.935-1.427,2.008.019,4.016.006,6.024.006m-4.752,3.225c.327,3.006,2.424,4.906,5.025,4.693a4.454,4.454,0,0,0,4.219-4.693Z" transform="translate(-71.639 -140.936)" fill="#0c5e46"/>
        <rect id="Rectangle_378034" data-name="Rectangle 378034" width="20.483" height="3.003" transform="translate(8.027 78.286)" fill="#0c5e46"/>
        <rect id="Rectangle_378035" data-name="Rectangle 378035" width="20.436" height="2.989" transform="translate(54.03 78.294)" fill="#0c5e46"/>
        <rect id="Rectangle_378036" data-name="Rectangle 378036" width="18.907" height="2.984" transform="translate(31.813 60.867)" fill="#0c5e46"/>
        <rect id="Rectangle_378037" data-name="Rectangle 378037" width="17.321" height="2.985" transform="translate(8.008 70.388)" fill="#0c5e46"/>
        <rect id="Rectangle_378038" data-name="Rectangle 378038" width="17.307" height="2.945" transform="translate(57.195 70.38)" fill="#0c5e46"/>
        <rect id="Rectangle_378039" data-name="Rectangle 378039" width="14.067" height="3.041" transform="translate(8.032 62.422)" fill="#0c5e46"/>
        <rect id="Rectangle_378040" data-name="Rectangle 378040" width="14.111" height="2.987" transform="translate(60.409 62.422)" fill="#0c5e46"/>
        <path id="Path_716259" data-name="Path 716259" d="M40.583.051l7.838,7.772L46.356,9.8l-7.739-7.86L40.583.051" transform="translate(-26.363 -0.035)" fill="#0c5e46"/>
        <path id="Path_716260" data-name="Path 716260" d="M198.575,0l1.933,1.979-7.825,7.793-1.944-1.985L198.575,0" transform="translate(-130.213)" fill="#0c5e46"/>
        <rect id="Rectangle_378041" data-name="Rectangle 378041" width="10.961" height="2.946" transform="translate(1.68 27.562)" fill="#0c5e46"/>
        <rect id="Rectangle_378042" data-name="Rectangle 378042" width="10.961" height="2.946" transform="translate(69.89 27.533)" fill="#0c5e46"/>
        <path id="Path_716261" data-name="Path 716261" d="M95.842,82.31q-6.739,0-13.478,0c-1.892,0-2.345-.447-2.349-2.309q-.015-5.629,0-11.258c0-1.859.457-2.3,2.352-2.3q13.558-.008,27.115,0c1.793,0,2.265.464,2.271,2.226q.019,5.708,0,11.416c-.006,1.759-.482,2.222-2.274,2.226-4.546.01-9.091,0-13.637,0M108.5,69.726H83.321v9.32H108.5Z" transform="translate(-54.619 -45.352)" fill="#0c5e46"/>
        <rect id="Rectangle_378043" data-name="Rectangle 378043" width="9.335" height="2.986" transform="translate(41.373 27.503)" fill="#0c5e46"/>
        <rect id="Rectangle_378044" data-name="Rectangle 378044" width="6.214" height="2.979" transform="translate(31.814 27.544)" fill="#0c5e46"/>
      </g>
    </g>
  </g>
</svg>
