<svg xmlns="http://www.w3.org/2000/svg" xmlns:xlink="http://www.w3.org/1999/xlink" width="146" height="146" viewBox="0 0 146 146">
  <defs>
    <clipPath id="clip-path">
      <rect id="Rectangle_378058" data-name="Rectangle 378058" width="96.286" height="96.111" fill="#fff"/>
    </clipPath>
  </defs>
  <g id="Group_1072934" data-name="Group 1072934" transform="translate(-269 -958)">
    <path id="Path_608969" data-name="Path 608969" d="M73,0A73,73,0,1,1,0,73,73,73,0,0,1,73,0Z" transform="translate(269 958)" fill="#0c5e46"/>
    <g id="Group_1072852" data-name="Group 1072852" transform="translate(293.857 982.944)">
      <g id="Group_1072851" data-name="Group 1072851" clip-path="url(#clip-path)">
        <path id="Path_716262" data-name="Path 716262" d="M49.691,77.4h12.44a17.141,17.141,0,0,1,7.995-12.841,15.92,15.92,0,0,1,10.947-2.492c8.864,1.217,15.135,8.241,15.167,16.806a17.141,17.141,0,0,1-34.206,1.78H49.85c-.776,5.446-1.592,6.132-7.213,6.132H21.383c-4.156,0-5.643-1.433-5.841-5.621a2.88,2.88,0,0,0-.1-.458,64.442,64.442,0,0,1-6.621-.4A10.553,10.553,0,0,1,.058,70.122q-.114-6.592,0-13.186A10.776,10.776,0,0,1,10.764,46.449c6.154-.046,12.308-.011,18.462-.012h1.6c.117-.214.209-.3.2-.383-.279-3.889,2.069-5.98,6.128-5.876,7.39.188,14.789.053,22.184.053,4.178,0,5.712,1.46,5.874,5.586a5.956,5.956,0,0,0,.108.62h1.488q8.92,0,17.841,0c5.28-.007,8.464-3.21,8.475-8.513.006-3.258.021-6.516,0-9.774A7.776,7.776,0,0,0,85,20.068c-1.383-.012-2.766,0-4.277,0,0,.664.02,1.169,0,1.673a4.539,4.539,0,0,1-4.433,4.507q-12.644.083-25.287,0a4.536,4.536,0,0,1-4.406-4.373c-.02-.309,0-.621-.011-.931-.009-.246-.037-.492-.061-.8H37.392c-.048.9-.093,1.761-.144,2.7-1.049.311-2.073.644-3.113.913-1.213.313-1.458.94-.874,2.047,1.582,3,1.564,3.015-.865,5.45-.876.878-1.816,1.7-2.615,2.646-.682.806-1.254.756-2.09.242-3.153-1.939-3.321-2.231-4.343,1.769-.1.4-.253.778-.393,1.2H14.411c-.272-1.005-.535-2.036-.83-3.058-.341-1.181-.949-1.579-2.167-.913-2.9,1.584-2.905,1.537-5.218-.748-1.211-1.2-2.47-2.346-3.74-3.547.64-1.158,1.191-2.134,1.721-3.121s.368-1.656-.823-1.955C2.264,23.5,1.2,23.138.113,22.815V14.285c.912-.253,1.792-.514,2.68-.74,1.828-.466,2.057-.961,1.155-2.569C3.5,10.166,3.036,9.359,2.6,8.595l6.183-6.1c.757.42,1.714.912,2.63,1.471,1.166.711,1.831.319,2.167-.9.275-.993.528-1.992.812-3.068h8.587c.313,1.063.664,2.137.941,3.23.306,1.211,1.008,1.307,1.97.787s1.894-1.047,2.762-1.528l6.146,6.1c-.485.875-1.019,1.866-1.58,2.841-.543.942-.331,1.565.725,1.874l3.35.982v2.554h9.289c0-.55-.02-1.056,0-1.559a4.531,4.531,0,0,1,4.427-4.509q12.643-.083,25.287,0a4.538,4.538,0,0,1,4.412,4.368c.021.309,0,.621.012.931.008.246.035.492.067.9,1.867,0,3.671-.1,5.46.02,4.908.338,9.212,3.95,9.678,8.9a76.521,76.521,0,0,1,0,14.68c-.531,5.319-5.206,8.933-10.59,8.958-6.1.029-12.2.007-18.306.007H65.207c0,.636.019,1.138,0,1.637a4.564,4.564,0,0,1-4.553,4.55q-12.489.066-24.977,0a4.571,4.571,0,0,1-4.6-4.658c-.016-.455,0-.911,0-1.532H29.444q-8.921,0-17.841,0c-5.217.007-8.441,3.2-8.455,8.374q-.015,5.662,0,11.325c.021,4.9,3.278,8.178,8.144,8.219,1.341.011,2.681,0,4.18,0,.029-.551.061-1.042.079-1.533a4.576,4.576,0,0,1,4.605-4.657q12.488-.058,24.977,0a4.563,4.563,0,0,1,4.554,4.547c.02.464,0,.929,0,1.57m43.438,1.687a13.96,13.96,0,1,0-14.063,13.9,14.019,14.019,0,0,0,14.063-13.9m-58.937-60.2c0-2.24,0-2.24-1.515-2.643a3.9,3.9,0,0,1-2.407-5.878c.819-1.25.369-1.9-.521-2.694-.833-.746-1.373-1.661-2.8-.7A3.808,3.808,0,0,1,21.074,4.5c-.332-1.68-1.37-1.417-2.487-1.487-1.229-.077-1.952.149-2.241,1.59a3.883,3.883,0,0,1-5.857,2.41c-.979-.594-1.7-.746-2.467.279-.678.909-2.015,1.385-.91,3.021a3.824,3.824,0,0,1-2.459,5.917c-1.522.31-1.505,1.171-1.49,2.318.016,1.112-.105,2.037,1.445,2.358a3.853,3.853,0,0,1,2.555,5.869c-.591.974-.739,1.689.293,2.465.913.686,1.385,2.01,3.013.917a3.924,3.924,0,0,1,5.969,2.464c.139.5.442,1.288.758,1.334a7.885,7.885,0,0,0,3.214-.071c.4-.113.544-1.217.75-1.886.577-1.884,3.678-3.09,5.433-2.123.573.316,1.425.917,1.757.722a7.3,7.3,0,0,0,2.315-2.213c.218-.329-.246-1.21-.544-1.76C29,24.551,30.141,21.5,32.41,21c1.418-.309,2.147-.85,1.782-2.121m29.373,4.281c3.926,0,7.853.008,11.78,0,1.8-.005,2.257-.484,2.269-2.312.011-1.653-.012-3.307.006-4.96.015-1.328-.575-2.029-1.942-2.028q-12.012.006-24.024,0a1.731,1.731,0,0,0-1.963,2.007c.016,1.7-.011,3.41.007,5.115s.5,2.174,2.243,2.18c3.875.012,7.749,0,11.624,0M48.136,43.34c-3.926,0-7.853-.01-11.78,0-1.647.006-2.152.5-2.173,2.091-.023,1.7.017,3.41-.012,5.115-.025,1.41.595,2.1,2.034,2.1q11.934-.018,23.869,0c1.44,0,2.059-.693,2.032-2.1-.029-1.549,0-3.1-.007-4.65-.006-2.145-.4-2.553-2.493-2.555q-5.735-.008-11.47,0M32.666,83.674c3.927,0,7.853.011,11.78-.006,1.614-.007,2.114-.519,2.133-2.133.02-1.756,0-3.513,0-5.27a1.683,1.683,0,0,0-1.915-1.894q-12.012,0-24.024,0a1.73,1.73,0,0,0-1.984,1.985c.014,1.7-.01,3.41.006,5.115s.5,2.2,2.221,2.2c3.927.013,7.853,0,11.78,0" transform="translate(0)" fill="#fff"/>
        <path id="Path_716263" data-name="Path 716263" d="M242.32,230.573l2.083,2.351-13.319,13.333L227.1,242.2l2.176-1.967L231.213,242l11.107-11.429" transform="translate(-156.631 -159.023)" fill="#fff"/>
        <path id="Path_716264" data-name="Path 716264" d="M39.5,48.362a9.312,9.312,0,0,1-9.293-9.25,9.426,9.426,0,0,1,9.379-9.374A9.312,9.312,0,0,1,39.5,48.362m.041-3.121a6.127,6.127,0,0,0,6.168-6.2,6.213,6.213,0,0,0-6.086-6.171,6.31,6.31,0,0,0-6.286,6.168,6.211,6.211,0,0,0,6.2,6.207" transform="translate(-20.836 -20.51)" fill="#fff"/>
        <rect id="Rectangle_378046" data-name="Rectangle 378046" width="2.919" height="2.925" transform="translate(52.861 17.035)" fill="#fff"/>
        <rect id="Rectangle_378047" data-name="Rectangle 378047" width="2.925" height="2.919" transform="translate(59.074 17.076)" fill="#fff"/>
        <rect id="Rectangle_378048" data-name="Rectangle 378048" width="2.913" height="2.941" transform="translate(65.314 17.055)" fill="#fff"/>
        <rect id="Rectangle_378049" data-name="Rectangle 378049" width="2.973" height="2.863" transform="translate(71.439 17.075)" fill="#fff"/>
        <rect id="Rectangle_378050" data-name="Rectangle 378050" width="2.973" height="2.863" transform="translate(37.379 46.564)" fill="#fff"/>
        <rect id="Rectangle_378051" data-name="Rectangle 378051" width="2.973" height="2.899" transform="translate(43.511 46.556)" fill="#fff"/>
        <rect id="Rectangle_378052" data-name="Rectangle 378052" width="2.973" height="2.897" transform="translate(49.765 46.557)" fill="#fff"/>
        <rect id="Rectangle_378053" data-name="Rectangle 378053" width="2.897" height="2.973" transform="translate(55.985 46.516)" fill="#fff"/>
        <rect id="Rectangle_378054" data-name="Rectangle 378054" width="2.897" height="2.973" transform="translate(21.851 77.547)" fill="#fff"/>
        <rect id="Rectangle_378055" data-name="Rectangle 378055" width="2.913" height="2.941" transform="translate(28.076 77.566)" fill="#fff"/>
        <rect id="Rectangle_378056" data-name="Rectangle 378056" width="2.923" height="2.95" transform="translate(34.25 77.534)" fill="#fff"/>
        <rect id="Rectangle_378057" data-name="Rectangle 378057" width="2.973" height="2.863" transform="translate(40.482 77.596)" fill="#fff"/>
      </g>
    </g>
  </g>
</svg>
