<svg xmlns="http://www.w3.org/2000/svg" xmlns:xlink="http://www.w3.org/1999/xlink" width="125" height="125" viewBox="0 0 125 125">
  <defs>
    <clipPath id="clip-path">
      <rect id="Rectangle_378066" data-name="Rectangle 378066" width="78.6" height="78.557" fill="#fff"/>
    </clipPath>
  </defs>
  <g id="Group_1014542" data-name="Group 1014542" transform="translate(-386 -2146)">
    <circle id="Ellipse_4838" data-name="Ellipse 4838" cx="62.5" cy="62.5" r="62.5" transform="translate(386 2146)" fill="#0c5e46"/>
    <g id="Group_1072857" data-name="Group 1072857" transform="translate(407 2169.221)">
      <g id="Group_1072856" data-name="Group 1072856" clip-path="url(#clip-path)">
        <path id="Path_716272" data-name="Path 716272" d="M56.74,56.093a9.153,9.153,0,0,0-1.163-1.857,9.108,9.108,0,0,1-2.812-6.186c-3.241-1.077-4.395-3.15-3.63-6.509.044-.194.113-.477.251-.539,1.346-.606.937-1.8.943-2.82a11.058,11.058,0,0,1,22.1-.581,15.354,15.354,0,0,0,.031,1.959,3.335,3.335,0,0,0,.594,1.129c.148.235.43.4.525.65a4.9,4.9,0,0,1-3.557,6.643A9.041,9.041,0,0,1,66.7,54.65a1.389,1.389,0,0,0,.578,2.4c3.279.979,6.552,1.975,9.839,2.927A1.8,1.8,0,0,1,78.6,62c-.054,4.908-.02,9.816-.025,14.725,0,1.467-.348,1.826-1.781,1.827q-12.335.008-24.669,0c-1.437,0-1.783-.357-1.785-1.821-.006-3.839,0-7.678,0-11.678-1.818,0-3.563-.048-5.3.019a2.819,2.819,0,0,1-2.365-.994c-1.136-1.232-2.49-2.28-3.512-3.593-1.275-1.639-2.852-1.765-4.772-1.47,0,2.334-.02,4.654.027,6.973.006.269.336.6.6.786a3.669,3.669,0,1,1-3.732.007c.264-.188.609-.509.615-.775.048-2.32.028-4.641.028-7.088H4.849c-2.243,0-2.385-.138-2.386-2.329V7.428c-.426-.023-.777-.043-1.128-.06a1.217,1.217,0,0,1-1.316-1.3C0,4.475-.008,2.879.02,1.284A1.208,1.208,0,0,1,1.353.006c.286-.009.573,0,.859,0H64.068C66.1,0,66.3.2,66.3,2.238q0,1.35,0,2.7c0,2.26-.082,2.349-2.409,2.485V25.7H61.425V7.465H5V56.394H34.964c-.843-.86-1.609-1.551-2.257-2.339a2.6,2.6,0,0,1-.733-1.564,3.4,3.4,0,0,0-1.336-2.949c-1.622-1.528-1.584-1.772-.038-3.333,2.646-2.672,2.4-2.747,5.088-.031,3.166,3.195,6.339,6.384,9.564,9.519a2.89,2.89,0,0,0,1.79.729c3.1.072,6.2.034,9.306.034l.392-.367M76.115,76.069c0-4.483.015-8.85-.037-13.217,0-.274-.492-.684-.831-.791-2.835-.9-5.7-1.69-8.526-2.622a1.714,1.714,0,0,0-2.22.567,4.764,4.764,0,0,1-.863.869,2.731,2.731,0,0,0-1.047,2.436c.071,3.6.027,7.2.027,10.8V76h7.407V67.589H72.5v8.48Zm-15.957-.032V74.784c0-3.354-.13-6.716.048-10.061a5.362,5.362,0,0,0-2.043-4.875A3.334,3.334,0,0,0,55.8,58.9c-3.026.061-6.057-.036-9.082.05a3.676,3.676,0,0,1-3.112-1.284c-1.358-1.5-2.856-2.873-4.217-4.223l-1.975,1.878c2.368,2.353,4.7,4.694,7.074,6.99a1.806,1.806,0,0,0,1.129.277c1.759.028,3.518.009,5.278.014,1.6,0,1.9.315,1.9,1.953q0,4.664,0,9.327v2.159ZM2.528,4.832H63.744V2.52H2.528ZM52.867,40.449c2.606.163,3.026-.179,3.661-2.562A1.571,1.571,0,0,1,57.56,36.9c.388-.05.9.37,1.257.7.46.418.724,1.133,1.239,1.4,3.119,1.591,6.5,1.484,9.853,1.5.386-4.132-.483-7.6-4.136-9.78a8.1,8.1,0,0,0-9.019.156c-3.486,2.229-4.266,5.639-3.888,9.582m2.4,2.625c0,1.637-.073,3.4.016,5.149A6.108,6.108,0,0,0,60.7,53.966a5.822,5.822,0,0,0,6.383-4.06,43.634,43.634,0,0,0,.594-6.9c-3.475-.243-6.646-.466-9.3-2.036l-3.114,2.1M33.119,47.422l-.382.056c.134.356.172.81.418,1.051.748.732,1.44,1.44,1.233,2.614A1.961,1.961,0,0,0,35.6,53.311l1.74-1.679-4.223-4.209m25.8,8.928c.094,1.635,1.654,2.1,2.4,3.185,2.327-1.868,2.585-2.239,2.355-3.185ZM34.528,70.256l.03-.515c-.472-.329-.95-.921-1.413-.909A1.664,1.664,0,0,0,32,69.923a.994.994,0,0,0,1.157,1.2c.487-.064.917-.565,1.372-.871M52.738,45.384V43.026H51.606c-.027,1-.278,2,1.131,2.359m18.427-2.433-1.09.09V45.4c1.334-.4,1.14-1.368,1.09-2.447" transform="translate(0 0)" fill="#fff"/>
        <path id="Path_716273" data-name="Path 716273" d="M80.065,53.437A13.505,13.505,0,1,1,93.548,67.023,13.508,13.508,0,0,1,80.065,53.437m22.129,6.987c2.548-3.569,3.171-7.24,1.541-11.123A10.815,10.815,0,0,0,94.8,42.549c0,3.418-.01,6.721.018,10.024a1.371,1.371,0,0,0,.416.826c2.258,2.3,4.536,4.587,6.957,7.026m-1.68,1.676c-1.93-1.889-3.862-3.594-5.562-5.506a5.137,5.137,0,0,0-4.567-1.885c-2.549.164-5.116.04-7.787.04.7,4.376,2.948,7.407,6.889,9,3.841,1.548,7.482.937,11.027-1.645M92.279,42.688c-4.729.131-9.405,4.806-9.546,9.543h9.546Z" transform="translate(-60.415 -30.197)" fill="#fff"/>
        <rect id="Rectangle_378060" data-name="Rectangle 378060" width="34.266" height="2.309" transform="translate(13.567 39.362)" fill="#fff"/>
        <rect id="Rectangle_378061" data-name="Rectangle 378061" width="18.257" height="2.31" transform="translate(8.692 44.237)" fill="#fff"/>
        <rect id="Rectangle_378062" data-name="Rectangle 378062" width="18.308" height="2.308" transform="translate(8.654 49.161)" fill="#fff"/>
        <rect id="Rectangle_378063" data-name="Rectangle 378063" width="9.671" height="2.311" transform="translate(38.118 44.249)" fill="#fff"/>
        <rect id="Rectangle_378064" data-name="Rectangle 378064" width="7.261" height="2.305" transform="translate(43.025 49.162)" fill="#fff"/>
        <rect id="Rectangle_378065" data-name="Rectangle 378065" width="2.352" height="2.292" transform="translate(8.646 39.35)" fill="#fff"/>
      </g>
    </g>
  </g>
</svg>
