<svg xmlns="http://www.w3.org/2000/svg" xmlns:xlink="http://www.w3.org/1999/xlink" width="125" height="125" viewBox="0 0 125 125">
  <defs>
    <clipPath id="clip-path">
      <rect id="Rectangle_378077" data-name="Rectangle 378077" width="81.66" height="81.685" fill="#fff"/>
    </clipPath>
  </defs>
  <g id="Group_1014543" data-name="Group 1014543" transform="translate(-738 -2146)">
    <circle id="Ellipse_4839" data-name="Ellipse 4839" cx="62.5" cy="62.5" r="62.5" transform="translate(738 2146)" fill="#0c5e46"/>
    <g id="Group_1072859" data-name="Group 1072859" transform="translate(757.319 2168.175)">
      <g id="Group_1072858" data-name="Group 1072858" clip-path="url(#clip-path)">
        <path id="Path_716274" data-name="Path 716274" d="M51.465,18.411h3.787V5.326h7.939c0-.863-.013-1.631,0-2.4A2.631,2.631,0,0,1,66.028.02q6.388-.04,12.776,0A2.6,2.6,0,0,1,81.631,2.8q.055,3.818,0,7.637a2.574,2.574,0,0,1-2.724,2.742q-6.454.051-12.908,0a2.6,2.6,0,0,1-2.8-2.805c-.023-.745,0-1.491,0-2.344H57.959V21.02H42.046c.116-.952.23-1.882.343-2.813l.381.047c-3.078-7.249-12.48-11.869-20.246-9.949C13.2,10.61,7.084,18.759,7.918,27.777A18.5,18.5,0,0,0,25.212,44.763c8.465.516,16.922-5.4,18.648-13.089L42.2,31.589V29.068H57.889V42.056h5.3c0-.769-.017-1.545,0-2.319A2.617,2.617,0,0,1,65.963,36.9q6.454-.046,12.908,0a2.6,2.6,0,0,1,2.763,2.84q.043,3.753,0,7.506a2.591,2.591,0,0,1-2.794,2.81q-6.388.045-12.776,0a2.637,2.637,0,0,1-2.868-2.874c-.018-.739,0-1.479,0-2.363H55.322V31.725H52.155c-2.363,9.747-8.294,16.408-17.886,19.8v8.991h7.783V55.375h5.174c.791-2.275,1.371-2.682,3.7-2.683q5.8,0,11.591,0c2.432,0,3.306.894,3.31,3.364,0,2.283.016,4.565,0,6.847a2.645,2.645,0,0,1-2.917,2.959q-6.322.032-12.644,0A2.629,2.629,0,0,1,47.388,63c-.027-1.618-.006-3.236-.006-4.943H44.795v5.126H34.3v5.241H57.891v5.264h5.3c0-.744-.013-1.513,0-2.282a2.63,2.63,0,0,1,2.839-2.9q6.388-.039,12.776,0a2.594,2.594,0,0,1,2.822,2.78q.054,3.818,0,7.637A2.573,2.573,0,0,1,78.9,81.661q-6.453.051-12.908,0a2.606,2.606,0,0,1-2.8-2.81c-.022-.745,0-1.49,0-2.381H55.319V71.211h-21.1c0,1.848,0,3.715,0,5.581,0,3.452-1.423,4.88-4.857,4.883q-2.963,0-5.927,0c-3.649,0-5.032-1.366-5.032-4.968,0-7.989-.014-15.977.019-23.966a1.456,1.456,0,0,0-1.155-1.664A26.32,26.32,0,0,1,20.938.59c13.347-2.621,25.583,4.423,30.3,17.278.061.164.137.322.231.542m-2.926.038A23.642,23.642,0,0,0,2.887,29.987,23.638,23.638,0,0,0,27.7,50.014c10.537-.59,21.52-9.991,21.5-18.308-2.334-.2-2.282-.18-3.125,1.9-3.16,7.8-8.847,12.518-17.24,13.612A20.991,20.991,0,0,1,5.748,21.8C7.794,12.783,14.855,6.547,24.356,5.369c8.264-1.025,16.968,3.8,20.806,11.671.561,1.15,1.175,1.592,2.363,1.416a7.678,7.678,0,0,1,1.015-.006M21.048,60.668c0,5.711-.01,11.322.009,16.933,0,1.046.671,1.437,1.654,1.434,2.327-.009,4.653.007,6.98-.006,1.474-.008,1.873-.4,1.878-1.873.011-3.467,0-6.935,0-10.4V60.668ZM65.933,10.439H78.924V2.707H65.933ZM65.892,47.33h13V39.6h-13ZM50.054,63.144H63.093v-7.7H50.054ZM65.924,78.932H78.931V71.2H65.924ZM21.043,57.868H31.481V52.322c-1.781.13-3.477.351-5.173.349-1.724,0-3.449-.224-5.224-.353-.013.277-.038.579-.039.88,0,1.526,0,3.052,0,4.67" transform="translate(-0.001 -0.001)" fill="#fff"/>
        <path id="Path_716275" data-name="Path 716275" d="M53.337,67.447H50.163V59.554h3.149l.161-.253-2.54-1.854,6.085-6.025,1.925,2.366.322-.214V50.4h7.9v3.119l.3.211L69.2,51.119l5.971,6.075L72.9,59.087l.25.369h3.186V67.41H72.987l2.374,2.167-5.942,5.884-1.856-2.242-.3.128v3.238H59.355V73.067l-2.51,2.372-5.657-5.658,2.4-1.909-.246-.426M61.924,53c.137,1.509-.2,2.668-1.537,3.332-1.537.763-2.565-.187-3.675-1.182L54.952,56.9c2.441,3.044,1.728,4.757-2.141,5.418v2.462c1.476-.051,2.7.221,3.338,1.673.672,1.518-.255,2.485-1.243,3.6l1.8,1.678c2.668-2.574,5.291-1.236,5.363,2.211h2.477c-.028-1.449.223-2.673,1.655-3.34,1.556-.725,2.534.325,3.469,1.048l1.95-1.626c-1.054-1.119-1.9-2.1-1.234-3.616s2.022-1.6,3.348-1.7V62.275c-3.719-.11-4.656-2.9-2.263-5.305l-1.614-1.858c-1.147,1.015-2.113,1.925-3.636,1.258-1.5-.657-1.671-1.975-1.7-3.368Z" transform="translate(-36.953 -37.126)" fill="#fff"/>
        <path id="Path_716276" data-name="Path 716276" d="M181.211,77.93h-21V75.318h21c0-.908-.024-1.724,0-2.539a2.6,2.6,0,0,1,2.728-2.742q6.521-.049,13.042,0a2.552,2.552,0,0,1,2.659,2.671q.067,3.884,0,7.77a2.574,2.574,0,0,1-2.757,2.71q-6.455.046-12.91,0a2.615,2.615,0,0,1-2.766-2.841c-.02-.742,0-1.485,0-2.418m15.716-5.163h-13V80.5h13Z" transform="translate(-118.02 -51.575)" fill="#fff"/>
        <rect id="Rectangle_378067" data-name="Rectangle 378067" width="2.528" height="2.462" transform="translate(68.508 5.357)" fill="#fff"/>
        <rect id="Rectangle_378068" data-name="Rectangle 378068" width="2.463" height="2.527" transform="translate(73.831 5.327)" fill="#fff"/>
        <rect id="Rectangle_378069" data-name="Rectangle 378069" width="2.481" height="2.486" transform="translate(68.561 42.245)" fill="#fff"/>
        <rect id="Rectangle_378070" data-name="Rectangle 378070" width="2.476" height="2.48" transform="translate(73.801 42.262)" fill="#fff"/>
        <rect id="Rectangle_378071" data-name="Rectangle 378071" width="2.523" height="2.452" transform="translate(52.746 58.043)" fill="#fff"/>
        <rect id="Rectangle_378072" data-name="Rectangle 378072" width="2.509" height="2.485" transform="translate(57.976 58.05)" fill="#fff"/>
        <rect id="Rectangle_378073" data-name="Rectangle 378073" width="2.481" height="2.486" transform="translate(68.52 73.83)" fill="#fff"/>
        <rect id="Rectangle_378074" data-name="Rectangle 378074" width="2.481" height="2.486" transform="translate(73.789 73.83)" fill="#fff"/>
        <path id="Path_716277" data-name="Path 716277" d="M85.048,90.607a5.269,5.269,0,1,1,5.38-5.156,5.289,5.289,0,0,1-5.38,5.156m2.734-5.314a2.623,2.623,0,1,0-2.544,2.669,2.663,2.663,0,0,0,2.544-2.669" transform="translate(-58.852 -58.986)" fill="#fff"/>
        <rect id="Rectangle_378075" data-name="Rectangle 378075" width="2.528" height="2.462" transform="translate(68.526 23.818)" fill="#fff"/>
        <rect id="Rectangle_378076" data-name="Rectangle 378076" width="2.487" height="2.481" transform="translate(73.819 23.777)" fill="#fff"/>
      </g>
    </g>
  </g>
</svg>
