<svg xmlns="http://www.w3.org/2000/svg" xmlns:xlink="http://www.w3.org/1999/xlink" width="125" height="125" viewBox="0 0 125 125">
  <defs>
    <clipPath id="clip-path">
      <rect id="Rectangle_378078" data-name="Rectangle 378078" width="93.351" height="90.413" fill="#fff"/>
    </clipPath>
  </defs>
  <g id="Group_1014544" data-name="Group 1014544" transform="translate(-1089 -2146)">
    <circle id="Ellipse_4840" data-name="Ellipse 4840" cx="62.5" cy="62.5" r="62.5" transform="translate(1089 2146)" fill="#0c5e46"/>
    <g id="Group_1072861" data-name="Group 1072861" transform="translate(1100 2161.72)">
      <g id="Group_1072860" data-name="Group 1072860" clip-path="url(#clip-path)">
        <path id="Path_716278" data-name="Path 716278" d="M61.608,50.426c2.52,2.721,4.876,5.305,7.3,7.826a1.666,1.666,0,0,0,1.374.25A4.361,4.361,0,0,1,74.7,59.66Q83.28,67.972,91.845,76.3a4.3,4.3,0,0,1,.08,6.468q-2.951,3.124-6,6.159a4.291,4.291,0,0,1-6.458.039q-8.493-8.2-16.951-16.427a4.484,4.484,0,0,1-1.188-5.3,1.377,1.377,0,0,0-.2-1.211c-2.333-2.328-4.72-4.6-7.154-6.949-8.112,6.2-17.167,8.562-27.151,6.651A32.4,32.4,0,0,1,6.873,53.355a33.18,33.18,0,1,1,54.735-2.93m1.844-17.194A30.261,30.261,0,1,0,33.2,63.438,30.321,30.321,0,0,0,63.451,33.232M71.59,61.1a8.134,8.134,0,0,0-1.335.891c-1.915,1.928-3.784,3.9-5.693,5.836a1.615,1.615,0,0,0,0,2.631Q72.981,78.6,81.388,86.77a1.6,1.6,0,0,0,2.622-.034q2.817-2.946,5.675-5.853a1.6,1.6,0,0,0,0-2.624Q81.259,70.11,72.851,61.946A9.075,9.075,0,0,0,71.59,61.1m-11.806-7.94-3.2,3.607,6.8,7.522,3.69-3.185-7.287-7.945" transform="translate(0 0)" fill="#fff"/>
        <path id="Path_716279" data-name="Path 716279" d="M24.788,50.745A25.97,25.97,0,1,1,50.71,76.689,25.937,25.937,0,0,1,24.788,50.745M50.761,27.681A23.04,23.04,0,1,0,73.8,50.758,23,23,0,0,0,50.761,27.681" transform="translate(-17.56 -17.534)" fill="#fff"/>
        <path id="Path_716280" data-name="Path 716280" d="M85.392,64.522a51.422,51.422,0,0,1,5.623,1.814,5.609,5.609,0,0,1,3.567,5.651c-.08,2.768,0,5.54-.024,8.309-.02,2.3-1.219,3.486-3.509,3.489q-9.767.015-19.535,0a3.235,3.235,0,0,1-3.559-3.509c-.035-2.429.1-4.865-.031-7.288-.255-4.812,2.559-6.56,5.961-7.576,1.058-.316,2.163-.476,3.439-.749a9.739,9.739,0,0,1-2.761-7.58,6.263,6.263,0,0,1,6.552-6.329c4.039-.042,6.728,2.362,6.958,6.252a9.731,9.731,0,0,1-2.682,7.515m6.241,16.263c0-2.924-.068-5.775.025-8.622a3.093,3.093,0,0,0-2.225-3.347,28.124,28.124,0,0,0-5.06-1.216,22.7,22.7,0,0,0-10.892,1.054c-1.233.441-2.45,1.167-2.511,2.561-.138,3.177-.044,6.364-.044,9.576H73.4c0-.591,0-1.112,0-1.632.006-1.7-.089-3.408.081-5.09a1.9,1.9,0,0,1,1.282-1.333c.489-.017,1.118.67,1.471,1.194.23.342.092.941.094,1.425.007,1.782,0,3.565,0,5.418h9.967c0-2.212,0-4.336,0-6.46,0-.946.355-1.631,1.4-1.666,1.13-.038,1.52.667,1.524,1.683,0,.437,0,.874,0,1.311v5.145ZM77.48,57.789l-.394.185a26.933,26.933,0,0,0,2.05,4.173A3.3,3.3,0,0,0,81.527,63.2c1.632.012,2.977-1.734,3.52-4.132.458-2.02-.141-4.034-1.461-4.857a2.7,2.7,0,0,0-.92-.424c-2.969-.5-5.295.408-5.186,4" transform="translate(-48.107 -35.954)" fill="#fff"/>
      </g>
    </g>
  </g>
</svg>
