<svg xmlns="http://www.w3.org/2000/svg" xmlns:xlink="http://www.w3.org/1999/xlink" width="295" height="263.084" viewBox="0 0 295 263.084">
  <defs>
    <clipPath id="clip-path">
      <rect id="Rectangle_378084" data-name="Rectangle 378084" width="295" height="263.084" transform="translate(0 -10)" fill="none"/>
    </clipPath>
    <clipPath id="clip-path-2">
      <rect id="Rectangle_378052" data-name="Rectangle 378052" width="295" height="243.084" fill="none"/>
    </clipPath>
    <clipPath id="clip-path-3">
      <rect id="Rectangle_378051" data-name="Rectangle 378051" width="84.942" height="6.965" fill="none"/>
    </clipPath>
    <clipPath id="clip-path-4">
      <path id="Path_716248" data-name="Path 716248" d="M215.812,191.115l7.164,2.079,2.006-23.06-.806-7.562L227.4,138.6l6.436,22.522,11.582,32.081h7.079l-5.406-20.466-4.81-14.913-2.01-27.443-15.2-.983-8.77-.947Z" transform="translate(-215.812 -128.454)" fill="none"/>
    </clipPath>
    <linearGradient id="linear-gradient" x1="-6.312" y1="1.626" x2="-6.283" y2="1.626" gradientUnits="objectBoundingBox">
      <stop offset="0" stop-color="#0f2d47"/>
      <stop offset="1" stop-color="#0a2635"/>
    </linearGradient>
    <clipPath id="clip-path-6">
      <rect id="Rectangle_378054" data-name="Rectangle 378054" width="4.66" height="57.006" fill="none"/>
    </clipPath>
    <clipPath id="clip-path-7">
      <rect id="Rectangle_378056" data-name="Rectangle 378056" width="6.028" height="5.201" fill="none"/>
    </clipPath>
    <clipPath id="clip-path-8">
      <rect id="Rectangle_378057" data-name="Rectangle 378057" width="61.743" height="5.033" fill="none"/>
    </clipPath>
    <clipPath id="clip-path-9">
      <path id="Path_716272" data-name="Path 716272" d="M166.078,138.713l-14.221.919-1.881,25.152L148.2,178.893l-1.766,22.681h6.552l4.892-33.7L163.9,146.8l3.009,22.425-.752,7.075,1.877,25.275,6.7-1.947-.451-61.8Z" transform="translate(-146.433 -137.827)" fill="none"/>
    </clipPath>
    <linearGradient id="linear-gradient-2" x1="-5.551" y1="1.494" x2="-5.513" y2="1.494" xlink:href="#linear-gradient"/>
    <clipPath id="clip-path-11">
      <rect id="Rectangle_378060" data-name="Rectangle 378060" width="4.36" height="57.032" fill="none"/>
    </clipPath>
    <clipPath id="clip-path-12">
      <rect id="Rectangle_378061" data-name="Rectangle 378061" width="22.425" height="1.806" fill="none"/>
    </clipPath>
    <clipPath id="clip-path-13">
      <path id="Path_716280" data-name="Path 716280" d="M148.672,106.992s-5.278,11.426-6.236,17.438-.837,17.912-.837,17.912l5.325-.426s.393-10.412,1.748-15.478a19.346,19.346,0,0,1,3.839-7.725l.41,4.812q.01-.483.01-.971c0-6.233-.459-11.973-2.273-16.538Z" transform="translate(-141.594 -106.015)" fill="none"/>
    </clipPath>
    <linearGradient id="linear-gradient-3" x1="-13.254" y1="3.561" x2="-13.16" y2="3.561" gradientUnits="objectBoundingBox">
      <stop offset="0" stop-color="#aa6338"/>
      <stop offset="0.062" stop-color="#aa6338"/>
      <stop offset="1" stop-color="#c96f43"/>
    </linearGradient>
    <clipPath id="clip-path-16">
      <path id="Path_716283" data-name="Path 716283" d="M39.539,130.954c-.2,5.567-.178,16.876-.02,22.848.478,22.063,1.529,43.532,1.529,43.532l-1.419,2.594h5.718L49.891,153.8l1.132-13.455,1.683-.033L55.364,153.8l8.378,46.126h6.79l-2.747-2.844s-1.838-24.239-2.818-43.282c-.448-6.812-1.035-19.086-1.288-23.537Z" transform="translate(-39.394 -130.264)" fill="none"/>
    </clipPath>
    <linearGradient id="linear-gradient-4" x1="-1.353" y1="1.483" x2="-1.319" y2="1.483" xlink:href="#linear-gradient"/>
    <clipPath id="clip-path-18">
      <rect id="Rectangle_378067" data-name="Rectangle 378067" width="46.94" height="6.535" fill="none"/>
    </clipPath>
    <clipPath id="clip-path-19">
      <path id="Path_716302" data-name="Path 716302" d="M92.662,191.636l5.438.321,1.713-20.333,1.539-7.215.758-7.161,2.338,7.234,5.586,27.484h4.588l-1.167-18.41-1.607-13.415-1.3-24.687-9.853-.884-5.687-.853Z" transform="translate(-92.662 -133.716)" fill="none"/>
    </clipPath>
    <linearGradient id="linear-gradient-5" x1="-4.527" y1="1.71" x2="-4.478" y2="1.71" xlink:href="#linear-gradient"/>
    <clipPath id="clip-path-21">
      <path id="Path_716304" data-name="Path 716304" d="M111.679,197.955s-3.524.326-4.947.517a9.679,9.679,0,0,0-4.6,1.891h4.742l4.809-1.531v1.118h2.267v-2.958Z" transform="translate(-102.128 -196.993)" fill="none"/>
    </clipPath>
    <linearGradient id="linear-gradient-6" x1="-9.271" y1="9.419" x2="-9.18" y2="9.419" xlink:href="#linear-gradient"/>
    <clipPath id="clip-path-23">
      <path id="Path_716306" data-name="Path 716306" d="M95.775,197.68s-3.524.325-4.946.516a9.667,9.667,0,0,0-4.6,1.892h4.741l4.809-1.532v1.118h2.268v-2.957Z" transform="translate(-86.225 -196.718)" fill="none"/>
    </clipPath>
    <linearGradient id="linear-gradient-7" x1="-7.827" y1="9.506" x2="-7.736" y2="9.506" xlink:href="#linear-gradient"/>
  </defs>
  <g id="Group_1072915" data-name="Group 1072915" transform="translate(0 10)">
    <g id="Group_1072914" data-name="Group 1072914" clip-path="url(#clip-path)">
      <g id="Group_1072864" data-name="Group 1072864">
        <g id="Group_1072863" data-name="Group 1072863" clip-path="url(#clip-path-2)">
          <path id="Path_716215" data-name="Path 716215" d="M217.143,85.64c-59.54-31.567-56.43-94.1-134.4-64.921C28.724,40.934-7.077,107.792,1.184,165.039c6.231,43.186,26.79,75.2,65.17,64.836s71,2.217,100.5,10.335c37.12,10.217,94.65-21.718,104.007-65.548s-13.029-67.449-53.718-89.022" transform="translate(0 0.958)" fill="#e1efe3"/>
          <path id="Path_716216" data-name="Path 716216" d="M198.745,6.931V9.839h.629V6.931a.32.32,0,1,0-.629,0" transform="translate(14.47 0.477)" fill="#ed971b"/>
          <path id="Path_716217" data-name="Path 716217" d="M198.745,18.938a.32.32,0,1,0,.629,0V16.2h-.629Z" transform="translate(14.47 1.18)" fill="#ed971b"/>
          <path id="Path_716218" data-name="Path 716218" d="M192.76,12.849a.351.351,0,0,0,.38.314h2.907v-.629H193.14a.351.351,0,0,0-.38.314" transform="translate(14.034 0.913)" fill="#ed971b"/>
          <path id="Path_716219" data-name="Path 716219" d="M205.146,12.535h-2.732v.629h2.732a.32.32,0,1,0,0-.629" transform="translate(14.737 0.913)" fill="#ed971b"/>
          <path id="Path_716220" data-name="Path 716220" d="M194.651,8.886l2.057,2.057.444-.445-2.057-2.055a.32.32,0,1,0-.444.444" transform="translate(14.162 0.605)" fill="#ed971b"/>
          <path id="Path_716221" data-name="Path 716221" d="M203.15,17.385a.32.32,0,1,0,.444-.444l-1.932-1.933-.444.445Z" transform="translate(14.65 1.093)" fill="#ed971b"/>
          <path id="Path_716222" data-name="Path 716222" d="M194.6,17.44a.352.352,0,0,0,.49-.046l2.057-2.057-.444-.444-2.057,2.057a.352.352,0,0,0-.046.49" transform="translate(14.162 1.084)" fill="#ed971b"/>
          <path id="Path_716223" data-name="Path 716223" d="M203.15,8.441l-1.932,1.932.444.445,1.932-1.933a.32.32,0,1,0-.444-.444" transform="translate(14.65 0.605)" fill="#ed971b"/>
          <path id="Path_716224" data-name="Path 716224" d="M68.175,67.04v2.4h.519v-2.4a.264.264,0,1,0-.519,0" transform="translate(4.964 4.858)" fill="#56989c"/>
          <path id="Path_716225" data-name="Path 716225" d="M68.175,76.965a.264.264,0,1,0,.519,0V74.706h-.519Z" transform="translate(4.964 5.439)" fill="#56989c"/>
          <path id="Path_716226" data-name="Path 716226" d="M63.229,71.934a.29.29,0,0,0,.313.26h2.4v-.519h-2.4a.29.29,0,0,0-.313.26" transform="translate(4.603 5.218)" fill="#56989c"/>
          <path id="Path_716227" data-name="Path 716227" d="M73.467,71.673H71.208v.519h2.259a.264.264,0,1,0,0-.519" transform="translate(5.184 5.218)" fill="#56989c"/>
          <path id="Path_716228" data-name="Path 716228" d="M64.791,68.657l1.7,1.7.368-.367-1.7-1.7a.264.264,0,1,0-.367.367" transform="translate(4.71 4.964)" fill="#56989c"/>
          <path id="Path_716229" data-name="Path 716229" d="M71.817,75.682a.264.264,0,1,0,.367-.367l-1.6-1.6-.368.367Z" transform="translate(5.112 5.367)" fill="#56989c"/>
          <path id="Path_716230" data-name="Path 716230" d="M64.754,75.728a.29.29,0,0,0,.406-.038l1.7-1.7-.367-.367-1.7,1.7a.29.29,0,0,0-.038.406" transform="translate(4.71 5.36)" fill="#56989c"/>
          <path id="Path_716231" data-name="Path 716231" d="M71.817,68.289l-1.6,1.6.368.367,1.6-1.6a.264.264,0,1,0-.367-.367" transform="translate(5.112 4.964)" fill="#56989c"/>
          <path id="Path_716232" data-name="Path 716232" d="M257.539,44.243h-1.558V43.219h1.558V41.408h.956v1.811h1.559v1.023h-1.559v1.811h-.956Z" transform="translate(18.637 3.015)" fill="#fcfdff"/>
          <path id="Path_716233" data-name="Path 716233" d="M15,84.047H13.445V83.024H15V81.213h.956v1.811h1.559v1.023H15.958v1.811H15Z" transform="translate(0.979 5.913)" fill="#fcfdff"/>
          <path id="Path_716234" data-name="Path 716234" d="M132.552,87.482h-1.844V86.271h1.844V84.127h1.132v2.143h1.844v1.211h-1.844v2.143h-1.132Z" transform="translate(9.516 6.125)" fill="#d68047"/>
          <path id="Path_716235" data-name="Path 716235" d="M254.34,79.069h-2.464V77.45h2.464V74.587h1.512V77.45h2.464v1.619h-2.464v2.864H254.34Z" transform="translate(18.338 5.43)" fill="#fcfdff"/>
          <path id="Path_716236" data-name="Path 716236" d="M42.9,44.632H40.44V43.013H42.9V40.15h1.512v2.863H46.88v1.619H44.416V47.5H42.9Z" transform="translate(2.944 2.923)" fill="#fcfdff"/>
          <path id="Path_716237" data-name="Path 716237" d="M275.477,124.91a4.639,4.639,0,0,0,.083-1.126.166.166,0,0,0-.1-.143l-.809-.354-.01-.05a3.8,3.8,0,0,0-.276-.817l-.023-.047.433-.765a.166.166,0,0,0-.006-.174,4.507,4.507,0,0,0-.345-.448,4.734,4.734,0,0,0-.395-.4.162.162,0,0,0-.171-.031l-.819.32-.045-.029a3.833,3.833,0,0,0-.771-.384l-.047-.018-.237-.846a.162.162,0,0,0-.128-.117,4.692,4.692,0,0,0-1.129-.079.165.165,0,0,0-.143.1l-.352.8-.05.011a3.817,3.817,0,0,0-.82.275l-.046.023-.764-.433a.166.166,0,0,0-.174.008,5.042,5.042,0,0,0-.45.342,5.108,5.108,0,0,0-.405.4.164.164,0,0,0-.03.169l.32.82-.028.044a3.821,3.821,0,0,0-.386.772l-.017.048-.85.239a.164.164,0,0,0-.116.127,4.844,4.844,0,0,0-.079,1.128.162.162,0,0,0,.1.144l.809.352.01.05a4.145,4.145,0,0,0,.272.816l.023.047-.432.766a.166.166,0,0,0,.008.174,5.5,5.5,0,0,0,.343.45,4.811,4.811,0,0,0,.4.4.161.161,0,0,0,.171.031l.819-.321.043.028a3.886,3.886,0,0,0,.77.385l.048.018.239.849a.166.166,0,0,0,.129.118,4.861,4.861,0,0,0,1.124.077.168.168,0,0,0,.143-.1l.356-.807.052-.011a3.864,3.864,0,0,0,.819-.274l.046-.023.767.43a.162.162,0,0,0,.173-.008,4.984,4.984,0,0,0,.452-.342,5.161,5.161,0,0,0,.4-.4.163.163,0,0,0,.03-.172l-.324-.815.03-.045a3.719,3.719,0,0,0,.385-.773l.018-.049.846-.238a.161.161,0,0,0,.116-.126m-.292-.227-.01.064-.834.234a.163.163,0,0,0-.113.108,3.452,3.452,0,0,1-.466.935.165.165,0,0,0-.02.156l.319.8-.045.047c-.09.093-.176.175-.261.248s-.186.153-.282.224l-.053.039-.756-.424a.159.159,0,0,0-.153,0,3.5,3.5,0,0,1-.989.33.164.164,0,0,0-.123.1l-.35.794h-.109a4.484,4.484,0,0,1-.674-.05l-.065-.01-.233-.834a.163.163,0,0,0-.106-.112,3.538,3.538,0,0,1-.933-.467.167.167,0,0,0-.156-.018l-.8.315-.047-.045c-.087-.084-.171-.171-.248-.26s-.148-.178-.225-.283l-.039-.053.425-.753a.161.161,0,0,0,0-.154,3.647,3.647,0,0,1-.33-.99.159.159,0,0,0-.1-.12l-.793-.347v-.065a4.291,4.291,0,0,1,.05-.719l.01-.064.834-.235a.165.165,0,0,0,.111-.107,3.594,3.594,0,0,1,.467-.934.165.165,0,0,0,.018-.154l-.313-.8.045-.047c.083-.086.171-.17.26-.249s.191-.157.284-.224l.054-.039.75.425a.163.163,0,0,0,.157,0,3.443,3.443,0,0,1,.99-.331.163.163,0,0,0,.123-.1l.344-.792h.066a4.117,4.117,0,0,1,.719.049l.064.011.234.833a.162.162,0,0,0,.107.113,3.483,3.483,0,0,1,.933.465.16.16,0,0,0,.153.019l.8-.315.046.046c.093.089.175.175.25.261s.148.179.222.281l.039.053-.426.752a.16.16,0,0,0,0,.156,3.424,3.424,0,0,1,.33.989.17.17,0,0,0,.1.122l.794.348v.065a4.249,4.249,0,0,1-.05.717" transform="translate(19.387 8.692)" fill="#f2f6f7"/>
          <path id="Path_716238" data-name="Path 716238" d="M270.939,128.714a4.975,4.975,0,0,1-.9-.084.214.214,0,0,1-.165-.151l-.232-.826-.026-.01a3.915,3.915,0,0,1-.779-.389l-.024-.015-.8.312a.208.208,0,0,1-.219-.041,4.914,4.914,0,0,1-.4-.4,5.177,5.177,0,0,1-.347-.454.212.212,0,0,1-.01-.223l.419-.747-.012-.025a4.074,4.074,0,0,1-.276-.825l-.005-.028-.786-.342a.21.21,0,0,1-.127-.185,4.755,4.755,0,0,1,.08-1.138.212.212,0,0,1,.15-.164l.825-.232.01-.027a3.931,3.931,0,0,1,.389-.781l.015-.024-.311-.8a.211.211,0,0,1,.04-.218,5.2,5.2,0,0,1,.409-.4,5.076,5.076,0,0,1,.456-.347.21.21,0,0,1,.222-.009l.742.421.026-.012a3.886,3.886,0,0,1,.829-.278l.027-.005.342-.782a.211.211,0,0,1,.182-.128,4.672,4.672,0,0,1,1.141.08.209.209,0,0,1,.163.15l.23.824.027.01a3.838,3.838,0,0,1,.78.389l.024.015.8-.311a.207.207,0,0,1,.22.041,4.7,4.7,0,0,1,.4.406,4.956,4.956,0,0,1,.348.454.21.21,0,0,1,.01.222l-.422.745.012.026a3.8,3.8,0,0,1,.278.826l.006.028.785.343a.212.212,0,0,1,.127.185,4.778,4.778,0,0,1-.083,1.137.211.211,0,0,1-.15.162l-.824.232-.009.026a3.8,3.8,0,0,1-.392.784l-.015.024.315.794a.214.214,0,0,1-.041.22,5.093,5.093,0,0,1-.407.4,5.273,5.273,0,0,1-.455.347.212.212,0,0,1-.223.009l-.746-.418-.026.012a3.819,3.819,0,0,1-.828.278l-.027.005-.348.785a.21.21,0,0,1-.182.126c-.077,0-.156.005-.233.005m-2.118-1.581.064.042a3.811,3.811,0,0,0,.76.381l.072.026.245.872a.116.116,0,0,0,.091.084,4.78,4.78,0,0,0,1.114.077.117.117,0,0,0,.1-.07l.367-.829.074-.015a3.765,3.765,0,0,0,.808-.27l.07-.032.788.442a.117.117,0,0,0,.122-.005,4.947,4.947,0,0,0,.447-.34,5.248,5.248,0,0,0,.4-.394.118.118,0,0,0,.023-.122l-.334-.838.042-.065a3.683,3.683,0,0,0,.382-.764l.026-.073.87-.244a.118.118,0,0,0,.084-.09,4.7,4.7,0,0,0,.08-1.115.115.115,0,0,0-.07-.1l-.83-.364-.016-.074a3.739,3.739,0,0,0-.271-.807l-.032-.07.445-.786a.114.114,0,0,0-.005-.123,4.583,4.583,0,0,0-.34-.444,4.71,4.71,0,0,0-.394-.4.116.116,0,0,0-.121-.023l-.841.329-.064-.042a3.76,3.76,0,0,0-.761-.38l-.072-.026-.244-.87a.116.116,0,0,0-.09-.084,4.588,4.588,0,0,0-1.118-.078.116.116,0,0,0-.1.071l-.36.826-.075.016a3.719,3.719,0,0,0-.809.271l-.07.032-.784-.444a.116.116,0,0,0-.123,0,4.9,4.9,0,0,0-.446.339,5,5,0,0,0-.4.4.115.115,0,0,0-.023.12l.328.842-.041.063a3.845,3.845,0,0,0-.381.764l-.026.071-.871.246a.117.117,0,0,0-.084.09,4.748,4.748,0,0,0-.079,1.117.116.116,0,0,0,.071.1l.83.363.016.074a3.953,3.953,0,0,0,.269.806l.031.07-.443.787a.117.117,0,0,0,.006.123,4.811,4.811,0,0,0,.34.446,4.7,4.7,0,0,0,.393.4.115.115,0,0,0,.121.023Zm2.121,1.253a4.688,4.688,0,0,1-.679-.05l-.1-.014-.242-.864a.117.117,0,0,0-.076-.08,3.537,3.537,0,0,1-.944-.472.116.116,0,0,0-.111-.013l-.832.326-.069-.066c-.088-.084-.172-.172-.251-.262s-.149-.181-.226-.288l-.056-.076.438-.78a.115.115,0,0,0,0-.111,3.646,3.646,0,0,1-.334-1,.117.117,0,0,0-.069-.086l-.822-.358v-.1a4.492,4.492,0,0,1,.052-.726l.014-.094.863-.244a.117.117,0,0,0,.08-.076,3.588,3.588,0,0,1,.472-.947.12.12,0,0,0,.013-.109l-.325-.834.067-.069c.084-.087.173-.172.263-.251s.194-.159.288-.227l.077-.056.778.44a.118.118,0,0,0,.112,0,3.5,3.5,0,0,1,1-.336.114.114,0,0,0,.087-.069l.357-.82h.1a4.114,4.114,0,0,1,.727.05l.094.015.24.861a.116.116,0,0,0,.077.08,3.558,3.558,0,0,1,.945.471.117.117,0,0,0,.111.014l.832-.326.069.067c.094.091.176.178.251.264s.15.18.226.284l.057.077-.441.779a.115.115,0,0,0,0,.111,3.518,3.518,0,0,1,.337,1,.118.118,0,0,0,.069.088l.822.359v.1a4.443,4.443,0,0,1-.052.724l-.015.094-.863.242a.113.113,0,0,0-.079.076,3.5,3.5,0,0,1-.473.949.117.117,0,0,0-.014.111l.33.83-.067.069c-.093.1-.179.178-.263.251s-.188.154-.288.226l-.077.057-.781-.438a.113.113,0,0,0-.111,0,3.512,3.512,0,0,1-1,.335.115.115,0,0,0-.087.068l-.364.822Zm-.7-.149.035.005a4.489,4.489,0,0,0,.665.049h.079l.338-.766a.216.216,0,0,1,.158-.123,3.435,3.435,0,0,0,.975-.325.206.206,0,0,1,.2,0l.728.408.028-.02c.1-.071.192-.145.281-.221s.166-.152.258-.246l.024-.025-.307-.775a.21.21,0,0,1,.024-.2,3.383,3.383,0,0,0,.46-.924.211.211,0,0,1,.145-.138l.8-.226.005-.034a4.366,4.366,0,0,0,.05-.709v-.035l-.765-.335a.215.215,0,0,1-.124-.158,3.44,3.44,0,0,0-.327-.975.209.209,0,0,1,0-.2l.41-.726-.02-.028c-.074-.1-.147-.193-.221-.278s-.153-.169-.246-.259l-.026-.025-.776.3a.209.209,0,0,1-.2-.025,3.471,3.471,0,0,0-.92-.459.209.209,0,0,1-.138-.144l-.225-.8-.034-.005a4.125,4.125,0,0,0-.711-.049h-.035l-.333.763a.215.215,0,0,1-.158.124,3.4,3.4,0,0,0-.977.326.208.208,0,0,1-.2,0l-.725-.41-.028.02c-.092.067-.185.139-.282.222s-.174.161-.256.246l-.025.026.3.777a.217.217,0,0,1-.024.2,3.53,3.53,0,0,0-.46.922.213.213,0,0,1-.144.138l-.8.226-.005.035a4.544,4.544,0,0,0-.049.71v.035l.766.334a.21.21,0,0,1,.123.156,3.553,3.553,0,0,0,.326.977.21.21,0,0,1,0,.2l-.409.727.02.028c.076.1.148.2.221.281s.16.173.246.255l.025.025.777-.3a.208.208,0,0,1,.2.025,3.5,3.5,0,0,0,.92.459.214.214,0,0,1,.137.144Z" transform="translate(19.384 8.689)" fill="#f2f6f7"/>
          <path id="Path_716239" data-name="Path 716239" d="M270.714,125.3a1.482,1.482,0,1,1,1.482-1.482,1.484,1.484,0,0,1-1.482,1.482m0-2.731a1.25,1.25,0,1,0,1.25,1.25,1.252,1.252,0,0,0-1.25-1.25" transform="translate(19.602 8.906)" fill="#f2f6f7"/>
          <path id="Path_716240" data-name="Path 716240" d="M270.72,125.4a1.576,1.576,0,1,1,1.576-1.576,1.578,1.578,0,0,1-1.576,1.576m0-2.963a1.387,1.387,0,1,0,1.387,1.387,1.389,1.389,0,0,0-1.387-1.387m0,2.731a1.344,1.344,0,1,1,1.344-1.344,1.346,1.346,0,0,1-1.344,1.344m0-2.5a1.155,1.155,0,1,0,1.155,1.155,1.157,1.157,0,0,0-1.155-1.155" transform="translate(19.595 8.9)" fill="#f2f6f7"/>
          <path id="Path_716241" data-name="Path 716241" d="M243.579,181.087l-.823-3.4a8.45,8.45,0,0,0,1.144-.2,8.682,8.682,0,0,0,1.75-.651l.824,3.409a8.73,8.73,0,0,1-2.894.846" transform="translate(17.674 12.874)" fill="#6eb4c7"/>
          <path id="Path_716242" data-name="Path 716242" d="M216.723,142.329l.41-1.63c.842.268,1.7.511,2.575.72.543.131,1.088.247,1.633.352l-.409,1.626q-.819-.159-1.634-.354-1.305-.314-2.575-.714" transform="translate(15.779 10.244)" fill="#b4d6df"/>
          <g id="Group_1072862" data-name="Group 1072862" transform="translate(205.374 202.966)" opacity="0.6">
            <g id="Group_1072861" data-name="Group 1072861">
              <g id="Group_1072860" data-name="Group 1072860" clip-path="url(#clip-path-3)">
                <path id="Path_716243" data-name="Path 716243" d="M191.436,192.674c0,1.924,19.014,3.482,42.47,3.482s42.471-1.559,42.471-3.482-19.014-3.482-42.471-3.482-42.47,1.559-42.47,3.482" transform="translate(-191.436 -189.192)" fill="#81aebb"/>
              </g>
            </g>
          </g>
          <path id="Path_716244" data-name="Path 716244" d="M231.817,85.66s2.992-3.8,2.117-8.162c-.462-2.3-6.2-4-8.167-4s-1.71,2.668-1.71,2.668a63.458,63.458,0,0,0-3.924,5.516l1.845,1.291s-2.163,3.926-.962,4.52a24.452,24.452,0,0,0,4.164.64l.493,5.808,5.953-1.85Z" transform="translate(16.027 5.351)" fill="#e0beab"/>
          <path id="Path_716245" data-name="Path 716245" d="M228.288,76.256c.126-1.375-2.838-.427-4.289-.863-.923-.276-.031-1.845,1.126-2.369,2.15-.97,5.251,1.147,5.251,1.147s3.165,1.5,3.665,3.585-1.251,7.63-1.251,7.63,1.177-.579-.956-1.1-1.131-2.917-2.276-3.034-2.917,1.973-2.917,1.973l-1.355-.323s2.876-5.267,3-6.644" transform="translate(16.28 5.298)" fill="#204a59"/>
          <path id="Path_716246" data-name="Path 716246" d="M229.883,83.378l-2.506,4.341-2.29.472-.25-.781,2.4-.249,2.373-3.783Z" transform="translate(16.369 6.07)" fill="#cdaf97"/>
          <path id="Path_716247" data-name="Path 716247" d="M221.095,80.6l2.189-3.672-3.151,4.506.3.306Z" transform="translate(16.027 5.6)" fill="#cdaf97"/>
        </g>
      </g>
      <g id="Group_1072866" data-name="Group 1072866" transform="translate(231.524 137.806)">
        <g id="Group_1072865" data-name="Group 1072865" clip-path="url(#clip-path-4)">
          <rect id="Rectangle_378053" data-name="Rectangle 378053" width="36.68" height="64.752" fill="url(#linear-gradient)"/>
        </g>
      </g>
      <g id="Group_1072877" data-name="Group 1072877">
        <g id="Group_1072876" data-name="Group 1072876" clip-path="url(#clip-path-2)">
          <path id="Path_716249" data-name="Path 716249" d="M195.253,99.8l12.2,4.452s.512,1.287,1.477-.1c.609-.875,5.324-6.033,8.717-9.716l3.069-3.674.35-.026.09-.1-.01.092,4.2-.307,2.089,17.966L235.8,89.327l9.893,7.1,2.662,4.671.644,10.135-7.166-5.694-.966,11.915,1.368,16.665-25.74-1.689,2.892-26.692-2.111,1.362-8.986,7.189s-1.609,0-2.135-.7-12.908-7.339-12.908-7.339Z" transform="translate(14.069 6.503)" fill="#729edb"/>
          <g id="Group_1072869" data-name="Group 1072869" transform="translate(238.447 144.817)" opacity="0.6">
            <g id="Group_1072868" data-name="Group 1072868">
              <g id="Group_1072867" data-name="Group 1072867" clip-path="url(#clip-path-6)">
                <path id="Path_716250" data-name="Path 716250" d="M223.064,160.81l.675,8.447L222.265,192l2.282-23.147-.747-7.957,3.125-22.765-.885-3.137Z" transform="translate(-222.265 -134.989)" fill="#0d0e20"/>
              </g>
            </g>
          </g>
          <path id="Path_716251" data-name="Path 716251" d="M238.611,163l-2.413-2.574.179-.168,2.413,2.574Z" transform="translate(17.196 11.667)" fill="#3a2e65"/>
          <path id="Path_716252" data-name="Path 716252" d="M205.315,192.624h13.836l1.045-.966.885.966H223.5v-4.435l-6.879-.916-3.422,3.061-7.883,1.716Z" transform="translate(14.948 13.634)" fill="#18142d"/>
          <path id="Path_716253" data-name="Path 716253" d="M243.7,193.075l6.895-.338.183-1.833-.966-2.092-6.113.241Z" transform="translate(17.743 13.747)" fill="#18142d"/>
          <path id="Path_716254" data-name="Path 716254" d="M225.253,108.384l8.122-18.822-1.028-.144-5.488,2.959-2.33-2.442-1.365.483Z" transform="translate(16.248 6.51)" fill="#fff"/>
          <path id="Path_716255" data-name="Path 716255" d="M226.288,94.595l-1.894,6.935.769,6.66,2.9-6.6-1.048-6.833,1.048-1.126L226.853,92.1l-1.29,1.447Z" transform="translate(16.337 6.705)" fill="#ed971b"/>
          <path id="Path_716256" data-name="Path 716256" d="M235.405,93.027l-10.294,15.364,8.363-19.064,1.69,2.252-1.574.077Z" transform="translate(16.389 6.503)" fill="#729edb"/>
          <path id="Path_716257" data-name="Path 716257" d="M220.761,91.585l4.668,16.731L223.34,90.349Z" transform="translate(16.073 6.578)" fill="#729edb"/>
          <path id="Path_716258" data-name="Path 716258" d="M240.3,131.434l-12.307-.483-11.5-1.448,23.971,1.046Z" transform="translate(15.761 9.428)" fill="#39667c"/>
          <path id="Path_716259" data-name="Path 716259" d="M224.814,132.08l-.206-.008.723-23.842-4.663-16.475.2-.056,4.673,16.505v.016Z" transform="translate(16.066 6.676)" fill="#729edb"/>
          <path id="Path_716260" data-name="Path 716260" d="M238.661,104.759l-.245-.023.483-5.148.245.023Z" transform="translate(17.358 7.251)" fill="#352d62"/>
          <rect id="Rectangle_378055" data-name="Rectangle 378055" width="7.534" height="0.245" transform="translate(233.33 112.23) rotate(-85.487)" fill="#325869"/>
          <path id="Path_716261" data-name="Path 716261" d="M190.951,96.2l-.911.879,1.249,1.91-2.8-.47-1.756,1.327.072,1.114,2.41,1.465,2.591.85,2.31.268,1.395-2.661Z" transform="translate(13.595 7.004)" fill="#e0beab"/>
          <path id="Path_716262" data-name="Path 716262" d="M240.912,163.755l-3.771-3.856.176-.172,3.771,3.856Z" transform="translate(17.265 11.629)" fill="#3a2e65"/>
          <path id="Path_716263" data-name="Path 716263" d="M219.491,161.8l-2.413-2.574.179-.168,2.413,2.574Z" transform="translate(15.804 11.58)" fill="#3a2e65"/>
          <path id="Path_716264" data-name="Path 716264" d="M218.606,103.348l-.08,1.151-11.261,8.768Z" transform="translate(15.09 7.524)" fill="#729edb"/>
          <g id="Group_1072872" data-name="Group 1072872" transform="translate(255.978 111.114)" opacity="0.6">
            <g id="Group_1072871" data-name="Group 1072871">
              <g id="Group_1072870" data-name="Group 1072870" clip-path="url(#clip-path-7)">
                <path id="Path_716265" data-name="Path 716265" d="M243.915,108.774h0l-5.309-4.075.241-1.126,5.788,5.175Z" transform="translate(-238.606 -103.573)" fill="#18142d"/>
              </g>
            </g>
          </g>
          <path id="Path_716266" data-name="Path 716266" d="M244.634,114.806l-6.827-7.041,1.332-14.093,3.718,2.669,8.827,16.4-1.544,20.438-5.483-1.1Z" transform="translate(17.314 6.82)" fill="#729edb"/>
          <path id="Path_716267" data-name="Path 716267" d="M242.686,135.031l1.059.566,1.426-1.568.325,2.543-1.9,3.982,1.23.045,2.372-2.843,1.711-2.806.084-2.461-.379-2.068-2.838-.532Z" transform="translate(17.669 9.457)" fill="#e0beab"/>
          <g id="Group_1072875" data-name="Group 1072875" transform="translate(142.634 212.564)" opacity="0.6">
            <g id="Group_1072874" data-name="Group 1072874">
              <g id="Group_1072873" data-name="Group 1072873" clip-path="url(#clip-path-8)">
                <path id="Path_716268" data-name="Path 716268" d="M194.7,200.655c0,1.389-13.822,2.517-30.872,2.517s-30.871-1.128-30.871-2.517,13.822-2.517,30.871-2.517,30.872,1.128,30.872,2.517" transform="translate(-132.954 -198.138)" fill="#81aebb"/>
              </g>
            </g>
          </g>
          <path id="Path_716269" data-name="Path 716269" d="M158.755,97.966s-2.992-3.817-2.117-8.2c.461-2.313,6.2-4.023,8.168-4.023s2.855,2.681,2.855,2.681l2.08,6.184s1.018,4.6-.183,5.2a24.3,24.3,0,0,1-4.164.644l-.493,5.838-5.954-1.4Z" transform="translate(11.392 6.242)" fill="#e0beab"/>
          <path id="Path_716270" data-name="Path 716270" d="M160.084,95.673l2.507,4.362,2.29.474.25-.784-2.4-.25-2.374-3.8Z" transform="translate(11.655 6.966)" fill="#cdaf97"/>
          <path id="Path_716271" data-name="Path 716271" d="M151.318,199.159c-1.944.358-4.919.8-4.919.8l-.172-1.715.291-1.957,6.77-.188,3.349.554.765.649s-4.579,1.578-6.085,1.856" transform="translate(10.646 14.277)" fill="#18142d"/>
        </g>
      </g>
      <g id="Group_1072879" data-name="Group 1072879" transform="translate(157.094 147.862)">
        <g id="Group_1072878" data-name="Group 1072878" clip-path="url(#clip-path-9)">
          <rect id="Rectangle_378059" data-name="Rectangle 378059" width="28.301" height="63.747" fill="url(#linear-gradient-2)"/>
        </g>
      </g>
      <g id="Group_1072887" data-name="Group 1072887">
        <g id="Group_1072886" data-name="Group 1072886" clip-path="url(#clip-path-2)">
          <path id="Path_716273" data-name="Path 716273" d="M187.145,138.626s-4.289-19-5.192-20.293c-.571-.819-3.87-7.724-7.044-11.17l-2.107-2.52-.939-.942a.607.607,0,0,0-.238-.091l.01.086-3.926-.286-3.458,0-6.321-.106-7.273,2.911-7.342,18.619L141.6,142.54l5.325-.427-.139-16.671,5.726-6.532.677,7.952-1.279,16.114,24.081-1.58-2.707-25.5-.057,1.276,5.134,7.807,3.14,14.2Z" transform="translate(10.309 7.521)" fill="#ed971b"/>
          <g id="Group_1072882" data-name="Group 1072882" transform="translate(174.559 153.899)" opacity="0.6">
            <g id="Group_1072881" data-name="Group 1072881">
              <g id="Group_1072880" data-name="Group 1072880" clip-path="url(#clip-path-11)">
                <path id="Path_716274" data-name="Path 716274" d="M166.325,167.611l-.632,7.9,1.38,24.974-2.135-25.356.7-7.444-2.923-21.3.828-2.935Z" transform="translate(-162.713 -143.454)" fill="#18142d"/>
              </g>
            </g>
          </g>
          <path id="Path_716275" data-name="Path 716275" d="M179.522,200.824h-9.48l-.717-.9-.606.9h-1.656v-4.15l4.713-.857,2.345,2.863,5.4,1.606Z" transform="translate(12.163 14.257)" fill="#18142d"/>
          <path id="Path_716276" data-name="Path 716276" d="M148.495,144.714l-1.029.55-1.385-1.523-.315,2.47,1.846,3.867-1.2.044-2.3-2.76-1.662-2.727-.08-2.39.367-2.009,2.756-.517Z" transform="translate(10.365 10.172)" fill="#e0beab"/>
          <g id="Group_1072885" data-name="Group 1072885" transform="translate(162.293 148.915)" opacity="0.6">
            <g id="Group_1072884" data-name="Group 1072884">
              <g id="Group_1072883" data-name="Group 1072883" clip-path="url(#clip-path-12)">
                <path id="Path_716277" data-name="Path 716277" d="M151.429,140.615l11.513-.452,10.762-1.355-22.426.978Z" transform="translate(-151.279 -138.809)" fill="#18142d"/>
              </g>
            </g>
          </g>
          <path id="Path_716278" data-name="Path 716278" d="M178.391,142.127l1.118.363,1.06-1.736.8,2.372-1.05,4.121,1.182-.163,1.718-3.112L184.309,141l-.392-2.363-.756-1.912-2.808-.031Z" transform="translate(12.988 9.952)" fill="#e0beab"/>
          <path id="Path_716279" data-name="Path 716279" d="M168.685,86.071c-.412-.734-2.075-1.236-3.2-1.368,0,0-.734-3.774-3.586-2.05s-5.361,3.023-6.148,6.044c-.4,1.543-.176,6.6.75,10.111s7.007,2.2,7.913,1.124a9.1,9.1,0,0,0,.772-3.277,6.94,6.94,0,0,1-1.021-1.2c-.927-1.36-.686-2.028-.234-2.427.425-.374.885-.377,1.708.753.105-.549.224-1.093.367-1.615.278-1.025.312-2.334.92-2.911,1.293-1.224,2.222-2.354,1.755-3.185" transform="translate(11.326 5.985)" fill="#204a59"/>
        </g>
      </g>
      <g id="Group_1072889" data-name="Group 1072889" transform="translate(151.903 113.733)">
        <g id="Group_1072888" data-name="Group 1072888" clip-path="url(#clip-path-13)">
          <rect id="Rectangle_378063" data-name="Rectangle 378063" width="11.452" height="36.327" transform="translate(-0.116 0)" fill="url(#linear-gradient-3)"/>
        </g>
      </g>
      <g id="Group_1072894" data-name="Group 1072894">
        <g id="Group_1072893" data-name="Group 1072893" clip-path="url(#clip-path-2)">
          <g id="Group_1072892" data-name="Group 1072892" transform="translate(28.335 207.436)" opacity="0.6">
            <g id="Group_1072891" data-name="Group 1072891">
              <g id="Group_1072890" data-name="Group 1072890" clip-path="url(#clip-path-8)">
                <path id="Path_716281" data-name="Path 716281" d="M88.155,195.875c0,1.389-13.822,2.517-30.872,2.517s-30.871-1.128-30.871-2.517,13.822-2.517,30.871-2.517,30.872,1.128,30.872,2.517" transform="translate(-26.412 -193.358)" fill="#81aebb"/>
              </g>
            </g>
          </g>
          <path id="Path_716282" data-name="Path 716282" d="M51.8,138.553a.226.226,0,0,0,.219-.164l1.532-5.594a.22.22,0,0,0-.161-.27.226.226,0,0,0-.277.156l-1.532,5.595a.221.221,0,0,0,.161.27.214.214,0,0,0,.058.008" transform="translate(3.755 9.648)" fill="#474985"/>
        </g>
      </g>
      <g id="Group_1072896" data-name="Group 1072896" transform="translate(42.262 139.748)">
        <g id="Group_1072895" data-name="Group 1072895" clip-path="url(#clip-path-16)">
          <rect id="Rectangle_378066" data-name="Rectangle 378066" width="31.194" height="69.664" transform="translate(-0.057)" fill="url(#linear-gradient-4)"/>
        </g>
      </g>
      <g id="Group_1072901" data-name="Group 1072901">
        <g id="Group_1072900" data-name="Group 1072900" clip-path="url(#clip-path-2)">
          <path id="Path_716284" data-name="Path 716284" d="M32.207,117.655a5.092,5.092,0,0,1,.245-1.35,18.548,18.548,0,0,1,1.52-4.585l4.322-10.035a23.19,23.19,0,0,1,2.47-4.049c1.81-2.441,4.5-3.243,7.886-3.23,1.579.005-2.629,6.361-3.634,7.912-1.485,2.3-1.971,5.084-4.283,9.422-.773,1.45-1.389,3.7-2.293,5.411.02.314.021.631.018.941l-.068,6.724a21.9,21.9,0,0,0,.418,5.892,2.1,2.1,0,0,1-.845,2.21,3.263,3.263,0,0,1-2.036.794,41.514,41.514,0,0,1-3.251-9.36q-.2-1.03-.326-2.072a27.657,27.657,0,0,1-.145-4.626" transform="translate(2.342 6.873)" fill="#4374af"/>
          <path id="Path_716285" data-name="Path 716285" d="M38.964,135.734l25.124,1.037c-.067-4.414-.369-10.554-.591-13.954-.018-.218-.027-.427-.034-.629-.154-2.185-.241-4.331-.213-6.623,0-.226,0-.454.01-.68.019-.9.065-1.824.138-2.783.114-1.557.289-3.208.551-5,.364-2.5,1.924-6.031,1.519-7.966a7.023,7.023,0,0,0-5.133-4.9,9.159,9.159,0,0,0-2.93-.382L46.963,94.2c-7.2.237-7.968,7.162-7.783,11.923.144,3.773.39,7.549.562,11.33a75.713,75.713,0,0,1-.315,12.844c-.145,1.49-.431,3.921-.462,5.441" transform="translate(2.837 6.832)" fill="#729edb"/>
          <path id="Path_716286" data-name="Path 716286" d="M47.829,115.257c3.167,1.415,10.792,4.168,12.345,5.031a27.3,27.3,0,0,0,2.745,1.32c-.018-.218-.027-.427-.035-.629-.154-2.185-.241-4.331-.213-6.623a55.722,55.722,0,0,1-8.461-2.491c-.853-.349-3.9-2.02-4.485-1.086a9.9,9.9,0,0,1-2.221,2.189,1.318,1.318,0,0,0,.326,2.289" transform="translate(3.42 8.045)" fill="#4374af"/>
          <path id="Path_716287" data-name="Path 716287" d="M44.191,103.269a.758.758,0,0,0,.015.207l2.024,7.68a.919.919,0,0,0,.885.624l4.382-.1a.743.743,0,0,0,.373-.117l0-.009a.487.487,0,0,0,.166-.535l-2.024-7.688a.907.907,0,0,0-.876-.615l-4.382.1a.539.539,0,0,0-.565.452" transform="translate(3.217 7.478)" fill="#686868"/>
          <path id="Path_716288" data-name="Path 716288" d="M44.191,103.247a.758.758,0,0,0,.015.207l2.024,7.68a.919.919,0,0,0,.885.624l4.382-.1a.743.743,0,0,0,.373-.117l0-.009a.407.407,0,0,0-.015-.207l-2.023-7.688a.912.912,0,0,0-.886-.616l-4.382.1a.653.653,0,0,0-.375.126" transform="translate(3.217 7.501)" fill="#3e403f"/>
          <path id="Path_716289" data-name="Path 716289" d="M50.776,109.747c1.5.653,1.73,2.767,2.317,3.52.71.913-.74,1.206-2.314,1.012a6.906,6.906,0,0,1-3.695-1.432,3.7,3.7,0,0,1-1.03-2.946c.045-1.395,2.768-1.006,4.721-.153" transform="translate(3.353 7.934)" fill="#ecc7a4"/>
          <path id="Path_716290" data-name="Path 716290" d="M51.436,112.058c.575-.653,1.18-.175,2.03.079,3.044.91,8.323.688,12.257,1.153-.267-.627-.516-1.229-.751-1.765-2.327-5.283-3.7-7.516-4.592-9.407-.834-1.768-4.638-8.2-3.077-8.25,3.968-.131,6.311.767,7.926,3.5a77.38,77.38,0,0,1,6.187,13.648c.724,1.949,1.654,3.2,1.792,5.09.006.055.006,1.281.01,1.337.043.9-.114.5-.576,1.016-.048.092-.088.181-.142.277-1.032,1.829-7.931,1.479-12.554-.365-2.194-.874-8.89-3.936-8.89-3.936a2.372,2.372,0,0,1,.381-2.379" transform="translate(3.705 6.833)" fill="#729edb"/>
          <path id="Path_716291" data-name="Path 716291" d="M48.024,94.138a2.511,2.511,0,0,0,.249.63A3.422,3.422,0,0,0,51.589,96.4a7.131,7.131,0,0,0,4.883-2.4,1.61,1.61,0,0,0,.124-.138Z" transform="translate(3.496 6.833)" fill="#b17b45"/>
          <path id="Path_716292" data-name="Path 716292" d="M55.711,89.177V94.47S51.7,99,48.017,94.576l.323-5.4Z" transform="translate(3.496 6.493)" fill="#e0beab"/>
          <path id="Path_716293" data-name="Path 716293" d="M51.735,92.694c.1.014.2.026.3.033a4.491,4.491,0,0,0,3.3-1.041.177.177,0,0,0,0-.269.228.228,0,0,0-.3-.016,4.086,4.086,0,0,1-5.939-.728.231.231,0,0,0-.3-.055.176.176,0,0,0-.047.265,4.6,4.6,0,0,0,2.983,1.811" transform="translate(3.546 6.595)" fill="#b07762"/>
          <path id="Path_716294" data-name="Path 716294" d="M57.328,83.97c.482,4.318-.061,8.987-3.35,9.292a6.672,6.672,0,0,1-7.514-6.011c-.482-4.318,1.767-8.4,5.021-9.109s5.362,1.511,5.844,5.829" transform="translate(3.378 5.68)" fill="#ecc7a4"/>
          <path id="Path_716295" data-name="Path 716295" d="M57.13,80.143a1.552,1.552,0,0,0-.229-1.418,3.4,3.4,0,0,0-.237-.329,8.513,8.513,0,0,0-1.439-1.361.4.4,0,0,0-.051.006,10.494,10.494,0,0,0-7.62.143,3.6,3.6,0,0,0-2,2.246,8.355,8.355,0,0,0-.089,4.73c.086.409.181.779.278,1.09.438,1.44,1,3.39,2.16,4.481a1.438,1.438,0,0,0,.988.355l.051-.01c-.042-.065-.085-.133-.122-.2a5.431,5.431,0,0,1-.089-1.359.788.788,0,0,1-.481.256,1,1,0,0,1-.571-.193,1.85,1.85,0,0,1-.856-1.665,3.423,3.423,0,0,1,.1-.769l.006-.013a1.339,1.339,0,0,1,.249-.529.442.442,0,0,1,.339-.17,1.234,1.234,0,0,1,.681.453c.014.019.026.038.038.053q.055.309.132.608c.054.231.122.46.193.686a2.6,2.6,0,0,0,.853.352l.012-.149a10.428,10.428,0,0,1-.378-3.874c.012-.321.028-.642.038-.962.012-.3.021-.6.021-.892l0-.047A11.963,11.963,0,0,0,53,80.985a4.665,4.665,0,0,0-1.183.787c-.118.1-.232.209-.343.314-.269.256-.529.518-.8.761a10.743,10.743,0,0,0,5.409-1.713c.224-.141.433-.281.624-.421l.005.005.006.01c.03.339.051.682.068,1.031a25.4,25.4,0,0,1-.048,3.768.635.635,0,0,1,.072.006c.063-.33.157-.651.244-.973a7.132,7.132,0,0,0,.266-1.336,5.817,5.817,0,0,0-.2-3.082" transform="translate(3.289 5.562)" fill="#204a59"/>
          <path id="Path_716296" data-name="Path 716296" d="M39.851,129.729h0c-.379-.345-.786-.737-1.192-1.091a1.22,1.22,0,0,0-.164.2,3.374,3.374,0,0,1-2.977,2.186,8.173,8.173,0,0,0,2.5,2.281,5.215,5.215,0,0,0,3.252.8,1.329,1.329,0,0,0,1.194-1.021,34.119,34.119,0,0,0-2.613-3.357" transform="translate(2.586 9.366)" fill="#ecc7a4"/>
          <path id="Path_716297" data-name="Path 716297" d="M42.256,192.63l3.43.2-.294,2.562H38.127Z" transform="translate(2.776 14.025)" fill="#18142d"/>
          <path id="Path_716298" data-name="Path 716298" d="M74.393,195.624h-9.48l-.717-.9-.606.9H61.934v-4.15l4.713-.857,2.345,2.863,5.4,1.606Z" transform="translate(4.509 13.878)" fill="#18142d"/>
          <g id="Group_1072899" data-name="Group 1072899" transform="translate(83.946 211.437)" opacity="0.6">
            <g id="Group_1072898" data-name="Group 1072898">
              <g id="Group_1072897" data-name="Group 1072897" clip-path="url(#clip-path-18)">
                <path id="Path_716299" data-name="Path 716299" d="M78.249,200.356c0,1.8,10.508,3.268,23.47,3.268s23.471-1.463,23.471-3.268-10.508-3.268-23.471-3.268-23.47,1.463-23.47,3.268" transform="translate(-78.249 -197.088)" fill="#81aebb"/>
              </g>
            </g>
          </g>
          <path id="Path_716300" data-name="Path 716300" d="M103.723,91.446S104.26,82,101.69,81.023s-4.418,3.6-4.418,3.6a13.654,13.654,0,0,0-1.552,4.183,3.957,3.957,0,0,0,.555,2.994s3.383.284,4.377,3.109-.245,10.689-.245,10.689,7.516-2.346,5.18-5.927c-2.021-3.1-1.863-8.225-1.863-8.225" transform="translate(6.965 5.889)" fill="#204a59"/>
          <path id="Path_716301" data-name="Path 716301" d="M112.435,93.749c3.563,8.123,4.32,15.646,1.693,16.8s-7.646-4.494-11.208-12.617-4.32-15.646-1.693-16.8,7.645,4.5,11.208,12.618" transform="translate(7.256 5.896)" fill="#204a59"/>
        </g>
      </g>
      <g id="Group_1072903" data-name="Group 1072903" transform="translate(99.408 143.451)">
        <g id="Group_1072902" data-name="Group 1072902" clip-path="url(#clip-path-19)">
          <rect id="Rectangle_378069" data-name="Rectangle 378069" width="21.961" height="58.25" transform="translate(0)" fill="url(#linear-gradient-5)"/>
        </g>
      </g>
      <g id="Group_1072905" data-name="Group 1072905">
        <g id="Group_1072904" data-name="Group 1072904" clip-path="url(#clip-path-2)">
          <path id="Path_716303" data-name="Path 716303" d="M113.8,198.866l-8.658.963,5.634-4.54v-7.017h2.337l.137,5.778Z" transform="translate(7.655 13.707)" fill="#cdaf97"/>
        </g>
      </g>
      <g id="Group_1072907" data-name="Group 1072907" transform="translate(109.563 211.335)">
        <g id="Group_1072906" data-name="Group 1072906" clip-path="url(#clip-path-21)">
          <rect id="Rectangle_378071" data-name="Rectangle 378071" width="11.818" height="3.371" transform="translate(0 0)" fill="url(#linear-gradient-6)"/>
        </g>
      </g>
      <g id="Group_1072909" data-name="Group 1072909">
        <g id="Group_1072908" data-name="Group 1072908" clip-path="url(#clip-path-2)">
          <path id="Path_716305" data-name="Path 716305" d="M97.893,198.591l-8.658.963,5.634-4.54V188h2.337l.137,5.778Z" transform="translate(6.497 13.687)" fill="#cdaf97"/>
        </g>
      </g>
      <g id="Group_1072911" data-name="Group 1072911" transform="translate(92.503 211.04)">
        <g id="Group_1072910" data-name="Group 1072910" clip-path="url(#clip-path-23)">
          <rect id="Rectangle_378073" data-name="Rectangle 378073" width="11.818" height="3.371" transform="translate(0)" fill="url(#linear-gradient-7)"/>
        </g>
      </g>
      <g id="Group_1072913" data-name="Group 1072913">
        <g id="Group_1072912" data-name="Group 1072912" clip-path="url(#clip-path-2)">
          <path id="Path_716307" data-name="Path 716307" d="M111.623,111.139l-4.39-13.464-6.322,2.951a41.684,41.684,0,0,0-3.894,9.652c-.953,3.935-.532,7.958-.411,11.26.275,7.521-2.594,15.96-2.594,15.96s4.334-.27,8.366-.089a51.583,51.583,0,0,1,8.283,1.19s-3.488-8.2-3.5-13.731,4.466-13.73,4.466-13.73" transform="translate(6.845 7.111)" fill="#729edb"/>
          <path id="Path_716308" data-name="Path 716308" d="M125.993,117.737l-19.164-19.5a7.4,7.4,0,0,0-1.6,5.924c.458,3.852,5.581,6.936,5.581,6.936l7.977,9.19-4.031,3.871,2.382,5.32s6.952-5.539,8.469-6.851.385-4.89.385-4.89" transform="translate(7.656 7.152)" fill="#729edb"/>
          <path id="Path_716309" data-name="Path 716309" d="M104.454,91.6l-5.011-9.826-1.412,2.408a6.978,6.978,0,0,0-.809,1.563c-.164.539-2.034,2.213-1.4,2.41a.666.666,0,0,1,.457.524,6.4,6.4,0,0,1-.117,1.408,3.957,3.957,0,0,0,.961,2.889s3.39-.183,4.764,2.477a7.217,7.217,0,0,1,0,5.689s8.349,1.575,5.54-1.651c-2.428-2.787-2.977-7.89-2.977-7.89" transform="translate(6.967 5.954)" fill="#ecc7a4"/>
          <path id="Path_716310" data-name="Path 716310" d="M106.117,84.74c1.232,2.809.809,5.709-.943,6.479s-4.17-.882-5.4-3.689-.81-5.709.943-6.48,4.17.882,5.4,3.69" transform="translate(7.213 5.887)" fill="#204a59"/>
          <path id="Path_716311" data-name="Path 716311" d="M109.618,128.644l6.429-2.329-.96-2.6-6.194,2.48Z" transform="translate(7.928 9.007)" fill="#ecc7a4"/>
          <path id="Path_716312" data-name="Path 716312" d="M111.026,127.45c0,1.007-1.971,1.824-4.4,1.824s-4.4-.816-4.4-1.824,1.972-1.824,4.4-1.824,4.4.816,4.4,1.824" transform="translate(7.442 9.146)" fill="#ecc7a4"/>
          <path id="Path_716313" data-name="Path 716313" d="M101.152,80.89a10.06,10.06,0,0,0-1.026.362,16.625,16.625,0,0,1,6.251,9c.153.526.279,1.051.383,1.576,2.864-1.645,4.447-4.551,3.67-7.215-.954-3.273-5.109-4.94-9.279-3.725" transform="translate(7.29 5.86)" fill="#204a59"/>
          <path id="Path_716314" data-name="Path 716314" d="M79.551,13.348c-6.232-1.842-19.99,1.561-30.625,4.745S28.864,26.237,24.987,30.8c-1.749,2.055-1.8,4.986-1.145,7.306,2.11,7.465,5.309,18.773,5.309,18.773s1.148,3.8,9.163,2.157l1-.2c.22,6.178,6.045,11.156,13.333,11.464a14.307,14.307,0,0,1-4.191-10.149,14.489,14.489,0,0,1,.374-3.273c6.734-1.352,14.086-2.715,19.247-3.193,8.143-.754,9.233-7.176,9.233-7.176s3.1-13.44,5.155-25.393c.7-4.08-.105-6.929-2.912-7.759" transform="translate(1.708 0.934)" fill="#153f5e"/>
          <path id="Path_716315" data-name="Path 716315" d="M195.695,28.713c-.664-2.754-3.378-5.743-6.173-6.317a20.493,20.493,0,0,0-4.047-.391c-12.038,0-38.409.817-51.1.265-6.1-.265-8.426,2.622-8.528,6.747-.3,12.375,6.954,37.3,17.108,37.3,23.651,0,39.09-1.062,39.09-1.062s6.9,8.69,7.806,9.448,1.848,1.464,2.033.324c1.235-7.66,5.873-37.78,3.813-46.315" transform="translate(9.162 1.602)" fill="#ed971b"/>
          <path id="Path_716316" data-name="Path 716316" d="M270.334,30.323c-2.356-12.746-23.491-19.454-38.646-16.991s-27.224,13.643-24.042,27.537c3.635,15.873,17.418,21.082,32.573,18.619a42.423,42.423,0,0,0,14.842-5.694,18.764,18.764,0,0,1,.263,11.733c4.39-2.249,7.49-7.683,7.49-14.041a19,19,0,0,0-.3-3.36c5.532-5.274,8.95-11.676,7.819-17.8" transform="translate(15.08 0.934)" fill="#729edb"/>
          <path id="Path_716317" data-name="Path 716317" d="M101.008,56.949l-4.143-.516a7.259,7.259,0,0,1-6.533-8.018L96.287,6.2A7.548,7.548,0,0,1,104.818.062l32.842,4.093a7.258,7.258,0,0,1,6.533,8.018l-5.955,42.212a7.547,7.547,0,0,1-8.53,6.141l-20.039-2.5C105.744,64.357,99.981,68.5,93.656,68.72a14.634,14.634,0,0,1-2.612-.149c4.386-2.091,7.666-6.26,9.964-11.622" transform="translate(6.572 0)" fill="#729edb"/>
          <path id="Path_716318" data-name="Path 716318" d="M22.917,144.272H20.453v-1.619h2.464V139.79h1.512v2.863h2.464v1.619H24.429v2.864H22.917Z" transform="translate(1.489 10.177)" fill="#fcfdff"/>
          <path id="Path_716319" data-name="Path 716319" d="M151.34,47.212a3.166,3.166,0,1,1-3.167-3.167,3.167,3.167,0,0,1,3.167,3.167" transform="translate(10.557 3.207)" fill="#fff"/>
          <path id="Path_716320" data-name="Path 716320" d="M162.974,47.212a3.166,3.166,0,1,1-3.167-3.167,3.167,3.167,0,0,1,3.167,3.167" transform="translate(11.404 3.207)" fill="#fff"/>
          <path id="Path_716321" data-name="Path 716321" d="M174.733,47.212a3.166,3.166,0,1,1-3.167-3.167,3.167,3.167,0,0,1,3.167,3.167" transform="translate(12.26 3.207)" fill="#fff"/>
          <rect id="Rectangle_378074" data-name="Rectangle 378074" width="28.272" height="1.414" transform="translate(238.703 30.276)" fill="#fff"/>
          <rect id="Rectangle_378075" data-name="Rectangle 378075" width="28.272" height="1.414" transform="translate(238.703 34.246)" fill="#fff"/>
          <rect id="Rectangle_378076" data-name="Rectangle 378076" width="28.272" height="1.414" transform="translate(238.703 38.215)" fill="#fff"/>
          <rect id="Rectangle_378077" data-name="Rectangle 378077" width="20.6" height="1.414" transform="translate(238.703 42.096)" fill="#fff"/>
          <path id="Path_716322" data-name="Path 716322" d="M55.379,38.172c0,2.372,0,2.768-1.977,2.768v4.417c4.613,0,5.933-3.1,5.933-8.57V29.539h-8.57v7.248h4.614Z" transform="translate(3.696 2.151)" fill="#fff"/>
          <path id="Path_716323" data-name="Path 716323" d="M46.166,36.787v1.385c0,2.371,0,2.768-1.977,2.768v4.417c4.612,0,5.932-3.1,5.932-8.57V29.539H41.554v7.248Z" transform="translate(3.025 2.151)" fill="#fff"/>
          <rect id="Rectangle_378078" data-name="Rectangle 378078" width="1.807" height="26.324" transform="translate(111.392 24.419) rotate(-82.834)" fill="#fff"/>
          <rect id="Rectangle_378079" data-name="Rectangle 378079" width="1.807" height="26.324" transform="translate(110.759 29.452) rotate(-82.834)" fill="#fff"/>
          <rect id="Rectangle_378080" data-name="Rectangle 378080" width="1.807" height="26.324" transform="translate(110.126 34.486) rotate(-82.834)" fill="#fff"/>
          <rect id="Rectangle_378081" data-name="Rectangle 378081" width="1.808" height="19.18" transform="translate(109.508 39.406) rotate(-82.835)" fill="#fff"/>
          <rect id="Rectangle_378082" data-name="Rectangle 378082" width="1.807" height="26.324" transform="translate(112.008 19.516) rotate(-82.834)" fill="#fff"/>
        </g>
      </g>
    </g>
  </g>
</svg>
