<svg xmlns="http://www.w3.org/2000/svg" width="116.999" height="115" viewBox="0 0 116.999 115">
  <g id="Group_1073029" data-name="Group 1073029" transform="translate(-322 -976)">
    <g id="Group_1072935" data-name="Group 1072935" transform="translate(-103.438 -6522.471)">
      <g id="Group_1015374" data-name="Group 1015374" transform="translate(425.927 7498.205)">
        <g id="Group_1015448" data-name="Group 1015448" transform="translate(0 0)">
          <g id="Group_1014855" data-name="Group 1014855" transform="translate(0 0)">
            <path id="Union_12" data-name="Union 12" d="M58.5,0C90.809,0,117,25.744,117,57.5S90.809,115,58.5,115,0,89.256,0,57.5,26.192,0,58.5,0Z" transform="translate(-0.49 0.265)" fill="#eba325"/>
            <path id="Path_608395" data-name="Path 608395" d="M49,0C76.062,0,98,22.162,98,49.5S76.062,99,49,99,0,76.838,0,49.5,21.938,0,49,0Z" transform="translate(9.51 7.265)" fill="#fef5e5"/>
          </g>
        </g>
      </g>
    </g>
    <g id="marketing_1_" data-name="marketing (1)" transform="translate(347 1000)">
      <g id="Group_1072970" data-name="Group 1072970" transform="translate(2.098 2.098)">
        <g id="Group_1072952" data-name="Group 1072952" transform="translate(0 2.197)">
          <path id="Path_716344" data-name="Path 716344" d="M45.93,56.247v4.18a4.289,4.289,0,0,1-4.393,4.18H6.393A4.289,4.289,0,0,1,2,60.427V8.18A4.289,4.289,0,0,1,6.393,4h8.786V8.18H7.491a1.076,1.076,0,0,0-1.1,1.045V59.382a1.076,1.076,0,0,0,1.1,1.045H40.439a1.076,1.076,0,0,0,1.1-1.045V56.247Z" transform="translate(-2 -4)" fill="#ffeaa7"/>
        </g>
        <g id="Group_1072953" data-name="Group 1072953" transform="translate(37.55 19.358)">
          <path id="Path_716345" data-name="Path 716345" d="M42.393,21.171v27.27H38V22.083a10.852,10.852,0,0,0,4.393-.923Z" transform="translate(-38 -21.16)" fill="#ffeaa7"/>
        </g>
        <g id="Group_1072954" data-name="Group 1072954" transform="translate(4.393 6.59)">
          <path id="Path_716346" data-name="Path 716346" d="M34.489,20.385a10.147,10.147,0,0,1-4.327-8.24,10.022,10.022,0,0,1,.22-2.083,1.559,1.559,0,0,1-.22.01H16.983A2.144,2.144,0,0,1,14.786,8H7.1A1.072,1.072,0,0,0,6,9.036V58.785a1.072,1.072,0,0,0,1.1,1.036H40.046a1.072,1.072,0,0,0,1.1-1.036V22.51A11.308,11.308,0,0,1,34.489,20.385Z" transform="translate(-6 -8)" fill="#f0d0b4"/>
        </g>
        <g id="Group_1072955" data-name="Group 1072955" transform="translate(22.854 45.231)">
          <path id="Path_716347" data-name="Path 716347" d="M32.786,50.393v4.393l-7.754-2.91a1.581,1.581,0,0,1,0-2.965L32.786,46Z" transform="translate(-24 -46)" fill="#aab2bd"/>
        </g>
        <g id="Group_1072956" data-name="Group 1072956" transform="translate(54.017 45.231)">
          <path id="Path_716348" data-name="Path 716348" d="M61.5,47.285a4.4,4.4,0,0,1-3.108,7.5H54V46h4.393A4.421,4.421,0,0,1,61.5,47.285Z" transform="translate(-54 -46)" fill="#aab2bd"/>
        </g>
        <g id="Group_1072957" data-name="Group 1072957" transform="translate(29.856 49.624)">
          <path id="Path_716349" data-name="Path 716349" d="M56.162,50v4.393H32V50Z" transform="translate(-32 -50)" fill="#4fc1e9"/>
        </g>
        <g id="Group_1072958" data-name="Group 1072958" transform="translate(29.856 45.894)">
          <path id="Path_716350" data-name="Path 716350" d="M56.162,46v4.393H32V46H56.162Z" transform="translate(-32 -46)" fill="#b4dd7f"/>
        </g>
        <g id="Group_1072959" data-name="Group 1072959" transform="translate(8.786 19.235)">
          <path id="Path_716351" data-name="Path 716351" d="M31.174,23.691a13.2,13.2,0,1,0,5.184,10.488A13.13,13.13,0,0,0,31.174,23.691Z" transform="translate(-10 -21)" fill="#e6e9ed"/>
        </g>
        <g id="Group_1072960" data-name="Group 1072960" transform="translate(22.947 27.983)">
          <path id="Path_716352" data-name="Path 716352" d="M24,29h4.393V39.983H24Z" transform="translate(-24 -29)" fill="#fcd770"/>
        </g>
        <g id="Group_1072961" data-name="Group 1072961" transform="translate(18.775 25.846)">
          <path id="Path_716353" data-name="Path 716353" d="M24.393,29.2V40.179H20V27h4.393Z" transform="translate(-20 -27)" fill="#fcd770"/>
        </g>
        <g id="Group_1072962" data-name="Group 1072962" transform="translate(14.603 32.271)">
          <path id="Path_716354" data-name="Path 716354" d="M16,33h4.393v6.59H16Z" transform="translate(-16 -33)" fill="#fcd770"/>
        </g>
        <g id="Group_1072963" data-name="Group 1072963" transform="translate(12.336)">
          <path id="Path_716355" data-name="Path 716355" d="M31.572,4.2v2.2A10.9,10.9,0,0,0,29.6,10.775a1.472,1.472,0,0,1-.22.011H16.2A2.2,2.2,0,0,1,14,8.59V4.2A2.2,2.2,0,0,1,16.2,2H29.376A2.2,2.2,0,0,1,31.572,4.2Z" transform="translate(-14 -2)" fill="#b4dd7f"/>
        </g>
        <g id="Group_1072964" data-name="Group 1072964" transform="translate(52.919 10.43)">
          <path id="Path_716356" data-name="Path 716356" d="M59.59,12l2.2,4.393H55.2L53,12h6.59Z" transform="translate(-53 -12)" fill="#cf9e76"/>
        </g>
        <g id="Group_1072965" data-name="Group 1072965" transform="translate(52.919 6.59)">
          <path id="Path_716357" data-name="Path 716357" d="M61.786,8l-2.2,4.393H53L55.2,8Z" transform="translate(-53 -8)" fill="#cf9e76"/>
        </g>
        <g id="Group_1072966" data-name="Group 1072966" transform="translate(26.545 0)">
          <path id="Path_716358" data-name="Path 716358" d="M49.965,12.983a10.927,10.927,0,0,1-6.59,10.06A10.982,10.982,0,0,1,28,12.983a11.23,11.23,0,0,1,.22-2.207,10.985,10.985,0,0,1,21.745,2.207Z" transform="translate(-28 -2)" fill="#e6e9ed"/>
        </g>
        <g id="Group_1072967" data-name="Group 1072967" transform="translate(33.092 6.902)">
          <ellipse id="Ellipse_5734" data-name="Ellipse 5734" cx="4.5" cy="4" rx="4.5" ry="4" fill="#ff826e"/>
        </g>
        <g id="Group_1072968" data-name="Group 1072968" transform="translate(45.231 22.616)">
          <path id="Path_716359" data-name="Path 716359" d="M54.786,24a8.775,8.775,0,1,1-5.491,1.922A8.784,8.784,0,0,1,54.786,24Z" transform="translate(-46 -24)" fill="#e6e9ed"/>
        </g>
        <g id="Group_1072969" data-name="Group 1072969" transform="translate(49.624 27.009)">
          <path id="Path_716360" data-name="Path 716360" d="M57.809,30.8a1.786,1.786,0,0,1,0,3.185L52.57,36.6A1.777,1.777,0,0,1,50,35.007V29.779a1.777,1.777,0,0,1,2.57-1.592Z" transform="translate(-50 -28)" fill="#ff826e"/>
        </g>
      </g>
      <g id="Group_1072971" data-name="Group 1072971" transform="translate(1 1)">
        <path id="Path_716361" data-name="Path 716361" d="M60.758,47.129H45.032V22.792a11.5,11.5,0,0,0,1.108-.643l3.75,4.687a9.571,9.571,0,1,0,1.643-1.3l-3.758-4.7a11.5,11.5,0,0,0,3.5-7.254h3.6l2.1,4.194H65.6l-2.621-5.242L65.6,7.29H56.965l-2.1,4.194h-3.6a11.518,11.518,0,0,0-18.865-7.8A3.141,3.141,0,0,0,29.306,1H16.726a3.141,3.141,0,0,0-2.952,2.1H6.242A5.248,5.248,0,0,0,1,8.339V60.758A5.248,5.248,0,0,0,6.242,66H39.79a5.248,5.248,0,0,0,5.242-5.242V57.613H60.758a5.242,5.242,0,1,0,0-10.484ZM63.9,33.5a7.339,7.339,0,1,1-7.339-7.339A7.348,7.348,0,0,1,63.9,33.5ZM58.261,15.677l-1.048-2.1h3.946l1.048,2.1Zm0-6.29h3.946l-1.048,2.1H57.212Zm-44.487,0a3.141,3.141,0,0,0,2.952,2.1H28.312c-.031.346-.053.694-.053,1.048a11.492,11.492,0,0,0,3.75,8.486l-1.6,2.1a13.752,13.752,0,1,0,1.663,1.276l1.6-2.1a11.435,11.435,0,0,0,5.069,1.72V47.129H33.309l-7.583,2.844a2.561,2.561,0,0,0,0,4.8l7.583,2.843h5.433v2.1H7.29V9.387Zm14.485,30.4h-2.1V31.4h2.1Zm-4.194,0h-2.1V29.306h2.1Zm-4.194,0h-2.1V35.6h2.1Zm12.034,2.1a11.518,11.518,0,0,1-17.779,0Zm1.37-2.1H30.355V29.306H26.161v-2.1h-6.29V33.5H15.677v6.29H12.757a11.532,11.532,0,1,1,20.519,0ZM26.463,52.807a.465.465,0,0,1,0-.871l5.988-2.246v5.361Zm8.085,2.709v-2.1H55.516v2.1Zm20.968-4.194H34.548v-2.1H55.516ZM42.935,47.129h-2.1V24.011a11.345,11.345,0,0,0,2.1-.394ZM39.79,3.1a9.446,9.446,0,0,1,9.374,8.387H44.926a5.242,5.242,0,1,0,0,2.1h4.238A9.434,9.434,0,1,1,39.79,3.1Zm2.952,10.484a3.145,3.145,0,1,1,0-2.1h-4v2.1ZM15.677,4.145A1.049,1.049,0,0,1,16.726,3.1H29.306a1.049,1.049,0,0,1,1.048,1.048V5.922a11.467,11.467,0,0,0-1.648,3.46l-11.981.005a1.049,1.049,0,0,1-1.048-1.048ZM42.935,60.758A3.149,3.149,0,0,1,39.79,63.9H6.242A3.149,3.149,0,0,1,3.1,60.758V8.339A3.149,3.149,0,0,1,6.242,5.194h7.339v2.1H7.29a2.1,2.1,0,0,0-2.1,2.1V59.71a2.1,2.1,0,0,0,2.1,2.1H38.742a2.1,2.1,0,0,0,2.1-2.1v-2.1h2.1Zm17.823-5.242H57.613v-6.29h3.145a3.145,3.145,0,1,1,0,6.29Z" transform="translate(-1 -1)"/>
        <path id="Path_716362" data-name="Path 716362" d="M49,35.107a2.876,2.876,0,0,0,4.161,2.572l5.233-2.616a2.877,2.877,0,0,0,0-5.144L53.161,27.3A2.876,2.876,0,0,0,49,29.875Zm2.2-5.232a.679.679,0,0,1,.679-.679.672.672,0,0,1,.3.071l5.232,2.616a.679.679,0,0,1,0,1.215l-5.232,2.616a.7.7,0,0,1-.982-.607Z" transform="translate(0.624 0.009)"/>
        <path id="Path_716363" data-name="Path 716363" d="M9,49H22.179v2.2H9Z" transform="translate(-0.214 1.243)"/>
        <path id="Path_716364" data-name="Path 716364" d="M9,53H22.179v2.2H9Z" transform="translate(-0.214 1.017)"/>
        <path id="Path_716365" data-name="Path 716365" d="M9,13h2.2v2.2H9Z" transform="translate(-0.214 -0.439)"/>
        <path id="Path_716366" data-name="Path 716366" d="M13,13H26.179v2.2H13Z" transform="translate(-0.563 -0.439)"/>
        <path id="Path_716367" data-name="Path 716367" d="M9,17h2.2v2.2H9Z" transform="translate(-0.214 -0.252)"/>
        <path id="Path_716368" data-name="Path 716368" d="M13,17H26.179v2.2H13Z" transform="translate(-0.563 -0.252)"/>
      </g>
    </g>
  </g>
</svg>
