<svg xmlns="http://www.w3.org/2000/svg" width="116.999" height="115" viewBox="0 0 116.999 115">
  <g id="Group_1073030" data-name="Group 1073030" transform="translate(-742 -976)">
    <g id="Group_1072943" data-name="Group 1072943" transform="translate(316.562 -6522.471)">
      <g id="Group_1015374" data-name="Group 1015374" transform="translate(425.927 7498.205)">
        <g id="Group_1015448" data-name="Group 1015448" transform="translate(0 0)">
          <g id="Group_1014855" data-name="Group 1014855" transform="translate(0 0)">
            <path id="Union_12" data-name="Union 12" d="M58.5,0C90.809,0,117,25.744,117,57.5S90.809,115,58.5,115,0,89.256,0,57.5,26.192,0,58.5,0Z" transform="translate(-0.49 0.265)" fill="#eba325"/>
            <path id="Path_608395" data-name="Path 608395" d="M49,0C76.062,0,98,22.162,98,49.5S76.062,99,49,99,0,76.838,0,49.5,21.938,0,49,0Z" transform="translate(9.51 7.265)" fill="#fef5e5"/>
          </g>
        </g>
      </g>
    </g>
    <g id="compra-en-linea" transform="translate(768 1000.961)">
      <path id="Path_716369" data-name="Path 716369" d="M84.109,119.926H36.342A4.343,4.343,0,0,0,32,124.268v41.253H88.452V124.268A4.343,4.343,0,0,0,84.109,119.926Zm0,0" transform="translate(-27.658 -103.618)" fill="#4398d1"/>
      <path id="Path_716370" data-name="Path 716370" d="M109.6,151.926H65.086A1.086,1.086,0,0,0,64,153.012v38h47.767V154.1A2.171,2.171,0,0,0,109.6,151.926Zm0,0" transform="translate(-55.316 -131.276)" fill="#87ced9"/>
      <path id="Path_716371" data-name="Path 716371" d="M215.483,207.926,184,239.409h31.483Zm0,0" transform="translate(-159.032 -179.677)" fill="#71c4d1"/>
      <path id="Path_716372" data-name="Path 716372" d="M248.284,7.926l3.372,3.7,4.77-1.519L257.5,15l4.891,1.069-1.519,4.77,3.7,3.372-3.7,3.372,1.519,4.77L257.5,33.421l-1.069,4.891-4.77-1.519-3.372,3.7-3.372-3.7-4.77,1.519-1.069-4.891-4.891-1.069,1.519-4.77L232,24.21l3.7-3.372-1.519-4.77L239.073,15l1.069-4.891,4.77,1.519Zm0,0" transform="translate(-200.518 -6.817)" fill="#fdb62f"/>
      <g id="Group_1072972" data-name="Group 1072972" transform="translate(39.081 10.88)">
        <path id="Path_716373" data-name="Path 716373" d="M306.344,93.126,317.2,82.27l1.536,1.535L307.879,94.661Zm0,0" transform="translate(-303.855 -81.952)" fill="#fd6d2f"/>
        <path id="Path_716374" data-name="Path 716374" d="M291.257,86.44a3.257,3.257,0,1,1,3.257-3.257A3.257,3.257,0,0,1,291.257,86.44Zm0-4.342a1.086,1.086,0,1,0,1.086,1.086A1.086,1.086,0,0,0,291.257,82.1Zm0,0" transform="translate(-288 -79.926)" fill="#fd6d2f"/>
        <path id="Path_716375" data-name="Path 716375" d="M371.257,134.44a3.257,3.257,0,1,1,3.257-3.257A3.257,3.257,0,0,1,371.257,134.44Zm0-4.342a1.086,1.086,0,1,0,1.086,1.086A1.086,1.086,0,0,0,371.257,130.1Zm0,0" transform="translate(-357.144 -121.412)" fill="#fd6d2f"/>
      </g>
      <path id="Path_716376" data-name="Path 716376" d="M123.764,342.316l-3.9,1.582,2.545,5.15h4.271Zm0,0" transform="translate(-103.599 -295.83)" fill="#e0e3e6"/>
      <path id="Path_716377" data-name="Path 716377" d="M143.524,238.414l-13.488-.218-2.915-5.77,10.689-10.578Zm0,0" transform="translate(-109.871 -191.709)" fill="#e0e3e6"/>
      <path id="Path_716378" data-name="Path 716378" d="M96.167,305.049a3.148,3.148,0,0,0,4.388,1.8l2.588-1.281-2.915-5.77-2.7,1.6a3.1,3.1,0,0,0-1.364,3.651Zm0,0" transform="translate(-82.978 -259.08)" fill="#e3584b"/>
      <path id="Path_716379" data-name="Path 716379" d="M249.281,266.018l3.59-1.248.712,2.05-3.59,1.248Zm0,0" transform="translate(-215.454 -228.806)" fill="#5eb3d1"/>
      <path id="Path_716380" data-name="Path 716380" d="M228.492,204.886l2.394-2.5,1.567,1.5-2.395,2.5Zm0,0" transform="translate(-197.486 -174.892)" fill="#5eb3d1"/>
      <path id="Path_716381" data-name="Path 716381" d="M272,327.926h3.257V330.1H272Zm0,0" transform="translate(-235.09 -283.392)" fill="#5eb3d1"/>
      <path id="Path_716382" data-name="Path 716382" d="M320,279.926h20.627v13.027H320Zm0,0" transform="translate(-276.576 -241.906)" fill="#e3584b"/>
      <path id="Path_716383" data-name="Path 716383" d="M344,303.926h4.342V306.1H344Zm0,0" transform="translate(-297.319 -262.649)" fill="#c9433c"/>
      <path id="Path_716384" data-name="Path 716384" d="M392,303.926h7.6V306.1H392Zm0,0" transform="translate(-338.806 -262.649)" fill="#c9433c"/>
      <path id="Path_716385" data-name="Path 716385" d="M344,335.926h14.113V338.1H344Zm0,0" transform="translate(-297.319 -290.307)" fill="#c9433c"/>
      <path id="Path_716386" data-name="Path 716386" d="M8,183.926H24.284v8.685H8Zm0,0" transform="translate(-6.915 -158.933)" fill="#fd6d2f"/>
      <path id="Path_716387" data-name="Path 716387" d="M32,207.926h2.171V210.1H32Zm0,0" transform="translate(-27.658 -179.677)" fill="#e3584b"/>
      <path id="Path_716388" data-name="Path 716388" d="M64,207.926h5.428V210.1H64Zm0,0" transform="translate(-55.316 -179.677)" fill="#e3584b"/>
      <path id="Path_716389" data-name="Path 716389" d="M67.708,430.44H11.257A3.257,3.257,0,0,1,8,427.183v-3.257H32.841a1.963,1.963,0,0,1,1.757,1.086,1.964,1.964,0,0,0,1.757,1.086h6.257a1.964,1.964,0,0,0,1.757-1.086,1.963,1.963,0,0,1,1.757-1.086H70.965v3.257a3.257,3.257,0,0,1-3.257,3.257Zm0,0" transform="translate(-6.915 -366.365)" fill="#d6d9db"/>
      <path id="Path_716390" data-name="Path 716390" d="M72.685,199.926v6.514H64v2.171H74.856v-8.685Zm0,0" transform="translate(-55.316 -172.762)" fill="#71c4d1"/>
      <path id="Path_716391" data-name="Path 716391" d="M32,247.926h4.342V250.1H32Zm0,0" transform="translate(-27.658 -214.248)" fill="#3e8cc7"/>
      <path id="Path_716392" data-name="Path 716392" d="M416,375.926h4.342V378.1H416Zm0,0" transform="translate(-359.549 -324.879)" fill="#3e8cc7"/>
      <path id="Path_716393" data-name="Path 716393" d="M64.05,291.467H61.879V289.3H59.708v2.171H57.537V289.3H55.366v2.171H39.21a3.033,3.033,0,0,0-2.734,1.686.869.869,0,0,1-.785.485H29.439a.869.869,0,0,1-.785-.485,3.033,3.033,0,0,0-2.728-1.686H9.77V271.926H7.6v19.541H5.427V271.926H3.256v19.541H1.085A1.086,1.086,0,0,0,0,292.553v3.257a4.343,4.343,0,0,0,4.342,4.342H60.793a4.343,4.343,0,0,0,4.342-4.342v-3.257a1.086,1.086,0,0,0-1.086-1.086Zm-1.086,4.342a2.171,2.171,0,0,1-2.171,2.171H4.342a2.171,2.171,0,0,1-2.171-2.171v-2.171H25.926a.869.869,0,0,1,.785.485,3.033,3.033,0,0,0,2.728,1.686H35.7a3.032,3.032,0,0,0,2.734-1.686.869.869,0,0,1,.78-.485H62.965Zm0,0" transform="translate(0 -234.992)"/>
      <path id="Path_716394" data-name="Path 716394" d="M48.969,114.1v-2.171H29.428A5.434,5.434,0,0,0,24,117.354v1.086h2.171v-1.086a3.257,3.257,0,0,1,3.257-3.257Zm0,0" transform="translate(-20.744 -96.704)"/>
      <path id="Path_716395" data-name="Path 716395" d="M56,146.1H78.8v-2.171H58.171A2.171,2.171,0,0,0,56,146.1Zm0,0" transform="translate(-48.401 -124.361)"/>
      <path id="Path_716396" data-name="Path 716396" d="M255.187,13.688l1.3-4.107a1.086,1.086,0,0,0-.8-1.391l-4.212-.921-.916-4.207a1.086,1.086,0,0,0-1.386-.806l-4.107,1.3L242.161.378a1.119,1.119,0,0,0-1.6,0l-2.9,3.187-4.111-1.308a1.085,1.085,0,0,0-1.39.8l-.921,4.211-4.2.921a1.086,1.086,0,0,0-.8,1.391l1.3,4.107-3.187,2.9a1.084,1.084,0,0,0,0,1.6l3.187,2.9-1.3,4.107a1.086,1.086,0,0,0,.8,1.391l4.212.921.92,4.211a1.086,1.086,0,0,0,1.391.8l4.107-1.308,2.9,3.187a1.085,1.085,0,0,0,1.6,0l2.9-3.187,4.107,1.308a1.085,1.085,0,0,0,1.39-.8l.921-4.211L255.7,26.6a1.086,1.086,0,0,0,.8-1.391L255.2,21.1l3.187-2.9a1.085,1.085,0,0,0,0-1.6Zm-1.977,6.274a1.085,1.085,0,0,0-.3,1.132l1.153,3.635-3.727.815a1.087,1.087,0,0,0-.827.827L248.7,30.1l-3.635-1.158a1.092,1.092,0,0,0-1.132.3l-2.569,2.825-2.569-2.823a1.078,1.078,0,0,0-1.127-.3l-3.64,1.155-.815-3.727a1.087,1.087,0,0,0-.827-.827l-3.723-.811,1.158-3.635a1.085,1.085,0,0,0-.3-1.132l-2.825-2.569,2.823-2.569a1.084,1.084,0,0,0,.3-1.132l-1.155-3.635,3.727-.815a1.087,1.087,0,0,0,.827-.827l.811-3.723,3.635,1.158a1.085,1.085,0,0,0,1.132-.3l2.569-2.825,2.569,2.823a1.084,1.084,0,0,0,1.132.3L248.7,4.692l.815,3.727a1.087,1.087,0,0,0,.827.827l3.727.815L252.908,13.7a1.086,1.086,0,0,0,.3,1.132l2.821,2.564Zm0,0" transform="translate(-193.593)"/>
      <path id="Path_716397" data-name="Path 716397" d="M306.344,93.126,317.2,82.27l1.536,1.535L307.879,94.661Zm0,0" transform="translate(-264.773 -71.072)"/>
      <path id="Path_716398" data-name="Path 716398" d="M294.514,83.183a3.257,3.257,0,1,0-3.257,3.257A3.257,3.257,0,0,0,294.514,83.183Zm-4.342,0a1.086,1.086,0,1,1,1.086,1.086A1.086,1.086,0,0,1,290.171,83.183Zm0,0" transform="translate(-248.919 -69.046)"/>
      <path id="Path_716399" data-name="Path 716399" d="M371.257,127.926a3.257,3.257,0,1,0,3.257,3.257A3.257,3.257,0,0,0,371.257,127.926Zm0,4.342a1.086,1.086,0,1,1,1.086-1.086A1.086,1.086,0,0,1,371.257,132.268Zm0,0" transform="translate(-318.062 -110.533)"/>
      <path id="Path_716400" data-name="Path 716400" d="M104.218,213.875a1.077,1.077,0,0,0-1.01.284l-10.6,10.486-2.576,1.533a4.172,4.172,0,0,0,1.571,7.737l2.261,4.576a1.085,1.085,0,0,0,.977.6h4.271a1.086,1.086,0,0,0,1-1.52l-2.248-5.188,11.8.2h.019a1.085,1.085,0,0,0,1.026-1.44L105,214.577a1.086,1.086,0,0,0-.78-.7ZM90.253,230.412a2,2,0,0,1,.891-2.372l1.7-1.006,1.9,3.755-1.608.8a2.078,2.078,0,0,1-1.724.056A2.012,2.012,0,0,1,90.253,230.412Zm5.267,6.514-1.642-3.316c.068-.03.142-.042.21-.076l1.566-.775,1.8,4.166Zm1.355-6.721-2.262-4.479,8.9-8.809,4.646,13.47Zm0,0" transform="translate(-76.032 -184.792)"/>
      <path id="Path_716401" data-name="Path 716401" d="M249.281,266.018l3.59-1.248.712,2.05-3.59,1.248Zm0,0" transform="translate(-215.454 -228.806)"/>
      <path id="Path_716402" data-name="Path 716402" d="M228.492,204.886l2.394-2.5,1.567,1.5-2.395,2.5Zm0,0" transform="translate(-197.486 -174.892)"/>
      <path id="Path_716403" data-name="Path 716403" d="M272,327.926h3.257V330.1H272Zm0,0" transform="translate(-235.09 -283.392)"/>
      <path id="Path_716404" data-name="Path 716404" d="M333.712,223.525h-2.171v-7.6H329.37v7.6H327.2v-2.171h-2.171v2.171H313.086A1.086,1.086,0,0,0,312,224.611v13.027a1.086,1.086,0,0,0,1.086,1.086h20.627a1.086,1.086,0,0,0,1.086-1.086V224.611A1.086,1.086,0,0,0,333.712,223.525Zm-1.086,13.027H314.171V225.7h18.455Zm0,0" transform="translate(-269.662 -186.591)"/>
      <path id="Path_716405" data-name="Path 716405" d="M344,303.926h4.342V306.1H344Zm0,0" transform="translate(-297.319 -262.649)"/>
      <path id="Path_716406" data-name="Path 716406" d="M392,303.926h7.6V306.1H392Zm0,0" transform="translate(-338.806 -262.649)"/>
      <path id="Path_716407" data-name="Path 716407" d="M344,335.926h14.113V338.1H344Zm0,0" transform="translate(-297.319 -290.307)"/>
      <path id="Path_716408" data-name="Path 716408" d="M1.086,186.782H17.37a1.086,1.086,0,0,0,1.086-1.086v-8.685a1.086,1.086,0,0,0-1.086-1.086H1.086A1.086,1.086,0,0,0,0,177.012V185.7A1.086,1.086,0,0,0,1.086,186.782ZM2.171,178.1H16.284v6.514H2.171Zm0,0" transform="translate(-0.001 -152.019)"/>
      <path id="Path_716409" data-name="Path 716409" d="M32,207.926h2.171V210.1H32Zm0,0" transform="translate(-27.658 -179.677)"/>
      <path id="Path_716410" data-name="Path 716410" d="M64,207.926h5.428V210.1H64Zm0,0" transform="translate(-55.316 -179.677)"/>
    </g>
  </g>
</svg>
