<svg xmlns="http://www.w3.org/2000/svg" width="116.999" height="115" viewBox="0 0 116.999 115">
  <g id="Group_1073031" data-name="Group 1073031" transform="translate(-1162 -976)">
    <g id="Group_1072941" data-name="Group 1072941" transform="translate(736.562 -6522.471)">
      <g id="Group_1015374" data-name="Group 1015374" transform="translate(425.927 7498.205)">
        <g id="Group_1015448" data-name="Group 1015448" transform="translate(0 0)">
          <g id="Group_1014855" data-name="Group 1014855" transform="translate(0 0)">
            <path id="Union_12" data-name="Union 12" d="M58.5,0C90.809,0,117,25.744,117,57.5S90.809,115,58.5,115,0,89.256,0,57.5,26.192,0,58.5,0Z" transform="translate(-0.49 0.265)" fill="#eba325"/>
            <path id="Path_608395" data-name="Path 608395" d="M49,0C76.062,0,98,22.162,98,49.5S76.062,99,49,99,0,76.838,0,49.5,21.938,0,49,0Z" transform="translate(9.51 7.265)" fill="#fef5e5"/>
          </g>
        </g>
      </g>
    </g>
    <g id="defective" transform="translate(1186 999)">
      <rect id="Rectangle_378178" data-name="Rectangle 378178" width="48.061" height="56.799" rx="2" transform="translate(3.092 9.646)" fill="#00b6bd"/>
      <path id="Path_716411" data-name="Path 716411" d="M51.061,11.185v52.43A2.191,2.191,0,0,1,48.877,65.8H5.185A2.191,2.191,0,0,1,3,63.615V61.43H37.954a8.765,8.765,0,0,0,8.738-8.738V9h2.185a2.191,2.191,0,0,1,2.185,2.185Z" transform="translate(0.092 0.646)" fill="#007579"/>
      <path id="Path_716412" data-name="Path 716412" d="M7,13.21H46.323v47.6H7Z" transform="translate(0.461 1.035)" fill="#ebe5dd"/>
      <path id="Path_716413" data-name="Path 716413" d="M46.323,13.21v47.6H7V56.443H37.584a4.369,4.369,0,0,0,4.369-4.369V13.21Z" transform="translate(0.461 1.035)" fill="#c0ab91"/>
      <rect id="Rectangle_378179" data-name="Rectangle 378179" width="19.661" height="19.661" rx="2" transform="translate(17.292 19.477)" fill="#c0ab91"/>
      <path id="Path_716414" data-name="Path 716414" d="M34.461,20.185V35.477a2.191,2.191,0,0,1-2.185,2.185H29a2.191,2.191,0,0,0,2.185-2.185V20.185A2.191,2.191,0,0,0,29,18h3.277a2.191,2.191,0,0,1,2.185,2.185Z" transform="translate(2.492 1.477)" fill="#a78966"/>
      <path id="Path_716415" data-name="Path 716415" d="M27.369,28.923l-2.185-2.185L23,28.923V18h4.369Z" transform="translate(1.938 1.477)" fill="#ffde55"/>
      <path id="Path_716416" data-name="Path 716416" d="M34.461,7.185V9.369H29V5h3.277a2.191,2.191,0,0,1,2.185,2.185Z" transform="translate(2.492 0.277)" fill="#007579"/>
      <path id="Path_716417" data-name="Path 716417" d="M21,14.152V3h8.738V15.015H21Z" transform="translate(1.754 0.092)" fill="#57a4ff"/>
      <path id="Path_716418" data-name="Path 716418" d="M21.461,5V9.369H16V7.185A2.191,2.191,0,0,1,18.185,5Z" transform="translate(1.292 0.277)" fill="#007579"/>
      <circle id="Ellipse_5735" data-name="Ellipse 5735" cx="15.292" cy="15.292" r="15.292" transform="translate(35.861 19.477)" fill="#ff7956"/>
      <path id="Path_716419" data-name="Path 716419" d="M63.371,33.079a15.286,15.286,0,0,1-28.061,8.4A15.281,15.281,0,0,0,56.479,20.31a15.258,15.258,0,0,1,6.892,12.769Z" transform="translate(3.074 1.69)" fill="#ff5023"/>
      <path id="Path_716420" data-name="Path 716420" d="M49.369,24.185v8.738a2.185,2.185,0,1,1-4.369,0V24.185a2.185,2.185,0,1,1,4.369,0Z" transform="translate(3.969 1.846)" fill="#ffde55"/>
      <circle id="Ellipse_5736" data-name="Ellipse 5736" cx="2.185" cy="2.185" r="2.185" transform="translate(48.969 41.323)" fill="#ffde55"/>
      <path id="Path_716421" data-name="Path 716421" d="M47.277,37a3.277,3.277,0,1,0,3.277,3.277A3.277,3.277,0,0,0,47.277,37Zm0,4.369a1.092,1.092,0,1,1,1.092-1.092A1.092,1.092,0,0,1,47.277,41.369Z" transform="translate(3.877 3.23)"/>
      <path id="Path_716422" data-name="Path 716422" d="M47.277,21A3.277,3.277,0,0,0,44,24.277v8.738a3.277,3.277,0,0,0,6.554,0V24.277A3.277,3.277,0,0,0,47.277,21Zm1.092,12.015a1.092,1.092,0,0,1-2.185,0V24.277a1.092,1.092,0,1,1,2.185,0Z" transform="translate(3.877 1.754)"/>
      <path id="Path_716423" data-name="Path 716423" d="M52.246,18.439V11.831a3.287,3.287,0,0,0-3.277-3.277H38.046V7.461a3.287,3.287,0,0,0-3.277-3.277H32.584V3.092A1.092,1.092,0,0,0,31.492,2H22.754a1.092,1.092,0,0,0-1.092,1.092V4.185H19.477A3.287,3.287,0,0,0,16.2,7.461V8.554H5.277A3.287,3.287,0,0,0,2,11.831v52.43a3.287,3.287,0,0,0,3.277,3.277H48.969a3.287,3.287,0,0,0,3.277-3.277V51.1a16.365,16.365,0,0,0,0-32.66ZM32.584,6.369h2.185a1.092,1.092,0,0,1,1.092,1.092V8.554H32.584Zm0,4.369H48.969a1.092,1.092,0,0,1,1.092,1.092v6.608a17.816,17.816,0,0,0-2.185.273V14.245a1.092,1.092,0,0,0-1.092-1.092h-14.2ZM23.846,4.185H30.4v9.831H23.846ZM21.705,15.337a1.076,1.076,0,0,0,1.049.863h8.738a1.076,1.076,0,0,0,1.049-.863H45.692v4.009a16.4,16.4,0,0,0-7.646,5.636V21.443a3.067,3.067,0,0,0-3.058-3.058H19.258A3.067,3.067,0,0,0,16.2,21.443V37.172a3.067,3.067,0,0,0,3.058,3.058H34.987a2.917,2.917,0,0,0,.7-.087,18.274,18.274,0,0,0,.983,2.272H19.477V44.6h18.6a16.407,16.407,0,0,0,7.613,5.593V60.755H8.554V15.337ZM35.1,38.024a.328.328,0,0,1-.109.022H19.258a.874.874,0,0,1-.874-.874V21.443a.874.874,0,0,1,.874-.874h4.588V30.4a1.078,1.078,0,0,0,.677,1,1.092,1.092,0,0,0,1.191-.229l1.409-1.42,1.409,1.42a1.1,1.1,0,0,0,.776.317.915.915,0,0,0,.415-.087,1.078,1.078,0,0,0,.677-1V20.569h4.588a.874.874,0,0,1,.874.874v7.493a16.185,16.185,0,0,0-1.092,5.833,15.973,15.973,0,0,0,.328,3.255ZM26.031,27.767v-7.2h2.185v7.2L27.9,27.44a1.1,1.1,0,0,0-1.551,0ZM18.384,7.461a1.092,1.092,0,0,1,1.092-1.092h2.185V8.554H18.384Zm31.677,56.8a1.092,1.092,0,0,1-1.092,1.092H5.277a1.092,1.092,0,0,1-1.092-1.092V11.831a1.092,1.092,0,0,1,1.092-1.092H21.661v2.414H7.461a1.092,1.092,0,0,0-1.092,1.092v47.6a1.092,1.092,0,0,0,1.092,1.092H46.784a1.092,1.092,0,0,0,1.092-1.092V50.826a17.815,17.815,0,0,0,2.185.273Zm1.092-15.292a14.2,14.2,0,1,1,14.2-14.2A14.2,14.2,0,0,1,51.153,48.969Z" transform="translate(0)"/>
      <path id="Path_716424" data-name="Path 716424" d="M14,39h2.185v2.185H14Z" transform="translate(1.108 3.415)"/>
      <path id="Path_716425" data-name="Path 716425" d="M14,43h2.185v2.185H14Z" transform="translate(1.108 3.784)"/>
      <path id="Path_716426" data-name="Path 716426" d="M18,43H37.661v2.185H18Z" transform="translate(1.477 3.784)"/>
      <path id="Path_716427" data-name="Path 716427" d="M14,47h2.185v2.185H14Z" transform="translate(1.108 4.153)"/>
      <path id="Path_716428" data-name="Path 716428" d="M18,47H37.661v2.185H18Z" transform="translate(1.477 4.153)"/>
      <path id="Path_716429" data-name="Path 716429" d="M14,51h2.185v2.185H14Z" transform="translate(1.108 4.523)"/>
      <path id="Path_716430" data-name="Path 716430" d="M18,51H37.661v2.185H18Z" transform="translate(1.477 4.523)"/>
    </g>
  </g>
</svg>
