<svg xmlns="http://www.w3.org/2000/svg" width="116.999" height="115" viewBox="0 0 116.999 115">
  <g id="Group_1073033" data-name="Group 1073033" transform="translate(-742 -15910)">
    <g id="Group_1072947" data-name="Group 1072947" transform="translate(316.562 8411.529)">
      <g id="Group_1015374" data-name="Group 1015374" transform="translate(425.927 7498.205)">
        <g id="Group_1015448" data-name="Group 1015448" transform="translate(0 0)">
          <g id="Group_1014855" data-name="Group 1014855" transform="translate(0 0)">
            <path id="Union_12" data-name="Union 12" d="M58.5,0C90.809,0,117,25.744,117,57.5S90.809,115,58.5,115,0,89.256,0,57.5,26.192,0,58.5,0Z" transform="translate(-0.49 0.265)" fill="#eba325"/>
            <path id="Path_608395" data-name="Path 608395" d="M49,0C76.062,0,98,22.162,98,49.5S76.062,99,49,99,0,76.838,0,49.5,21.938,0,49,0Z" transform="translate(9.51 7.265)" fill="#fef5e5"/>
          </g>
        </g>
      </g>
    </g>
    <g id="Layer_x0020_1" transform="translate(763.25 15816.17)">
      <path id="Path_716477" data-name="Path 716477" d="M62.46,128.676a.929.929,0,0,0,0,1.853c3.618,0,4.5,5.074,1.191,6.265,0,.794-.221,1.588-1.191,1.588s-1.147-.794-1.147-1.588c-1.765-.618-2.956-3.309-1.1-3.706a1.186,1.186,0,0,1,1.368.927.925.925,0,0,0,1.809-.265.9.9,0,0,0-.927-.882c-3.618,0-4.412-5.03-1.147-6.31,0-.794.176-1.588,1.147-1.588,1.015,0,1.191.794,1.191,1.588,1.677.662,2.956,3.221,1.147,3.662a1.186,1.186,0,0,1-1.456-.838A.9.9,0,0,0,62.46,128.676Zm-47.7,54.977a2.318,2.318,0,0,1-1.5-.662L.379,170.108a1.851,1.851,0,0,1,0-2.78l10.369-10.369a15.255,15.255,0,0,1,12.972-4.5L45.649,154.8,52,148.488a6.991,6.991,0,0,1,6.927-2.162c2.25-1.456,4.456-2.118,6.574-1.1,4.456-2.294,9.575,1.368,9.575,5.912a6.253,6.253,0,0,1-2.03,4.721L54.341,174.564A10.738,10.738,0,0,1,46.4,177.7l-21.179-.574c-.441.176-9.31,6.31-10.016,6.486C15.072,183.61,14.939,183.654,14.763,183.654Zm33.754-28.371a6.667,6.667,0,0,1,.794.4c2.118-2.339,4.236-4.854,6.618-7.016a5.922,5.922,0,0,0-2.25,1.456Zm2.559,1.9a6.313,6.313,0,0,1,.485.662l11.56-10.722C59.283,147.385,53.635,154.4,51.076,157.18ZM2.32,168.7l12.443,12.443,8.472-5.471L9.468,161.548Zm23.341,6.089,20.782.574a8.517,8.517,0,0,0,6.221-2.471L71.373,154.18a4,4,0,0,0,1.324-3.044,4.322,4.322,0,0,0-6.574-3.574c-.485.309-12.4,11.472-13.811,12.8.044,2.647-.265,5.6-3.662,5.6H29.368a1.17,1.17,0,0,1,0-2.339H48.649c1.544,0,1.324-1.765,1.324-3.133a3.591,3.591,0,0,0-3.353-3.221l-23.385-2.515c-3.662-.662-8.075,1.1-10.81,3.839l-1.28,1.28ZM15.2,178.315a3.177,3.177,0,1,1,3.177-3.177A3.183,3.183,0,0,1,15.2,178.315Zm0-3.971a.8.8,0,0,0,0,1.588A.795.795,0,1,0,15.2,174.344Zm27.445-28.5v-3.486H40.487v3.486Zm-4.5,0v-4.633a1.178,1.178,0,0,1,1.147-1.191h4.5a1.186,1.186,0,0,1,1.191,1.191v4.633c.971,0,2.647-.265,2.647,1.191a1.178,1.178,0,0,1-1.191,1.147H10.218a1.17,1.17,0,0,1,0-2.339h1.456V126.206a1.186,1.186,0,0,1,1.191-1.191h4.5a1.186,1.186,0,0,1,1.191,1.191V145.84H20.5V132.162a1.15,1.15,0,0,1,1.191-1.147h4.5a1.139,1.139,0,0,1,1.147,1.147V145.84h1.986v-8.913a1.178,1.178,0,0,1,1.191-1.147h4.5a1.168,1.168,0,0,1,1.147,1.147v8.913Zm-24.135,0h2.162V127.353H14.013Zm8.825,0H25V133.353H22.837Zm8.825,0h2.162v-7.722H31.662Zm11.3-11.781L21.778,121a1.17,1.17,0,0,1,1.235-1.986l21.311,13.1c.088-.971-.132-2.912,1.368-2.824a1.151,1.151,0,0,1,1.1,1.235c-.044.75-.088,3.75-.441,4.236a14.162,14.162,0,0,1-4.28,2.206,1.2,1.2,0,0,1-.529-2.25Zm19.5,7.236a9.619,9.619,0,1,1,9.619-9.619A9.641,9.641,0,0,1,62.46,141.3Zm0-16.9a7.258,7.258,0,1,0,7.28,7.28A7.278,7.278,0,0,0,62.46,124.4Z" transform="translate(0 0)" fill="#333" fill-rule="evenodd"/>
      <path id="Path_716478" data-name="Path 716478" d="M325.162,330.488V312H323v18.488Z" transform="translate(-308.987 -184.647)" fill="#1aa1ff" fill-rule="evenodd"/>
      <path id="Path_716479" data-name="Path 716479" d="M523,448v12.487h2.162V448Z" transform="translate(-500.163 -314.647)" fill="#7dd63e" fill-rule="evenodd"/>
      <path id="Path_716480" data-name="Path 716480" d="M723,556v7.722h2.162V556Z" transform="translate(-691.338 -417.881)" fill="#ffa721" fill-rule="evenodd"/>
      <path id="Path_716481" data-name="Path 716481" d="M923,652v3.486h2.162V652Z" transform="translate(-882.513 -509.645)" fill="#ff3131" fill-rule="evenodd"/>
      <g id="Group_1072982" data-name="Group 1072982" transform="translate(11.145 146.878)">
        <path id="Path_716482" data-name="Path 716482" d="M293.475,764.914,270.09,762.4c-3.662-.662-8.075,1.1-10.81,3.839l-1.28,1.28,14.516,14.914L293.3,783a8.517,8.517,0,0,0,6.221-2.471l18.708-18.708a4,4,0,0,0,1.324-3.044,4.322,4.322,0,0,0-6.574-3.574c-.485.309-12.4,11.472-13.811,12.8.044,2.647-.265,5.6-3.662,5.6H276.223a1.17,1.17,0,0,1,0-2.339H295.5c1.544,0,1.324-1.765,1.324-3.133A3.591,3.591,0,0,0,293.475,764.914Z" transform="translate(-258 -754.524)" fill="#ff9e5c" fill-rule="evenodd"/>
        <path id="Path_716483" data-name="Path 716483" d="M1175.046,760c-3.839.265-9.486,7.28-12.046,10.06a6.311,6.311,0,0,1,.485.662Z" transform="translate(-1123.069 -759.758)" fill="#ff9e5c" fill-rule="evenodd"/>
        <path id="Path_716484" data-name="Path 716484" d="M1105.794,802.016c2.118-2.339,4.236-4.854,6.618-7.016a5.921,5.921,0,0,0-2.25,1.456L1105,801.618A6.674,6.674,0,0,1,1105.794,802.016Z" transform="translate(-1067.628 -793.214)" fill="#ff9e5c" fill-rule="evenodd"/>
      </g>
      <path id="Path_716485" data-name="Path 716485" d="M1257,252.28a7.258,7.258,0,1,0,7.236-7.28A7.24,7.24,0,0,0,1257,252.28Zm7.236,1.191c-3.618,0-4.412-5.03-1.147-6.31,0-.794.177-1.588,1.147-1.588,1.015,0,1.191.794,1.191,1.588,1.677.662,2.956,3.221,1.147,3.662a1.186,1.186,0,0,1-1.456-.838.9.9,0,0,0-.882-.706.929.929,0,0,0,0,1.853c3.618,0,4.5,5.074,1.191,6.265,0,.794-.221,1.588-1.191,1.588s-1.147-.794-1.147-1.588c-1.765-.618-2.956-3.309-1.1-3.706a1.186,1.186,0,0,1,1.368.927.925.925,0,0,0,1.809-.265A.9.9,0,0,0,1264.236,253.472Z" transform="translate(-1201.776 -120.604)" fill="#ffa721" fill-rule="evenodd"/>
      <path id="Path_716486" data-name="Path 716486" d="M78.914,1101.119,65.148,1087,58,1094.148l12.443,12.443Zm-11.163-.529a3.155,3.155,0,1,1,6.31,0,3.155,3.155,0,1,1-6.31,0Z" transform="translate(-55.68 -925.452)" fill="#1aa1ff" fill-rule="evenodd"/>
      <path id="Path_716487" data-name="Path 716487" d="M333.511,1378.588a.794.794,0,1,0,0-1.588A.794.794,0,0,0,333.511,1378.588Z" transform="translate(-318.307 -1202.656)" fill="#ccc" fill-rule="evenodd"/>
    </g>
  </g>
</svg>
