<svg xmlns="http://www.w3.org/2000/svg" width="85" height="85" viewBox="0 0 85 85">
  <g id="Group_1073036" data-name="Group 1073036" transform="translate(-285 -9146)">
    <circle id="Ellipse_5730" data-name="Ellipse 5730" cx="42.5" cy="42.5" r="42.5" transform="translate(285 9146)" fill="#0c5e46"/>
    <g id="usuario" transform="translate(267.5 9160)">
      <path id="Path_716506" data-name="Path 716506" d="M136.912,348.014H122.266a1.22,1.22,0,0,0-1.22,1.22v4.88a1.22,1.22,0,0,0,1.22,1.22h14.646a1.22,1.22,0,0,0,1.22-1.22v-4.88A1.22,1.22,0,0,0,136.912,348.014Zm-1.22,4.88H123.486v-2.44h12.206v2.44Z" transform="translate(-75.983 -308.651)" fill="#fff"/>
      <path id="Path_716507" data-name="Path 716507" d="M80.919,6.744a1.154,1.154,0,0,0-1.629.1l-3.19,3.6a9.4,9.4,0,0,0-4.814-2.592V3.462A3.465,3.465,0,0,0,67.825,0H38.962A3.465,3.465,0,0,0,35.5,3.462V50.538A3.465,3.465,0,0,0,38.962,54H67.825a3.465,3.465,0,0,0,3.462-3.462V26.289A9.395,9.395,0,0,0,77.537,12.3l3.48-3.926A1.154,1.154,0,0,0,80.919,6.744ZM59.158,2.308l-.337,1.458a1.186,1.186,0,0,1-1.162.923H49.481a1.187,1.187,0,0,1-1.162-.923l-.337-1.458Zm8.666,49.385H38.962a1.155,1.155,0,0,1-1.154-1.154V3.462a1.155,1.155,0,0,1,1.154-1.154h6.653l.457,1.977A3.484,3.484,0,0,0,49.482,7H57.66a3.484,3.484,0,0,0,3.41-2.711l.457-1.977h6.3a1.155,1.155,0,0,1,1.154,1.154V7.677a9.4,9.4,0,0,0,0,18.785V50.538A1.155,1.155,0,0,1,67.825,51.692Zm8.71-34.623a7.111,7.111,0,1,1-1.969-4.9l-5.1,5.757-2.933-2.9a1.154,1.154,0,1,0-1.623,1.64l3.8,3.759a1.154,1.154,0,0,0,1.675-.055l5.52-6.228a7.045,7.045,0,0,1,.633,2.924Z" fill="#fff"/>
      <path id="Path_716508" data-name="Path 716508" d="M237.814,233a1.22,1.22,0,0,0-1.22,1.22v4.27h-4.272a1.22,1.22,0,1,0,0,2.44h5.492a1.22,1.22,0,0,0,1.22-1.22V234.22A1.22,1.22,0,0,0,237.814,233Z" transform="translate(-173.286 -206.364)" fill="#fff"/>
      <path id="Path_716509" data-name="Path 716509" d="M93.96,239.72a1.22,1.22,0,0,0-1.22-1.22H88.468v-4.268a1.22,1.22,0,0,0-2.44,0v5.488a1.22,1.22,0,0,0,1.22,1.22H92.74A1.22,1.22,0,0,0,93.96,239.72Z" transform="translate(-44.364 -206.374)" fill="#fff"/>
      <path id="Path_716510" data-name="Path 716510" d="M87.248,95.931a1.22,1.22,0,0,0,1.22-1.22V90.44H92.74a1.22,1.22,0,1,0,0-2.44H87.248a1.22,1.22,0,0,0-1.22,1.22v5.491A1.22,1.22,0,0,0,87.248,95.931Z" transform="translate(-44.364 -77.94)" fill="#fff"/>
      <path id="Path_716511" data-name="Path 716511" d="M130.065,128a7.509,7.509,0,0,0-4.017,6.716,1.22,1.22,0,0,0,2.44,0,5.017,5.017,0,0,1,4.674-5.084,5.43,5.43,0,0,0,1.636,0,5.017,5.017,0,0,1,4.676,5.084,1.22,1.22,0,0,0,2.44,0A7.509,7.509,0,0,0,137.9,128a5.376,5.376,0,1,0-7.832,0Zm3.916-6.588a2.932,2.932,0,0,1,2.936,2.921,2.891,2.891,0,0,1-3.217,2.849,3.014,3.014,0,0,1-2.655-2.849A2.932,2.932,0,0,1,133.981,121.407Z" transform="translate(-80.392 -105.572)" fill="#fff"/>
    </g>
  </g>
</svg>
