<svg xmlns="http://www.w3.org/2000/svg" width="85" height="85" viewBox="0 0 85 85">
  <g id="Group_1073037" data-name="Group 1073037" transform="translate(-285 -9286)">
    <circle id="Ellipse_5731" data-name="Ellipse 5731" cx="42.5" cy="42.5" r="42.5" transform="translate(285 9286)" fill="#0c5e46"/>
    <g id="objetivo_2_" data-name="objetivo (2)" transform="translate(295.396 9296.463)">
      <g id="Group_1072999" data-name="Group 1072999" transform="translate(5.604 8.537)">
        <g id="Group_1072998" data-name="Group 1072998">
          <path id="Path_716512" data-name="Path 716512" d="M152.206,153.794A1.294,1.294,0,0,0,153.5,152.5v-1.38a10.98,10.98,0,0,0-6.282-9.914A7.847,7.847,0,1,0,135.984,130.6c0-.066.005-.132.005-.2a9.489,9.489,0,1,0-18.978,0c0,.066,0,.132.005.2a7.847,7.847,0,1,0-11.23,10.608,10.9,10.9,0,0,0-1.074.581,1.294,1.294,0,1,0,1.358,2.2,8.379,8.379,0,0,1,8.141-.351A15.014,15.014,0,0,0,111.4,152.4v7.089h-9.316V151.12a8.289,8.289,0,0,1,.827-3.632,1.294,1.294,0,0,0-2.331-1.125A10.857,10.857,0,0,0,99.5,151.12v9.661a1.294,1.294,0,0,0,1.294,1.294H111.4V166.2a1.294,1.294,0,0,0,1.294,1.294h2.76a1.294,1.294,0,0,0,0-2.588h-1.466V152.4a12.508,12.508,0,1,1,25.016,0v12.508h-18a1.294,1.294,0,1,0,0,2.588H140.3A1.294,1.294,0,0,0,141.6,166.2v-4.126h10.61a1.294,1.294,0,0,0,1.294-1.294v-2.76a1.294,1.294,0,0,0-2.588,0v1.466H141.6V152.4a15.013,15.013,0,0,0-2.807-8.758,8.368,8.368,0,0,1,12.123,7.479v1.38A1.294,1.294,0,0,0,152.206,153.794Zm-41.751-13.629a5.262,5.262,0,1,1,5.262-5.262A5.268,5.268,0,0,1,110.455,140.164Zm5.476,1.467q-.4-.229-.806-.424a7.843,7.843,0,0,0,3.173-6.043,9.561,9.561,0,0,0,2.9,3.1A15.135,15.135,0,0,0,115.931,141.631ZM126.5,137.3a6.9,6.9,0,1,1,6.9-6.9A6.909,6.909,0,0,1,126.5,137.3Zm10.569,4.328a15.135,15.135,0,0,0-5.265-3.365,9.561,9.561,0,0,0,2.9-3.1,7.843,7.843,0,0,0,3.173,6.043Q137.465,141.4,137.069,141.631Zm5.476-1.467a5.262,5.262,0,1,1,5.262-5.262A5.268,5.268,0,0,1,142.545,140.164Z" transform="translate(-99.5 -120.913)" fill="#fff"/>
        </g>
      </g>
      <g id="Group_1073017" data-name="Group 1073017" transform="translate(26.757 34.757)">
        <g id="Group_1073016" data-name="Group 1073016">
          <path id="Path_716521" data-name="Path 716521" d="M224.841,277.844a1.026,1.026,0,0,0-1.427.258l-4.427,6.378L215,280.517a1.025,1.025,0,1,0-1.446,1.454l4.855,4.825a1.024,1.024,0,0,0,.723.3c.031,0,.062,0,.093,0a1.026,1.026,0,0,0,.749-.436l5.125-7.383A1.025,1.025,0,0,0,224.841,277.844Z" transform="translate(-213.251 -277.661)" fill="#fff"/>
        </g>
      </g>
    </g>
  </g>
</svg>
