<svg xmlns="http://www.w3.org/2000/svg" width="85" height="85" viewBox="0 0 85 85">
  <g id="Group_1073038" data-name="Group 1073038" transform="translate(-285 -9417)">
    <circle id="Ellipse_5732" data-name="Ellipse 5732" cx="42.5" cy="42.5" r="42.5" transform="translate(285 9417)" fill="#0c5e46"/>
    <g id="grupo-de-chat" transform="translate(301 9422.5)">
      <path id="Path_716522" data-name="Path 716522" d="M47.845,87.474H44.687a.787.787,0,1,1,0-1.574h3.158a.787.787,0,0,1,0,1.574Z" transform="translate(-39.294 -66.593)" fill="#fff" stroke="#fff" stroke-width="0.5"/>
      <g id="Group_1073018" data-name="Group 1073018" transform="translate(4.669 15.561)">
        <path id="Path_716523" data-name="Path 716523" d="M45.287,52.026a.793.793,0,0,1-.787-.787v-.252a.787.787,0,1,1,1.574,0v.252A.793.793,0,0,1,45.287,52.026Z" transform="translate(-44.5 -50.2)" fill="#fff" stroke="#fff" stroke-width="0.5"/>
        <path id="Path_716524" data-name="Path 716524" d="M75.387,52.026a.793.793,0,0,1-.787-.787v-.252a.787.787,0,1,1,1.574,0v.252A.793.793,0,0,1,75.387,52.026Z" transform="translate(-71.442 -50.2)" fill="#fff" stroke="#fff" stroke-width="0.5"/>
      </g>
      <path id="Path_716525" data-name="Path 716525" d="M224.808,72.174h-3.221a.787.787,0,1,1,0-1.574h3.221a.787.787,0,1,1,0,1.574Z" transform="translate(-197.632 -52.899)" fill="#fff" stroke="#fff" stroke-width="0.5"/>
      <path id="Path_716526" data-name="Path 716526" d="M298.516,72.174H281.287a.787.787,0,0,1,0-1.574h17.229a.787.787,0,1,1,0,1.574Z" transform="translate(-251.068 -52.899)" fill="#fff" stroke="#fff" stroke-width="0.5"/>
      <path id="Path_716527" data-name="Path 716527" d="M46.361,439.193A2.364,2.364,0,0,1,44,436.832c0-1.3.357-.787.787-.787a.793.793,0,0,1,.787.787.787.787,0,1,0,1.574,0,.787.787,0,0,1,1.574,0A2.364,2.364,0,0,1,46.361,439.193Z" transform="translate(-39.383 -379.91)" fill="#fff" stroke="#fff" stroke-width="0.5"/>
      <g id="Group_1073019" data-name="Group 1073019" transform="translate(4.669 52.883)">
        <path id="Path_716528" data-name="Path 716528" d="M45.287,407.726a.793.793,0,0,1-.787-.787v-.252a.787.787,0,1,1,1.574,0v.252A.793.793,0,0,1,45.287,407.726Z" transform="translate(-44.5 -405.9)" fill="#fff" stroke="#fff" stroke-width="0.5"/>
        <path id="Path_716529" data-name="Path 716529" d="M75.387,407.726a.793.793,0,0,1-.787-.787v-.252a.787.787,0,1,1,1.574,0v.252A.793.793,0,0,1,75.387,407.726Z" transform="translate(-71.442 -405.9)" fill="#fff" stroke="#fff" stroke-width="0.5"/>
      </g>
      <path id="Path_716530" data-name="Path 716530" d="M413.98,427.974h-3.693a.787.787,0,1,1,0-1.574h3.693a.787.787,0,1,1,0,1.574Z" transform="translate(-366.533 -371.366)" fill="#fff" stroke="#fff" stroke-width="0.5"/>
      <path id="Path_716531" data-name="Path 716531" d="M238.134,427.974H221.587a.787.787,0,1,1,0-1.574h16.547a.787.787,0,1,1,0,1.574Z" transform="translate(-197.632 -371.366)" fill="#fff" stroke="#fff" stroke-width="0.5"/>
      <path id="Path_716532" data-name="Path 716532" d="M427.035,260.148a.793.793,0,0,1-.787-.787.787.787,0,0,0-1.574,0,.787.787,0,1,1-1.574,0,2.361,2.361,0,1,1,4.722,0C427.822,260.662,427.465,260.148,427.035,260.148Z" transform="translate(-378.706 -219.741)" fill="#fff" stroke="#fff" stroke-width="0.5"/>
      <g id="Group_1073020" data-name="Group 1073020" transform="translate(44.447 34.216)">
        <path id="Path_716533" data-name="Path 716533" d="M424.387,229.826a.793.793,0,0,1-.787-.787v-.252a.787.787,0,0,1,1.574,0v.252A.793.793,0,0,1,424.387,229.826Z" transform="translate(-423.6 -228)" fill="#fff" stroke="#fff" stroke-width="0.5"/>
        <path id="Path_716534" data-name="Path 716534" d="M454.487,229.826a.793.793,0,0,1-.787-.787v-.252a.787.787,0,0,1,1.574,0v.252A.793.793,0,0,1,454.487,229.826Z" transform="translate(-450.542 -228)" fill="#fff" stroke="#fff" stroke-width="0.5"/>
      </g>
      <path id="Path_716535" data-name="Path 716535" d="M76.58,250.074H53.087a.787.787,0,0,1,0-1.574H76.569a.787.787,0,0,1,0,1.574Z" transform="translate(-46.812 -212.133)" fill="#fff" stroke="#fff" stroke-width="0.5"/>
      <path id="Path_716536" data-name="Path 716536" d="M186.422,28.4H154.577a2.1,2.1,0,0,1-2.1-2.1V24.045l-1.532-1.437a1.116,1.116,0,0,1,0-1.616l1.532-1.437V17.3a2.1,2.1,0,0,1,2.1-2.1h31.845a2.1,2.1,0,0,1,2.1,2.1v8.992a2.1,2.1,0,0,1-2.1,2.1Zm-34.028-6.6,1.312,1.228a1.119,1.119,0,0,1,.346.808V26.3a.52.52,0,0,0,.525.525h31.845a.52.52,0,0,0,.525-.525V17.309a.52.52,0,0,0-.525-.525H154.577a.52.52,0,0,0-.525.525v2.466a1.119,1.119,0,0,1-.346.808l-1.312,1.228Z" transform="translate(-134.798 -3.312)" fill="#fff" stroke="#fff" stroke-width="0.5"/>
      <path id="Path_716537" data-name="Path 716537" d="M6.978,381.255a6.978,6.978,0,1,1,6.978-6.978A6.988,6.988,0,0,1,6.978,381.255Zm0-12.371a5.4,5.4,0,1,0,5.4,5.4A5.409,5.409,0,0,0,6.978,368.884Z" transform="translate(0 -318.467)" fill="#fff" stroke="#fff" stroke-width="0.5"/>
      <path id="Path_716538" data-name="Path 716538" d="M385.978,203.455a6.978,6.978,0,1,1,6.978-6.978A6.988,6.988,0,0,1,385.978,203.455Zm0-12.381a5.4,5.4,0,1,0,5.4,5.4A5.409,5.409,0,0,0,385.978,191.074Z" transform="translate(-339.233 -159.323)" fill="#fff" stroke="#fff" stroke-width="0.5"/>
      <path id="Path_716539" data-name="Path 716539" d="M33.944,206.3H2.1A2.1,2.1,0,0,1,0,204.2v-8.992a2.1,2.1,0,0,1,2.1-2.1h4.27a.787.787,0,1,1,0,1.574H2.1a.52.52,0,0,0-.525.525V204.2a.52.52,0,0,0,.525.525H33.944a.52.52,0,0,0,.525-.525v-2.466a1.119,1.119,0,0,1,.346-.808l1.312-1.228-1.312-1.228a1.119,1.119,0,0,1-.346-.808V195.2a.52.52,0,0,0-.525-.525h-23.9a.787.787,0,1,1,0-1.574H33.954a2.1,2.1,0,0,1,2.1,2.1v2.256l1.532,1.437a1.116,1.116,0,0,1,0,1.616l-1.532,1.437V204.2a2.1,2.1,0,0,1-2.1,2.1Z" transform="translate(0 -162.545)" fill="#fff" stroke="#fff" stroke-width="0.5"/>
      <path id="Path_716540" data-name="Path 716540" d="M186.422,384.1H154.577a2.1,2.1,0,0,1-2.1-2.1v-2.256l-1.532-1.437a1.116,1.116,0,0,1,0-1.616l1.532-1.437V373a2.1,2.1,0,0,1,2.1-2.1h5.11a.787.787,0,1,1,0,1.574h-5.11a.52.52,0,0,0-.525.525v2.466a1.119,1.119,0,0,1-.346.808l-1.312,1.228,1.312,1.228a1.119,1.119,0,0,1,.346.808V382a.52.52,0,0,0,.525.525h31.845a.52.52,0,0,0,.525-.525v-8.992a.52.52,0,0,0-.525-.525H163.359a.787.787,0,1,1,0-1.574h23.063a2.1,2.1,0,0,1,2.1,2.1V382A2.1,2.1,0,0,1,186.422,384.1Z" transform="translate(-134.798 -321.69)" fill="#fff" stroke="#fff" stroke-width="0.5"/>
      <path id="Path_716541" data-name="Path 716541" d="M6.978,25.466A6.981,6.981,0,0,1,0,18.488c0-3.851.22-2.025.661-2.959a.789.789,0,0,1,1.427.672,5.4,5.4,0,1,0,4.89-3.116c-2.98,0-1.9.252-2.728.734a.79.79,0,0,1-.8-1.364,6.978,6.978,0,1,1,3.526,13Z" fill="#fff" stroke="#fff" stroke-width="0.5"/>
    </g>
  </g>
</svg>
