<svg xmlns="http://www.w3.org/2000/svg" width="85" height="85" viewBox="0 0 85 85">
  <g id="Group_1073039" data-name="Group 1073039" transform="translate(-285 -9554)">
    <circle id="Ellipse_5733" data-name="Ellipse 5733" cx="42.5" cy="42.5" r="42.5" transform="translate(285 9554)" fill="#0c5e46"/>
    <path id="estado-de-resultados" d="M53.118,23.29a5.95,5.95,0,1,1-5.95,5.95A5.95,5.95,0,0,1,53.118,23.29Zm3.133,2.817a4.43,4.43,0,1,0,0,6.265A4.431,4.431,0,0,0,56.25,26.107Zm-.258,9.635h2.7a.76.76,0,0,1,.76.76v4.4a.76.76,0,0,1-.76.76h-2.7a.76.76,0,0,1-.76-.76V36.5A.76.76,0,0,1,55.992,35.742Zm1.942,1.52H56.752V40.14h1.182Zm3.1-5.481h2.7a.76.76,0,0,1,.76.76V40.9a.76.76,0,0,1-.76.76h-2.7a.76.76,0,0,1-.76-.76V32.54A.76.76,0,0,1,61.037,31.781Zm1.942,1.52H61.8V40.14h1.182Zm3.153-4.017h2.7a.76.76,0,0,1,.76.76V40.9a.76.76,0,0,1-.76.76h-2.7a.76.76,0,0,1-.76-.76V30.043A.76.76,0,0,1,66.132,29.284Zm1.942,1.52H66.892V40.14h1.182Zm3.193-4.609h2.7a.76.76,0,0,1,.76.76V40.9a.76.76,0,0,1-.76.76h-2.7a.76.76,0,0,1-.76-.76V26.954A.76.76,0,0,1,71.267,26.194Zm1.942,1.52H72.027V40.14h1.182Zm6.416,18.015V17.52H42.182V68.11H79.625V62.451a8.4,8.4,0,0,1,0-16.723Zm1.52,16.723a8.4,8.4,0,0,0,0-16.723V16.76a.76.76,0,0,0-.76-.76H41.422a.76.76,0,0,0-.76.76v52.11a.76.76,0,0,0,.76.76H80.385a.76.76,0,0,0,.76-.76V62.451Zm-3.1-21.1V20.9a.76.76,0,0,0-.76-.76H44.518a.76.76,0,0,0-.76.76V64.728a.76.76,0,0,0,.76.76H76.1a.76.76,0,1,0,0-1.52H45.278V21.661h31.25V41.348a.76.76,0,0,0,1.52,0Zm7.2,7.88a6.876,6.876,0,1,1-9.723,0,6.876,6.876,0,0,1,9.723,0ZM83.9,50.852a.76.76,0,1,1,1.074,1.075l-5.4,5.4a.76.76,0,0,1-1.075,0l-2.708-2.708a.76.76,0,1,1,1.074-1.075l2.17,2.17ZM55.992,44.971a.76.76,0,0,1,0-1.52H73.969a.76.76,0,0,1,0,1.52Zm-3.011,3.405a5.813,5.813,0,1,1-5.813,5.813A5.814,5.814,0,0,1,52.981,48.376Zm3.036,2.777a4.283,4.283,0,0,1,1.19,2.276H53.741V49.963A4.283,4.283,0,0,1,56.017,51.153Zm-3.8-1.19v3.958L49.71,56.97A4.3,4.3,0,0,1,52.221,49.963Zm-1.343,7.971,2.458-2.984h3.872A4.3,4.3,0,0,1,50.878,57.934ZM65.139,50.48a.76.76,0,1,1,0,1.52h-2.67a.76.76,0,1,1,0-1.52ZM70,54.117a.76.76,0,0,1,0,1.52H62.47a.76.76,0,1,1,0-1.52Z" transform="translate(265.942 9551.658)" fill="#fff" fill-rule="evenodd"/>
  </g>
</svg>
