<svg xmlns="http://www.w3.org/2000/svg" xmlns:xlink="http://www.w3.org/1999/xlink" width="1029.999" height="536.399" viewBox="0 0 1029.999 536.399">
  <defs>
    <linearGradient id="linear-gradient" x1="0.5" x2="0.5" y2="1" gradientUnits="objectBoundingBox">
      <stop offset="0" stop-color="#e1efe3"/>
      <stop offset="1" stop-color="#fff"/>
    </linearGradient>
    <clipPath id="clip-path">
      <rect id="Rectangle_377756" data-name="Rectangle 377756" width="904.135" height="438.871" fill="none"/>
    </clipPath>
    <linearGradient id="linear-gradient-2" x1="0.5" x2="0.5" y2="1" gradientUnits="objectBoundingBox">
      <stop offset="0" stop-color="#fef5e5"/>
      <stop offset="0.137" stop-color="#fffefc"/>
      <stop offset="0.479" stop-color="#fff"/>
      <stop offset="0.773" stop-color="#fffefd"/>
      <stop offset="1" stop-color="#fef7ea"/>
    </linearGradient>
  </defs>
  <g id="Group_1073024" data-name="Group 1073024" transform="translate(-285 -10240.001)">
    <path id="Path_716598" data-name="Path 716598" d="M0,0H1030V536.4H0Z" transform="translate(1314.999 10776.4) rotate(180)" fill="url(#linear-gradient)"/>
    <g id="Group_1072440" data-name="Group 1072440" transform="translate(387.299 10270.962)">
      <path id="Path_609717" data-name="Path 609717" d="M10.525,0,0,10.524l2.666,2.667,7.859-7.857,7.858,7.857,2.666-2.667Z" transform="translate(0 0)" fill="#18b8c4"/>
      <path id="Path_609718" data-name="Path 609718" d="M7.751,23.5l4.131-4.13,4.13,4.13,2.666-2.666-6.8-6.8-6.8,6.8Z" transform="translate(-1.357 -3.745)" fill="#18b8c4"/>
      <path id="Path_609719" data-name="Path 609719" d="M1210.7,566.024l9.829,9.832-9.829,9.83,3.336,3.337,13.167-13.167-13.167-13.167Z" transform="translate(-323.069 -145.548)" fill="#18b8c4"/>
      <path id="Path_609720" data-name="Path 609720" d="M1199.5,572.384l5.167,5.167-5.167,5.167,3.336,3.336,8.5-8.5-8.5-8.5Z" transform="translate(-320.08 -147.245)" fill="#18b8c4"/>
      <path id="Path_609721" data-name="Path 609721" d="M1171.872,368.83l-4.707.331.975,13.868-13.867.978.331,4.706,18.574-1.308Z" transform="translate(-308.012 -93.818)" fill="#ad1c1c"/>
      <path id="Path_609722" data-name="Path 609722" d="M1156.764,366.619l.512,7.289-7.288.514.331,4.705,12-.843-.846-12Z" transform="translate(-306.868 -93.14)" fill="#ad1c1c"/>
      <g id="Group_1072439" data-name="Group 1072439" transform="translate(0 4.602)">
        <g id="Group_1072438" data-name="Group 1072438" clip-path="url(#clip-path)">
          <path id="Path_609723" data-name="Path 609723" d="M144.79,458.162c-3.633.3-7.271.564-10.9.919-4.109.4-8.229.635-12.349.729a77.284,77.284,0,0,1-7.958.245c-.056-.247-.166-.44-.452-.471a33.7,33.7,0,0,1-10.351-2.93c-2.535-1.157-5.15-2.22-7.2-4.227A1.859,1.859,0,0,0,96.8,450.4c-.037-2.328-.012-4.657-.012-6.986,0-2.867,0-2.895,2.821-2.95.978-.019,1.592-.4,1.647-1.36a1.365,1.365,0,0,0-1.46-1.447c-2.9-.069-5.776-.32-8.661-.53a1.341,1.341,0,0,0-1.5,1.237,1.266,1.266,0,0,0,1.137,1.531,9.081,9.081,0,0,0,1.974.2c.927-.037,1.23.3,1.218,1.235-.043,3.326-.007,6.653,0,9.98a18.842,18.842,0,0,1-3.513-2.785c-1.312-1.129-2.308-2.6-3.8-3.54l-1.32-1.655-.3-.326.011.012-.294-.3.007.011c-.521-1.345-1.809-2.194-2.3-3.557.938.1,1.875.221,2.817.279.9.056,1.622-.289,1.744-1.26.112-.9-.38-1.4-1.295-1.512-1.814-.216-3.614-.732-5.457-.21a13.856,13.856,0,0,0-.691-1.54,46.126,46.126,0,0,1-3.1-6.172q6.246.47,12.494.935c2.084.151,4.17.357,6.257.392,6.562.108,13.123.539,19.687.281,9.444-.371,18.893-.715,28.288-1.863,3.3-.4,6.594-.782,9.887-1.208,1.121-.144,1.686-.037,1.674,1.4-.075,8.945-.057,17.892-.012,26.837.005,1.11-.31,1.452-1.416,1.532a8.166,8.166,0,0,0-2.932.441,44.531,44.531,0,0,0-5.612.647m-25.128-20.521a18.666,18.666,0,0,0-2.135.016,1.608,1.608,0,0,0-1.639,1.762c.023,3.848.018,7.7,0,11.546a1.4,1.4,0,0,0,1.419,1.609c.884.019,1.339-.672,1.4-1.511s.015-1.709.029-2.565c.02-1.356.419-1.606,1.633-.966a3.721,3.721,0,0,1,2.11,3.307,1.351,1.351,0,0,0,1.46,1.423,1.4,1.4,0,0,0,1.344-1.56,5.1,5.1,0,0,0-1.038-3.338c-.744-.876-.6-1.436.034-2.29a4.577,4.577,0,0,0-2.078-7.322,7.954,7.954,0,0,0-2.544-.111m-7.192,9.083h-.005c0-1.424.054-2.851-.012-4.272a4.657,4.657,0,0,0-4.4-4.57,4.515,4.515,0,0,0-4.76,3.962c-.45,3.064-.117,6.158-.167,9.238a1.756,1.756,0,0,0,.185.681,1.316,1.316,0,0,0,1.57.916,1.257,1.257,0,0,0,1.045-1.336,18.885,18.885,0,0,0-.011-2.419c-.173-1.4.379-1.8,1.739-1.714,2.209.136,1.949-.2,1.971,2.023.005.474,0,.949,0,1.425.007.992.051,2.028,1.385,2.046,1.312.018,1.452-.977,1.456-1.991.006-1.329,0-2.658,0-3.988m20.545-1.617c0,1.57,0,3.139,0,4.709a1.282,1.282,0,0,0,1.081,1.45,1.315,1.315,0,0,0,1.585-1.093,5.35,5.35,0,0,0,.154-1.4c.015-2.378.007-4.756.007-7.134,0-2.569,0-2.595,2.609-2.9,1.041-.124,1.823-.508,1.682-1.65-.147-1.18-1.108-1.274-2.073-1.168q-3.673.4-7.344.837a5.466,5.466,0,0,0-1.381.325,1.223,1.223,0,0,0-.8,1.37,1.2,1.2,0,0,0,1.231,1.151,15.857,15.857,0,0,0,1.995-.052c1.048-.14,1.312.315,1.266,1.284-.067,1.424-.017,2.853-.013,4.28" transform="translate(-20.407 -114.011)" fill="#eba325"/>
          <path id="Path_609724" data-name="Path 609724" d="M71.691,428.758a46.083,46.083,0,0,0,3.1,6.172,13.718,13.718,0,0,1,.69,1.54c-1.734,1.073-2.712,2.582-2.3,4.651a4.7,4.7,0,0,0,4,3.931,5.45,5.45,0,0,1,.965.246,1.785,1.785,0,0,1,1.219,2.15c-.216,1.057-1.09,1.028-1.936.911-.892-.122-1.779-.288-2.673-.361a1.383,1.383,0,0,0-1.595,1.111,1.157,1.157,0,0,0,.786,1.492,11.068,11.068,0,0,0,5.175.479c2.743-.631,3.666-2.806,2.747-6.1,1.488.943,2.483,2.412,3.8,3.541a18.828,18.828,0,0,0,3.513,2.785,1.867,1.867,0,0,0,1.622,1.111c2.046,2.007,4.661,3.07,7.2,4.227a33.7,33.7,0,0,0,10.351,2.93c.285.032.4.224.452.471q-10.67.169-21.324-.414c-5.443-.289-10.866-.763-16.3-1.193a9.845,9.845,0,0,0-2.674-.273,44.581,44.581,0,0,0-5.635-.6,8.79,8.79,0,0,0-3.078-.494c-.969-.091-1.258-.4-1.245-1.375.055-4.138.023-8.277.023-12.415,0-4.9.034-9.8-.025-14.7-.014-1.136.273-1.482,1.427-1.32,3.9.543,7.81,1,11.716,1.5" transform="translate(-15.623 -114.002)" fill="#ecae41"/>
          <path id="Path_609725" data-name="Path 609725" d="M69.936,477.714q.018,17.27.048,34.54c0,.793-.221,1.131-1.049,1.073-1.463-.1-3.323.576-4.287-.26-.92-.8-.285-2.686-.287-4.09q-.015-15.914.033-31.828a53.61,53.61,0,0,0,5.541.564" transform="translate(-17.118 -127.325)" fill="#4d658e"/>
          <path id="Path_609726" data-name="Path 609726" d="M175.272,477.15q.023,16.2.033,32.4c0,1.214.54,2.771-.268,3.552-.741.716-2.271.2-3.449.206-2.119.018-1.89.248-1.889-1.91q.008-16.841.032-33.684a53.2,53.2,0,0,0,5.541-.563" transform="translate(-45.281 -127.325)" fill="#4d658e"/>
          <path id="Path_609727" data-name="Path 609727" d="M175.262,474.849a53.186,53.186,0,0,1-5.541.563q-.033-3.119-.067-6.237a44.281,44.281,0,0,1,5.611-.647q0,3.16,0,6.321" transform="translate(-45.271 -125.024)" fill="#03386e"/>
          <path id="Path_609728" data-name="Path 609728" d="M70.015,475.432a53.61,53.61,0,0,1-5.541-.564q-.013-3.132-.028-6.264a44.31,44.31,0,0,1,5.636.6q-.033,3.112-.067,6.224" transform="translate(-17.197 -125.043)" fill="#03386e"/>
          <path id="Path_609729" data-name="Path 609729" d="M134.006,441.4a7.977,7.977,0,0,1,2.544.11,4.578,4.578,0,0,1,2.078,7.323c-.635.853-.778,1.414-.034,2.29a5.107,5.107,0,0,1,1.038,3.339,1.4,1.4,0,0,1-1.344,1.559,1.351,1.351,0,0,1-1.46-1.423,3.719,3.719,0,0,0-2.111-3.307c-1.214-.639-1.613-.39-1.633.966-.012.855.036,1.713-.029,2.564s-.518,1.531-1.4,1.511a1.4,1.4,0,0,1-1.419-1.609c.015-3.848.021-7.7,0-11.545a1.609,1.609,0,0,1,1.639-1.763,18.688,18.688,0,0,1,2.136-.015m-.9,4.685c.115.762-.548,1.987,1.186,1.873,1.672-.109,2.5-.68,2.52-2.043.017-1.239-.559-1.614-2.048-1.753-1.559-.145-1.944.529-1.658,1.923" transform="translate(-34.752 -117.773)" fill="url(#linear-gradient-2)"/>
          <path id="Path_609730" data-name="Path 609730" d="M122.144,450.589c0,1.33,0,2.659,0,3.988,0,1.014-.144,2.009-1.456,1.991-1.334-.018-1.378-1.054-1.385-2.046,0-.475,0-.95,0-1.425-.022-2.22.238-1.888-1.971-2.023-1.36-.083-1.911.317-1.738,1.714a19.01,19.01,0,0,1,.011,2.419,1.257,1.257,0,0,1-1.046,1.337,1.316,1.316,0,0,1-1.57-.916,1.756,1.756,0,0,1-.185-.681c.05-3.08-.282-6.174.167-9.238a4.517,4.517,0,0,1,4.76-3.963,4.658,4.658,0,0,1,4.4,4.57c.066,1.422.012,2.848.012,4.273Zm-4.785-2.331c1.939.005,1.939.005,1.941-1.279,0-1.523-.625-2.356-1.8-2.386s-1.815.924-1.914,2.471.959,1.135,1.773,1.194" transform="translate(-30.081 -117.876)" fill="url(#linear-gradient-2)"/>
          <path id="Path_609731" data-name="Path 609731" d="M87.164,448.263c.919,3.294,0,5.47-2.747,6.1a11.068,11.068,0,0,1-5.175-.479,1.157,1.157,0,0,1-.786-1.493,1.384,1.384,0,0,1,1.595-1.111c.894.073,1.782.239,2.672.361.846.117,1.72.146,1.936-.912a1.784,1.784,0,0,0-1.219-2.149,5.443,5.443,0,0,0-.965-.247,4.7,4.7,0,0,1-4-3.93c-.411-2.069.567-3.579,2.3-4.652,1.842-.521,3.643-.006,5.458.21.914.109,1.407.614,1.294,1.512-.121.971-.844,1.315-1.744,1.26-.941-.059-1.878-.184-2.815-.279a1.066,1.066,0,0,0-1.6.615,1.693,1.693,0,0,0,.817,2.174,7.591,7.591,0,0,0,3.086.768L85.262,446l.294.3-.011-.012.3.325,1.32,1.655" transform="translate(-20.915 -117.285)" fill="url(#linear-gradient-2)"/>
          <path id="Path_609732" data-name="Path 609732" d="M100.371,456.018a1.869,1.869,0,0,1-1.622-1.111c-.005-3.326-.041-6.653,0-9.979.012-.934-.291-1.273-1.217-1.236a9.04,9.04,0,0,1-1.974-.2,1.266,1.266,0,0,1-1.137-1.531,1.341,1.341,0,0,1,1.5-1.237c2.885.21,5.765.461,8.661.53a1.365,1.365,0,0,1,1.46,1.447c-.055.962-.669,1.341-1.647,1.36-2.822.055-2.821.084-2.821,2.95,0,2.329-.026,4.658.012,6.986a1.859,1.859,0,0,1-1.216,2.023" transform="translate(-25.192 -117.603)" fill="url(#linear-gradient-2)"/>
          <path id="Path_609733" data-name="Path 609733" d="M151.955,448.244c0-1.427-.051-2.856.015-4.28.045-.969-.218-1.424-1.266-1.284a15.855,15.855,0,0,1-1.995.052,1.2,1.2,0,0,1-1.232-1.151,1.223,1.223,0,0,1,.8-1.37,5.464,5.464,0,0,1,1.381-.325q3.67-.439,7.344-.837c.964-.106,1.926-.012,2.073,1.168.141,1.142-.641,1.526-1.682,1.65-2.612.31-2.609.336-2.609,2.9,0,2.378.007,4.757-.007,7.134a5.351,5.351,0,0,1-.154,1.4,1.315,1.315,0,0,1-1.585,1.093,1.283,1.283,0,0,1-1.081-1.45c.006-1.57,0-3.139,0-4.709" transform="translate(-39.349 -117.149)" fill="url(#linear-gradient-2)"/>
          <path id="Path_609734" data-name="Path 609734" d="M86.308,447.021a7.59,7.59,0,0,1-3.086-.767,1.693,1.693,0,0,1-.817-2.174,1.065,1.065,0,0,1,1.6-.615c.494,1.361,1.781,2.21,2.3,3.556" transform="translate(-21.954 -118.295)" fill="#d5b21e"/>
          <path id="Path_609735" data-name="Path 609735" d="M88.061,448.652l-.293-.3.293.3" transform="translate(-23.42 -119.641)" fill="#d5b21e"/>
          <path id="Path_609736" data-name="Path 609736" d="M88.453,449.069l-.3-.325.3.325" transform="translate(-23.523 -119.745)" fill="#d5b21e"/>
          <path id="Path_609737" data-name="Path 609737" d="M134.125,447.1c-.286-1.394.1-2.068,1.658-1.923,1.488.139,2.065.514,2.048,1.753-.018,1.363-.848,1.934-2.52,2.043-1.734.114-1.07-1.111-1.186-1.873" transform="translate(-35.767 -118.789)" fill="#eba325"/>
          <path id="Path_609738" data-name="Path 609738" d="M118.4,449.3c-.814-.059-1.873.365-1.773-1.2s.743-2.5,1.915-2.471,1.8.862,1.8,2.386c0,1.284,0,1.284-1.941,1.279" transform="translate(-31.118 -118.914)" fill="#eba325"/>
          <path id="Path_609739" data-name="Path 609739" d="M550.646,367.4c-.734,3.988-2.406,7.662-3.974,11.349a71.979,71.979,0,0,1-7.958,14.04,59.625,59.625,0,0,1-10.007,10.788,6.728,6.728,0,0,0-.72.831c-.385.269-.784.52-1.153.81a74.915,74.915,0,0,1-19.808,11.125L492.683,402.1l-.377-.594c.6,0,.934-.451,1.305-.822q7.377-7.374,14.748-14.753c.368-.369.838-.682.844-1.292l.585.367a12.451,12.451,0,0,0,17.592-17.619,1.3,1.3,0,0,0-.019-.267c3.4-3.823,7.173-7.282,10.772-10.912.2-.2.57-.235.86-.348L550.646,367.4" transform="translate(-131.369 -94.96)" fill="#cce9fa"/>
          <path id="Path_609740" data-name="Path 609740" d="M504,380.235c-.006.61-.475.923-.843,1.292q-7.37,7.38-14.749,14.753c-.371.371-.7.818-1.305.822-.425-.387-.866-.759-1.273-1.165q-6.519-6.469-13.03-12.947a74.571,74.571,0,0,1,11.174-19.909c.308-.39.853-.7.59-1.353a1.9,1.9,0,0,0,1.389-.963,50.749,50.749,0,0,1,7.257-7.055,63.81,63.81,0,0,1,13.544-8.753c4.777-2.341,9.647-4.557,14.931-5.6,1.167,1.139,2.328,2.284,3.5,3.415,2.8,2.7,5.378,5.623,8.343,8.152l.262.535c-.291.112-.661.146-.861.348-3.6,3.63-7.368,7.09-10.771,10.912-.459-.35-.919-.7-1.376-1.05a12.472,12.472,0,0,0-19.061,4.846c-2.164,5.014-1.131,9.589,2.279,13.724" transform="translate(-126.163 -90.555)" fill="#e0eff9"/>
          <path id="Path_609741" data-name="Path 609741" d="M510.723,434.01a74.924,74.924,0,0,0,19.808-11.125c.369-.29.768-.541,1.153-.81,1.382,9.647-1.5,18.081-7.356,25.642a45.957,45.957,0,0,1-11.222,10.241c-3.1,2.036-5.429,1.007-5.727-2.643-.367-4.488-.568-8.991-.828-13.487a12.741,12.741,0,0,0-.389-3.147l4.561-4.672" transform="translate(-135.067 -112.628)" fill="#fe1a3e"/>
          <path id="Path_609742" data-name="Path 609742" d="M475.46,369.838c.262.65-.283.963-.59,1.353A74.549,74.549,0,0,0,463.7,391.1l-4.54,4.326c-5.659-.358-11.318-.731-16.979-1.065-2.911-.172-4.411-2.583-2.869-4.966,6.575-10.159,15.22-17.448,27.574-19.4,2.842-.45,5.718-.139,8.579-.154" transform="translate(-117.063 -98.665)" fill="#fe5c5c"/>
          <path id="Path_609743" data-name="Path 609743" d="M464.551,403.2l4.54-4.326q6.513,6.475,13.029,12.947c.408.4.848.777,1.273,1.165l.377.593c-4,3.557-7.81,7.3-11.491,11.181a1.548,1.548,0,0,1-.26.005c-3.174-3.4-6.488-6.664-9.851-9.877-.727-.759-1.471-1.5-2.18-2.28a3.138,3.138,0,0,1,.04-4.767c1.486-1.567,3.013-3.1,4.522-4.641" transform="translate(-122.458 -106.437)" fill="#03386e"/>
          <path id="Path_609744" data-name="Path 609744" d="M477.146,430.111c3.681-3.881,7.494-7.625,11.491-11.181l14.343,14.241q-2.281,2.336-4.56,4.672c-1.424,1.4-2.839,2.819-4.275,4.213-1.824,1.769-3.407,1.773-5.208.035-.718-.692-1.429-1.391-2.143-2.087-.356-.389-.7-.79-1.071-1.167q-4.285-4.367-8.576-8.726" transform="translate(-127.324 -111.789)" fill="#011135"/>
          <path id="Path_609745" data-name="Path 609745" d="M469.946,434.18q4.289,4.363,8.576,8.726c.37.377.715.778,1.071,1.167-4.886,5.032-11,7.8-17.667,9.493a43.94,43.94,0,0,1-9.081,1.4,3.425,3.425,0,0,1-2.682-.714c.452-1.391,1.705-2.11,2.647-3.068,5.6-5.693,11.244-11.339,16.874-17a1.472,1.472,0,0,0,.26-.005" transform="translate(-120.124 -115.859)" fill="#fcbf02"/>
          <path id="Path_609746" data-name="Path 609746" d="M469.295,430.592c-5.63,5.662-11.275,11.308-16.874,17-.942.957-2.2,1.677-2.647,3.068-1.27-1.132-1.113-2.559-1-4.076a45.439,45.439,0,0,1,5.407-18.735,42.725,42.725,0,0,1,5.266-7.134c3.364,3.213,6.678,6.475,9.851,9.877" transform="translate(-119.733 -112.265)" fill="#fef161"/>
          <path id="Path_609747" data-name="Path 609747" d="M555.89,350.169l-.262-.535a2.533,2.533,0,0,0,1.111-.861q5.948-5.948,11.884-11.909a9.874,9.874,0,0,0,2.117-2.334,1.87,1.87,0,0,1,.947,1.85,61.919,61.919,0,0,1-.993,12.315,93.224,93.224,0,0,1-2.813,12.332,4.714,4.714,0,0,1-.336.678L555.89,350.169" transform="translate(-148.266 -89.267)" fill="#fe1b3f"/>
          <path id="Path_609748" data-name="Path 609748" d="M566.428,334.213a9.9,9.9,0,0,1-2.117,2.334q-5.921,5.975-11.884,11.909a2.53,2.53,0,0,1-1.111.861c-2.964-2.529-5.543-5.453-8.342-8.151-1.174-1.131-2.335-2.276-3.5-3.415a22.1,22.1,0,0,1,5.711-1.71,100.162,100.162,0,0,1,18.5-2.678,2.918,2.918,0,0,1,2.749.85" transform="translate(-143.955 -88.951)" fill="#fe5c5c"/>
          <path id="Path_609749" data-name="Path 609749" d="M533.743,371.583A12.451,12.451,0,0,1,516.151,389.2c.887-1.862,2.832-2.819,3.883-4.542.358.216.728.415,1.073.651a6.291,6.291,0,0,0,7.777-.432c2.59-2.271,2.745-5.675.418-9.145,1.419-1.449,2.642-3.109,4.442-4.151" transform="translate(-137.732 -99.155)" fill="#021337"/>
          <path id="Path_609750" data-name="Path 609750" d="M518.579,383.231c-1.051,1.722-3,2.68-3.883,4.542l-.586-.367c-3.41-4.135-4.443-8.71-2.278-13.724a12.47,12.47,0,0,1,19.06-4.846c.457.352.918.7,1.376,1.05a1.268,1.268,0,0,1,.02.268c-1.8,1.042-3.023,2.7-4.442,4.151-.1-.019-.2-.039-.3-.06a6.116,6.116,0,0,0-8.557-.13c-2.542,2.324-2.7,5.952-.384,8.8,0,.106-.012.21-.024.315" transform="translate(-136.277 -97.726)" fill="#03386e"/>
          <path id="Path_609751" data-name="Path 609751" d="M521.447,386.149c.012-.1.02-.209.024-.315a2.093,2.093,0,0,0,.71-.3c2.746-2.788,5.657-5.414,8.231-8.371.1.021.2.041.3.06,2.327,3.471,2.172,6.874-.418,9.145a6.292,6.292,0,0,1-7.777.432c-.345-.236-.714-.435-1.073-.651" transform="translate(-139.145 -100.644)" fill="#1cabb3"/>
          <path id="Path_609752" data-name="Path 609752" d="M529.826,376.5c-2.574,2.957-5.485,5.583-8.231,8.371a2.093,2.093,0,0,1-.711.3c-2.315-2.849-2.158-6.477.384-8.8a6.116,6.116,0,0,1,8.557.13" transform="translate(-138.559 -99.984)" fill="#07c9a9"/>
          <path id="Path_609753" data-name="Path 609753" d="M815.619,288.561a12.022,12.022,0,0,1-4.885-5.528,15.976,15.976,0,0,1,.02-5.244c1.081-2.457,2.568-4.54,5.163-5.6a3.383,3.383,0,0,1,1.406-.414,7.5,7.5,0,0,1,4.227,0,8.527,8.527,0,0,1,5.98,4.848c.2.392.392.782.588,1.172a15.936,15.936,0,0,1,.02,5.241,12.008,12.008,0,0,1-4.884,5.529,12.17,12.17,0,0,1-7.635,0m7.117-8.091a3.3,3.3,0,1,0-3.331,3.274,3.307,3.307,0,0,0,3.331-3.274" transform="translate(-216.284 -72.439)" fill="#fedf7e"/>
          <path id="Path_609754" data-name="Path 609754" d="M826.553,370.657c1.147,0,2.295-.032,3.44.011a4.4,4.4,0,0,1,4.314,4.433c.008,1.01-.366,1.273-1.314,1.259-2.941-.045-5.883-.016-8.825-.016-8.277,0-16.553-.023-24.83.025-1.223.007-1.683-.3-1.6-1.579a4.4,4.4,0,0,1,4.311-4.122c1.145-.043,2.293-.01,3.441-.011h21.064" transform="translate(-212.869 -98.905)" fill="#efdf9a"/>
          <path id="Path_609755" data-name="Path 609755" d="M829.378,363.573H808.314a17.962,17.962,0,0,1,1.191-3.926c2.142.012,4.291-.087,6.422.067a4.312,4.312,0,0,0,4.164-5.387c-.781-3.433-2.136-6.712-2.749-10.192l5.42-.035c.882-.026,1.215.575,1.417,1.281q2.606,9.095,5.2,18.193" transform="translate(-215.694 -91.821)" fill="#fecf64"/>
          <path id="Path_609756" data-name="Path 609756" d="M825.174,335.3l-5.42.035-2.387-.026q-.009-12.1-.018-24.193h7.819l.007,24.185" transform="translate(-218.105 -83.019)" fill="#cc894c"/>
          <path id="Path_609757" data-name="Path 609757" d="M781.243,320.887a1.236,1.236,0,0,1,1.264,1.192c.581,4.5-2.6,9.908-6.991,11.817a11.63,11.63,0,0,1-13.692-2.843c.6,0,1.2.037,1.786-.013a11.3,11.3,0,0,0,6.656-2.579c.568-.492,1.358-1.087-.212-1.351a1.357,1.357,0,0,1,.381-2.646,7.438,7.438,0,0,1,1.04.009c1.75.345,2.575-.5,2.814-2.131.064-.438.1-.88.15-1.321l3.617-.14,3.186.007" transform="translate(-203.289 -85.625)" fill="#fecf64"/>
          <path id="Path_609758" data-name="Path 609758" d="M879.213,320.883c.694.095,1.17.313,1.254,1.172a12.139,12.139,0,0,1-6.961,11.836,11.911,11.911,0,0,1-13.47-2.469,2.324,2.324,0,0,1-.237-.372c.7,0,1.4.041,2.09-.01a10.6,10.6,0,0,0,6.677-2.927c.381-.359.818-.863-.183-.934a1.266,1.266,0,0,1-1.31-1.469c.067-.933.723-1.256,1.68-1.265,2.941-.028,2.941-.064,3.735-2.875.053-.191.13-.375.2-.562l3.356-.122Z" transform="translate(-229.432 -85.626)" fill="#fecf64"/>
          <path id="Path_609759" data-name="Path 609759" d="M878.5,312.163l-3.173,0q-3.666-9.294-7.332-18.588l-.427.056-7.32,18.528-3.12-.034q4.743-11.96,9.487-23.918l2.331-.005q4.776,11.98,9.554,23.96" transform="translate(-228.72 -76.905)" fill="#cc894c"/>
          <path id="Path_609760" data-name="Path 609760" d="M780.512,312.167l-3.186-.007-7.338-18.585-.419.051-7.33,18.535h-3.155l9.552-23.955,2.33,0,9.547,23.959" transform="translate(-202.557 -76.906)" fill="#cc894c"/>
          <path id="Path_609761" data-name="Path 609761" d="M801.8,280.09a15.994,15.994,0,0,0-.02,5.244l-24.787.012a4.333,4.333,0,0,0-.017-5.255H801.8" transform="translate(-207.332 -74.74)" fill="#cc894c"/>
          <path id="Path_609762" data-name="Path 609762" d="M834.542,285.334a15.959,15.959,0,0,0-.02-5.242h24.823a4.334,4.334,0,0,0-.015,5.256l-24.788-.012" transform="translate(-222.688 -74.74)" fill="#cc894c"/>
          <path id="Path_609763" data-name="Path 609763" d="M856.653,320.834l3.12.034,11.724.126c-.067.187-.144.371-.2.561-.794,2.812-.793,2.848-3.734,2.876-.958.01-1.614.332-1.68,1.265a1.265,1.265,0,0,0,1.309,1.469c1,.071.564.575.183.934a10.6,10.6,0,0,1-6.677,2.927c-.693.051-1.393.01-2.09.01a11.38,11.38,0,0,1-3.25-9.025c.029-.8.606-1.065,1.293-1.177" transform="translate(-228.245 -85.613)" fill="#fedf7e"/>
          <path id="Path_609764" data-name="Path 609764" d="M758.629,320.879h3.156l11.47.141c-.049.44-.086.883-.15,1.32-.239,1.629-1.064,2.476-2.814,2.132a7.327,7.327,0,0,0-1.04-.009,1.206,1.206,0,0,0-1.3,1.163,1.193,1.193,0,0,0,.922,1.482c1.569.265.779.86.212,1.351a11.294,11.294,0,0,1-6.656,2.578c-.591.051-1.19.011-1.785.013-2.613-2.507-3.389-5.667-3.242-9.151.033-.787.636-.9,1.231-1.022" transform="translate(-202.103 -85.625)" fill="#fedf7e"/>
          <path id="Path_609765" data-name="Path 609765" d="M815.389,344.112l2.386.026c.612,3.48,1.967,6.759,2.749,10.192a4.312,4.312,0,0,1-4.164,5.387c-2.131-.153-4.281-.054-6.422-.067,1.349-4.793,2.686-9.589,4.062-14.374a1.5,1.5,0,0,1,1.389-1.164" transform="translate(-216.128 -91.824)" fill="#fedf7e"/>
          <path id="Path_609766" data-name="Path 609766" d="M819.96,260.456c-2.373-1.078-3.252-2.775-2.6-5.249a21.9,21.9,0,0,1,2.894-6.485c.642-.979,1.268-.982,1.908,0a21.394,21.394,0,0,1,3.127,7.5c.329,1.647-.9,3.36-2.84,4.234H819.96" transform="translate(-218.052 -66.174)" fill="#fedf7e"/>
          <path id="Path_609767" data-name="Path 609767" d="M818.937,264.994h2.484c1.03.545,2.134.176,3.2.245a2.262,2.262,0,1,1,.109,4.517c-.813.084-1.686-.3-2.436.288a7.5,7.5,0,0,0-4.227,0c-.647-.574-1.424-.243-2.138-.282-1.578-.089-2.613-.946-2.614-2.26s1.037-2.189,2.57-2.263c1.017-.048,2.07.279,3.051-.243" transform="translate(-217.029 -70.712)" fill="#feefae"/>
          <path id="Path_609768" data-name="Path 609768" d="M824.1,309.463h-7.82c-1.886-.022-2.892-.766-2.941-2.177-.05-1.429,1.019-2.273,2.973-2.346h7.753c1.3-.069,2.386.266,2.861,1.616a2.191,2.191,0,0,1-.724,2.413,2.666,2.666,0,0,1-2.1.495" transform="translate(-217.033 -81.369)" fill="#fedf7e"/>
          <path id="Path_609769" data-name="Path 609769" d="M825.143,302.232H817.39q.031-3.725.061-7.449a12.181,12.181,0,0,0,7.635,0q.029,3.724.057,7.448" transform="translate(-218.116 -78.661)" fill="#cc894c"/>
          <path id="Path_609770" data-name="Path 609770" d="M774.874,279.834a4.332,4.332,0,0,1,.017,5.255,2.211,2.211,0,0,0-1.254.7l-2.33,0c-2.316-1.842-2.81-3.638-1.491-5.422,1.076-1.455,2.6-1.614,5.059-.527" transform="translate(-205.229 -74.483)" fill="#fedf7e"/>
          <path id="Path_609771" data-name="Path 609771" d="M868.039,285.089a4.333,4.333,0,0,1,.015-5.255c2.456-1.086,3.986-.926,5.059.526,1.319,1.787.826,3.581-1.49,5.422l-2.331,0a2.217,2.217,0,0,0-1.253-.7" transform="translate(-231.397 -74.484)" fill="#fedf7e"/>
          <path id="Path_609772" data-name="Path 609772" d="M824.778,282.468a3.3,3.3,0,1,1-6.6-.212,3.3,3.3,0,1,1,6.6.212" transform="translate(-218.326 -74.437)" fill="#768d94"/>
          <path id="Path_609773" data-name="Path 609773" d="M1036.651,463.847q-.033,20.92-.066,41.841c-.005,3.2,0,3.216-3.3,3.2-5.258-.02-4.527.485-4.53-4.46q-.024-47.543-.005-95.086c0-2.828,1.375-4.493,3.726-4.57,2.463-.08,3.982,1.565,4.115,4.455.012.261.042.521.064.782q0,9.016,0,18.03v17.835q0,6.444.007,12.89Z" transform="translate(-274.508 -108.011)" fill="#fea91c"/>
          <path id="Path_609774" data-name="Path 609774" d="M1105.942,411.91l13.382,0q-.02,9-.038,18l.048.114c-3.862-.015-7.724.009-11.585-.069-1.161-.023-1.6.251-1.587,1.508.069,4.91.062,9.822,0,14.733-.014,1.191.337,1.584,1.548,1.559,3.861-.078,7.724-.045,11.587-.056l-.015.162c.01,2.211.047,4.423.022,6.634-.039,3.372-2.259,6.674-6.323,6.2a61.514,61.514,0,0,0-6.824-.067h-.182c.028-3.657-.024-7.317.122-10.969.065-1.61-.5-1.944-1.994-1.927-5.289.058-10.58-.02-15.871-.046q.018-8.861.037-17.72l-.034.034q8.053-.032,16.107-.069c.806,0,1.749.27,1.729-1.146-.076-5.628-.095-11.257-.135-16.885" transform="translate(-290.39 -109.916)" fill="#f0f1f1"/>
          <path id="Path_609775" data-name="Path 609775" d="M1063.566,411.919l18.154.01q-.031,9.042-.062,18.084l.034-.034h-18.12l.033.034q-.02-9.047-.039-18.094" transform="translate(-283.807 -109.918)" fill="#f0f1f1"/>
          <path id="Path_609776" data-name="Path 609776" d="M1057.154,411.919q.02,9.048.039,18.094l-17.656-.065q0-9.016,0-18.03h17.616" transform="translate(-277.395 -109.918)" fill="#595a5c"/>
          <path id="Path_609777" data-name="Path 609777" d="M1088.243,430.01q.031-9.042.062-18.084l17.639-.016c.04,5.628.059,11.257.135,16.885.019,1.416-.924,1.142-1.729,1.147q-8.053.044-16.107.069" transform="translate(-290.392 -109.916)" fill="#595a5c"/>
          <path id="Path_609778" data-name="Path 609778" d="M1112.608,473.664a61.525,61.525,0,0,1,6.823.067c4.065.469,6.285-2.832,6.323-6.2.026-2.211-.013-4.423-.022-6.634l4.749-.177c0,4.237.018,8.475,0,12.711a5.053,5.053,0,0,1-5.381,5.368c-4.237.016-8.474,0-12.711,0,.554-1.69.091-3.422.216-5.129" transform="translate(-296.836 -122.94)" fill="#e1e2e3"/>
          <path id="Path_609779" data-name="Path 609779" d="M1081.732,483.473l-18.192.012a23.8,23.8,0,0,0,.006-5.1.672.672,0,0,0,.207.041l17.827-.009.159-.039q0,2.548-.007,5.1" transform="translate(-283.8 -127.653)" fill="#e1e2e3"/>
          <path id="Path_609780" data-name="Path 609780" d="M1057.141,478.387a23.835,23.835,0,0,1-.006,5.1l-17.6,0q0-2.54.006-5.08l17.6-.023" transform="translate(-277.395 -127.655)" fill="#434244"/>
          <path id="Path_609781" data-name="Path 609781" d="M1088.354,483.473q0-2.548.007-5.1l17.65,0h.182c-.125,1.707.338,3.439-.216,5.128l-17.624-.032" transform="translate(-290.421 -127.652)" fill="#434244"/>
          <path id="Path_609782" data-name="Path 609782" d="M1135.337,454.246l-4.75.177.015-.162q.016-8.837.034-17.675l-.049-.115,4.729.116q.011,8.83.021,17.659" transform="translate(-301.691 -116.47)" fill="#434244"/>
          <path id="Path_609783" data-name="Path 609783" d="M1135.316,430.034l-4.729-.115q.019-9,.038-18c3.444,1.136,4.708,2.851,4.706,6.4q0,5.86-.015,11.722" transform="translate(-301.691 -109.917)" fill="#e1e2e3"/>
          <path id="Path_609784" data-name="Path 609784" d="M1039.537,436.511l17.656.065-.033-.033.031,17.725-17.654.079q0-8.918,0-17.836" transform="translate(-277.395 -116.481)" fill="#f0f1f1"/>
          <path id="Path_609785" data-name="Path 609785" d="M1039.536,460.8l17.654-.079-.031-.037q.094,6.513.19,13.024a.675.675,0,0,1-.208-.041l-17.6.023q0-6.444-.007-12.89" transform="translate(-277.395 -122.93)" fill="#595a5c"/>
          <path id="Path_609786" data-name="Path 609786" d="M1063.6,454.278q-.015-8.863-.031-17.725h18.121q-.019,8.861-.037,17.72l.037-.032h-18.121Z" transform="translate(-283.809 -116.491)" fill="#595a5c"/>
          <path id="Path_609787" data-name="Path 609787" d="M1125.859,436.6q-.016,8.837-.034,17.675c-3.862.011-7.725-.021-11.586.056-1.212.025-1.562-.368-1.548-1.559.056-4.911.064-9.823,0-14.733-.018-1.257.426-1.532,1.586-1.508,3.862.077,7.724.054,11.586.069" transform="translate(-296.914 -116.486)" fill="#595a5c"/>
          <path id="Path_609788" data-name="Path 609788" d="M1105.956,473.653l-17.65,0-.159.039q.053-6.508.1-13.016l-.037.032c5.29.026,10.581.1,15.871.046,1.489-.016,2.059.318,1.993,1.927-.146,3.652-.094,7.312-.122,10.969" transform="translate(-290.366 -122.93)" fill="#595a5c"/>
          <path id="Path_609789" data-name="Path 609789" d="M1081.693,460.679q-.052,6.508-.1,13.016l-17.827.008q-.095-6.512-.19-13.023h18.121" transform="translate(-283.808 -122.93)" fill="#f0f1f1"/>
          <path id="Path_609790" data-name="Path 609790" d="M18.829,473.613s122.422-.442,207.78-82.2S410.8,225.792,523.115,201.084s200.666,7.955,327.954,121.532" transform="translate(-5.024 -51.587)" fill="none" stroke="#ad1c1c" stroke-linecap="round" stroke-miterlimit="10" stroke-width="5"/>
          <path id="Path_609791" data-name="Path 609791" d="M874.672,431.664H14.354V22.333" transform="translate(-3.83 -5.959)" fill="none" stroke="#18b8c4" stroke-linecap="round" stroke-width="5"/>
          <line id="Line_887" data-name="Line 887" y1="2.933" transform="translate(251.997 418.585)" fill="none" stroke="#18b8c4" stroke-linecap="round" stroke-width="5"/>
          <line id="Line_888" data-name="Line 888" y1="386.248" transform="translate(251.997 26.441)" fill="none" stroke="#18b8c4" stroke-linecap="round" stroke-width="5" stroke-dasharray="8.043 8.043"/>
          <line id="Line_889" data-name="Line 889" y1="2.933" transform="translate(251.997 20.56)" fill="none" stroke="#18b8c4" stroke-linecap="round" stroke-width="5"/>
          <line id="Line_890" data-name="Line 890" y1="2.933" transform="translate(481.505 418.585)" fill="none" stroke="#18b8c4" stroke-linecap="round" stroke-width="5"/>
          <line id="Line_891" data-name="Line 891" y1="386.248" transform="translate(481.505 26.441)" fill="none" stroke="#18b8c4" stroke-linecap="round" stroke-width="5" stroke-dasharray="8.043 8.043"/>
          <line id="Line_892" data-name="Line 892" y1="2.933" transform="translate(481.505 20.56)" fill="none" stroke="#18b8c4" stroke-linecap="round" stroke-width="5"/>
          <line id="Line_893" data-name="Line 893" y1="2.933" transform="translate(702.647 418.585)" fill="none" stroke="#18b8c4" stroke-linecap="round" stroke-width="5"/>
          <line id="Line_894" data-name="Line 894" y1="386.248" transform="translate(702.647 26.441)" fill="none" stroke="#18b8c4" stroke-linecap="round" stroke-width="5" stroke-dasharray="8.043 8.043"/>
          <line id="Line_895" data-name="Line 895" y1="2.933" transform="translate(702.647 20.56)" fill="none" stroke="#18b8c4" stroke-linecap="round" stroke-width="5"/>
        </g>
      </g>
    </g>
    <path id="Path_716599" data-name="Path 716599" d="M20.338,13.52,22.887,4.2h3.445L22.025,17H18.65L14.379,4.2H17.8ZM35.2,11.568H30.349v3.059h5.73V17H27.264V4.2H36.1V6.585H30.349v2.7H35.2ZM48.023,17H44.956L40.421,9.037V17H37.336V4.2h3.085l4.526,7.963V4.2h3.076ZM59.766,6.585H55.925V17H52.84V6.585H49.069V4.2h10.7Zm7.515,8.024H63.053L62.314,17h-3.3L63.712,4.2h2.9L71.341,17H68.027Zm-3.489-2.382h2.751l-1.38-4.438ZM78.873,13.6a1.268,1.268,0,0,0-.479-1.055,5.954,5.954,0,0,0-1.683-.782,16.147,16.147,0,0,1-1.969-.782q-2.487-1.222-2.487-3.357a3.011,3.011,0,0,1,.62-1.876A4.008,4.008,0,0,1,74.628,4.48a6.823,6.823,0,0,1,2.549-.453,5.969,5.969,0,0,1,2.474.492,3.917,3.917,0,0,1,1.7,1.4A3.661,3.661,0,0,1,81.958,8H78.882A1.547,1.547,0,0,0,78.4,6.787a1.867,1.867,0,0,0-1.3-.431,2.106,2.106,0,0,0-1.305.365,1.074,1.074,0,0,0,.048,1.819,6.65,6.65,0,0,0,1.854.826,11.36,11.36,0,0,1,2.18.918,3.663,3.663,0,0,1,2.074,3.3,3.125,3.125,0,0,1-1.266,2.637,5.629,5.629,0,0,1-3.472.958,6.888,6.888,0,0,1-2.817-.558,4.247,4.247,0,0,1-1.9-1.529,3.985,3.985,0,0,1-.637-2.237h3.094a1.963,1.963,0,0,0,.532,1.516,2.513,2.513,0,0,0,1.727.488,1.985,1.985,0,0,0,1.208-.33A1.088,1.088,0,0,0,78.873,13.6Z" transform="translate(295.959 10476.919)" fill="#12263f"/>
    <path id="Path_716600" data-name="Path 716600" d="M32.4,6.585H28.555V17H25.47V6.585H21.7V4.2H32.4ZM36.983,17H33.907V4.2h3.076Zm10.081-5.432H42.213v3.059h5.73V17H39.128V4.2h8.833V6.585H42.213v2.7h4.852ZM53.252,4.2l2.856,8.9,2.848-8.9h4.061V17H59.923V14.012l.3-6.117L57.128,17H55.089l-3.1-9.114.3,6.126V17H49.2V4.2Zm14.81,8.455V17H64.977V4.2h5.106a5.948,5.948,0,0,1,2.6.541,4.074,4.074,0,0,1,1.749,1.538,4.2,4.2,0,0,1,.62,2.263,3.7,3.7,0,0,1-1.34,2.993,5.561,5.561,0,0,1-3.678,1.121Zm0-2.382h2.021a1.906,1.906,0,0,0,1.367-.448,1.665,1.665,0,0,0,.47-1.266,2.059,2.059,0,0,0-.483-1.433,1.712,1.712,0,0,0-1.318-.545H68.062Zm19.468.589a7.546,7.546,0,0,1-.694,3.313A5.132,5.132,0,0,1,84.862,16.4a5.494,5.494,0,0,1-2.914.778,5.572,5.572,0,0,1-2.9-.751,5.123,5.123,0,0,1-1.973-2.149,7.329,7.329,0,0,1-.743-3.208v-.721a7.58,7.58,0,0,1,.69-3.318A5.119,5.119,0,0,1,79,4.81,5.854,5.854,0,0,1,84.831,4.8,5.211,5.211,0,0,1,86.813,7a7.362,7.362,0,0,1,.716,3.274Zm-3.138-.536a5.381,5.381,0,0,0-.637-2.9,2.044,2.044,0,0,0-1.824-.989q-2.32,0-2.452,3.48l-.009.94a5.535,5.535,0,0,0,.624,2.892,2.041,2.041,0,0,0,1.854,1.011,2.016,2.016,0,0,0,1.8-.993,5.383,5.383,0,0,0,.642-2.856Z" transform="translate(1164.293 10721.486)" fill="#12263f"/>
    <path id="Path_716601" data-name="Path 716601" d="M60.69,17H57.613V4.2H60.69Zm12.832,0H70.454L65.919,9.037V17H62.834V4.2h3.085l4.526,7.963V4.2h3.076ZM85.264,6.585H81.423V17H78.338V6.585H74.567V4.2h10.7Zm6.056,5.889h-1.67V17H86.565V4.2H91.6a5.621,5.621,0,0,1,3.56,1.01,3.421,3.421,0,0,1,1.283,2.853,4.155,4.155,0,0,1-.541,2.213A3.837,3.837,0,0,1,94.211,11.7l2.672,5.167V17h-3.3ZM89.649,10.1H91.6a1.751,1.751,0,0,0,1.323-.463,1.788,1.788,0,0,0,.444-1.291,1.809,1.809,0,0,0-.448-1.3A1.735,1.735,0,0,0,91.6,6.576H89.649Zm19.494.765a7.546,7.546,0,0,1-.694,3.313,5.132,5.132,0,0,1-1.973,2.219,5.494,5.494,0,0,1-2.914.778,5.572,5.572,0,0,1-2.9-.751,5.123,5.123,0,0,1-1.973-2.149,7.329,7.329,0,0,1-.743-3.208v-.721a7.58,7.58,0,0,1,.69-3.318,5.119,5.119,0,0,1,1.978-2.219,5.854,5.854,0,0,1,5.832-.009A5.211,5.211,0,0,1,108.427,7a7.362,7.362,0,0,1,.716,3.274Zm-3.138-.536a5.381,5.381,0,0,0-.637-2.9,2.044,2.044,0,0,0-1.824-.989q-2.32,0-2.452,3.48l-.009.94a5.535,5.535,0,0,0,.624,2.892,2.041,2.041,0,0,0,1.854,1.011,2.016,2.016,0,0,0,1.8-.993,5.383,5.383,0,0,0,.642-2.856ZM110.734,17V4.2h4.122a6.064,6.064,0,0,1,3.05.769,5.406,5.406,0,0,1,2.114,2.171,6.554,6.554,0,0,1,.769,3.142v.589a6.592,6.592,0,0,1-.743,3.151,5.429,5.429,0,0,1-2.092,2.18,5.93,5.93,0,0,1-3.01.8Zm3.085-10.415v8.042h1.072a2.4,2.4,0,0,0,2.039-.945,4.63,4.63,0,0,0,.712-2.808V10.32a4.592,4.592,0,0,0-.712-2.795,2.442,2.442,0,0,0-2.074-.94ZM132.408,4.2v8.376a4.814,4.814,0,0,1-.606,2.465,3.929,3.929,0,0,1-1.74,1.586,6.131,6.131,0,0,1-2.681.545,5.3,5.3,0,0,1-3.683-1.213,4.326,4.326,0,0,1-1.371-3.322V4.2h3.1v8.5q.053,2.1,1.951,2.1a1.889,1.889,0,0,0,1.45-.527,2.465,2.465,0,0,0,.492-1.714V4.2Zm12.278,8.464a4.673,4.673,0,0,1-.721,2.36,4.35,4.35,0,0,1-1.85,1.586,6.3,6.3,0,0,1-2.72.563,5.025,5.025,0,0,1-3.973-1.644,6.786,6.786,0,0,1-1.45-4.641v-.633a7.746,7.746,0,0,1,.655-3.292,4.961,4.961,0,0,1,1.885-2.18,5.26,5.26,0,0,1,2.848-.769A5.516,5.516,0,0,1,143.1,5.245a4.844,4.844,0,0,1,1.608,3.379h-3.076a2.292,2.292,0,0,0-.589-1.679,2.422,2.422,0,0,0-1.687-.51,1.843,1.843,0,0,0-1.687.861,5.536,5.536,0,0,0-.562,2.751v.905a6.126,6.126,0,0,0,.514,2.927,1.882,1.882,0,0,0,1.771.879,2.369,2.369,0,0,0,1.626-.5,2.126,2.126,0,0,0,.6-1.591Zm11.813,0a4.673,4.673,0,0,1-.721,2.36,4.35,4.35,0,0,1-1.85,1.586,6.3,6.3,0,0,1-2.72.563,5.025,5.025,0,0,1-3.973-1.644,6.786,6.786,0,0,1-1.45-4.641v-.633a7.746,7.746,0,0,1,.655-3.292,4.961,4.961,0,0,1,1.885-2.18,5.26,5.26,0,0,1,2.848-.769,5.516,5.516,0,0,1,3.744,1.226,4.844,4.844,0,0,1,1.608,3.379h-3.076a2.292,2.292,0,0,0-.589-1.679,2.422,2.422,0,0,0-1.687-.51,1.843,1.843,0,0,0-1.687.861,5.536,5.536,0,0,0-.562,2.751v.905a6.126,6.126,0,0,0,.514,2.927,1.882,1.882,0,0,0,1.771.879,2.369,2.369,0,0,0,1.626-.5,2.126,2.126,0,0,0,.6-1.591ZM161.245,17h-3.076V4.2h3.076Zm12.981-6.135a7.546,7.546,0,0,1-.694,3.313,5.132,5.132,0,0,1-1.973,2.219,5.494,5.494,0,0,1-2.914.778,5.572,5.572,0,0,1-2.9-.751,5.123,5.123,0,0,1-1.973-2.149,7.329,7.329,0,0,1-.743-3.208v-.721a7.58,7.58,0,0,1,.69-3.318A5.119,5.119,0,0,1,165.7,4.81a5.854,5.854,0,0,1,5.832-.009A5.211,5.211,0,0,1,173.51,7a7.362,7.362,0,0,1,.716,3.274Zm-3.138-.536a5.381,5.381,0,0,0-.637-2.9,2.044,2.044,0,0,0-1.824-.989q-2.32,0-2.452,3.48l-.009.94a5.535,5.535,0,0,0,.624,2.892,2.041,2.041,0,0,0,1.854,1.011,2.016,2.016,0,0,0,1.8-.993,5.383,5.383,0,0,0,.642-2.856Zm-2.1-9.554h3.129l-2.443,2.76-2.417,0ZM186.5,17h-3.067L178.9,9.037V17h-3.085V4.2H178.9l4.526,7.963V4.2H186.5Z" transform="translate(392.938 10312.725)" fill="#12263f"/>
    <path id="Path_716602" data-name="Path 716602" d="M74.251,12.667a4.673,4.673,0,0,1-.721,2.36,4.35,4.35,0,0,1-1.85,1.586,6.3,6.3,0,0,1-2.72.563,5.025,5.025,0,0,1-3.973-1.644,6.786,6.786,0,0,1-1.45-4.641v-.633a7.746,7.746,0,0,1,.655-3.292,4.961,4.961,0,0,1,1.885-2.18,5.26,5.26,0,0,1,2.848-.769,5.516,5.516,0,0,1,3.744,1.226,4.844,4.844,0,0,1,1.608,3.379H71.2a2.292,2.292,0,0,0-.589-1.679,2.422,2.422,0,0,0-1.687-.51,1.843,1.843,0,0,0-1.687.861,5.536,5.536,0,0,0-.562,2.751v.905a6.126,6.126,0,0,0,.514,2.927,1.882,1.882,0,0,0,1.771.879,2.369,2.369,0,0,0,1.626-.5,2.126,2.126,0,0,0,.6-1.591Zm6.214-.193h-1.67V17H75.71V4.2h5.036a5.621,5.621,0,0,1,3.56,1.01,3.421,3.421,0,0,1,1.283,2.853,4.155,4.155,0,0,1-.541,2.213A3.837,3.837,0,0,1,83.357,11.7l2.672,5.167V17h-3.3ZM78.795,10.1h1.951a1.751,1.751,0,0,0,1.323-.463,1.788,1.788,0,0,0,.444-1.291,1.809,1.809,0,0,0-.448-1.3,1.735,1.735,0,0,0-1.318-.471H78.795Zm16.594,1.468H90.537v3.059h5.73V17H87.452V4.2h8.833V6.585H90.537v2.7h4.852Zm12.489,1.1a4.673,4.673,0,0,1-.721,2.36,4.35,4.35,0,0,1-1.85,1.586,6.3,6.3,0,0,1-2.72.563,5.025,5.025,0,0,1-3.973-1.644,6.786,6.786,0,0,1-1.45-4.641v-.633a7.746,7.746,0,0,1,.655-3.292A4.961,4.961,0,0,1,99.7,4.788a5.26,5.26,0,0,1,2.848-.769A5.516,5.516,0,0,1,106.3,5.245,4.844,4.844,0,0,1,107.9,8.624h-3.076a2.292,2.292,0,0,0-.589-1.679,2.422,2.422,0,0,0-1.687-.51,1.843,1.843,0,0,0-1.687.861,5.536,5.536,0,0,0-.562,2.751v.905a6.126,6.126,0,0,0,.514,2.927,1.882,1.882,0,0,0,1.771.879,2.369,2.369,0,0,0,1.626-.5,2.126,2.126,0,0,0,.6-1.591ZM112.624,17h-3.076V4.2h3.076Zm6.2-12.8,2.856,8.9,2.848-8.9h4.061V17h-3.094V14.012l.3-6.117L122.7,17h-2.039l-3.1-9.114.3,6.126V17h-3.085V4.2ZM133.832,17h-3.076V4.2h3.076Zm10.081-5.432h-4.852v3.059h5.73V17h-8.815V4.2h8.833V6.585h-5.748v2.7h4.852ZM156.736,17h-3.067l-4.535-7.963V17h-3.085V4.2h3.085l4.526,7.963V4.2h3.076ZM168.479,6.585h-3.841V17h-3.085V6.585h-3.771V4.2h10.7Zm11.892,4.28a7.546,7.546,0,0,1-.694,3.313A5.132,5.132,0,0,1,177.7,16.4a5.494,5.494,0,0,1-2.914.778,5.572,5.572,0,0,1-2.9-.751,5.123,5.123,0,0,1-1.973-2.149,7.329,7.329,0,0,1-.743-3.208v-.721a7.58,7.58,0,0,1,.69-3.318A5.119,5.119,0,0,1,171.84,4.81a5.854,5.854,0,0,1,5.832-.009A5.211,5.211,0,0,1,179.654,7a7.362,7.362,0,0,1,.716,3.274Zm-3.138-.536a5.381,5.381,0,0,0-.637-2.9,2.044,2.044,0,0,0-1.824-.989q-2.32,0-2.452,3.48l-.009.94a5.535,5.535,0,0,0,.624,2.892,2.041,2.041,0,0,0,1.854,1.011,2.016,2.016,0,0,0,1.8-.993,5.383,5.383,0,0,0,.642-2.856Z" transform="translate(636.863 10312.725)" fill="#12263f"/>
    <path id="Path_716603" data-name="Path 716603" d="M67.659,4.2l2.856,8.9,2.848-8.9h4.061V17H74.33V14.012l.3-6.117L71.535,17H69.5l-3.1-9.114.3,6.126V17H63.608V4.2ZM86.811,14.609H82.583L81.845,17h-3.3L83.242,4.2h2.9L90.871,17H87.558Zm-3.489-2.382h2.751l-1.38-4.438ZM91.8,17V4.2h4.122a6.064,6.064,0,0,1,3.05.769,5.406,5.406,0,0,1,2.114,2.171,6.554,6.554,0,0,1,.769,3.142v.589a6.592,6.592,0,0,1-.743,3.151,5.429,5.429,0,0,1-2.092,2.18,5.93,5.93,0,0,1-3.01.8ZM94.888,6.585v8.042H95.96A2.4,2.4,0,0,0,98,13.682a4.63,4.63,0,0,0,.712-2.808V10.32A4.592,4.592,0,0,0,98,7.525a2.442,2.442,0,0,0-2.074-.94ZM113.477,4.2v8.376a4.814,4.814,0,0,1-.606,2.465,3.929,3.929,0,0,1-1.74,1.586,6.131,6.131,0,0,1-2.681.545,5.3,5.3,0,0,1-3.683-1.213,4.326,4.326,0,0,1-1.371-3.322V4.2h3.1v8.5q.053,2.1,1.951,2.1a1.889,1.889,0,0,0,1.45-.527,2.465,2.465,0,0,0,.492-1.714V4.2Zm6.68,8.271h-1.67V17H115.4V4.2h5.036A5.621,5.621,0,0,1,124,5.213a3.421,3.421,0,0,1,1.283,2.853,4.155,4.155,0,0,1-.541,2.213,3.837,3.837,0,0,1-1.692,1.422l2.672,5.167V17h-3.3Zm-1.67-2.373h1.951a1.751,1.751,0,0,0,1.323-.463,1.788,1.788,0,0,0,.444-1.291,1.809,1.809,0,0,0-.448-1.3,1.735,1.735,0,0,0-1.318-.471h-1.951Zm16.594,1.468h-4.852v3.059h5.73V17h-8.815V4.2h8.833V6.585h-5.748v2.7h4.852Zm5.6,3.059H146.8V17h-9.967V15.374l6.1-8.789h-6.135V4.2h9.94V5.785Z" transform="translate(876.186 10312.725)" fill="#12263f"/>
    <path id="Path_716604" data-name="Path 716604" d="M53.075,17V4.2H57.2a6.064,6.064,0,0,1,3.05.769,5.406,5.406,0,0,1,2.114,2.171,6.554,6.554,0,0,1,.769,3.142v.589a6.592,6.592,0,0,1-.743,3.151A5.429,5.429,0,0,1,60.3,16.2a5.93,5.93,0,0,1-3.01.8ZM56.16,6.585v8.042h1.072a2.4,2.4,0,0,0,2.039-.945,4.63,4.63,0,0,0,.712-2.808V10.32a4.592,4.592,0,0,0-.712-2.795,2.442,2.442,0,0,0-2.074-.94Zm16.488,4.983H67.8v3.059h5.73V17H64.712V4.2h8.833V6.585H67.8v2.7h4.852Zm12.489,1.1a4.673,4.673,0,0,1-.721,2.36,4.35,4.35,0,0,1-1.85,1.586,6.3,6.3,0,0,1-2.72.563,5.025,5.025,0,0,1-3.973-1.644,6.786,6.786,0,0,1-1.45-4.641v-.633a7.746,7.746,0,0,1,.655-3.292,4.961,4.961,0,0,1,1.885-2.18,5.26,5.26,0,0,1,2.848-.769,5.516,5.516,0,0,1,3.744,1.226,4.844,4.844,0,0,1,1.608,3.379H82.088A2.292,2.292,0,0,0,81.5,6.945a2.422,2.422,0,0,0-1.687-.51,1.843,1.843,0,0,0-1.687.861,5.536,5.536,0,0,0-.562,2.751v.905a6.126,6.126,0,0,0,.514,2.927,1.882,1.882,0,0,0,1.771.879,2.369,2.369,0,0,0,1.626-.5,2.126,2.126,0,0,0,.6-1.591Zm4.544,1.96h5.37V17H86.6V4.2h3.085ZM99.64,17H96.563V4.2H99.64Zm7.11-3.48L109.3,4.2h3.445L108.437,17h-3.375L100.791,4.2h3.419Zm14.862-1.951h-4.852v3.059h5.73V17h-8.815V4.2h8.833V6.585h-5.748v2.7h4.852Z" transform="translate(1120.11 10312.725)" fill="#12263f"/>
  </g>
</svg>
