<svg xmlns="http://www.w3.org/2000/svg" xmlns:xlink="http://www.w3.org/1999/xlink" width="125" height="125" viewBox="0 0 125 125">
  <defs>
    <clipPath id="clip-path">
      <rect id="Rectangle_377767" data-name="Rectangle 377767" width="76.807" height="76.814" fill="none"/>
    </clipPath>
  </defs>
  <g id="Group_1072920" data-name="Group 1072920" transform="translate(-387 -11414)">
    <g id="Group_1013381" data-name="Group 1013381" transform="translate(1 9268)">
      <path id="Path_608385" data-name="Path 608385" d="M62.5,0A62.5,62.5,0,1,1,0,62.5,62.5,62.5,0,0,1,62.5,0Z" transform="translate(386 2146)" fill="#fff"/>
    </g>
    <g id="Group_1072461" data-name="Group 1072461" transform="translate(408.911 11438.213)">
      <g id="Group_1072460" data-name="Group 1072460" clip-path="url(#clip-path)">
        <path id="Path_609937" data-name="Path 609937" d="M41.216,47.9q.012-6.548.024-13.1c0-2.2-.06-4.4.037-6.589.05-1.126-.308-1.344-1.386-1.347a9.14,9.14,0,0,1-9.022-10.789,9.075,9.075,0,0,1,9.168-7.645c1.01.006,1.269-.253,1.234-1.229-.079-2.238-.043-4.48-.053-6.721Q69.683.476,98.147.45c.994,0,1.268.3,1.266,1.28q-.036,35-.016,70.01c0,3.106-2.411,5.711-6.356,5.376-3.381-1.389-4.219-2.661-4.219-6.4,0-1.718-.089-3.441.029-5.15.092-1.337-.313-1.709-1.672-1.693-6.516.075-13.034.016-19.551.053-.973.006-1.328-.257-1.283-1.262a45.239,45.239,0,0,0-.007-5.018c-.088-1.312.269-1.754,1.657-1.708,2.663.089,2.3.4,2.322-2.256.019-2.914,0-2.958-2.812-2.969-.984,0-1.178-.4-1.154-1.257.048-1.672.095-3.351-.012-5.018-.083-1.294.24-1.79,1.648-1.714,2.329.126,2.335.031,2.335-2.381,0-2.794,0-2.838-2.808-2.846-.974,0-1.2-.375-1.161-1.248.055-1.187.013-2.377.013-3.566,0-3,0-3,2.933-3.139a.916.916,0,0,1,.132,0c.712.069.915-.3.9-.954-.027-1.056-.062-2.117.01-3.169.066-.964-.341-1.2-1.231-1.178-2.333.048-4.667.016-7,.016-2.356,0-2.356,0-2.356,2.4,0,2.82,0,2.861,2.789,2.867.946,0,1.214.327,1.183,1.227-.057,1.672-.016,3.346-.016,5.02,0,1.7,0,1.691-1.724,1.708-2.56.025-2.212-.339-2.228,2.254-.018,2.9-.005,2.934,2.909,3.011.812.021,1.076.29,1.056,1.083-.043,1.716-.012,3.434-.013,5.152s0,1.7-1.715,1.716c-2.569.026-2.221-.339-2.237,2.245-.018,2.917-.005,2.946,2.9,3.02.8.02,1.083.27,1.065,1.073q-.064,2.905,0,5.812c.017.8-.246,1.1-1.06,1.075-1.848-.044-3.7.02-5.548-.029-.819-.022-.972.216-.726.975a17.5,17.5,0,0,1,.963,4.072l-5.784,5.784A19.409,19.409,0,0,1,46.636,73.4a6.494,6.494,0,0,1-3.263-2.348l2.939-3.1a35.069,35.069,0,0,0,3.944-3.844c.931-.916,1.834-1.863,2.8-2.736.622-.56.67-.946.027-1.553-1.3-1.227-2.514-2.54-3.764-3.818,1.364-.011,2.729-.059,4.092-.018.813.025,1.095-.28,1.06-1.076-.048-1.1-.036-2.2,0-3.3.02-.681-.249-.95-.93-.93-1.1.031-2.2.044-3.3,0-.8-.035-1.1.246-1.077,1.06.041,1.362-.007,2.728-.018,4.092L41.216,47.9M61.072,11.042q0,2.511,0,5.021a1.384,1.384,0,0,0,1.52,1.582q2.444.017,4.889,0c.87-.005,1.484-.406,1.484-1.318s-.614-1.308-1.485-1.317c-.969-.01-1.941-.053-2.906.007-1.161.073-.844-.749-.844-1.333s-.315-1.4.845-1.332c1.009.061,2.026.033,3.038,0a1.244,1.244,0,0,0,1.355-1.31,1.246,1.246,0,0,0-1.356-1.309,17.7,17.7,0,0,0-2.64.007c-1.111.126-1.288-.364-1.289-1.341s.181-1.474,1.289-1.339a21.114,21.114,0,0,0,2.376.019c.912.007,1.613-.331,1.613-1.324s-.7-1.327-1.614-1.323c-1.5.007-3-.013-4.493.006-1.376.017-1.768.426-1.781,1.847-.015,1.586,0,3.171,0,4.757m13.337,6.6c2.352.007,3.3-.284,4.2-1.378a3.786,3.786,0,0,0,.7-3.952,3.747,3.747,0,0,0-3.359-2.572c-.889-.084-1.633-.373-1.612-1.353.022-1.063.831-1.329,1.768-1.312.7.013,1.408.022,2.111-.01A1.226,1.226,0,0,0,79.547,5.74a1.232,1.232,0,0,0-1.354-1.3c-.7-.024-1.407-.012-2.111-.009-2.515.013-4.211,1.389-4.425,3.587-.219,2.254,1.233,3.934,3.8,4.335.853.133,1.471.507,1.416,1.406S76.154,15,75.3,15c-.792,0-1.585-.023-2.375.02a1.2,1.2,0,0,0-1.259,1.254,1.229,1.229,0,0,0,1.29,1.359c.481.034.967.006,1.451.006M83.4,44.081c2.51,0,5.02-.01,7.53.005.986.006,1.851-.217,1.817-1.384-.032-1.081-.875-1.271-1.8-1.269q-7.4.016-14.795,0c-.986,0-1.851.216-1.817,1.384.032,1.081.875,1.275,1.8,1.269,2.422-.015,4.843-.005,7.265-.005m.229,10.573c-2.466,0-4.932.011-7.4-.005-.959-.006-1.879.13-1.9,1.3s.876,1.352,1.85,1.35q7.331-.017,14.663,0c.959,0,1.879-.13,1.9-1.3s-.876-1.356-1.85-1.35c-2.422.016-4.844.005-7.265.005m.007-26.431c-2.466,0-4.932.011-7.4-.006-.959-.006-1.913.132-1.893,1.3.018,1.078.878,1.362,1.878,1.359q7.332-.029,14.665,0c1,0,1.873-.312,1.838-1.386-.031-.971-.864-1.287-1.823-1.275-2.422.031-4.844.01-7.266.01M53.142,11.874c0,1.317.014,2.635,0,3.952-.013.929.2,1.758,1.28,1.781,1.164.025,1.38-.838,1.374-1.819-.015-2.5.025-5.006-.022-7.508-.016-.847.1-1.321,1.116-1.222a1.238,1.238,0,0,0,1.505-1.271c.012-.987-.659-1.354-1.576-1.353-1.493,0-2.986.014-4.479-.005-.925-.012-1.751.189-1.8,1.267s.717,1.443,1.673,1.371c.781-.059.966.276.941.989-.045,1.272-.013,2.546-.012,3.82m33.053-7.44H83.823c-.917,0-1.586.369-1.571,1.357a1.24,1.24,0,0,0,1.51,1.266c1.019-.1,1.126.386,1.111,1.226-.045,2.5-.006,5.006-.021,7.509-.006.983.212,1.844,1.377,1.815,1.077-.027,1.284-.857,1.278-1.785-.015-2.459.021-4.918-.019-7.377-.014-.891.008-1.525,1.211-1.4A1.2,1.2,0,0,0,90.109,5.69,1.262,1.262,0,0,0,88.7,4.441c-.834-.017-1.668,0-2.5-.007M55.779,37.477a1.3,1.3,0,0,0-.747-1.179,1.2,1.2,0,0,0-1.364.14c-.606.505-1.111,1.417-1.756,1.515-.795.12-1.2-1-1.869-1.478a1.322,1.322,0,0,0-1.849,1.879c.473.624,1.474,1.017,1.481,1.756s-1,1.136-1.473,1.756a1.27,1.27,0,0,0,.036,1.8,1.231,1.231,0,0,0,1.786.1c.613-.487,1.134-1.412,1.764-1.476.772-.079,1.186,1.038,1.861,1.511a1.314,1.314,0,0,0,1.833-1.856A5.832,5.832,0,0,0,54.476,40.9c-.667-.537-.679-.976-.018-1.561.573-.507,1.29-.97,1.321-1.86M41.25,17.654c0-.923-.072-1.853.019-2.766.1-1.014-.431-1.188-1.243-1.206a3.969,3.969,0,1,0-.143,7.936c.936.017,1.518-.189,1.387-1.329a23.144,23.144,0,0,1-.02-2.634m9.256,13.172a1.282,1.282,0,0,0,1.027-.51c1.326-1.755,2.66-3.5,3.954-5.281a1.194,1.194,0,0,0-.225-1.767,1.218,1.218,0,0,0-1.857.254c-.712.895-1.387,1.819-2.064,2.74-.36.49-.6.617-1.064.018-.674-.866-1.607-.9-2.084-.138-.851,1.367.49,2.263.849,3.365.22.675.6,1.3,1.464,1.318M88.9,36.157c-.88,0-1.762-.025-2.641.007a1.25,1.25,0,0,0-1.364,1.3,1.235,1.235,0,0,0,1.348,1.314q2.574.049,5.149,0a1.308,1.308,0,1,0,.016-2.615c-.835-.037-1.672-.008-2.508-.008m.036,13.215c-.88,0-1.761-.019-2.641.005a1.263,1.263,0,0,0-1.4,1.268A1.223,1.223,0,0,0,86.2,51.992q2.639.06,5.28,0a1.208,1.208,0,0,0,1.27-1.255,1.243,1.243,0,0,0-1.314-1.348c-.834-.047-1.672-.011-2.508-.012m-.152-23.8c.836,0,1.673.017,2.509,0a1.338,1.338,0,0,0,1.444-1.251,1.309,1.309,0,0,0-1.447-1.372c-1.672-.034-3.346-.027-5.019,0a1.229,1.229,0,0,0-1.37,1.289,1.33,1.33,0,0,0,1.373,1.325c.833.054,1.672.012,2.509.014M79.669,38.783v.006c.4,0,.794.027,1.187-.006a1.262,1.262,0,0,0,1.326-1.341,1.214,1.214,0,0,0-1.256-1.267,21.643,21.643,0,0,0-2.769.01,1.2,1.2,0,0,0-1.2,1.318,1.241,1.241,0,0,0,1.258,1.271c.48.045.967.008,1.451.008m-.08,13.223c.4,0,.793.014,1.188,0,.811-.035,1.381-.429,1.4-1.266.023-.909-.564-1.34-1.437-1.361-.835-.02-1.674-.037-2.507.012a1.227,1.227,0,0,0-1.274,1.252A1.258,1.258,0,0,0,78.27,52c.437.039.879.007,1.319.009m.017-26.428c.308,0,.616,0,.924,0,.923.013,1.634-.424,1.626-1.333s-.727-1.329-1.649-1.312c-.7.013-1.409-.008-2.113.008-.81.019-1.415.41-1.423,1.24-.008.868.594,1.321,1.447,1.388.394.031.792.005,1.188.007" transform="translate(-22.607 -0.331)" fill="#e8edf1"/>
        <path id="Path_609938" data-name="Path 609938" d="M128.4,135.108a17.469,17.469,0,0,0-.963-4.072c-.246-.759-.093-1,.726-.975,1.848.049,3.7-.015,5.548.029.814.02,1.077-.28,1.06-1.075q-.062-2.905,0-5.813c.018-.8-.264-1.053-1.065-1.073-2.9-.074-2.918-.1-2.9-3.02.016-2.583-.332-2.219,2.237-2.245,1.714-.017,1.714,0,1.715-1.716s-.03-3.436.013-5.152c.02-.793-.245-1.062-1.056-1.083-2.914-.077-2.927-.106-2.909-3.011.016-2.592-.333-2.228,2.228-2.254,1.722-.017,1.723,0,1.724-1.708,0-1.673-.04-3.348.016-5.02.03-.9-.237-1.225-1.184-1.227-2.789-.006-2.789-.046-2.789-2.867,0-2.4,0-2.4,2.356-2.4,2.334,0,4.668.032,7-.016.889-.019,1.3.213,1.231,1.178-.072,1.052-.037,2.113-.01,3.169.016.649-.186,1.023-.9.953a.916.916,0,0,0-.132,0c-2.933.14-2.933.14-2.933,3.139,0,1.189.041,2.38-.013,3.566-.04.873.188,1.246,1.161,1.248,2.809.008,2.809.052,2.808,2.846,0,2.412-.005,2.507-2.334,2.381-1.408-.076-1.731.42-1.648,1.714.107,1.667.06,3.346.012,5.018-.025.862.17,1.253,1.153,1.257,2.817.01,2.832.055,2.813,2.969-.017,2.659.341,2.345-2.322,2.255-1.387-.047-1.744.4-1.657,1.708a45.238,45.238,0,0,1,.007,5.017c-.045,1.005.31,1.268,1.283,1.262,6.517-.038,13.035.022,19.551-.053,1.359-.016,1.763.356,1.672,1.693-.117,1.709-.029,3.433-.029,5.15,0,3.74.838,5.011,4.219,6.4l-33.35-.031c-.19-.809-.318-1.639-.581-2.424-.635-1.894-.811-3.929-1.762-5.725" transform="translate(-93.656 -66.502)" fill="#d9dbdd"/>
        <path id="Path_609939" data-name="Path 609939" d="M18.612.151c.011,2.24-.025,4.482.053,6.721.034.977-.225,1.235-1.234,1.229a9.075,9.075,0,0,0-9.168,7.645,9.141,9.141,0,0,0,9.022,10.789c1.078,0,1.435.221,1.386,1.347-.1,2.193-.034,4.393-.037,6.589-1.451.009-2.9-.021-4.352.043-.788.035-.983-.281-.938-1,.05-.789-.057-1.59.029-2.372.1-.9-.292-1.267-1.069-1.658a1.8,1.8,0,0,0-2.465.585c-1.727,1.835-1.767,1.8-3.556.011-1-.995-1.975-2.006-2.992-2.978-.41-.392-.452-.684-.009-1.069s.774-.854,1.226-1.2a1.85,1.85,0,0,0,.562-2.685,1.409,1.409,0,0,0-1.507-.889c-1.088-.006-2.514.482-3.18-.186-.724-.726-.195-2.167-.234-3.295C.108,16.6.178,15.411.127,14.226c-.03-.712.241-.923.914-.884.789.046,1.588-.048,2.373.025.92.086,1.317-.285,1.764-1.11.719-1.326-.114-1.9-.848-2.632C2.762,8.067,2.765,8.064,4.31,6.519,5.336,5.493,6.387,4.491,7.377,3.431c.492-.527.856-.649,1.355-.033.358.442.84.783,1.194,1.228a1.648,1.648,0,0,0,2.356.528c.76-.387,1.144-.722,1.1-1.641-.047-1.077-.506-2.487.2-3.166s2.093-.153,3.181-.2c.614-.029,1.231,0,1.846.009" transform="translate(0 0.001)" fill="#3597e7"/>
        <path id="Path_609940" data-name="Path 609940" d="M5.845,166.137a31.422,31.422,0,0,1-4.484-4.416,4.5,4.5,0,0,1,.231-5.927,55.163,55.163,0,0,1,4.284-4.284,4.523,4.523,0,0,1,6.032-.152,33.1,33.1,0,0,1,4.318,4.4L13.012,159A47.868,47.868,0,0,0,9.106,162.9l-3.261,3.234" transform="translate(-0.263 -110.538)" fill="#ea4441"/>
        <path id="Path_609941" data-name="Path 609941" d="M48.207,174.235l3.214-3.241c1.077.563,1.668,1.674,2.647,2.348L62,181.272l.177.178c1.25,1.278,2.466,2.591,3.764,3.818.643.607.595.994-.027,1.553-.97.873-1.873,1.82-2.805,2.737-.064-.589-.55-.877-.911-1.241q-6.988-7.047-13.99-14.082" transform="translate(-35.459 -125.774)" fill="#3597e7"/>
        <path id="Path_609942" data-name="Path 609942" d="M57.926,248a6.494,6.494,0,0,0,3.263,2.348,19.421,19.421,0,0,0,4.929,1.316c.259.447.753.382,1.15.5,1.82.563,3.716.866,5.486,1.6-.378.45-.9.286-1.361.287q-7.665.016-15.329,0a5.215,5.215,0,0,1-5.545-5.523c.006-2.51.041-5.02.063-7.529.852.8,1.7,1.617,2.556,2.412A56.727,56.727,0,0,0,57.926,248" transform="translate(-37.158 -177.273)" fill="#d9dbdd"/>
        <path id="Path_609943" data-name="Path 609943" d="M36.292,216.375A56.724,56.724,0,0,1,31.5,211.8c-.861-.795-1.7-1.607-2.556-2.412q-3.461-3.521-6.918-7.044c-.332-.34-.763-.6-.923-1.091l3.261-3.234a3.39,3.39,0,0,0,1,1.2q6.421,6.437,12.851,12.864a3.635,3.635,0,0,1,1.01,1.2l-2.939,3.1" transform="translate(-15.524 -145.65)" fill="#3597e7"/>
        <path id="Path_609944" data-name="Path 609944" d="M116.14,267.313c-1.77-.737-3.666-1.04-5.486-1.6-.4-.123-.89-.057-1.149-.5l5.784-5.784c.95,1.8,1.127,3.831,1.762,5.725.263.785.391,1.614.581,2.424l-1.491-.258" transform="translate(-80.545 -190.817)" fill="#2a78b8"/>
        <path id="Path_609945" data-name="Path 609945" d="M48.3,202.414a3.635,3.635,0,0,0-1.01-1.2q-6.421-6.436-12.851-12.864a3.389,3.389,0,0,1-1-1.2,47.753,47.753,0,0,1,3.906-3.906q7,7.039,13.99,14.082c.362.364.847.653.911,1.241a35.015,35.015,0,0,1-3.943,3.844" transform="translate(-24.596 -134.787)" fill="#2a78b8"/>
        <path id="Path_609946" data-name="Path 609946" d="M145.436,22.11c0-1.586-.012-3.172,0-4.757.013-1.421.4-1.83,1.781-1.847,1.5-.019,2.995,0,4.493-.006.912,0,1.614.329,1.614,1.323s-.7,1.331-1.613,1.324a21.113,21.113,0,0,1-2.376-.019c-1.108-.135-1.29.359-1.29,1.338s.178,1.467,1.289,1.341a17.662,17.662,0,0,1,2.64-.007,1.31,1.31,0,1,1,0,2.619c-1.012.035-2.029.062-3.038,0-1.161-.07-.846.747-.845,1.333s-.317,1.406.844,1.333c.965-.061,1.937-.017,2.906-.007.871.009,1.484.4,1.485,1.317s-.613,1.313-1.484,1.318q-2.444.014-4.889,0a1.384,1.384,0,0,1-1.52-1.582q0-2.511,0-5.021" transform="translate(-106.971 -11.399)" fill="#3597e7"/>
        <path id="Path_609947" data-name="Path 609947" d="M188.172,28.707c-.484,0-.969.028-1.451-.006a1.229,1.229,0,0,1-1.29-1.359,1.2,1.2,0,0,1,1.259-1.254c.79-.042,1.583-.017,2.375-.02.853,0,1.52-.349,1.575-1.243s-.564-1.273-1.416-1.406c-2.569-.4-4.021-2.081-3.8-4.335.213-2.2,1.91-3.574,4.425-3.587.7,0,1.408-.015,2.111.009a1.232,1.232,0,0,1,1.354,1.3,1.226,1.226,0,0,1-1.325,1.325c-.7.032-1.407.022-2.111.01-.938-.017-1.746.249-1.768,1.312-.021.981.723,1.27,1.612,1.353a3.747,3.747,0,0,1,3.359,2.573,3.786,3.786,0,0,1-.7,3.951c-.909,1.094-1.852,1.385-4.2,1.378" transform="translate(-136.371 -11.395)" fill="#3597e7"/>
        <path id="Path_609948" data-name="Path 609948" d="M204.654,158.073c-2.422,0-4.844-.01-7.265.005-.926.006-1.769-.189-1.8-1.269-.035-1.168.831-1.386,1.817-1.384q7.4.016,14.795,0c.926,0,1.769.188,1.8,1.269.035,1.168-.831,1.39-1.817,1.384-2.51-.015-5.02-.005-7.529-.005" transform="translate(-143.863 -114.322)" fill="#d9dbdd"/>
        <path id="Path_609949" data-name="Path 609949" d="M204.887,205.4c2.422,0,4.844.011,7.265-.005.975-.006,1.869.178,1.85,1.35s-.938,1.306-1.9,1.3q-7.331-.017-14.663,0c-.974,0-1.868-.179-1.85-1.35s.938-1.31,1.9-1.3c2.466.016,4.932.005,7.4.005" transform="translate(-143.867 -151.079)" fill="#d9dbdd"/>
        <path id="Path_609950" data-name="Path 609950" d="M204.922,105.439c2.422,0,4.844.021,7.266-.01.959-.012,1.792.3,1.824,1.275.035,1.074-.834,1.389-1.838,1.386q-7.332-.024-14.665,0c-1,0-1.86-.28-1.878-1.359-.02-1.166.934-1.3,1.893-1.3,2.466.016,4.932.005,7.4.005" transform="translate(-143.895 -77.548)" fill="#d9dbdd"/>
        <path id="Path_609951" data-name="Path 609951" d="M108.225,22.937c0-1.273-.033-2.548.012-3.82.025-.713-.159-1.047-.94-.989-.955.072-1.717-.3-1.673-1.371s.871-1.279,1.8-1.267c1.493.019,2.986.007,4.479.005.917,0,1.588.366,1.576,1.353a1.238,1.238,0,0,1-1.505,1.271c-1.012-.1-1.132.375-1.116,1.222.047,2.5.006,5.006.022,7.508.006.982-.21,1.845-1.374,1.819-1.077-.024-1.294-.852-1.28-1.781.019-1.317,0-2.635,0-3.952" transform="translate(-77.69 -11.394)" fill="#3597e7"/>
        <path id="Path_609952" data-name="Path 609952" d="M229.486,15.51c.834,0,1.669-.012,2.5.006a1.262,1.262,0,0,1,1.412,1.249,1.2,1.2,0,0,1-1.409,1.357c-1.2-.126-1.225.507-1.211,1.4.039,2.458,0,4.918.019,7.377.006.928-.2,1.758-1.278,1.785-1.165.029-1.383-.832-1.377-1.815.015-2.5-.024-5.006.021-7.509.015-.84-.093-1.327-1.111-1.226a1.24,1.24,0,0,1-1.51-1.266c-.016-.988.653-1.358,1.571-1.357q1.186,0,2.371,0" transform="translate(-165.898 -11.406)" fill="#3597e7"/>
        <path id="Path_609953" data-name="Path 609953" d="M103.379,136.763c-.031.89-.748,1.353-1.321,1.86-.661.585-.649,1.024.018,1.561a5.839,5.839,0,0,1,1.008,1.039,1.314,1.314,0,0,1-1.833,1.856c-.676-.473-1.09-1.589-1.861-1.511-.629.064-1.15.989-1.764,1.476a1.231,1.231,0,0,1-1.786-.1,1.27,1.27,0,0,1-.036-1.8c.475-.621,1.481-1.013,1.473-1.756s-1.008-1.132-1.481-1.756a1.322,1.322,0,0,1,1.849-1.879c.667.475,1.074,1.6,1.869,1.478.645-.1,1.151-1.01,1.756-1.515a1.2,1.2,0,0,1,1.364-.14,1.3,1.3,0,0,1,.747,1.179" transform="translate(-70.207 -99.617)" fill="#ea4441"/>
        <path id="Path_609954" data-name="Path 609954" d="M55.8,54.458a23.138,23.138,0,0,0,.02,2.634c.132,1.141-.45,1.346-1.387,1.33a3.969,3.969,0,1,1,.143-7.936c.813.017,1.344.191,1.243,1.206-.092.914-.019,1.844-.019,2.766" transform="translate(-37.152 -37.134)" fill="#2a78b8"/>
        <path id="Path_609955" data-name="Path 609955" d="M98.288,93.4c-.866-.017-1.243-.642-1.463-1.316-.359-1.1-1.7-2-.849-3.365.477-.766,1.41-.729,2.084.138.466.6.7.472,1.065-.018.678-.921,1.352-1.846,2.064-2.74a1.218,1.218,0,0,1,1.857-.254,1.194,1.194,0,0,1,.225,1.767c-1.294,1.778-2.628,3.527-3.954,5.281a1.278,1.278,0,0,1-1.028.509" transform="translate(-70.391 -62.904)" fill="#2a78b8"/>
        <path id="Path_609956" data-name="Path 609956" d="M100.534,195.7l-.177-.178c.011-1.364.059-2.729.018-4.092-.025-.813.281-1.095,1.077-1.06,1.1.048,2.2.036,3.3,0,.681-.02.949.249.93.93-.031,1.1-.044,2.2,0,3.3.035.8-.246,1.1-1.06,1.076-1.362-.041-2.728.007-4.092.018" transform="translate(-73.817 -140.026)" fill="#d9dbdd"/>
        <path id="Path_609957" data-name="Path 609957" d="M239.532,135.444c.836,0,1.674-.028,2.508.008a1.309,1.309,0,1,1-.016,2.615q-2.574.043-5.149,0a1.235,1.235,0,0,1-1.348-1.314,1.25,1.25,0,0,1,1.364-1.3c.879-.033,1.76-.007,2.64-.007" transform="translate(-173.242 -99.618)" fill="#d9dbdd"/>
        <path id="Path_609958" data-name="Path 609958" d="M239.566,185.413c.836,0,1.674-.035,2.508.011a1.243,1.243,0,0,1,1.314,1.348,1.208,1.208,0,0,1-1.27,1.254q-2.639.064-5.28,0a1.223,1.223,0,0,1-1.312-1.346,1.263,1.263,0,0,1,1.4-1.268c.88-.024,1.76-.006,2.641,0" transform="translate(-173.24 -136.371)" fill="#d9dbdd"/>
        <path id="Path_609959" data-name="Path 609959" d="M239.434,88.089c-.836,0-1.676.041-2.509-.013a1.33,1.33,0,0,1-1.373-1.325,1.229,1.229,0,0,1,1.37-1.289c1.672-.027,3.346-.035,5.019,0a1.309,1.309,0,0,1,1.447,1.372,1.339,1.339,0,0,1-1.445,1.251c-.836.022-1.673,0-2.509,0" transform="translate(-173.26 -62.844)" fill="#d9dbdd"/>
        <path id="Path_609960" data-name="Path 609960" d="M208.241,138.041c-.484,0-.971.037-1.451-.008a1.241,1.241,0,0,1-1.258-1.271,1.2,1.2,0,0,1,1.2-1.318,21.6,21.6,0,0,1,2.769-.01,1.214,1.214,0,0,1,1.256,1.266,1.262,1.262,0,0,1-1.326,1.34c-.393.033-.792.006-1.187.006v-.006" transform="translate(-151.179 -99.589)" fill="#d9dbdd"/>
        <path id="Path_609961" data-name="Path 609961" d="M208.164,188.033c-.44,0-.883.031-1.319-.008a1.258,1.258,0,0,1-1.309-1.357,1.226,1.226,0,0,1,1.274-1.252c.833-.049,1.672-.033,2.507-.012.873.021,1.46.452,1.436,1.361-.021.837-.591,1.23-1.4,1.266-.4.017-.792,0-1.188,0" transform="translate(-151.181 -136.359)" fill="#d9dbdd"/>
        <path id="Path_609962" data-name="Path 609962" d="M208.213,88.114c-.4,0-.794.025-1.188-.006-.853-.067-1.454-.52-1.447-1.388.008-.831.612-1.221,1.423-1.24.7-.017,1.409,0,2.113-.009.922-.017,1.64.4,1.649,1.312s-.7,1.346-1.626,1.333c-.308,0-.616,0-.924,0" transform="translate(-151.213 -62.867)" fill="#d9dbdd"/>
      </g>
    </g>
  </g>
</svg>
