<svg xmlns="http://www.w3.org/2000/svg" xmlns:xlink="http://www.w3.org/1999/xlink" width="125" height="125" viewBox="0 0 125 125">
  <defs>
    <clipPath id="clip-path">
      <rect id="Rectangle_377766" data-name="Rectangle 377766" width="81.345" height="79.637" fill="none"/>
    </clipPath>
  </defs>
  <g id="Group_1072921" data-name="Group 1072921" transform="translate(-739 -11414)">
    <g id="Group_1072049" data-name="Group 1072049" transform="translate(353 9268)">
      <path id="Path_608385" data-name="Path 608385" d="M62.5,0A62.5,62.5,0,1,1,0,62.5,62.5,62.5,0,0,1,62.5,0Z" transform="translate(386 2146)" fill="#fff"/>
    </g>
    <g id="Group_1072459" data-name="Group 1072459" transform="translate(755.374 11431.581)">
      <g id="Group_1072458" data-name="Group 1072458" clip-path="url(#clip-path)">
        <path id="Path_609905" data-name="Path 609905" d="M76.318,45.482c.962.1,1.114.744,1.031,1.547-.4,3.832-.825,7.66-1.174,11.5-.521,5.73-1.467,11.425-1.322,17.214.032,1.277.382,1.575,1.559,1.47s2.372-.027,3.559-.02c.784,0,1.345.354,1.372,1.176.027.841-.572,1.167-1.318,1.248a9.532,9.532,0,0,1-1.017.011q-38.348,0-76.7,0c-.988,0-2.325.248-2.313-1.241.012-1.515,1.376-1.159,2.341-1.186a32.6,32.6,0,0,1,3.305.013c.838.062.963-.268.956-1.009-.034-4.07-.028-8.14,0-12.209,0-.679-.043-1.093-.9-1.1a1.749,1.749,0,0,1-1.81-1.894c-.063-1.905-.07-3.816,0-5.721a1.969,1.969,0,0,1,2.167-2.01c1.482-.054,2.967-.018,4.451-.01a1.421,1.421,0,0,1,1.509,1.252,1.444,1.444,0,0,1-1.665,1.212c-.932-.02-1.87.053-2.8-.02-.946-.074-1.411.152-1.283,1.218a11.257,11.257,0,0,1,0,2.413c-.095.973.2,1.273,1.229,1.269,10.26-.042,20.521-.016,30.781-.039,1.165,0,2.721.539,3.39-.254.572-.678.1-2.187.214-3.316.112-1.107-.334-1.3-1.351-1.3-7.759.042-15.518.011-23.276.038-.992,0-1.761-.176-2.078-1.224.225-1.127,1.068-1.257,2-1.256,4.621,0,9.243-.035,13.863.029,1.044.015,1.259-.316,1.217-1.271-.073-1.692-.025-3.391-.016-5.086a4.839,4.839,0,0,1,2.765-4.509,1.612,1.612,0,0,0,1.014-1.682c-.051-1.567-.039-3.137,0-4.705a1.479,1.479,0,0,0-.859-1.528,5.018,5.018,0,0,1-2.762-4.78c.006-3.943-.011-7.886.006-11.828.015-3.5,2.12-5.59,5.619-5.612a1.97,1.97,0,0,0,.254,0c.655-.091,1.636.34,1.9-.213a6.621,6.621,0,0,0,.146-2.489c.012-.46-.362-.368-.625-.435A2.027,2.027,0,0,1,38.073,6.9c.018-1.568-.014-3.137.01-4.706C38.107.7,38.792.014,40.265.01q6.55-.019,13.1,0a1.928,1.928,0,0,1,2.207,2.058c.073,1.65.051,3.307,0,4.959-.026.889-.345,1.758-1.312,1.956-.9.184-1.016.663-.925,1.407.04.334-.014.679.012,1.016.029.369-.213.888.533.884.583,0,1.07.018,1.2-.737a11.172,11.172,0,0,1,2.043-4.728,12.051,12.051,0,0,1,14.233-4.2A12.28,12.28,0,0,1,79,14.921a12.275,12.275,0,0,1-10.322,11c-2.129.32-4.253-.016-7.433-1.2,0,1.341,0,2.631,0,3.921,0,.9.678.58,1.1.582,4.494.02,8.988.011,13.483.013,2.75,0,3.362.712,3.057,3.428-.3,2.651-.569,5.305-.8,7.963-.087,1-.4,1.722-1.5,1.855a1.64,1.64,0,0,1-.94-1.973c.2-1.337.239-2.7.431-4.036.12-.836-.1-1.081-.967-1.076q-8.706.055-17.412,0c-.9-.006-1.161.228-1.051,1.131.385,3.148.718,6.3,1.044,9.458q1.167,11.3,2.3,22.6c.065.656.3.861.938.857,3.643-.022,7.287-.013,10.93-.007.466,0,.795-.045.851-.647.237-2.526.52-5.048.784-7.572q.761-7.258,1.526-14.515c.08-.752.42-1.291,1.3-1.214M51.606,26.447c-.227,1.056-.989,1.237-1.921,1.234-4.576-.014-9.154.038-13.729-.036-1.176-.019-1.2.543-1.15,1.382.047.807-.265,1.674,1.177,1.644,4.151-.086,8.3-.042,12.457-.024,2.045.009,2.858.831,2.866,2.855q.019,4.83,0,9.661c-.006,2.161-.759,2.923-2.888,2.926-3.771.006-7.543-.024-11.314.011-2.755.026-2.507-.605-2.559,2.571-.012.76.183,1.029.987,1.025q9.6-.045,19.2,0c.851,0,.925-.288.837-1.058-.647-5.673-1.246-11.352-1.835-17.032a2.111,2.111,0,0,1,2.1-2.349,19.784,19.784,0,0,1,2.16-.013c.751.04.829-.386.784-.963-.073-.935-.8-.546-1.262-.593-1.047-.1-2.312.316-2.67-1.247a1.436,1.436,0,0,1,1.649-1.224q.826.019,1.652,0c.273-.007.671.1.642-.37-.056-.887.259-1.793-.574-2.6a11.329,11.329,0,0,1-3.276-6.708c-.092-.631-.238-.864-.9-.861-5.422.021-10.844-.008-16.266.024a2.692,2.692,0,0,0-2.96,3.019c-.016,2.118.054,4.238-.03,6.352-.038.972.251,1.179,1.186,1.168,4.574-.052,9.15-.01,13.724-.035.953-.005,1.672.213,1.912,1.24M24.116,77.189c4.621,0,9.242-.045,13.862.032,1.159.019,1.2-.5,1.157-1.351-.04-.792.188-1.55-1.15-1.5-2.921.109-5.849.037-8.774.033-2.411,0-2.863-.468-2.867-2.922q0-1.907,0-3.815c0-2.378.555-2.941,2.891-2.944,2.967,0,5.935-.01,8.9.007.615,0,1.016-.012,1.018-.846s-.323-.961-1.051-.959q-13.99.03-27.979,0c-.8,0-1.1.173-1.088,1.047q.072,6.1,0,12.208c-.01.879.3,1.034,1.09,1.029,4.663-.031,9.326-.016,13.99-.015M45.24,52.17c-3.263,0-6.526-.006-9.788.009-.36,0-.887-.229-.9.512s.487.554.87.556c1.865.012,3.729.005,5.594.006,2.7,0,3.161.456,3.244,3.12.01.325-.237.791.351.929.949.223,1.073.947,1.072,1.765q-.01,6.928,0,13.856c0,.865-.125,1.706-1.234,1.683s-1.176-.893-1.176-1.741c0-2.966.017-5.932-.021-8.9-.005-.4.436-1.184-.643-1.093-.759.064-1.2.133-1.184,1.117.064,4.024.051,8.05.007,12.075-.009.859.178,1.156,1.1,1.147q7.118-.072,14.237,0c.918.009,1.115-.291,1.113-1.151a80.2,80.2,0,0,0-.43-9.38c-.541-4.537-1-9.084-1.431-13.633-.079-.846-.445-.894-1.114-.889-3.22.026-6.441.012-9.661.012m-7.332-8.462c3.263,0,6.649-.013,10.035.012.627,0,.908-.124.9-.829-.033-3.006-.022-6.013-.006-9.019,0-.517-.118-.754-.7-.751-3.461.022-6.923.011-10.237.011a25.038,25.038,0,0,1,.009,10.576M66.481,71.821c-1.78,0-3.56.028-5.339-.015-.678-.016-.881.208-.854.868a31.085,31.085,0,0,1-.006,3.43c-.062.884.294,1.048,1.085,1.033,2.287-.046,4.577.023,6.864-.03,1.378-.032,3.265.634,3.993-.276.689-.862.147-2.674.236-4.062.054-.834-.28-.985-1.022-.963-1.651.049-3.3.015-4.957.016M46.684,6.829h3.047c3.515,0,3.491,0,3.435-3.524-.012-.766-.2-1.02-1-1.007-2.792.046-5.585.018-8.378.018-3.428,0-3.4,0-3.376,3.441.006.823.216,1.118,1.065,1.09,1.733-.057,3.469-.017,5.2-.017M76.569,13.9A9.651,9.651,0,0,0,66.934,4.18,9.742,9.742,0,1,0,76.569,13.9M33.775,72.055c.465,0,.93.02,1.394,0,1.292-.068,3.064.564,3.743-.25.651-.781.147-2.492.23-3.79.049-.766-.26-.9-.942-.887-1.857.042-3.717-.016-5.575.024-1.29.028-3.063-.571-3.737.245-.65.786-.145,2.495-.227,3.793-.048.759.252.906.934.883,1.392-.048,2.787-.014,4.181-.014M66.33,31.61c-3.045,0-6.09-.008-9.135.01-.388,0-.974-.269-.977.562,0,.778.4.872,1.043.871q9.071-.025,18.143-.006c.571,0,1.068.067,1.089-.792.023-.932-.606-.631-1.027-.634-3.045-.02-6.09-.011-9.135-.011M46.761,12.269h2.03c2.283,0,2.255,0,2.16-2.332-.025-.63-.231-.77-.812-.763-2.241.028-4.482.007-6.723.016-.3,0-.631-.123-.749.412-.45,2.039.011,2.667,2.064,2.667Z" transform="translate(0 0)" fill="#060706"/>
        <path id="Path_609906" data-name="Path 609906" d="M242.109,149.1c-.883-.077-1.222.462-1.3,1.214q-.775,7.256-1.526,14.514c-.265,2.524-.547,5.046-.784,7.573-.057.6-.385.648-.851.647-3.643-.006-7.287-.015-10.93.007-.64,0-.872-.2-.937-.857q-1.119-11.3-2.3-22.6c-.326-3.155-.659-6.31-1.044-9.458-.11-.9.147-1.137,1.051-1.131q8.706.059,17.412,0c.865-.006,1.087.239.967,1.075-.192,1.338-.23,2.7-.431,4.036a1.639,1.639,0,0,0,.94,1.973,17.886,17.886,0,0,1-.268,3.007m-14.295,6.319c0,1.948-.016,3.9.005,5.842a1.971,1.971,0,0,0,2.206,2.18c1.439.021,2.88.023,4.319,0a1.932,1.932,0,0,0,2.153-2.1q.045-5.842,0-11.685a1.878,1.878,0,0,0-2.015-2.115,45.726,45.726,0,0,0-4.7.008,1.9,1.9,0,0,0-1.97,2.158c-.019,1.905,0,3.81,0,5.716m4.327-9.83v.006a15.319,15.319,0,0,0,1.9-.017,1.162,1.162,0,0,0,1.154-1.26,1.1,1.1,0,0,0-1.116-1.156c-1.266-.065-2.539-.06-3.805,0a1.134,1.134,0,0,0-1.162,1.122,1.168,1.168,0,0,0,1.128,1.289,13.314,13.314,0,0,0,1.9.019" transform="translate(-165.791 -103.617)" fill="#d1e560"/>
        <path id="Path_609907" data-name="Path 609907" d="M16.915,108.284c.094-.665.249-1.84.43-3.01a1.336,1.336,0,0,0-.6-1.509c-1.047-.714-2.034-1.52-3.009-2.333-1.2-1-1.179-2.07.019-3.073a7.865,7.865,0,0,1,1.411-1.077c2.08-1.047,2.413-2.631,1.915-4.8-.615-2.672-.382-4.53,3.388-3.555a4.137,4.137,0,0,0,5.272-2.281,5.9,5.9,0,0,1,.7-.906c1.081-1.31,2.2-1.324,3.261-.021.721.886,1.457,1.766,2.1,2.708a1.528,1.528,0,0,0,1.7.725c1.127-.185,2.264-.3,3.4-.447,1.643-.206,2.53.588,2.4,2.226a27.633,27.633,0,0,1-.443,3.393,1.651,1.651,0,0,0,.776,1.923c.976.67,1.914,1.4,2.822,2.16a1.761,1.761,0,0,1,0,3c-.972.815-1.975,1.6-3.015,2.325a1.334,1.334,0,0,0-.615,1.5c.2,1.167.363,2.341.472,3.519.159,1.714-.582,2.467-2.27,2.326a27.669,27.669,0,0,1-3.523-.428,1.431,1.431,0,0,0-1.681.715c-.685.966-1.422,1.9-2.178,2.809a1.792,1.792,0,0,1-3.089.031,7.334,7.334,0,0,1-1.237-1.6c-.99-2.143-2.712-2.144-4.628-1.733a10.746,10.746,0,0,1-1.38.2c-1.9.156-2.493-.4-2.4-2.785M15.68,99.921c1.039.811,1.966,1.549,2.909,2.266a2.758,2.758,0,0,1,1.162,2.652c-.065.589-.194,1.173-.228,1.763-.141,2.418-.482,2.2,1.82,1.782s3.969-.016,5.326,2.036c1.289,1.949,1.541,1.939,2.832,0a4.425,4.425,0,0,1,5.07-2.076c2.908.545,2.277.4,1.983-1.96-.2-1.594-.476-3.209,1.182-4.365.912-.636,2.489-1.259,2.4-2.136-.077-.8-1.568-1.49-2.479-2.172a2.8,2.8,0,0,1-1.233-2.738c.114-.966.207-1.934.342-2.9.089-.629-.055-1.073-.771-.831-3.417,1.153-5.8-.085-7.457-3.119-.357-.654-.66-.4-1,.066-.545.755-1.15,1.466-1.708,2.213a3.027,3.027,0,0,1-3,1.23c-1.116-.131-2.578-.9-3.255-.2s.027,2.16.158,3.282A3.061,3.061,0,0,1,18.4,97.794c-.915.663-1.784,1.39-2.723,2.127" transform="translate(-9.579 -63.177)" fill="#060706"/>
        <path id="Path_609908" data-name="Path 609908" d="M33.473,214.1c.317,1.049,1.086,1.228,2.078,1.224,7.759-.026,15.518,0,23.276-.038,1.016-.006,1.463.19,1.351,1.3-.115,1.129.358,2.638-.214,3.316-.669.793-2.224.251-3.39.254-10.26.023-20.521,0-30.781.039-1.028,0-1.324-.3-1.229-1.269a11.257,11.257,0,0,0,0-2.413c-.128-1.066.338-1.293,1.283-1.218.927.073,1.865,0,2.8.02a1.444,1.444,0,0,0,1.665-1.212h3.167" transform="translate(-18.293 -159.589)" fill="#d1e560"/>
        <path id="Path_609909" data-name="Path 609909" d="M50.575,261.414c-4.663,0-9.327-.016-13.99.016-.787.005-1.1-.15-1.09-1.029q.073-6.1,0-12.208c-.01-.875.287-1.049,1.088-1.047q13.99.035,27.979,0c.728,0,1.053.119,1.05.959s-.4.85-1.018.846c-2.967-.017-5.935-.01-8.9-.007-2.335,0-2.886.566-2.89,2.944q0,1.907,0,3.815c0,2.455.456,2.919,2.867,2.922,2.925,0,5.853.076,8.774-.033,1.338-.05,1.11.709,1.15,1.5.043.855,0,1.371-1.157,1.351-4.619-.077-9.241-.032-13.862-.032m-8.118-4.7c1.272,0,2.544.016,3.815-.006.789-.014,1.482-.294,1.494-1.2.013-.985-.691-1.251-1.553-1.25-2.458,0-4.917.01-7.376,0-.856,0-1.6.211-1.617,1.188-.019,1.068.8,1.268,1.676,1.272,1.187.006,2.374,0,3.561,0m2.408-3.734c.591,0,1.183.017,1.774,0a1.069,1.069,0,0,0,1.136-1.1,1.049,1.049,0,0,0-1.04-1.2c-1.264-.067-2.535-.061-3.8-.011a1.158,1.158,0,0,0,.029,2.31c.632.031,1.267.006,1.9.006m-5.568,0c.493-.028,1.343.208,1.675-.784a.989.989,0,0,0-.454-1.31,3.211,3.211,0,0,0-2.79,0,.989.989,0,0,0-.458,1.309c.306.906,1.07.8,2.028.786" transform="translate(-26.459 -184.225)" fill="#d1e560"/>
        <path id="Path_609910" data-name="Path 609910" d="M146.4,204.848c3.221,0,6.441.014,9.661-.012.67-.006,1.035.042,1.114.889.427,4.549.89,9.1,1.431,13.633a80.253,80.253,0,0,1,.43,9.38c0,.86-.2,1.16-1.113,1.151q-7.118-.068-14.237,0c-.922.009-1.109-.287-1.1-1.147.044-4.025.057-8.051-.007-12.075-.016-.984.425-1.053,1.184-1.117,1.079-.09.638.692.643,1.093.038,2.965.021,5.932.021,8.9,0,.848.064,1.717,1.176,1.741s1.234-.818,1.234-1.683q0-6.928,0-13.856c0-.818-.123-1.542-1.072-1.766-.588-.138-.341-.6-.351-.929-.083-2.664-.547-3.119-3.244-3.12-1.865,0-3.729.006-5.594-.006-.383,0-.884.17-.87-.557s.542-.511.9-.512c3.263-.015,6.526-.009,9.788-.009m5.079,13.885c0-2.369-.014-4.739.007-7.109.007-.855-.174-1.6-1.161-1.62-1.008-.019-1.171.731-1.168,1.585q.023,7.045,0,14.09c0,.83.091,1.6,1.134,1.61,1.018.007,1.2-.722,1.19-1.576-.016-2.327-.005-4.654-.005-6.982m2.318-.139c0,2.369.007,4.739,0,7.108,0,.847.172,1.583,1.19,1.588,1.047.005,1.165-.776,1.165-1.6q0-7.045,0-14.09c0-.831-.154-1.615-1.171-1.6-.977.016-1.193.748-1.187,1.607.017,2.327.006,4.654.006,6.982" transform="translate(-101.162 -152.679)" fill="#c2f9f7"/>
        <path id="Path_609911" data-name="Path 609911" d="M153.444,69.423c-.24-1.028-.959-1.245-1.912-1.24-4.575.024-9.15-.018-13.724.034-.935.011-1.224-.2-1.186-1.168.084-2.115.014-4.235.03-6.353a2.693,2.693,0,0,1,2.96-3.019c5.422-.033,10.844,0,16.266-.024.657,0,.8.23.9.861a11.328,11.328,0,0,0,3.276,6.708c.834.8.518,1.71.574,2.6.03.466-.369.364-.642.37q-.826.02-1.652,0a1.437,1.437,0,0,0-1.649,1.224l-3.237.007" transform="translate(-101.838 -42.976)" fill="#c2f9f7"/>
        <path id="Path_609912" data-name="Path 609912" d="M152.759,103.862l3.237-.007c.358,1.563,1.624,1.143,2.67,1.247.467.046,1.188-.342,1.262.593.045.576-.032,1-.784.963a19.656,19.656,0,0,0-2.16.013,2.111,2.111,0,0,0-2.1,2.349c.589,5.68,1.188,11.359,1.835,17.032.088.769.014,1.061-.837,1.058q-9.6-.039-19.2,0c-.8,0-1-.266-.987-1.025.052-3.176-.2-2.545,2.559-2.571,3.771-.035,7.543,0,11.314-.01,2.129,0,2.882-.765,2.888-2.927q.013-4.83,0-9.661c-.008-2.024-.822-2.846-2.866-2.855-4.153-.018-8.306-.062-12.457.024-1.441.03-1.13-.838-1.177-1.644-.048-.839-.026-1.4,1.15-1.382,4.575.074,9.152.022,13.729.036.932,0,1.694-.178,1.921-1.234" transform="translate(-101.153 -77.415)" fill="#047fbd"/>
        <path id="Path_609913" data-name="Path 609913" d="M148.878,140.681a25.042,25.042,0,0,0-.009-10.576c3.314,0,6.776.011,10.237-.011.582,0,.7.234.7.751-.016,3.006-.027,6.013.006,9.019.008.7-.273.834-.9.829-3.386-.025-6.772-.012-10.034-.012" transform="translate(-110.969 -96.974)" fill="#c2f9f7"/>
        <path id="Path_609914" data-name="Path 609914" d="M242.968,282.058c1.653,0,3.306.034,4.957-.016.742-.022,1.075.13,1.022.964-.089,1.388.453,3.2-.236,4.062-.728.91-2.615.244-3.993.276-2.287.053-4.577-.015-6.864.031-.792.016-1.147-.149-1.085-1.033a31.142,31.142,0,0,0,.006-3.43c-.027-.66.175-.885.853-.869,1.779.043,3.559.014,5.339.014" transform="translate(-176.486 -210.237)" fill="#d1e560"/>
        <path id="Path_609915" data-name="Path 609915" d="M165.006,13.555c-1.735,0-3.471-.04-5.2.017-.849.028-1.059-.267-1.065-1.09-.025-3.441-.053-3.441,3.376-3.441,2.793,0,5.586.029,8.378-.018.793-.013.984.24,1,1.006.056,3.525.08,3.524-3.435,3.524h-3.047" transform="translate(-118.321 -6.727)" fill="#047fbd"/>
        <path id="Path_609916" data-name="Path 609916" d="M244.074,26.134a9.722,9.722,0,0,1-9.612,9.767,9.741,9.741,0,0,1-.023-19.483,9.651,9.651,0,0,1,9.635,9.715m-.787.014a8.771,8.771,0,0,0-8.831-8.875,8.918,8.918,0,0,0-8.967,8.807,9.09,9.09,0,0,0,8.962,9.015,8.937,8.937,0,0,0,8.835-8.948" transform="translate(-167.506 -12.239)" fill="#f8c002"/>
        <path id="Path_609917" data-name="Path 609917" d="M117.368,268.12c-1.394,0-2.789-.033-4.181.014-.682.023-.982-.123-.934-.883.082-1.3-.423-3.007.227-3.793.674-.816,2.447-.217,3.737-.245,1.857-.04,3.717.017,5.575-.024.682-.015.991.121.942.887-.082,1.3.421,3.009-.23,3.79-.678.813-2.451.182-3.743.25-.463.024-.929,0-1.394,0" transform="translate(-83.593 -196.065)" fill="#f5f5f5"/>
        <path id="Path_609918" data-name="Path 609918" d="M230.933,124.064c3.045,0,6.09-.009,9.135.011.421,0,1.05-.3,1.027.634-.021.859-.518.792-1.089.792q-9.072-.009-18.143.006c-.645,0-1.045-.093-1.043-.87,0-.83.589-.559.977-.562,3.045-.019,6.09-.01,9.135-.01" transform="translate(-164.603 -92.454)" fill="#d1e560"/>
        <path id="Path_609919" data-name="Path 609919" d="M171.227,39.128H169.2c-2.053,0-2.515-.628-2.064-2.667.118-.535.446-.41.749-.412,2.241-.009,4.482.011,6.723-.016.581-.007.787.133.812.763.094,2.334.123,2.332-2.16,2.332Z" transform="translate(-124.466 -26.859)" fill="#c2f9f7"/>
        <path id="Path_609920" data-name="Path 609920" d="M243.609,180.228c0-1.905-.014-3.811,0-5.716a1.9,1.9,0,0,1,1.97-2.158,45.8,45.8,0,0,1,4.7-.008,1.878,1.878,0,0,1,2.016,2.115q.039,5.842,0,11.685a1.932,1.932,0,0,1-2.153,2.1c-1.439.024-2.879.022-4.319,0a1.971,1.971,0,0,1-2.206-2.179c-.021-1.947-.005-3.9-.006-5.843m6.369.058v-2.538c0-3.091,0-3.057-3.1-3.037-.813.005-.98.257-.965,1.012.047,2.368.017,4.737.017,7.106,0,3.214,0,3.188,3.236,3.054.7-.029.838-.28.825-.9-.035-1.564-.011-3.13-.011-4.7" transform="translate(-181.585 -128.427)" fill="#060706"/>
        <path id="Path_609921" data-name="Path 609921" d="M251.746,157.617a13.317,13.317,0,0,1-1.9-.019,1.168,1.168,0,0,1-1.128-1.289,1.134,1.134,0,0,1,1.162-1.122c1.267-.056,2.54-.061,3.805,0a1.1,1.1,0,0,1,1.116,1.156,1.162,1.162,0,0,1-1.154,1.26,15.322,15.322,0,0,1-1.9.017v-.006" transform="translate(-185.395 -115.646)" fill="#060706"/>
        <path id="Path_609922" data-name="Path 609922" d="M23.964,108.645c.939-.737,1.808-1.464,2.723-2.127a3.061,3.061,0,0,0,1.336-3.077c-.131-1.122-.822-2.6-.158-3.282s2.139.072,3.255.2a3.027,3.027,0,0,0,3-1.23c.558-.746,1.163-1.457,1.708-2.213.337-.467.64-.72,1-.066,1.655,3.034,4.04,4.272,7.457,3.119.716-.242.859.2.771.832-.135.963-.228,1.931-.342,2.9a2.8,2.8,0,0,0,1.233,2.738c.91.682,2.4,1.373,2.479,2.172.085.877-1.492,1.5-2.4,2.136-1.658,1.156-1.381,2.771-1.182,4.365.294,2.364.925,2.5-1.983,1.96a4.425,4.425,0,0,0-5.07,2.076c-1.291,1.934-1.543,1.944-2.832,0-1.357-2.052-3.011-2.455-5.326-2.036s-1.961.636-1.82-1.782c.034-.59.163-1.174.228-1.763a2.758,2.758,0,0,0-1.162-2.652c-.943-.717-1.871-1.455-2.909-2.266m19.866,2.916a3.143,3.143,0,1,0-6.237-.132,3.493,3.493,0,0,0,3.052,3.727c1.677.057,3.171-1.629,3.185-3.6m-14.914-5.845a3.3,3.3,0,0,0,3.1,3.605,3.275,3.275,0,0,0,3.1-3.476,3.352,3.352,0,0,0-3.033-3.678,3.311,3.311,0,0,0-3.165,3.549m11.1-1.988c-.033-.7-.3-1.109-.86-1.241-.8-.19-1.242.251-1.565.94q-2.17,4.633-4.386,9.244c-.391.809-.613,1.577.359,2.04.992.473,1.448-.253,1.815-1.028q2.136-4.51,4.274-9.018c.159-.337.27-.7.362-.938" transform="translate(-17.863 -71.901)" fill="#f8c002"/>
        <path id="Path_609923" data-name="Path 609923" d="M47.506,277.524c-1.187,0-2.374.005-3.561,0-.876,0-1.7-.2-1.676-1.272.018-.978.761-1.193,1.617-1.188,2.459.013,4.917.007,7.376,0,.862,0,1.566.265,1.553,1.25-.012.908-.705,1.187-1.494,1.2-1.271.022-2.543.006-3.815.007" transform="translate(-31.508 -205.036)" fill="#060706"/>
        <path id="Path_609924" data-name="Path 609924" d="M63.55,263.168c-.634,0-1.268.024-1.9-.006a1.158,1.158,0,0,1-.029-2.309c1.265-.05,2.536-.056,3.8.011a1.049,1.049,0,0,1,1.04,1.2,1.069,1.069,0,0,1-1.136,1.1c-.591.021-1.183,0-1.774,0" transform="translate(-45.144 -194.415)" fill="#060706"/>
        <path id="Path_609925" data-name="Path 609925" d="M44.262,262.988c-.958.017-1.722.12-2.028-.786a.989.989,0,0,1,.458-1.309,3.211,3.211,0,0,1,2.79,0,.989.989,0,0,1,.454,1.31c-.332.992-1.182.756-1.675.784" transform="translate(-31.424 -194.236)" fill="#060706"/>
        <path id="Path_609926" data-name="Path 609926" d="M190.856,233.9c0,2.327-.01,4.655.005,6.982.006.854-.172,1.583-1.19,1.576-1.044-.007-1.136-.78-1.135-1.611q.016-7.045,0-14.09c0-.854.16-1.6,1.168-1.585.987.019,1.169.765,1.161,1.62-.021,2.369-.007,4.739-.007,7.109" transform="translate(-140.537 -167.846)" fill="#060706"/>
        <path id="Path_609927" data-name="Path 609927" d="M206.742,233.762c0-2.327.011-4.654-.006-6.982-.006-.859.21-1.591,1.187-1.607,1.017-.017,1.172.767,1.172,1.6q-.006,7.045,0,14.09c0,.821-.119,1.6-1.165,1.6-1.018-.005-1.193-.741-1.189-1.588.01-2.369,0-4.739,0-7.108" transform="translate(-154.104 -167.847)" fill="#060706"/>
        <path id="Path_609928" data-name="Path 609928" d="M245.554,28.648a8.937,8.937,0,0,1-8.835,8.948,9.09,9.09,0,0,1-8.962-9.015,8.918,8.918,0,0,1,8.967-8.807,8.771,8.771,0,0,1,8.831,8.875m-8.916,6.5a6.52,6.52,0,1,0-6.451-6.6,6.469,6.469,0,0,0,6.451,6.6" transform="translate(-169.772 -14.739)" fill="#060706"/>
        <path id="Path_609929" data-name="Path 609929" d="M256.732,187.362c0,1.565-.023,3.131.011,4.7.014.623-.123.874-.825.9-3.237.134-3.236.16-3.236-3.054,0-2.369.03-4.738-.017-7.106-.015-.755.151-1.007.965-1.012,3.1-.02,3.1-.054,3.1,3.037v2.538" transform="translate(-188.34 -135.504)" fill="#f5f5f5"/>
        <path id="Path_609930" data-name="Path 609930" d="M83.734,145.264c-.014,1.966-1.509,3.653-3.185,3.6a3.493,3.493,0,0,1-3.052-3.727,3.143,3.143,0,1,1,6.237.132m-3.883,0c.123.4.061,1.056.738,1.079s.736-.591.753-1.1c.018-.521-.088-1.133-.7-1.162-.646-.031-.7.6-.789,1.18" transform="translate(-57.767 -105.604)" fill="#060706"/>
        <path id="Path_609931" data-name="Path 609931" d="M43.418,122.432a3.312,3.312,0,0,1,3.165-3.549,3.352,3.352,0,0,1,3.033,3.678,3.127,3.127,0,1,1-6.2-.129m3.129-1.163a1.09,1.09,0,0,0-.78,1.132c-.032.55.142,1.123.663,1.209.607.1.8-.526.854-1.017a1.2,1.2,0,0,0-.737-1.324" transform="translate(-32.364 -88.617)" fill="#060706"/>
        <path id="Path_609932" data-name="Path 609932" d="M66.091,121.253c-.092.241-.2.6-.362.938q-2.131,4.512-4.274,9.018c-.367.775-.823,1.5-1.815,1.028-.973-.464-.751-1.231-.359-2.04q2.226-4.606,4.386-9.244c.323-.689.762-1.131,1.565-.94.556.132.828.541.86,1.241" transform="translate(-43.94 -89.426)" fill="#060706"/>
        <path id="Path_609933" data-name="Path 609933" d="M243.755,42a6.52,6.52,0,0,1,.047-13.04A6.52,6.52,0,1,1,243.755,42m3.051-9.711a1.109,1.109,0,0,0-.9-1.187,1.062,1.062,0,0,1-1.071-.916.981.981,0,0,0-1.1-.674c-.46.021-.927.252-.955.686-.052.815-.68.844-1.182,1.072a2.755,2.755,0,0,0,.89,5.31c.716.048,1.438.01,2.158.023.289,0,.66-.032.643.4-.016.416-.381.379-.671.381-.974.007-1.947.014-2.92,0a1.231,1.231,0,0,0-1.424,1.13c-.073.818.484,1.244,1.265,1.257a1.417,1.417,0,0,1,1.4.76,1.008,1.008,0,0,0,1.791-.045,2.1,2.1,0,0,1,1.233-.912,2.817,2.817,0,0,0,1.794-2.906,2.728,2.728,0,0,0-2.576-2.374c-.759-.047-1.523-.015-2.284-.035-.313-.008-.631-.116-.584-.5.036-.287.338-.34.6-.343.846-.008,1.693-.006,2.539-.015a1.249,1.249,0,0,0,1.352-1.118" transform="translate(-176.889 -21.588)" fill="#d1e560"/>
        <path id="Path_609934" data-name="Path 609934" d="M86.746,152.332c.093-.578.143-1.211.789-1.18.614.03.719.641.7,1.162-.017.505-.073,1.12-.753,1.1s-.614-.677-.738-1.079" transform="translate(-64.662 -112.671)" fill="#f5f5f5"/>
        <path id="Path_609935" data-name="Path 609935" d="M53.412,128.257a1.2,1.2,0,0,1,.737,1.324c-.058.491-.247,1.117-.854,1.017-.52-.086-.695-.659-.663-1.209a1.09,1.09,0,0,1,.78-1.132" transform="translate(-39.229 -95.605)" fill="#f5f5f5"/>
        <path id="Path_609936" data-name="Path 609936" d="M254.318,33.9a1.249,1.249,0,0,1-1.352,1.118c-.846.009-1.693.007-2.539.015-.261,0-.563.056-.6.343-.048.379.27.488.583.5.761.02,1.525-.013,2.284.035a2.728,2.728,0,0,1,2.576,2.374,2.817,2.817,0,0,1-1.794,2.906,2.1,2.1,0,0,0-1.233.912,1.008,1.008,0,0,1-1.791.045,1.417,1.417,0,0,0-1.4-.76c-.78-.013-1.337-.439-1.265-1.257A1.231,1.231,0,0,1,249.214,39c.973.012,1.947.005,2.92,0,.29,0,.655.035.671-.381.017-.433-.354-.4-.643-.4-.719-.012-1.441.026-2.158-.023a2.755,2.755,0,0,1-.89-5.31c.5-.229,1.13-.257,1.182-1.072.028-.434.495-.664.955-.686a.981.981,0,0,1,1.1.674,1.062,1.062,0,0,0,1.071.916,1.109,1.109,0,0,1,.9,1.187" transform="translate(-184.402 -23.197)" fill="#060706"/>
      </g>
    </g>
  </g>
</svg>
