<svg xmlns="http://www.w3.org/2000/svg" xmlns:xlink="http://www.w3.org/1999/xlink" width="125" height="125" viewBox="0 0 125 125">
  <defs>
    <clipPath id="clip-path">
      <rect id="Rectangle_377764" data-name="Rectangle 377764" width="96.355" height="65.923" fill="none"/>
    </clipPath>
  </defs>
  <g id="Group_1072923" data-name="Group 1072923" transform="translate(6641 286)">
    <g id="Group_1072441" data-name="Group 1072441" transform="translate(-7027 -2432)">
      <path id="Path_608385" data-name="Path 608385" d="M62.5,0A62.5,62.5,0,1,1,0,62.5,62.5,62.5,0,0,1,62.5,0Z" transform="translate(386 2146)" fill="#fff"/>
    </g>
    <g id="Group_1072455" data-name="Group 1072455" transform="translate(-6627.453 -260.394)">
      <g id="Group_1072454" data-name="Group 1072454" clip-path="url(#clip-path)">
        <path id="Path_609864" data-name="Path 609864" d="M7.273,17.8c-1.463-.3-1.515.626-1.514,1.686.012,10.4.068,20.8-.035,31.193-.026,2.65.616,4.692,3.06,5.943-2.057,0-4.114-.006-6.171.007-1.882.013-2.6.748-2.609,2.661C0,60.393,0,61.5,0,62.6c0,2.771.537,3.3,3.345,3.3H86.733c1,0,2-.01,3-.015,1.4.01,2.8.058,4.2.019a2.134,2.134,0,0,0,2.4-2.4c.019-1.551.029-3.1,0-4.654A1.982,1.982,0,0,0,94.1,56.634c-1.65-.027-3.3.02-4.952.034l-3-.082c-.317-2.679-.616-5.361-.957-8.037q-1.172-9.216-2.376-18.429c2.48-.532,3.816-1.784,3.852-3.9.067-3.9.075-7.813-.007-11.718a3.715,3.715,0,0,0-3.805-3.665q-5.784-.039-11.569.034a3.744,3.744,0,0,0-3.807,3.82c-.03,4.156.023,8.312.041,12.468-.649.024-1.3.07-1.947.07q-24.335.006-48.671.008c-.748,0-1.5.071-2.244.109-.147-1.961.507-4.1-1.26-5.7.015-4.851.017-9.7.059-14.553.007-.782-.251-1.065-1.033-1.038-1.3.046-2.6.065-3.9-.005C7.566,6,7.216,6.283,7.234,7.3c.062,3.5.034,7,.04,10.5m11.618-7.505c0-2.006.028-4.012-.007-6.017A4.057,4.057,0,0,0,14.756.033C12.35-.023,9.942.016,7.535,0,6.475-.007,5.506.289,5.487,1.476,5.466,2.781,6.5,3.031,7.608,3.023,9.714,3.006,11.82,3.008,13.926,3c1.811-.009,2,.161,2,1.958q.012,5.491,0,10.982A8.045,8.045,0,0,0,17.948,21.3a1.528,1.528,0,0,0,2.353.362c.833-.7.555-1.5-.089-2.229a5.389,5.389,0,0,1-1.329-3.875c.048-1.754.011-3.51.009-5.265" transform="translate(0 0)" fill="#f6f6f6"/>
        <path id="Path_609865" data-name="Path 609865" d="M37.254,90.368c.748-.038,1.5-.108,2.245-.108q24.335-.009,48.671-.008c.649,0,1.3-.046,1.947-.07.85,1.657,1.99,2.962,4.055,2.711a3.447,3.447,0,0,1,3.491,1.682c1.405,1.9,2.548,1.934,3.917.073a3.364,3.364,0,0,1,3.832-1.508q1.19,9.214,2.376,18.429c.34,2.676.639,5.358.957,8.037-.45.023-.9.064-1.349.064q-36.855-.006-73.71-.021c-.45,0-.9-.033-1.352-.051.2-1.631.4-3.264.609-4.893.97-7.408,1.955-14.815,2.908-22.225a2.307,2.307,0,0,1,1.4-2.109m14.83,13.024.281-.047c.95,1.473,1.892,2.95,2.855,4.415.432.658.964,1.216,1.854.892a1.652,1.652,0,0,0,1.032-1.811q-.031-4.137,0-8.274c.01-1.083-.288-2.023-1.487-2s-1.465,1.023-1.468,2.061c0,1.019,0,2.038,0,3.057a31.474,31.474,0,0,1-3.083-4.152c-.4-.6-.861-1.171-1.7-.943a1.612,1.612,0,0,0-1.205,1.707c-.02,2.908-.033,5.817.01,8.725.014.925.436,1.739,1.506,1.7,1.041-.034,1.426-.772,1.412-1.763-.016-1.189,0-2.377,0-3.566m23.993-3.456c-.608-.925-1.084-1.626-1.535-2.343-.425-.677-.933-1.253-1.813-.993-.921.272-1.107,1.03-1.1,1.91q.034,4.139,0,8.277c-.009,1.028.277,1.9,1.4,1.92,1.2.017,1.555-.9,1.55-1.977,0-1.045,0-2.089,0-3.569,1.074,1.322,2.049.752,3.073.375,0,1.3-.006,2.448,0,3.6.006.951.492,1.586,1.436,1.575s1.395-.643,1.391-1.607q-.018-4.439,0-8.879A1.474,1.474,0,0,0,79.442,96.6c-.837-.26-1.322.263-1.734.861-.508.737-.987,1.494-1.63,2.473m7,2.718c0,1.452.028,2.9-.008,4.355-.031,1.225.606,1.739,1.737,1.752,1.752.02,3.5.014,5.257,0,1.007-.006,1.825-.315,1.8-1.51-.02-1.105-.8-1.4-1.742-1.422s-1.9.018-2.853-.014c-.587-.02-1.374.28-1.381-.826-.007-1.141.783-.936,1.459-.951.6-.014,1.2,0,1.8-.013a1.292,1.292,0,0,0,1.441-1.372,1.312,1.312,0,0,0-1.417-1.412c-.649-.033-1.3-.014-1.952-.014s-1.35.1-1.325-.927c.023-.936.662-.831,1.261-.833q1.5,0,3,0c.989,0,1.691-.386,1.7-1.456s-.726-1.485-1.682-1.5q-2.7-.046-5.406,0A1.534,1.534,0,0,0,83.063,98.3c.04,1.451.009,2.9.009,4.355m-13.5,4.576a2.231,2.231,0,0,0-.045-.448c-.916-2.963-1.807-5.935-2.78-8.879A2.026,2.026,0,0,0,62.885,98c-.922,2.909-1.841,5.819-2.784,8.721a1.416,1.416,0,0,0,.783,1.873c.768.4,1.345.03,1.8-.592a2.64,2.64,0,0,1,4.286.051,1.359,1.359,0,0,0,1.693.582,1.278,1.278,0,0,0,.9-1.4m-14.4,4.881c-2.508,0-5.016.015-7.524-.007-1.115-.01-2.143.222-2.109,1.535.031,1.175.977,1.466,2.053,1.462q7.524-.028,15.048,0c1.117.005,1.973-.37,1.952-1.548-.02-1.081-.837-1.466-1.9-1.453-2.508.031-5.016.01-7.524.009m32.15,0c-2,0-4,.013-6-.005-1.074-.01-2.114.069-2.136,1.464s1.021,1.524,2.092,1.524c4.1,0,8.205-.017,12.307.011,1.092.007,2-.305,2.016-1.481s-.867-1.539-1.973-1.522c-2.1.033-4.2.01-6.3.009m-15.433,2.976v-.005c.652,0,1.306.044,1.953-.011a1.427,1.427,0,0,0,1.441-1.443,1.317,1.317,0,0,0-1.363-1.477,33.552,33.552,0,0,0-4.056,0,1.353,1.353,0,0,0-1.382,1.477,1.462,1.462,0,0,0,1.453,1.453c.649.045,1.3.009,1.954.009M43.429,101.235c-1.774-.015-2.637.594-2.337,1.648.405,1.423,1.549,1.259,2.694,1.18.973-.067,1.613-.518,1.58-1.429-.046-1.227-.981-1.5-1.937-1.4m54.372,2.79c1.085.036,2.182.029,2.176-1.4,0-1.3-1-1.38-2.023-1.4-1.094-.023-2.139.117-2.152,1.447-.013,1.276,1.007,1.425,2,1.356" transform="translate(-22.596 -63.019)" fill="#5b5b5b"/>
        <path id="Path_609866" data-name="Path 609866" d="M9.74,187.839c.451.018.9.051,1.352.051q36.855.014,73.71.021c.449,0,.9-.042,1.349-.064l3,.082a2.606,2.606,0,0,1,1.183,2.535c-.117,2.237.312,4.519-.594,6.686-1,.005-2,.015-3,.015H3.347c-2.808,0-3.344-.532-3.345-3.3,0-1.1-.007-2.207,0-3.311.014-1.914.728-2.649,2.609-2.661,2.057-.014,4.114-.006,6.171-.008l.956-.043" transform="translate(0 -131.261)" fill="#fbc16e"/>
        <path id="Path_609867" data-name="Path 609867" d="M239.35,55.242a3.364,3.364,0,0,0-3.832,1.508c-1.369,1.861-2.511,1.829-3.917-.073A3.448,3.448,0,0,0,228.11,55c-2.065.252-3.2-1.054-4.055-2.711-.018-4.156-.07-8.312-.041-12.468A3.744,3.744,0,0,1,227.821,36q5.784-.07,11.569-.034a3.716,3.716,0,0,1,3.805,3.665c.083,3.9.074,7.813.007,11.718-.036,2.112-1.372,3.364-3.852,3.9m-8.118-13.555a1.411,1.411,0,0,0-1.34.812,1.249,1.249,0,0,0,.394,1.734c1.118.869,1.241,1.6.05,2.542a1.438,1.438,0,1,0,1.982,2.048c.886-1.118,1.586-1.253,2.515-.039a1.353,1.353,0,0,0,2.217.129,1.315,1.315,0,0,0-.166-2.105c-1.1-.9-1.2-1.622-.007-2.541a1.3,1.3,0,0,0,.168-2.1,1.424,1.424,0,0,0-2.24.093,3.941,3.941,0,0,0-.429.422c-.513.673-.984.706-1.558.03a2.28,2.28,0,0,0-1.586-1.028" transform="translate(-156.533 -25.122)" fill="#fa4b5a"/>
        <path id="Path_609868" data-name="Path 609868" d="M23.018,97.742l-.956.043c-2.444-1.251-3.086-3.292-3.06-5.943.1-10.4.047-20.795.035-31.193,0-1.061.051-1.983,1.514-1.686l6.127,3.847c1.767,1.6,1.113,3.742,1.26,5.7a2.306,2.306,0,0,0-1.4,2.109c-.953,7.411-1.939,14.817-2.908,22.225-.214,1.63-.406,3.262-.609,4.894" transform="translate(-13.278 -41.163)" fill="#fba836"/>
        <path id="Path_609869" data-name="Path 609869" d="M31.619,10.293c0,1.755.038,3.511-.01,5.265a5.388,5.388,0,0,0,1.329,3.875c.644.732.922,1.526.089,2.229a1.528,1.528,0,0,1-2.353-.362,8.045,8.045,0,0,1-2.014-5.364q0-5.491,0-10.982c0-1.8-.192-1.967-2-1.958-2.106.011-4.212.008-6.318.025-1.106.009-2.142-.242-2.121-1.546C18.233.289,19.2-.007,20.262,0c2.407.016,4.815-.023,7.221.034a4.057,4.057,0,0,1,4.128,4.243c.035,2.005.007,4.011.008,6.017" transform="translate(-12.727 0)" fill="#fba836"/>
        <path id="Path_609870" data-name="Path 609870" d="M30.18,35.669l-6.127-3.847c-.006-3.5.022-7-.039-10.5-.018-1.012.332-1.3,1.292-1.246,1.3.07,2.6.051,3.9.005.783-.028,1.04.255,1.033,1.038-.042,4.851-.044,9.7-.059,14.553" transform="translate(-16.78 -14.023)" fill="#29ccaf"/>
        <path id="Path_609871" data-name="Path 609871" d="M296.561,197.259c.906-2.167.477-4.449.594-6.686a2.606,2.606,0,0,0-1.183-2.535c1.651-.014,3.3-.061,4.952-.034a1.982,1.982,0,0,1,2.233,2.215c.033,1.551.023,3.1,0,4.654a2.134,2.134,0,0,1-2.4,2.4c-1.4.039-2.8-.009-4.2-.019" transform="translate(-206.823 -131.37)" fill="#fba836"/>
        <path id="Path_609872" data-name="Path 609872" d="M91.072,118.133c0,1.189-.012,2.378,0,3.567.014.991-.371,1.729-1.413,1.763-1.07.036-1.492-.779-1.506-1.7-.043-2.908-.03-5.816-.01-8.725a1.613,1.613,0,0,1,1.2-1.707c.842-.228,1.306.348,1.7.943a31.5,31.5,0,0,0,3.083,4.152c0-1.019,0-2.039,0-3.058,0-1.038.269-2.042,1.468-2.061s1.5.921,1.487,2q-.038,4.137,0,8.274a1.652,1.652,0,0,1-1.032,1.811c-.89.323-1.422-.235-1.854-.893-.962-1.464-1.9-2.942-2.855-4.415l-.281.047" transform="translate(-61.583 -77.759)" fill="#fbc16e"/>
        <path id="Path_609873" data-name="Path 609873" d="M167.242,114.673c.643-.979,1.122-1.736,1.63-2.473.413-.6.9-1.121,1.734-.861a1.474,1.474,0,0,1,1.045,1.625q-.022,4.439,0,8.879c0,.964-.447,1.6-1.391,1.607s-1.429-.624-1.436-1.575c-.008-1.152,0-2.3,0-3.6-1.023.376-2,.947-3.073-.375,0,1.48,0,2.524,0,3.569,0,1.076-.348,1.993-1.55,1.977-1.126-.016-1.413-.892-1.4-1.92q.037-4.138,0-8.277c-.007-.881.18-1.638,1.1-1.911.88-.26,1.388.317,1.813.993.451.717.927,1.417,1.535,2.343" transform="translate(-113.76 -77.755)" fill="#fbc16e"/>
        <path id="Path_609874" data-name="Path 609874" d="M200.759,117.289c0-1.452.03-2.9-.009-4.355a1.534,1.534,0,0,1,1.707-1.789q2.7-.042,5.406,0c.956.016,1.69.429,1.682,1.5s-.711,1.458-1.7,1.455-2,0-3,0c-.6,0-1.239-.1-1.261.833-.025,1.027.667.927,1.325.927s1.3-.018,1.952.014a1.312,1.312,0,0,1,1.417,1.412,1.292,1.292,0,0,1-1.442,1.372c-.6.012-1.2,0-1.8.013-.675.015-1.465-.19-1.459.951.006,1.105.793.806,1.381.826.95.032,1.9,0,2.853.014s1.722.317,1.742,1.422c.021,1.195-.8,1.5-1.8,1.51-1.752.01-3.5.016-5.256,0-1.131-.013-1.768-.527-1.737-1.752.037-1.451.009-2.9.009-4.355" transform="translate(-140.282 -77.652)" fill="#fbc16e"/>
        <path id="Path_609875" data-name="Path 609875" d="M133.748,121.971a1.278,1.278,0,0,1-.9,1.4,1.358,1.358,0,0,1-1.693-.582,2.64,2.64,0,0,0-4.286-.05c-.459.623-1.036.994-1.8.592a1.417,1.417,0,0,1-.783-1.873c.942-2.9,1.861-5.812,2.784-8.721a2.026,2.026,0,0,1,3.861-.092c.973,2.945,1.863,5.917,2.78,8.88a2.21,2.21,0,0,1,.045.448m-4.714-5.4c-.345.682-.837,1.324-.543,2.052.117.289.795.268.94.076.587-.777-.305-1.393-.4-2.127" transform="translate(-86.773 -77.76)" fill="#fbc16e"/>
        <path id="Path_609876" data-name="Path 609876" d="M85.789,162.965c2.508,0,5.016.022,7.524-.01,1.059-.013,1.876.372,1.9,1.453.022,1.178-.835,1.554-1.952,1.549q-7.524-.034-15.048,0c-1.076,0-2.023-.287-2.053-1.462-.034-1.313.994-1.545,2.109-1.535,2.508.022,5.016.007,7.524.007" transform="translate(-53.217 -113.872)" fill="#29ccaf"/>
        <path id="Path_609877" data-name="Path 609877" d="M195.99,162.964c2.1,0,4.2.024,6.3-.009,1.105-.018,1.987.35,1.973,1.522s-.923,1.488-2.016,1.481c-4.1-.027-8.2-.011-12.307-.011-1.071,0-2.114-.127-2.092-1.524s1.062-1.474,2.136-1.464c2,.018,4,.005,6,.005" transform="translate(-131.269 -113.871)" fill="#29ccaf"/>
        <path id="Path_609878" data-name="Path 609878" d="M155.727,165.908c-.652,0-1.305.036-1.954-.009a1.463,1.463,0,0,1-1.453-1.453,1.353,1.353,0,0,1,1.382-1.477,33.554,33.554,0,0,1,4.056,0,1.318,1.318,0,0,1,1.363,1.477,1.427,1.427,0,0,1-1.441,1.443c-.647.055-1.3.011-1.953.011v.005" transform="translate(-106.438 -113.839)" fill="#29ccaf"/>
        <path id="Path_609879" data-name="Path 609879" d="M63.61,126.839c.956-.1,1.891.172,1.937,1.4.034.91-.606,1.361-1.579,1.428-1.146.079-2.289.243-2.694-1.18-.3-1.054.563-1.663,2.337-1.648" transform="translate(-42.776 -88.622)" fill="#29ccaf"/>
        <path id="Path_609880" data-name="Path 609880" d="M245.043,129.635c-.992.069-2.012-.08-2-1.356.014-1.33,1.058-1.47,2.152-1.447,1.02.021,2.019.1,2.023,1.4.005,1.431-1.092,1.438-2.176,1.4" transform="translate(-169.837 -88.628)" fill="#29ccaf"/>
        <path id="Path_609881" data-name="Path 609881" d="M244.394,54.949a2.28,2.28,0,0,1,1.586,1.028c.574.677,1.045.643,1.558-.03a3.939,3.939,0,0,1,.429-.422,1.424,1.424,0,0,1,2.24-.093,1.3,1.3,0,0,1-.168,2.1c-1.2.919-1.1,1.637.007,2.541a1.315,1.315,0,0,1,.166,2.105,1.353,1.353,0,0,1-2.217-.129c-.929-1.214-1.629-1.079-2.515.039a1.438,1.438,0,1,1-1.982-2.048c1.191-.94,1.068-1.673-.05-2.542a1.249,1.249,0,0,1-.394-1.734,1.411,1.411,0,0,1,1.34-.812" transform="translate(-169.695 -38.384)" fill="#f6f6f6"/>
        <path id="Path_609882" data-name="Path 609882" d="M138.836,128.845c.092.734.984,1.351.4,2.127-.146.193-.823.214-.94-.076-.293-.728.2-1.37.543-2.052" transform="translate(-96.576 -90.036)" fill="#5b5b5b"/>
      </g>
    </g>
  </g>
</svg>
