<svg xmlns="http://www.w3.org/2000/svg" xmlns:xlink="http://www.w3.org/1999/xlink" width="125" height="125" viewBox="0 0 125 125">
  <defs>
    <clipPath id="clip-path">
      <rect id="Rectangle_377763" data-name="Rectangle 377763" width="90.245" height="64.338" fill="none"/>
    </clipPath>
  </defs>
  <g id="Group_1072924" data-name="Group 1072924" transform="translate(6289 286)">
    <g id="Group_1072442" data-name="Group 1072442" transform="translate(-6675 -2432)">
      <path id="Path_608385" data-name="Path 608385" d="M62.5,0A62.5,62.5,0,1,1,0,62.5,62.5,62.5,0,0,1,62.5,0Z" transform="translate(386 2146)" fill="#fff"/>
    </g>
    <g id="Group_1072453" data-name="Group 1072453" transform="translate(-6271.623 -257.75)">
      <g id="Group_1072452" data-name="Group 1072452" clip-path="url(#clip-path)">
        <path id="Path_609834" data-name="Path 609834" d="M21.472,62.953c-.208,1.075-.9,1.392-1.937,1.385-4.839-.031-9.678,0-14.516-.02a4.8,4.8,0,0,1-5-4.948Q-.024,46.829.014,34.287a3.024,3.024,0,0,1,3.3-3.335c1.174-.025,2.35-.041,3.523.007.747.03.992-.248.967-.979-.044-1.267,0-2.536-.014-3.8a4.856,4.856,0,0,1,2.089-4.23,8.916,8.916,0,0,0,4.074-7.339c.014-2.23.241-4.621-.386-6.663a14.841,14.841,0,0,1-.881-4.7A3.061,3.061,0,0,1,15.971.021C18.179,0,20.387,0,22.595.023a2.935,2.935,0,0,1,3.123,3.061c.021,1.56.414,3.228-.857,4.561a.186.186,0,0,0-.051.126c.3,3.145-.953,6.314.156,9.449a8.977,8.977,0,0,0,3.294,4.447,5.76,5.76,0,0,1,2.482,5.208c-.056,2.394-.023,4.791-.008,7.187.006.952-.285,1.655-1.323,1.84-1.143-.113-1.446-.854-1.441-1.869.013-2.489-.056-4.979.028-7.465a3.039,3.039,0,0,0-1.417-2.843A11.411,11.411,0,0,1,23.137,19.7a20.03,20.03,0,0,1-1.355-4.054c-1.729,1.31-3.379,1.416-4.973.043-.137.2-.265.3-.288.425a12.349,12.349,0,0,1-5.205,8.049,1.9,1.9,0,0,0-.857,1.547c-.023,1.5,0,3-.023,4.507-.008.527.174.726.723.767,1.173.088,2.6-1.886,2.347-3.321-.281-1.61.364-2.721,1.881-2.858a40.054,40.054,0,0,1,7.45.009A2.074,2.074,0,0,1,24.7,27.432a2.1,2.1,0,0,0,.352,1.8,6.857,6.857,0,0,1-5.375,10.324,7.765,7.765,0,0,1-4.7-1.191v3.364a58.3,58.3,0,0,1,7.211-.151c.867-.008,1.6.3,1.56,1.38-.036.986-.708,1.232-1.536,1.259-.516.017-1.033.005-1.55.005H15.644a8.45,8.45,0,0,0,5.534,4.623c1.9.5,3.836.122,5.749.263.933.069,1.078-.328,1.061-1.136-.046-2.206,0-4.413-.021-6.62a1.642,1.642,0,0,1,1.443-1.909,1.766,1.766,0,0,1,1.328,2.022c-.031,2.207.067,4.418-.037,6.621-.068,1.449.9.949,1.567,1,.721.052,1.41.221,1.4-1.035-.067-7.045,0-14.09-.05-21.135a6.169,6.169,0,0,1,2.551-5.321A8.854,8.854,0,0,0,39.7,12.446a12.964,12.964,0,0,1-.1-2.105,8.149,8.149,0,0,0-.7-3.764A6.334,6.334,0,0,1,38.861,1.9,2.708,2.708,0,0,1,41.572.029q3.522-.053,7.046,0a2.9,2.9,0,0,1,2.991,2.9c.018,1.6.456,3.32-.841,4.7a.378.378,0,0,0-.1.259c.267,2.839-.727,5.676-.059,8.5a8.556,8.556,0,0,0,3.418,5.17A6.038,6.038,0,0,1,56.633,27c-.055,6.9,0,13.809-.042,20.713-.006,1.032.158,1.478,1.337,1.412,1.918-.108,1.922-.023,1.922-1.928,0-6.763.039-13.527-.022-20.29a6.14,6.14,0,0,1,2.528-5.322,8.724,8.724,0,0,0,3.464-9.294,11.081,11.081,0,0,1-.073-2.105,7.915,7.915,0,0,0-.666-3.63,6.058,6.058,0,0,1-.028-4.668A2.748,2.748,0,0,1,67.775.027c2.348-.03,4.7-.041,7.046,0a2.936,2.936,0,0,1,3,3.052c-.012,1.556.428,3.227-.864,4.552a.189.189,0,0,0-.055.127c.266,3.229-1.042,6.489.231,9.7a8.971,8.971,0,0,0,3.187,4.191,5.4,5.4,0,0,1,2.44,4.923c-.032,1.032.048,2.07-.021,3.1-.064.946.194,1.383,1.23,1.288a26.415,26.415,0,0,1,2.817-.015c2.324.037,3.446,1.15,3.453,3.47.013,4.744,0,9.488,0,14.232,0,3.476.012,6.951,0,10.427a4.874,4.874,0,0,1-5.278,5.245Q56,64.33,27.038,64.335c-1.038,0-1.89-.123-2.022-1.379a1.367,1.367,0,0,1,1.559-1.27c.891.01,1.79-.07,2.673.019a2.779,2.779,0,0,0,2.443-1.029c2.482-2.557,5.039-5.041,7.547-7.573a3.016,3.016,0,0,0,1.084-1.391c-5.024,0-9.933,0-14.842-.005-.552,0-.831.386-1.155.709q-4.188,4.172-8.357,8.363c-.227.229-.7.383-.461.907,1.36,0,2.721.03,4.08-.01.967-.028,1.649.269,1.884,1.275M69.93,13.1c.767.9,1.424.951,2.586.328,1.758-.942,1.712-2.3,1.685-3.869-.014-.818-.16-1.189-1.074-1.118a17.271,17.271,0,0,1-3.22,0c-1.416-.156-1.737.43-1.382,1.662-.247,1.335-.106,2.489,1.405,3m-26.212-.024c.813,1.036,1.549.906,2.706.279,1.71-.925,1.606-2.279,1.605-3.79,0-.825-.168-1.193-1.081-1.124a17.02,17.02,0,0,1-3.235-.005c-1.454-.17-1.706.479-1.389,1.683-.2,1.3-.12,2.467,1.394,2.958M73.062,5.741c2,.253,2.158.164,2.185-1.207C75.287,2.588,75.2,2.518,73.06,2.8a38.5,38.5,0,0,0-4.769-.118c-1.082-.044-.921.749-.849,1.36.078.671-.531,1.789.851,1.793a29.6,29.6,0,0,0,4.77-.1M46.838,2.8a38.217,38.217,0,0,0-4.765-.115c-1.056-.04-.934.728-.864,1.357.076.68-.5,1.785.865,1.793a30.263,30.263,0,0,0,4.767-.091c.765.01,1.768.583,2.164-.466.725-1.926-.055-2.756-2.167-2.478M17.789,13.059c.5.443,1.036,1.237,1.7.834.948-.575,2.3-.88,2.578-2.158.6-2.793.17-3.276-2.623-3.276a11.42,11.42,0,0,1-1.539-.011c-1.364-.187-1.887.325-1.509,1.677-.188,1.288-.1,2.441,1.393,2.933m56.7,33.73c-.745-.778-.39-1.627-.024-2.554-2.006,0-3.88-.006-5.754,0-.951,0-1.907-.07-1.928-1.3-.023-1.33,1-1.387,1.99-1.39,1.268,0,2.538.041,3.8-.016.9-.04,2.151.483,2.6-.114s.122-1.8.123-2.737c0-.059-.1-.118-.193-.223-.148.073-.311.151-.47.234a6.954,6.954,0,0,1-8.416-1.143,6.806,6.806,0,0,1-.859-8.532,1.964,1.964,0,0,0,.175-1.576A2.1,2.1,0,0,1,67.389,24.8a39.456,39.456,0,0,1,7.59,0,1.8,1.8,0,0,1,1.8,2.1c-.346,1.415.5,2.287.866,3.39s1.238.588,1.89.61c.863.029.526-.724.547-1.163.045-.984-.058-1.979.032-2.957a3.169,3.169,0,0,0-1.5-3.094,11.24,11.24,0,0,1-4.128-5.728c-.218-.664-.147-1.6-.583-1.973-.571-.5-1.137.457-1.786.624-1.324.34-2.337-.39-3.457-.912a11.921,11.921,0,0,1-5.019,8.264,2.8,2.8,0,0,0-1.1,2.58c.023,4.6.01,9.205.01,13.808,0,2.583-.006,5.167.007,7.75,0,.423-.192,1.02.593.99,2.194-.086,4.429.319,6.564-.455a1.727,1.727,0,0,1,2.14.481c.262,1.157-.306,1.715-1.352,2.073a10.5,10.5,0,0,1-4.584.485,4.925,4.925,0,0,0-4.518,1.882c-2.019,2.222-4.216,4.284-6.361,6.39-.486.477-1.071.853-1.849,1.463a6.448,6.448,0,0,0,.9.253q15.5,0,31.006-.021A2.245,2.245,0,0,0,87.615,59.1c.024-8.126,0-16.252.022-24.378,0-.831-.25-1.175-1.129-1.16-2.442.041-4.886.042-7.328-.013-.915-.021-1.26.277-1.239,1.2.044,1.878.009,3.757.011,5.636a11.65,11.65,0,0,1-1.191,5.441c-.51,1-1.189,1.412-2.274.965M21.167,51.8a1.4,1.4,0,0,0-.913-.483,10.664,10.664,0,0,1-7.873-9.705c-.153-2.29-.107-4.595-.1-6.893,0-.813-.219-1.186-1.115-1.169-2.486.047-4.975.035-7.462,0-.767-.01-1.1.231-1.1,1.041.017,8.212-.005,16.424.026,24.635a2.194,2.194,0,0,0,2.358,2.412c1.921.069,3.847.021,5.771.028a1.162,1.162,0,0,0,.886-.341Q16.4,56.556,21.167,51.8M53.859,37.13c0-3.614-.011-7.228.008-10.841A2.334,2.334,0,0,0,53,24.177a11.986,11.986,0,0,1-5.1-7.788c-.108-.606-.367-.687-.85-.353a3.091,3.091,0,0,1-3.8.032c-.543-.374-.791-.293-.924.388a11.834,11.834,0,0,1-4.945,7.57,2.451,2.451,0,0,0-1.024,2.182q.033,10.912-.01,21.824c0,.891.265,1.089,1.111,1.082q7.674-.064,15.349-.012c.917.008,1.075-.31,1.066-1.13-.04-3.613-.017-7.227-.017-10.841M42.187,61.346l.146.324c2.089,0,4.18-.027,6.268.015a2.172,2.172,0,0,0,1.723-.728c2.766-2.8,5.562-5.576,8.341-8.366.208-.209.576-.346.463-.76-6.231-.751-6.794-.562-11.085,3.725-.365.364-.719.74-1.086,1.1Q44.575,59,42.187,61.346m-7.666.166c2.364.43,4.036.095,5.542-1.63,2.22-2.543,4.744-4.819,7.125-7.222.235-.237.666-.4.531-.954-1.229.176-2.678-.545-3.654.372-3.208,3.016-6.276,6.181-9.544,9.434M19.269,2.7V2.685c-.985,0-1.972.036-2.955-.009-1.242-.057-1.022.81-1.011,1.531.011.749-.286,1.687,1.048,1.657,1.923-.043,3.847-.016,5.77-.032.41,0,.828.023,1-.537.522-1.727-.076-2.576-1.879-2.594-.657-.006-1.314,0-1.97,0M75.138,31.143c-.658,1.277-1.228,2.375-1.79,3.478a2.347,2.347,0,0,1-2.181,1.488A2.411,2.411,0,0,1,68.985,34.6c-.561-1.117-1.126-2.232-1.723-3.416a4.132,4.132,0,0,0,1.231,4.856,4.244,4.244,0,0,0,4.849.324c1.673-.99,2.314-2.712,1.8-5.225m-60.043.137c-.547,2.286.1,4.076,1.777,5.086a4.248,4.248,0,0,0,4.975-.424,3.912,3.912,0,0,0,1.1-4.644c-.519,1.034-1.038,2.026-1.519,3.036a2.559,2.559,0,0,1-2.308,1.774,2.585,2.585,0,0,1-2.34-1.732,16.071,16.071,0,0,0-1.681-3.1M71.17,33.029l2.813-5.7c-1.762,0-3.262.007-4.761,0-.6,0-.9.071-.523.782.812,1.52,1.552,3.079,2.471,4.921m-52.088-.018c.923-1.846,1.7-3.436,2.512-5.01.273-.531.065-.662-.429-.661-1.576,0-3.152,0-4.927,0l2.843,5.67" transform="translate(0 0)" fill="#050504"/>
        <path id="Path_609835" data-name="Path 609835" d="M55.968,79.248a1.642,1.642,0,0,0-1.443,1.909c.018,2.207-.025,4.414.021,6.62.017.807-.128,1.2-1.061,1.136-1.913-.142-3.851.231-5.749-.264A8.451,8.451,0,0,1,42.2,84.025h5.016c.517,0,1.034.012,1.55-.005.827-.027,1.5-.273,1.536-1.259.039-1.078-.693-1.387-1.56-1.38a58.3,58.3,0,0,0-7.211.151V78.169a7.761,7.761,0,0,0,4.7,1.191A6.857,6.857,0,0,0,51.61,69.036a2.1,2.1,0,0,1-.352-1.8A2.075,2.075,0,0,0,49.4,64.615a40.1,40.1,0,0,0-7.45-.009c-1.517.137-2.162,1.248-1.881,2.858.251,1.435-1.174,3.409-2.347,3.321-.549-.041-.731-.24-.723-.767.023-1.5,0-3.005.023-4.507a1.9,1.9,0,0,1,.857-1.547,12.349,12.349,0,0,0,5.205-8.049c.023-.123.15-.227.288-.425,1.594,1.374,3.243,1.267,4.973-.043A20.015,20.015,0,0,0,49.695,59.5a11.409,11.409,0,0,0,3.443,4.029,3.039,3.039,0,0,1,1.417,2.843c-.084,2.486-.016,4.976-.028,7.465-.005,1.015.3,1.756,1.441,1.869q0,1.771,0,3.542" transform="translate(-26.558 -39.805)" fill="#8695d9"/>
        <path id="Path_609836" data-name="Path 609836" d="M60.763,194.534c-.236-1.006-.918-1.3-1.885-1.275-1.359.04-2.72.01-4.08.01-.242-.523.234-.678.461-.907q4.163-4.2,8.357-8.363c.325-.323.6-.71,1.156-.709,4.909.009,9.818.005,14.841.005a3.014,3.014,0,0,1-1.084,1.39c-2.508,2.532-5.065,5.016-7.547,7.573a2.78,2.78,0,0,1-2.444,1.029c-.882-.089-1.781-.009-2.672-.019a1.367,1.367,0,0,0-1.559,1.27l-3.544,0" transform="translate(-39.292 -131.581)" fill="#f7d743"/>
        <path id="Path_609837" data-name="Path 609837" d="M209.823,132.154c1.085.446,1.765.03,2.274-.965a11.648,11.648,0,0,0,1.191-5.441c0-1.879.032-3.758-.011-5.636-.021-.921.323-1.219,1.238-1.2,2.442.056,4.886.054,7.328.013.879-.015,1.131.329,1.129,1.16-.019,8.126,0,16.252-.022,24.378a2.245,2.245,0,0,1-2.523,2.543q-15.5.044-31.006.021a6.406,6.406,0,0,1-.9-.253c.778-.61,1.363-.986,1.849-1.463,2.145-2.105,4.342-4.168,6.361-6.39a4.926,4.926,0,0,1,4.518-1.883,10.5,10.5,0,0,0,4.584-.485c1.046-.358,1.613-.916,1.352-2.073a7.859,7.859,0,0,0,2.639-2.328m.84,9.524c-1.311,0-2.622,0-3.933,0-.863,0-1.481.348-1.478,1.3a1.241,1.241,0,0,0,1.364,1.3q3.933.055,7.866,0a1.285,1.285,0,0,0,1.418-1.4c-.042-.816-.616-1.2-1.444-1.2-1.264.009-2.528,0-3.792,0m2.745-1.328v-.005c.422,0,.847.035,1.265-.007a1.253,1.253,0,0,0,1.233-1.29,1.186,1.186,0,0,0-1.227-1.271,19.563,19.563,0,0,0-2.386.008,1.13,1.13,0,0,0-1.123,1.332,1.184,1.184,0,0,0,1.254,1.229c.327.02.656,0,.984,0" transform="translate(-135.336 -85.365)" fill="#f66470"/>
        <path id="Path_609838" data-name="Path 609838" d="M27.783,137.17q-4.755,4.755-9.526,9.531a1.163,1.163,0,0,1-.886.341c-1.924-.007-3.85.041-5.772-.028A2.194,2.194,0,0,1,9.242,144.6c-.031-8.212-.009-16.423-.026-24.635,0-.81.335-1.051,1.1-1.041,2.487.03,4.975.042,7.462-.005.9-.017,1.117.355,1.115,1.169-.005,2.3-.051,4.6.1,6.893a10.665,10.665,0,0,0,7.873,9.705,1.4,1.4,0,0,1,.913.483" transform="translate(-6.616 -85.37)" fill="#f66470"/>
        <path id="Path_609839" data-name="Path 609839" d="M146.36,77.441c0,3.614-.022,7.228.017,10.841.009.82-.149,1.137-1.066,1.13q-7.674-.063-15.349.012c-.846.007-1.115-.19-1.111-1.082q.057-10.911.01-21.824a2.451,2.451,0,0,1,1.024-2.182,11.833,11.833,0,0,0,4.945-7.57c.133-.68.381-.762.924-.388a3.09,3.09,0,0,0,3.8-.032c.484-.334.742-.253.85.353a11.985,11.985,0,0,0,5.1,7.788,2.335,2.335,0,0,1,.865,2.112c-.02,3.614-.008,7.228-.008,10.841m-8.647-12.417v.017c-1.218,0-2.445-.093-3.652.023a2.107,2.107,0,0,0-2.027,2.746,1.9,1.9,0,0,1-.324,1.661A6.888,6.888,0,0,0,136.5,79.811a6.559,6.559,0,0,0,6.92-3.019,6.68,6.68,0,0,0,.084-7.431,1.585,1.585,0,0,1-.313-1.383,2.186,2.186,0,0,0-2.109-2.934c-1.115-.1-2.248-.02-3.372-.02m-.128,19.52c1.033,0,2.066.018,3.1-.006.851-.019,1.457-.356,1.472-1.326.015-.994-.653-1.322-1.464-1.34-2.018-.044-4.037-.039-6.055,0-.874.015-1.587.336-1.539,1.407.044.974.693,1.254,1.531,1.266.985.014,1.971,0,2.957,0" transform="translate(-92.501 -40.311)" fill="#8695d9"/>
        <path id="Path_609840" data-name="Path 609840" d="M233.612,86.738a7.862,7.862,0,0,1-2.639,2.328,1.728,1.728,0,0,0-2.14-.481c-2.134.774-4.37.37-6.563.455-.785.031-.591-.567-.593-.99-.013-2.583-.006-5.166-.006-7.75,0-4.6.013-9.206-.01-13.808a2.8,2.8,0,0,1,1.1-2.58,11.92,11.92,0,0,0,5.019-8.264c1.12.522,2.133,1.252,3.457.912.649-.167,1.214-1.119,1.786-.624.436.378.365,1.309.583,1.973a11.238,11.238,0,0,0,4.128,5.728,3.169,3.169,0,0,1,1.5,3.094c-.089.978.014,1.973-.031,2.957-.02.439.316,1.192-.547,1.163-.651-.022-1.522.49-1.89-.61s-1.212-1.975-.866-3.39a1.8,1.8,0,0,0-1.8-2.1,39.456,39.456,0,0,0-7.59,0,2.1,2.1,0,0,0-1.857,2.639,1.966,1.966,0,0,1-.175,1.576,6.806,6.806,0,0,0,.859,8.532,6.954,6.954,0,0,0,8.416,1.143c.159-.084.322-.161.47-.234.093.1.193.164.193.223,0,.937.33,2.129-.122,2.737s-1.7.074-2.6.114c-1.266.056-2.536.011-3.8.016-.985,0-2.013.061-1.99,1.39.021,1.231.977,1.305,1.928,1.3,1.874-.009,3.748,0,5.754,0-.366.927-.721,1.775.024,2.554" transform="translate(-159.124 -39.949)" fill="#f8a662"/>
        <path id="Path_609841" data-name="Path 609841" d="M149.54,192.37q2.385-2.344,4.77-4.688c.367-.362.721-.737,1.086-1.1,4.29-4.286,4.854-4.476,11.084-3.725.114.414-.254.551-.463.76-2.779,2.79-5.575,5.563-8.341,8.366a2.174,2.174,0,0,1-1.723.728c-2.089-.042-4.179-.015-6.268-.015l-.145-.324" transform="translate(-107.353 -131.024)" fill="#f7d743"/>
        <path id="Path_609842" data-name="Path 609842" d="M122.368,192.816c3.267-3.253,6.335-6.418,9.544-9.434.976-.917,2.425-.2,3.654-.372.135.557-.3.717-.531.954-2.381,2.4-4.905,4.679-7.125,7.222-1.506,1.725-3.178,2.06-5.542,1.631" transform="translate(-87.846 -131.305)" fill="#f66470"/>
        <path id="Path_609843" data-name="Path 609843" d="M58.153,9.5c.657,0,1.314-.005,1.97,0,1.8.018,2.4.867,1.879,2.594-.169.56-.587.534-1,.537-1.923.016-3.848-.011-5.77.032-1.334.03-1.037-.908-1.048-1.657-.011-.722-.231-1.588,1.011-1.531.983.045,1.97.009,2.955.009V9.5" transform="translate(-38.884 -6.803)" fill="#f7d743"/>
        <path id="Path_609844" data-name="Path 609844" d="M57.814,31.528c-.379-1.352.145-1.864,1.509-1.677a11.42,11.42,0,0,0,1.539.011c2.792,0,3.227.483,2.623,3.276-.276,1.278-1.629,1.584-2.578,2.158-.664.4-1.2-.391-1.7-.835.487-.359.983-.708,1.46-1.08a1.093,1.093,0,0,0,.5-1.212c-.16-.569-.618-.631-1.11-.631-.747,0-1.495-.006-2.242-.01" transform="translate(-41.418 -21.403)" fill="#8695d9"/>
        <path id="Path_609845" data-name="Path 609845" d="M151.559,12.532a30.3,30.3,0,0,1-4.767.091c-1.361-.008-.788-1.113-.865-1.793-.071-.629-.193-1.4.864-1.357a38.206,38.206,0,0,1,4.765.114q0,1.472,0,2.944" transform="translate(-104.718 -6.786)" fill="#f7d743"/>
        <path id="Path_609846" data-name="Path 609846" d="M244.5,12.529a29.635,29.635,0,0,1-4.77.1c-1.382,0-.772-1.122-.851-1.792-.072-.611-.232-1.4.849-1.36a38.425,38.425,0,0,1,4.768.118q0,1.468,0,2.936" transform="translate(-171.442 -6.788)" fill="#f7d743"/>
        <path id="Path_609847" data-name="Path 609847" d="M149.717,31.513c-.317-1.2-.065-1.852,1.389-1.682a17.023,17.023,0,0,0,3.235.005c.913-.069,1.081.3,1.081,1.124,0,1.51.1,2.864-1.6,3.79-1.158.626-1.893.757-2.706-.28.487-.362.983-.715,1.461-1.089a1.1,1.1,0,0,0,.506-1.215c-.157-.574-.618-.634-1.11-.636-.75,0-1.5-.012-2.25-.018" transform="translate(-107.393 -21.396)" fill="#8695d9"/>
        <path id="Path_609848" data-name="Path 609848" d="M242.559,31.5c-.355-1.232-.034-1.819,1.382-1.662a17.271,17.271,0,0,0,3.22,0c.914-.071,1.06.3,1.074,1.118.027,1.571.073,2.927-1.685,3.869-1.162.622-1.819.571-2.587-.329.512-.39,1.032-.77,1.534-1.173a1.049,1.049,0,0,0,.416-1.222c-.162-.474-.562-.56-1-.566-.784-.01-1.568-.025-2.352-.039" transform="translate(-174.034 -21.403)" fill="#8695d9"/>
        <path id="Path_609849" data-name="Path 609849" d="M245.521,110.392c.517,2.513-.124,4.235-1.8,5.225a4.243,4.243,0,0,1-4.849-.324,4.131,4.131,0,0,1-1.231-4.856c.6,1.184,1.162,2.3,1.723,3.416a2.411,2.411,0,0,0,2.182,1.506,2.347,2.347,0,0,0,2.181-1.488c.561-1.1,1.132-2.2,1.79-3.478" transform="translate(-170.384 -79.249)" fill="#f5f5f5"/>
        <path id="Path_609850" data-name="Path 609850" d="M53.021,110.879a16.048,16.048,0,0,1,1.681,3.1,2.585,2.585,0,0,0,2.34,1.732,2.558,2.558,0,0,0,2.308-1.774c.482-1.009,1-2,1.519-3.036a3.913,3.913,0,0,1-1.1,4.644,4.248,4.248,0,0,1-4.975.424c-1.677-1.01-2.325-2.8-1.778-5.086" transform="translate(-37.927 -79.598)" fill="#f5f5f5"/>
        <path id="Path_609851" data-name="Path 609851" d="M245.557,102.562c-.919-1.842-1.659-3.4-2.471-4.921-.38-.711-.076-.787.523-.782,1.5.011,3,0,4.761,0l-2.813,5.7" transform="translate(-174.387 -69.533)" fill="#f7d743"/>
        <path id="Path_609852" data-name="Path 609852" d="M60.4,102.58l-2.843-5.67c1.775,0,3.351,0,4.927,0,.494,0,.7.13.429.661-.809,1.574-1.589,3.164-2.512,5.01" transform="translate(-41.321 -69.57)" fill="#f7d743"/>
        <path id="Path_609853" data-name="Path 609853" d="M242.65,35.794c.784.013,1.568.028,2.352.039.44.006.84.092,1,.566a1.049,1.049,0,0,1-.416,1.222c-.5.4-1.022.783-1.534,1.173-1.51-.511-1.652-1.664-1.4-3" transform="translate(-174.125 -25.696)" fill="#f5f5f5"/>
        <path id="Path_609854" data-name="Path 609854" d="M166.025,12.741q0-1.472,0-2.944c2.112-.278,2.893.552,2.167,2.478-.4,1.05-1.4.477-2.164.467" transform="translate(-119.184 -6.995)" fill="#f8a662"/>
        <path id="Path_609855" data-name="Path 609855" d="M258.972,12.559q0-1.468,0-2.936c2.14-.287,2.228-.217,2.189,1.729-.028,1.371-.189,1.46-2.185,1.207" transform="translate(-185.91 -6.818)" fill="#f8a662"/>
        <path id="Path_609856" data-name="Path 609856" d="M57.937,35.891c.747,0,1.495.008,2.242.01.491,0,.949.062,1.11.631a1.093,1.093,0,0,1-.5,1.212c-.477.373-.973.721-1.46,1.08-1.488-.491-1.58-1.645-1.393-2.933" transform="translate(-41.541 -25.766)" fill="#f5f5f5"/>
        <path id="Path_609857" data-name="Path 609857" d="M149.823,35.862c.75.006,1.5.015,2.25.018.493,0,.954.062,1.11.636a1.1,1.1,0,0,1-.506,1.215c-.479.374-.974.726-1.461,1.089-1.514-.491-1.593-1.659-1.394-2.957" transform="translate(-107.499 -25.745)" fill="#f5f5f5"/>
        <path id="Path_609858" data-name="Path 609858" d="M253.239,199.606c1.264,0,2.528.008,3.792,0,.828-.006,1.4.381,1.444,1.2a1.285,1.285,0,0,1-1.418,1.4q-3.933.05-7.866,0a1.241,1.241,0,0,1-1.364-1.3c0-.949.615-1.293,1.478-1.3,1.311-.006,2.622,0,3.933,0" transform="translate(-177.912 -143.292)" fill="#050504"/>
        <path id="Path_609859" data-name="Path 609859" d="M271.036,188.272c-.328,0-.657.016-.984,0a1.184,1.184,0,0,1-1.254-1.229,1.13,1.13,0,0,1,1.123-1.332,19.569,19.569,0,0,1,2.386-.008,1.186,1.186,0,0,1,1.227,1.271,1.253,1.253,0,0,1-1.233,1.29c-.417.042-.843.007-1.265.007v.005" transform="translate(-192.964 -133.288)" fill="#050504"/>
        <path id="Path_609860" data-name="Path 609860" d="M142.4,87.519c1.125,0,2.257-.084,3.372.02a2.185,2.185,0,0,1,2.109,2.934,1.587,1.587,0,0,0,.313,1.383,6.679,6.679,0,0,1-.084,7.431,6.559,6.559,0,0,1-6.92,3.019A6.888,6.888,0,0,1,136.4,91.967a1.9,1.9,0,0,0,.324-1.661,2.107,2.107,0,0,1,2.027-2.746c1.207-.116,2.434-.023,3.652-.023,0-.006,0-.011,0-.017m-3.935,6.6a3.9,3.9,0,0,0,1.156,4.727,4.243,4.243,0,0,0,5.21.1,3.894,3.894,0,0,0,1.334-4.8c-.582,1.15-1.131,2.216-1.663,3.291a2.336,2.336,0,0,1-2.192,1.484,2.386,2.386,0,0,1-2.185-1.506c-.526-1.079-1.08-2.144-1.661-3.29m1.023-3.91,2.834,5.6,2.779-5.6Z" transform="translate(-97.187 -62.806)" fill="#050504"/>
        <path id="Path_609861" data-name="Path 609861" d="M148.382,149.914c-.986,0-1.972.011-2.957,0-.838-.012-1.487-.292-1.531-1.266-.048-1.071.665-1.391,1.539-1.407,2.018-.035,4.038-.04,6.055,0,.811.018,1.478.346,1.464,1.34-.014.97-.621,1.306-1.471,1.326-1.032.024-2.065.006-3.1.006" transform="translate(-103.298 -105.68)" fill="#050504"/>
        <path id="Path_609862" data-name="Path 609862" d="M145.407,110.985c.58,1.147,1.134,2.211,1.661,3.29a2.387,2.387,0,0,0,2.185,1.506,2.335,2.335,0,0,0,2.192-1.484c.531-1.075,1.08-2.141,1.663-3.291a3.894,3.894,0,0,1-1.334,4.8,4.244,4.244,0,0,1-5.21-.1,3.9,3.9,0,0,1-1.156-4.727" transform="translate(-104.129 -79.675)" fill="#f5f5f5"/>
        <path id="Path_609863" data-name="Path 609863" d="M149.94,97.126h5.613l-2.779,5.6-2.834-5.6" transform="translate(-107.64 -69.725)" fill="#f7d743"/>
      </g>
    </g>
  </g>
</svg>
