<svg xmlns="http://www.w3.org/2000/svg" xmlns:xlink="http://www.w3.org/1999/xlink" width="125" height="125" viewBox="0 0 125 125">
  <defs>
    <clipPath id="clip-path">
      <rect id="Rectangle_377762" data-name="Rectangle 377762" width="81.17" height="89.533" fill="none"/>
    </clipPath>
  </defs>
  <g id="Group_1072925" data-name="Group 1072925" transform="translate(5938 286)">
    <g id="Group_1072443" data-name="Group 1072443" transform="translate(-6324 -2432)">
      <path id="Path_608385" data-name="Path 608385" d="M62.5,0A62.5,62.5,0,1,1,0,62.5,62.5,62.5,0,0,1,62.5,0Z" transform="translate(386 2146)" fill="#fff"/>
    </g>
    <g id="Group_1072451" data-name="Group 1072451" transform="translate(-5916.085 -270.347)">
      <g id="Group_1072450" data-name="Group 1072450" clip-path="url(#clip-path)">
        <path id="Path_609822" data-name="Path 609822" d="M112.489,69.515a28.675,28.675,0,0,1-5.9,1.363,60.313,60.313,0,0,0-12.166,3.767,64.676,64.676,0,0,0-8.784,4.768,2.677,2.677,0,0,0-1.138.989,12.11,12.11,0,0,0-4.4,3.408c-.6-.063-.889.414-1.249.752-.939.885-1.869,1.778-2.8,2.669-.373-.341-.758-.67-1.117-1.025q-4.185-4.132-8.362-8.274c-.3-.341-.594-.7-.916-1.023q-4.284-4.327-8.578-8.644a20.677,20.677,0,0,1,2.99-3.452,57.26,57.26,0,0,0,12.9-26.021c.589-2.615,1.017-5.267,1.519-7.9A7.649,7.649,0,0,0,75.936,33.7q8.752,8.7,17.481,17.428,8,8.041,15.985,16.092a10.155,10.155,0,0,0,3.087,2.294" transform="translate(-41.102 -22.244)" fill="#b7dff5"/>
        <path id="Path_609823" data-name="Path 609823" d="M109.456,211.181a12.109,12.109,0,0,1,4.4-3.408c1.714,1.694,3.183,3.52,3.4,6.06a8.47,8.47,0,0,1-3.3,7.474c-.828.7-.841,1.161-.032,1.927,2.163,2.05,4.24,4.191,6.34,6.307,2.487,2.505,2.618,5.829.332,8.062-2.249,2.2-5.514,2.044-7.958-.4q-7.409-7.41-14.8-14.839,3.759-3.825,7.516-7.651,1.648,1.6,3.3,3.2c.25.241.408.534.891.195,2.773-1.945,2.991-3.924.624-6.265-.23-.228-.476-.44-.715-.659" transform="translate(-70.456 -149.616)" fill="#994d11"/>
        <path id="Path_609824" data-name="Path 609824" d="M51.508,208.362l-7.515,7.651c-1.731,1.681-3.48,3.343-5.188,5.047-4.021,4.011-8.714,4.032-12.729.022-1.017-1.016-2.011-2.055-3.015-3.084a2.413,2.413,0,0,1,.336-.74q3.233-3.276,6.507-6.509a2.442,2.442,0,0,1,.736-.34c1.836.935,2.651.818,4.093-.605q1.491-1.471,2.963-2.96c1.546-1.568,1.642-2.433.5-4.3,1.236-1.259,2.243-2.764,3.879-3.591q4.18,4.138,8.362,8.274c.359.355.744.684,1.117,1.024l-.046.112" transform="translate(-16.606 -143.264)" fill="#fc117f"/>
        <path id="Path_609825" data-name="Path 609825" d="M25.47,174.084c-1.636.827-2.643,2.332-3.879,3.591a1.5,1.5,0,0,1-.258-.03c-1.315-.989-2.368-1.042-3.478-.008-1.395,1.3-2.751,2.645-4.044,4.044-1,1.085-.88,2.4.181,3.593a2.385,2.385,0,0,0,.042.267,2.44,2.44,0,0,0-.736.34q-3.274,3.233-6.507,6.509a2.408,2.408,0,0,0-.336.74c-1.42-1.407-2.885-2.773-4.251-4.231a7.867,7.867,0,0,1-.033-10.887c4.339-4.481,8.8-8.846,13.216-13.253a2.629,2.629,0,0,1,.59-.34q4.29,4.32,8.578,8.644c.322.325.611.681.916,1.023" transform="translate(0 -118.396)" fill="#fd328f"/>
        <path id="Path_609826" data-name="Path 609826" d="M205.971,102.009a10.155,10.155,0,0,1-3.087-2.294q-7.968-8.071-15.985-16.092a1.612,1.612,0,0,1,.611-1.057q3.01-3,6.016-6.015a1.318,1.318,0,0,1,.938-.535c5.7,5.679,11.434,11.332,17.095,17.053a5.018,5.018,0,0,1,1.036,6.048,5.127,5.127,0,0,1-5.229,2.963c-.465-.016-.929-.047-1.394-.071" transform="translate(-134.585 -54.738)" fill="#fc117f"/>
        <path id="Path_609827" data-name="Path 609827" d="M145.763,27.232a1.318,1.318,0,0,0-.938.535q-3.006,3.01-6.016,6.015a1.612,1.612,0,0,0-.61,1.057q-8.738-8.717-17.481-17.428A7.64,7.64,0,0,1,119.27,14.6c-.058-3.584,1.508-5.746,4.644-6.26a4.987,4.987,0,0,1,4.467,1.484q8.712,8.682,17.382,17.407" transform="translate(-85.884 -5.955)" fill="#fd328f"/>
        <path id="Path_609828" data-name="Path 609828" d="M242.11,20.412a2.835,2.835,0,0,1-.836,2.07c-1.873,1.88-3.73,3.776-5.635,5.623a2.636,2.636,0,0,1-3.866.125,2.578,2.578,0,0,1,0-3.854c1.9-1.984,3.853-3.915,5.832-5.818a2.441,2.441,0,0,1,2.969-.419,2.75,2.75,0,0,1,1.536,2.272" transform="translate(-166.275 -12.832)" fill="#23d9de"/>
        <path id="Path_609829" data-name="Path 609829" d="M198.639,5.5c0,.885.041,1.772-.009,2.655a2.825,2.825,0,0,1-2.551,2.7,2.673,2.673,0,0,1-2.8-2.4,27.472,27.472,0,0,1,.01-6.13A2.563,2.563,0,0,1,196.119.008,2.706,2.706,0,0,1,198.631,2.7c.043.93.008,1.863.008,2.795" transform="translate(-139.061 0)" fill="#23d9de"/>
        <path id="Path_609830" data-name="Path 609830" d="M256.744,77.118c.931,0,1.866-.052,2.793.011a2.687,2.687,0,0,1,2.533,2.523,2.514,2.514,0,0,1-2.2,2.775,24.144,24.144,0,0,1-6.4.006,2.622,2.622,0,0,1-2.242-2.776,2.819,2.819,0,0,1,2.575-2.525c.973-.067,1.955-.013,2.933-.014" transform="translate(-180.908 -55.517)" fill="#23d9de"/>
        <path id="Path_609831" data-name="Path 609831" d="M124.692,223.467l.046-.112c.934-.89,1.864-1.784,2.8-2.668.36-.339.644-.816,1.249-.752.238.219.485.431.715.659,2.367,2.341,2.149,4.321-.624,6.266-.483.339-.641.046-.891-.2q-1.653-1.594-3.3-3.2" transform="translate(-89.79 -158.369)" fill="#f6f6f6"/>
        <path id="Path_609832" data-name="Path 609832" d="M50.032,219.57a2.39,2.39,0,0,1-.041-.267c.4-.446.8-.9,1.216-1.338,2.017-2.121,4.24-4.042,6.126-6.291a1.533,1.533,0,0,0,.258.03c1.14,1.867,1.044,2.732-.5,4.3q-1.47,1.491-2.962,2.96c-1.442,1.423-2.257,1.54-4.093.605" transform="translate(-35.998 -152.425)" fill="#b7dff5"/>
        <path id="Path_609833" data-name="Path 609833" d="M55.1,209.713c-1.886,2.249-4.109,4.17-6.126,6.291-.415.437-.811.892-1.216,1.338-1.061-1.191-1.184-2.509-.181-3.593,1.293-1.4,2.65-2.745,4.044-4.044,1.11-1.034,2.163-.981,3.478.008" transform="translate(-33.763 -150.463)" fill="#f6f6f6"/>
      </g>
    </g>
  </g>
</svg>
