<svg xmlns="http://www.w3.org/2000/svg" xmlns:xlink="http://www.w3.org/1999/xlink" width="125" height="125" viewBox="0 0 125 125">
  <defs>
    <clipPath id="clip-path">
      <rect id="Rectangle_377761" data-name="Rectangle 377761" width="79.354" height="79.373" fill="none"/>
    </clipPath>
  </defs>
  <g id="Group_1072926" data-name="Group 1072926" transform="translate(5587 286)">
    <g id="Group_1072447" data-name="Group 1072447" transform="translate(-5973 -2432)">
      <path id="Path_608385" data-name="Path 608385" d="M62.5,0A62.5,62.5,0,1,1,0,62.5,62.5,62.5,0,0,1,62.5,0Z" transform="translate(386 2146)" fill="#fff"/>
    </g>
    <g id="Group_1072449" data-name="Group 1072449" transform="translate(-5567 -265.267)">
      <g id="Group_1072448" data-name="Group 1072448" clip-path="url(#clip-path)">
        <path id="Path_609796" data-name="Path 609796" d="M46.3,79.372H20.775c-1.989,0-2.252-.27-2.252-2.3q0-19.376-.01-38.752c0-.411.243-.977-.176-1.211-.541-.3-.966.17-1.381.5Q11.135,42.284,5.3,46.943c-.558.447-1.1.922-1.892.539s-.767-1.093-.765-1.813c.007-2.645-.011-5.29.013-7.935a1.215,1.215,0,0,0-.667-1.261A3.863,3.863,0,0,1,0,32.846c0-6.922-.013-13.843.008-20.764A3.927,3.927,0,0,1,4.181,7.951c4.408-.023,8.817-.038,13.225.018.946.012,1.182-.248,1.139-1.163-.079-1.671,0-3.35-.03-5.025C18.492.572,19,0,20.241,0Q38.36.018,56.48,0a2.154,2.154,0,0,1,1.638.68q7.6,7.633,15.244,15.229a2.7,2.7,0,0,1,.722,2.154c-.01,10.933,0,21.867-.023,32.8a2.466,2.466,0,0,0,1.006,2.2,11.832,11.832,0,0,1-.108,18.316,1.988,1.988,0,0,0-.9,1.855c.069,1.275.019,2.556.018,3.835,0,2.028-.267,2.3-2.252,2.3H46.3M71.323,50.864a2.019,2.019,0,0,0,.1-.415c.005-10.36-.006-20.72.029-31.08,0-.894-.422-.851-1.039-.849q-6.414.021-12.829.006c-1.663,0-2.022-.355-2.024-2-.005-4.232-.041-8.465.026-12.7.016-1.022-.281-1.205-1.238-1.2-9.654.038-19.309.02-28.964.026-1.359,0-3.2-.479-3.949.21-.855.788-.141,2.655-.283,4.041-.094.926.3,1.067,1.107,1.052,2.6-.047,5.2-.028,7.8-.014,2.734.015,4.326,1.616,4.33,4.376q.016,10.183,0,20.367a3.991,3.991,0,0,1-4.355,4.352c-2.513.013-5.028.065-7.537-.026-1.1-.04-1.363.247-1.359,1.352q.067,18.515,0,37.031c0,1.1.257,1.356,1.355,1.353q23.012-.061,46.025-.028c3.138,0,3.138,0,2.828-3.167-.514-.163-.921.215-1.4.273-4.351.524-8.717.151-13.075.227-.894.016-1.315-.609-1.316-1.491,0-1.543-.014-3.086,0-4.629.014-1.388.415-1.785,1.827-1.79,3.262-.012,6.525.01,9.787-.008a3.976,3.976,0,0,0,4.25-4.056c-.056-2.316-1.92-3.914-4.434-3.895-.7.006-.855.212-.872.886-.043,1.791-.973,2.241-2.484,1.246q-3.582-2.36-7.141-4.754c-1.283-.868-1.273-1.794.022-2.668q3.557-2.4,7.142-4.753c1.5-.986,2.38-.521,2.478,1.288.023.429-.115.9.618.848a14.367,14.367,0,0,1,4.567.583M5.3,43.549c3.619-2.893,7-5.564,10.341-8.295a3.653,3.653,0,0,1,2.523-.873c3.921.04,7.843,0,11.765.025,1.179.007,1.831-.429,1.829-1.687q-.015-10.245,0-20.489c0-1.081-.5-1.639-1.6-1.639q-12.954,0-25.909,0c-1.011,0-1.585.474-1.586,1.511q-.009,10.377,0,20.754c0,.81.34,1.408,1.167,1.507,1.2.143,1.5.849,1.487,1.92C5.276,38.6,5.3,40.926,5.3,43.549m58.18,27.886v-.011c1.453,0,2.909.048,4.36-.009A9.242,9.242,0,0,0,71.584,53.9a12.3,12.3,0,0,0-6.047-.987c-.573.01-1.354.138-1.587-.394-.626-1.431-1.271-.525-1.914-.127-.71.439-1.386.934-2.093,1.379-.557.35-.48.628.024.948.779.5,1.542,1.017,2.313,1.526.589.39,1.19,1.03,1.587-.225.065-.206.5-.412.773-.417a13.481,13.481,0,0,1,5.1.366,6.633,6.633,0,0,1,4.277,7.119,6.563,6.563,0,0,1-6.33,5.676c-2.861.071-5.727.066-8.588,0-1.275-.029-.845.82-.881,1.421-.037.623-.236,1.344.9,1.269,1.447-.095,2.906-.023,4.359-.023m5.631-55.567L58.216,4.885c0,3.453.006,6.917-.007,10.38,0,.45.133.615.6.613,3.465-.015,6.93-.008,10.3-.008" transform="translate(0 0)" fill="#020202"/>
        <path id="Path_609797" data-name="Path 609797" d="M129.683,57.8a14.369,14.369,0,0,0-4.567-.583c-.733.048-.6-.418-.618-.848-.1-1.809-.98-2.273-2.478-1.288q-3.583,2.358-7.142,4.753c-1.3.874-1.306,1.8-.022,2.668q3.553,2.4,7.141,4.754c1.511,1,2.44.545,2.484-1.246.016-.673.168-.88.871-.886,2.514-.019,4.378,1.579,4.434,3.895a3.976,3.976,0,0,1-4.25,4.055c-3.262.019-6.525,0-9.787.008-1.413.005-1.814.4-1.828,1.79-.016,1.543,0,3.086,0,4.629,0,.882.422,1.507,1.316,1.491,4.358-.076,8.724.3,13.076-.227.476-.057.884-.435,1.4-.273.309,3.168.309,3.168-2.828,3.168q-23.012,0-46.024.028c-1.1,0-1.359-.253-1.355-1.354q.066-18.516,0-37.031c0-1.105.26-1.392,1.359-1.352,2.509.091,5.025.039,7.537.026a3.991,3.991,0,0,0,4.355-4.352q.017-10.183,0-20.367c0-2.76-1.6-4.361-4.33-4.376-2.6-.014-5.2-.033-7.8.014-.812.015-1.2-.127-1.107-1.052.142-1.386-.572-3.254.283-4.042.747-.688,2.59-.209,3.949-.21,9.654-.006,19.309.011,28.963-.026.957,0,1.255.18,1.238,1.2-.067,4.231-.032,8.464-.026,12.7,0,1.641.362,1.994,2.024,2q6.414.007,12.829-.006c.618,0,1.043-.045,1.04.849-.035,10.36-.024,20.72-.029,31.08a2.05,2.05,0,0,1-.1.415M102.013,20.17q-2.513,0-5.025,0c-1.012,0-1.577.471-1.583,1.509-.009,1.631-.006,3.262,0,4.893a1.375,1.375,0,0,0,1.56,1.534c1.014,0,2.028-.006,3.042.006.28,0,.678-.116.677.374,0,1.582.315,3.287-.19,4.693-.237.66-2.1.136-3.228.217-.088.006-.176,0-.264,0a1.41,1.41,0,0,0-1.6,1.63c.011,1.587,0,3.174,0,4.761a1.375,1.375,0,0,0,1.549,1.545c.97,0,1.941.031,2.909-.009.59-.024.877.088.846.776a35.742,35.742,0,0,0,0,3.7c.046.775-.3.856-.924.833-.968-.035-1.939-.019-2.909,0a1.335,1.335,0,0,0-1.472,1.481c-.012,1.631-.005,3.262,0,4.893A1.376,1.376,0,0,0,96.94,54.56c.97.006,1.943.053,2.908-.014.738-.051.88.248.855.9-.044,1.188-.063,2.383.006,3.569.043.753-.272.873-.912.846-.968-.042-1.939-.019-2.909-.007a1.334,1.334,0,0,0-1.482,1.471c-.015,1.631-.006,3.262-.006,4.893,0,1.107.587,1.587,1.66,1.572.97-.013,1.941.032,2.909-.015.6-.029.749.191.732.755-.037,1.233-.057,2.471.006,3.7.038.731-.239.893-.9.858-.923-.048-1.851,0-2.777-.014a1.41,1.41,0,0,0-1.633,1.6q.008,2.381,0,4.761a1.373,1.373,0,0,0,1.518,1.576q5.092.01,10.183,0a1.335,1.335,0,0,0,1.518-1.436c.024-1.675.019-3.35,0-5.025a1.335,1.335,0,0,0-1.485-1.469c-.97-.011-1.941-.037-2.909.007-.646.029-.95-.1-.908-.85.067-1.187.051-2.381,0-3.569-.026-.661.128-.948.859-.9.965.065,1.939.02,2.908.014a1.377,1.377,0,0,0,1.535-1.561c0-1.631.01-3.262,0-4.893a1.336,1.336,0,0,0-1.477-1.477c-.881-.013-1.768-.063-2.643.012s-1.275-.124-1.185-1.112a21.208,21.208,0,0,0,.006-3.171c-.046-.771.113-1.125.986-1.043.917.087,1.85.022,2.775.018a1.378,1.378,0,0,0,1.543-1.553c0-1.058,0-2.116,0-3.174,0-3.209,0-3.209-3.194-3.209-2.1,0-2.105,0-2.093-2.143.006-1.005-.322-2.314.181-2.931.533-.653,1.895-.148,2.892-.213.219-.014.441,0,.661,0a1.379,1.379,0,0,0,1.551-1.545c0-.97,0-1.94,0-2.909,0-3.482,0-3.482-3.45-3.482-1.841,0-1.849,0-1.837-1.87.007-1.094-.36-2.517.184-3.192.578-.716,2.061-.141,3.145-.227a2.318,2.318,0,0,1,.264,0,1.444,1.444,0,0,0,1.7-1.67c-.016-1.5.01-3-.008-4.5-.016-1.371-.425-1.758-1.851-1.769-1.587-.012-3.174,0-4.761,0m-10.585,43.7a3.963,3.963,0,1,0-3.979,3.914,3.978,3.978,0,0,0,3.979-3.914M87.462,81.008a3.963,3.963,0,1,0-3.96-3.932,3.982,3.982,0,0,0,3.96,3.932m31.081-42.319c1.847,0,3.694-.011,5.541,0,.957.008,1.715-.287,1.7-1.358-.011-.986-.72-1.3-1.631-1.3q-5.607.014-11.214,0c-.908,0-1.622.3-1.637,1.29-.016,1.072.738,1.373,1.7,1.365,1.847-.015,3.694,0,5.541,0m.023,10.581c-1.891,0-3.782,0-5.673,0-.919,0-1.6.351-1.588,1.338s.7,1.315,1.615,1.314q5.607-.011,11.215,0c.9,0,1.627-.289,1.653-1.277.028-1.068-.716-1.386-1.68-1.378-1.847.015-3.694,0-5.541,0M86.433,50.633c-.18-.24-.265-.331-.325-.436-.451-.79-1.065-1.217-1.945-.7s-.744,1.29-.352,2.066c.356.7.685,1.423,1.076,2.107a1.321,1.321,0,0,0,2.419.2c1.277-1.621,2.506-3.281,3.737-4.938a1.305,1.305,0,0,0-.117-1.99c-.776-.608-1.473-.329-2.03.418-.786,1.053-1.58,2.1-2.462,3.272M120.4,33.4c1.231,0,2.461-.013,3.691,0,.958.013,1.712-.292,1.7-1.362-.014-.985-.723-1.3-1.633-1.293q-3.625.018-7.25,0c-.909,0-1.619.307-1.631,1.294-.013,1.071.742,1.374,1.7,1.36,1.142-.017,2.285,0,3.427,0m.017,13.227h3.823c.926,0,1.576-.394,1.551-1.374-.024-.9-.653-1.273-1.52-1.272q-3.757,0-7.514,0c-.872,0-1.476.4-1.486,1.3s.581,1.326,1.456,1.334c1.23.012,2.461,0,3.691,0M102.021,16.2c.834,0,1.669.014,2.5,0,.877-.018,1.447-.458,1.43-1.358a1.239,1.239,0,0,0-1.379-1.273c-1.712-.018-3.424-.021-5.136,0a1.233,1.233,0,0,0-1.364,1.287c-.007.9.57,1.329,1.445,1.344.834.015,1.668,0,2.5,0" transform="translate(-58.36 -6.935)" fill="#e7ecf0"/>
        <path id="Path_609798" data-name="Path 609798" d="M12.664,72.971c0-2.623-.021-4.945.009-7.266.014-1.071-.291-1.777-1.487-1.92-.827-.1-1.167-.7-1.167-1.507q0-10.377,0-20.754c0-1.037.575-1.511,1.586-1.511q12.954,0,25.909,0c1.1,0,1.6.558,1.6,1.639q-.006,10.245,0,20.489c0,1.258-.649,1.694-1.829,1.687-3.921-.022-7.843.015-11.765-.025A3.651,3.651,0,0,0,23,64.677c-3.337,2.731-6.722,5.4-10.341,8.295M24.684,53.24c3.344,0,6.687-.007,10.03,0,.951,0,1.732-.271,1.718-1.347s-.815-1.315-1.756-1.31c-2.639.016-5.279.005-7.919.005-4.091,0-8.183-.006-12.274,0-1.274,0-1.977.611-1.784,1.533.189.9.859,1.118,1.689,1.115,3.431-.011,6.863,0,10.294,0m5.175,5.291c1.581,0,3.163-.014,4.744.005.98.012,1.845-.2,1.828-1.364-.015-1.076-.831-1.3-1.767-1.294q-4.809.022-9.619,0c-.935,0-1.75.219-1.762,1.3-.013,1.167.854,1.372,1.832,1.36,1.581-.019,3.162-.005,4.743-.005M31.1,47.945c1.317,0,2.633.015,3.95-.006a1.318,1.318,0,1,0-.033-2.629q-3.818-.023-7.636,0c-.872,0-1.466.427-1.456,1.332s.622,1.3,1.489,1.3c1.229.008,2.457,0,3.686,0M19.328,45.3c-.833,0-1.665,0-2.5,0-.866.006-1.476.394-1.489,1.3s.581,1.329,1.45,1.336c1.665.014,3.331.017,5,0,.874-.01,1.446-.459,1.425-1.361a1.25,1.25,0,0,0-1.386-1.268c-.832-.021-1.665,0-2.5-.007M16.683,55.886c-.833,0-1.665,0-2.5,0-.867.006-1.476.394-1.489,1.3s.58,1.329,1.45,1.336c1.665.014,3.331.017,5,0,.874-.01,1.446-.459,1.425-1.361a1.25,1.25,0,0,0-1.386-1.268c-.832-.021-1.665,0-2.5-.007" transform="translate(-7.367 -29.422)" fill="#3396e6"/>
        <path id="Path_609799" data-name="Path 609799" d="M225.085,215.182c-1.453,0-2.912-.072-4.359.023-1.138.074-.939-.647-.9-1.269.036-.6-.394-1.45.881-1.421,2.861.066,5.727.071,8.588,0a6.563,6.563,0,0,0,6.33-5.676,6.633,6.633,0,0,0-4.277-7.119,13.487,13.487,0,0,0-5.1-.366c-.27.005-.708.211-.773.417-.4,1.255-1,.615-1.587.225-.771-.51-1.534-1.03-2.313-1.526-.5-.321-.58-.6-.024-.948.707-.445,1.383-.94,2.093-1.379.644-.4,1.288-1.3,1.914.126.233.533,1.015.4,1.587.394a12.3,12.3,0,0,1,6.047.987,9.242,9.242,0,0,1-3.747,17.513c-1.451.057-2.907.009-4.36.009v.011" transform="translate(-161.609 -143.746)" fill="#e6413e"/>
        <path id="Path_609800" data-name="Path 609800" d="M230.813,29.439c-3.368,0-6.833-.007-10.3.008-.467,0-.6-.163-.6-.613.014-3.463.007-6.926.007-10.38l10.891,10.984" transform="translate(-161.706 -13.57)" fill="#e7ecf0"/>
        <path id="Path_609801" data-name="Path 609801" d="M146.544,49.994c1.587,0,3.174-.01,4.761,0,1.426.011,1.835.4,1.851,1.768.018,1.5-.008,3,.008,4.5a1.445,1.445,0,0,1-1.7,1.67,2.381,2.381,0,0,0-.264,0c-1.084.086-2.567-.489-3.145.227-.545.674-.178,2.1-.185,3.192-.012,1.87,0,1.87,1.837,1.87,3.45,0,3.45,0,3.45,3.482,0,.97,0,1.94,0,2.91a1.379,1.379,0,0,1-1.551,1.545c-.22,0-.442-.011-.661,0-1,.065-2.359-.44-2.892.213-.5.617-.175,1.926-.181,2.932-.012,2.143,0,2.143,2.093,2.143,3.194,0,3.194,0,3.194,3.209,0,1.058,0,2.116,0,3.174a1.377,1.377,0,0,1-1.543,1.553c-.926,0-1.858.069-2.775-.018-.873-.082-1.033.272-.986,1.043a21.241,21.241,0,0,1-.006,3.171c-.09.988.307,1.187,1.185,1.112s1.762-.025,2.643-.012a1.337,1.337,0,0,1,1.477,1.477c.014,1.631.007,3.262,0,4.893a1.377,1.377,0,0,1-1.535,1.561c-.97.006-1.943.052-2.908-.014-.731-.05-.885.237-.859.9.046,1.188.062,2.383-.005,3.569-.042.746.261.879.908.85.968-.044,1.939-.019,2.909-.007a1.335,1.335,0,0,1,1.485,1.469c.016,1.675.021,3.35,0,5.025a1.335,1.335,0,0,1-1.518,1.436q-5.091.005-10.183,0a1.373,1.373,0,0,1-1.518-1.576c0-1.587,0-3.174,0-4.761a1.41,1.41,0,0,1,1.633-1.6c.926.011,1.853-.034,2.777.014.661.035.937-.127.9-.858-.063-1.231-.043-2.468-.006-3.7.017-.564-.134-.783-.732-.754-.967.047-1.939,0-2.909.015-1.074.015-1.66-.465-1.66-1.572,0-1.631-.009-3.262.005-4.893a1.334,1.334,0,0,1,1.482-1.471c.97-.012,1.941-.035,2.909.006.64.028.955-.093.912-.846-.069-1.186-.05-2.381-.006-3.569.024-.654-.117-.953-.855-.9-.965.067-1.938.02-2.908.014a1.376,1.376,0,0,1-1.539-1.556c0-1.631-.008-3.262,0-4.893a1.334,1.334,0,0,1,1.472-1.481c.97-.015,1.941-.031,2.909,0,.62.022.969-.058.924-.833a35.737,35.737,0,0,1,0-3.7c.031-.688-.256-.8-.846-.776-.968.04-1.939.013-2.909.009a1.375,1.375,0,0,1-1.549-1.545c0-1.587.007-3.174,0-4.761a1.409,1.409,0,0,1,1.6-1.63c.088,0,.177.006.264,0,1.124-.082,2.991.443,3.228-.217.5-1.406.186-3.111.19-4.693,0-.49-.4-.371-.677-.374-1.014-.011-2.028,0-3.042-.006a1.375,1.375,0,0,1-1.56-1.534c0-1.631-.008-3.262,0-4.893.006-1.039.57-1.511,1.583-1.509q2.513,0,5.026,0m0,5.29a30.221,30.221,0,0,1,3.028.02c1.228.124.944-.691.938-1.336s.31-1.418-.925-1.353a55.038,55.038,0,0,1-5.662,0c-1.083-.055-1.393.226-1.386,1.342.006,1.094.271,1.475,1.376,1.347a23.023,23.023,0,0,1,2.632-.02m-.059,13.227c1.1,0,2.2-.042,3.293.011,1.142.055.734-.783.707-1.265-.029-.51.538-1.417-.708-1.4-2.151.034-4.3.044-6.455,0-1.14-.026-.734.785-.707,1.268.029.51-.537,1.436.709,1.4,1.053-.034,2.107-.007,3.161-.007m.186,10.617c-1.013,0-2.033.079-3.036-.021-1.128-.112-1.062.548-1.023,1.288.035.664-.231,1.407.978,1.339a51.051,51.051,0,0,1,5.545,0c1.1.057,1.394-.248,1.4-1.359s-.369-1.348-1.351-1.261c-.83.074-1.672.015-2.508.015m-.156,15.838a21.317,21.317,0,0,1,2.895.025c1.358.188,1.047-.69,1.123-1.442.093-.935-.134-1.31-1.183-1.254-1.883.1-3.777.087-5.662,0-.966-.042-1.112.3-1.141,1.178-.038,1.138.2,1.686,1.468,1.51a18.479,18.479,0,0,1,2.5-.021m-.083,13.227a21.648,21.648,0,0,1,2.632.021c1.223.151,1.671-.312,1.45-1.487-.088-.468.355-1.2-.684-1.187-2.2.036-4.391.01-6.586.013-.3,0-.558-.041-.67.407-.4,1.592.043,2.233,1.619,2.234h2.24" transform="translate(-102.891 -36.758)" fill="#020202"/>
        <path id="Path_609802" data-name="Path 609802" d="M102.908,203.947a3.963,3.963,0,1,1-3.879-4.011,3.982,3.982,0,0,1,3.879,4.011m-3.864,1.279a1.292,1.292,0,0,0,1.193-1.4,1.3,1.3,0,0,0-2.589.088c.017.826.534,1.235,1.4,1.316" transform="translate(-69.841 -147.015)" fill="#020202"/>
        <path id="Path_609803" data-name="Path 609803" d="M98.948,257.836a3.963,3.963,0,1,1,3.965-3.928,3.986,3.986,0,0,1-3.965,3.928m-.026-2.64c.8-.088,1.327-.5,1.321-1.328a1.295,1.295,0,0,0-2.588-.053,1.279,1.279,0,0,0,1.268,1.382" transform="translate(-69.845 -183.762)" fill="#020202"/>
        <path id="Path_609804" data-name="Path 609804" d="M207.271,112.606c-1.847,0-3.694-.011-5.541,0-.958.008-1.713-.293-1.7-1.365.015-.989.729-1.292,1.637-1.29q5.607.015,11.214,0c.911,0,1.62.31,1.631,1.3.012,1.071-.747,1.366-1.7,1.358-1.847-.016-3.694,0-5.541,0" transform="translate(-147.087 -80.851)" fill="#020202"/>
        <path id="Path_609805" data-name="Path 609805" d="M207.291,159.93c1.847,0,3.694.011,5.541,0,.964-.008,1.708.31,1.68,1.379-.026.987-.749,1.279-1.653,1.277q-5.607-.016-11.214,0c-.913,0-1.606-.326-1.615-1.314s.669-1.341,1.588-1.338c1.891.007,3.782,0,5.673,0" transform="translate(-147.084 -117.595)" fill="#020202"/>
        <path id="Path_609806" data-name="Path 609806" d="M97.928,153.92c.883-1.172,1.677-2.219,2.462-3.272.557-.747,1.254-1.026,2.03-.418a1.306,1.306,0,0,1,.117,1.99c-1.232,1.657-2.46,3.317-3.737,4.938a1.321,1.321,0,0,1-2.419-.2c-.391-.683-.721-1.4-1.076-2.107-.392-.776-.531-1.544.352-2.066s1.494-.093,1.945.7c.06.105.145.2.325.436" transform="translate(-69.855 -110.222)" fill="#020202"/>
        <path id="Path_609807" data-name="Path 609807" d="M220.15,92.616c-1.143,0-2.285-.013-3.428,0-.957.014-1.711-.289-1.7-1.36.012-.988.723-1.3,1.631-1.294q3.625.017,7.25,0c.91,0,1.619.308,1.633,1.293.015,1.069-.74,1.375-1.7,1.362-1.23-.017-2.461,0-3.691,0" transform="translate(-158.11 -66.153)" fill="#020202"/>
        <path id="Path_609808" data-name="Path 609808" d="M220.158,142.6c-1.23,0-2.461.008-3.691,0-.875-.008-1.465-.43-1.456-1.334s.614-1.3,1.486-1.3q3.757-.005,7.514,0c.867,0,1.5.369,1.52,1.272.026.98-.624,1.375-1.551,1.374h-3.823" transform="translate(-158.101 -102.909)" fill="#020202"/>
        <path id="Path_609809" data-name="Path 609809" d="M153.988,27.645c-.834,0-1.668.011-2.5,0-.875-.015-1.452-.441-1.445-1.344a1.233,1.233,0,0,1,1.364-1.287c1.712-.022,3.424-.02,5.136,0a1.239,1.239,0,0,1,1.379,1.273c.017.9-.553,1.34-1.43,1.358-.833.017-1.668,0-2.5,0" transform="translate(-110.327 -18.379)" fill="#020202"/>
        <path id="Path_609810" data-name="Path 609810" d="M32.046,82.617c-3.431,0-6.863-.007-10.294,0-.83,0-1.5-.212-1.689-1.115-.193-.922.51-1.53,1.784-1.533,4.091-.011,8.183,0,12.274,0,2.639,0,5.279.01,7.919-.005.941-.006,1.742.231,1.756,1.309s-.767,1.35-1.718,1.348c-3.343-.011-6.687,0-10.03,0" transform="translate(-14.729 -58.799)" fill="#020202"/>
        <path id="Path_609811" data-name="Path 609811" d="M66.708,102.606c-1.581,0-3.163-.014-4.744.005-.978.012-1.845-.193-1.832-1.36.012-1.078.827-1.3,1.762-1.3q4.809.021,9.619,0c.935,0,1.751.217,1.767,1.294.016,1.165-.848,1.377-1.828,1.364-1.581-.02-3.162-.005-4.744-.005" transform="translate(-44.216 -73.497)" fill="#020202"/>
        <path id="Path_609812" data-name="Path 609812" d="M75.279,62.635c-1.229,0-2.458.007-3.686,0-.867-.005-1.478-.4-1.489-1.3S70.688,60,71.56,60q3.818-.015,7.636,0a1.317,1.317,0,1,1,.033,2.628c-1.316.02-2.633.006-3.95.007" transform="translate(-51.548 -44.111)" fill="#020202"/>
        <path id="Path_609813" data-name="Path 609813" d="M34.112,59.994c.833,0,1.666-.015,2.5.006A1.25,1.25,0,0,1,38,61.268c.021.9-.551,1.351-1.425,1.361-1.665.019-3.331.016-5,0-.869-.007-1.463-.432-1.45-1.336s.623-1.294,1.489-1.3c.833-.006,1.666,0,2.5,0" transform="translate(-22.151 -44.111)" fill="#020202"/>
        <path id="Path_609814" data-name="Path 609814" d="M24.118,99.973c.833,0,1.666-.015,2.5.006A1.25,1.25,0,0,1,28,101.247c.021.9-.551,1.351-1.425,1.361-1.665.019-3.331.016-5,0-.869-.007-1.463-.432-1.45-1.336s.623-1.294,1.489-1.3c.833-.006,1.665,0,2.5,0" transform="translate(-14.802 -73.508)" fill="#020202"/>
        <path id="Path_609815" data-name="Path 609815" d="M153.77,62.555a23.028,23.028,0,0,0-2.633.02c-1.105.128-1.37-.254-1.376-1.347-.006-1.116.3-1.4,1.386-1.342a55.031,55.031,0,0,0,5.662,0c1.236-.065.92.72.926,1.353s.29,1.46-.938,1.336a30.217,30.217,0,0,0-3.027-.021" transform="translate(-110.122 -44.029)" fill="#c2c5c6"/>
        <path id="Path_609816" data-name="Path 609816" d="M153.644,112.579c-1.054,0-2.109-.027-3.161.007-1.245.04-.679-.885-.709-1.4-.028-.484-.433-1.295.707-1.269,2.151.049,4.3.038,6.455,0,1.246-.019.679.888.708,1.4.028.483.435,1.321-.707,1.265-1.1-.053-2.2-.011-3.293-.011" transform="translate(-110.054 -80.827)" fill="#c2c5c6"/>
        <path id="Path_609817" data-name="Path 609817" d="M154.062,159.98c.837,0,1.678.059,2.508-.015.982-.087,1.353.165,1.351,1.26,0,1.111-.3,1.416-1.4,1.359a51.115,51.115,0,0,0-5.545,0c-1.209.069-.943-.674-.978-1.338-.039-.74-.1-1.4,1.023-1.288,1,.1,2.023.021,3.036.021" transform="translate(-110.287 -117.611)" fill="#3396e6"/>
        <path id="Path_609818" data-name="Path 609818" d="M153.761,212.472a18.431,18.431,0,0,0-2.5.021c-1.27.175-1.506-.373-1.468-1.51.029-.877.175-1.22,1.141-1.178,1.885.083,3.779.1,5.662,0,1.049-.056,1.276.319,1.183,1.254-.075.753.235,1.63-1.123,1.442a21.319,21.319,0,0,0-2.895-.025" transform="translate(-110.142 -154.265)" fill="#c2c5c6"/>
        <path id="Path_609819" data-name="Path 609819" d="M153.379,262.509h-2.24c-1.576,0-2.017-.642-1.619-2.234.112-.448.374-.406.67-.407,2.2,0,4.391.023,6.586-.013,1.04-.017.6.719.684,1.187.221,1.175-.227,1.638-1.45,1.487a21.645,21.645,0,0,0-2.632-.021" transform="translate(-109.843 -191.075)" fill="#c2c5c6"/>
        <path id="Path_609820" data-name="Path 609820" d="M106.452,212.631c-.862-.081-1.379-.49-1.4-1.316a1.3,1.3,0,0,1,2.589-.088,1.292,1.292,0,0,1-1.193,1.4" transform="translate(-77.249 -154.419)" fill="#c2c5c6"/>
        <path id="Path_609821" data-name="Path 609821" d="M106.326,262.609a1.279,1.279,0,0,1-1.268-1.382,1.295,1.295,0,0,1,2.588.053c.006.826-.519,1.24-1.321,1.328" transform="translate(-77.249 -191.175)" fill="#c2c5c6"/>
      </g>
    </g>
  </g>
</svg>
