<svg id="Group_1072278" data-name="Group 1072278" xmlns="http://www.w3.org/2000/svg" xmlns:xlink="http://www.w3.org/1999/xlink" width="144.596" height="144.548" viewBox="0 0 144.596 144.548">
  <defs>
    <clipPath id="clip-path">
      <rect id="Rectangle_377697" data-name="Rectangle 377697" width="144.596" height="144.548" fill="none"/>
    </clipPath>
    <clipPath id="clip-path-2">
      <rect id="Rectangle_377695" data-name="Rectangle 377695" width="38.565" height="54.348" fill="none"/>
    </clipPath>
    <clipPath id="clip-path-3">
      <rect id="Rectangle_377696" data-name="Rectangle 377696" width="21.479" height="17.788" fill="none"/>
    </clipPath>
  </defs>
  <g id="Group_1072277" data-name="Group 1072277" clip-path="url(#clip-path)">
    <path id="Path_609433" data-name="Path 609433" d="M137.487,169.406c0,9.456,0,18.636,0,27.815,0,3.526-.307,3.819-3.911,3.821-4.139,0-8.279.017-12.418-.005-2.463-.013-3.192-.75-3.194-3.254q-.017-20.881,0-41.763c0-2.759.663-3.489,3.472-3.392,1.744.06,2.078-.212,1.608-2.07-3.68-14.514,1.5-27.294,14.308-35.5a2.195,2.195,0,0,0,1.13-2.191c-.045-2.256-.008-4.515-.014-6.772-.006-2.051,1-3.016,3.057-3,3.612.027,7.225-.024,10.837.019,2.308.028,3.013.82,3.06,3.174.028,1.421-.375,3.112.259,4.186.622,1.054,2.5.5,3.789.83a8.452,8.452,0,0,1,1.734.465c6.049,3.078,12.563,2.27,18.975,2.314q2.257.016,4.516,0c1.509-.011,2.581.7,2.609,2.2.031,1.626-1.086,2.354-2.689,2.347-2.709-.01-5.419-.018-8.128.012a3.016,3.016,0,0,0-2.112.344,31.239,31.239,0,0,1,6.341,37.883c-.667,1.26-.6,1.948.456,2.812a39.088,39.088,0,0,1,3.091,2.963c1.112,1.136,2.1,2.108,4.032,1.583,1.249-.339,2.589.47,3.616,1.473,5.221,5.1,10.494,10.139,15.681,15.27a4.71,4.71,0,0,1,.167,7.023q-2.726,3.01-5.643,5.844a4.775,4.775,0,0,1-7.043.092c-5.332-5.089-10.594-10.252-15.879-15.389a4.278,4.278,0,0,1-1.445-4.07,2.187,2.187,0,0,0-.889-2.495c-1.766-1.464-3.072-4.341-5.114-4.343-2,0-3.9,2.287-6.09,3.117-1.108.42-.752,1.358-.754,2.12-.021,8.127-.009,16.254-.015,24.381,0,3.209-.592,3.792-3.811,3.795-4.139,0-8.278.012-12.418,0-2.741-.009-3.338-.568-3.347-3.29-.024-7.6-.05-15.2.023-22.8.016-1.749-.151-2.9-2.242-3.328a34.532,34.532,0,0,1-5.6-2.215m-11.1-27.294a26.771,26.771,0,1,0,26.708-26.88,26.91,26.91,0,0,0-26.708,26.88m-3.853,34.77c0,5.942.041,11.885-.031,17.827-.016,1.344.26,1.853,1.714,1.769,2.325-.135,4.665-.1,6.994-.011,1.217.045,1.68-.24,1.672-1.578-.057-9.177-.028-18.354-.027-27.531a2.153,2.153,0,0,0-.538-1.862,31.625,31.625,0,0,1-6.281-7.618c-.722-1.208-1.912-.671-2.859-.616-1.2.07-.611,1.179-.616,1.792-.048,5.942-.028,11.885-.028,17.828m37.6,7.745c0-3.23-.074-6.462.033-9.688.05-1.5-.164-2.214-1.9-1.838a23.454,23.454,0,0,1-6.938.459c-1.051-.089-1.264.381-1.261,1.3.023,6.685.042,13.37-.013,20.054-.011,1.3.575,1.459,1.639,1.433,2.252-.055,4.513-.117,6.759.019,1.5.091,1.732-.539,1.7-1.825-.071-3.3-.023-6.609-.019-9.914m44.427-.066c-.21-.245-.386-.487-.6-.693q-7.422-7.211-14.841-14.426c-.681-.666-1.121-.443-1.665.133-1.441,1.528-2.891,3.047-4.382,4.525-.68.674-.692,1.133.031,1.827q7.308,7,14.532,14.094c.731.718,1.175.645,1.816-.046,1.428-1.538,2.914-3.023,4.37-4.536.259-.269.481-.571.738-.879m-61.282-72.613c2.106-.4,4.071-.859,6.062-1.128,1.151-.155,1.451-.624,1.444-1.738-.007-1.223-.631-1.34-1.566-1.3-.751.035-1.5.007-2.256.007-3.826,0-3.826,0-3.684,4.156m33.753,50.294c-.381.512-.712,1.007-1.094,1.46-.526.623,0,.917.357,1.264q1.763,1.718,3.535,3.426c.557.534.964,1.311,1.927.318.859-.885.764-1.4-.075-2.15-1.166-1.042-2.236-2.19-3.361-3.278-.311-.3-.675-.548-1.289-1.039" transform="translate(-64.648 -56.502)" fill="#060606"/>
    <path id="Path_609434" data-name="Path 609434" d="M.021,31.782A31.807,31.807,0,1,1,31.833,63.636,31.827,31.827,0,0,1,.021,31.782M29.53,18.99c0-3.912-.1-7.828.042-11.735.074-2.035-.434-2.929-2.557-2.279-.283.087-.6.065-.89.132A27.349,27.349,0,0,0,5.652,39.447c4.222,15.2,21.661,23.73,36.147,17.738,1.49-.616,1.73-1.1.857-2.512-2.489-4.019-4.529-8.347-7.284-12.165-4.694-6.5-6.946-13.491-5.853-21.489a14.98,14.98,0,0,0,.011-2.03M46.481,29.447v.026H52.8c6.889,0,7.047-.059,4.562-6.711C53.647,12.828,46.455,6.9,35.975,5c-1.36-.248-1.843.035-1.829,1.526.068,7.14.052,14.282,0,21.423-.008,1.17.31,1.552,1.51,1.528,3.607-.073,7.216-.026,10.825-.026M36.166,34.378l8.2,13.993c2.88,4.914,2.923,4.954,6.9.7A25.439,25.439,0,0,0,57.509,36.33c.155-.78.467-1.948-1.042-1.949-6.654-.007-13.309,0-20.3,0" transform="translate(-0.011 -0.014)" fill="#060606"/>
    <path id="Path_609435" data-name="Path 609435" d="M77.266,201.333q0,15.573,0,31.147c0,2.827-.576,3.392-3.445,3.4-4.289.011-8.578.018-12.867,0-2.536-.012-3.189-.664-3.19-3.207q-.013-31.373,0-62.745c0-2.786.469-3.237,3.345-3.249q6.433-.029,12.867,0c2.827.013,3.289.482,3.291,3.286q.01,15.686,0,31.373m-4.533.221V175.361c0-4.161,0-4.212-4.059-4.14-2.077.037-4.838-.932-6.033.426-1.023,1.163-.348,3.859-.349,5.876q-.018,25.855-.025,51.71c0,1.33-.055,2.317,1.812,2.148a36.17,36.17,0,0,1,6.092-.005c1.965.156,2.656-.336,2.622-2.5-.14-9.105-.059-18.214-.059-27.322" transform="translate(-31.654 -91.342)" fill="#060606"/>
    <path id="Path_609436" data-name="Path 609436" d="M19.485,223.862q0,12.192,0,24.384c0,3.183-.429,3.594-3.68,3.6q-6.1.008-12.194,0C.585,251.838,0,251.286,0,248.359Q0,223.749.005,199.14c0-2.752.582-3.337,3.268-3.347,3.989-.013,7.978,0,11.968,0,4.115,0,4.243.124,4.243,4.14q0,11.966,0,23.932M4.533,223.85c0,7.22.031,14.44-.028,21.66-.01,1.322.243,1.875,1.713,1.794,2.4-.132,4.813-.069,7.219-.019.975.02,1.488-.118,1.485-1.31q-.054-22.111,0-44.222c0-1.283-.537-1.477-1.614-1.452-2.331.055-4.669.122-6.993-.02-1.564-.1-1.829.512-1.817,1.909.063,7.22.029,14.44.029,21.66" transform="translate(0 -107.305)" fill="#060606"/>
    <path id="Path_609437" data-name="Path 609437" d="M237.235,106.565q10.254,0,20.508.009a8.783,8.783,0,0,1,2.228.211,1.917,1.917,0,0,1,1.4,2.064,1.879,1.879,0,0,1-1.3,1.919,7.582,7.582,0,0,1-2.214.282q-20.62.024-41.241.011c-.3,0-.6,0-.9-.012-1.487-.062-2.545-.815-2.51-2.3s1.117-2.184,2.616-2.182q6.986.01,13.972,0h7.437" transform="translate(-116.854 -58.404)" fill="#060606"/>
    <path id="Path_609438" data-name="Path 609438" d="M171.814,68.575c-1.875,0-3.753-.058-5.626.018-1.77.072-2.776-.741-2.806-2.442-.073-4.049-.055-8.1.009-12.149a2.19,2.19,0,0,1,2.486-2.3c3.976,0,7.952-.024,11.928.011a2.244,2.244,0,0,1,2.483,2.533c-.009,3.9,0,7.8,0,11.7a2.316,2.316,0,0,1-2.618,2.629c-1.951-.005-3.9,0-5.852,0m-.153-4.585c4.039,0,4.039,0,4.039-3.663,0-4.022,0-4.022-3.913-4.022-3.806,0-3.806,0-3.807,3.9,0,3.786,0,3.786,3.681,3.786" transform="translate(-89.519 -28.332)" fill="#060606"/>
    <path id="Path_609439" data-name="Path 609439" d="M180.285,8.387c0,1.951-.019,3.9,0,5.852.021,1.757-.832,2.686-2.569,2.7-3.9.032-7.8.014-11.705.015-1.622,0-2.609-.8-2.633-2.423-.061-4.05-.073-8.1,0-12.151.03-1.6,1.023-2.389,2.667-2.379,3.826.024,7.653,0,11.48.007,1.83,0,2.778.877,2.758,2.753s0,3.751,0,5.627m-4.516.16c0-4.017,0-4.017-3.905-4.017-4,0-4,0-4,3.94s0,3.953,4.034,3.953c3.867,0,3.867,0,3.867-3.876" transform="translate(-89.518 0)" fill="#060606"/>
    <path id="Path_609440" data-name="Path 609440" d="M237.51,7.68c-6.99,0-13.979-.021-20.968.016-1.65.009-3.268-.222-3.291-2.159-.024-2.025,1.606-2.4,3.359-2.393q20.743.03,41.485.005c1.532,0,2.927.221,3.277,2.017.3,1.543-.789,2.5-2.894,2.5-6.99.025-13.979.009-20.968.009" transform="translate(-116.877 -1.723)" fill="#060606"/>
    <path id="Path_609441" data-name="Path 609441" d="M237.436,54.9c6.915,0,13.83.014,20.744-.01,1.645-.006,3.189.229,3.191,2.247,0,1.995-1.51,2.294-3.172,2.291q-20.857-.024-41.715.008c-1.7,0-3.2-.382-3.214-2.278-.011-1.913,1.5-2.286,3.2-2.276,6.99.041,13.98.017,20.97.017" transform="translate(-116.887 -30.08)" fill="#060606"/>
    <path id="Path_609442" data-name="Path 609442" d="M226.372,28.631c-3.462,0-6.924-.042-10.385.018-1.645.028-2.748-.691-2.729-2.27s1.167-2.28,2.78-2.274q10.385.039,20.77,0c1.618,0,2.731.722,2.717,2.321s-1.14,2.252-2.769,2.221c-3.46-.065-6.923-.02-10.384-.02" transform="translate(-116.881 -13.212)" fill="#060606"/>
    <path id="Path_609443" data-name="Path 609443" d="M226.554,75.857c3.387,0,6.775.049,10.161-.021,1.622-.034,2.782.585,2.813,2.185.033,1.738-1.188,2.377-2.889,2.367q-10.274-.058-20.549,0c-1.612.009-2.79-.652-2.823-2.223-.036-1.724,1.189-2.363,2.9-2.328,3.461.071,6.925.021,10.387.021" transform="translate(-116.885 -41.563)" fill="#060606"/>
    <path id="Path_609444" data-name="Path 609444" d="M136.6,156.835a26.771,26.771,0,1,1,26.838,26.825A26.775,26.775,0,0,1,136.6,156.835m49.912.031a23.125,23.125,0,1,0-23.119,23.1,23.249,23.249,0,0,0,23.119-23.1" transform="translate(-74.868 -71.225)" fill="#e0860e"/>
    <path id="Path_609445" data-name="Path 609445" d="M127.942,242.374c0-5.942-.019-11.885.028-17.827,0-.614-.583-1.723.616-1.792.947-.055,2.137-.592,2.859.616a31.635,31.635,0,0,0,6.282,7.618,2.151,2.151,0,0,1,.537,1.862c0,9.177-.031,18.355.027,27.531.008,1.338-.455,1.622-1.672,1.578-2.329-.085-4.669-.124-6.994.011-1.454.085-1.731-.425-1.715-1.769.071-5.941.031-11.885.031-17.827" transform="translate(-70.06 -121.994)" fill="#f5f5f5"/>
    <path id="Path_609446" data-name="Path 609446" d="M199.041,269.407c0,3.3-.05,6.611.021,9.914.028,1.286-.2,1.916-1.7,1.825-2.245-.136-4.506-.075-6.759-.019-1.063.026-1.65-.131-1.639-1.433.055-6.684.035-13.369.013-20.054,0-.92.21-1.389,1.261-1.3a23.454,23.454,0,0,0,6.938-.459c1.739-.376,1.953.339,1.9,1.838-.107,3.226-.033,6.458-.035,9.688" transform="translate(-103.564 -141.283)" fill="#6060cc"/>
    <path id="Path_609447" data-name="Path 609447" d="M282.9,264.53c-.257.308-.48.611-.738.879-1.455,1.513-2.942,3-4.37,4.536-.641.691-1.085.763-1.815.045q-7.219-7.094-14.532-14.094c-.724-.693-.712-1.152-.031-1.826,1.491-1.477,2.941-3,4.381-4.525.544-.576.984-.8,1.665-.133q7.4,7.234,14.841,14.426c.212.206.389.448.6.693" transform="translate(-142.993 -136.472)" fill="#c75434"/>
    <path id="Path_609448" data-name="Path 609448" d="M173.924,117.63c-.142-4.156-.142-4.156,3.684-4.156.752,0,1.505.028,2.256-.007.935-.043,1.559.074,1.566,1.3.006,1.114-.293,1.583-1.444,1.738-1.99.268-3.956.725-6.062,1.128" transform="translate(-95.3 -62.184)" fill="#8383dd"/>
    <path id="Path_609449" data-name="Path 609449" d="M247.065,233.975c.614.491.978.738,1.289,1.039,1.125,1.088,2.2,2.236,3.361,3.278.84.751.934,1.265.075,2.15-.963.993-1.37.216-1.927-.318q-1.776-1.7-3.535-3.426c-.356-.348-.884-.641-.357-1.264.381-.453.713-.948,1.094-1.46" transform="translate(-134.689 -128.235)" fill="#9dc7fb"/>
    <g id="Group_1072273" data-name="Group 1072273" transform="translate(4.585 4.753)" style="isolation: isolate">
      <g id="Group_1072272" data-name="Group 1072272">
        <g id="Group_1072271" data-name="Group 1072271" clip-path="url(#clip-path-2)">
          <path id="Path_609450" data-name="Path 609450" d="M35.08,24.74a15.047,15.047,0,0,1-.012,2.03c-1.093,8,1.159,14.986,5.853,21.489,2.755,3.817,4.8,8.145,7.284,12.165.873,1.41.633,1.9-.857,2.512C32.862,68.928,15.423,60.4,11.2,45.2A27.349,27.349,0,0,1,31.673,10.858c.291-.067.606-.046.89-.132,2.124-.65,2.632.243,2.557,2.279-.142,3.907-.042,7.823-.041,11.736" transform="translate(-10.146 -10.517)" fill="#e1bf67"/>
        </g>
      </g>
    </g>
    <path id="Path_609451" data-name="Path 609451" d="M87.865,35.379c-3.609,0-7.218-.047-10.826.027-1.2.024-1.518-.358-1.509-1.528.051-7.141.067-14.283,0-21.423-.014-1.49.469-1.773,1.829-1.526,10.48,1.9,17.672,7.831,21.384,17.766,2.485,6.652,2.327,6.711-4.562,6.711H87.865v-.026" transform="translate(-41.395 -5.946)" fill="#f5f5f5"/>
    <g id="Group_1072276" data-name="Group 1072276" transform="translate(36.155 34.363)" style="isolation: isolate">
      <g id="Group_1072275" data-name="Group 1072275">
        <g id="Group_1072274" data-name="Group 1072274" clip-path="url(#clip-path-3)">
          <path id="Path_609452" data-name="Path 609452" d="M80,76.038c6.992,0,13.647,0,20.3,0,1.509,0,1.2,1.17,1.042,1.949A25.439,25.439,0,0,1,95.1,90.734c-3.975,4.25-4.018,4.21-6.9-.7L80,76.038" transform="translate(-80.001 -76.036)" fill="#272e41"/>
        </g>
      </g>
    </g>
    <path id="Path_609453" data-name="Path 609453" d="M77.971,206.721c0,9.108-.081,18.216.059,27.322.033,2.164-.657,2.656-2.622,2.5a36.17,36.17,0,0,0-6.092.005c-1.866.168-1.814-.818-1.812-2.148q.042-25.855.025-51.71c0-2.018-.674-4.714.349-5.876,1.194-1.358,3.956-.389,6.033-.426,4.058-.072,4.059-.021,4.059,4.14Z" transform="translate(-36.892 -96.508)" fill="#8383dd"/>
    <path id="Path_609454" data-name="Path 609454" d="M9.995,229.288c0-7.22.033-14.44-.029-21.66-.012-1.4.253-2,1.817-1.909,2.323.141,4.663.075,6.993.02,1.077-.026,1.617.169,1.614,1.452q-.062,22.111,0,44.222c0,1.191-.51,1.33-1.485,1.31-2.406-.049-4.819-.113-7.219.019-1.47.081-1.724-.472-1.713-1.794.058-7.22.028-14.44.028-21.66" transform="translate(-5.462 -112.744)" fill="#9898ea"/>
    <path id="Path_609455" data-name="Path 609455" d="M177.3,69.583c-3.681,0-3.681,0-3.681-3.786,0-3.9,0-3.9,3.807-3.9,3.913,0,3.913,0,3.913,4.022,0,3.663,0,3.663-4.039,3.663" transform="translate(-95.154 -33.925)" fill="#f5f5f5"/>
    <path id="Path_609456" data-name="Path 609456" d="M181.268,14.041c0,3.876,0,3.876-3.867,3.876-4.034,0-4.034,0-4.034-3.953s0-3.94,4-3.94c3.905,0,3.905,0,3.905,4.017" transform="translate(-95.018 -5.494)" fill="#6060cc"/>
    <path id="Path_609457" data-name="Path 609457" d="M190.955,161.262a23.126,23.126,0,1,1-23.145-23.285,23.3,23.3,0,0,1,23.145,23.285m-41.668.008a18.567,18.567,0,1,0,18.5-18.768,18.621,18.621,0,0,0-18.5,18.768" transform="translate(-79.309 -75.621)" fill="#060606"/>
  </g>
</svg>
