<svg xmlns="http://www.w3.org/2000/svg" xmlns:xlink="http://www.w3.org/1999/xlink" width="190" height="164" viewBox="0 0 190 164">
  <defs>
    <clipPath id="clip-path">
      <rect id="Rectangle_377773" data-name="Rectangle 377773" width="190" height="164" transform="translate(0 -4)" fill="#fff" stroke="#707070" stroke-width="1"/>
    </clipPath>
    <clipPath id="clip-path-2">
      <rect id="Rectangle_377772" data-name="Rectangle 377772" width="139.587" height="138.129" fill="none"/>
    </clipPath>
  </defs>
  <g id="Group_1072470" data-name="Group 1072470" transform="translate(0 4)">
    <g id="Mask_Group_154289" data-name="Mask Group 154289" clip-path="url(#clip-path)">
      <g id="Group_1072472" data-name="Group 1072472" transform="translate(25 9)">
        <g id="Group_1072471" data-name="Group 1072471" clip-path="url(#clip-path-2)">
          <path id="Path_609981" data-name="Path 609981" d="M11.765,83.9a39,39,0,0,1,.008-15.272A9.131,9.131,0,0,1,5.415,65.9C2.426,62.6,2.3,51.118,5.265,47.762A7.554,7.554,0,0,1,11.17,45c5.813.018,11.626-.041,17.438.035,1.431.019,1.856-.376,1.839-1.827-.075-6.683-.048-13.367-.028-20.051.016-5.351,2.828-8.2,8.146-8.253q5.776-.056,11.553,0c5.274.048,8.169,2.952,8.2,8.269.037,6.611.069,13.223-.032,19.833-.025,1.653.427,2.072,2.058,2.038,5.229-.11,10.462-.071,15.694-.029A7.615,7.615,0,0,1,83.9,52.17c.2,3.735.7,7.539-.5,11.229-.256.791.02,1.02.784,1.06a7.645,7.645,0,0,1,4.931,2c.6.558,1.192.26,1.829.135,10.965-2.133,21.288-.46,30.518,5.907C135.5,82.2,141.7,95.863,138.95,112.578c-2.777,16.9-13.208,27.9-29.753,32.534a38.01,38.01,0,0,1-26.344-2.219c-1.188-.533-1.81-.582-2.665.576-1.624,2.2-4.023,2.934-6.715,2.916-5.159-.034-10.318-.01-15.477-.01q-23.542,0-47.084,0c-6.6,0-9.581-2.985-9.585-9.557,0-1.816-.017-3.633,0-5.449a8.02,8.02,0,0,1,4.1-7.409c.86-.49,1.1-.795.768-1.931a27.752,27.752,0,0,1-.171-13.3c.21-1.056.21-1.427-.89-1.867a7.721,7.721,0,0,1-5.116-7.6c-.04-2.324-.031-4.65,0-6.974C.082,87.3,3.4,83.973,8.345,83.9c1.15-.017,2.3,0,3.421,0m55.489-2.591A46.036,46.036,0,0,1,83.4,68.729c-4.083-.178-8.064-.163-12.045-.191a1.732,1.732,0,0,0-1.747.969c-2.1,3.784-4.255,7.542-6.39,11.31a10.013,10.013,0,0,0-1.668,2.916c2.563.512,4.713.357,5.7-2.424m-49.361-24.5a11.754,11.754,0,0,1,11.013-5.154c1.05.067,1.573-.167,1.55-1.4-.022-1.179-.609-1.248-1.5-1.234-3.252.05-6.5.061-9.756.087-2.538-.024-5.078-.117-7.615-.054-2.7.066-4.067,1.537-4.13,4.272-.029,1.233.059,2.472-.016,3.7-.5,8.132,2.353,7.412,7.806,7.386.072,0,.146-.007.218,0,.82.08,1.215-.215,1.092-1.107a12.223,12.223,0,0,1,1.342-6.5M72.282,61.64c-.323,2.811-.323,2.812,2.39,2.791.433,0,.868.006,1.3-.03,2.468-.205,3.637-1.454,3.807-4.045.027-2.322.092-4.644.069-6.966-.029-2.846-1.44-4.314-4.277-4.342-5.229-.052-10.459,0-15.689-.033-1.02-.007-1.582.109-1.593,1.374-.012,1.393.783,1.241,1.674,1.262,7.386.179,10.65,2.833,12.319,9.988M86.3,139.772c.328.512.885.4,1.365.5a33.408,33.408,0,0,0,18.367,1.4,36.216,36.216,0,0,0,10.236-67.571c-9-4.706-18.4-5.726-28.128-2.4l-.608.178-.025-.016a6.775,6.775,0,0,0-.842.2,36.2,36.2,0,0,0-21.25,46.95A34.757,34.757,0,0,0,86.318,139.8ZM51.028,100.418c-4.856,3.253-8.788,3.147-13.916-.376-2.665-3.249-4.385-7.082-6.564-10.63-.439-.715-.7-1.526-1.852-1.5-4.323.1-8.647.1-12.971.142-2.461-.039-4.924-.161-7.382-.1a4.071,4.071,0,0,0-4.279,4.25c-.082,1.809-.021,3.624-.019,5.436,0,4.482,1.229,5.736,5.626,5.736,15.66,0,31.32-.04,46.98.051,2.044.012,2.774-.614,2.515-2.551a45.084,45.084,0,0,1,3.284-11.446c.23-.523.955-1.326-.19-1.439-1.644-.162-3.226-.449-4.38,1.663-2.033,3.723-3.726,7.714-6.852,10.759m-29.651,7.133c-2.6-.027-5.2-.116-7.8-.062a3.757,3.757,0,0,0-3.937,3.969q-.091,3.685,0,7.373a3.7,3.7,0,0,0,3.928,3.935c2.457.049,4.918.065,7.374-.005a2.277,2.277,0,1,1,.005,4.277c-1.3-.049-2.609.041-3.914.069-2.467-.027-4.934-.1-7.4-.069-2.618.03-4.02,1.385-4.113,4.012-.079,2.248-.057,4.5-.015,6.752.057,3.055,1.535,4.525,4.568,4.526q31.7.015,63.4.018a4.673,4.673,0,0,0,2.873-.787c1.342-.969,1.41-1.778-.309-2.348-3.914-3.133-7.63-6.472-10.312-10.768a2.819,2.819,0,0,0-2.8-1.455c-10.519.058-21.039.018-31.558.048-1.665,0-3.056-.238-3.472-2.154.394-1.778,1.646-2.124,3.263-2.119,9.625.033,19.25.018,28.875.012.746,0,1.492-.061,2.4-.1l-1.11-2.639a43.254,43.254,0,0,1-2.337-11.2c-.06-.953-.25-1.4-1.352-1.394-12.084.066-24.168.081-36.252.11m32.765-69.67q0-7.3,0-14.6c-.007-3.2-1.128-4.355-4.257-4.364q-5.229-.016-10.458.018c-4.033.031-4.895.931-4.9,5.048q0,14.379-.007,28.757c0,2.434-.684,3.11-3.064,3.157a22.774,22.774,0,0,1-3.7,0c-4.924-.721-9.122,4.9-5.969,10.19,5.718,9.59,11.166,19.341,16.8,28.981C41.46,99.981,47.209,99.9,50.154,95c1.268-2.114,2.476-4.263,3.71-6.4C58.217,81.067,62.592,73.547,66.914,66c2.84-4.962,0-10.02-5.614-10.087-1.38-.016-2.76.015-4.14-.01-2.3-.042-3-.714-3.009-2.986-.022-5.01-.007-10.021-.009-15.032M27.349,83.9c-2.755-4.77-5.311-9.2-7.87-13.625-1.087-1.88-2.139-1.933-3.465-.177a3.909,3.909,0,0,0-.791,2.435c0,2.394-.046,4.79.013,7.183.065,2.664,1.549,4.118,4.245,4.174,2.464.051,4.931.011,7.869.011" transform="translate(0 -8.386)" fill="#060503"/>
          <path id="Path_609982" data-name="Path 609982" d="M219.821,35.4c.015,4.269-7.866,10.991-12.068,10.293a6.413,6.413,0,0,1-4.1-10.208c1.329-1.719,2.8-3.33,4.268-4.938a6.133,6.133,0,0,1,7.072-1.857c2.558,1.014,4.823,4.161,4.832,6.71m-13.372,4.242a2.406,2.406,0,0,0,1.389,1.8,1.952,1.952,0,0,0,2.41-.325c1.537-1.327,3.078-2.65,4.578-4.017,1.435-1.307.976-2.485-.244-3.7-1.271-1.263-2.453-1.462-3.7-.048s-2.462,2.857-3.715,4.266a2.623,2.623,0,0,0-.722,2.02" transform="translate(-114.052 -15.917)" fill="#060503"/>
          <path id="Path_609983" data-name="Path 609983" d="M246.731,86.241a5.748,5.748,0,0,1-4.192,5.7,62.209,62.209,0,0,1-7.877,1.55c-3,.378-5.408-1.553-6.349-4.755-.873-2.97.172-5.919,2.909-7.153a38.933,38.933,0,0,1,7.765-2.682c4.409-.942,7.769,2.391,7.744,7.337M234.78,89.421c1.956-.4,4.248-.736,6.461-1.354,1.649-.46,1.47-1.844,1.142-3.206-.334-1.388-1.081-2.373-2.544-1.989a65.269,65.269,0,0,0-6.536,2.206,1.906,1.906,0,0,0-1.113,2.5,2.211,2.211,0,0,0,2.591,1.842" transform="translate(-128.531 -44.389)" fill="#060503"/>
          <path id="Path_609984" data-name="Path 609984" d="M164.65,18.683A6.348,6.348,0,0,1,158.3,10.73c.4-1.838.705-3.7,1.054-5.549.761-4.035,4.085-5.97,8.382-4.881,4.15,1.052,6.062,4.26,4.812,8.168-.7,2.2-1.414,4.41-2.277,6.552-.966,2.4-2.945,3.472-5.625,3.664m-2.431-6.706A2.063,2.063,0,0,0,164,14.441,2.052,2.052,0,0,0,166.729,13c.647-1.908,1.32-3.807,1.955-5.719.628-1.893-.494-2.563-2.06-3.066-1.638-.526-2.761-.093-3.172,1.548-.507,2.024-.822,4.1-1.233,6.217" transform="translate(-89.139 0)" fill="#060503"/>
          <path id="Path_609985" data-name="Path 609985" d="M80.886,43.1c0,5.011-.014,10.021.008,15.032.01,2.271.709,2.943,3.009,2.986,1.38.025,2.76-.007,4.14.01,5.615.066,8.454,5.125,5.614,10.087-4.322,7.551-8.7,15.072-13.05,22.6-1.233,2.134-2.442,4.284-3.71,6.4-2.945,4.907-8.694,4.982-11.562.076C59.7,90.654,54.251,80.9,48.533,71.313,45.379,66.024,49.578,60.4,54.5,61.123a22.823,22.823,0,0,0,3.7,0c2.38-.046,3.061-.723,3.064-3.157q.02-14.379.007-28.757c0-4.116.863-5.018,4.9-5.048q5.229-.039,10.458-.018c3.129.009,4.25,1.163,4.256,4.364q.014,7.3,0,14.6" transform="translate(-26.743 -13.605)" fill="#dc626d"/>
          <path id="Path_609986" data-name="Path 609986" d="M175.156,142.623c9.728-3.329,19.128-2.31,28.128,2.4a36.217,36.217,0,0,1-10.236,67.571,33.4,33.4,0,0,1-18.367-1.4c-.273-.66-.822-.572-1.365-.5l.023.026c.069-1.048-.864-1.294-1.479-1.684a35.123,35.123,0,0,1-9.661-8.975c-8.31-11.381-9.964-23.759-5.146-36.951,3.058-8.371,8.894-14.48,16.323-19.186.458-.291,1.168-.345,1.147-1.129l.025.017.608-.179m27.794,14.211a2.778,2.778,0,0,0-1.465-3.267,28.1,28.1,0,0,0-30.787.247c-9.207,6.171-14.063,17.663-11.92,28.21a27.965,27.965,0,0,0,34.687,21.926c18.549-4.642,26.862-27.9,15.481-43.237-1.035-1.394-2.113-1.891-3.681-1.044l-2.316-2.835" transform="translate(-87.02 -79.298)" fill="#ede24b"/>
          <path id="Path_609987" data-name="Path 609987" d="M37.255,269.235c1.3-.028,2.613-.118,3.915-.069a2.685,2.685,0,0,0,3.055-2.158l3.891,0c.415,1.917,1.806,2.159,3.472,2.155,10.519-.03,21.039.01,31.558-.048a2.819,2.819,0,0,1,2.8,1.455c2.681,4.3,6.4,7.634,10.312,10.768a5.328,5.328,0,0,1-2.956.494q-27.2,0-54.394,0c-.58,0-1.161.008-1.739-.036-.651-.05-1.18-.41-1.15-1.074.17-3.853-.946-7.851,1.238-11.486" transform="translate(-20.226 -150.514)" fill="#ede24b"/>
          <path id="Path_609988" data-name="Path 609988" d="M47.284,227.149c12.084-.029,24.168-.044,36.252-.11,1.1-.006,1.292.441,1.352,1.394a43.254,43.254,0,0,0,2.337,11.2c-13.117.016-26.234.008-39.35.08-1.608.009-1.968-.62-1.911-2.055.088-2.243.087-4.494,0-6.737a5.022,5.022,0,0,1,1.319-3.773" transform="translate(-25.906 -127.984)" fill="#ede24b"/>
          <path id="Path_609989" data-name="Path 609989" d="M24.087,272.015c-2.184,3.636-1.068,7.633-1.238,11.486-.03.664.5,1.024,1.15,1.074.577.044,1.159.036,1.739.036q27.2,0,54.394,0a5.328,5.328,0,0,0,2.956-.494c1.719.57,1.651,1.379.309,2.348a4.669,4.669,0,0,1-2.873.787q-31.7-.025-63.4-.017c-3.033,0-4.51-1.471-4.568-4.527-.042-2.25-.064-4.5.015-6.752.092-2.628,1.494-3.982,4.113-4.013,2.466-.028,4.934.042,7.4.068" transform="translate(-7.058 -153.294)" fill="#fcbf4f"/>
          <path id="Path_609990" data-name="Path 609990" d="M33.771,227.188a5.022,5.022,0,0,0-1.319,3.773c.086,2.243.086,4.494,0,6.737-.056,1.434.3,2.063,1.911,2.055,13.116-.072,26.233-.064,39.35-.08l1.11,2.639c-.907.04-1.653.1-2.4.1-9.625.007-19.25.021-28.875-.012-1.618-.005-2.87.341-3.263,2.119l-3.891,0a2.69,2.69,0,0,0-3.061-2.119c-2.456.07-4.917.055-7.374.005a3.7,3.7,0,0,1-3.928-3.935q-.087-3.685,0-7.373a3.757,3.757,0,0,1,3.937-3.969c2.6-.054,5.2.035,7.8.062" transform="translate(-12.394 -128.023)" fill="#fcbf4f"/>
          <path id="Path_609991" data-name="Path 609991" d="M42.307,194.445c5.128,3.522,9.06,3.628,13.916.375,2.663,1.02,5.43.216,8.137.463.26,1.937-.471,2.563-2.515,2.551-15.659-.091-31.32-.049-46.98-.051-4.4,0-5.622-1.254-5.626-5.736,0-1.812-.063-3.627.019-5.436a4.071,4.071,0,0,1,4.279-4.25c2.458-.066,4.921.055,7.382.095-1.865,3.217-1.144,6.762-1.335,10.2-.092,1.666.377,2.288,2.167,2.257,6.166-.106,12.335-.035,18.5-.049.7,0,1.47.212,2.052-.42" transform="translate(-5.195 -102.787)" fill="#fcbf4f"/>
          <path id="Path_609992" data-name="Path 609992" d="M168.849,145.514c.021.784-.689.839-1.148,1.129-7.428,4.706-13.265,10.815-16.322,19.186-4.818,13.191-3.164,25.569,5.146,36.951a35.122,35.122,0,0,0,9.661,8.975c.615.39,1.548.637,1.479,1.684a34.758,34.758,0,0,1-20.909-20.779,36.2,36.2,0,0,1,21.25-46.95,6.861,6.861,0,0,1,.843-.2" transform="translate(-81.346 -82.027)" fill="#fcbf4f"/>
          <path id="Path_609993" data-name="Path 609993" d="M55.689,194.408c-.582.631-1.351.418-2.052.42-6.168.014-12.338-.058-18.5.049-1.79.031-2.26-.591-2.167-2.257.191-3.438-.53-6.983,1.335-10.2,4.324-.04,8.649-.046,12.971-.142,1.153-.025,1.413.785,1.852,1.5,2.18,3.549,3.9,7.382,6.564,10.631" transform="translate(-18.577 -102.75)" fill="#ede24b"/>
          <path id="Path_609994" data-name="Path 609994" d="M147.595,105.748c-1.669-7.155-4.932-9.809-12.318-9.988-.891-.021-1.686.13-1.674-1.262.011-1.265.573-1.381,1.593-1.374,5.229.036,10.46-.019,15.689.032,2.837.028,4.248,1.5,4.277,4.342.024,2.322-.042,4.643-.069,6.965-2.25,1.883-4.944,1.172-7.5,1.285" transform="translate(-75.312 -52.494)" fill="#ede24b"/>
          <path id="Path_609995" data-name="Path 609995" d="M27.429,100.94a12.218,12.218,0,0,0-1.342,6.5c.122.893-.273,1.187-1.093,1.108a2.132,2.132,0,0,0-.218,0c-5.453.026-8.3.746-7.806-7.386.075-1.229-.013-2.467.016-3.7.064-2.735,1.429-4.206,4.13-4.273,2.536-.062,5.076.03,7.615.054-1.973,2.305-1.1,5.092-1.3,7.7" transform="translate(-9.535 -52.519)" fill="#fcbf4f"/>
          <path id="Path_609996" data-name="Path 609996" d="M47,153.589c-2.938,0-5.4.04-7.869-.011-2.7-.055-4.18-1.51-4.245-4.174-.059-2.393-.008-4.788-.013-7.183a3.909,3.909,0,0,1,.791-2.435c1.326-1.756,2.377-1.7,3.465.177,2.559,4.427,5.116,8.855,7.87,13.625" transform="translate(-19.649 -78.079)" fill="#fcbf4f"/>
          <path id="Path_609997" data-name="Path 609997" d="M144.9,150.148c2.134-3.767,4.285-7.526,6.39-11.31a1.732,1.732,0,0,1,1.747-.969c3.981.028,7.962.013,12.045.191a46.036,46.036,0,0,0-16.148,12.579c-1.333-.256-2.781.421-4.034-.492" transform="translate(-81.683 -77.718)" fill="#ede24b"/>
          <path id="Path_609998" data-name="Path 609998" d="M125.1,195.212c-2.707-.247-5.474.557-8.137-.463,3.126-3.045,4.819-7.036,6.852-10.759,1.153-2.112,2.736-1.824,4.38-1.663,1.145.113.42.916.19,1.439a45.1,45.1,0,0,0-3.284,11.446" transform="translate(-65.93 -102.716)" fill="#ede24b"/>
          <path id="Path_609999" data-name="Path 609999" d="M40.983,100.923c.2-2.605-.67-5.392,1.3-7.7,3.252-.026,6.5-.037,9.755-.087.9-.014,1.482.056,1.5,1.234.024,1.23-.5,1.463-1.55,1.4a11.754,11.754,0,0,0-11.013,5.154" transform="translate(-23.089 -52.502)" fill="#ede24b"/>
          <path id="Path_610000" data-name="Path 610000" d="M165.487,120.4c2.553-.113,5.247.6,7.5-1.285-.17,2.591-1.339,3.839-3.807,4.045-.431.036-.866.027-1.3.03-2.713.022-2.713.021-2.39-2.79" transform="translate(-93.205 -67.146)" fill="#fcbf4f"/>
          <path id="Path_610001" data-name="Path 610001" d="M142.749,166.012c1.253.914,2.7.236,4.034.492-.989,2.781-3.139,2.936-5.7,2.424a10.013,10.013,0,0,1,1.668-2.916" transform="translate(-79.528 -93.582)" fill="#fcbf4f"/>
          <path id="Path_610002" data-name="Path 610002" d="M197.793,301.081c.542-.068,1.091-.156,1.365.5-.479-.1-1.037.008-1.365-.5" transform="translate(-111.497 -169.695)" fill="#fcbf4f"/>
          <path id="Path_610003" data-name="Path 610003" d="M201.225,145.143l-.608.179.608-.179" transform="translate(-113.089 -81.818)" fill="#fcbf4f"/>
          <path id="Path_610004" data-name="Path 610004" d="M211.774,44.988a2.623,2.623,0,0,1,.722-2.02c1.254-1.408,2.47-2.85,3.715-4.266s2.425-1.215,3.7.048c1.22,1.213,1.678,2.391.244,3.7-1.5,1.367-3.041,2.69-4.578,4.017a1.952,1.952,0,0,1-2.41.325,2.406,2.406,0,0,1-1.389-1.8" transform="translate(-119.377 -21.263)" fill="#efec8e"/>
          <path id="Path_610005" data-name="Path 610005" d="M240.054,94.647a2.211,2.211,0,0,1-2.591-1.842,1.906,1.906,0,0,1,1.113-2.5,65.269,65.269,0,0,1,6.536-2.206c1.464-.384,2.21.6,2.544,1.989.328,1.362.507,2.746-1.142,3.206-2.213.618-4.505.957-6.461,1.354" transform="translate(-133.806 -49.614)" fill="#efec8e"/>
          <path id="Path_610006" data-name="Path 610006" d="M167.468,17.147c.411-2.122.727-4.194,1.233-6.217.411-1.64,1.534-2.074,3.172-1.548,1.566.5,2.688,1.173,2.06,3.066-.635,1.912-1.308,3.811-1.955,5.719a2.335,2.335,0,0,1-4.51-1.02" transform="translate(-94.388 -5.17)" fill="#efec8e"/>
          <path id="Path_610007" data-name="Path 610007" d="M213.35,173l2.316,2.835c-.765,1.3-.445,2.373.4,3.588a23.37,23.37,0,0,1,3.986,17.951,23.878,23.878,0,0,1-29.137,18.917c-12.82-3.011-20.871-16.821-17.2-29.5a23.741,23.741,0,0,1,35.618-13.754c1.437.886,2.689,1.445,4.017-.038m-18.981,25.832v.653c0,5.955-.014,5.989-5.687,3.652-1.348-.555-2.306-.287-2.9.921-.576,1.17-.037,2.1,1.043,2.728a15.34,15.34,0,0,0,6.154,1.991c1.116.117,1.468.491,1.418,1.588-.064,1.382.453,2.474,2.075,2.458,1.637-.016,2.089-1.2,2.037-2.521-.05-1.27.391-1.66,1.63-1.97a9.963,9.963,0,0,0,7.574-8.32c.326-3.463-1.348-7.037-4.993-8.037-4.061-1.114-4.47-3.411-4.236-6.88.263-3.885.063-3.906,3.78-2.347a2.047,2.047,0,1,0,1.945-3.6,10.185,10.185,0,0,0-3.571-1.529c-1.31-.26-2.251-.526-2.194-2.242a1.823,1.823,0,0,0-2.16-1.9,1.766,1.766,0,0,0-1.847,1.984c.158,1.654-.73,2-2.028,2.414a7.868,7.868,0,0,0-5.859,7.088c-.288,3.06,1.181,5.664,4.025,6.543,3.688,1.14,4.239,3.482,3.8,6.676a4.789,4.789,0,0,0,0,.653" transform="translate(-97.421 -95.461)" fill="#fcbf4f"/>
          <path id="Path_610008" data-name="Path 610008" d="M207.994,167.719c-1.329,1.483-2.581.924-4.017.038a23.741,23.741,0,0,0-35.618,13.754c-3.674,12.679,4.376,26.489,17.2,29.5a23.878,23.878,0,0,0,29.137-18.917,23.368,23.368,0,0,0-3.986-17.951c-.841-1.215-1.161-2.291-.4-3.588,1.568-.847,2.645-.35,3.681,1.044,11.381,15.332,3.068,38.595-15.481,43.237a27.965,27.965,0,0,1-34.687-21.926c-2.143-10.547,2.712-22.039,11.92-28.21a28.1,28.1,0,0,1,30.787-.247,2.778,2.778,0,0,1,1.465,3.267" transform="translate(-92.064 -90.183)" fill="#060503"/>
          <path id="Path_610009" data-name="Path 610009" d="M210.81,204.15a4.789,4.789,0,0,1,0-.653c.441-3.194-.111-5.537-3.8-6.676-2.843-.879-4.312-3.483-4.025-6.543a7.867,7.867,0,0,1,5.859-7.088c1.3-.417,2.186-.76,2.028-2.414a1.766,1.766,0,0,1,1.847-1.984,1.823,1.823,0,0,1,2.16,1.9c-.057,1.716.884,1.982,2.194,2.242a10.185,10.185,0,0,1,3.571,1.529,2.047,2.047,0,1,1-1.945,3.6c-3.716-1.559-3.517-1.538-3.78,2.347-.235,3.469.174,5.766,4.236,6.88,3.644,1,5.318,4.573,4.993,8.037a9.963,9.963,0,0,1-7.574,8.32c-1.24.31-1.681.7-1.63,1.97.052,1.32-.4,2.505-2.037,2.521-1.622.016-2.139-1.076-2.075-2.458.051-1.1-.3-1.471-1.418-1.588a15.345,15.345,0,0,1-6.154-1.991c-1.079-.627-1.619-1.558-1.043-2.728.594-1.209,1.553-1.477,2.9-.921,5.674,2.337,5.688,2.3,5.688-3.652Zm4.176,5.534a5.564,5.564,0,0,0,5.02-5.753c-.329-2.066-1.955-2.875-3.685-3.554-1.107-.435-1.367.007-1.349,1.059.045,2.734.015,5.47.015,8.247m-4.179-15.554c0-2.182-.024-4.128.009-6.074.02-1.178-.542-1.175-1.352-.746a3.667,3.667,0,0,0-2.291,3.627c.138,2.159,1.947,2.387,3.633,3.193" transform="translate(-113.861 -100.782)" fill="#060503"/>
          <path id="Path_610010" data-name="Path 610010" d="M231.759,237.367c0-2.777.03-5.513-.015-8.247-.017-1.052.242-1.494,1.349-1.059,1.73.679,3.356,1.489,3.685,3.554a5.564,5.564,0,0,1-5.02,5.753" transform="translate(-130.635 -128.465)" fill="#fcbf4f"/>
          <path id="Path_610011" data-name="Path 610011" d="M217.495,204.805c-1.687-.805-3.5-1.034-3.633-3.193a3.667,3.667,0,0,1,2.291-3.627c.81-.429,1.372-.432,1.352.746-.033,1.945-.009,3.891-.009,6.074" transform="translate(-120.55 -111.457)" fill="#fcbf4f"/>
        </g>
      </g>
    </g>
  </g>
</svg>
