<svg xmlns="http://www.w3.org/2000/svg" xmlns:xlink="http://www.w3.org/1999/xlink" width="295" height="217" viewBox="0 0 295 217">
  <defs>
    <clipPath id="clip-path">
      <rect id="Rectangle_377781" data-name="Rectangle 377781" width="295" height="217" transform="translate(180 14924.744)" fill="#fff" stroke="#707070" stroke-width="1"/>
    </clipPath>
  </defs>
  <g id="Mask_Group_154290" data-name="Mask Group 154290" transform="translate(-180 -14924.744)" clip-path="url(#clip-path)">
    <g id="Group_1072481" data-name="Group 1072481" transform="translate(33 -100.426)">
      <path id="Path_610058" data-name="Path 610058" d="M190.621,280.77c-2.14,125.285-188.5,125.266-190.621,0,2.14-125.281,188.5-125.262,190.621,0" transform="translate(227.252 14851.315)" fill="#0c5e46"/>
      <path id="Path_610059" data-name="Path 610059" d="M127.436,603.344H103.05V554.817a3.979,3.979,0,0,1,3.979-3.979h16.427a3.979,3.979,0,0,1,3.979,3.979Z" transform="translate(156.928 14602.896)" fill="#c59ef8"/>
      <path id="Path_610060" data-name="Path 610060" d="M122.475,598.277c-.006,6.355-3.788,6.355-3.793,0s3.788-6.355,3.793,0" transform="translate(146.261 14573.775)" fill="#dbc2fb"/>
      <path id="Path_610061" data-name="Path 610061" d="M106.369,557.662a3.979,3.979,0,0,1,3.979-3.979h16.427a3.974,3.974,0,0,1,.5.035,3.979,3.979,0,0,0-3.822-2.88H107.029a3.979,3.979,0,0,0-3.979,3.979v48.526h3.319Z" transform="translate(156.928 14602.896)" fill="#dbc2fb"/>
      <path id="Path_610062" data-name="Path 610062" d="M124.629,601.843H100.243a1.306,1.306,0,0,1-1.306-1.306V552.011a5.291,5.291,0,0,1,5.285-5.286H120.65a5.291,5.291,0,0,1,5.285,5.286v48.526a1.306,1.306,0,0,1-1.306,1.306m-23.08-2.612h21.774v-47.22a2.676,2.676,0,0,0-2.673-2.673H104.222a2.676,2.676,0,0,0-2.673,2.673Z" transform="translate(159.736 14605.703)" fill="#2e0f07"/>
      <path id="Path_610063" data-name="Path 610063" d="M258.085,558.045H233.7V488.437a3.979,3.979,0,0,1,3.979-3.979h16.427a3.98,3.98,0,0,1,3.98,3.979Z" transform="translate(67.771 14648.195)" fill="#5fc4ec"/>
      <path id="Path_610064" data-name="Path 610064" d="M253.124,531.9c-.006,6.355-3.788,6.355-3.793,0s3.788-6.355,3.793,0" transform="translate(57.104 14619.074)" fill="#9bdaf3"/>
      <path id="Path_610065" data-name="Path 610065" d="M237.017,491.282A3.979,3.979,0,0,1,241,487.3h16.427a3.979,3.979,0,0,1,.5.035,3.979,3.979,0,0,0-3.822-2.88H237.677a3.979,3.979,0,0,0-3.979,3.979v69.607h3.319Z" transform="translate(67.772 14648.195)" fill="#9bdaf3"/>
      <path id="Path_610066" data-name="Path 610066" d="M255.277,556.544H230.891a1.306,1.306,0,0,1-1.306-1.306V485.631a5.292,5.292,0,0,1,5.285-5.286H251.3a5.292,5.292,0,0,1,5.286,5.286v69.607a1.306,1.306,0,0,1-1.306,1.306m-23.08-2.612h21.774v-68.3a2.676,2.676,0,0,0-2.673-2.673H234.87a2.676,2.676,0,0,0-2.673,2.673Z" transform="translate(70.578 14651.003)" fill="#2e0f07"/>
      <path id="Path_610067" data-name="Path 610067" d="M379.028,525.1H354.642V440.16a3.979,3.979,0,0,1,3.979-3.979h16.427a3.979,3.979,0,0,1,3.979,3.979Z" transform="translate(-14.763 14681.141)" fill="#fbc864"/>
      <path id="Path_610068" data-name="Path 610068" d="M374.067,483.621c-.006,6.356-3.788,6.355-3.793,0s3.788-6.355,3.793,0" transform="translate(-25.43 14652.02)" fill="#fcdd9e"/>
      <path id="Path_610069" data-name="Path 610069" d="M357.961,443.006a3.979,3.979,0,0,1,3.979-3.979h16.427a3.989,3.989,0,0,1,.5.035,3.979,3.979,0,0,0-3.822-2.88H358.62a3.979,3.979,0,0,0-3.979,3.979V525.1h3.32Z" transform="translate(-14.762 14681.14)" fill="#fcdd9e"/>
      <path id="Path_610070" data-name="Path 610070" d="M376.221,523.6H351.835a1.306,1.306,0,0,1-1.306-1.306V437.354a5.291,5.291,0,0,1,5.285-5.285h16.427a5.291,5.291,0,0,1,5.285,5.285v84.939a1.306,1.306,0,0,1-1.306,1.306m-23.08-2.612h21.774V437.354a2.676,2.676,0,0,0-2.673-2.673H355.814a2.676,2.676,0,0,0-2.673,2.673Z" transform="translate(-11.956 14683.947)" fill="#2e0f07"/>
      <path id="Path_610071" data-name="Path 610071" d="M210.889,338.89l-11.912,2.27c-2.7.885-.743,3.437.56,4.772l-29.548,22.982-17.518-18.292a3.591,3.591,0,0,0-4.389.411l-20.589,19.341a3.591,3.591,0,0,0,4.917,5.234l18.555-17.43c26.894,27.256,10.943,23.36,53.17-6.725,1.155,1.481,3.5,4.737,5.03,1.875l4.148-11.592a2.235,2.235,0,0,0-2.423-2.847" transform="translate(141.021 14747.557)" fill="#acd350"/>
      <path id="Path_610072" data-name="Path 610072" d="M373.21,345.174c.037,2.467-3.884,2.467-3.847,0-.037-2.467,3.884-2.467,3.847,0" transform="translate(-24.809 14744.508)" fill="#e2efc2"/>
      <path id="Path_610073" data-name="Path 610073" d="M166.742,394.306c-6.436,5.858-7.214,5-.754-.831,6.436-5.858,7.214-5,.754.831" transform="translate(117.033 14713.008)" fill="#e2efc2"/>
      <path id="Path_610074" data-name="Path 610074" d="M307.364,383.191c-10.011,7.759-10.721,6.843-.687-.888,10.011-7.759,10.721-6.843.687.888" transform="translate(22.87 14721.583)" fill="#e2efc2"/>
      <path id="Path_610075" data-name="Path 610075" d="M127.155,427.52a3.619,3.619,0,0,0,2.8,5.839c2.093.648,11.88-10.3,13.453-11.3a36.268,36.268,0,0,1-16.253,5.464" transform="translate(141.018 14690.779)" fill="#87bf02"/>
      <path id="Path_610076" data-name="Path 610076" d="M375.145,368.877a23.458,23.458,0,0,1-2.3,1.16l1.277,1.534q.4-.384.788-.779-.39.4-.788.779a1.851,1.851,0,0,0,3.249-.262l2.184-6.1a18.821,18.821,0,0,1-4.406,3.673" transform="translate(-27.183 14729.577)" fill="#87bf02"/>
      <path id="Path_610077" data-name="Path 610077" d="M245.232,431.527l4.152,4.357a3.591,3.591,0,0,0,4.134-.194l12.3-9.566c-7.3,2.579-12.093,8.553-20.586,5.4" transform="translate(59.901 14688.004)" fill="#87bf02"/>
      <path id="Path_610078" data-name="Path 610078" d="M167.39,375.394c-2.378,1.451-17.644-17.156-19.279-18.18L130.5,373.756a4.9,4.9,0,0,1-6.706-7.138l20.589-19.341a4.829,4.829,0,0,1,6.226-.362l16.7,17.441,27.552-21.429c-1.99-1.7-1.758-5.327,1.064-5.854l11.912-2.269a3.538,3.538,0,0,1,3.9,4.57l-4.148,11.592c-1.358,3.229-4.989,2.013-6.454-.509-.782.2-33.5,27.221-33.747,24.938m-1.1-2.9c.449,3.3,33.468-25.028,34.246-24.879,1.44-1.2,2.784,1.6,3.6,2.347.335.386.839.5,1,.118l4.148-11.592a.931.931,0,0,0-.949-1.124l-11.912,2.269c-.4.105-.364.616-.053,1.006.6.889,2.627,2.429,1.17,3.515l-29.548,22.982c-1.083,2.534-18.306-18.244-19.143-18.293-1.66-2.948-21.875,19.3-23.261,19.673a2.3,2.3,0,0,0,1.566,3.95c.649,1.358,19.414-17.9,20.119-18.049a1.3,1.3,0,0,1,1.839.051Zm41.8-36.412h0Z" transform="translate(143.823 14750.361)" fill="#2e0f07"/>
      <path id="Path_610079" data-name="Path 610079" d="M166.475,645.068s42.816-12.061,44.625-18.694-2.412-14.473-18.694-6.633-24.121-5.427-46.434-7.839-28.946,10.854-28.946,10.854l-2.412,35.579,7.9.431s18.034,11.63,48.789,5.6,33.77-4.221,44.625-13.267c33.827-26.181,23.858-41.7-3.016-17.488-7.568,8.094-25.858,11.563-34.372,8.443" transform="translate(149.037 14561.425)" fill="#ffc2b3"/>
      <path id="Path_610080" data-name="Path 610080" d="M236.482,641.135c-17.127,24.492-41.351,35.8-70.129,23.877,4.13-1.224,8.159-3.051,12.419-3.959-.206-.275-12.07,3.01-12.3,2.959,1.2-1.771,51.865-10.979,44.415-24.644-8.792,7.952-20.524,12.386-32.224,13.8-21.005,2.438-42.01,5.934-62.648,3.4l-1.4,20.712c14.044-1.386,15.976,12.314,56.686,6.031,30.755-6.031,33.77-4.222,44.624-13.267,10.823-9.02,27.04-24.633,20.558-28.908" transform="translate(149.037 14542.482)" fill="#ffa18a"/>
      <path id="Path_610081" data-name="Path 610081" d="M151.2,664.3c-11.265.4-26.029-3.586-31.9-7.341-.42-.187-8.393-.064-8.473-.851a1.306,1.306,0,0,1-.325-.954c.26-.668,2.127-35.458,2.547-36.074,4.174-9.27,21.637-13.428,30.255-11.569,18.554.744,28.451,15.556,45.726,7.961,10.443-5.029,15.651-3.575,18.18-1.469,2.5,2.078,3.393,5.764,2.341,9.622-.538,1.974-3.137,3.994-8.428,6.552-4.835,2.411-14.544,5.991-21.407,8.219,8.894,1.7,22.2-1.781,29.506-8.847a86.054,86.054,0,0,1,9.42-7.427c8.359-5.439,15.934-8,17.81-.572.2,3.155-2.329,7.591-7.738,13.564-15.036,14.886-19.336,21.229-41.892,24.154-8.888,1.343-25.739,5.4-35.625,5.033m-38-10.29c10.39.007,5.379,1.462,19.818,5.493,7.468,1.909,19.641,3.543,35.223.488,7.539-1.478,13.419-2.487,18.143-3.3,14.518-2.491,17.968-3.083,25.9-9.691,13.474-12.13,24.042-21.184,20.639-26.84-3.495-3.7-20.515,9.415-21.93,11.313-8.537,8.686-26.915,12.173-36.107,8.481-7.315,1.893-11.64,4.658-12.473,2.374-.747-2.585,10.828-3.778,22.468-8.451,19.675-6.92,21.931-10.125,22.154-10.942,1.632-8.482-4.349-10.942-16.867-5.113-18.688,8.193-28.051-6.7-47.141-7.716-10.977-1.523-22.91,2.195-27.522,9.936l-2.3,33.967" transform="translate(151.844 14564.517)" fill="#2e0f07"/>
      <rect id="Rectangle_377778" data-name="Rectangle 377778" width="23.735" height="42.074" transform="translate(247.812 15178.118)" fill="#fbc967"/>
      <path id="Path_610082" data-name="Path 610082" d="M82.135,698.566a55.435,55.435,0,0,1-17.4,3.837v11.881H88.474V692.963c-1.68,2.436-3.61,4.6-6.339,5.6" transform="translate(183.073 14505.907)" fill="#f9b122"/>
      <path id="Path_610083" data-name="Path 610083" d="M85.667,668.191H61.932a1.306,1.306,0,0,1-1.306-1.306V624.811a1.306,1.306,0,0,1,1.306-1.306H85.667a1.306,1.306,0,0,1,1.306,1.306v42.073a1.306,1.306,0,0,1-1.306,1.306m-22.429-2.612H84.361V626.117H63.238Z" transform="translate(185.88 14553.308)" fill="#2e0f07"/>
      <path id="Path_610084" data-name="Path 610084" d="M99.008,651.108c-6.638-.035-6.637-10.119,0-10.153,6.637.035,6.637,10.119,0,10.153m0-7.541c-3.2-.044-3.2,4.973,0,4.929,3.2.044,3.2-4.973,0-4.929" transform="translate(163.084 14541.399)" fill="#2e0f07"/>
      <path id="Path_610085" data-name="Path 610085" d="M157.549,619.816c13.236-5.673,34.239-.04,45.068,7.143-15-4.822-27.685-10.353-45.068-7.143" transform="translate(119.737 14557.408)" fill="#ffe2db"/>
      <path id="Path_610086" data-name="Path 610086" d="M352.7,636.665c3.039-2.42,10.709-5.182,15.529-4.453.35.047,1.45.47.641.711-4.813.683-12.159,3.373-16.17,3.742" transform="translate(-13.435 14547.446)" fill="#ffe2db"/>
      <path id="Path_610087" data-name="Path 610087" d="M377.132,668.043c3.8-1.586,10.638-4.593,14.255-7.672,5.957-4.362,11.133-10.566,18.549-12.553,3.071-.345,3.115.052.212.817-5.517,2.3-9.977,7.088-14.556,10.581-4.682,3.806-12.662,8.626-18.46,8.827" transform="translate(-30.111 14536.801)" fill="#ffe2db"/>
      <path id="Path_610088" data-name="Path 610088" d="M123.238,205.693c-.4,23.327-35.5,23.323-35.9,0,.4-23.326,35.5-23.323,35.9,0" transform="translate(167.651 14850.368)" fill="#f6eb3a"/>
      <path id="Path_610089" data-name="Path 610089" d="M134.167,205.51c-3.5,11.6-12.831,20.83-23.89,26.27,17.219,12.5,38.355-10.469,23.89-26.27" transform="translate(151.997 14838.556)" fill="#fad100"/>
      <path id="Path_610090" data-name="Path 610090" d="M130.661,219.226c-.256,14.929-22.722,14.927-22.976,0,.256-14.928,22.722-14.926,22.976,0" transform="translate(153.765 14836.835)" fill="#faf495"/>
      <path id="Path_610091" data-name="Path 610091" d="M117.757,229.276c-16.2-.289-16.195-24.1,0-24.388,16.2.289,16.194,24.1,0,24.388m0-22.716c-14,.25-14,20.8,0,21.044,14-.25,14-20.8,0-21.044" transform="translate(155.182 14838.979)" fill="#2e0f07"/>
      <path id="Path_610092" data-name="Path 610092" d="M107.261,205.248c-.025,5.685-8.769,5.684-8.793,0,.025-5.684,8.769-5.684,8.793,0" transform="translate(160.056 14841.644)" fill="#fdfad0"/>
      <path id="Path_610093" data-name="Path 610093" d="M131.266,233.467c-.292-.225-.152-1.134-.183-1.475-1.893-.241-3.342-.4-4.12-1.385a10.472,10.472,0,0,1,.751-1.284c.451-.459,1.579.624,2.324.612,1.716.389,4.728.662,4.719-1.655-.245-2.572-4.747-2.325-6.15-4.064-2.485-2.139-.825-6.165,2.476-6.251.038-.628-.246-1.845.771-1.746,1.61-.1,1.755.1,1.664,1.685,1.084.121,3.459.343,3.39,1.545-.141.154-.631,1.18-.853,1.184-1.631-.959-5.986-1.894-6.049,1.023a1.552,1.552,0,0,0,.995,1.515,45.132,45.132,0,0,1,4.679,2.047c3.109,1.917,1.579,6.731-2.162,6.773-.032.627.232,1.753-.771,1.645-.349-.026-1.243.1-1.482-.171" transform="translate(140.61 14831.262)" fill="#2e0f07"/>
      <path id="Path_610094" data-name="Path 610094" d="M103.075,221.4c-25.308-.452-25.3-37.657,0-38.106,25.307.452,25.3,37.657,0,38.106m0-35.494c-21.875.391-21.871,32.494,0,32.882,21.874-.391,21.871-32.494,0-32.882" transform="translate(169.864 14853.718)" fill="#2e0f07"/>
      <path id="Path_610095" data-name="Path 610095" d="M467.212,215.06c-.4,23.327-35.5,23.323-35.9,0,.4-23.326,35.5-23.323,35.9,0" transform="translate(-34.242 14914.149)" fill="#f6eb3a"/>
      <path id="Path_610096" data-name="Path 610096" d="M478.142,214.877c-3.5,11.6-12.831,20.83-23.89,26.27,17.219,12.5,38.355-10.469,23.89-26.27" transform="translate(-49.896 14902.338)" fill="#fad100"/>
      <path id="Path_610097" data-name="Path 610097" d="M474.637,228.593c-.256,14.929-22.722,14.927-22.976,0,.256-14.928,22.722-14.926,22.976,0" transform="translate(-48.128 14900.617)" fill="#faf495"/>
      <path id="Path_610098" data-name="Path 610098" d="M461.733,238.642c-16.2-.289-16.195-24.1,0-24.388,16.2.29,16.194,24.1,0,24.388m0-22.716c-14,.25-14,20.8,0,21.044,14-.25,14-20.8,0-21.044" transform="translate(-46.712 14902.764)" fill="#2e0f07"/>
      <path id="Path_610099" data-name="Path 610099" d="M451.236,214.615c-.025,5.685-8.769,5.684-8.793,0,.025-5.684,8.769-5.684,8.793,0" transform="translate(-41.838 14905.427)" fill="#fdfad0"/>
      <path id="Path_610100" data-name="Path 610100" d="M475.243,242.834c-.292-.225-.152-1.134-.183-1.475-1.893-.241-3.342-.4-4.12-1.385a10.468,10.468,0,0,1,.751-1.284c.451-.459,1.579.624,2.324.612,1.716.389,4.729.662,4.719-1.655-.245-2.572-4.747-2.325-6.15-4.064-2.485-2.139-.825-6.165,2.476-6.251.038-.628-.246-1.845.771-1.746,1.61-.1,1.755.1,1.664,1.685,1.084.121,3.459.343,3.39,1.545-.141.154-.631,1.18-.853,1.184-1.631-.959-5.986-1.894-6.049,1.023a1.552,1.552,0,0,0,.995,1.515,45.129,45.129,0,0,1,4.679,2.047c3.109,1.917,1.579,6.731-2.162,6.773-.032.627.232,1.753-.771,1.645-.349-.026-1.243.1-1.482-.171" transform="translate(-61.284 14895.044)" fill="#2e0f07"/>
      <path id="Path_610101" data-name="Path 610101" d="M447.051,230.763c-25.308-.452-25.3-37.657,0-38.106,25.307.452,25.3,37.658,0,38.106m0-35.494c-21.875.391-21.872,32.494,0,32.881,21.874-.391,21.871-32.494,0-32.881" transform="translate(-32.03 14917.501)" fill="#2e0f07"/>
      <path id="Path_610102" data-name="Path 610102" d="M298.754,40.211c-.789,46.038-70.07,46.03-70.852,0,.789-46.036,70.07-46.029,70.852,0" transform="translate(-47.123 15089.219)" fill="#f6eb3a"/>
      <path id="Path_610103" data-name="Path 610103" d="M320.325,39.848c-6.9,22.885-25.323,41.111-47.15,51.847,33.983,24.667,75.7-20.662,47.15-51.847" transform="translate(-78.019 15065.905)" fill="#fad100"/>
      <path id="Path_610104" data-name="Path 610104" d="M313.405,66.919c-.5,29.464-44.845,29.46-45.345,0,.5-29.463,44.845-29.458,45.345,0" transform="translate(-74.528 15062.512)" fill="#faf495"/>
      <path id="Path_610105" data-name="Path 610105" d="M289.662,87.688c-30.9-.552-30.892-45.956,0-46.5,30.9.552,30.891,45.956,0,46.5m0-44.832c-28.7.513-28.7,42.652,0,43.16,28.7-.513,28.695-42.652,0-43.16" transform="translate(-73.457 15064.994)" fill="#2e0f07"/>
      <path id="Path_610106" data-name="Path 610106" d="M267.223,39.239c-.193,11.277-17.164,11.275-17.355,0,.193-11.276,17.163-11.274,17.355,0" transform="translate(-62.113 15072.093)" fill="#fdfad0"/>
      <path id="Path_610107" data-name="Path 610107" d="M314.6,95.049c-.576-.444-.3-2.238-.361-2.911-3.737-.476-6.6-.8-8.132-2.732a20.809,20.809,0,0,1,1.482-2.535c.16-.238.307-.357.441-.357,3.963,2.434,16.258,4.124,12.858-3.723-2.6-2.553-8.958-3.309-11.537-6-4.935-4.306-1.65-12.072,4.887-12.336.074-1.24-.486-3.641,1.522-3.445,3.28-.145,3.411.1,3.285,3.327,2.586.244,5.374.569,6.85,2.574.075.34-1.265,2.139-1.4,2.456-.329.464-.464.427-.921.158-2.534-1.643-7.641-2.29-10.195-.693-1.86,1.271-1.7,5.065.7,5.9,2.33,1.107,7.317,2.7,9.233,4.04,6.164,3.884,3.157,13.174-4.266,13.367-.064,1.237.457,3.461-1.522,3.247-.688-.051-2.454.19-2.924-.336" transform="translate(-100.493 15051.486)" fill="#2e0f07"/>
      <path id="Path_610108" data-name="Path 610108" d="M261.655,72.662C213.379,71.8,213.387.855,261.657,0c48.275.862,48.267,71.807,0,72.662m0-70.05c-44.844.8-44.836,66.643,0,67.438,44.842-.8,44.835-66.643,0-67.438" transform="translate(-45.451 15093.099)" fill="#2e0f07"/>
      <path id="Path_610109" data-name="Path 610109" d="M221.608,283.307A1.306,1.306,0,0,1,220.3,282v-8.678a1.306,1.306,0,1,1,2.612,0V282a1.306,1.306,0,0,1-1.306,1.306" transform="translate(76.914 14793.17)" fill="#2e0f07"/>
      <path id="Path_610110" data-name="Path 610110" d="M221.608,213.325a1.306,1.306,0,0,1-1.307-1.306V190.366a1.306,1.306,0,1,1,2.612,0v21.652a1.306,1.306,0,0,1-1.306,1.306" transform="translate(76.914 14849.781)" fill="#2e0f07"/>
      <path id="Path_610111" data-name="Path 610111" d="M358.147,282.447a1.306,1.306,0,0,1-1.306-1.306V268.4a1.306,1.306,0,1,1,2.612,0v12.744a1.306,1.306,0,0,1-1.306,1.306" transform="translate(-16.263 14796.531)" fill="#2e0f07"/>
      <path id="Path_610112" data-name="Path 610112" d="M358.147,246.432a1.306,1.306,0,0,1-1.306-1.306v-4.87a1.306,1.306,0,0,1,2.612,0v4.87a1.306,1.306,0,0,1-1.306,1.306" transform="translate(-16.263 14815.735)" fill="#2e0f07"/>
      <path id="Path_610113" data-name="Path 610113" d="M489.435,347.392a1.306,1.306,0,0,1-1.306-1.306V326.906a1.306,1.306,0,0,1,2.612,0v19.179a1.306,1.306,0,0,1-1.306,1.306" transform="translate(-105.857 14756.604)" fill="#2e0f07"/>
      <path id="Path_610114" data-name="Path 610114" d="M61.436,360.986a1.306,1.306,0,0,1-1.306-1.306V336.408a1.306,1.306,0,1,1,2.612,0V359.68a1.306,1.306,0,0,1-1.306,1.306" transform="translate(186.218 14750.119)" fill="#2e0f07"/>
      <path id="Path_610115" data-name="Path 610115" d="M61.436,289.681a1.306,1.306,0,0,1-1.306-1.306V278.4a1.306,1.306,0,1,1,2.612,0v9.976a1.306,1.306,0,0,1-1.306,1.306" transform="translate(186.218 14789.706)" fill="#2e0f07"/>
    </g>
  </g>
</svg>
