<svg xmlns="http://www.w3.org/2000/svg" xmlns:xlink="http://www.w3.org/1999/xlink" width="454.913" height="453.389" viewBox="0 0 454.913 453.389">
  <defs>
    <linearGradient id="linear-gradient" x1="0.5" x2="0.5" y2="1" gradientUnits="objectBoundingBox">
      <stop offset="0" stop-color="#e1efe3"/>
      <stop offset="1" stop-color="#dbe5f3"/>
    </linearGradient>
    <clipPath id="clip-path">
      <rect id="Rectangle_377793" data-name="Rectangle 377793" width="454.913" height="453.388" fill="url(#linear-gradient)"/>
    </clipPath>
    <clipPath id="clip-path-2">
      <rect id="Rectangle_377792" data-name="Rectangle 377792" width="443.97" height="446.045" fill="url(#linear-gradient)"/>
    </clipPath>
    <clipPath id="clip-path-3">
      <path id="Path_610193" data-name="Path 610193" d="M392.507,383.3c-9.117,9.6-17.743,15.787-24.558,20.677C287.838,461.461,193.044,444.7,172.9,440.613,143.148,434.571,85.642,422.891,44.067,374c-62.9-73.969-53.106-190.506-4.316-267.434,8.924-14.071,56.066-92.171,151.88-104.7C249.617-5.71,317.21,9.578,366.159,50.587,468.907,136.67,461.593,310.572,392.507,383.3" transform="translate(0 0.002)" fill="url(#linear-gradient)"/>
    </clipPath>
    <linearGradient id="linear-gradient-4" x1="0.166" y1="0.837" x2="0.166" y2="0.837" xlink:href="#linear-gradient"/>
    <clipPath id="clip-path-4">
      <path id="Path_610200" data-name="Path 610200" d="M336.574,134.292l-8.321,2.764a.6.6,0,0,0-.411.563l-.083,7.305a31.847,31.847,0,0,0-7.8,6.754l-7.246-.967a.6.6,0,0,0-.616.326l-3.93,7.839a.6.6,0,0,0,.107.689l5.11,5.228a31.85,31.85,0,0,0-.746,10.29l-5.8,4.437a.6.6,0,0,0-.205.666l2.764,8.321a.6.6,0,0,0,.563.411l7.3.083a31.844,31.844,0,0,0,6.754,7.8l-.967,7.246a.6.6,0,0,0,.326.616l7.839,3.93a.6.6,0,0,0,.689-.107l5.228-5.11a31.844,31.844,0,0,0,10.29.746l4.437,5.8a.6.6,0,0,0,.666.205l8.322-2.764a.6.6,0,0,0,.411-.563l.083-7.305a31.84,31.84,0,0,0,7.8-6.754l7.246.967a.6.6,0,0,0,.616-.326l3.93-7.839a.6.6,0,0,0-.107-.689l-5.11-5.228a31.836,31.836,0,0,0,.746-10.29l5.8-4.437a.6.6,0,0,0,.2-.666l-2.764-8.321a.6.6,0,0,0-.563-.411l-7.305-.083a31.85,31.85,0,0,0-6.754-7.8l.967-7.246a.6.6,0,0,0-.326-.616l-7.839-3.93a.6.6,0,0,0-.689.107l-5.228,5.11a31.841,31.841,0,0,0-10.29-.746l-4.437-5.8a.6.6,0,0,0-.666-.205" transform="translate(-306.6 -134.261)" fill="#727997"/>
    </clipPath>
    <clipPath id="clip-path-5">
      <rect id="Rectangle_377797" data-name="Rectangle 377797" width="454.913" height="453.388" fill="none"/>
    </clipPath>
    <clipPath id="clip-path-6">
      <rect id="Rectangle_377795" data-name="Rectangle 377795" width="17.362" height="17.362" fill="none"/>
    </clipPath>
    <clipPath id="clip-path-7">
      <rect id="Rectangle_377796" data-name="Rectangle 377796" width="44.113" height="43.988" fill="none"/>
    </clipPath>
    <clipPath id="clip-path-8">
      <path id="Path_610209" data-name="Path 610209" d="M164.892,613.048l-5.228,1.736a.378.378,0,0,0-.258.354l-.052,4.589a20.006,20.006,0,0,0-4.9,4.243l-4.552-.607a.377.377,0,0,0-.387.2l-2.469,4.925a.377.377,0,0,0,.068.433l3.21,3.284a20.008,20.008,0,0,0-.468,6.465l-3.646,2.788a.377.377,0,0,0-.129.419l1.737,5.228a.377.377,0,0,0,.354.258l4.589.052a20,20,0,0,0,4.243,4.9l-.607,4.552a.377.377,0,0,0,.2.387l4.925,2.469a.377.377,0,0,0,.433-.068l3.284-3.21a20.007,20.007,0,0,0,6.465.469l2.788,3.646a.378.378,0,0,0,.419.129l5.228-1.736a.377.377,0,0,0,.258-.354l.052-4.589a20,20,0,0,0,4.9-4.243l4.552.607a.377.377,0,0,0,.387-.2l2.469-4.925a.378.378,0,0,0-.067-.433l-3.21-3.284a20,20,0,0,0,.468-6.465l3.646-2.787a.377.377,0,0,0,.129-.419l-1.736-5.228a.377.377,0,0,0-.354-.258l-4.589-.052a20.012,20.012,0,0,0-4.243-4.9l.607-4.552a.378.378,0,0,0-.2-.387l-4.924-2.469a.378.378,0,0,0-.433.067l-3.284,3.21a20.007,20.007,0,0,0-6.465-.469l-2.788-3.646a.377.377,0,0,0-.419-.129" transform="translate(-146.061 -613.029)" fill="#d2e1f1"/>
    </clipPath>
    <clipPath id="clip-path-10">
      <rect id="Rectangle_377799" data-name="Rectangle 377799" width="11.961" height="11.961" fill="none"/>
    </clipPath>
    <clipPath id="clip-path-11">
      <rect id="Rectangle_377800" data-name="Rectangle 377800" width="28.782" height="28.694" fill="none"/>
    </clipPath>
    <clipPath id="clip-path-12">
      <path id="Path_610212" data-name="Path 610212" d="M1235.977,1148.851q.74.125,1.482.244c74.82,11.831,145.169-39.9,157.13-115.535L1257.632,1011.9Z" transform="translate(-1235.977 -1011.903)" fill="#0c5e46"/>
    </clipPath>
    <clipPath id="clip-path-13">
      <path id="Path_610213" data-name="Path 610213" d="M802.813,1114.58a138.008,138.008,0,0,0,68.614,32.942c.834.143,1.667.276,2.5.4l20.934-137.067Z" transform="translate(-802.813 -1010.858)" fill="#b0c0d2"/>
    </clipPath>
    <clipPath id="clip-path-14">
      <path id="Path_610214" data-name="Path 610214" d="M511.617,841.992a138.58,138.58,0,0,0,44.3,128.932L647.965,867.2,512.119,839.427c-.174.852-.343,1.707-.5,2.565" transform="translate(-509.282 -839.427)" fill="#b0c0d2"/>
    </clipPath>
    <clipPath id="clip-path-15">
      <path id="Path_610215" data-name="Path 610215" d="M1471.937,290.536a.736.736,0,0,0,.522,1.045l134.457,26.084A138.711,138.711,0,0,0,1532.2,166.911Z" transform="translate(-1471.862 -166.911)" fill="none"/>
    </clipPath>
    <linearGradient id="linear-gradient-11" x1="-1.002" y1="2.206" x2="-1.001" y2="2.206" gradientUnits="objectBoundingBox">
      <stop offset="0" stop-color="#53d8ff"/>
      <stop offset="1" stop-color="#3840f7"/>
    </linearGradient>
    <clipPath id="clip-path-16">
      <path id="Path_610216" data-name="Path 610216" d="M632.936,221.789l119.273,70.72,57.5-125.925c-10.959-5.212-20.754-8.116-33.279-10.349a138.489,138.489,0,0,0-143.493,65.553" transform="translate(-632.936 -154.061)" fill="#12263f"/>
    </clipPath>
    <clipPath id="clip-path-17">
      <path id="Path_610217" data-name="Path 610217" d="M526.253,610.99,662.07,638.907,543.5,566.957a138.232,138.232,0,0,0-17.244,44.033" transform="translate(-526.253 -566.957)" fill="#b0c0d2"/>
    </clipPath>
    <clipPath id="clip-path-19">
      <path id="Path_610223" data-name="Path 610223" d="M1957.477,803.047l-89.383,108.94a3.753,3.753,0,0,0,2.9,6.133h17.182l-83.865,160.667,10.152,31.637h28.84a13.249,13.249,0,0,0,12.029-7.7l83.211-180.2,11.98,1.371a10.645,10.645,0,0,0,11.837-9.949l6.283-106.53c.008-.13.012-.258.012-.385v-.057a6.3,6.3,0,0,0-6.371-6.249,6.134,6.134,0,0,0-4.808,2.321" transform="translate(-1804.313 -800.726)" fill="#03386e"/>
    </clipPath>
    <clipPath id="clip-path-20">
      <path id="Path_610224" data-name="Path 610224" d="M1373.752,1709.4l59.207,131.521a21.712,21.712,0,0,0,19.8,12.8h30.522a11.145,11.145,0,0,0,9.746-5.738l1.085-1.957a8.727,8.727,0,0,1-7.773-4.759L1407.452,1686.7Z" transform="translate(-1373.752 -1686.7)" fill="#6debff"/>
    </clipPath>
    <clipPath id="clip-path-21">
      <path id="Path_610225" data-name="Path 610225" d="M744.62,1601.693c-20.859,18.771-101.786,142.858-101.786,142.858l9.969,28.716h12.249a37.6,37.6,0,0,0,31.3-16.769l87.051-130.787a12.948,12.948,0,0,1,18.8-2.988l-4.309-10.441a34.177,34.177,0,0,0-12.028-15.157,28.478,28.478,0,0,0-16.486-5.292c-13.827,0-24.767,9.859-24.767,9.859" transform="translate(-642.834 -1591.834)" fill="#03386e"/>
    </clipPath>
    <clipPath id="clip-path-22">
      <path id="Path_610226" data-name="Path 610226" d="M54.913,1950.91c12.774,4.488,56.212,48.52,77.007,77.427,7.4,10.287,18.4,29.806,31.077,29.806h11.51a31.384,31.384,0,0,0,26.885-15.192l1.723-2.861c-20.811,11.925-38.546-9.908-65.264-57.783s-40.129-52.444-40.129-52.444c-28.237,2.833-42.809,21.047-42.809,21.047" transform="translate(-54.913 -1929.863)" fill="#6debff"/>
    </clipPath>
    <clipPath id="clip-path-24">
      <path id="Path_610231" data-name="Path 610231" d="M1735.819,488.932a20.642,20.642,0,1,0,.863-.018q-.43,0-.863.018" transform="translate(-1716.013 -488.914)" fill="none"/>
    </clipPath>
    <linearGradient id="linear-gradient-12" x1="-4.539" y1="6.494" x2="-4.536" y2="6.494" gradientUnits="objectBoundingBox">
      <stop offset="0" stop-color="#fdf53f"/>
      <stop offset="1" stop-color="#d93c65"/>
    </linearGradient>
    <clipPath id="clip-path-25">
      <path id="Path_610232" data-name="Path 610232" d="M1739.425,493.2a19.961,19.961,0,1,0,.834-.017q-.415,0-.834.017" transform="translate(-1720.278 -493.179)" fill="#eba325"/>
    </clipPath>
    <clipPath id="clip-path-27">
      <rect id="Rectangle_377816" data-name="Rectangle 377816" width="33.799" height="33.799" fill="none"/>
    </clipPath>
    <clipPath id="clip-path-28">
      <path id="Path_610235" data-name="Path 610235" d="M1807.8,545.4l-1.079.044a1.071,1.071,0,0,0-1.026,1.114l.076,1.837c-3.665.745-5.7,3.053-5.58,5.96.132,3.22,2.824,4.707,6.523,5.557,2.592.582,3.683,1.227,3.731,2.383.053,1.282-1.3,1.964-3.142,2.04a12.447,12.447,0,0,1-4.8-.806,1.072,1.072,0,0,0-1.425.761l-.4,1.73a1.063,1.063,0,0,0,.639,1.231,14.986,14.986,0,0,0,5.2.906L1806.6,570a1.071,1.071,0,0,0,1.115,1.026l1.079-.044a1.071,1.071,0,0,0,1.026-1.114l-.084-2.056c3.976-.79,5.937-3.376,5.822-6.158-.125-3.033-1.882-4.651-6-5.7-2.881-.759-4.222-1.393-4.263-2.393-.033-.813.555-1.745,2.743-1.835a11.16,11.16,0,0,1,4.037.563,1.068,1.068,0,0,0,1.379-.779l.364-1.6a1.066,1.066,0,0,0-.719-1.259,13.664,13.664,0,0,0-4.116-.566l-.068-1.649a1.071,1.071,0,0,0-1.069-1.027h-.045" transform="translate(-1800.189 -545.403)" fill="#eba325"/>
    </clipPath>
    <clipPath id="clip-path-29">
      <path id="Path_610236" data-name="Path 610236" d="M1992.834,109.542a33.693,33.693,0,1,0,1.408-.029q-.7,0-1.408.029" transform="translate(-1960.51 -109.513)" fill="none"/>
    </clipPath>
    <linearGradient id="linear-gradient-13" x1="-3.132" y1="4.67" x2="-3.131" y2="4.67" xlink:href="#linear-gradient-12"/>
    <clipPath id="clip-path-30">
      <path id="Path_610237" data-name="Path 610237" d="M1998.719,116.5a32.573,32.573,0,1,0,1.361-.028q-.678,0-1.361.028" transform="translate(-1967.47 -116.473)" fill="#eba325"/>
    </clipPath>
    <clipPath id="clip-path-32">
      <rect id="Rectangle_377821" data-name="Rectangle 377821" width="55.161" height="55.161" fill="none"/>
    </clipPath>
    <clipPath id="clip-path-33">
      <path id="Path_610240" data-name="Path 610240" d="M2110.313,201.7l-1.761.072a1.748,1.748,0,0,0-1.675,1.819l.123,3c-5.981,1.217-9.3,4.982-9.106,9.727.216,5.255,4.609,7.681,10.646,9.069,4.23.95,6.011,2,6.088,3.889.086,2.092-2.117,3.2-5.128,3.329a20.316,20.316,0,0,1-7.834-1.316,1.749,1.749,0,0,0-2.326,1.241l-.647,2.824a1.735,1.735,0,0,0,1.043,2.009,24.472,24.472,0,0,0,8.487,1.478l.123,3a1.748,1.748,0,0,0,1.819,1.675l1.762-.072a1.748,1.748,0,0,0,1.675-1.819l-.138-3.355c6.489-1.289,9.688-5.509,9.5-10.05-.2-4.949-3.072-7.591-9.786-9.308-4.7-1.238-6.891-2.273-6.958-3.905-.054-1.327.9-2.848,4.477-3a18.207,18.207,0,0,1,6.588.919,1.743,1.743,0,0,0,2.251-1.271l.594-2.612a1.74,1.74,0,0,0-1.173-2.054,22.305,22.305,0,0,0-6.717-.923l-.111-2.692a1.748,1.748,0,0,0-1.746-1.677h-.073" transform="translate(-2097.885 -201.702)" fill="#eba325"/>
    </clipPath>
    <clipPath id="clip-path-34">
      <path id="Path_610241" data-name="Path 610241" d="M2151.129,564.655a34.671,34.671,0,1,0,1.449-.03q-.721,0-1.449.03" transform="translate(-2117.868 -564.625)" fill="none"/>
    </clipPath>
    <linearGradient id="linear-gradient-14" x1="-3.296" y1="3.803" x2="-3.294" y2="3.803" xlink:href="#linear-gradient-12"/>
    <clipPath id="clip-path-35">
      <path id="Path_610242" data-name="Path 610242" d="M2157.184,571.815a33.516,33.516,0,1,0,1.4-.029q-.7,0-1.4.029" transform="translate(-2125.029 -571.786)" fill="#eba325"/>
    </clipPath>
    <clipPath id="clip-path-37">
      <rect id="Rectangle_377826" data-name="Rectangle 377826" width="56.762" height="56.761" fill="none"/>
    </clipPath>
    <clipPath id="clip-path-38">
      <path id="Path_610245" data-name="Path 610245" d="M2272.013,659.488l-1.812.074a1.8,1.8,0,0,0-1.724,1.871l.127,3.085c-6.154,1.252-9.571,5.126-9.37,10.009.222,5.407,4.742,7.9,10.954,9.332,4.353.978,6.185,2.06,6.265,4,.088,2.153-2.178,3.3-5.276,3.425a20.91,20.91,0,0,1-8.062-1.354,1.8,1.8,0,0,0-2.393,1.277l-.666,2.906a1.786,1.786,0,0,0,1.073,2.068,25.174,25.174,0,0,0,8.733,1.521l.127,3.085a1.8,1.8,0,0,0,1.871,1.724l1.813-.074a1.8,1.8,0,0,0,1.724-1.872l-.142-3.452c6.677-1.326,9.969-5.669,9.777-10.341-.209-5.093-3.16-7.811-10.07-9.578-4.838-1.274-7.091-2.338-7.159-4.018-.056-1.365.931-2.931,4.606-3.082a18.732,18.732,0,0,1,6.779.945,1.794,1.794,0,0,0,2.317-1.308l.612-2.687a1.79,1.79,0,0,0-1.207-2.113,22.952,22.952,0,0,0-6.912-.95l-.114-2.77a1.8,1.8,0,0,0-1.8-1.725l-.075,0" transform="translate(-2259.225 -659.486)" fill="#eba325"/>
    </clipPath>
    <clipPath id="clip-path-39">
      <path id="Path_610246" data-name="Path 610246" d="M2441.6,238.366a27.728,27.728,0,1,0,1.159-.024q-.577,0-1.159.024" transform="translate(-2414.999 -238.342)" fill="none"/>
    </clipPath>
    <linearGradient id="linear-gradient-15" x1="-4.763" y1="5.382" x2="-4.761" y2="5.382" xlink:href="#linear-gradient-12"/>
    <clipPath id="clip-path-40">
      <path id="Path_610247" data-name="Path 610247" d="M2446.443,244.092a26.807,26.807,0,1,0,1.12-.023q-.558,0-1.12.023" transform="translate(-2420.727 -244.069)" fill="#eba325"/>
    </clipPath>
    <clipPath id="clip-path-42">
      <rect id="Rectangle_377831" data-name="Rectangle 377831" width="45.396" height="45.394" fill="none"/>
    </clipPath>
    <clipPath id="clip-path-43">
      <path id="Path_610250" data-name="Path 610250" d="M2538.28,314.208l-1.449.06a1.439,1.439,0,0,0-1.379,1.5l.1,2.468c-4.922,1-7.655,4.1-7.494,8,.178,4.325,3.793,6.321,8.76,7.463,3.481.782,4.947,1.647,5.01,3.2.071,1.722-1.742,2.638-4.219,2.739a16.716,16.716,0,0,1-6.448-1.083,1.44,1.44,0,0,0-1.914,1.022l-.532,2.324a1.428,1.428,0,0,0,.858,1.654,20.141,20.141,0,0,0,6.985,1.217l.1,2.467a1.439,1.439,0,0,0,1.5,1.379l1.45-.06a1.439,1.439,0,0,0,1.379-1.5l-.114-2.761c5.34-1.061,7.973-4.534,7.82-8.271-.167-4.073-2.528-6.247-8.054-7.66-3.869-1.019-5.671-1.87-5.726-3.214-.045-1.092.744-2.344,3.684-2.464a14.985,14.985,0,0,1,5.422.756,1.434,1.434,0,0,0,1.853-1.046l.489-2.149a1.432,1.432,0,0,0-.965-1.69,18.352,18.352,0,0,0-5.528-.76l-.091-2.215a1.439,1.439,0,0,0-1.437-1.38h-.06" transform="translate(-2528.052 -314.207)" fill="#eba325"/>
    </clipPath>
    <clipPath id="clip-path-44">
      <path id="Path_610251" data-name="Path 610251" d="M459.984,2724.83c-5.422.239-8.544-.292-10.342-1.012,0,.2.009.394.017.572a1.866,1.866,0,0,0,1.773,1.762,317.019,317.019,0,0,0,35.425.036,1.329,1.329,0,0,0,1.082-2,10.829,10.829,0,0,0-.9-1.254c-6.593.57-18.034,1.5-27.055,1.893" transform="translate(-449.642 -2722.937)" fill="none"/>
    </clipPath>
    <linearGradient id="linear-gradient-16" x1="-1.866" y1="3.572" x2="-1.862" y2="3.572" xlink:href="#linear-gradient-11"/>
    <clipPath id="clip-path-45">
      <path id="Path_610252" data-name="Path 610252" d="M454.162,2640.274a24.367,24.367,0,0,0-4.531,14.192c1.8.72,4.919,1.251,10.342,1.012,9.02-.4,20.462-1.323,27.055-1.893-6.482-7.952-27.055-13.312-27.055-13.312Z" transform="translate(-449.628 -2640.274)" fill="none"/>
    </clipPath>
    <linearGradient id="linear-gradient-17" x1="-1.933" y1="1.826" x2="-1.929" y2="1.826" gradientUnits="objectBoundingBox">
      <stop offset="0" stop-color="#2b3582"/>
      <stop offset="1" stop-color="#150e42"/>
    </linearGradient>
    <clipPath id="clip-path-46">
      <path id="Path_610253" data-name="Path 610253" d="M471.7,2581.37l.544,10.76a2.457,2.457,0,0,0,2.1,2.311,9.558,9.558,0,0,0,4.365-.361,2.909,2.909,0,0,0,1.955-2.235l1.879-10.475Z" transform="translate(-471.703 -2581.37)" fill="none"/>
    </clipPath>
    <linearGradient id="linear-gradient-18" x1="-7.008" y1="2.842" x2="-6.993" y2="2.842" gradientUnits="objectBoundingBox">
      <stop offset="0" stop-color="#f9b776"/>
      <stop offset="1" stop-color="#f47960"/>
    </linearGradient>
    <clipPath id="clip-path-47">
      <path id="Path_610254" data-name="Path 610254" d="M23.216,2772.208a5.115,5.115,0,0,0,2.5,5.475,12.588,12.588,0,0,0,6.023,1.426h.067q.436,0,.843-.024a6.41,6.41,0,0,0,5.2-3.1l.016-.027c-2.154,1.377-5.177,1.539-9.945.68a5.672,5.672,0,0,1-4.695-4.487l-.011.055" transform="translate(-23.119 -2772.153)" fill="none"/>
    </clipPath>
    <linearGradient id="linear-gradient-19" x1="-0.226" y1="1" x2="-0.215" y2="1" xlink:href="#linear-gradient-11"/>
    <clipPath id="clip-path-48">
      <path id="Path_610255" data-name="Path 610255" d="M23.785,2629.358a5.672,5.672,0,0,0,4.695,4.487c4.768.86,7.791.7,9.945-.68,3.943-6.707,5.9-16.529,6.838-22.261,1.069-6.519-3.3-8.955-3.3-8.955h-4.9c-7.238,0-11.784,19.742-13.277,27.41" transform="translate(-23.785 -2601.948)" fill="none"/>
    </clipPath>
    <linearGradient id="linear-gradient-20" x1="-0.17" y1="1.049" x2="-0.163" y2="1.049" xlink:href="#linear-gradient-17"/>
    <clipPath id="clip-path-49">
      <path id="Path_610256" data-name="Path 610256" d="M93.739,2550.522a2.872,2.872,0,0,0,1.494,3.255,10.2,10.2,0,0,0,5.51,1.334,2.4,2.4,0,0,0,1.957-1.6l3.906-11.135L96.4,2539.939Z" transform="translate(-93.652 -2539.939)" fill="none"/>
    </clipPath>
    <linearGradient id="linear-gradient-21" x1="-1.125" y1="2.879" x2="-1.113" y2="2.879" xlink:href="#linear-gradient-18"/>
    <clipPath id="clip-path-50">
      <path id="Path_610257" data-name="Path 610257" d="M97.809,1800.633a32.212,32.212,0,0,0,12.285,4.463c12.887-35.387,53.469-106.405,53.469-106.405-5.039,30.465-7.189,109.922-7.189,109.922a19.78,19.78,0,0,0,13.727-.38c-.392-.817,23.387-149.453,23.387-149.453l-40.327-3C141.5,1672.8,97.809,1800.633,97.809,1800.633" transform="translate(-97.809 -1655.777)" fill="none"/>
    </clipPath>
    <linearGradient id="linear-gradient-22" x1="0.138" y1="1.108" x2="0.139" y2="1.108" xlink:href="#linear-gradient-11"/>
    <clipPath id="clip-path-51">
      <path id="Path_610258" data-name="Path 610258" d="M523.644,1812.434l-6.539,1.316a.7.7,0,0,0-.457.316l-8.886,14.193a.7.7,0,0,0,.223.968.7.7,0,0,0,.372.107.7.7,0,0,0,.6-.33l8.726-13.937,6.243-1.256a.7.7,0,0,0-.278-1.378" transform="translate(-507.655 -1812.42)" fill="none"/>
    </clipPath>
    <linearGradient id="linear-gradient-23" x1="-3.456" y1="7.207" x2="-3.449" y2="7.207" xlink:href="#linear-gradient-11"/>
    <clipPath id="clip-path-52">
      <path id="Path_610259" data-name="Path 610259" d="M1037.619,778.682a8.91,8.91,0,0,0-4.365,4.388c-2.919,6.394-11.651,22.427-28.587,30.078,2.439,3.237,6.366,9.97,8.076,21.288,10.172-7.57,18.953-20.214,23.169-40.949a8.273,8.273,0,0,0,7.215-.2c2.116-1.028,4.559-2.485,6.393-3.632a8.38,8.38,0,0,0,3.717-4.991c.7-2.738.287-5.146.287-7.729l8.248-2.555a2.933,2.933,0,0,0,1.652-3.743s-16.045,3.539-25.8,8.045" transform="translate(-1004.668 -770.637)" fill="none"/>
    </clipPath>
    <linearGradient id="linear-gradient-24" x1="-1.705" y1="3.953" x2="-1.703" y2="3.953" xlink:href="#linear-gradient-18"/>
    <clipPath id="clip-path-53">
      <path id="Path_610260" data-name="Path 610260" d="M208.855,1034.977A19.657,19.657,0,0,0,197,1045.771c-6.843,15.7-17.922,51.467,12.834,69.522a76.275,76.275,0,0,1,7.423-14.047c-4.953-8.354-6.42-19.765,2.369-34.624,6.409,17.306,9.416,42.557,10.044,53.731a24.018,24.018,0,0,1-1.882,10.748l-.158.371a1.272,1.272,0,0,0,.893,1.737c17.315,3.889,35.323,2.833,40.7,2.388a2.22,2.22,0,0,0,1.979-1.695c8.419-35.477,8.439-59.676,6.377-74.974,7.876,1.761,31.96,5.516,51.11-8.737-1.711-11.317-5.638-18.051-8.076-21.288-10.521,4.753-24.206,6.273-41.632.234a18.516,18.516,0,0,0-4.981-.982c-2.651-.155-7.043-.348-12.552-.348-13.769,0-34.525,1.2-52.593,7.169" transform="translate(-189.307 -1027.808)" fill="#abd24e"/>
    </clipPath>
    <clipPath id="clip-path-55">
      <path id="Path_610262" data-name="Path 610262" d="M451.506,925.635a1.873,1.873,0,0,0,.882,2.139c2.617,1.5,8.9,3.935,17.483-.273a3.9,3.9,0,0,0,2.163-3.667l-.757-17.9-16.477-4.3s-1.751,18.52-3.294,24" transform="translate(-451.435 -901.637)" fill="none"/>
    </clipPath>
    <linearGradient id="linear-gradient-25" x1="-1.981" y1="11.738" x2="-1.976" y2="11.738" xlink:href="#linear-gradient-18"/>
    <clipPath id="clip-path-56">
      <path id="Path_610263" data-name="Path 610263" d="M437.645,762.762c-1.253,4.246,4.332,14.614,4.332,14.614,3.565,6.729,10.144,10.619,17.954,9.259s6.355-5.743,5.979-12.5-5.979-19.624-5.979-19.624-21.034,4-22.286,8.249" transform="translate(-437.462 -754.513)" fill="none"/>
    </clipPath>
    <linearGradient id="linear-gradient-26" x1="-1.38" y1="7.405" x2="-1.376" y2="7.405" xlink:href="#linear-gradient-18"/>
    <clipPath id="clip-path-57">
      <path id="Path_610264" data-name="Path 610264" d="M409.285,667.558l-.326.616a.531.531,0,0,1-.979-.1.528.528,0,0,0-.955-.137c-.939,1.5-3.474,3.94-10.254,5.191-9.635,1.778-16.006,5.678-16.164,12.336a.531.531,0,0,1-.821.438c-.711-.434-1.85-.637-3.372.642-2.646,2.225-1.563,8,4.237,12.745a.527.527,0,0,1-.025.85c-1.052.684-2.619,2.313,1.443,4.485,4.2,2.246,7.339,2.062,8.547,1.862a.528.528,0,0,0,.429-.638L389.755,700a.531.531,0,0,1,.518-.645h2.009l.445-.2a1.072,1.072,0,0,0,.524-1.473c-1.1-2.128-3.248-7-.475-8.142,3.575-1.466,17.734-4.353,20.789-9.378,2.936-4.829.335-11.062-3.575-12.835a.565.565,0,0,0-.233-.051.528.528,0,0,0-.471.28" transform="translate(-375.046 -667.278)" fill="none"/>
    </clipPath>
    <linearGradient id="linear-gradient-27" x1="-0.887" y1="6.174" x2="-0.884" y2="6.174" xlink:href="#linear-gradient-17"/>
    <clipPath id="clip-path-58">
      <path id="Path_610265" data-name="Path 610265" d="M441.09,835.253c-3.686,2.3,1.913,9.211,4.876,9.519l.947-3.6s-1.644-6.323-4.535-6.324a2.415,2.415,0,0,0-1.288.408" transform="translate(-439.875 -834.845)" fill="none"/>
    </clipPath>
    <linearGradient id="linear-gradient-28" x1="-4.883" y1="23.482" x2="-4.871" y2="23.482" xlink:href="#linear-gradient-18"/>
    <clipPath id="clip-path-60">
      <path id="Path_610267" data-name="Path 610267" d="M316.755,1497.879c6.713,3.941,15.415,7.04,26.594,8.9l24.763.306-8.667-8.158a6.468,6.468,0,0,0-7.929-.743,18.734,18.734,0,0,0-4.4,3.924s-15.448-5.645-22.936-18.276a76.277,76.277,0,0,0-7.423,14.047" transform="translate(-316.755 -1483.832)" fill="none"/>
    </clipPath>
    <linearGradient id="linear-gradient-29" x1="-1.103" y1="4.145" x2="-1.1" y2="4.145" xlink:href="#linear-gradient-18"/>
    <clipPath id="clip-path-61">
      <path id="Path_610268" data-name="Path 610268" d="M547.534,1611.182l-62.86.068a2.783,2.783,0,0,0-.138,5.564c.048,0,.1,0,.145,0l62.86-.068a2.784,2.784,0,1,0,.043-5.568h-.049" transform="translate(-481.864 -1611.182)" fill="none"/>
    </clipPath>
    <linearGradient id="linear-gradient-30" x1="-3.689" y1="3.359" x2="-3.683" y2="3.359" xlink:href="#linear-gradient-17"/>
    <clipPath id="clip-path-62">
      <path id="Path_610269" data-name="Path 610269" d="M742.416,1295.505a9.986,9.986,0,0,0-9.024,5.661l-24.2,50.776h65.057a6.064,6.064,0,0,0,5.639-3.795l18.767-46.985a4.142,4.142,0,0,0-3.888-5.657Z" transform="translate(-709.191 -1295.505)" fill="none"/>
    </clipPath>
    <linearGradient id="linear-gradient-31" x1="-1.025" y1="2.598" x2="-1.024" y2="2.598" xlink:href="#linear-gradient-17"/>
    <clipPath id="clip-path-63">
      <path id="Path_610270" data-name="Path 610270" d="M1008.927,1430.139c-1.134,3.487-.3,6.874,1.872,7.565s4.846-1.577,5.98-5.064.3-6.874-1.872-7.564a2.643,2.643,0,0,0-.806-.124c-1.988,0-4.177,2.122-5.174,5.188" transform="translate(-1008.421 -1424.951)" fill="none"/>
    </clipPath>
    <linearGradient id="linear-gradient-32" x1="-10.014" y1="13.43" x2="-10.004" y2="13.43" xlink:href="#linear-gradient-11"/>
  </defs>
  <g id="Group_1072619" data-name="Group 1072619" transform="translate(-193.087 -15313)">
    <g id="Group_1072490" data-name="Group 1072490" transform="translate(193.087 15313)" clip-path="url(#clip-path)">
      <g id="Group_1072489" data-name="Group 1072489" transform="translate(0 0)" opacity="0.3">
        <g id="Group_1072488" data-name="Group 1072488">
          <g id="Group_1072487" data-name="Group 1072487" clip-path="url(#clip-path-2)">
            <g id="Group_1072486" data-name="Group 1072486" transform="translate(0 0)">
              <g id="Group_1072485" data-name="Group 1072485" clip-path="url(#clip-path-3)">
                <rect id="Rectangle_377791" data-name="Rectangle 377791" width="672.887" height="669.766" transform="translate(-247.041 178.043) rotate(-38.841)" fill="url(#linear-gradient-4)"/>
              </g>
            </g>
          </g>
        </g>
      </g>
      <path id="Path_610194" data-name="Path 610194" d="M776.2,165.023a.594.594,0,0,1-.512-.229c-.478-.618-.977-1.231-1.482-1.822a.595.595,0,0,1,.9-.773c.518.606,1.029,1.234,1.519,1.866a.594.594,0,0,1-.429.957" transform="translate(-649.408 -135.904)" fill="url(#linear-gradient)"/>
      <path id="Path_610195" data-name="Path 610195" d="M545.833,288.38c-.9.073-1.826.1-2.731.116a.6.6,0,0,1-.6-.586.6.6,0,0,1,.586-.6c.884-.013,1.8-.056,2.667-.113.646-.045,1.3-.1,1.959-.176a.576.576,0,0,1,.656.526.594.594,0,0,1-.526.656c-.671.074-1.346.135-2.007.18m9.469-1.591a.595.595,0,0,1-.195-1.168c1.441-.387,2.886-.847,4.3-1.365l.123-.045a.595.595,0,1,1,.411,1.116l-.123.045c-1.443.531-2.922,1-4.4,1.4a.6.6,0,0,1-.114.019m11.392-4.6a.595.595,0,0,1-.33-1.113c1.35-.749,2.676-1.569,3.943-2.436a.595.595,0,0,1,.672.982c-1.3.888-2.656,1.728-4.038,2.494a.588.588,0,0,1-.247.074m9.924-7.237a.595.595,0,0,1-.448-1.027c1.121-1.053,2.205-2.172,3.224-3.327a.595.595,0,1,1,.892.787c-1.043,1.182-2.154,2.328-3.3,3.407a.6.6,0,0,1-.366.16m7.85-9.447a.595.595,0,0,1-.541-.914c.83-1.294,1.61-2.644,2.318-4.013a.595.595,0,0,1,1.056.546c-.725,1.4-1.523,2.784-2.374,4.109a.594.594,0,0,1-.46.272m5.323-11.074a.588.588,0,0,1-.231-.03.6.6,0,0,1-.373-.754c.493-1.46.923-2.959,1.276-4.456a.595.595,0,0,1,1.158.274c-.362,1.533-.8,3.068-1.307,4.563a.6.6,0,0,1-.523.4m2.477-12.035a.655.655,0,0,1-.089,0,.6.6,0,0,1-.546-.64c.122-1.538.173-3.1.15-4.634a.588.588,0,0,1,.586-.6.594.594,0,0,1,.6.585c.023,1.575-.028,3.172-.153,4.746a.6.6,0,0,1-.551.546m-.547-12.279a.6.6,0,0,1-.627-.493c-.258-1.517-.591-3.041-.991-4.529a.595.595,0,0,1,1.149-.309c.409,1.524.75,3.084,1.015,4.638a.6.6,0,0,1-.487.686c-.02,0-.039.006-.059.007M588.2,218.339a.594.594,0,0,1-.586-.355c-.62-1.415-1.311-2.813-2.055-4.155a.595.595,0,1,1,1.04-.576c.761,1.374,1.469,2.805,2.1,4.254a.6.6,0,0,1-.306.783.585.585,0,0,1-.2.049" transform="translate(-455.134 -178.653)" fill="url(#linear-gradient)"/>
      <path id="Path_610196" data-name="Path 610196" d="M483.522,670.95a.6.6,0,0,1-.124,0c-.788-.11-1.586-.241-2.373-.389a.595.595,0,1,1,.219-1.169c.768.144,1.548.272,2.319.38a.595.595,0,0,1-.041,1.182" transform="translate(-403.153 -561.579)" fill="url(#linear-gradient)"/>
      <path id="Path_610197" data-name="Path 610197" d="M278.882,536.071a.594.594,0,0,1-.525-.246c-.462-.644-.917-1.313-1.355-1.989a.595.595,0,0,1,1-.646c.427.66.872,1.313,1.323,1.942a.595.595,0,0,1-.442.94" transform="translate(-232.314 -447.095)" fill="url(#linear-gradient)"/>
      <path id="Path_610198" data-name="Path 610198" d="M232.481,124.956a.594.594,0,0,1-.583-.348c-.5-1.109-.968-2.251-1.389-3.394q-.174-.473-.337-.945a.595.595,0,0,1,1.124-.39q.16.462.329.924c.411,1.117.868,2.233,1.356,3.316a.6.6,0,0,1-.3.787.587.587,0,0,1-.2.051m-3.626-11.535a.6.6,0,0,1-.625-.484c-.284-1.525-.5-3.082-.641-4.627a.6.6,0,0,1,.538-.646.6.6,0,0,1,.646.538c.138,1.509.349,3.029.626,4.518a.6.6,0,0,1-.476.693.561.561,0,0,1-.069.009m-.749-12.07a.729.729,0,0,1-.077,0,.6.6,0,0,1-.558-.63c.093-1.548.259-3.111.5-4.644a.595.595,0,1,1,1.176.181c-.23,1.5-.393,3.022-.484,4.535a.594.594,0,0,1-.552.557m2.179-11.892a.588.588,0,0,1-.218-.026.594.594,0,0,1-.391-.744c.462-1.481,1-2.958,1.593-4.39a.594.594,0,1,1,1.1.456c-.581,1.4-1.1,2.841-1.555,4.287a.6.6,0,0,1-.527.416m4.958-11.026a.595.595,0,0,1-.549-.9c.8-1.326,1.673-2.632,2.593-3.882a.595.595,0,0,1,.957.706c-.9,1.22-1.751,2.5-2.533,3.791a.6.6,0,0,1-.469.286m7.448-9.52a.594.594,0,0,1-.462-1.013c1.094-1.1,2.255-2.153,3.449-3.145a.595.595,0,0,1,.76.915c-1.166.968-2.3,2-3.368,3.071a.591.591,0,0,1-.379.173m9.519-7.446a.6.6,0,0,1-.348-1.1c1.328-.8,2.71-1.546,4.107-2.221a.595.595,0,0,1,.517,1.071c-1.364.658-2.714,1.388-4.01,2.169a.6.6,0,0,1-.265.084m11.031-4.944a.595.595,0,0,1-.217-1.161c1.481-.462,3-.859,4.518-1.183a.595.595,0,0,1,.248,1.164c-1.481.316-2.966.7-4.413,1.154a.583.583,0,0,1-.136.026m16.51-2.231c-.02,0-.041,0-.062,0-1.516-.052-3.05-.033-4.56.057a.595.595,0,0,1-.076-1.187h.006c1.547-.092,3.118-.111,4.671-.059a.595.595,0,0,1,.021,1.188" transform="translate(-190.838 -44.529)" fill="url(#linear-gradient)"/>
      <path id="Path_610199" data-name="Path 610199" d="M597.564,60.03a.608.608,0,0,1-.179-.014c-.756-.18-1.529-.343-2.3-.487a.594.594,0,1,1,.218-1.169c.787.147,1.579.315,2.353.5a.595.595,0,0,1-.1,1.172" transform="translate(-498.848 -48.952)" fill="url(#linear-gradient)"/>
    </g>
    <g id="Group_1072492" data-name="Group 1072492" transform="translate(242.463 15334.621)" clip-path="url(#clip-path-4)">
      <rect id="Rectangle_377794" data-name="Rectangle 377794" width="107.444" height="107.444" transform="translate(-38.024 37.755) rotate(-44.834)" fill="#727997"/>
    </g>
    <g id="Group_1072500" data-name="Group 1072500" transform="translate(193.087 15313)" clip-path="url(#clip-path-5)">
      <g id="Group_1072496" data-name="Group 1072496" transform="translate(78.644 50.891)" opacity="0.57">
        <g id="Group_1072495" data-name="Group 1072495">
          <g id="Group_1072494" data-name="Group 1072494" clip-path="url(#clip-path-6)">
            <path id="Path_610201" data-name="Path 610201" d="M497.637,333.351a8.73,8.73,0,0,1-2.482-.187,8.629,8.629,0,1,1,2.482.187m-1.094-15.541a6.915,6.915,0,1,0,1.972.149,6.858,6.858,0,0,0-1.972-.149" transform="translate(-488.347 -316.01)" fill="#fff"/>
          </g>
        </g>
      </g>
      <g id="Group_1072499" data-name="Group 1072499" transform="translate(65.194 37.818)" opacity="0.57">
        <g id="Group_1072498" data-name="Group 1072498">
          <g id="Group_1072497" data-name="Group 1072497" clip-path="url(#clip-path-7)">
            <path id="Path_610202" data-name="Path 610202" d="M428.371,278.765a22.076,22.076,0,0,1-22.407-15.058,22.2,22.2,0,0,1-1.084-5.471A22.077,22.077,0,0,1,419.94,235.83c.146-.048.292-.1.439-.14a22.176,22.176,0,0,1,3.682-.8c.155-.021.31-.039.465-.056l.193,1.774a20.4,20.4,0,0,0-4.217.921,20.119,20.119,0,0,0-11.327,9.388q-.208.376-.4.762a20.141,20.141,0,0,0-2.112,10.442,20.381,20.381,0,0,0,1,5.029,20.266,20.266,0,1,0,32.46-21.747l1.163-1.353a22.071,22.071,0,0,1-12.909,38.72" transform="translate(-404.829 -234.829)" fill="#fff"/>
          </g>
        </g>
      </g>
      <path id="Path_610203" data-name="Path 610203" d="M440.107,632a.725.725,0,0,1-.645-.306c-.545-.773-1.131-1.527-1.743-2.243a.727.727,0,0,1,1.106-.945c.641.75,1.255,1.541,1.826,2.35a.727.727,0,0,1-.544,1.144" transform="translate(-367.082 -527.081)" fill="#eac4f9"/>
      <path id="Path_610204" data-name="Path 610204" d="M331.247,737.422a.727.727,0,0,1-.2-1.436,31.014,31.014,0,0,0,4.095-1.2q.709-.26,1.4-.551a.727.727,0,1,1,.567,1.339q-.718.3-1.46.577a32.435,32.435,0,0,1-4.287,1.252.688.688,0,0,1-.106.015M345,730.614a.727.727,0,0,1-.523-1.279,30.629,30.629,0,0,0,4.006-4.134.727.727,0,0,1,1.135.91,32.143,32.143,0,0,1-4.2,4.331.723.723,0,0,1-.421.172m8.88-12.509a.728.728,0,0,1-.727-.99,30.887,30.887,0,0,0,1.582-5.539.727.727,0,0,1,1.43.267,32.393,32.393,0,0,1-1.657,5.8.727.727,0,0,1-.628.461m1.919-15.223a.727.727,0,0,1-.771-.637,30.805,30.805,0,0,0-1.238-5.625.727.727,0,0,1,1.385-.445,32.274,32.274,0,0,1,1.3,5.892.728.728,0,0,1-.633.811l-.04,0" transform="translate(-277.251 -583.637)" fill="#eac4f9"/>
      <path id="Path_610205" data-name="Path 610205" d="M256.8,948.876a.708.708,0,0,1-.119,0c-.986-.092-1.976-.232-2.946-.415a.727.727,0,1,1,.269-1.43c.925.174,1.871.308,2.812.4a.727.727,0,0,1-.017,1.45" transform="translate(-212.375 -794.51)" fill="#eac4f9"/>
      <path id="Path_610206" data-name="Path 610206" d="M122.968,857.69a.727.727,0,0,1-.642-.3c-.574-.8-1.119-1.641-1.619-2.5a.727.727,0,1,1,1.256-.733c.477.817,1,1.619,1.546,2.383a.727.727,0,0,1-.54,1.149" transform="translate(-101.185 -716.3)" fill="#eac4f9"/>
      <path id="Path_610207" data-name="Path 610207" d="M95.583,602.021a.728.728,0,0,1-.757-.559,32.1,32.1,0,0,1-.774-5.124q-.026-.377-.043-.755a.752.752,0,0,1,.694-.759.728.728,0,0,1,.759.694c.011.24.024.479.041.719a30.686,30.686,0,0,0,.739,4.892A.728.728,0,0,1,95.7,602a.741.741,0,0,1-.117.017m.192-15.091a.711.711,0,0,1-.234-.022.727.727,0,0,1-.52-.887,32.471,32.471,0,0,1,2.021-5.575.728.728,0,0,1,1.317.62,30.926,30.926,0,0,0-1.931,5.324.728.728,0,0,1-.654.541m7.2-13.264a.727.727,0,0,1-.588-1.215,32.146,32.146,0,0,1,4.384-4,.727.727,0,0,1,.876,1.161,30.689,30.689,0,0,0-4.184,3.815.724.724,0,0,1-.487.236m12.55-8.375a.727.727,0,0,1-.3-1.41,32.406,32.406,0,0,1,5.739-1.5.711.711,0,0,1,.836.6.727.727,0,0,1-.6.835,30.987,30.987,0,0,0-5.482,1.43.715.715,0,0,1-.2.041" transform="translate(-78.869 -471.805)" fill="#eac4f9"/>
      <path id="Path_610208" data-name="Path 610208" d="M319.766,563.715a.741.741,0,0,1-.218-.018c-.918-.218-1.857-.4-2.79-.526a.727.727,0,0,1,.2-1.441c.978.137,1.962.322,2.924.55a.727.727,0,0,1-.117,1.433" transform="translate(-265.221 -471.263)" fill="#eac4f9"/>
    </g>
    <g id="Group_1072502" data-name="Group 1072502" transform="translate(216.609 15411.723)" clip-path="url(#clip-path-8)">
      <rect id="Rectangle_377798" data-name="Rectangle 377798" width="48.402" height="48.433" transform="translate(-0.723 47.705) rotate(-89.17)" fill="#d2e1f1"/>
    </g>
    <g id="Group_1072510" data-name="Group 1072510" transform="translate(193.087 15313)" clip-path="url(#clip-path-5)">
      <g id="Group_1072506" data-name="Group 1072506" transform="translate(41.383 116.585)" opacity="0.57">
        <g id="Group_1072505" data-name="Group 1072505">
          <g id="Group_1072504" data-name="Group 1072504" clip-path="url(#clip-path-10)">
            <path id="Path_610210" data-name="Path 610210" d="M263.374,735.886a5.982,5.982,0,0,1-3.64-11.01h0a5.983,5.983,0,1,1,3.64,11.01m-2.466-9.17a3.8,3.8,0,1,0,5.248,1.159,3.8,3.8,0,0,0-5.248-1.159" transform="translate(-256.971 -723.939)" fill="#fff"/>
          </g>
        </g>
      </g>
      <g id="Group_1072509" data-name="Group 1072509" transform="translate(32.929 108.37)" opacity="0.57">
        <g id="Group_1072508" data-name="Group 1072508">
          <g id="Group_1072507" data-name="Group 1072507" clip-path="url(#clip-path-11)">
            <path id="Path_610211" data-name="Path 610211" d="M219.833,701.595a14.4,14.4,0,0,1-14.616-9.823,14.475,14.475,0,0,1-.707-3.569,14.4,14.4,0,0,1,9.824-14.615,14.438,14.438,0,0,1,2.991-.653l.235,2.169a12.221,12.221,0,0,0-9.4,6.289l-.066.123c-.045.084-.088.169-.131.254a12.129,12.129,0,0,0-1.271,6.287,12.268,12.268,0,0,0,.6,3.027,12.205,12.205,0,0,0,23.759-4.664,12.262,12.262,0,0,0-4.215-8.428l1.422-1.654a14.4,14.4,0,0,1-8.42,25.257" transform="translate(-204.476 -672.934)" fill="#fff"/>
          </g>
        </g>
      </g>
    </g>
    <g id="Group_1072512" data-name="Group 1072512" transform="translate(392.131 15475.958)" clip-path="url(#clip-path-12)">
      <rect id="Rectangle_377802" data-name="Rectangle 377802" width="197.152" height="202.51" transform="translate(-51.247 128.601) rotate(-68.273)" fill="#0c5e46"/>
    </g>
    <g id="Group_1072514" data-name="Group 1072514" transform="translate(322.374 15475.79)" clip-path="url(#clip-path-13)">
      <rect id="Rectangle_377803" data-name="Rectangle 377803" width="152.079" height="116.451" transform="translate(-25.608 132.103) rotate(-79.029)" fill="#b0c0d2"/>
    </g>
    <g id="Group_1072516" data-name="Group 1072516" transform="translate(275.103 15448.183)" clip-path="url(#clip-path-14)">
      <rect id="Rectangle_377804" data-name="Rectangle 377804" width="161.001" height="171.476" transform="matrix(0.226, -0.974, 0.974, 0.226, -35.793, 124.77)" fill="#b0c0d2"/>
    </g>
    <g id="Group_1072518" data-name="Group 1072518" transform="translate(430.118 15339.88)" clip-path="url(#clip-path-15)">
      <rect id="Rectangle_377805" data-name="Rectangle 377805" width="206.772" height="205.784" transform="matrix(0.546, -0.838, 0.838, 0.546, -69.116, 105.768)" fill="url(#linear-gradient-11)"/>
    </g>
    <g id="Group_1072520" data-name="Group 1072520" transform="translate(295.016 15337.811)" clip-path="url(#clip-path-16)">
      <rect id="Rectangle_377806" data-name="Rectangle 377806" width="183.012" height="146.51" transform="matrix(0.999, -0.046, 0.046, 0.999, -6.424, 0.298)" fill="#12263f"/>
    </g>
    <g id="Group_1072522" data-name="Group 1072522" transform="translate(277.836 15404.304)" clip-path="url(#clip-path-17)">
      <rect id="Rectangle_377807" data-name="Rectangle 377807" width="137.318" height="152.389" transform="translate(-33.972 47.812) rotate(-54.605)" fill="#b0c0d2"/>
    </g>
    <g id="Group_1072524" data-name="Group 1072524" transform="translate(193.087 15313)" clip-path="url(#clip-path-5)">
      <path id="Path_610218" data-name="Path 610218" d="M775.12,225.705a1.1,1.1,0,0,1-.775-1.875,134.2,134.2,0,0,1,115.966-37.655c1.9.3,3.819.646,5.7,1.026a1.1,1.1,0,0,1-.435,2.152c-1.852-.374-3.74-.713-5.61-1.009A132,132,0,0,0,775.9,225.385a1.1,1.1,0,0,1-.775.32" transform="translate(-649.373 -154.811)" fill="#fff"/>
      <path id="Path_610219" data-name="Path 610219" d="M573.886,1099.849a1.093,1.093,0,0,1-.756-.3,134.675,134.675,0,0,1-41.858-99.63,1.082,1.082,0,0,1,1.116-1.078,1.1,1.1,0,0,1,1.078,1.117,132.477,132.477,0,0,0,41.176,98,1.1,1.1,0,0,1-.757,1.893" transform="translate(-445.698 -837.982)" fill="#fff"/>
      <path id="Path_610220" data-name="Path 610220" d="M1565.746,1593.336a1.1,1.1,0,0,1-.273-2.161,131.845,131.845,0,0,0,67.861-42.426,1.1,1.1,0,1,1,1.671,1.424,134.029,134.029,0,0,1-68.985,43.129,1.1,1.1,0,0,1-.274.035" transform="translate(-1312.676 -1299.012)" fill="#fff"/>
      <path id="Path_610221" data-name="Path 610221" d="M1669.641,270.637a1.1,1.1,0,0,1-.983-1.585l31.394-63.441,1.024.627A188.875,188.875,0,0,1,1731,229.125a1.1,1.1,0,0,1-1.487,1.615,187.7,187.7,0,0,0-28.56-22l-30.328,61.285a1.1,1.1,0,0,1-.984.611" transform="translate(-1399.84 -172.499)" fill="#fff"/>
      <path id="Path_610222" data-name="Path 610222" d="M1588.17,852.7a1.086,1.086,0,0,1-.2-.019l-70.8-13.229a1.659,1.659,0,0,1-1.182-2.366l6.39-12.9a1.1,1.1,0,0,1,1.968.974l-6.075,12.269,70.107,13.1a1.1,1.1,0,0,1-.2,2.177" transform="translate(-1271.699 -690.94)" fill="#fff"/>
    </g>
    <g id="Group_1072526" data-name="Group 1072526" transform="translate(483.656 15441.95)" clip-path="url(#clip-path-19)">
      <rect id="Rectangle_377809" data-name="Rectangle 377809" width="339.708" height="329.93" transform="translate(-154.149 169.564) rotate(-47.726)" fill="#03386e"/>
    </g>
    <g id="Group_1072528" data-name="Group 1072528" transform="translate(414.318 15584.628)" clip-path="url(#clip-path-20)">
      <rect id="Rectangle_377810" data-name="Rectangle 377810" width="195.337" height="205.869" transform="translate(-79.256 57.195) rotate(-35.816)" fill="#6debff"/>
    </g>
    <g id="Group_1072530" data-name="Group 1072530" transform="translate(296.61 15569.351)" clip-path="url(#clip-path-21)">
      <rect id="Rectangle_377811" data-name="Rectangle 377811" width="236.677" height="228.517" transform="translate(-78.301 136.525) rotate(-60.165)" fill="#03386e"/>
    </g>
    <g id="Group_1072532" data-name="Group 1072532" transform="translate(201.931 15623.788)" clip-path="url(#clip-path-22)">
      <rect id="Rectangle_377812" data-name="Rectangle 377812" width="195.7" height="195.257" transform="translate(-64.109 62.121) rotate(-44.098)" fill="#6debff"/>
    </g>
    <g id="Group_1072534" data-name="Group 1072534" transform="translate(193.087 15313)" clip-path="url(#clip-path-5)">
      <path id="Path_610227" data-name="Path 610227" d="M2757.823,1015.717a.824.824,0,0,1-.819-.916l.59-5.2a.823.823,0,1,1,1.636.185l-.589,5.2a.823.823,0,0,1-.817.731" transform="translate(-2313.007 -846.399)" fill="#fff"/>
      <path id="Path_610228" data-name="Path 610228" d="M2294.5,946.26a.823.823,0,0,1-.652-1.326l73.809-95.9a3.088,3.088,0,0,1,5.516,2.231l-1.3,11.5a.823.823,0,1,1-1.636-.185l1.3-11.5a1.442,1.442,0,0,0-2.575-1.042l-73.809,95.9a.823.823,0,0,1-.653.321" transform="translate(-1924.303 -711.281)" fill="#fff"/>
      <path id="Path_610229" data-name="Path 610229" d="M1254.755,1766.543a.824.824,0,0,1-.682-1.284l38.172-56.581a6.721,6.721,0,0,1,11.647.883.823.823,0,0,1-1.489.7,5.074,5.074,0,0,0-8.793-.667l-38.172,56.582a.823.823,0,0,1-.683.363" transform="translate(-1051.998 -1431.024)" fill="#fff"/>
      <path id="Path_610230" data-name="Path 610230" d="M1193.16,2147.256a.823.823,0,0,1-.682-1.284l2.448-3.628a.823.823,0,1,1,1.365.921l-2.448,3.628a.823.823,0,0,1-.683.363" transform="translate(-1000.322 -1797.033)" fill="#fff"/>
    </g>
    <g id="Group_1072536" data-name="Group 1072536" transform="translate(469.437 15391.735)" clip-path="url(#clip-path-24)">
      <rect id="Rectangle_377814" data-name="Rectangle 377814" width="58.945" height="59.018" transform="matrix(0.621, -0.784, 0.784, 0.621, -20.778, 25.65)" fill="url(#linear-gradient-12)"/>
    </g>
    <g id="Group_1072538" data-name="Group 1072538" transform="translate(470.123 15392.422)" clip-path="url(#clip-path-25)">
      <rect id="Rectangle_377815" data-name="Rectangle 377815" width="55.659" height="55.806" transform="translate(-18.308 29.567) rotate(-58.848)" fill="#eba325"/>
    </g>
    <g id="Group_1072543" data-name="Group 1072543" transform="translate(193.087 15313)" clip-path="url(#clip-path-5)">
      <path id="Path_610233" data-name="Path 610233" d="M1736.547,510.724a.667.667,0,0,1-.635-.943,19.019,19.019,0,0,1,16.615-11.2,19.288,19.288,0,0,1,3.455.168.667.667,0,1,1-.185,1.322,18.028,18.028,0,0,0-3.215-.156,17.691,17.691,0,0,0-15.454,10.414.667.667,0,0,1-.581.391" transform="translate(-1456.308 -418.278)" fill="#fff"/>
      <g id="Group_1072542" data-name="Group 1072542" transform="translate(280.557 82.908)" opacity="0.78">
        <g id="Group_1072541" data-name="Group 1072541">
          <g id="Group_1072540" data-name="Group 1072540" clip-path="url(#clip-path-27)">
            <path id="Path_610234" data-name="Path 610234" d="M1775.921,531.022a16.9,16.9,0,1,1-17.579-16.192,16.9,16.9,0,0,1,17.579,16.192" transform="translate(-1742.136 -514.817)" fill="#fff"/>
          </g>
        </g>
      </g>
    </g>
    <g id="Group_1072545" data-name="Group 1072545" transform="translate(482.992 15400.832)" clip-path="url(#clip-path-28)">
      <rect id="Rectangle_377818" data-name="Rectangle 377818" width="29.327" height="28.981" transform="matrix(0.69, -0.724, 0.724, 0.69, -12.922, 13.447)" fill="#eba325"/>
    </g>
    <g id="Group_1072547" data-name="Group 1072547" transform="translate(508.811 15330.636)" clip-path="url(#clip-path-29)">
      <rect id="Rectangle_377819" data-name="Rectangle 377819" width="96.197" height="96.317" transform="matrix(0.621, -0.784, 0.784, 0.621, -33.91, 41.861)" fill="url(#linear-gradient-13)"/>
    </g>
    <g id="Group_1072549" data-name="Group 1072549" transform="translate(509.932 15331.757)" clip-path="url(#clip-path-30)">
      <rect id="Rectangle_377820" data-name="Rectangle 377820" width="90.835" height="91.076" transform="translate(-29.879 48.253) rotate(-58.848)" fill="#eba325"/>
    </g>
    <g id="Group_1072554" data-name="Group 1072554" transform="translate(193.087 15313)" clip-path="url(#clip-path-5)">
      <path id="Path_610238" data-name="Path 610238" d="M1996.419,147.056a.626.626,0,0,1-.595-.884,30.578,30.578,0,0,1,26.713-18,30.907,30.907,0,0,1,5.555.271.626.626,0,1,1-.174,1.239,29.7,29.7,0,0,0-5.33-.259,29.334,29.334,0,0,0-25.625,17.267.625.625,0,0,1-.544.367" transform="translate(-1674.367 -107.507)" fill="#fff"/>
      <g id="Group_1072553" data-name="Group 1072553" transform="translate(322.588 24.443)" opacity="0.78">
        <g id="Group_1072552" data-name="Group 1072552">
          <g id="Group_1072551" data-name="Group 1072551" clip-path="url(#clip-path-32)">
            <path id="Path_610239" data-name="Path 610239" d="M2058.28,178.231a27.58,27.58,0,1,1-28.689-26.425,27.581,27.581,0,0,1,28.689,26.425" transform="translate(-2003.141 -151.782)" fill="#fff"/>
          </g>
        </g>
      </g>
    </g>
    <g id="Group_1072556" data-name="Group 1072556" transform="translate(530.934 15345.482)" clip-path="url(#clip-path-33)">
      <rect id="Rectangle_377823" data-name="Rectangle 377823" width="47.862" height="47.298" transform="translate(-21.089 21.945) rotate(-46.394)" fill="#eba325"/>
    </g>
    <g id="Group_1072558" data-name="Group 1072558" transform="translate(534.152 15403.928)" clip-path="url(#clip-path-34)">
      <rect id="Rectangle_377824" data-name="Rectangle 377824" width="98.986" height="99.109" transform="matrix(0.621, -0.784, 0.784, 0.621, -34.893, 43.074)" fill="url(#linear-gradient-14)"/>
    </g>
    <g id="Group_1072560" data-name="Group 1072560" transform="translate(535.305 15405.081)" clip-path="url(#clip-path-35)">
      <rect id="Rectangle_377825" data-name="Rectangle 377825" width="93.468" height="93.716" transform="matrix(0.517, -0.856, 0.856, 0.517, -30.745, 49.652)" fill="#eba325"/>
    </g>
    <g id="Group_1072565" data-name="Group 1072565" transform="translate(193.087 15313)" clip-path="url(#clip-path-5)">
      <path id="Path_610243" data-name="Path 610243" d="M2154.912,603.334a.626.626,0,0,1-.595-.884,31.446,31.446,0,0,1,27.471-18.512,31.82,31.82,0,0,1,5.713.279.626.626,0,1,1-.174,1.239,30.626,30.626,0,0,0-5.488-.267,30.2,30.2,0,0,0-26.383,17.778.626.626,0,0,1-.545.367" transform="translate(-1807.336 -489.877)" fill="#fff"/>
      <g id="Group_1072564" data-name="Group 1072564" transform="translate(348.128 97.933)" opacity="0.78">
        <g id="Group_1072563" data-name="Group 1072563">
          <g id="Group_1072562" data-name="Group 1072562" clip-path="url(#clip-path-37)">
            <path id="Path_610244" data-name="Path 610244" d="M2218.471,635.335a28.38,28.38,0,1,1-29.521-27.191,28.38,28.38,0,0,1,29.521,27.191" transform="translate(-2161.733 -608.12)" fill="#fff"/>
          </g>
        </g>
      </g>
    </g>
    <g id="Group_1072567" data-name="Group 1072567" transform="translate(556.916 15419.204)" clip-path="url(#clip-path-38)">
      <rect id="Rectangle_377828" data-name="Rectangle 377828" width="49.249" height="48.669" transform="translate(-21.701 22.581) rotate(-46.394)" fill="#eba325"/>
    </g>
    <g id="Group_1072569" data-name="Group 1072569" transform="translate(582.002 15351.383)" clip-path="url(#clip-path-39)">
      <rect id="Rectangle_377829" data-name="Rectangle 377829" width="79.165" height="79.264" transform="translate(-27.906 34.449) rotate(-51.604)" fill="url(#linear-gradient-15)"/>
    </g>
    <g id="Group_1072571" data-name="Group 1072571" transform="translate(582.924 15352.306)" clip-path="url(#clip-path-40)">
      <rect id="Rectangle_377830" data-name="Rectangle 377830" width="74.752" height="74.95" transform="matrix(0.517, -0.856, 0.856, 0.517, -24.589, 39.71)" fill="#eba325"/>
    </g>
    <g id="Group_1072576" data-name="Group 1072576" transform="translate(193.087 15313)" clip-path="url(#clip-path-5)">
      <path id="Path_610248" data-name="Path 610248" d="M2443.681,268.529a.683.683,0,0,1-.649-.965,25.332,25.332,0,0,1,22.129-14.912,25.659,25.659,0,0,1,4.6.224.683.683,0,1,1-.19,1.353,24.351,24.351,0,0,0-4.356-.212,23.973,23.973,0,0,0-20.941,14.111.683.683,0,0,1-.595.4" transform="translate(-2049.551 -211.946)" fill="#fff"/>
      <g id="Group_1072575" data-name="Group 1072575" transform="translate(394.564 43.986)" opacity="0.78">
        <g id="Group_1072574" data-name="Group 1072574">
          <g id="Group_1072573" data-name="Group 1072573" clip-path="url(#clip-path-42)">
            <path id="Path_610249" data-name="Path 610249" d="M2495.46,294.893a22.7,22.7,0,1,1-23.61-21.746,22.7,22.7,0,0,1,23.61,21.746" transform="translate(-2450.083 -273.127)" fill="#fff"/>
          </g>
        </g>
      </g>
    </g>
    <g id="Group_1072578" data-name="Group 1072578" transform="translate(600.208 15363.601)" clip-path="url(#clip-path-43)">
      <rect id="Rectangle_377833" data-name="Rectangle 377833" width="39.388" height="38.924" transform="translate(-17.355 18.06) rotate(-46.394)" fill="#eba325"/>
    </g>
    <g id="Group_1072580" data-name="Group 1072580" transform="translate(265.499 15751.506)" clip-path="url(#clip-path-44)">
      <rect id="Rectangle_377834" data-name="Rectangle 377834" width="38.807" height="4.166" transform="translate(0)" fill="url(#linear-gradient-16)"/>
    </g>
    <g id="Group_1072582" data-name="Group 1072582" transform="translate(265.496 15738.193)" clip-path="url(#clip-path-45)">
      <rect id="Rectangle_377835" data-name="Rectangle 377835" width="37.44" height="15.443" transform="translate(-0.042 0)" fill="url(#linear-gradient-17)"/>
    </g>
    <g id="Group_1072584" data-name="Group 1072584" transform="translate(269.051 15728.707)" clip-path="url(#clip-path-46)">
      <rect id="Rectangle_377836" data-name="Rectangle 377836" width="10.84" height="13.258" fill="url(#linear-gradient-18)"/>
    </g>
    <g id="Group_1072586" data-name="Group 1072586" transform="translate(196.811 15759.432)" clip-path="url(#clip-path-47)">
      <rect id="Rectangle_377837" data-name="Rectangle 377837" width="15.071" height="6.957" transform="translate(-0.324)" fill="url(#linear-gradient-19)"/>
    </g>
    <g id="Group_1072588" data-name="Group 1072588" transform="translate(196.918 15732.021)" clip-path="url(#clip-path-48)">
      <rect id="Rectangle_377838" data-name="Rectangle 377838" width="22.547" height="32.759" transform="translate(0 -0.002)" fill="url(#linear-gradient-20)"/>
    </g>
    <g id="Group_1072590" data-name="Group 1072590" transform="translate(208.169 15722.035)" clip-path="url(#clip-path-49)">
      <rect id="Rectangle_377839" data-name="Rectangle 377839" width="13.195" height="15.405" transform="translate(-0.24)" fill="url(#linear-gradient-21)"/>
    </g>
    <g id="Group_1072592" data-name="Group 1072592" transform="translate(208.839 15579.648)" clip-path="url(#clip-path-50)">
      <rect id="Rectangle_377840" data-name="Rectangle 377840" width="175.626" height="179.194" transform="matrix(0.736, -0.677, 0.677, 0.736, -77.443, 71.164)" fill="url(#linear-gradient-22)"/>
    </g>
    <g id="Group_1072594" data-name="Group 1072594" transform="translate(274.841 15604.875)" clip-path="url(#clip-path-51)">
      <rect id="Rectangle_377841" data-name="Rectangle 377841" width="22.787" height="22.821" transform="translate(-6.944 13.423) rotate(-62.978)" fill="url(#linear-gradient-23)"/>
    </g>
    <g id="Group_1072596" data-name="Group 1072596" transform="translate(354.88 15437.104)" clip-path="url(#clip-path-52)">
      <rect id="Rectangle_377842" data-name="Rectangle 377842" width="86.894" height="86.121" transform="translate(-30.826 40.104) rotate(-52.452)" fill="url(#linear-gradient-24)"/>
    </g>
    <g id="Group_1072598" data-name="Group 1072598" transform="translate(223.574 15478.52)" clip-path="url(#clip-path-53)">
      <rect id="Rectangle_377843" data-name="Rectangle 377843" width="180.012" height="184.828" transform="translate(-64.098 63.841) rotate(-49.844)" fill="#abd24e"/>
    </g>
    <g id="Group_1072600" data-name="Group 1072600" transform="translate(193.087 15313)" clip-path="url(#clip-path-5)">
      <path id="Path_610261" data-name="Path 610261" d="M701.982,1106.078a.7.7,0,0,1-.7-.61c-1.978-14.937-6-21.456-6.044-21.52a.7.7,0,0,1,1.186-.752c.172.27,4.227,6.8,6.25,22.088a.7.7,0,0,1-.7.794" transform="translate(-583.188 -908.483)" fill="#eeaa4e"/>
    </g>
    <g id="Group_1072602" data-name="Group 1072602" transform="translate(265.787 15458.201)" clip-path="url(#clip-path-55)">
      <rect id="Rectangle_377845" data-name="Rectangle 377845" width="33.438" height="26.085" transform="matrix(0.187, -0.982, 0.982, 0.187, -5.691, 29.019)" fill="url(#linear-gradient-25)"/>
    </g>
    <g id="Group_1072604" data-name="Group 1072604" transform="translate(263.537 15434.508)" clip-path="url(#clip-path-56)">
      <rect id="Rectangle_377846" data-name="Rectangle 377846" width="45.244" height="45.642" transform="translate(-17.229 12.364) rotate(-37.421)" fill="url(#linear-gradient-26)"/>
    </g>
    <g id="Group_1072606" data-name="Group 1072606" transform="translate(253.485 15420.459)" clip-path="url(#clip-path-57)">
      <rect id="Rectangle_377847" data-name="Rectangle 377847" width="58.036" height="57.482" transform="translate(-20.46 14.898) rotate(-37.837)" fill="url(#linear-gradient-27)"/>
    </g>
    <g id="Group_1072608" data-name="Group 1072608" transform="translate(263.925 15447.444)" clip-path="url(#clip-path-58)">
      <rect id="Rectangle_377848" data-name="Rectangle 377848" width="13.584" height="13.662" transform="translate(-7.261 3.666) rotate(-37.421)" fill="url(#linear-gradient-28)"/>
    </g>
    <g id="Group_1072610" data-name="Group 1072610" transform="translate(193.087 15313)" clip-path="url(#clip-path-5)">
      <path id="Path_610266" data-name="Path 610266" d="M1213.053,832.55a.7.7,0,0,1-.544-1.145c.607-.747,5.991-7.33,8.066-8.5.755-.426,1.2-.867,1.3-1.274a1.036,1.036,0,0,0-.094-.661l-6.327,1.268-3.584,3.075a.7.7,0,0,1-.915-1.066l3.724-3.2a.708.708,0,0,1,.319-.155l7-1.4a.7.7,0,0,1,.721.3,2.675,2.675,0,0,1,.519,2.164,3.618,3.618,0,0,1-1.976,2.174c-1.56.882-6.063,6.193-7.667,8.165a.7.7,0,0,1-.545.259" transform="translate(-1015.736 -687.508)" fill="#f8a570"/>
    </g>
    <g id="Group_1072612" data-name="Group 1072612" transform="translate(244.098 15551.958)" clip-path="url(#clip-path-60)">
      <rect id="Rectangle_377850" data-name="Rectangle 377850" width="47.836" height="55.631" transform="matrix(0.555, -0.832, 0.832, 0.555, -10.733, 16.099)" fill="url(#linear-gradient-29)"/>
    </g>
    <g id="Group_1072614" data-name="Group 1072614" transform="translate(270.688 15572.467)" clip-path="url(#clip-path-61)">
      <rect id="Rectangle_377851" data-name="Rectangle 377851" width="26.7" height="66.836" transform="matrix(0.312, -0.95, 0.95, 0.312, -1.671, 5.089)" fill="url(#linear-gradient-30)"/>
    </g>
    <g id="Group_1072616" data-name="Group 1072616" transform="translate(307.296 15521.63)" clip-path="url(#clip-path-62)">
      <rect id="Rectangle_377852" data-name="Rectangle 377852" width="104.561" height="103.226" transform="matrix(0.726, -0.687, 0.687, 0.726, -28.175, 26.657)" fill="url(#linear-gradient-31)"/>
    </g>
    <g id="Group_1072618" data-name="Group 1072618" transform="translate(355.485 15542.476)" clip-path="url(#clip-path-63)">
      <rect id="Rectangle_377853" data-name="Rectangle 377853" width="15.868" height="16.798" transform="matrix(0.833, -0.553, 0.553, 0.833, -6.824, 4.114)" fill="url(#linear-gradient-32)"/>
    </g>
    <rect id="Rectangle_377854" data-name="Rectangle 377854" width="454.913" height="453.388" transform="translate(193.087 15313)" fill="none"/>
  </g>
</svg>
