<svg xmlns="http://www.w3.org/2000/svg" xmlns:xlink="http://www.w3.org/1999/xlink" width="295" height="154" viewBox="0 0 295 154">
  <defs>
    <clipPath id="clip-path">
      <rect id="Rectangle_377866" data-name="Rectangle 377866" width="295" height="154" transform="translate(180 14924.744)" fill="#fff" stroke="#707070" stroke-width="1"/>
    </clipPath>
    <clipPath id="clip-path-2">
      <rect id="Rectangle_377864" data-name="Rectangle 377864" width="154.943" height="150.339" fill="none"/>
    </clipPath>
  </defs>
  <g id="Mask_Group_154291" data-name="Mask Group 154291" transform="translate(-180 -14924.744)" clip-path="url(#clip-path)">
    <circle id="Ellipse_5687" data-name="Ellipse 5687" cx="86" cy="86" r="86" transform="translate(242 14924.744)" fill="#6debff"/>
    <g id="Group_1072634" data-name="Group 1072634" transform="translate(250 14928.327)">
      <g id="Group_1072634-2" data-name="Group 1072634" clip-path="url(#clip-path-2)">
        <path id="Path_610281" data-name="Path 610281" d="M46.814,125.2l13.01,3.487c1.432,1.081,2.416,2.7,4.131,3.438a66.529,66.529,0,0,1,4.855,21.871c.255,4.52.189,8.971-4.852,11.236-4.376-.012-3.993-.856-3.748,3.856a50.951,50.951,0,0,0,1.742,10.177c.442,1.694.04,2.692-1.7,3.407a40.664,40.664,0,0,1-14.8,3.383c-1.557.028-2.964.275-2.852,2.348l-.2.01-.052-.191c.086-1.378-.527-2.185-1.939-2.182-4.788.009-9.31-1.392-13.874-2.568a12.714,12.714,0,0,0-3.852-1.457c-.376-2.678.791-5.137,1.105-7.718.464-3.814,1.363-7.584,1.092-11.467,2.851.022,5.535-.831,8.253-1.531.67-.173,1.26-.28,1.346-1.1,2.079.929,3.864-.987,5.886-.608a92.1,92.1,0,0,0,10.362,3.63c1.6.5,2.281-.07,2.64-1.477a12.949,12.949,0,0,0-.257-7.448,1.71,1.71,0,0,1,1.451-.691c2.233-.208,2.54-1.436,1.854-3.264l.212-2.229c.153-1.764-.187-3.564.452-5.3.158-.431.12-1.036-.512-1.169-.652-.137-.782.363-.869.874a16.321,16.321,0,0,0-.488,4.8,26.461,26.461,0,0,0-7,.79,70.981,70.981,0,0,1-14,1.83c-.687-.217-1.317-.692-2.114-.364-1.778.73-2.165-.186-2.1-1.747.058-1.475.022-2.954,0-4.431-.006-.464.09-1.112-.592-1.137-.573-.02-.812.517-.826,1.028-.042,1.558.1,3.134-.08,4.673-.3,2.52.607,3.734,3.205,3.5a11.865,11.865,0,0,0,2.229,6.832,2.25,2.25,0,0,1-.041.485,16.98,16.98,0,0,0-2.2.167c-6.907,1.406-9.3-2.153-10.535-7.63-1.044-4.626-.226-9.243.252-13.891.24-2.333,1.675-4.4,1.22-6.8,3.658-3.229,8.5-3.393,12.808-4.927.457-.163.943-.245,1.416-.362a20.531,20.531,0,0,0,.18,2.431,4.577,4.577,0,0,0,3.5,3.7,4.738,4.738,0,0,0,4.91-1.452c1.221-1.339,1.351-3.086,1.386-4.816" transform="translate(-10.438 -63.312)" fill="#855bc8"/>
        <path id="Path_610282" data-name="Path 610282" d="M65.055,134.361c-.112-2.073,1.3-2.32,2.852-2.348a40.664,40.664,0,0,0,14.8-3.383c1.741-.715,2.144-1.713,1.7-3.407a50.957,50.957,0,0,1-1.742-10.177c-.245-4.711-.628-3.868,3.748-3.856q.013,19.007.026,38.014c0,5.327,0,5.327,5.478,5.2a90.7,90.7,0,0,0,12.468.008l9.4.015a11.163,11.163,0,0,0,3.8.083,63.071,63.071,0,0,0,8.916-.1l8.906.021a101.778,101.778,0,0,0,11.868.107l1.052-.117,9.225.02a10.608,10.608,0,0,0,3.6.1,61.851,61.851,0,0,0,8.973-.108c1.152.006,2.312-.068,3.456.037,1.566.143,2.132-.343,2.13-2.037q-.069-63.96,0-127.922c0-1.659-.514-2.086-2.1-2.066-5.926.075-11.854.021-17.782.015q-.009-2.05-.019-4.1,9.755-.01,19.509-.016c3.688,0,4.52.875,4.52,4.734q0,57.9,0,115.8c0,5.1.008,10.2,0,15.3-.008,3.541-.81,4.339-4.373,4.339-28.893,0-57.788-.2-86.675.186-5.228.07-10.539.758-15.834.905-1.622.045-2.248-.44-2.619-2-1.837-7.732-4.527-15.267-5.282-23.246" transform="translate(-32.895 -9.273)" fill="#172049"/>
        <path id="Path_610283" data-name="Path 610283" d="M202.05,9.167q.009,2.05.017,4.1-.047.379-.093.758-18.139,0-36.278,0c-5.46,0-9.192-3.786-9.2-9.3q0-2.221-.009-4.442Q178.372.238,200.262.171c1.428-.007,1.846.511,1.8,1.864-.078,2.375-.016,4.754-.013,7.132" transform="translate(-79.134 -0.086)" fill="#61ccab"/>
        <path id="Path_610284" data-name="Path 610284" d="M62.847,85.284A4.906,4.906,0,0,1,61.4,90.61,3.244,3.244,0,0,0,60.248,92.4c-.5,2.465-2.632,3.821-3.909,5.758a4.567,4.567,0,0,0-2.135.3,8.691,8.691,0,0,1-7.644-.826A9.458,9.458,0,0,1,42.6,92.471a3.32,3.32,0,0,0-.957-1.68,4.819,4.819,0,0,1-1.514-5.935c1.5-.038,2.45-.547,2.022-2.3a4.471,4.471,0,0,1-.038-.982c-.053-4.115,1.638-5.578,5.608-4.745a15.547,15.547,0,0,0,7.053.088c4.208-1.033,6.053.422,5.916,4.826-.057,1.844.4,2.987,2.154,3.538" transform="translate(-20.069 -38.737)" fill="#fcbeb2"/>
        <path id="Path_610285" data-name="Path 610285" d="M31.539,243.086c4.565,1.176,9.087,2.578,13.875,2.568,1.411,0,2.024.8,1.939,2.181-.814,3.546-1.554,7.111-2.463,10.633-1.061,4.116-2.324,8.181-3.378,12.3a1.58,1.58,0,0,1-1.859,1.423c-3.035-.062-6.072-.056-9.109-.078.1-9.683-.4-19.387,1-29.026" transform="translate(-15.442 -122.929)" fill="#172049"/>
        <path id="Path_610286" data-name="Path 610286" d="M103.83,78.077c-1.715-.74-2.7-2.358-4.131-3.439q.01-20.559.009-41.119a17.219,17.219,0,0,0-.216-1.939c.553-.292.548-.6.032-.929.428-2.771.1-5.559.189-8.337.1-3.072.947-3.969,3.986-3.979,6.642-.02,13.283-.005,19.926-.005q-.01,2.069-.021,4.137c-5.757,0-11.517.1-17.269-.054-2.115-.055-2.528.642-2.52,2.625.068,17.68.025,35.36.015,53.04" transform="translate(-50.314 -9.267)" fill="#172049"/>
        <path id="Path_610287" data-name="Path 610287" d="M60.77,73.6c-1.757-.552-2.211-1.694-2.154-3.538.137-4.4-1.708-5.859-5.916-4.826a15.547,15.547,0,0,1-7.053-.088c-3.97-.833-5.661.63-5.608,4.745a4.47,4.47,0,0,0,.038.982c.428,1.75-.521,2.26-2.022,2.3-2.509-4.3-3.577-8.7-.966-13.373,1.226-2.081,4.219-1.65,5.4-3.8l1.71-1.119a18.391,18.391,0,0,1,7.086-1.361c.867.209,1.745.379,2.6.634,7.528,2.249,10.545,7.759,8.467,15.378A12.7,12.7,0,0,1,60.77,73.6" transform="translate(-17.992 -27.054)" fill="#363535"/>
        <path id="Path_610288" data-name="Path 610288" d="M148.215,13.2q.011-2.069.021-4.137c0-2.019.157-4.053-.038-6.054-.223-2.293.461-3.359,2.871-2.908a10.838,10.838,0,0,0,1.205.092q.005,2.221.01,4.442c.011,5.518,3.742,9.3,9.2,9.3q18.139.008,36.278,0c.81,3.928.728,4.032-3.176,4.032h-41.6c-4.7,0-4.7,0-4.773-4.77" transform="translate(-74.923 0)" fill="#55bfa1"/>
        <path id="Path_610289" data-name="Path 610289" d="M27.276,51.349c-1.18,2.147-4.173,1.716-5.4,3.8C16.514,51.9,10.734,49.391,5.5,45.917q.727-.781,1.456-1.56c9.022-.012,18.043,0,27.064-.06,1.586-.011,2.293.489,2.118,2.115-.087.812-.048,1.638-.066,2.458a18.393,18.393,0,0,0-7.086,1.361c-2.189-.012-4.407-.409-6.56.489,1.542.891,3.242.419,4.851.63" transform="translate(-2.781 -22.401)" fill="#f758b0"/>
        <path id="Path_610290" data-name="Path 610290" d="M41.373,14.006c.669,4.062.141,8.155.318,12.23.05,1.151-.643,1.33-1.577,1.323q-11.785-.1-23.57-.17a74.258,74.258,0,0,1,11.124-5.9c2.676,1.055,5.464.271,8.192.489.527.042,1.358.152,1.368-.607.012-.935-.894-.741-1.5-.76-2.116-.066-4.233-.093-6.35-.135a103.115,103.115,0,0,1,12-6.471" transform="translate(-8.366 -7.083)" fill="#f758b0"/>
        <path id="Path_610291" data-name="Path 610291" d="M18.992,136.174c.455,2.4-.98,4.471-1.219,6.8-.478,4.648-1.3,9.265-.252,13.891,1.237,5.477,3.628,9.036,10.535,7.63a17.067,17.067,0,0,1,2.2-.167l.6,1.418c-.087.816-.677.923-1.346,1.1-2.718.7-5.4,1.553-8.253,1.531-3.872-.482-6.315-2.8-7.157-7.233-1.241-6.539-.52-13.033,1.1-19.413a9.6,9.6,0,0,1,3.794-5.557" transform="translate(-6.811 -68.863)" fill="#6c45ba"/>
        <path id="Path_610292" data-name="Path 610292" d="M33.176,9.522a103.115,103.115,0,0,0-12,6.471c-.7.118-1.469.122-1.71,1.014a74.258,74.258,0,0,0-11.124,5.9H.334c.349-.872,1.236-1,1.858-1.343q14.156-7.7,28.367-15.3c.821-.439,1.709-1.554,2.6-.946.8.547.255,1.83.3,2.783a5.755,5.755,0,0,1-.284,1.423" transform="translate(-0.169 -2.599)" fill="#ee05a0"/>
        <path id="Path_610293" data-name="Path 610293" d="M27.48,241.6c-1.391,9.639-.893,19.343-1,29.026a17.1,17.1,0,0,0-1.71.11c-1.719.276-2.161-.422-2.192-2.133a204.938,204.938,0,0,1,1.046-28.46A12.709,12.709,0,0,1,27.48,241.6" transform="translate(-11.384 -121.438)" fill="#0e1529"/>
        <path id="Path_610294" data-name="Path 610294" d="M53.5,119.15a8.691,8.691,0,0,0,7.644.826,4.572,4.572,0,0,1,2.135-.3q.053,1.23.106,2.46c-.035,1.73-.165,3.477-1.386,4.816a4.739,4.739,0,0,1-4.91,1.452,4.577,4.577,0,0,1-3.5-3.7,20.531,20.531,0,0,1-.18-2.432q.043-1.564.087-3.125" transform="translate(-27.013 -60.254)" fill="#f6a196"/>
        <path id="Path_610295" data-name="Path 610295" d="M75.262,41c1.416.365,3.622-.5,3.58,1.274-.034,1.449-2.232.846-3.389.7s-3.39.164-3.308-1.076c.109-1.665,2.2-.282,3.118-.9" transform="translate(-36.483 -20.732)" fill="#e1d2f6"/>
        <path id="Path_610296" data-name="Path 610296" d="M304.856,158c0,.4.084.841-.4,1.039a.623.623,0,0,1-.8-.383q-1.132-2.439-2.181-4.916a.857.857,0,0,1,.263-1.1c.422-.245.791.055,1,.428A20.034,20.034,0,0,1,304.856,158" transform="translate(-152.41 -77.142)" fill="#e1d2f6"/>
        <path id="Path_610297" data-name="Path 610297" d="M304.965,247.122c.817.086.9.474.706,1.039-.526,1.528-1.024,3.067-1.572,4.587-.17.472-.506.86-1.107.659a.6.6,0,0,1-.409-.774c.549-1.683,1.115-3.36,1.732-5.018.09-.242.482-.372.65-.492" transform="translate(-153.001 -124.97)" fill="#e1d2f6"/>
        <path id="Path_610298" data-name="Path 610298" d="M310.957,222.707c.959,2.477.153,4.414-.109,6.364a.662.662,0,0,1-.863.61.739.739,0,0,1-.545-.948c.439-1.863.25-3.88,1.517-6.027" transform="translate(-156.471 -112.623)" fill="#e1d2f6"/>
        <path id="Path_610299" data-name="Path 610299" d="M310.815,181.761c-.4-1.848-.812-3.694-1.2-5.547a.663.663,0,0,1,.574-.884c.5-.069.683.288.84.688a7.822,7.822,0,0,1-.219,5.742" transform="translate(-156.563 -88.66)" fill="#e1d2f6"/>
        <path id="Path_610300" data-name="Path 610300" d="M4.175,44.418l-1.457,1.56A4.508,4.508,0,0,1,0,44.418Z" transform="translate(0 -22.462)" fill="#ee05a0"/>
        <path id="Path_610301" data-name="Path 610301" d="M99.041,43.262c.517.327.521.638-.031.929-.369-.031-.546-.261-.446-.588.046-.149.311-.23.477-.342" transform="translate(-49.83 -21.878)" fill="#855bc8"/>
        <path id="Path_610302" data-name="Path 610302" d="M128.027,26.646c.07,4.77.07,4.77,4.773,4.77h41.6c3.9,0,3.986-.1,3.176-4.032.031-.253.062-.506.093-.758,5.929.006,11.857.06,17.783-.014,1.589-.02,2.1.408,2.1,2.066q-.067,63.961,0,127.922c0,1.693-.564,2.18-2.13,2.037-1.144-.1-2.3-.031-3.455-.037-.026-.983-.074-1.966-.075-2.948-.006-9.51-.052-19.02.039-28.529.018-1.841-.478-2.478-2.337-2.34-2.2.163-4.423.064-6.635.079l-2.939-.036c-.311-.067-.456.059-.436.376-.033,1.144-.09,2.289-.094,3.433q-.054,14.988-.092,29.975l-9.225-.02c-.03-.9-.087-1.8-.087-2.707-.006-11.582-.04-23.164.032-34.746.012-1.853-.367-2.721-2.426-2.547-2.121.179-4.268.049-6.4.054C157.4,118,157.4,118,157.4,121.767c0,3.52.013,7.041,0,10.562q-.061,13.136-.143,26.271l-8.905-.021c-.01-7.291-.067-14.582,0-21.872.016-1.693-.459-2.352-2.206-2.236-2.2.146-4.42.077-6.631.1-3.878-.476-3.877-.476-3.878,3.169q0,10.429-.006,20.857l-9.4-.015c.015-9.537,0-19.074.08-28.609.014-1.59-.563-1.935-2.006-1.9-2.792.068-5.593.064-8.38-.1-1.781-.1-2.184.555-2.172,2.238.067,9.454.02,18.909.011,28.363-5.477.129-5.474.129-5.478-5.2q-.01-19.006-.026-38.014c5.041-2.266,5.107-6.717,4.852-11.237a66.528,66.528,0,0,0-4.855-21.871c.01-17.679.052-35.358-.016-53.038-.007-1.983.406-2.681,2.52-2.625,5.753.151,11.513.053,17.269.054m3.586,52.581c0-5.008-3.326-8.354-8.313-8.368a8.18,8.18,0,0,0-8.493,8.3,8.562,8.562,0,0,0,8.442,8.494,8.187,8.187,0,0,0,8.365-8.424M123.279,42.2a8.191,8.191,0,0,0-8.473,8.318A8.563,8.563,0,0,0,123.252,59a8.212,8.212,0,0,0,8.36-8.432,8.054,8.054,0,0,0-8.333-8.369m66.078,56.42.18.49c-3.4,2.419-6.833,4.8-10.188,7.281-.963.713-1.531.432-2.322-.205-2.943-2.372-6.017-4.587-8.879-7.05-1.343-1.155-2.246-1.055-3.6-.1-5.973,4.214-12.049,8.284-18.016,12.506-1.317.932-2.156.934-3.368-.154-2.014-1.809-4.269-3.347-6.322-5.116-1.084-.934-1.851-.855-2.989-.046-6.5,4.614-13.056,9.14-19.594,13.7-.337.234-.67.474-1.008.706-.38.261-.6.628-.36,1.043.359.629.855.275,1.26.038.494-.29.946-.652,1.418-.98,6.133-4.274,12.288-8.515,18.377-12.85a1.851,1.851,0,0,1,2.729.07c2.062,1.76,4.3,3.313,6.323,5.117,1.261,1.126,2.178,1.157,3.57.172,5.832-4.127,11.793-8.072,17.612-12.217,1.569-1.118,2.63-1.407,4.171.058,1.9,1.8,4.094,3.3,6.162,4.922,3.7,2.908,3.7,2.9,7.459.23q4.108-2.92,8.231-5.82a14.326,14.326,0,0,1-.824,4.07c-.123.4-.187.927.2,1.128.615.318.9-.268,1.064-.7q1.128-2.989,2.162-6.013c.332-.977.013-1.587-1.127-1.619-2.138-.061-4.276-.154-6.413-.227-.427-.016-.9.04-.963.537-.073.627.436.805.947.836,1.368.082,2.738.134,4.107.2M167.144,57.526h3.944c6.409,0,12.817.012,19.226-.017.667,0,1.805.356,1.844-.631.049-1.273-1.2-.654-1.9-.823a2.205,2.205,0,0,0-.492-.005q-22.554,0-45.108,0c-.655,0-1.313.022-1.965.087a.623.623,0,0,0-.57.677.644.644,0,0,0,.625.634c.654.048,1.311.072,1.967.072q11.215.008,22.431,0m-.086,28.647h22.427c.575,0,1.151.008,1.725-.021.5-.025,1.048-.1,1.009-.771-.029-.49-.464-.626-.894-.652-.41-.025-.821-.023-1.232-.023q-22.92,0-45.841.018c-.736,0-2.053-.414-2.045.663.009,1.319,1.4.751,2.177.756,7.558.047,15.116.029,22.674.029M142.323,72.56l.007.483H192.5q0-.242,0-.483Zm50.17-28.1v-.5h-50.17l0,.5Z" transform="translate(-54.735 -13.446)" fill="#fdfdfd"/>
        <path id="Path_610303" data-name="Path 610303" d="M67.931,170.722q-.106,1.114-.211,2.229c-1.445.1-2.59.963-3.814,1.584a77.8,77.8,0,0,1-18.681,6.371A11.875,11.875,0,0,1,43,174.075c.654-.807,2.159-.216,2.51-1.524a70.98,70.98,0,0,0,14-1.831,26.459,26.459,0,0,1,7-.789l1.417.792" transform="translate(-21.743 -85.922)" fill="#fcbeb2"/>
        <path id="Path_610304" data-name="Path 610304" d="M73.291,184.052a12.943,12.943,0,0,1,.258,7.447c-.359,1.408-1.04,1.978-2.64,1.477a92.19,92.19,0,0,1-10.362-3.63c3.086-1.485,6.19-2.934,9.247-4.476a6.551,6.551,0,0,1,3.5-.819" transform="translate(-30.619 -93.068)" fill="#fcbeb2"/>
        <path id="Path_610305" data-name="Path 610305" d="M66.655,180.021a6.552,6.552,0,0,0-3.5.819c-3.057,1.542-6.161,2.991-9.247,4.476-2.022-.378-3.807,1.538-5.886.608l-.6-1.418a2.28,2.28,0,0,0,.041-.485,77.78,77.78,0,0,0,18.68-6.371c1.224-.621,2.369-1.48,3.814-1.584.686,1.827.379,3.056-1.855,3.263a1.711,1.711,0,0,0-1.451.692" transform="translate(-23.983 -89.037)" fill="#f6a196"/>
        <path id="Path_610306" data-name="Path 610306" d="M42.172,167.4c-.351,1.309-1.856.718-2.511,1.525-2.6.23-3.506-.983-3.2-3.5.184-1.538.038-3.115.08-4.673.014-.511.253-1.048.826-1.028.682.025.585.673.592,1.137.021,1.477.057,2.956,0,4.431-.061,1.561.325,2.477,2.1,1.747.8-.327,1.427.147,2.114.364" transform="translate(-18.409 -80.768)" fill="#6c45ba"/>
        <path id="Path_610307" data-name="Path 610307" d="M91.936,164.914l-1.417-.792a16.322,16.322,0,0,1,.489-4.8c.086-.511.216-1.011.868-.874.632.133.67.738.512,1.169-.639,1.735-.3,3.536-.452,5.3" transform="translate(-45.748 -80.114)" fill="#6c45ba"/>
        <path id="Path_610308" data-name="Path 610308" d="M119.4,262.288c.008-9.454.055-18.909-.012-28.363-.012-1.683.391-2.342,2.172-2.238,2.786.164,5.588.169,8.38.1,1.443-.035,2.02.31,2.006,1.9-.085,9.536-.065,19.073-.08,28.609a90.7,90.7,0,0,1-12.467-.008" transform="translate(-60.373 -117.159)" fill="#fdc11a"/>
        <path id="Path_610309" data-name="Path 610309" d="M215.488,212.747c2.135-.005,4.283.125,6.4-.054,2.059-.174,2.437.694,2.426,2.547-.072,11.582-.039,23.164-.033,34.746,0,.9.058,1.8.088,2.707l-1.053.117c-1.8-.869-3.719-.341-5.572-.358-1.617-.015-2.349-.355-2.338-2.186.082-12.506.064-25.012.078-37.518" transform="translate(-108.933 -107.548)" fill="#61ccab"/>
        <path id="Path_610310" data-name="Path 610310" d="M259.41,225.3c2.213-.015,4.434.084,6.635-.079,1.859-.138,2.354.5,2.337,2.34-.091,9.509-.045,19.019-.039,28.529,0,.983.049,1.965.075,2.948a61.79,61.79,0,0,1-8.973.108q-.017-16.923-.035-33.846" transform="translate(-131.184 -113.886)" fill="#855bc8"/>
        <path id="Path_610311" data-name="Path 610311" d="M171.434,244.928c2.211-.023,4.428.046,6.631-.1,1.748-.116,2.223.543,2.207,2.236-.069,7.29-.012,14.581,0,21.872a63.075,63.075,0,0,1-8.916.1q.041-12.055.082-24.111" transform="translate(-86.653 -123.803)" fill="#f758b0"/>
        <path id="Path_610312" data-name="Path 610312" d="M211.439,212.494c-.014,12.506,0,25.013-.078,37.518-.012,1.83.721,2.171,2.338,2.186,1.854.017,3.769-.511,5.572.358a101.883,101.883,0,0,1-11.868-.107q.074-13.136.144-26.271c.016-3.52,0-7.041,0-10.562,0-3.77,0-3.77,3.888-3.122" transform="translate(-104.884 -107.294)" fill="#55bfa1"/>
        <path id="Path_610313" data-name="Path 610313" d="M255.765,225.364q.018,16.923.035,33.846a10.621,10.621,0,0,1-3.6-.1q.045-14.988.092-29.975c0-1.145.062-2.289.094-3.433l.436-.376,2.939.036" transform="translate(-127.539 -113.948)" fill="#6c45ba"/>
        <path id="Path_610314" data-name="Path 610314" d="M167.543,244.819q-.041,12.055-.082,24.11a11.153,11.153,0,0,1-3.8-.084q0-10.428.006-20.857c0-3.645,0-3.645,3.878-3.169" transform="translate(-82.762 -123.694)" fill="#ee05a0"/>
        <path id="Path_610315" data-name="Path 610315" d="M44.593,57.32c-1.608-.211-3.309.261-4.851-.63,2.154-.9,4.371-.5,6.56-.489l-1.71,1.119" transform="translate(-20.098 -28.372)" fill="#f6f6f6"/>
        <path id="Path_610316" data-name="Path 610316" d="M39.048,28.111c.242-.892,1.01-.9,1.71-1.014,2.117.042,4.234.07,6.35.135.605.019,1.511-.174,1.5.76-.01.76-.841.65-1.368.607-2.728-.217-5.516.566-8.192-.489" transform="translate(-19.747 -13.703)" fill="#f6f6f6"/>
        <path id="Path_610317" data-name="Path 610317" d="M138.332,124.517a8.188,8.188,0,0,1-8.365,8.424,8.563,8.563,0,0,1-8.442-8.494,8.18,8.18,0,0,1,8.494-8.3c4.986.015,8.311,3.361,8.313,8.369" transform="translate(-61.455 -58.736)" fill="#e1d2f6"/>
        <path id="Path_610318" data-name="Path 610318" d="M130,58.171a8.055,8.055,0,0,1,8.334,8.369,8.213,8.213,0,0,1-8.36,8.432,8.564,8.564,0,0,1-8.447-8.484A8.191,8.191,0,0,1,130,58.171" transform="translate(-61.456 -29.417)" fill="#e1d2f6"/>
        <path id="Path_610319" data-name="Path 610319" d="M194.018,170.7c-1.369-.064-2.738-.116-4.107-.2-.51-.031-1.02-.21-.947-.836.058-.5.536-.552.963-.537,2.137.075,4.275.168,6.413.228,1.14.033,1.459.643,1.128,1.619q-1.028,3.025-2.162,6.013c-.164.433-.448,1.019-1.064.7-.389-.2-.324-.727-.2-1.128a14.326,14.326,0,0,0,.824-4.07q-4.116,2.909-8.231,5.82c-3.763,2.674-3.76,2.679-7.459-.229-2.068-1.626-4.264-3.119-6.162-4.923-1.542-1.465-2.6-1.175-4.171-.058-5.819,4.145-11.78,8.09-17.612,12.217-1.392.985-2.308.955-3.57-.172-2.02-1.8-4.261-3.357-6.323-5.116a1.851,1.851,0,0,0-2.73-.07c-6.088,4.335-12.244,8.576-18.377,12.849-.472.329-.923.69-1.418.98-.4.238-.9.592-1.26-.037-.237-.416-.02-.782.36-1.043.338-.232.671-.472,1.008-.707,6.538-4.556,13.1-9.082,19.594-13.7,1.138-.809,1.9-.888,2.989.046,2.053,1.769,4.308,3.306,6.322,5.116,1.212,1.088,2.051,1.086,3.368.154,5.967-4.222,12.043-8.292,18.016-12.506,1.355-.956,2.259-1.056,3.6.1,2.862,2.463,5.936,4.678,8.879,7.05.791.637,1.358.918,2.322.205,3.355-2.482,6.786-4.862,10.188-7.281l-.18-.491" transform="translate(-59.396 -85.528)" fill="#293157"/>
        <path id="Path_610320" data-name="Path 610320" d="M201.808,87.655q-11.215,0-22.431,0c-.655,0-1.313-.024-1.966-.073a.644.644,0,0,1-.626-.634.623.623,0,0,1,.57-.676,19.592,19.592,0,0,1,1.965-.087q22.554-.007,45.108,0a2.147,2.147,0,0,1,.492.006c.7.168,1.952-.45,1.9.823-.039.987-1.176.628-1.844.631-6.409.028-12.818.017-19.226.017h-3.944" transform="translate(-89.4 -43.574)" fill="#e1d2f6"/>
        <path id="Path_610321" data-name="Path 610321" d="M201.81,145.571c-7.558,0-15.116.019-22.674-.029-.772,0-2.168.563-2.177-.756-.007-1.077,1.309-.661,2.045-.663q22.92-.039,45.841-.018c.411,0,.822,0,1.232.023.431.026.865.161.894.652.04.673-.508.746-1.008.771-.574.029-1.15.021-1.725.021H201.81" transform="translate(-89.488 -72.844)" fill="#e1d2f6"/>
        <path id="Path_610322" data-name="Path 610322" d="M177.2,119.591h50.17c0,.161,0,.322,0,.483H177.2l-.007-.483" transform="translate(-89.608 -60.477)" fill="#e1d2f6"/>
        <path id="Path_610323" data-name="Path 610323" d="M227.364,62.235H177.2l0-.5h50.17Z" transform="translate(-89.607 -31.219)" fill="#e1d2f6"/>
        <path id="Path_610324" data-name="Path 610324" d="M253.016,225.31l-.437.376c-.019-.317.126-.443.437-.376" transform="translate(-127.729 -113.931)" fill="#855bc8"/>
      </g>
    </g>
  </g>
</svg>
