<svg xmlns="http://www.w3.org/2000/svg" xmlns:xlink="http://www.w3.org/1999/xlink" width="190" height="99" viewBox="0 0 190 99">
  <defs>
    <clipPath id="clip-path">
      <rect id="Rectangle_377872" data-name="Rectangle 377872" width="190" height="99" transform="translate(180 14924.744)" fill="#fff" stroke="#707070" stroke-width="1"/>
    </clipPath>
    <clipPath id="clip-path-2">
      <rect id="Rectangle_377870" data-name="Rectangle 377870" width="107.666" height="99.667" fill="none"/>
    </clipPath>
  </defs>
  <g id="Mask_Group_154292" data-name="Mask Group 154292" transform="translate(-180 -14924.744)" clip-path="url(#clip-path)">
    <g id="Group_1072637" data-name="Group 1072637" transform="translate(224 14927.744)">
      <g id="Group_1072637-2" data-name="Group 1072637" clip-path="url(#clip-path-2)">
        <path id="Path_610329" data-name="Path 610329" d="M131.528,108.656c-1.025,59.995-90.266,59.985-91.281,0,1.025-59.993,90.265-59.983,91.281,0" transform="translate(-34.126 -53.981)" fill="#ffd6e4"/>
        <path id="Path_610330" data-name="Path 610330" d="M107.06,591.281c-.628-.614-107.194,1.182-107.06-.624-.136-1.817,106.433-.008,107.061-.628a.626.626,0,0,1,0,1.252" transform="translate(0 -500.123)" fill="#2e0f07"/>
        <path id="Path_610331" data-name="Path 610331" d="M157.725,553.554H91.484c-4.937-.224-5.81-4.366-5.461-8.5h77.164c.363,4.1-.551,8.306-5.461,8.5" transform="translate(-72.883 -462.163)" fill="#cadbec"/>
        <path id="Path_610332" data-name="Path 610332" d="M157.72,554.553H91.478a5.461,5.461,0,0,1-5.461-5.461c-.413,3.908.981,7.759,5.462,7.887H157.72c4.443-.112,5.9-3.986,5.461-7.887a5.461,5.461,0,0,1-5.461,5.461" transform="translate(-72.877 -465.588)" fill="#a0bddd"/>
        <path id="Path_610333" data-name="Path 610333" d="M153.327,549.633H87.085a6.325,6.325,0,0,1-6.318-6.318v-3.04a.857.857,0,0,1,.857-.857h77.164a.857.857,0,0,1,.857.857c.45,4.622-.948,9.158-6.318,9.358m-70.846-8.5c-.359,3.3.772,6.7,4.6,6.787h66.242c3.827-.1,4.968-3.462,4.6-6.787Z" transform="translate(-68.484 -457.385)" fill="#2e0f07"/>
        <path id="Path_610334" data-name="Path 610334" d="M177.886,276.117c-70.168-2.963-60.4,15.078-60.835-41.188a6.6,6.6,0,0,1,6.6-6.6c70.168,2.963,60.4-15.078,60.835,41.188a6.6,6.6,0,0,1-6.6,6.6" transform="translate(-99.045 -193.165)" fill="#cadbec"/>
        <path id="Path_610335" data-name="Path 610335" d="M193.9,243.179a5.408,5.408,0,0,1,.34,1.892v36.942a5.422,5.422,0,0,1-5.422,5.422H132.233a5.412,5.412,0,0,1-1.892-.34,6.575,6.575,0,0,0,4.78,2.054H189.36a6.6,6.6,0,0,0,6.6-6.6V247.96a6.576,6.576,0,0,0-2.053-4.781" transform="translate(-110.519 -206.197)" fill="#a0bddd"/>
        <path id="Path_610336" data-name="Path 610336" d="M173.087,272.2c-69.613-3.015-61.622,15.329-61.692-42.045a7.461,7.461,0,0,1,7.453-7.454c69.613,3.015,61.622-15.329,61.692,42.045a7.461,7.461,0,0,1-7.453,7.454m-54.239-47.786a5.746,5.746,0,0,0-5.739,5.739c.865,55.03-10.909,37.468,59.979,40.333a5.747,5.747,0,0,0,5.739-5.74c-.865-55.03,10.909-37.468-59.979-40.332" transform="translate(-94.246 -188.387)" fill="#2e0f07"/>
        <path id="Path_610337" data-name="Path 610337" d="M201.973,296.617H146.478a2.135,2.135,0,0,1-2.135-2.135V259.165a2.135,2.135,0,0,1,2.135-2.135h55.495a2.136,2.136,0,0,1,2.135,2.135v35.316a2.136,2.136,0,0,1-2.135,2.135" transform="translate(-122.392 -217.942)" fill="#a4ddf4"/>
        <path id="Path_610338" data-name="Path 610338" d="M146.684,260.845a1.726,1.726,0,0,1,1.726-1.726h55.575a2.927,2.927,0,0,0-2.8-2.088H147.268a2.926,2.926,0,0,0-2.926,2.926v33.735a2.927,2.927,0,0,0,2.342,2.867Z" transform="translate(-122.391 -217.942)" fill="#78cdef"/>
        <path id="Path_610339" data-name="Path 610339" d="M196.4,292.7H142.49a3.787,3.787,0,0,1-3.783-3.783V255.178a3.787,3.787,0,0,1,3.783-3.783H196.4a3.787,3.787,0,0,1,3.783,3.783v33.735A3.787,3.787,0,0,1,196.4,292.7M142.49,253.109a2.071,2.071,0,0,0-2.069,2.069v33.735a2.071,2.071,0,0,0,2.069,2.069H196.4a2.071,2.071,0,0,0,2.069-2.069V255.178a2.071,2.071,0,0,0-2.069-2.069Z" transform="translate(-117.613 -213.164)" fill="#2e0f07"/>
        <path id="Path_610340" data-name="Path 610340" d="M275.7,548.052H252.331c-1.631.023-2.106-1.652-1.927-3h27.222c.178,1.347-.295,3.021-1.927,3" transform="translate(-212.294 -462.163)" fill="#8bafd6"/>
        <path id="Path_610341" data-name="Path 610341" d="M270.876,544.13H247.507c-2.075.023-3.054-2.011-2.783-3.856a.857.857,0,0,1,.857-.857H272.8c1.013-.018.868,1.251.857,1.929a2.786,2.786,0,0,1-2.783,2.784m-24.438-3a1.108,1.108,0,0,0,1.07,1.285h23.368a1.108,1.108,0,0,0,1.07-1.285Z" transform="translate(-207.47 -457.384)" fill="#2e0f07"/>
        <path id="Path_610342" data-name="Path 610342" d="M250.011,294.378s-7.677-3.378-9.11,6.142c0,0-6.961-.307-6.961,6.961,0,4.313,2.667,5.922,4.837,6.518-.275.167-2.783,6.331,4.922,6.69l.059.076.757.047c.245,2.413,3.588,3.67,5.563,2.226-.011-3.412.03-24.7-.067-28.658" transform="translate(-198.363 -249.116)" fill="#f28659"/>
        <path id="Path_610343" data-name="Path 610343" d="M246.215,373.215a2.135,2.135,0,0,1-.953-2.223c-3.43,1.277-8.093-1.991-5.876-5.638a9.445,9.445,0,0,1-4.515-9.281c-2.706,4.057-.373,10.165,3.708,10.731-.275.167-2.783,6.331,4.922,6.69l.059.076.757.047c.245,2.413,3.588,3.67,5.563,2.227v-2.088a5.324,5.324,0,0,1-3.665-.54" transform="translate(-198.166 -301.922)" fill="#ee682f"/>
        <path id="Path_610344" data-name="Path 610344" d="M262.267,430.156c-6.108.284-7.648-4.307-5.981-7.709a.857.857,0,0,1,1.557.717c-1.522,3.464.657,5.576,4.961,5.269,1.551.2.878,2.066-.537,1.724" transform="translate(-216.778 -357.789)" fill="#2e0f07"/>
        <path id="Path_610345" data-name="Path 610345" d="M242.846,319.729c-4.384.134-6.071-5.823-2.111-7.757a.857.857,0,0,1,.787,1.522,2.4,2.4,0,0,0-1.351,2.1c-.055,1.795,2.248,2.978,3.88,2.159,0-7.9,0-24.1-.048-27.548-3.6-1.288-6.941.889-7.424,5.659a.857.857,0,0,1-.885.728,6.768,6.768,0,0,0-4.447,1.612c-2.1,1.826-2.2,6.917-.025,8.783a7.717,7.717,0,0,0,5.08,1.712.857.857,0,0,1,.091,1.711,9.354,9.354,0,0,1-6.341-2.171c-4.542-4.832-1.672-13.163,4.955-13.337.568-2.928,1.81-4.936,3.7-5.975,2.964-1.633,6.343-.18,6.485-.117.717.358.481,1.061.535,1.8.047,3.945.042,20.6.043,22.258v5.39c-.207,1.2-1.893,1.4-2.92,1.474" transform="translate(-193.194 -244.335)" fill="#2e0f07"/>
        <path id="Path_610346" data-name="Path 610346" d="M277.628,337.714c-2.907-.534-3.642-4.216-3.562-4.27a.857.857,0,0,1,1.7-.185,3.456,3.456,0,0,0,2.129,2.785.861.861,0,0,1-.271,1.67" transform="translate(-232.381 -281.95)" fill="#2e0f07"/>
        <path id="Path_610347" data-name="Path 610347" d="M266.068,379.574c-1.253-.106-1.139-1.932.028-3.28a3.184,3.184,0,0,1,2.7-.75.857.857,0,0,1-.192,1.7c-2.568-.339-.863,2.17-2.535,2.327" transform="translate(-224.847 -318.405)" fill="#2e0f07"/>
        <path id="Path_610348" data-name="Path 610348" d="M293.328,407.041a.86.86,0,0,1-.21-1.688c.031-.008,2.468-.655,2.983-2.485a.857.857,0,1,1,1.65.464c-.882,2.929-4.1,3.657-4.423,3.709" transform="translate(-248.008 -341.071)" fill="#2e0f07"/>
        <path id="Path_610349" data-name="Path 610349" d="M310.068,352.853a.858.858,0,0,1-.045-1.713c1.111-.06,1.4-1.409,2.37-.921,1.665,1.266-1.784,2.783-2.325,2.634m-.007-1.714h0Z" transform="translate(-262.206 -296.869)" fill="#2e0f07"/>
        <path id="Path_610350" data-name="Path 610350" d="M340.22,294.378s7.677-3.378,9.11,6.142c0,0,6.961-.307,6.961,6.961,0,4.313-2.667,5.922-4.837,6.518.275.167,2.783,6.331-4.922,6.69l-.059.076-.757.047c-.245,2.413-3.588,3.67-5.563,2.226.011-3.412-.031-24.7.067-28.658" transform="translate(-288.424 -249.116)" fill="#f28659"/>
        <path id="Path_610351" data-name="Path 610351" d="M356.29,307.481c0-7.268-6.961-6.961-6.961-6.961-.956-6.351-4.691-6.961-7.072-6.664,4.922.77,6.611,5.249,3.9,10.037,7.618-2.851,10.178,8.68,2.62,10.323.652,1.6-1.211,3.249-2.784,3.437-.627.11-1.566-.178-2.1.236a7.009,7.009,0,0,1-3.748,2.815v2.334c1.975,1.444,5.317.186,5.563-2.227l.758-.047.059-.076c7.7-.359,5.2-6.522,4.922-6.69,2.169-.6,4.837-2.2,4.837-6.518" transform="translate(-288.424 -249.117)" fill="#ee682f"/>
        <path id="Path_610352" data-name="Path 610352" d="M373.137,430.156c-1.409.341-2.095-1.521-.537-1.724,4.315.309,6.48-1.819,4.961-5.269a.857.857,0,0,1,1.557-.716c1.667,3.415.125,7.99-5.981,7.709" transform="translate(-315.181 -357.789)" fill="#2e0f07"/>
        <path id="Path_610353" data-name="Path 610353" d="M337.437,319.729c-1.026-.059-2.713-.291-2.92-1.473v-5.39c.007-1.746-.005-18.236.043-22.258.053-.738-.181-1.437.535-1.8.142-.063,3.521-1.515,6.485.117,1.886,1.039,3.128,3.047,3.7,5.975,6.629.173,9.5,8.509,4.955,13.337a9.356,9.356,0,0,1-6.341,2.171.857.857,0,0,1,.093-1.711,7.718,7.718,0,0,0,5.078-1.712c2.183-1.869,2.076-6.97-.035-8.792a6.7,6.7,0,0,0-4.437-1.6.855.855,0,0,1-.885-.729c-.47-4.757-3.846-6.963-7.424-5.661-.047,3.444-.05,19.644-.048,27.55,1.633.818,3.935-.364,3.88-2.159a2.4,2.4,0,0,0-1.351-2.1.857.857,0,0,1,.788-1.522c3.96,1.933,2.272,7.891-2.111,7.756" transform="translate(-283.645 -244.335)" fill="#2e0f07"/>
        <path id="Path_610354" data-name="Path 610354" d="M377.98,337.728a.861.861,0,0,1-.271-1.67,3.457,3.457,0,0,0,2.129-2.786.857.857,0,0,1,1.7.186c.069.062-.648,3.732-3.562,4.27" transform="translate(-319.784 -281.963)" fill="#2e0f07"/>
        <path id="Path_610355" data-name="Path 610355" d="M389.826,379.569c-1.666-.155.023-2.665-2.536-2.323a.857.857,0,0,1-.192-1.7,3.183,3.183,0,0,1,2.7.75c1.167,1.348,1.281,3.171.029,3.276" transform="translate(-327.602 -318.403)" fill="#2e0f07"/>
        <path id="Path_610356" data-name="Path 610356" d="M357.356,407.041c-.316-.045-3.545-.785-4.423-3.709a.857.857,0,1,1,1.65-.464c.515,1.832,2.958,2.479,2.983,2.485a.86.86,0,0,1-.21,1.688" transform="translate(-299.233 -341.071)" fill="#2e0f07"/>
        <path id="Path_610357" data-name="Path 610357" d="M350.009,352.853c-.541.148-3.99-1.368-2.325-2.634.971-.488,1.262.862,2.37.921a.858.858,0,0,1-.045,1.713m.007-1.714h0" transform="translate(-294.428 -296.868)" fill="#2e0f07"/>
        <path id="Path_610358" data-name="Path 610358" d="M220.488,5.715l-8.195,1.561c-1.865.627-.512,2.352.385,3.283L192.35,26.37,180.3,13.786a2.47,2.47,0,0,0-3.019.283L163.116,27.375a2.487,2.487,0,0,0,1.692,4.271c.814,1.023,13.7-12.277,14.455-12.661,18.5,18.685,7.432,16.171,36.579-4.626.794,1.018,2.408,3.259,3.46,1.29l2.854-7.974a1.538,1.538,0,0,0-1.667-1.959" transform="translate(-137.655 -4.827)" fill="#acd350"/>
        <path id="Path_610359" data-name="Path 610359" d="M514.047,13.382a1.324,1.324,0,0,1-2.647,0,1.324,1.324,0,0,1,2.647,0" transform="translate(-433.628 -10.267)" fill="#e2efc2"/>
        <path id="Path_610360" data-name="Path 610360" d="M216.392,81.742c-4.428,4.03-4.963,3.442-.519-.572,4.428-4.03,4.963-3.442.519.572" transform="translate(-180.433 -66.497)" fill="#e2efc2"/>
        <path id="Path_610361" data-name="Path 610361" d="M416.439,64.689c-6.887,5.338-7.376,4.708-.472-.611,6.887-5.338,7.376-4.708.472.611" transform="translate(-348.517 -51.193)" fill="#e2efc2"/>
        <path id="Path_610362" data-name="Path 610362" d="M162.843,128.978a2.49,2.49,0,0,0,1.927,4.017c1.44.446,8.173-7.088,9.255-7.776a24.95,24.95,0,0,1-11.182,3.759" transform="translate(-137.618 -106.176)" fill="#87bf02"/>
        <path id="Path_610363" data-name="Path 610363" d="M517.983,46.071a16.175,16.175,0,0,1-1.585.8l.879,1.055q.273-.264.542-.536-.268.272-.542.536a1.273,1.273,0,0,0,2.235-.18l1.5-4.2a12.952,12.952,0,0,1-3.031,2.527" transform="translate(-437.866 -36.922)" fill="#87bf02"/>
        <path id="Path_610364" data-name="Path 610364" d="M333.07,134.781l2.856,3a2.47,2.47,0,0,0,2.844-.133l8.462-6.581c-5.021,1.774-8.319,5.884-14.162,3.717" transform="translate(-282.418 -111.132)" fill="#87bf02"/>
        <path id="Path_610365" data-name="Path 610365" d="M187.678,27.889c-1.592,1.008-12.165-11.842-13.261-12.524L162.273,26.774a3.327,3.327,0,1,1-4.556-4.85L171.881,8.618a3.281,3.281,0,0,1,4.225-.251l11.517,12.026L206.64,5.6c-1.362-1.151-1.257-3.625.68-3.993L215.515.046l.16.842-.16-.842a2.411,2.411,0,0,1,2.635,3.089L215.3,11.11c-.972,2.225-3.373,1.325-4.395-.394-.487.125-23.137,18.753-23.223,17.172m-.786-1.918c1.538,2.323,23.392-19.132,24.8-16.989.3.229,1.545,2.37,1.994,1.55,3.547-10.791,5.624-9.327-6.041-7.241-.924.607,1.32,1.741,1.077,2.533a.857.857,0,0,1-.326.584L188.064,22.22c-.66,1.726-12.592-12.586-13.118-12.585a1.61,1.61,0,0,0-1.892.232L158.89,23.173c-1.527,1.406.693,3.811,2.209,2.352l12.764-11.991a.857.857,0,0,1,1.207.033Z" transform="translate(-132.843 0)" fill="#2e0f07"/>
      </g>
    </g>
  </g>
</svg>
