<svg xmlns="http://www.w3.org/2000/svg" xmlns:xlink="http://www.w3.org/1999/xlink" width="295" height="163" viewBox="0 0 295 163">
  <defs>
    <clipPath id="clip-path">
      <rect id="Rectangle_377880" data-name="Rectangle 377880" width="295" height="163" transform="translate(285 21553)" fill="#fff" stroke="#707070" stroke-width="1"/>
    </clipPath>
    <clipPath id="clip-path-2">
      <rect id="Rectangle_377879" data-name="Rectangle 377879" width="162.986" height="163" fill="none"/>
    </clipPath>
  </defs>
  <g id="Mask_Group_154294" data-name="Mask Group 154294" transform="translate(-285 -21553)" clip-path="url(#clip-path)">
    <g id="Group_1072652" data-name="Group 1072652" transform="translate(351 21553)">
      <g id="Group_1072651" data-name="Group 1072651" clip-path="url(#clip-path-2)">
        <path id="Path_610457" data-name="Path 610457" d="M53.51,15.021a48.6,48.6,0,0,1,14.237,1.917,2.922,2.922,0,0,0,3.427-.868c28.687-28.77,76.988-17.275,89.1,21.479,6.349,20.321,1.422,38.461-13.248,53.877a3.5,3.5,0,0,0-1.1,3.844c7.662,29.338-9.346,58.477-38.5,66.079-27.228,7.1-56.48-9.378-64.216-36.416-.926-3.237-2.5-4.344-5.488-5.343C18,112.99,5.255,99.559,1.12,79.128c-5.8-28.642,11.427-55.394,39.641-62.69A52.442,52.442,0,0,1,53.51,15.021M44.576,88.33c.079-.752-.22-1.607.592-2.156.953.25,1.185-.5,1.494-1.1A51.127,51.127,0,0,1,57.271,70.841c.975-.915.8-1.694.516-2.779a52.953,52.953,0,0,1,7.4-44.787c.8-1.157.634-1.5-.779-1.814A48.258,48.258,0,0,0,18.277,101.5,47.182,47.182,0,0,0,41,115.123,61.986,61.986,0,0,1,42.432,96.1c.635-2.616,2.074-5,2.144-7.768M157.592,54.107a53.429,53.429,0,0,0-2.18-14.856c-9.9-33.4-52.858-45.194-78.422-21.528-1.089,1.008-2.255,1.662.056,2.82,14.671,7.354,24.02,19.113,28.3,34.9a2.505,2.505,0,0,0,2.164,2.067c15.7,4.281,27.352,13.625,34.738,28.145,1,1.958,1.532,1.712,2.786.308a48.059,48.059,0,0,0,12.554-31.855M47.8,121.847A48.184,48.184,0,0,0,104.3,156.585c25.852-5.23,42.926-31.46,37.3-57.148-.517-2.363-.948-2.511-2.967-1.21C125.13,106.933,110.546,109.3,95,105.081a2.952,2.952,0,0,0-3.4.889,52.978,52.978,0,0,1-23.1,13.893,58.524,58.524,0,0,1-20.7,1.983M60.362,75.405a5.249,5.249,0,0,0-.807.543C49.477,86.687,45.2,99.448,46.2,114.081c.133,1.945,1.172,2.474,2.869,2.573a51.686,51.686,0,0,0,16.892-1.53A47.886,47.886,0,0,0,87.6,102.54,54.942,54.942,0,0,1,60.362,75.405M99.855,56.062a3.75,3.75,0,0,0-.006-.669c-.1-.425-.205-.849-.341-1.264C95.084,40.643,86.45,30.875,73.691,24.659c-1.793-.874-2.707-.629-3.814.964a48.6,48.6,0,0,0-8.89,29.048A32.228,32.228,0,0,0,62.812,65.89a55.491,55.491,0,0,1,37.043-9.828m7.24,12.067c-.246,10.906-2.932,20.837-8.93,29.689-1.455,2.147-.811,2.64,1.234,3.028a48.37,48.37,0,0,0,38.118-8.139c1.387-.965,1.47-1.778.789-3.221a48.173,48.173,0,0,0-28.795-25.912c-2.814-.981-2.823-.918-2.545,1.939.093.957.1,1.923.128,2.616m-5.306.436c0-.7.044-1.4-.011-2.1a25.951,25.951,0,0,1-.312-2.6c.039-1.7-.6-2.335-2.4-2.515-12.189-1.224-23.111,2.021-33.094,8.935-1.286.89-1.39,1.663-.773,2.979A49.33,49.33,0,0,0,89.477,97.609c1.495.708,2.261.406,3.17-.877a49.535,49.535,0,0,0,9.142-28.166" transform="translate(0 0)" fill="#12263f"/>
        <path id="Path_610458" data-name="Path 610458" d="M225.862,58.888a48.056,48.056,0,0,1-12.554,31.855c-1.254,1.4-1.79,1.65-2.786-.308-7.386-14.519-19.042-23.864-34.738-28.145a2.505,2.505,0,0,1-2.164-2.067c-4.284-15.786-13.633-27.545-28.3-34.9-2.311-1.158-1.145-1.812-.056-2.82,25.565-23.665,68.528-11.871,78.422,21.528a53.429,53.429,0,0,1,2.18,14.856m-33.293-2.994c4.377,0,8.753.014,13.13,0,3.49-.015,4.536-1.4,3.67-4.786a16.66,16.66,0,0,0-7.293-10.5c-1.467-.915-1.575-1.492-.748-2.992a9.563,9.563,0,0,0-2.606-12.446,9.949,9.949,0,0,0-12.371.032,9.694,9.694,0,0,0-2.465,12.5c.9,1.57.515,2.016-.82,2.884a16.8,16.8,0,0,0-7.417,11.295c-.534,2.7.479,3.982,3.265,4.009,4.551.044,9.1.012,13.654.013" transform="translate(-68.27 -4.782)" fill="#fb636d"/>
        <path id="Path_610459" data-name="Path 610459" d="M90.894,209.685a58.524,58.524,0,0,0,20.7-1.983,52.983,52.983,0,0,0,23.1-13.893,2.953,2.953,0,0,1,3.4-.89c15.551,4.222,30.135,1.853,43.644-6.853,2.019-1.3,2.449-1.153,2.967,1.21,5.624,25.688-11.45,51.919-37.3,57.148a48.184,48.184,0,0,1-56.509-34.739m62.545,25.573c1.9-.066,2.712-1.726,3.94-2.778,1.686-1.446,2.815-2.919,1.6-5.426a2.626,2.626,0,0,1,1.731-3.564c2.646-.864,2.406-2.923,2.351-4.92s.58-4.244-2.169-5.31c-2-.774-2.589-2.486-1.675-4.474a2.641,2.641,0,0,0-.415-3.141c-1.119-1.228-2.294-2.411-3.522-3.53a2.567,2.567,0,0,0-3.136-.34c-2.009.977-3.616.189-4.429-1.742-.86-2.041-2.418-2.328-4.265-2.216-2.167.131-4.657-.715-5.866,2.187-.828,1.988-2.46,2.734-4.433,1.777a2.8,2.8,0,0,0-3.534.673c-.95.9-1.846,1.867-2.795,2.774a2.912,2.912,0,0,0-.761,3.571c.982,2.2.133,3.705-1.891,4.578a2.827,2.827,0,0,0-1.9,3.055,29.566,29.566,0,0,1-.006,3.413c-.128,1.8.436,3.047,2.283,3.6,1.508.449,2.312,2.27,1.908,3.051-1.963,3.791.945,5.36,2.9,7.456a3.174,3.174,0,0,0,3.99.883,2.854,2.854,0,0,1,4.116,1.564c1.314,3.471,4.166,2.072,6.491,2.35,1.859.222,3.24-.374,3.819-2.348.41-1.4,1.719-1.768,2.9-1.857a8.893,8.893,0,0,1,2.775.717" transform="translate(-43.099 -87.838)" fill="#6af1bf"/>
        <path id="Path_610460" data-name="Path 610460" d="M54.01,116.852c-.812.551-.513,1.406-.592,2.157a2.906,2.906,0,0,0-2.225,3.064,4.716,4.716,0,0,1-1.9,3.618,2.8,2.8,0,0,0-1.253,2.129c-.195,2.7-1.54,4.876-4.259,5.289-3.39.515-7.69,1.644-9.667-1.859-1.748-3.1-4.035-6.131-4.753-9.785a2.468,2.468,0,0,0-.887-1.761c-1.864-1.4-2.323-3.424-2.271-5.6a28.755,28.755,0,0,0-4.551-16.687,20.35,20.35,0,0,1-2.986-12.265c.566-13.837,14.844-23.765,28.048-19.417C60.266,70.2,66.093,84.987,58.953,97.342a31.315,31.315,0,0,0-4.544,16.964,13.625,13.625,0,0,1-.4,2.547m-.1-39.385-.449-.634a16.188,16.188,0,0,0-21.653-4.472c-7.415,4.48-10.234,14.1-6.093,21.49,2.541,4.534,4.87,9.1,5.389,14.349.143,1.446,1.011,1.27,1.99,1.339,1.262.089,1.411-.535,1.4-1.573-.04-4.2-.054-8.409.008-12.612.017-1.21-.264-1.721-1.586-1.664a6.829,6.829,0,0,1-5.609-2.355A7.092,7.092,0,0,1,33.634,79.6a7.593,7.593,0,0,1,6.074,6.434c.137.812-.446,1.909.758,2.483,1.78-6.9,3.629-9.037,7.686-8.979,3.507.05,5.952,2.272,6.945,6.309-.312,5.194-2.334,7.369-7.476,7.828-1.087.1-1.525.331-1.511,1.491.055,4.276.027,8.553.017,12.829,0,.828-.038,1.646,1.162,1.517.853-.093,2.02.454,2.168-1.1.542-5.706,3.415-10.484,5.875-15.5a14.4,14.4,0,0,0-.817-14.451l.01.019a1.041,1.041,0,0,0-.589-.981Zm-5.048,37.965q0-.231,0-.462H31.7q0,.23,0,.462Zm-8.936-5.987.573-.007V93.784l-.573.009Zm7.678-20.967c1.255-.056,2.224-.491,2.154-1.959A1.587,1.587,0,0,0,47.9,84.842c-1.336.167-1.714,1.223-1.789,2.456-.071,1.167.63,1.238,1.492,1.182m-14.92,0c.826-.077,1.873.352,1.821-1.135-.044-1.259-.442-2.287-1.752-2.494a1.591,1.591,0,0,0-1.9,1.631c-.111,1.31.707,1.838,1.835,2M34.8,121.241a20.087,20.087,0,0,0,10.922,0Zm7.757,6.4a10.374,10.374,0,0,0-5.054-.056,5.88,5.88,0,0,0,5.054.056" transform="translate(-8.842 -30.68)" fill="#040403"/>
        <path id="Path_610461" data-name="Path 610461" d="M49.848,104.391a13.633,13.633,0,0,0,.4-2.547,31.312,31.312,0,0,1,4.544-16.964c7.14-12.355,1.313-27.145-12.233-31.605-13.2-4.348-27.481,5.579-28.048,19.417A20.353,20.353,0,0,0,17.5,84.957a28.751,28.751,0,0,1,4.551,16.687c-.052,2.173.406,4.2,2.271,5.6A2.463,2.463,0,0,1,25.2,109c.718,3.655,3,6.687,4.753,9.785,1.977,3.5,6.277,2.375,9.667,1.86,2.718-.413,4.064-2.59,4.258-5.289a2.8,2.8,0,0,1,1.253-2.13,4.718,4.718,0,0,0,1.9-3.617,2.906,2.906,0,0,1,2.224-3.064c-.069,2.765-1.508,5.153-2.144,7.768a62,62,0,0,0-1.435,19.026,47.174,47.174,0,0,1-22.72-13.621A48.259,48.259,0,0,1,69.083,39.68c1.412.311,1.575.658.779,1.815A53.979,53.979,0,0,0,60.573,67.6a53.424,53.424,0,0,0,1.895,18.68c.286,1.085.459,1.864-.516,2.78a51.122,51.122,0,0,0-10.61,14.229c-.308.606-.541,1.352-1.494,1.1" transform="translate(-4.68 -18.219)" fill="#87c4f8"/>
        <path id="Path_610462" data-name="Path 610462" d="M101.895,143.4a54.94,54.94,0,0,0,27.238,27.135A47.881,47.881,0,0,1,107.5,183.12a51.687,51.687,0,0,1-16.892,1.53c-1.7-.1-2.736-.628-2.869-2.573-1-14.634,3.275-27.394,13.354-38.134a5.256,5.256,0,0,1,.807-.542" transform="translate(-41.533 -67.995)" fill="#b4e89b"/>
        <path id="Path_610463" data-name="Path 610463" d="M154.844,77.847A55.494,55.494,0,0,0,117.8,87.676a32.231,32.231,0,0,1-1.825-11.219,48.6,48.6,0,0,1,8.89-29.048c1.107-1.593,2.021-1.839,3.814-.965,12.759,6.216,21.393,15.984,25.817,29.471.136.414.245.838.341,1.264a3.683,3.683,0,0,1,.006.669" transform="translate(-54.989 -21.786)" fill="#fca172"/>
        <path id="Path_610464" data-name="Path 610464" d="M194.9,124.941c-.032-.693-.035-1.658-.128-2.616-.278-2.857-.269-2.92,2.545-1.939A48.175,48.175,0,0,1,226.113,146.3c.681,1.443.6,2.255-.789,3.221a48.373,48.373,0,0,1-38.118,8.139c-2.045-.389-2.689-.882-1.234-3.029,6-8.851,8.685-18.782,8.93-29.689" transform="translate(-87.807 -56.811)" fill="#b3ab97"/>
        <path id="Path_610465" data-name="Path 610465" d="M160.254,123.665a49.533,49.533,0,0,1-9.143,28.166c-.909,1.283-1.675,1.585-3.169.877a49.33,49.33,0,0,1-24.274-24.336c-.617-1.316-.513-2.09.773-2.98,9.983-6.914,20.9-10.158,33.094-8.935,1.8.18,2.436.811,2.4,2.515a25.953,25.953,0,0,0,.312,2.6c.055.695.011,1.4.011,2.1m-4.045,1.8a2.252,2.252,0,0,0-1.43-2.158,2.386,2.386,0,0,0-2.88.521c-2.289,2.018-4.533,4.087-6.8,6.13-1.165,1.051-2.2,2.649-3.549,2.991-1.712.433-2.4-1.8-3.62-2.76-1.368-1.076-2.676-1.35-3.9.027a2.5,2.5,0,0,0,.216,3.728c1.58,1.625,3.2,3.212,4.812,4.806,1.366,1.35,2.754,1.292,4.145.028q6-5.454,12-10.9a2.741,2.741,0,0,0,1.007-2.41" transform="translate(-58.465 -55.099)" fill="#d7b484"/>
        <path id="Path_610466" data-name="Path 610466" d="M221,67.561c-4.552,0-9.1.032-13.654-.013-2.787-.027-3.8-1.311-3.265-4.009A16.8,16.8,0,0,1,211.5,52.244c1.336-.868,1.717-1.314.82-2.884a9.7,9.7,0,0,1,2.466-12.5,9.948,9.948,0,0,1,12.37-.032,9.562,9.562,0,0,1,2.606,12.446c-.828,1.5-.719,2.077.748,2.991a16.662,16.662,0,0,1,7.292,10.5c.866,3.39-.18,4.77-3.67,4.786-4.377.019-8.753,0-13.13,0m-.117-5.259c3.147,0,6.294-.022,9.441.011,1.225.013,1.94-.135,1.085-1.572a11.946,11.946,0,0,0-20.835.057c-.692,1.165-.4,1.523.869,1.512,3.147-.027,6.294-.009,9.44-.008m.2-22.335a4.611,4.611,0,0,0-4.748,4.531,4.726,4.726,0,0,0,4.48,4.846,4.949,4.949,0,0,0,4.982-4.7,4.83,4.83,0,0,0-4.713-4.672" transform="translate(-96.703 -16.449)" fill="#050505"/>
        <path id="Path_610467" data-name="Path 610467" d="M181.706,246.572a8.908,8.908,0,0,0-2.775-.717c-1.179.089-2.489.461-2.9,1.857-.579,1.974-1.959,2.57-3.819,2.348-2.326-.278-5.177,1.12-6.491-2.35a2.854,2.854,0,0,0-4.117-1.564,3.173,3.173,0,0,1-3.99-.883c-1.953-2.1-4.862-3.665-2.9-7.455.4-.781-.4-2.6-1.908-3.051-1.847-.549-2.411-1.8-2.283-3.6a29.327,29.327,0,0,0,.006-3.413,2.827,2.827,0,0,1,1.9-3.055c2.023-.873,2.874-2.377,1.891-4.578a2.91,2.91,0,0,1,.761-3.571c.949-.908,1.845-1.869,2.8-2.774a2.8,2.8,0,0,1,3.534-.673c1.973.957,3.605.211,4.433-1.777,1.209-2.9,3.7-2.056,5.866-2.187,1.847-.111,3.405.175,4.265,2.216.813,1.931,2.42,2.72,4.429,1.742a2.568,2.568,0,0,1,3.136.34c1.228,1.119,2.4,2.3,3.522,3.53a2.641,2.641,0,0,1,.415,3.141c-.914,1.988-.32,3.7,1.676,4.474,2.749,1.066,2.113,3.3,2.169,5.31s.3,4.055-2.351,4.919a2.626,2.626,0,0,0-1.731,3.565c1.215,2.506.085,3.98-1.6,5.426-1.227,1.052-2.042,2.712-3.94,2.778m-21.417-7.561c-.341,1.544-.134,1.719,1.392,1.391,2.2-.473,7.109,1.419,8.143,3.341.757,1.408,1.047,1.478,2.1.153a8.742,8.742,0,0,1,8.315-3.428c1.657.22,1.8-.288,1.383-1.7-.493-1.675,1.536-7.035,3.037-7.843,1.7-.918,1.986-1.5.076-2.531-1.655-.9-3.618-6.21-3.057-8.035.5-1.633,0-1.647-1.492-1.524a8.8,8.8,0,0,1-8.337-3.546c-.9-1.261-1.113-1.049-1.954.059a8.616,8.616,0,0,1-8.343,3.462c-1.557-.2-1.59.243-1.437,1.476a9,9,0,0,1-3.483,8.335c-.825.695-1.315,1.12-.154,1.941,2.939,2.08,3.556,5.194,3.809,8.445" transform="translate(-71.366 -99.152)" fill="#040604"/>
        <path id="Path_610468" data-name="Path 610468" d="M59.744,90.626c-.992-4.037-3.438-6.259-6.945-6.309-4.056-.058-5.906,2.083-7.686,8.979-1.2-.574-.621-1.671-.758-2.483a7.593,7.593,0,0,0-6.074-6.434,7.092,7.092,0,0,0-6.323,11.734,6.829,6.829,0,0,0,5.609,2.355c1.322-.057,1.6.454,1.586,1.664-.062,4.2-.048,8.408-.008,12.612.01,1.037-.139,1.662-1.4,1.573-.979-.069-1.847.106-1.99-1.34-.519-5.25-2.848-9.815-5.389-14.349-4.141-7.389-1.321-17.01,6.093-21.49A16.188,16.188,0,0,1,58.112,81.61l.449.634.021.038a1.007,1.007,0,0,0,.589.981l-.01-.019a6.161,6.161,0,0,0,.507,2.982c.49,1.457.945,2.918.076,4.4" transform="translate(-13.49 -35.457)" fill="#f9db74"/>
        <path id="Path_610469" data-name="Path 610469" d="M79.859,98.262c.869-1.482.414-2.943-.076-4.4a6.161,6.161,0,0,1-.507-2.982,14.4,14.4,0,0,1,.817,14.451c-2.459,5.012-5.333,9.79-5.875,15.5-.148,1.554-1.314,1.008-2.168,1.1-1.2.13-1.164-.688-1.162-1.517.011-4.277.038-8.553-.017-12.829-.015-1.16.423-1.393,1.511-1.491,5.142-.46,7.164-2.634,7.476-7.828" transform="translate(-33.605 -43.092)" fill="#f5d46e"/>
        <path id="Path_610470" data-name="Path 610470" d="M60.632,160.761H43.467l0-.462H60.627c0,.154,0,.308,0,.462" transform="translate(-20.608 -76.008)" fill="#efd6c7"/>
        <path id="Path_610471" data-name="Path 610471" d="M59.119,135.67V120.017l.573-.009v15.655l-.573.007" transform="translate(-28.032 -56.903)" fill="#f9db74"/>
        <path id="Path_610472" data-name="Path 610472" d="M72.371,106.624c-.861.056-1.563-.015-1.492-1.182.075-1.233.453-2.288,1.789-2.456a1.586,1.586,0,0,1,1.856,1.678c.071,1.468-.9,1.9-2.153,1.959" transform="translate(-33.606 -48.824)" fill="#ecd16e"/>
        <path id="Path_610473" data-name="Path 610473" d="M43.683,106.624c-1.128-.159-1.947-.688-1.836-2A1.591,1.591,0,0,1,43.752,103c1.31.207,1.709,1.235,1.752,2.494.052,1.487-1,1.057-1.821,1.135" transform="translate(-19.837 -48.824)" fill="#ecd16e"/>
        <path id="Path_610474" data-name="Path 610474" d="M49.374,172.223H60.3a20.087,20.087,0,0,1-10.922,0" transform="translate(-23.411 -81.662)" fill="#b3ab97"/>
        <path id="Path_610475" data-name="Path 610475" d="M59.569,184.084a5.88,5.88,0,0,1-5.054-.056,10.374,10.374,0,0,1,5.054.056" transform="translate(-25.849 -87.124)" fill="#b3ab97"/>
        <path id="Path_610476" data-name="Path 610476" d="M86.342,90.032a1.007,1.007,0,0,1-.589-.981,1.041,1.041,0,0,1,.589.981" transform="translate(-40.661 -42.225)" fill="#f5d46e"/>
        <path id="Path_610477" data-name="Path 610477" d="M85.308,88.406l-.45-.634.45.634" transform="translate(-40.237 -41.618)" fill="#f5d46e"/>
        <path id="Path_610478" data-name="Path 610478" d="M165.216,131.622a2.742,2.742,0,0,1-1.007,2.41q-6.015,5.437-12,10.9c-1.391,1.265-2.779,1.322-4.145-.028-1.613-1.594-3.232-3.181-4.812-4.806a2.5,2.5,0,0,1-.216-3.728c1.228-1.378,2.537-1.1,3.9-.027,1.222.962,1.908,3.192,3.62,2.76,1.349-.342,2.384-1.94,3.549-2.991,2.267-2.043,4.511-4.112,6.8-6.13a2.386,2.386,0,0,1,2.88-.521,2.252,2.252,0,0,1,1.43,2.158" transform="translate(-67.472 -61.252)" fill="#050505"/>
        <path id="Path_610479" data-name="Path 610479" d="M226.533,80.316c-3.147,0-6.294-.019-9.44.008-1.271.011-1.561-.347-.869-1.512a11.946,11.946,0,0,1,20.835-.057c.854,1.437.14,1.585-1.085,1.572-3.147-.033-6.293-.011-9.44-.012" transform="translate(-102.352 -34.464)" fill="#87c4f8"/>
        <path id="Path_610480" data-name="Path 610480" d="M232.252,44.722a4.83,4.83,0,0,1,4.713,4.672,4.949,4.949,0,0,1-4.982,4.7,4.726,4.726,0,0,1-4.48-4.846,4.611,4.611,0,0,1,4.748-4.531" transform="translate(-107.873 -21.205)" fill="#efd6c7"/>
        <path id="Path_610481" data-name="Path 610481" d="M165.055,243.809c-.253-3.251-.87-6.365-3.809-8.445-1.161-.822-.67-1.246.154-1.941a9,9,0,0,0,3.483-8.335c-.153-1.233-.12-1.679,1.437-1.475a8.618,8.618,0,0,0,8.343-3.462c.84-1.108,1.05-1.32,1.953-.059a8.8,8.8,0,0,0,8.337,3.547c1.493-.123,1.993-.109,1.492,1.524-.561,1.825,1.4,7.139,3.057,8.035,1.911,1.035,1.628,1.614-.075,2.531-1.5.808-3.53,6.168-3.037,7.843.414,1.408.274,1.916-1.383,1.7a8.743,8.743,0,0,0-8.315,3.428c-1.055,1.325-1.345,1.255-2.1-.153-1.034-1.922-5.941-3.815-8.143-3.341-1.526.328-1.733.152-1.392-1.391m10.707,1.578a11,11,0,0,0,10.96-11.023,11.153,11.153,0,0,0-11.12-10.937,10.9,10.9,0,0,0-10.839,11.1,10.722,10.722,0,0,0,11,10.86" transform="translate(-76.131 -103.95)" fill="#ecd16e"/>
        <path id="Path_610482" data-name="Path 610482" d="M179.552,249.173a10.723,10.723,0,0,1-11-10.86,10.9,10.9,0,0,1,10.839-11.1,11.153,11.153,0,0,1,11.12,10.937,11,11,0,0,1-10.96,11.023m-.147-5.235a5.8,5.8,0,0,0,5.881-5.765,5.965,5.965,0,0,0-5.74-5.725,5.673,5.673,0,0,0-5.756,5.844,5.514,5.514,0,0,0,5.615,5.646" transform="translate(-79.921 -107.736)" fill="#050505"/>
        <path id="Path_610483" data-name="Path 610483" d="M184.129,248.658a5.514,5.514,0,0,1-5.615-5.646,5.673,5.673,0,0,1,5.756-5.844,5.965,5.965,0,0,1,5.74,5.725,5.8,5.8,0,0,1-5.881,5.765" transform="translate(-84.645 -112.456)" fill="#e6e9eb"/>
      </g>
    </g>
  </g>
</svg>
