<svg xmlns="http://www.w3.org/2000/svg" xmlns:xlink="http://www.w3.org/1999/xlink" width="142" height="142" viewBox="0 0 142 142">
  <defs>
    <clipPath id="clip-path">
      <rect id="Rectangle_377881" data-name="Rectangle 377881" width="108.121" height="108.285" fill="none"/>
    </clipPath>
  </defs>
  <g id="Group_1071494" data-name="Group 1071494" transform="translate(-269.001 -958)">
    <circle id="Ellipse_5614" data-name="Ellipse 5614" cx="71" cy="71" r="71" transform="translate(269.001 958.001)" fill="#fff"/>
    <g id="Group_1072654" data-name="Group 1072654" transform="translate(287.946 972.848)">
      <g id="Group_1072653" data-name="Group 1072653" clip-path="url(#clip-path)">
        <path id="Path_610492" data-name="Path 610492" d="M8.986,108c-3.568.139-3.568.139-3.568-3.408q0-22.139.021-44.277A2.879,2.879,0,0,0,4.39,57.86,12.519,12.519,0,0,1,.026,48.183q-.051-6.839,0-13.679a8.977,8.977,0,0,1,9.307-9.285c2.28-.022,4.571-.142,6.836.041,1.694.137,1.92-.5,1.889-1.983-.1-4.558-.047-9.119-.032-13.678C18.043,3.8,21.792.041,27.572.01c2.16-.012,4.32-.016,6.479,0,2.759.022,4.612,1.31,5.321,3.662a4.9,4.9,0,0,1-2.439,5.952,1.654,1.654,0,0,0-.918,1.7c.037,2.219.01,4.439.012,6.659a5.4,5.4,0,0,1-.618,3.129c-1.093,1.531-.168,2.522.542,3.7.36.6.819.381,1.238.385,2.579.027,5.159-.017,7.738.022a8.946,8.946,0,0,1,9.092,9.132c.048,4.8.062,9.6-.009,14.4a11.986,11.986,0,0,1-4.359,9.294,2.791,2.791,0,0,0-1.039,2.443q.039,22.5.018,45c0,2.564,0,2.566-2.491,2.551-.359,0-.718-.028-1.077-.043-.012-11.937-.053-23.874,0-35.811.006-1.522-.28-2.013-1.932-2q-16.1.131-32.21,0c-1.652-.014-1.938.477-1.932,2C9.039,84.123,9,96.06,8.986,108M7.309,45.024c-.96,0-1.92.009-2.879,0-.467-.006-.824.039-.814.651.032,1.97-.144,3.951.637,5.848a9.062,9.062,0,0,0,8.184,6.05,8.906,8.906,0,0,0,8.914-4.9c3.136-5.716,6.089-11.533,9.274-17.22a12.855,12.855,0,0,0,1.838-7.49c-.178-2.383-.037-2.391-2.313-1.52a2.346,2.346,0,0,1-.85.249c-2.084-.076-2.427,1.059-2.327,2.876.079,1.431.528,3.009-.617,4.314q-6.112,6.961-12.209,13.936a1.817,1.817,0,0,1-2.066.7,1.686,1.686,0,0,1-1.233-1.955c.264-1.56-.587-1.649-1.739-1.545-.595.053-1.2.009-1.8.011M9.021,60.688c0,1.469.1,2.793-.027,4.094-.147,1.468.282,1.9,1.823,1.886,9.954-.079,19.909-.04,29.863-.04,4.464,0,4.409,0,4.383-4.51-.007-1.245-.423-1.371-1.453-1.157a12.176,12.176,0,0,1-9.85-2.24c-2.25-1.592-4.539-3.135-6.714-4.825-1.2-.93-1.817-1.079-2.575.51a11.949,11.949,0,0,1-6.205,5.739,14.021,14.021,0,0,1-9.243.542M50.429,46.961c0-3.74,0-3.74-3.383-3.74h-.719c-3.006,0-3.006,0-3.1,3.03-.065,2.109-1.093,2.805-3.047,2-1.877-.771-3.712-1.646-5.6-2.4-1.481-.592-3.154-2.124-4.372-1.556-1.179.55-1.646,2.628-2.427,4.035-.087.156-.172.315-.268.466-.37.585-.163.958.373,1.332,2.994,2.088,5.891,4.325,8.971,6.273a8.187,8.187,0,0,0,8.083.435c4.341-1.989,5.778-5.62,5.485-9.879m-10.8-2.878c0-2.351.121-4.449-.04-6.524-.121-1.55.623-1.585,1.779-1.567s2.2-.06,1.869,1.618c-.313,1.6.307,2.258,1.981,2.028,1.695-.233,4.1.767,4.942-.391.86-1.188.32-3.452.244-5.239a5.283,5.283,0,0,0-5.2-5.166c-2.694-.089-5.393.009-8.089-.042-.876-.017-1.229.282-1.085,1.126.389,2.288-.57,4.191-1.664,6.076-.69,1.189-1.272,2.441-1.96,3.631-.444.769-.5,1.2.505,1.587,2.166.831,4.275,1.811,6.715,2.863m-25.2-2.067c2.512-2.867,4.692-5.383,6.909-7.866.526-.589.317-.923-.219-1.265a6.326,6.326,0,0,1-2.532-3.172,1.275,1.275,0,0,0-1.466-.909c-2.695.036-5.391-.033-8.085.028a5.349,5.349,0,0,0-5.4,5.345c-.049,1.316-.009,2.635-.009,3.953,0,3.29,0,3.29,3.22,3.29,3.914,0,4.017,0,3.932-3.966-.036-1.691.887-1.407,1.888-1.449,1.113-.047,1.989-.06,1.8,1.529a41.081,41.081,0,0,0-.032,4.483M32.416,15.024h.009c0-1.078.015-2.156-.008-3.234-.008-.372.193-.949-.471-.953-1.972-.012-4.149-.49-5.858.189-1.64.652-2.883,2.449-4.134,3.888-.8.916-.334,2.2-.3,3.3a5.378,5.378,0,0,0,10.748.045c.064-1.074.01-2.155.01-3.233M21.891,9.649c1.636-2.881,4.286-2.579,6.87-2.51,1.317.035,2.636,0,3.954.007a3.3,3.3,0,0,0,1.569-.269c.873-.441,1.86-.834,1.579-2.054-.253-1.1-1.2-1.162-2.154-1.153-2.1.021-4.193-.016-6.29.012-3.52.046-5.618,2.182-5.528,5.967m1.35,20.287c.424-3.723.424-3.723-1.544-4.3-.168,1.6-.058,3.1,1.544,4.3" transform="translate(0 0)" fill="#020202"/>
        <path id="Path_610493" data-name="Path 610493" d="M24.94,232.614c.012-11.937.053-23.874,0-35.811-.006-1.522.28-2.013,1.932-2q16.1.131,32.21,0c1.652-.014,1.938.477,1.932,2-.051,11.937-.011,23.874,0,35.811-4.25.018-8.5.175-12.75-.084-.45-3.189-.877-6.382-1.356-9.568-.683-4.548-1.409-9.09-2.1-13.637-.164-1.077-.677-1.821-1.825-1.84-1.06-.017-1.6.668-1.822,1.648-.186.814-.392,1.624-.58,2.437-1.482,6.4-2.972,12.793-4.427,19.2-.139.61-.585,1.4.415,1.793l-11.628.054" transform="translate(-15.954 -124.616)" fill="#708698"/>
        <path id="Path_610494" data-name="Path 610494" d="M219.183,178.342c-3.9,0-7.793.009-11.69,0-2.035-.007-2.571-.527-2.575-2.529q-.019-9.173,0-18.345c0-2.006.536-2.525,2.573-2.528q11.869-.014,23.739,0c1.919,0,2.481.549,2.486,2.435q.024,9.263,0,18.525c-.005,1.884-.57,2.431-2.484,2.439-4.016.017-8.033.005-12.049.005m10.922-12.37c-.841.652-1.4,1.079-1.951,1.515a8,8,0,0,1-9.955.54,4.869,4.869,0,0,0-5.7-.037c-2.061,1.318-4.821,2.079-4.018,5.569.2.876.324,1.189,1.252,1.184q9.6-.056,19.207,0c.974.006,1.208-.317,1.186-1.231-.056-2.387-.019-4.776-.019-7.542m-21.587.129c.542-.3.81-.419,1.047-.584,3.662-2.542,7.316-2.9,11.129-.217a3.708,3.708,0,0,0,4.263-.031,57.957,57.957,0,0,0,4.689-3.6c.885-.727.43-1.79.424-2.7,0-.629-.626-.415-.993-.416-6.523-.014-13.046,0-19.569-.025-.806,0-1.017.284-1,1.042.04,2.087.014,4.176.014,6.539" transform="translate(-131.081 -99.109)" fill="#020202"/>
        <path id="Path_610495" data-name="Path 610495" d="M209.894,25.441c0-1.919.033-3.839-.013-5.757a2.529,2.529,0,0,1,1.284-2.374q4.956-3.244,9.854-6.577a2.334,2.334,0,0,1,2.958,0q4.9,3.335,9.853,6.577a2.568,2.568,0,0,1,1.285,2.377q-.052,5.757,0,11.514a2.57,2.57,0,0,1-1.283,2.379q-4.953,3.249-9.853,6.577a2.338,2.338,0,0,1-2.959,0q-4.893-3.339-9.854-6.577a2.53,2.53,0,0,1-1.285-2.374c.047-1.918.013-3.838.013-5.757m12.684-1.371c.194-.119.4-.237.6-.368,2-1.323,3.982-2.667,6-3.964.833-.537.508-.861-.1-1.258-1.954-1.28-3.907-2.563-5.836-3.881a1.061,1.061,0,0,0-1.418-.035c-1.97,1.363-3.988,2.655-5.973,4-.247.167-.865.47-.455.756,2.351,1.635,4.771,3.171,7.185,4.753M213.5,22.514c0,2.689-.006,4.963.006,7.238,0,.4-.149.886.267,1.166,2.234,1.507,4.481,3,6.93,4.627,0-2.67,0-4.945,0-7.219,0-.537.023-1.025-.552-1.4-2.143-1.38-4.25-2.814-6.651-4.416m18.01-.008c-2.416,1.616-4.532,3.047-6.669,4.446a1.1,1.1,0,0,0-.546,1.035c.008,2.425,0,4.85,0,7.6,2.416-1.613,4.527-3.051,6.673-4.436.579-.374.536-.872.537-1.405,0-2.278,0-4.555,0-7.237" transform="translate(-134.261 -6.526)" fill="#020202"/>
        <path id="Path_610496" data-name="Path 610496" d="M165.36,16.476c-1.013,1.073-2.049,2.125-3.03,3.228-.529.594-.863.515-1.427-.012-1.919-1.79-1.947-1.763-.124-3.585,2.715-2.714,5.5-5.364,8.12-8.166,1.217-1.3,1.643-.177,2.326.429.732.65,1.553,1.292.248,2.171-1.9,1.28-2.327,3.093-2.16,5.282.164,2.148.027,4.318.038,6.478a1.929,1.929,0,0,1-2.191,2.211c-3.36-.006-6.721,0-10.081,0-1.5,0-2.149-.795-2.141-2.259q.026-4.951,0-9.9c-.009-1.6.78-2.291,2.335-2.249a18.518,18.518,0,0,0,2.877-.018c1.615-.211,2.065.343,2.07,1.995,0,1.576-.644,1.855-1.863,1.616-1.789-.351-1.92.613-1.829,2,.109,1.666-.552,3.849.276,4.875.868,1.075,3.153.13,4.789.369,1.849.269,2.46-.429,2.17-2.2a12.391,12.391,0,0,1-.017-1.97l-.386-.281" transform="translate(-99.114 -4.694)" fill="#020202"/>
        <path id="Path_610497" data-name="Path 610497" d="M165.316,151.353c-.854.957-1.745,1.885-2.552,2.881-.742.915-1.225,1-2.223.114-1.4-1.239-1.238-1.942.046-3.136,2.853-2.654,5.6-5.428,8.27-8.268,1.016-1.081,1.544-.619,2.2.211.539.685,1.977,1.223.464,2.292-1.919,1.355-2.406,3.183-2.205,5.449.185,2.084.022,4.2.044,6.3.017,1.582-.743,2.292-2.309,2.281-3.3-.022-6.6-.013-9.9,0a1.928,1.928,0,0,1-2.2-2.2c.009-3.36,0-6.721,0-10.082a1.87,1.87,0,0,1,2.084-2.126,24.721,24.721,0,0,0,3.237-.03c1.624-.227,1.961.391,1.946,1.936-.014,1.436-.429,1.957-1.791,1.69-1.631-.319-2.058.386-1.9,1.923a24.7,24.7,0,0,1,.006,4.137c-.068,1.006.338,1.2,1.227,1.162,1.618-.06,3.241-.051,4.86,0,.792.024,1.229-.1,1.154-1.048-.083-1.053-.019-2.117-.019-3.177l-.433-.3" transform="translate(-99.119 -91.036)" fill="#020202"/>
        <path id="Path_610498" data-name="Path 610498" d="M56.087,255.076c-1-.393-.554-1.183-.415-1.793,1.455-6.4,2.944-12.8,4.427-19.2.188-.814.394-1.623.58-2.437.224-.979.762-1.665,1.822-1.648,1.149.018,1.661.763,1.826,1.84.694,4.547,1.42,9.089,2.1,13.637.478,3.185.906,6.378,1.355,9.568-3.35.3-3.368.3-3.906-2.859-.557-3.271-1.077-6.549-1.943-9.837-.879,3.691-1.909,7.354-2.571,11.083-.32,1.8-.868,2.379-2.567,1.724a2.822,2.822,0,0,0-.71-.081" transform="translate(-35.473 -147.133)" fill="#020202"/>
        <path id="Path_610499" data-name="Path 610499" d="M236.545,108.5c-3.48,0-6.963-.09-10.438.039-1.692.063-1.254-.983-1.254-1.84s-.437-1.864,1.252-1.841q10.438.141,20.878,0c1.688-.023,1.253.983,1.253,1.841s.44,1.9-1.253,1.841c-3.475-.129-6.958-.039-10.438-.039" transform="translate(-143.807 -67.077)" fill="#020202"/>
        <path id="Path_610500" data-name="Path 610500" d="M194.943,124.88c2.82,0,5.645.1,8.457-.038,1.7-.085,1.26.976,1.259,1.836s.438,1.874-1.248,1.844q-8.636-.15-17.277,0c-1.691.031-1.259-.979-1.257-1.838s-.442-1.919,1.249-1.843c2.934.132,5.878.037,8.818.037" transform="translate(-118.234 -79.859)" fill="#020202"/>
        <path id="Path_610501" data-name="Path 610501" d="M258.578,128.513c-2.58,0-5.162-.068-7.738.024-1.678.06-1.046-1.113-1.047-1.826s-.628-1.85,1.047-1.827q7.918.106,15.838,0c1.675-.022,1.046,1.115,1.046,1.828s.63,1.883-1.047,1.826c-2.7-.092-5.4-.025-8.1-.025" transform="translate(-159.72 -79.888)" fill="#020202"/>
        <path id="Path_610502" data-name="Path 610502" d="M258.93,259.836c2.58,0,5.162.07,7.738-.025,1.673-.062,1.061,1.1,1.054,1.819s.64,1.856-1.04,1.834q-7.918-.1-15.838,0c-1.671.023-1.06-1.105-1.053-1.822s-.642-1.888,1.04-1.832c2.7.089,5.4.024,8.1.024" transform="translate(-159.718 -166.2)" fill="#020202"/>
        <path id="Path_610503" data-name="Path 610503" d="M231.987,243.43c-1.98,0-3.961-.044-5.938.019-.916.03-1.217-.207-1.218-1.177,0-2.446-.058-2.446,2.448-2.446,3.6,0,7.2.079,10.8-.036,1.589-.051,1.229.936,1.162,1.731-.064.766.671,2.034-1.133,1.935-2.034-.112-4.078-.026-6.117-.026" transform="translate(-143.825 -153.394)" fill="#020202"/>
        <path id="Path_610504" data-name="Path 610504" d="M211.075,263.439c-1.739,0-3.483-.071-5.218.02-1.684.088-1.03-1.12-1.039-1.83s-.617-1.862,1.054-1.82q5.216.131,10.437,0c1.682-.039,1.03,1.126,1.038,1.835s.619,1.91-1.055,1.815c-1.734-.1-3.478-.022-5.218-.022" transform="translate(-130.948 -166.2)" fill="#020202"/>
        <path id="Path_610505" data-name="Path 610505" d="M202.569,108.542h-.36c-2.763,0-2.725,0-2.511-2.74.058-.737.31-.9.965-.874,1.2.038,2.4.051,3.6,0,.752-.034.845.3.885.952.165,2.667.191,2.666-2.577,2.666" transform="translate(-127.692 -67.119)" fill="#020202"/>
        <path id="Path_610506" data-name="Path 610506" d="M202.68,243.382a6.039,6.039,0,0,0-1.078.009c-1.519.28-1.844-.351-1.857-1.823-.013-1.519.4-2.02,1.882-1.811a11.194,11.194,0,0,0,2.514.005c.886-.078,1.079.265,1.1,1.109.05,2.511.093,2.51-2.558,2.51" transform="translate(-127.778 -153.345)" fill="#020202"/>
        <path id="Path_610507" data-name="Path 610507" d="M277.462,243.47a5.033,5.033,0,0,1-.719-.005c-.631-.093-1.635.348-1.822-.249a9.048,9.048,0,0,1-.085-3.023c.017-.365.429-.325.72-.325,1.259,0,2.52.038,3.777-.016.752-.032.845.3.885.952.165,2.667.191,2.666-2.757,2.666" transform="translate(-175.759 -153.433)" fill="#020202"/>
        <path id="Path_610508" data-name="Path 610508" d="M186.43,263.324c-1.934.584-1.5-.8-1.652-1.91-.249-1.773.779-1.581,1.98-1.7,1.776-.181,1.59.793,1.7,2,.163,1.747-.739,1.826-2.031,1.616" transform="translate(-118.179 -166.124)" fill="#020202"/>
        <path id="Path_610509" data-name="Path 610509" d="M13.727,91.022c.6,0,1.2.044,1.8-.01,1.152-.1,2-.015,1.739,1.545A1.686,1.686,0,0,0,18.5,94.512a1.817,1.817,0,0,0,2.066-.7q6.1-6.971,12.209-13.936c1.146-1.3.7-2.882.618-4.314-.1-1.817.242-2.953,2.327-2.876a2.346,2.346,0,0,0,.85-.249c2.276-.871,2.135-.863,2.312,1.52a12.854,12.854,0,0,1-1.837,7.49c-3.185,5.687-6.138,11.5-9.274,17.22a8.906,8.906,0,0,1-8.914,4.9,9.062,9.062,0,0,1-8.185-6.05c-.781-1.9-.6-3.879-.637-5.848-.01-.611.347-.657.814-.651.959.014,1.92,0,2.879,0" transform="translate(-6.418 -45.999)" fill="#fbcbb3"/>
        <path id="Path_610510" data-name="Path 610510" d="M24.94,155.148a14.019,14.019,0,0,0,9.243-.542,11.947,11.947,0,0,0,6.205-5.739c.758-1.589,1.378-1.44,2.575-.51,2.175,1.69,4.464,3.233,6.714,4.825a12.176,12.176,0,0,0,9.85,2.24c1.03-.214,1.446-.088,1.453,1.157.026,4.51.081,4.509-4.383,4.509-9.955,0-19.909-.039-29.863.04-1.541.012-1.97-.418-1.823-1.886.13-1.3.027-2.625.027-4.094" transform="translate(-15.92 -94.46)" fill="#5388fc"/>
        <path id="Path_610511" data-name="Path 610511" d="M98.953,123.7c.293,4.259-1.144,7.89-5.485,9.879a8.187,8.187,0,0,1-8.083-.435c-3.081-1.948-5.978-4.186-8.971-6.273-.537-.374-.743-.747-.373-1.332.1-.151.181-.309.268-.466.78-1.406,1.247-3.484,2.427-4.034,1.217-.567,2.891.965,4.372,1.556,1.884.752,3.719,1.627,5.6,2.4,1.954.8,2.981.107,3.047-2,.094-3.03.094-3.03,3.1-3.03h.719c3.383,0,3.383,0,3.383,3.74" transform="translate(-48.524 -76.74)" fill="#fbcbb3"/>
        <path id="Path_610512" data-name="Path 610512" d="M96.623,95.219c-2.44-1.052-4.549-2.031-6.715-2.863-1-.385-.949-.818-.5-1.587.688-1.19,1.27-2.442,1.96-3.631,1.093-1.885,2.053-3.789,1.664-6.077-.144-.844.209-1.142,1.085-1.126,2.7.052,5.4-.046,8.089.043a5.283,5.283,0,0,1,5.2,5.166c.076,1.787.615,4.051-.244,5.238-.838,1.158-3.247.158-4.943.391-1.673.23-2.294-.428-1.981-2.028.328-1.679-.711-1.6-1.869-1.618s-1.9.017-1.779,1.566c.162,2.076.04,4.174.04,6.524" transform="translate(-56.997 -51.135)" fill="#5388fc"/>
        <path id="Path_610513" data-name="Path 610513" d="M20.822,93.158a41.08,41.08,0,0,1,.032-4.483c.193-1.589-.682-1.576-1.8-1.529-1,.042-1.924-.241-1.888,1.449.085,3.964-.018,3.966-3.932,3.966-3.22,0-3.22,0-3.22-3.29,0-1.318-.039-2.637.009-3.953a5.349,5.349,0,0,1,5.4-5.345c2.694-.062,5.39.008,8.085-.028a1.275,1.275,0,0,1,1.466.909,6.326,6.326,0,0,0,2.532,3.172c.537.342.745.676.219,1.265-2.217,2.483-4.4,5-6.909,7.866" transform="translate(-6.401 -51.141)" fill="#5388fc"/>
        <path id="Path_610514" data-name="Path 610514" d="M70.571,33.954c0,1.078.054,2.159-.01,3.233a5.378,5.378,0,0,1-10.748-.045c-.038-1.1-.5-2.382.3-3.3,1.251-1.439,2.493-3.235,4.134-3.888,1.709-.68,3.886-.2,5.858-.189.664,0,.463.581.471.954.023,1.077.008,2.156.008,3.234h-.009" transform="translate(-38.156 -18.93)" fill="#fbcbb3"/>
        <path id="Path_610515" data-name="Path 610515" d="M60.753,16.165c-.09-3.785,2.008-5.921,5.528-5.967,2.1-.027,4.193.009,6.29-.012.95-.009,1.9.056,2.154,1.153.281,1.219-.705,1.613-1.579,2.053a3.3,3.3,0,0,1-1.569.27c-1.318,0-2.637.028-3.954-.007-2.584-.07-5.234-.371-6.87,2.51" transform="translate(-38.862 -6.516)" fill="#fbb101"/>
        <path id="Path_610516" data-name="Path 610516" d="M61.661,75.461c-1.6-1.195-1.712-2.692-1.544-4.3,1.967.573,1.967.573,1.544,4.3" transform="translate(-38.42 -45.525)" fill="#fbcbb3"/>
        <path id="Path_610517" data-name="Path 610517" d="M236.188,185.58c0,2.766-.037,5.155.019,7.542.022.914-.213,1.238-1.186,1.231q-9.6-.063-19.207,0c-.928.005-1.051-.308-1.252-1.184-.8-3.49,1.957-4.251,4.018-5.569a4.869,4.869,0,0,1,5.7.037,8,8,0,0,0,9.956-.54c.551-.436,1.109-.862,1.95-1.515" transform="translate(-137.165 -118.716)" fill="#5388fc"/>
        <path id="Path_610518" data-name="Path 610518" d="M214.9,172.463c0-2.363.026-4.451-.014-6.539-.014-.757.2-1.045,1-1.042,6.523.027,13.046.012,19.569.025.367,0,.988-.213.993.416.007.914.462,1.977-.424,2.7a57.953,57.953,0,0,1-4.689,3.6,3.708,3.708,0,0,1-4.263.031c-3.813-2.68-7.466-2.324-11.129.217-.237.165-.506.284-1.047.584" transform="translate(-137.462 -105.47)" fill="#5388fc"/>
        <path id="Path_610519" data-name="Path 610519" d="M232.123,31.36c-2.414-1.581-4.834-3.118-7.186-4.753-.41-.285.208-.589.455-.756,1.984-1.343,4-2.636,5.973-4a1.061,1.061,0,0,1,1.417.035c1.929,1.318,3.882,2.6,5.837,3.881.6.4.93.722.1,1.258-2.014,1.3-4,2.641-6,3.964-.2.131-.4.249-.6.368" transform="translate(-143.805 -13.816)" fill="#fbcbb3"/>
        <path id="Path_610520" data-name="Path 610520" d="M219.882,44.375c2.4,1.6,4.509,3.036,6.651,4.416.575.37.552.858.552,1.4,0,2.275,0,4.549,0,7.219-2.448-1.632-4.7-3.12-6.93-4.627-.416-.281-.265-.765-.267-1.166-.013-2.275-.006-4.549-.006-7.238" transform="translate(-140.647 -28.387)" fill="#fbb101"/>
        <path id="Path_610521" data-name="Path 610521" d="M257.092,44.353c0,2.681,0,4.959,0,7.237,0,.534.042,1.032-.537,1.405-2.146,1.385-4.258,2.823-6.673,4.436,0-2.746,0-5.171,0-7.6a1.1,1.1,0,0,1,.546-1.035c2.137-1.4,4.253-2.831,6.669-4.446" transform="translate(-159.847 -28.373)" fill="#fbb101"/>
      </g>
    </g>
  </g>
</svg>
