<svg xmlns="http://www.w3.org/2000/svg" xmlns:xlink="http://www.w3.org/1999/xlink" width="120" height="120" viewBox="0 0 120 120">
  <defs>
    <linearGradient id="linear-gradient" x1="0.5" x2="0.5" y2="1" gradientUnits="objectBoundingBox">
      <stop offset="0" stop-color="#fef5e5"/>
      <stop offset="0.137" stop-color="#fffefc"/>
      <stop offset="0.479" stop-color="#fff"/>
      <stop offset="0.773" stop-color="#fffefd"/>
      <stop offset="1" stop-color="#fef7ea"/>
    </linearGradient>
    <clipPath id="clip-path">
      <rect id="Rectangle_377885" data-name="Rectangle 377885" width="74.369" height="74.297" fill="url(#linear-gradient)"/>
    </clipPath>
  </defs>
  <g id="Group_1072917" data-name="Group 1072917" transform="translate(-180 -25534)">
    <g id="Group_1072660" data-name="Group 1072660" transform="translate(-89 24576)">
      <path id="Path_608972" data-name="Path 608972" d="M60,0A60,60,0,1,1,0,60,60,60,0,0,1,60,0Z" transform="translate(269 958)" fill="#0c5e46"/>
    </g>
    <g id="Group_1072662" data-name="Group 1072662" transform="translate(203.631 25558.34)">
      <g id="Group_1072661" data-name="Group 1072661" clip-path="url(#clip-path)">
        <path id="Path_610560" data-name="Path 610560" d="M28.158,18.875A20.618,20.618,0,0,1,45.6,18.581c-.358-5.753,1.579-10.372,6.229-13.648a14.157,14.157,0,0,1,10.831-2.3c7,1.143,12.334,8.329,11.654,15.451a14.652,14.652,0,0,1-17.7,12.791c2.147,7.829.706,14.862-5.042,20.621s-12.788,7.251-20.733,5.064c.94,5.07-.12,9.522-3.632,13.254a13.8,13.8,0,0,1-9.754,4.47A14.466,14.466,0,0,1,2.417,60.919,14.681,14.681,0,0,1,18.559,45.5a20.611,20.611,0,0,1,.361-17.43,14.45,14.45,0,0,1-11.6-1.178,14.071,14.071,0,0,1-5.981-6.5A14.384,14.384,0,0,1,21.2,1.714c6.023,3.256,8.395,9.01,6.957,17.161M24.3,20.861c2.884-3.573,3.076-10.587-1.568-15.073a12.011,12.011,0,0,0-16.4-.265C1.441,10,1.53,17.095,4.376,20.736a27.283,27.283,0,0,1,2.436-3.179A29.332,29.332,0,0,1,10.1,15.068c-2.291-3.355-2.232-6.386.208-8.661a5.975,5.975,0,0,1,7.8-.319,5.849,5.849,0,0,1,2.151,3.488,6.333,6.333,0,0,1-1.7,5.625,11.078,11.078,0,0,1,5.751,5.66M69.87,23.272c3.005-3.905,2.983-11.015-1.956-15.44a12,12,0,0,0-16.482.53c-4.505,4.522-4.2,11.475-1.379,14.885a11.175,11.175,0,0,1,5.705-5.66c-2.372-3.3-2.362-6.317-.043-8.636a5.751,5.751,0,0,1,7.64-.614,7.813,7.813,0,0,1,2.3,3.221c.844,2.233-.041,4.259-1.552,6.046a11.13,11.13,0,0,1,5.765,5.669M26.718,66.414c3.457-4.277,2.469-11.521-2.059-15.518a11.969,11.969,0,0,0-16.469.7C3.77,56.108,4.1,63.05,6.785,66.24A27.786,27.786,0,0,1,9.24,63.066,29.292,29.292,0,0,1,12.516,60.6c-2.259-3.1-2.278-6.1-.034-8.426a5.762,5.762,0,0,1,7.726-.688,7.809,7.809,0,0,1,2.3,3.224c.843,2.232-.051,4.254-1.549,6.04a11.148,11.148,0,0,1,5.761,5.667M44.68,28.844H29.649l-.93,7.016H45.646l-.966-7.016M28.7,38.427l.971,7.056h15.02l.933-7.056ZM68.074,25.5c-.133-.386-.237-.728-.367-1.061a8.343,8.343,0,0,0-8.09-5.251,8.237,8.237,0,0,0-7.539,5.661,1.36,1.36,0,0,0,.306,1.165,11.814,11.814,0,0,0,15.69-.514M24.884,68.635A8.34,8.34,0,0,0,8.707,68.63c4.085,4.318,12.091,4.321,16.177.006M14.466,26.369a12.1,12.1,0,0,0,7.2-2.484,1.334,1.334,0,0,0,.527-1.812,8.39,8.39,0,0,0-15.7.29,1.047,1.047,0,0,0,.431,1.383,12.308,12.308,0,0,0,7.535,2.623m29.316-.043A13.488,13.488,0,0,0,40.1,20.375a4.006,4.006,0,0,0-5.067-.543c-2.378,1.5-3.484,3.892-4.459,6.494ZM30.565,47.98a13.5,13.5,0,0,0,3.684,5.947,4.01,4.01,0,0,0,5.066.55c2.38-1.5,3.479-3.9,4.471-6.5ZM27.176,28.771c-1.762,0-3.589-.013-5.416.017a.871.871,0,0,0-.651.379,15.5,15.5,0,0,0-1.773,6.723H26.3l.872-7.118m-8.264,9.635c.726,2.293,1.36,4.37,2.062,6.423a1.167,1.167,0,0,0,.813.675c1.817.061,3.638.031,5.393.031L26.3,38.406Zm29.127.01-.874,7.121c1.775,0,3.566.023,5.356-.024a1.1,1.1,0,0,0,.789-.531,15.66,15.66,0,0,0,1.713-6.565Zm-.875-9.645.88,7.114h7.267A59.382,59.382,0,0,0,53.6,30.1a2.763,2.763,0,0,0-1.958-1.266,34.44,34.44,0,0,0-4.472-.058M63.537,13.161a3.587,3.587,0,1,0-3.564,3.61,3.606,3.606,0,0,0,3.564-3.61M17.985,10.843a3.587,3.587,0,1,0-3.643,3.531,3.607,3.607,0,0,0,3.643-3.531m2.4,45.51a3.587,3.587,0,1,0-3.613,3.56,3.605,3.605,0,0,0,3.613-3.56M27.839,26.3l2.836-5.829A17.412,17.412,0,0,0,22.931,26.3ZM46.514,48l-2.855,5.876A17.92,17.92,0,0,0,51.463,48ZM43.667,20.466,46.509,26.3h2.519a16.954,16.954,0,0,1-1.764-2.879c-.643-1.747-2-2.434-3.6-2.95M30.7,53.9,27.837,48h-2.4c1.326,1.7,2.7,3.5,4.128,5.262A3.839,3.839,0,0,0,30.7,53.9" transform="translate(0 0)" fill="url(#linear-gradient)"/>
        <path id="Path_610561" data-name="Path 610561" d="M139.852,177.957l.329-2.255c8.318.833,15.5-1.54,21.361-7.489A24.794,24.794,0,0,0,168.452,154l-1.373,1.129-1.408-1.537,4.342-4.239,4.15,4.178-1.6,1.486-1.54-1.354c-2.4,17.411-17.907,26.377-31.169,24.3" transform="translate(-106.341 -113.563)" fill="url(#linear-gradient)"/>
        <path id="Path_610562" data-name="Path 610562" d="M138.483,31.737l-.615,2.229c-3.015-.6-5.995-1.241-9.283-.54l1.771,1.034-1.063,2.091-5.848-2.92,2.924-5.874,2.115,1.078-1.095,2.355a21.962,21.962,0,0,1,11.094.547" transform="translate(-93.866 -21.107)" fill="url(#linear-gradient)"/>
        <path id="Path_610563" data-name="Path 610563" d="M31.155,138.616a23.6,23.6,0,0,1,.367-9.914l2.074.448-.468,8.167.448.091.963-1.7,2.117,1.043L33.716,142.6,27.85,139.69l1.059-2.133,2.246,1.06" transform="translate(-21.177 -97.863)" fill="url(#linear-gradient)"/>
      </g>
    </g>
  </g>
</svg>
