<svg xmlns="http://www.w3.org/2000/svg" xmlns:xlink="http://www.w3.org/1999/xlink" width="120" height="120" viewBox="0 0 120 120">
  <defs>
    <linearGradient id="linear-gradient" x1="0.5" x2="0.5" y2="1" gradientUnits="objectBoundingBox">
      <stop offset="0" stop-color="#fef5e5"/>
      <stop offset="0.137" stop-color="#fffefc"/>
      <stop offset="0.479" stop-color="#fff"/>
      <stop offset="0.773" stop-color="#fffefd"/>
      <stop offset="1" stop-color="#fef7ea"/>
    </linearGradient>
    <clipPath id="clip-path">
      <rect id="Rectangle_377887" data-name="Rectangle 377887" width="80.347" height="80.384" fill="url(#linear-gradient)"/>
    </clipPath>
  </defs>
  <g id="Group_1072918" data-name="Group 1072918" transform="translate(-180 -25762.639)">
    <g id="Group_1072664" data-name="Group 1072664" transform="translate(-89 24804.639)">
      <path id="Path_608972" data-name="Path 608972" d="M60,0A60,60,0,1,1,0,60,60,60,0,0,1,60,0Z" transform="translate(269 958)" fill="#0c5e46"/>
    </g>
    <g id="Group_1072666" data-name="Group 1072666" transform="translate(198.52 25782.871)">
      <g id="Group_1072665" data-name="Group 1072665" clip-path="url(#clip-path)">
        <path id="Path_610564" data-name="Path 610564" d="M4.016,56.38c0-2.123,0-4.172,0-6.221.006-3.013,1.6-4.6,4.652-4.654.328-.006.656,0,.914,0V34.986a19.1,19.1,0,0,1-2.24-.232,3.946,3.946,0,0,1-3.322-4.1C4,28.526,4.007,26.392,4,24.258a1.541,1.541,0,0,0-.065-.287A5.463,5.463,0,0,1,.178,19.99a5.345,5.345,0,0,1,10.071-3.446,5.164,5.164,0,0,1-2.239,6.8,2.036,2.036,0,0,0-1.286,2.306c.083,1.544.01,3.095.025,4.643.014,1.512.348,1.839,1.85,1.857.583.008,1.165,0,1.792,0q5.149-16.529,21.63-21.7a.564.564,0,0,0,.081-.194c.2-3.428.139-3.492-3.327-3.492-1.3,0-2.6.055-3.89-.02-.79-.046-1.041.343-1.339.969A5.319,5.319,0,0,1,13.534,6.495,5.354,5.354,0,0,1,16.877.348a5.415,5.415,0,0,1,6.63,2.6c.171.332.307.682.488,1.089q3.059,0,6.134,0,4.674.006,4.753,4.681c.006.327.028.654.039.884H45.392a20.391,20.391,0,0,1,.281-2.387,3.9,3.9,0,0,1,3.954-3.172c2.255-.023,4.511-.005,6.724-.005C57.983.576,60.7-.756,63.616.416A5.456,5.456,0,0,1,67,5.654a5.438,5.438,0,0,1-4.258,4.968A5.109,5.109,0,0,1,56.96,7.9a1.768,1.768,0,0,0-2-1.157c-1.628.075-3.263.009-4.894.025-1.493.015-1.813.354-1.829,1.875-.006.582,0,1.164,0,1.764q16.556,5.174,21.708,21.651a1.676,1.676,0,0,0,.338.079c3.325.122,3.34.107,3.34-3.247,0-.628-.02-1.256,0-1.883.066-1.693.146-3.126-1.886-4.143-2.075-1.039-2.583-3.79-1.739-5.983a5.314,5.314,0,0,1,10.185.65,5.271,5.271,0,0,1-2.451,5.814c-.426.252-.886.446-1.386.694,0,2.084,0,4.174,0,6.263-.007,2.924-1.625,4.541-4.586,4.6-.368.007-.734.039-.98.052v10.47a19.31,19.31,0,0,1,2.3.243,3.931,3.931,0,0,1,3.263,4.012q.032,2.887,0,5.773a1.17,1.17,0,0,0,.791,1.319A5.18,5.18,0,0,1,80.2,62.828a5.384,5.384,0,0,1-5.126,4.2,5.472,5.472,0,0,1-5.3-4.176,5.242,5.242,0,0,1,3.063-6.077,1.189,1.189,0,0,0,.792-1.329c-.027-1.757,0-3.514-.012-5.271-.011-1.595-.331-1.909-1.911-1.923-.582-.005-1.163,0-1.735,0C66.512,59.315,59.3,66.526,48.336,69.963a.487.487,0,0,0-.056.128c-.289,3.383-.135,3.552,3.249,3.552h4.814c.193-.392.362-.762.554-1.12a5.351,5.351,0,0,1,6.053-2.7,5.5,5.5,0,0,1,4.063,5.265,5.381,5.381,0,0,1-4.194,5.134,5.2,5.2,0,0,1-5.96-2.827,1.487,1.487,0,0,0-1.667-1.035c-1.755.054-3.514.023-5.271.014A4.148,4.148,0,0,1,45.488,72c-.012-.447,0-.9,0-1.2H34.977a21.258,21.258,0,0,1-.3,2.449A3.893,3.893,0,0,1,30.8,76.362c-1.966.028-3.933.033-5.9-.006a1.164,1.164,0,0,0-1.294.829,5.321,5.321,0,1,1-.31-4.968c.258.425.451.889.713,1.414,2.226,0,4.482.009,6.737,0a1.244,1.244,0,0,0,1.374-1.307c.033-.789.007-1.58.007-2.333-11.039-3.459-18.231-10.632-21.69-21.607-.028-.016-.1-.087-.169-.092-3.417-.231-3.52-.134-3.52,3.293,0,1.339-.051,2.681.032,4.015a1.544,1.544,0,0,0,.679,1.1c2.559,1.343,3.775,3.745,3.105,6.311a5.5,5.5,0,0,1-5.292,4.029A5.428,5.428,0,0,1,.093,62.563a5.351,5.351,0,0,1,3.383-5.918c.152-.068.3-.146.54-.264m21.135,7.727a14.872,14.872,0,0,0,1-1.74c1.885-4.8,5.386-6.862,10.462-6.057a16.354,16.354,0,0,1,3.966,1.315c.782.346,1.364,1.133,2.137,1.517a9.912,9.912,0,0,0,3.12,1.1,9.346,9.346,0,0,1,4.539,1.6c1.25.9,2.511,1.79,3.74,2.666C67.872,56.89,71.8,39.391,65.039,27.378c-.186.464-.344.835-.485,1.212A191.524,191.524,0,0,1,53.074,53.742c-1.075,1.96-2.72,2.881-4.45,2.48-1.978-.459-3.127-2.062-3.136-4.411-.01-2.468.014-4.936-.011-7.4a2.628,2.628,0,0,0-2.545-2.849c-.289-.04-.584-.045-.875-.072a9.513,9.513,0,0,1-8.389-7.623c-.689-4.563,1.4-8.618,5.55-10.256a19.3,19.3,0,0,1,4.636-.772c.878-.111,1.591-.344,1.605-1.369s-.677-1.34-1.581-1.343c-1.046,0-2.092.025-3.137-.01a3.632,3.632,0,0,1-3.476-4.875c.29-.947.611-1.884.984-3.026a28.038,28.038,0,0,0-19.635,10c1.324,1.281,2.557,2.413,3.719,3.613a10.292,10.292,0,0,1,3.076,7.442c-.013,2.635-.037,5.271.013,7.906A8.894,8.894,0,0,1,23.9,46.375c-.645.973-1.448,1.848-2.043,2.848A9.349,9.349,0,0,0,20.3,52.56a64.7,64.7,0,0,0-.172,7.009.793.793,0,0,0,.253.539c1.55,1.317,3.116,2.615,4.775,4M36.185,32.174c.014,3.667,2.683,6.273,6.87,6.707a5.425,5.425,0,0,1,5.177,5.669c.015,2.425.005,4.85,0,7.275,0,.729-.029,1.482.91,1.68.9.189,1.262-.444,1.6-1.1,1.225-2.374,2.49-4.728,3.67-7.124A148.417,148.417,0,0,0,62.83,25.355a1.971,1.971,0,0,0-.217-2.079A28.169,28.169,0,0,0,44.2,12.4c-3-.475-3.013-.4-3.988,2.486-.12.356-.209.722-.334,1.076-.359,1.017.117,1.415,1.069,1.431,1.087.018,2.176-.032,3.261.018a4.133,4.133,0,0,1,3.993,3.5A3.98,3.98,0,0,1,45.6,25.167a8.8,8.8,0,0,1-2.467.257c-3.993.119-6.959,2.988-6.945,6.75m-19.1-7.856c-7.087,9.956-6.25,23.57.3,32.014,0-.684.017-1.163,0-1.64A10.622,10.622,0,0,1,20.067,47.1c1.446-1.7,2.728-3.512,2.735-5.891.009-2.549.021-5.1-.005-7.647a7.531,7.531,0,0,0-1.612-4.905c-1.255-1.493-2.677-2.846-4.1-4.339M51.46,65.946c-2.125-1.531-3.825-3.075-6.435-3.05-2.343.023-3.976-1.725-5.814-2.942-2.43-1.609-5.073-1.242-7.666-.432a2.684,2.684,0,0,0-1.285,1.136c-.917,1.479-1.738,3.018-2.664,4.654a28.02,28.02,0,0,0,23.863.634M21.4,5.333a2.652,2.652,0,0,0-5.3.116,2.652,2.652,0,1,0,5.3-.116m37.556.019a2.652,2.652,0,1,0,5.3.073,2.6,2.6,0,0,0-2.683-2.668A2.568,2.568,0,0,0,58.96,5.352M5.382,16.121a2.652,2.652,0,0,0-.024,5.3,2.653,2.653,0,1,0,.024-5.3m69.572,5.306a2.653,2.653,0,0,0,.079-5.305,2.653,2.653,0,1,0-.079,5.305M5.368,64.283a2.653,2.653,0,1,0,.008-5.3,2.653,2.653,0,0,0-.008,5.3m69.673-5.3a2.652,2.652,0,1,0-.091,5.3,2.6,2.6,0,0,0,2.677-2.674,2.57,2.57,0,0,0-2.586-2.63M21.406,75.051a2.652,2.652,0,1,0-5.3-.072,2.6,2.6,0,0,0,2.683,2.669,2.574,2.574,0,0,0,2.621-2.6m42.858-.063a2.652,2.652,0,1,0-5.3.05,2.652,2.652,0,0,0,5.3-.05" transform="translate(0 0)" fill="url(#linear-gradient)"/>
      </g>
    </g>
  </g>
</svg>
